%TF.GenerationSoftware,KiCad,Pcbnew,(5.1.8)-1*%
%TF.CreationDate,2021-05-20T16:02:40+02:00*%
%TF.ProjectId,Nes Sound Expansion,4e657320-536f-4756-9e64-20457870616e,rev?*%
%TF.SameCoordinates,Original*%
%TF.FileFunction,Legend,Bot*%
%TF.FilePolarity,Positive*%
%FSLAX46Y46*%
G04 Gerber Fmt 4.6, Leading zero omitted, Abs format (unit mm)*
G04 Created by KiCad (PCBNEW (5.1.8)-1) date 2021-05-20 16:02:40*
%MOMM*%
%LPD*%
G01*
G04 APERTURE LIST*
%ADD10C,0.300000*%
%ADD11C,0.120000*%
%ADD12C,0.150000*%
G04 APERTURE END LIST*
D10*
X121079285Y-119976428D02*
X121079285Y-121476428D01*
X121936428Y-119976428D01*
X121936428Y-121476428D01*
X122650714Y-120762142D02*
X123150714Y-120762142D01*
X123365000Y-119976428D02*
X122650714Y-119976428D01*
X122650714Y-121476428D01*
X123365000Y-121476428D01*
X123936428Y-120047857D02*
X124150714Y-119976428D01*
X124507857Y-119976428D01*
X124650714Y-120047857D01*
X124722142Y-120119285D01*
X124793571Y-120262142D01*
X124793571Y-120405000D01*
X124722142Y-120547857D01*
X124650714Y-120619285D01*
X124507857Y-120690714D01*
X124222142Y-120762142D01*
X124079285Y-120833571D01*
X124007857Y-120905000D01*
X123936428Y-121047857D01*
X123936428Y-121190714D01*
X124007857Y-121333571D01*
X124079285Y-121405000D01*
X124222142Y-121476428D01*
X124579285Y-121476428D01*
X124793571Y-121405000D01*
X126579285Y-120762142D02*
X127079285Y-120762142D01*
X127293571Y-119976428D02*
X126579285Y-119976428D01*
X126579285Y-121476428D01*
X127293571Y-121476428D01*
X127936428Y-119976428D02*
X127936428Y-121476428D01*
X128507857Y-121476428D01*
X128650714Y-121405000D01*
X128722142Y-121333571D01*
X128793571Y-121190714D01*
X128793571Y-120976428D01*
X128722142Y-120833571D01*
X128650714Y-120762142D01*
X128507857Y-120690714D01*
X127936428Y-120690714D01*
X129365000Y-120047857D02*
X129579285Y-119976428D01*
X129936428Y-119976428D01*
X130079285Y-120047857D01*
X130150714Y-120119285D01*
X130222142Y-120262142D01*
X130222142Y-120405000D01*
X130150714Y-120547857D01*
X130079285Y-120619285D01*
X129936428Y-120690714D01*
X129650714Y-120762142D01*
X129507857Y-120833571D01*
X129436428Y-120905000D01*
X129365000Y-121047857D01*
X129365000Y-121190714D01*
X129436428Y-121333571D01*
X129507857Y-121405000D01*
X129650714Y-121476428D01*
X130007857Y-121476428D01*
X130222142Y-121405000D01*
X131650714Y-121405000D02*
X131507857Y-121476428D01*
X131293571Y-121476428D01*
X131079285Y-121405000D01*
X130936428Y-121262142D01*
X130865000Y-121119285D01*
X130793571Y-120833571D01*
X130793571Y-120619285D01*
X130865000Y-120333571D01*
X130936428Y-120190714D01*
X131079285Y-120047857D01*
X131293571Y-119976428D01*
X131436428Y-119976428D01*
X131650714Y-120047857D01*
X131722142Y-120119285D01*
X131722142Y-120619285D01*
X131436428Y-120619285D01*
X119472142Y-117426428D02*
X119472142Y-118926428D01*
X120043571Y-118926428D01*
X120186428Y-118855000D01*
X120257857Y-118783571D01*
X120329285Y-118640714D01*
X120329285Y-118426428D01*
X120257857Y-118283571D01*
X120186428Y-118212142D01*
X120043571Y-118140714D01*
X119472142Y-118140714D01*
X120972142Y-117426428D02*
X120972142Y-118426428D01*
X120972142Y-118140714D02*
X121043571Y-118283571D01*
X121115000Y-118355000D01*
X121257857Y-118426428D01*
X121400714Y-118426428D01*
X122115000Y-117426428D02*
X121972142Y-117497857D01*
X121900714Y-117569285D01*
X121829285Y-117712142D01*
X121829285Y-118140714D01*
X121900714Y-118283571D01*
X121972142Y-118355000D01*
X122115000Y-118426428D01*
X122329285Y-118426428D01*
X122472142Y-118355000D01*
X122543571Y-118283571D01*
X122615000Y-118140714D01*
X122615000Y-117712142D01*
X122543571Y-117569285D01*
X122472142Y-117497857D01*
X122329285Y-117426428D01*
X122115000Y-117426428D01*
X123043571Y-118426428D02*
X123615000Y-118426428D01*
X123257857Y-118926428D02*
X123257857Y-117640714D01*
X123329285Y-117497857D01*
X123472142Y-117426428D01*
X123615000Y-117426428D01*
X124329285Y-117426428D02*
X124186428Y-117497857D01*
X124115000Y-117569285D01*
X124043571Y-117712142D01*
X124043571Y-118140714D01*
X124115000Y-118283571D01*
X124186428Y-118355000D01*
X124329285Y-118426428D01*
X124543571Y-118426428D01*
X124686428Y-118355000D01*
X124757857Y-118283571D01*
X124829285Y-118140714D01*
X124829285Y-117712142D01*
X124757857Y-117569285D01*
X124686428Y-117497857D01*
X124543571Y-117426428D01*
X124329285Y-117426428D01*
X125257857Y-118426428D02*
X125829285Y-118426428D01*
X125472142Y-118926428D02*
X125472142Y-117640714D01*
X125543571Y-117497857D01*
X125686428Y-117426428D01*
X125829285Y-117426428D01*
X126186428Y-118426428D02*
X126543571Y-117426428D01*
X126900714Y-118426428D02*
X126543571Y-117426428D01*
X126400714Y-117069285D01*
X126329285Y-116997857D01*
X126186428Y-116926428D01*
X127472142Y-118426428D02*
X127472142Y-116926428D01*
X127472142Y-118355000D02*
X127615000Y-118426428D01*
X127900714Y-118426428D01*
X128043571Y-118355000D01*
X128115000Y-118283571D01*
X128186428Y-118140714D01*
X128186428Y-117712142D01*
X128115000Y-117569285D01*
X128043571Y-117497857D01*
X127900714Y-117426428D01*
X127615000Y-117426428D01*
X127472142Y-117497857D01*
X129400714Y-117497857D02*
X129257857Y-117426428D01*
X128972142Y-117426428D01*
X128829285Y-117497857D01*
X128757857Y-117640714D01*
X128757857Y-118212142D01*
X128829285Y-118355000D01*
X128972142Y-118426428D01*
X129257857Y-118426428D01*
X129400714Y-118355000D01*
X129472142Y-118212142D01*
X129472142Y-118069285D01*
X128757857Y-117926428D01*
X131043571Y-118926428D02*
X131543571Y-117426428D01*
X132043571Y-118926428D01*
X132400714Y-118926428D02*
X133329285Y-118926428D01*
X132829285Y-118355000D01*
X133043571Y-118355000D01*
X133186428Y-118283571D01*
X133257857Y-118212142D01*
X133329285Y-118069285D01*
X133329285Y-117712142D01*
X133257857Y-117569285D01*
X133186428Y-117497857D01*
X133043571Y-117426428D01*
X132615000Y-117426428D01*
X132472142Y-117497857D01*
X132400714Y-117569285D01*
D11*
%TO.C,J3*%
X111700000Y-110550000D02*
X113030000Y-110550000D01*
X111700000Y-109220000D02*
X111700000Y-110550000D01*
X111700000Y-107950000D02*
X114360000Y-107950000D01*
X114360000Y-107950000D02*
X114360000Y-49470000D01*
X111700000Y-107950000D02*
X111700000Y-49470000D01*
X111700000Y-49470000D02*
X114360000Y-49470000D01*
%TO.C,J4*%
X106620000Y-110550000D02*
X107950000Y-110550000D01*
X106620000Y-109220000D02*
X106620000Y-110550000D01*
X106620000Y-107950000D02*
X109280000Y-107950000D01*
X109280000Y-107950000D02*
X109280000Y-49470000D01*
X106620000Y-107950000D02*
X106620000Y-49470000D01*
X106620000Y-49470000D02*
X109280000Y-49470000D01*
%TO.C,J3*%
D12*
X113363333Y-111002380D02*
X113363333Y-111716666D01*
X113410952Y-111859523D01*
X113506190Y-111954761D01*
X113649047Y-112002380D01*
X113744285Y-112002380D01*
X112982380Y-111002380D02*
X112363333Y-111002380D01*
X112696666Y-111383333D01*
X112553809Y-111383333D01*
X112458571Y-111430952D01*
X112410952Y-111478571D01*
X112363333Y-111573809D01*
X112363333Y-111811904D01*
X112410952Y-111907142D01*
X112458571Y-111954761D01*
X112553809Y-112002380D01*
X112839523Y-112002380D01*
X112934761Y-111954761D01*
X112982380Y-111907142D01*
%TO.C,J4*%
X108283333Y-111002380D02*
X108283333Y-111716666D01*
X108330952Y-111859523D01*
X108426190Y-111954761D01*
X108569047Y-112002380D01*
X108664285Y-112002380D01*
X107378571Y-111335714D02*
X107378571Y-112002380D01*
X107616666Y-110954761D02*
X107854761Y-111669047D01*
X107235714Y-111669047D01*
%TD*%
M02*
