%TF.GenerationSoftware,KiCad,Pcbnew,(5.1.8)-1*%
%TF.CreationDate,2021-03-08T12:32:49+01:00*%
%TF.ProjectId,Nes Sound Expansion,4e657320-536f-4756-9e64-20457870616e,rev?*%
%TF.SameCoordinates,Original*%
%TF.FileFunction,Legend,Bot*%
%TF.FilePolarity,Positive*%
%FSLAX46Y46*%
G04 Gerber Fmt 4.6, Leading zero omitted, Abs format (unit mm)*
G04 Created by KiCad (PCBNEW (5.1.8)-1) date 2021-03-08 12:32:49*
%MOMM*%
%LPD*%
G01*
G04 APERTURE LIST*
%ADD10C,0.300000*%
%ADD11C,0.120000*%
%ADD12C,0.150000*%
G04 APERTURE END LIST*
D10*
X76629285Y-119976428D02*
X76629285Y-121476428D01*
X77486428Y-119976428D01*
X77486428Y-121476428D01*
X78200714Y-120762142D02*
X78700714Y-120762142D01*
X78915000Y-119976428D02*
X78200714Y-119976428D01*
X78200714Y-121476428D01*
X78915000Y-121476428D01*
X79486428Y-120047857D02*
X79700714Y-119976428D01*
X80057857Y-119976428D01*
X80200714Y-120047857D01*
X80272142Y-120119285D01*
X80343571Y-120262142D01*
X80343571Y-120405000D01*
X80272142Y-120547857D01*
X80200714Y-120619285D01*
X80057857Y-120690714D01*
X79772142Y-120762142D01*
X79629285Y-120833571D01*
X79557857Y-120905000D01*
X79486428Y-121047857D01*
X79486428Y-121190714D01*
X79557857Y-121333571D01*
X79629285Y-121405000D01*
X79772142Y-121476428D01*
X80129285Y-121476428D01*
X80343571Y-121405000D01*
X82129285Y-120762142D02*
X82629285Y-120762142D01*
X82843571Y-119976428D02*
X82129285Y-119976428D01*
X82129285Y-121476428D01*
X82843571Y-121476428D01*
X83486428Y-119976428D02*
X83486428Y-121476428D01*
X84057857Y-121476428D01*
X84200714Y-121405000D01*
X84272142Y-121333571D01*
X84343571Y-121190714D01*
X84343571Y-120976428D01*
X84272142Y-120833571D01*
X84200714Y-120762142D01*
X84057857Y-120690714D01*
X83486428Y-120690714D01*
X84915000Y-120047857D02*
X85129285Y-119976428D01*
X85486428Y-119976428D01*
X85629285Y-120047857D01*
X85700714Y-120119285D01*
X85772142Y-120262142D01*
X85772142Y-120405000D01*
X85700714Y-120547857D01*
X85629285Y-120619285D01*
X85486428Y-120690714D01*
X85200714Y-120762142D01*
X85057857Y-120833571D01*
X84986428Y-120905000D01*
X84915000Y-121047857D01*
X84915000Y-121190714D01*
X84986428Y-121333571D01*
X85057857Y-121405000D01*
X85200714Y-121476428D01*
X85557857Y-121476428D01*
X85772142Y-121405000D01*
X87200714Y-121405000D02*
X87057857Y-121476428D01*
X86843571Y-121476428D01*
X86629285Y-121405000D01*
X86486428Y-121262142D01*
X86415000Y-121119285D01*
X86343571Y-120833571D01*
X86343571Y-120619285D01*
X86415000Y-120333571D01*
X86486428Y-120190714D01*
X86629285Y-120047857D01*
X86843571Y-119976428D01*
X86986428Y-119976428D01*
X87200714Y-120047857D01*
X87272142Y-120119285D01*
X87272142Y-120619285D01*
X86986428Y-120619285D01*
X75022142Y-117426428D02*
X75022142Y-118926428D01*
X75593571Y-118926428D01*
X75736428Y-118855000D01*
X75807857Y-118783571D01*
X75879285Y-118640714D01*
X75879285Y-118426428D01*
X75807857Y-118283571D01*
X75736428Y-118212142D01*
X75593571Y-118140714D01*
X75022142Y-118140714D01*
X76522142Y-117426428D02*
X76522142Y-118426428D01*
X76522142Y-118140714D02*
X76593571Y-118283571D01*
X76665000Y-118355000D01*
X76807857Y-118426428D01*
X76950714Y-118426428D01*
X77665000Y-117426428D02*
X77522142Y-117497857D01*
X77450714Y-117569285D01*
X77379285Y-117712142D01*
X77379285Y-118140714D01*
X77450714Y-118283571D01*
X77522142Y-118355000D01*
X77665000Y-118426428D01*
X77879285Y-118426428D01*
X78022142Y-118355000D01*
X78093571Y-118283571D01*
X78165000Y-118140714D01*
X78165000Y-117712142D01*
X78093571Y-117569285D01*
X78022142Y-117497857D01*
X77879285Y-117426428D01*
X77665000Y-117426428D01*
X78593571Y-118426428D02*
X79165000Y-118426428D01*
X78807857Y-118926428D02*
X78807857Y-117640714D01*
X78879285Y-117497857D01*
X79022142Y-117426428D01*
X79165000Y-117426428D01*
X79879285Y-117426428D02*
X79736428Y-117497857D01*
X79665000Y-117569285D01*
X79593571Y-117712142D01*
X79593571Y-118140714D01*
X79665000Y-118283571D01*
X79736428Y-118355000D01*
X79879285Y-118426428D01*
X80093571Y-118426428D01*
X80236428Y-118355000D01*
X80307857Y-118283571D01*
X80379285Y-118140714D01*
X80379285Y-117712142D01*
X80307857Y-117569285D01*
X80236428Y-117497857D01*
X80093571Y-117426428D01*
X79879285Y-117426428D01*
X80807857Y-118426428D02*
X81379285Y-118426428D01*
X81022142Y-118926428D02*
X81022142Y-117640714D01*
X81093571Y-117497857D01*
X81236428Y-117426428D01*
X81379285Y-117426428D01*
X81736428Y-118426428D02*
X82093571Y-117426428D01*
X82450714Y-118426428D02*
X82093571Y-117426428D01*
X81950714Y-117069285D01*
X81879285Y-116997857D01*
X81736428Y-116926428D01*
X83022142Y-118426428D02*
X83022142Y-116926428D01*
X83022142Y-118355000D02*
X83165000Y-118426428D01*
X83450714Y-118426428D01*
X83593571Y-118355000D01*
X83665000Y-118283571D01*
X83736428Y-118140714D01*
X83736428Y-117712142D01*
X83665000Y-117569285D01*
X83593571Y-117497857D01*
X83450714Y-117426428D01*
X83165000Y-117426428D01*
X83022142Y-117497857D01*
X84950714Y-117497857D02*
X84807857Y-117426428D01*
X84522142Y-117426428D01*
X84379285Y-117497857D01*
X84307857Y-117640714D01*
X84307857Y-118212142D01*
X84379285Y-118355000D01*
X84522142Y-118426428D01*
X84807857Y-118426428D01*
X84950714Y-118355000D01*
X85022142Y-118212142D01*
X85022142Y-118069285D01*
X84307857Y-117926428D01*
X86593571Y-118926428D02*
X87093571Y-117426428D01*
X87593571Y-118926428D01*
X87950714Y-118926428D02*
X88879285Y-118926428D01*
X88379285Y-118355000D01*
X88593571Y-118355000D01*
X88736428Y-118283571D01*
X88807857Y-118212142D01*
X88879285Y-118069285D01*
X88879285Y-117712142D01*
X88807857Y-117569285D01*
X88736428Y-117497857D01*
X88593571Y-117426428D01*
X88165000Y-117426428D01*
X88022142Y-117497857D01*
X87950714Y-117569285D01*
X121079285Y-119976428D02*
X121079285Y-121476428D01*
X121936428Y-119976428D01*
X121936428Y-121476428D01*
X122650714Y-120762142D02*
X123150714Y-120762142D01*
X123365000Y-119976428D02*
X122650714Y-119976428D01*
X122650714Y-121476428D01*
X123365000Y-121476428D01*
X123936428Y-120047857D02*
X124150714Y-119976428D01*
X124507857Y-119976428D01*
X124650714Y-120047857D01*
X124722142Y-120119285D01*
X124793571Y-120262142D01*
X124793571Y-120405000D01*
X124722142Y-120547857D01*
X124650714Y-120619285D01*
X124507857Y-120690714D01*
X124222142Y-120762142D01*
X124079285Y-120833571D01*
X124007857Y-120905000D01*
X123936428Y-121047857D01*
X123936428Y-121190714D01*
X124007857Y-121333571D01*
X124079285Y-121405000D01*
X124222142Y-121476428D01*
X124579285Y-121476428D01*
X124793571Y-121405000D01*
X126579285Y-120762142D02*
X127079285Y-120762142D01*
X127293571Y-119976428D02*
X126579285Y-119976428D01*
X126579285Y-121476428D01*
X127293571Y-121476428D01*
X127936428Y-119976428D02*
X127936428Y-121476428D01*
X128507857Y-121476428D01*
X128650714Y-121405000D01*
X128722142Y-121333571D01*
X128793571Y-121190714D01*
X128793571Y-120976428D01*
X128722142Y-120833571D01*
X128650714Y-120762142D01*
X128507857Y-120690714D01*
X127936428Y-120690714D01*
X129365000Y-120047857D02*
X129579285Y-119976428D01*
X129936428Y-119976428D01*
X130079285Y-120047857D01*
X130150714Y-120119285D01*
X130222142Y-120262142D01*
X130222142Y-120405000D01*
X130150714Y-120547857D01*
X130079285Y-120619285D01*
X129936428Y-120690714D01*
X129650714Y-120762142D01*
X129507857Y-120833571D01*
X129436428Y-120905000D01*
X129365000Y-121047857D01*
X129365000Y-121190714D01*
X129436428Y-121333571D01*
X129507857Y-121405000D01*
X129650714Y-121476428D01*
X130007857Y-121476428D01*
X130222142Y-121405000D01*
X131650714Y-121405000D02*
X131507857Y-121476428D01*
X131293571Y-121476428D01*
X131079285Y-121405000D01*
X130936428Y-121262142D01*
X130865000Y-121119285D01*
X130793571Y-120833571D01*
X130793571Y-120619285D01*
X130865000Y-120333571D01*
X130936428Y-120190714D01*
X131079285Y-120047857D01*
X131293571Y-119976428D01*
X131436428Y-119976428D01*
X131650714Y-120047857D01*
X131722142Y-120119285D01*
X131722142Y-120619285D01*
X131436428Y-120619285D01*
X119472142Y-117426428D02*
X119472142Y-118926428D01*
X120043571Y-118926428D01*
X120186428Y-118855000D01*
X120257857Y-118783571D01*
X120329285Y-118640714D01*
X120329285Y-118426428D01*
X120257857Y-118283571D01*
X120186428Y-118212142D01*
X120043571Y-118140714D01*
X119472142Y-118140714D01*
X120972142Y-117426428D02*
X120972142Y-118426428D01*
X120972142Y-118140714D02*
X121043571Y-118283571D01*
X121115000Y-118355000D01*
X121257857Y-118426428D01*
X121400714Y-118426428D01*
X122115000Y-117426428D02*
X121972142Y-117497857D01*
X121900714Y-117569285D01*
X121829285Y-117712142D01*
X121829285Y-118140714D01*
X121900714Y-118283571D01*
X121972142Y-118355000D01*
X122115000Y-118426428D01*
X122329285Y-118426428D01*
X122472142Y-118355000D01*
X122543571Y-118283571D01*
X122615000Y-118140714D01*
X122615000Y-117712142D01*
X122543571Y-117569285D01*
X122472142Y-117497857D01*
X122329285Y-117426428D01*
X122115000Y-117426428D01*
X123043571Y-118426428D02*
X123615000Y-118426428D01*
X123257857Y-118926428D02*
X123257857Y-117640714D01*
X123329285Y-117497857D01*
X123472142Y-117426428D01*
X123615000Y-117426428D01*
X124329285Y-117426428D02*
X124186428Y-117497857D01*
X124115000Y-117569285D01*
X124043571Y-117712142D01*
X124043571Y-118140714D01*
X124115000Y-118283571D01*
X124186428Y-118355000D01*
X124329285Y-118426428D01*
X124543571Y-118426428D01*
X124686428Y-118355000D01*
X124757857Y-118283571D01*
X124829285Y-118140714D01*
X124829285Y-117712142D01*
X124757857Y-117569285D01*
X124686428Y-117497857D01*
X124543571Y-117426428D01*
X124329285Y-117426428D01*
X125257857Y-118426428D02*
X125829285Y-118426428D01*
X125472142Y-118926428D02*
X125472142Y-117640714D01*
X125543571Y-117497857D01*
X125686428Y-117426428D01*
X125829285Y-117426428D01*
X126186428Y-118426428D02*
X126543571Y-117426428D01*
X126900714Y-118426428D02*
X126543571Y-117426428D01*
X126400714Y-117069285D01*
X126329285Y-116997857D01*
X126186428Y-116926428D01*
X127472142Y-118426428D02*
X127472142Y-116926428D01*
X127472142Y-118355000D02*
X127615000Y-118426428D01*
X127900714Y-118426428D01*
X128043571Y-118355000D01*
X128115000Y-118283571D01*
X128186428Y-118140714D01*
X128186428Y-117712142D01*
X128115000Y-117569285D01*
X128043571Y-117497857D01*
X127900714Y-117426428D01*
X127615000Y-117426428D01*
X127472142Y-117497857D01*
X129400714Y-117497857D02*
X129257857Y-117426428D01*
X128972142Y-117426428D01*
X128829285Y-117497857D01*
X128757857Y-117640714D01*
X128757857Y-118212142D01*
X128829285Y-118355000D01*
X128972142Y-118426428D01*
X129257857Y-118426428D01*
X129400714Y-118355000D01*
X129472142Y-118212142D01*
X129472142Y-118069285D01*
X128757857Y-117926428D01*
X131043571Y-118926428D02*
X131543571Y-117426428D01*
X132043571Y-118926428D01*
X132400714Y-118926428D02*
X133329285Y-118926428D01*
X132829285Y-118355000D01*
X133043571Y-118355000D01*
X133186428Y-118283571D01*
X133257857Y-118212142D01*
X133329285Y-118069285D01*
X133329285Y-117712142D01*
X133257857Y-117569285D01*
X133186428Y-117497857D01*
X133043571Y-117426428D01*
X132615000Y-117426428D01*
X132472142Y-117497857D01*
X132400714Y-117569285D01*
D11*
%TO.C,J3*%
X67250000Y-110550000D02*
X68580000Y-110550000D01*
X67250000Y-109220000D02*
X67250000Y-110550000D01*
X67250000Y-107950000D02*
X69910000Y-107950000D01*
X69910000Y-107950000D02*
X69910000Y-49470000D01*
X67250000Y-107950000D02*
X67250000Y-49470000D01*
X67250000Y-49470000D02*
X69910000Y-49470000D01*
%TO.C,J4*%
X62170000Y-110550000D02*
X63500000Y-110550000D01*
X62170000Y-109220000D02*
X62170000Y-110550000D01*
X62170000Y-107950000D02*
X64830000Y-107950000D01*
X64830000Y-107950000D02*
X64830000Y-49470000D01*
X62170000Y-107950000D02*
X62170000Y-49470000D01*
X62170000Y-49470000D02*
X64830000Y-49470000D01*
X106620000Y-110550000D02*
X107950000Y-110550000D01*
X106620000Y-109220000D02*
X106620000Y-110550000D01*
X106620000Y-107950000D02*
X109280000Y-107950000D01*
X109280000Y-107950000D02*
X109280000Y-49470000D01*
X106620000Y-107950000D02*
X106620000Y-49470000D01*
X106620000Y-49470000D02*
X109280000Y-49470000D01*
%TO.C,J3*%
X111700000Y-110550000D02*
X113030000Y-110550000D01*
X111700000Y-109220000D02*
X111700000Y-110550000D01*
X111700000Y-107950000D02*
X114360000Y-107950000D01*
X114360000Y-107950000D02*
X114360000Y-49470000D01*
X111700000Y-107950000D02*
X111700000Y-49470000D01*
X111700000Y-49470000D02*
X114360000Y-49470000D01*
D12*
X68913333Y-111002380D02*
X68913333Y-111716666D01*
X68960952Y-111859523D01*
X69056190Y-111954761D01*
X69199047Y-112002380D01*
X69294285Y-112002380D01*
X68532380Y-111002380D02*
X67913333Y-111002380D01*
X68246666Y-111383333D01*
X68103809Y-111383333D01*
X68008571Y-111430952D01*
X67960952Y-111478571D01*
X67913333Y-111573809D01*
X67913333Y-111811904D01*
X67960952Y-111907142D01*
X68008571Y-111954761D01*
X68103809Y-112002380D01*
X68389523Y-112002380D01*
X68484761Y-111954761D01*
X68532380Y-111907142D01*
%TO.C,J4*%
X63833333Y-111002380D02*
X63833333Y-111716666D01*
X63880952Y-111859523D01*
X63976190Y-111954761D01*
X64119047Y-112002380D01*
X64214285Y-112002380D01*
X62928571Y-111335714D02*
X62928571Y-112002380D01*
X63166666Y-110954761D02*
X63404761Y-111669047D01*
X62785714Y-111669047D01*
X108283333Y-111002380D02*
X108283333Y-111716666D01*
X108330952Y-111859523D01*
X108426190Y-111954761D01*
X108569047Y-112002380D01*
X108664285Y-112002380D01*
X107378571Y-111335714D02*
X107378571Y-112002380D01*
X107616666Y-110954761D02*
X107854761Y-111669047D01*
X107235714Y-111669047D01*
%TO.C,J3*%
X113363333Y-111002380D02*
X113363333Y-111716666D01*
X113410952Y-111859523D01*
X113506190Y-111954761D01*
X113649047Y-112002380D01*
X113744285Y-112002380D01*
X112982380Y-111002380D02*
X112363333Y-111002380D01*
X112696666Y-111383333D01*
X112553809Y-111383333D01*
X112458571Y-111430952D01*
X112410952Y-111478571D01*
X112363333Y-111573809D01*
X112363333Y-111811904D01*
X112410952Y-111907142D01*
X112458571Y-111954761D01*
X112553809Y-112002380D01*
X112839523Y-112002380D01*
X112934761Y-111954761D01*
X112982380Y-111907142D01*
%TD*%
M02*
