%TF.GenerationSoftware,KiCad,Pcbnew,(5.1.8)-1*%
%TF.CreationDate,2021-05-20T16:02:40+02:00*%
%TF.ProjectId,Nes Sound Expansion,4e657320-536f-4756-9e64-20457870616e,rev?*%
%TF.SameCoordinates,Original*%
%TF.FileFunction,Paste,Top*%
%TF.FilePolarity,Positive*%
%FSLAX46Y46*%
G04 Gerber Fmt 4.6, Leading zero omitted, Abs format (unit mm)*
G04 Created by KiCad (PCBNEW (5.1.8)-1) date 2021-05-20 16:02:40*
%MOMM*%
%LPD*%
G01*
G04 APERTURE LIST*
%ADD10R,1.120000X2.160000*%
%ADD11R,1.200000X1.400000*%
%ADD12R,2.000000X1.500000*%
G04 APERTURE END LIST*
%TO.C,R19*%
G36*
G01*
X103629000Y-93275999D02*
X103629000Y-94176001D01*
G75*
G02*
X103379001Y-94426000I-249999J0D01*
G01*
X102853999Y-94426000D01*
G75*
G02*
X102604000Y-94176001I0J249999D01*
G01*
X102604000Y-93275999D01*
G75*
G02*
X102853999Y-93026000I249999J0D01*
G01*
X103379001Y-93026000D01*
G75*
G02*
X103629000Y-93275999I0J-249999D01*
G01*
G37*
G36*
G01*
X105454000Y-93275999D02*
X105454000Y-94176001D01*
G75*
G02*
X105204001Y-94426000I-249999J0D01*
G01*
X104678999Y-94426000D01*
G75*
G02*
X104429000Y-94176001I0J249999D01*
G01*
X104429000Y-93275999D01*
G75*
G02*
X104678999Y-93026000I249999J0D01*
G01*
X105204001Y-93026000D01*
G75*
G02*
X105454000Y-93275999I0J-249999D01*
G01*
G37*
%TD*%
%TO.C,R18*%
G36*
G01*
X103629000Y-99244999D02*
X103629000Y-100145001D01*
G75*
G02*
X103379001Y-100395000I-249999J0D01*
G01*
X102853999Y-100395000D01*
G75*
G02*
X102604000Y-100145001I0J249999D01*
G01*
X102604000Y-99244999D01*
G75*
G02*
X102853999Y-98995000I249999J0D01*
G01*
X103379001Y-98995000D01*
G75*
G02*
X103629000Y-99244999I0J-249999D01*
G01*
G37*
G36*
G01*
X105454000Y-99244999D02*
X105454000Y-100145001D01*
G75*
G02*
X105204001Y-100395000I-249999J0D01*
G01*
X104678999Y-100395000D01*
G75*
G02*
X104429000Y-100145001I0J249999D01*
G01*
X104429000Y-99244999D01*
G75*
G02*
X104678999Y-98995000I249999J0D01*
G01*
X105204001Y-98995000D01*
G75*
G02*
X105454000Y-99244999I0J-249999D01*
G01*
G37*
%TD*%
%TO.C,R4*%
G36*
G01*
X103629000Y-96323999D02*
X103629000Y-97224001D01*
G75*
G02*
X103379001Y-97474000I-249999J0D01*
G01*
X102853999Y-97474000D01*
G75*
G02*
X102604000Y-97224001I0J249999D01*
G01*
X102604000Y-96323999D01*
G75*
G02*
X102853999Y-96074000I249999J0D01*
G01*
X103379001Y-96074000D01*
G75*
G02*
X103629000Y-96323999I0J-249999D01*
G01*
G37*
G36*
G01*
X105454000Y-96323999D02*
X105454000Y-97224001D01*
G75*
G02*
X105204001Y-97474000I-249999J0D01*
G01*
X104678999Y-97474000D01*
G75*
G02*
X104429000Y-97224001I0J249999D01*
G01*
X104429000Y-96323999D01*
G75*
G02*
X104678999Y-96074000I249999J0D01*
G01*
X105204001Y-96074000D01*
G75*
G02*
X105454000Y-96323999I0J-249999D01*
G01*
G37*
%TD*%
%TO.C,R17*%
G36*
G01*
X116551000Y-91116999D02*
X116551000Y-92017001D01*
G75*
G02*
X116301001Y-92267000I-249999J0D01*
G01*
X115775999Y-92267000D01*
G75*
G02*
X115526000Y-92017001I0J249999D01*
G01*
X115526000Y-91116999D01*
G75*
G02*
X115775999Y-90867000I249999J0D01*
G01*
X116301001Y-90867000D01*
G75*
G02*
X116551000Y-91116999I0J-249999D01*
G01*
G37*
G36*
G01*
X118376000Y-91116999D02*
X118376000Y-92017001D01*
G75*
G02*
X118126001Y-92267000I-249999J0D01*
G01*
X117600999Y-92267000D01*
G75*
G02*
X117351000Y-92017001I0J249999D01*
G01*
X117351000Y-91116999D01*
G75*
G02*
X117600999Y-90867000I249999J0D01*
G01*
X118126001Y-90867000D01*
G75*
G02*
X118376000Y-91116999I0J-249999D01*
G01*
G37*
%TD*%
%TO.C,R16*%
G36*
G01*
X116567000Y-94164999D02*
X116567000Y-95065001D01*
G75*
G02*
X116317001Y-95315000I-249999J0D01*
G01*
X115791999Y-95315000D01*
G75*
G02*
X115542000Y-95065001I0J249999D01*
G01*
X115542000Y-94164999D01*
G75*
G02*
X115791999Y-93915000I249999J0D01*
G01*
X116317001Y-93915000D01*
G75*
G02*
X116567000Y-94164999I0J-249999D01*
G01*
G37*
G36*
G01*
X118392000Y-94164999D02*
X118392000Y-95065001D01*
G75*
G02*
X118142001Y-95315000I-249999J0D01*
G01*
X117616999Y-95315000D01*
G75*
G02*
X117367000Y-95065001I0J249999D01*
G01*
X117367000Y-94164999D01*
G75*
G02*
X117616999Y-93915000I249999J0D01*
G01*
X118142001Y-93915000D01*
G75*
G02*
X118392000Y-94164999I0J-249999D01*
G01*
G37*
%TD*%
%TO.C,R10*%
G36*
G01*
X118560001Y-109185000D02*
X117659999Y-109185000D01*
G75*
G02*
X117410000Y-108935001I0J249999D01*
G01*
X117410000Y-108409999D01*
G75*
G02*
X117659999Y-108160000I249999J0D01*
G01*
X118560001Y-108160000D01*
G75*
G02*
X118810000Y-108409999I0J-249999D01*
G01*
X118810000Y-108935001D01*
G75*
G02*
X118560001Y-109185000I-249999J0D01*
G01*
G37*
G36*
G01*
X118560001Y-111010000D02*
X117659999Y-111010000D01*
G75*
G02*
X117410000Y-110760001I0J249999D01*
G01*
X117410000Y-110234999D01*
G75*
G02*
X117659999Y-109985000I249999J0D01*
G01*
X118560001Y-109985000D01*
G75*
G02*
X118810000Y-110234999I0J-249999D01*
G01*
X118810000Y-110760001D01*
G75*
G02*
X118560001Y-111010000I-249999J0D01*
G01*
G37*
%TD*%
%TO.C,R9*%
G36*
G01*
X99510001Y-106280000D02*
X98609999Y-106280000D01*
G75*
G02*
X98360000Y-106030001I0J249999D01*
G01*
X98360000Y-105504999D01*
G75*
G02*
X98609999Y-105255000I249999J0D01*
G01*
X99510001Y-105255000D01*
G75*
G02*
X99760000Y-105504999I0J-249999D01*
G01*
X99760000Y-106030001D01*
G75*
G02*
X99510001Y-106280000I-249999J0D01*
G01*
G37*
G36*
G01*
X99510001Y-108105000D02*
X98609999Y-108105000D01*
G75*
G02*
X98360000Y-107855001I0J249999D01*
G01*
X98360000Y-107329999D01*
G75*
G02*
X98609999Y-107080000I249999J0D01*
G01*
X99510001Y-107080000D01*
G75*
G02*
X99760000Y-107329999I0J-249999D01*
G01*
X99760000Y-107855001D01*
G75*
G02*
X99510001Y-108105000I-249999J0D01*
G01*
G37*
%TD*%
%TO.C,R8*%
G36*
G01*
X123640001Y-119335000D02*
X122739999Y-119335000D01*
G75*
G02*
X122490000Y-119085001I0J249999D01*
G01*
X122490000Y-118559999D01*
G75*
G02*
X122739999Y-118310000I249999J0D01*
G01*
X123640001Y-118310000D01*
G75*
G02*
X123890000Y-118559999I0J-249999D01*
G01*
X123890000Y-119085001D01*
G75*
G02*
X123640001Y-119335000I-249999J0D01*
G01*
G37*
G36*
G01*
X123640001Y-121160000D02*
X122739999Y-121160000D01*
G75*
G02*
X122490000Y-120910001I0J249999D01*
G01*
X122490000Y-120384999D01*
G75*
G02*
X122739999Y-120135000I249999J0D01*
G01*
X123640001Y-120135000D01*
G75*
G02*
X123890000Y-120384999I0J-249999D01*
G01*
X123890000Y-120910001D01*
G75*
G02*
X123640001Y-121160000I-249999J0D01*
G01*
G37*
%TD*%
%TO.C,R7*%
G36*
G01*
X119830001Y-119335000D02*
X118929999Y-119335000D01*
G75*
G02*
X118680000Y-119085001I0J249999D01*
G01*
X118680000Y-118559999D01*
G75*
G02*
X118929999Y-118310000I249999J0D01*
G01*
X119830001Y-118310000D01*
G75*
G02*
X120080000Y-118559999I0J-249999D01*
G01*
X120080000Y-119085001D01*
G75*
G02*
X119830001Y-119335000I-249999J0D01*
G01*
G37*
G36*
G01*
X119830001Y-121160000D02*
X118929999Y-121160000D01*
G75*
G02*
X118680000Y-120910001I0J249999D01*
G01*
X118680000Y-120384999D01*
G75*
G02*
X118929999Y-120135000I249999J0D01*
G01*
X119830001Y-120135000D01*
G75*
G02*
X120080000Y-120384999I0J-249999D01*
G01*
X120080000Y-120910001D01*
G75*
G02*
X119830001Y-121160000I-249999J0D01*
G01*
G37*
%TD*%
%TO.C,R6*%
G36*
G01*
X127450001Y-119335000D02*
X126549999Y-119335000D01*
G75*
G02*
X126300000Y-119085001I0J249999D01*
G01*
X126300000Y-118559999D01*
G75*
G02*
X126549999Y-118310000I249999J0D01*
G01*
X127450001Y-118310000D01*
G75*
G02*
X127700000Y-118559999I0J-249999D01*
G01*
X127700000Y-119085001D01*
G75*
G02*
X127450001Y-119335000I-249999J0D01*
G01*
G37*
G36*
G01*
X127450001Y-121160000D02*
X126549999Y-121160000D01*
G75*
G02*
X126300000Y-120910001I0J249999D01*
G01*
X126300000Y-120384999D01*
G75*
G02*
X126549999Y-120135000I249999J0D01*
G01*
X127450001Y-120135000D01*
G75*
G02*
X127700000Y-120384999I0J-249999D01*
G01*
X127700000Y-120910001D01*
G75*
G02*
X127450001Y-121160000I-249999J0D01*
G01*
G37*
%TD*%
%TO.C,R5*%
G36*
G01*
X131260001Y-119335000D02*
X130359999Y-119335000D01*
G75*
G02*
X130110000Y-119085001I0J249999D01*
G01*
X130110000Y-118559999D01*
G75*
G02*
X130359999Y-118310000I249999J0D01*
G01*
X131260001Y-118310000D01*
G75*
G02*
X131510000Y-118559999I0J-249999D01*
G01*
X131510000Y-119085001D01*
G75*
G02*
X131260001Y-119335000I-249999J0D01*
G01*
G37*
G36*
G01*
X131260001Y-121160000D02*
X130359999Y-121160000D01*
G75*
G02*
X130110000Y-120910001I0J249999D01*
G01*
X130110000Y-120384999D01*
G75*
G02*
X130359999Y-120135000I249999J0D01*
G01*
X131260001Y-120135000D01*
G75*
G02*
X131510000Y-120384999I0J-249999D01*
G01*
X131510000Y-120910001D01*
G75*
G02*
X131260001Y-121160000I-249999J0D01*
G01*
G37*
%TD*%
%TO.C,R3*%
G36*
G01*
X129355001Y-92030000D02*
X128454999Y-92030000D01*
G75*
G02*
X128205000Y-91780001I0J249999D01*
G01*
X128205000Y-91254999D01*
G75*
G02*
X128454999Y-91005000I249999J0D01*
G01*
X129355001Y-91005000D01*
G75*
G02*
X129605000Y-91254999I0J-249999D01*
G01*
X129605000Y-91780001D01*
G75*
G02*
X129355001Y-92030000I-249999J0D01*
G01*
G37*
G36*
G01*
X129355001Y-93855000D02*
X128454999Y-93855000D01*
G75*
G02*
X128205000Y-93605001I0J249999D01*
G01*
X128205000Y-93079999D01*
G75*
G02*
X128454999Y-92830000I249999J0D01*
G01*
X129355001Y-92830000D01*
G75*
G02*
X129605000Y-93079999I0J-249999D01*
G01*
X129605000Y-93605001D01*
G75*
G02*
X129355001Y-93855000I-249999J0D01*
G01*
G37*
%TD*%
%TO.C,R2*%
G36*
G01*
X133165001Y-92030000D02*
X132264999Y-92030000D01*
G75*
G02*
X132015000Y-91780001I0J249999D01*
G01*
X132015000Y-91254999D01*
G75*
G02*
X132264999Y-91005000I249999J0D01*
G01*
X133165001Y-91005000D01*
G75*
G02*
X133415000Y-91254999I0J-249999D01*
G01*
X133415000Y-91780001D01*
G75*
G02*
X133165001Y-92030000I-249999J0D01*
G01*
G37*
G36*
G01*
X133165001Y-93855000D02*
X132264999Y-93855000D01*
G75*
G02*
X132015000Y-93605001I0J249999D01*
G01*
X132015000Y-93079999D01*
G75*
G02*
X132264999Y-92830000I249999J0D01*
G01*
X133165001Y-92830000D01*
G75*
G02*
X133415000Y-93079999I0J-249999D01*
G01*
X133415000Y-93605001D01*
G75*
G02*
X133165001Y-93855000I-249999J0D01*
G01*
G37*
%TD*%
%TO.C,R1*%
G36*
G01*
X136975001Y-92030000D02*
X136074999Y-92030000D01*
G75*
G02*
X135825000Y-91780001I0J249999D01*
G01*
X135825000Y-91254999D01*
G75*
G02*
X136074999Y-91005000I249999J0D01*
G01*
X136975001Y-91005000D01*
G75*
G02*
X137225000Y-91254999I0J-249999D01*
G01*
X137225000Y-91780001D01*
G75*
G02*
X136975001Y-92030000I-249999J0D01*
G01*
G37*
G36*
G01*
X136975001Y-93855000D02*
X136074999Y-93855000D01*
G75*
G02*
X135825000Y-93605001I0J249999D01*
G01*
X135825000Y-93079999D01*
G75*
G02*
X136074999Y-92830000I249999J0D01*
G01*
X136975001Y-92830000D01*
G75*
G02*
X137225000Y-93079999I0J-249999D01*
G01*
X137225000Y-93605001D01*
G75*
G02*
X136975001Y-93855000I-249999J0D01*
G01*
G37*
%TD*%
%TO.C,R14*%
G36*
G01*
X135832001Y-39962500D02*
X134931999Y-39962500D01*
G75*
G02*
X134682000Y-39712501I0J249999D01*
G01*
X134682000Y-39187499D01*
G75*
G02*
X134931999Y-38937500I249999J0D01*
G01*
X135832001Y-38937500D01*
G75*
G02*
X136082000Y-39187499I0J-249999D01*
G01*
X136082000Y-39712501D01*
G75*
G02*
X135832001Y-39962500I-249999J0D01*
G01*
G37*
G36*
G01*
X135832001Y-41787500D02*
X134931999Y-41787500D01*
G75*
G02*
X134682000Y-41537501I0J249999D01*
G01*
X134682000Y-41012499D01*
G75*
G02*
X134931999Y-40762500I249999J0D01*
G01*
X135832001Y-40762500D01*
G75*
G02*
X136082000Y-41012499I0J-249999D01*
G01*
X136082000Y-41537501D01*
G75*
G02*
X135832001Y-41787500I-249999J0D01*
G01*
G37*
%TD*%
%TO.C,R13*%
G36*
G01*
X116262999Y-45120000D02*
X117163001Y-45120000D01*
G75*
G02*
X117413000Y-45369999I0J-249999D01*
G01*
X117413000Y-45895001D01*
G75*
G02*
X117163001Y-46145000I-249999J0D01*
G01*
X116262999Y-46145000D01*
G75*
G02*
X116013000Y-45895001I0J249999D01*
G01*
X116013000Y-45369999D01*
G75*
G02*
X116262999Y-45120000I249999J0D01*
G01*
G37*
G36*
G01*
X116262999Y-43295000D02*
X117163001Y-43295000D01*
G75*
G02*
X117413000Y-43544999I0J-249999D01*
G01*
X117413000Y-44070001D01*
G75*
G02*
X117163001Y-44320000I-249999J0D01*
G01*
X116262999Y-44320000D01*
G75*
G02*
X116013000Y-44070001I0J249999D01*
G01*
X116013000Y-43544999D01*
G75*
G02*
X116262999Y-43295000I249999J0D01*
G01*
G37*
%TD*%
%TO.C,R12*%
G36*
G01*
X120199999Y-45120000D02*
X121100001Y-45120000D01*
G75*
G02*
X121350000Y-45369999I0J-249999D01*
G01*
X121350000Y-45895001D01*
G75*
G02*
X121100001Y-46145000I-249999J0D01*
G01*
X120199999Y-46145000D01*
G75*
G02*
X119950000Y-45895001I0J249999D01*
G01*
X119950000Y-45369999D01*
G75*
G02*
X120199999Y-45120000I249999J0D01*
G01*
G37*
G36*
G01*
X120199999Y-43295000D02*
X121100001Y-43295000D01*
G75*
G02*
X121350000Y-43544999I0J-249999D01*
G01*
X121350000Y-44070001D01*
G75*
G02*
X121100001Y-44320000I-249999J0D01*
G01*
X120199999Y-44320000D01*
G75*
G02*
X119950000Y-44070001I0J249999D01*
G01*
X119950000Y-43544999D01*
G75*
G02*
X120199999Y-43295000I249999J0D01*
G01*
G37*
%TD*%
%TO.C,R15*%
G36*
G01*
X122264000Y-73034999D02*
X122264000Y-74285001D01*
G75*
G02*
X122014001Y-74535000I-249999J0D01*
G01*
X121388999Y-74535000D01*
G75*
G02*
X121139000Y-74285001I0J249999D01*
G01*
X121139000Y-73034999D01*
G75*
G02*
X121388999Y-72785000I249999J0D01*
G01*
X122014001Y-72785000D01*
G75*
G02*
X122264000Y-73034999I0J-249999D01*
G01*
G37*
G36*
G01*
X125189000Y-73034999D02*
X125189000Y-74285001D01*
G75*
G02*
X124939001Y-74535000I-249999J0D01*
G01*
X124313999Y-74535000D01*
G75*
G02*
X124064000Y-74285001I0J249999D01*
G01*
X124064000Y-73034999D01*
G75*
G02*
X124313999Y-72785000I249999J0D01*
G01*
X124939001Y-72785000D01*
G75*
G02*
X125189000Y-73034999I0J-249999D01*
G01*
G37*
%TD*%
%TO.C,U2*%
G36*
G01*
X129770000Y-38885000D02*
X129770000Y-38585000D01*
G75*
G02*
X129920000Y-38435000I150000J0D01*
G01*
X131570000Y-38435000D01*
G75*
G02*
X131720000Y-38585000I0J-150000D01*
G01*
X131720000Y-38885000D01*
G75*
G02*
X131570000Y-39035000I-150000J0D01*
G01*
X129920000Y-39035000D01*
G75*
G02*
X129770000Y-38885000I0J150000D01*
G01*
G37*
G36*
G01*
X129770000Y-40155000D02*
X129770000Y-39855000D01*
G75*
G02*
X129920000Y-39705000I150000J0D01*
G01*
X131570000Y-39705000D01*
G75*
G02*
X131720000Y-39855000I0J-150000D01*
G01*
X131720000Y-40155000D01*
G75*
G02*
X131570000Y-40305000I-150000J0D01*
G01*
X129920000Y-40305000D01*
G75*
G02*
X129770000Y-40155000I0J150000D01*
G01*
G37*
G36*
G01*
X129770000Y-41425000D02*
X129770000Y-41125000D01*
G75*
G02*
X129920000Y-40975000I150000J0D01*
G01*
X131570000Y-40975000D01*
G75*
G02*
X131720000Y-41125000I0J-150000D01*
G01*
X131720000Y-41425000D01*
G75*
G02*
X131570000Y-41575000I-150000J0D01*
G01*
X129920000Y-41575000D01*
G75*
G02*
X129770000Y-41425000I0J150000D01*
G01*
G37*
G36*
G01*
X129770000Y-42695000D02*
X129770000Y-42395000D01*
G75*
G02*
X129920000Y-42245000I150000J0D01*
G01*
X131570000Y-42245000D01*
G75*
G02*
X131720000Y-42395000I0J-150000D01*
G01*
X131720000Y-42695000D01*
G75*
G02*
X131570000Y-42845000I-150000J0D01*
G01*
X129920000Y-42845000D01*
G75*
G02*
X129770000Y-42695000I0J150000D01*
G01*
G37*
G36*
G01*
X129770000Y-43965000D02*
X129770000Y-43665000D01*
G75*
G02*
X129920000Y-43515000I150000J0D01*
G01*
X131570000Y-43515000D01*
G75*
G02*
X131720000Y-43665000I0J-150000D01*
G01*
X131720000Y-43965000D01*
G75*
G02*
X131570000Y-44115000I-150000J0D01*
G01*
X129920000Y-44115000D01*
G75*
G02*
X129770000Y-43965000I0J150000D01*
G01*
G37*
G36*
G01*
X129770000Y-45235000D02*
X129770000Y-44935000D01*
G75*
G02*
X129920000Y-44785000I150000J0D01*
G01*
X131570000Y-44785000D01*
G75*
G02*
X131720000Y-44935000I0J-150000D01*
G01*
X131720000Y-45235000D01*
G75*
G02*
X131570000Y-45385000I-150000J0D01*
G01*
X129920000Y-45385000D01*
G75*
G02*
X129770000Y-45235000I0J150000D01*
G01*
G37*
G36*
G01*
X129770000Y-46505000D02*
X129770000Y-46205000D01*
G75*
G02*
X129920000Y-46055000I150000J0D01*
G01*
X131570000Y-46055000D01*
G75*
G02*
X131720000Y-46205000I0J-150000D01*
G01*
X131720000Y-46505000D01*
G75*
G02*
X131570000Y-46655000I-150000J0D01*
G01*
X129920000Y-46655000D01*
G75*
G02*
X129770000Y-46505000I0J150000D01*
G01*
G37*
G36*
G01*
X124820000Y-46505000D02*
X124820000Y-46205000D01*
G75*
G02*
X124970000Y-46055000I150000J0D01*
G01*
X126620000Y-46055000D01*
G75*
G02*
X126770000Y-46205000I0J-150000D01*
G01*
X126770000Y-46505000D01*
G75*
G02*
X126620000Y-46655000I-150000J0D01*
G01*
X124970000Y-46655000D01*
G75*
G02*
X124820000Y-46505000I0J150000D01*
G01*
G37*
G36*
G01*
X124820000Y-45235000D02*
X124820000Y-44935000D01*
G75*
G02*
X124970000Y-44785000I150000J0D01*
G01*
X126620000Y-44785000D01*
G75*
G02*
X126770000Y-44935000I0J-150000D01*
G01*
X126770000Y-45235000D01*
G75*
G02*
X126620000Y-45385000I-150000J0D01*
G01*
X124970000Y-45385000D01*
G75*
G02*
X124820000Y-45235000I0J150000D01*
G01*
G37*
G36*
G01*
X124820000Y-43965000D02*
X124820000Y-43665000D01*
G75*
G02*
X124970000Y-43515000I150000J0D01*
G01*
X126620000Y-43515000D01*
G75*
G02*
X126770000Y-43665000I0J-150000D01*
G01*
X126770000Y-43965000D01*
G75*
G02*
X126620000Y-44115000I-150000J0D01*
G01*
X124970000Y-44115000D01*
G75*
G02*
X124820000Y-43965000I0J150000D01*
G01*
G37*
G36*
G01*
X124820000Y-42695000D02*
X124820000Y-42395000D01*
G75*
G02*
X124970000Y-42245000I150000J0D01*
G01*
X126620000Y-42245000D01*
G75*
G02*
X126770000Y-42395000I0J-150000D01*
G01*
X126770000Y-42695000D01*
G75*
G02*
X126620000Y-42845000I-150000J0D01*
G01*
X124970000Y-42845000D01*
G75*
G02*
X124820000Y-42695000I0J150000D01*
G01*
G37*
G36*
G01*
X124820000Y-41425000D02*
X124820000Y-41125000D01*
G75*
G02*
X124970000Y-40975000I150000J0D01*
G01*
X126620000Y-40975000D01*
G75*
G02*
X126770000Y-41125000I0J-150000D01*
G01*
X126770000Y-41425000D01*
G75*
G02*
X126620000Y-41575000I-150000J0D01*
G01*
X124970000Y-41575000D01*
G75*
G02*
X124820000Y-41425000I0J150000D01*
G01*
G37*
G36*
G01*
X124820000Y-40155000D02*
X124820000Y-39855000D01*
G75*
G02*
X124970000Y-39705000I150000J0D01*
G01*
X126620000Y-39705000D01*
G75*
G02*
X126770000Y-39855000I0J-150000D01*
G01*
X126770000Y-40155000D01*
G75*
G02*
X126620000Y-40305000I-150000J0D01*
G01*
X124970000Y-40305000D01*
G75*
G02*
X124820000Y-40155000I0J150000D01*
G01*
G37*
G36*
G01*
X124820000Y-38885000D02*
X124820000Y-38585000D01*
G75*
G02*
X124970000Y-38435000I150000J0D01*
G01*
X126620000Y-38435000D01*
G75*
G02*
X126770000Y-38585000I0J-150000D01*
G01*
X126770000Y-38885000D01*
G75*
G02*
X126620000Y-39035000I-150000J0D01*
G01*
X124970000Y-39035000D01*
G75*
G02*
X124820000Y-38885000I0J150000D01*
G01*
G37*
%TD*%
%TO.C,C5*%
G36*
G01*
X134907000Y-45596000D02*
X135857000Y-45596000D01*
G75*
G02*
X136107000Y-45846000I0J-250000D01*
G01*
X136107000Y-46346000D01*
G75*
G02*
X135857000Y-46596000I-250000J0D01*
G01*
X134907000Y-46596000D01*
G75*
G02*
X134657000Y-46346000I0J250000D01*
G01*
X134657000Y-45846000D01*
G75*
G02*
X134907000Y-45596000I250000J0D01*
G01*
G37*
G36*
G01*
X134907000Y-43696000D02*
X135857000Y-43696000D01*
G75*
G02*
X136107000Y-43946000I0J-250000D01*
G01*
X136107000Y-44446000D01*
G75*
G02*
X135857000Y-44696000I-250000J0D01*
G01*
X134907000Y-44696000D01*
G75*
G02*
X134657000Y-44446000I0J250000D01*
G01*
X134657000Y-43946000D01*
G75*
G02*
X134907000Y-43696000I250000J0D01*
G01*
G37*
%TD*%
%TO.C,C4*%
G36*
G01*
X116238000Y-40775000D02*
X117188000Y-40775000D01*
G75*
G02*
X117438000Y-41025000I0J-250000D01*
G01*
X117438000Y-41525000D01*
G75*
G02*
X117188000Y-41775000I-250000J0D01*
G01*
X116238000Y-41775000D01*
G75*
G02*
X115988000Y-41525000I0J250000D01*
G01*
X115988000Y-41025000D01*
G75*
G02*
X116238000Y-40775000I250000J0D01*
G01*
G37*
G36*
G01*
X116238000Y-38875000D02*
X117188000Y-38875000D01*
G75*
G02*
X117438000Y-39125000I0J-250000D01*
G01*
X117438000Y-39625000D01*
G75*
G02*
X117188000Y-39875000I-250000J0D01*
G01*
X116238000Y-39875000D01*
G75*
G02*
X115988000Y-39625000I0J250000D01*
G01*
X115988000Y-39125000D01*
G75*
G02*
X116238000Y-38875000I250000J0D01*
G01*
G37*
%TD*%
%TO.C,C3*%
G36*
G01*
X120175000Y-40775000D02*
X121125000Y-40775000D01*
G75*
G02*
X121375000Y-41025000I0J-250000D01*
G01*
X121375000Y-41525000D01*
G75*
G02*
X121125000Y-41775000I-250000J0D01*
G01*
X120175000Y-41775000D01*
G75*
G02*
X119925000Y-41525000I0J250000D01*
G01*
X119925000Y-41025000D01*
G75*
G02*
X120175000Y-40775000I250000J0D01*
G01*
G37*
G36*
G01*
X120175000Y-38875000D02*
X121125000Y-38875000D01*
G75*
G02*
X121375000Y-39125000I0J-250000D01*
G01*
X121375000Y-39625000D01*
G75*
G02*
X121125000Y-39875000I-250000J0D01*
G01*
X120175000Y-39875000D01*
G75*
G02*
X119925000Y-39625000I0J250000D01*
G01*
X119925000Y-39125000D01*
G75*
G02*
X120175000Y-38875000I250000J0D01*
G01*
G37*
%TD*%
%TO.C,C1*%
G36*
G01*
X117975000Y-73185000D02*
X117975000Y-74135000D01*
G75*
G02*
X117725000Y-74385000I-250000J0D01*
G01*
X117225000Y-74385000D01*
G75*
G02*
X116975000Y-74135000I0J250000D01*
G01*
X116975000Y-73185000D01*
G75*
G02*
X117225000Y-72935000I250000J0D01*
G01*
X117725000Y-72935000D01*
G75*
G02*
X117975000Y-73185000I0J-250000D01*
G01*
G37*
G36*
G01*
X119875000Y-73185000D02*
X119875000Y-74135000D01*
G75*
G02*
X119625000Y-74385000I-250000J0D01*
G01*
X119125000Y-74385000D01*
G75*
G02*
X118875000Y-74135000I0J250000D01*
G01*
X118875000Y-73185000D01*
G75*
G02*
X119125000Y-72935000I250000J0D01*
G01*
X119625000Y-72935000D01*
G75*
G02*
X119875000Y-73185000I0J-250000D01*
G01*
G37*
%TD*%
%TO.C,YMF288*%
G36*
G01*
X133200000Y-86810000D02*
X133500000Y-86810000D01*
G75*
G02*
X133650000Y-86960000I0J-150000D01*
G01*
X133650000Y-88710000D01*
G75*
G02*
X133500000Y-88860000I-150000J0D01*
G01*
X133200000Y-88860000D01*
G75*
G02*
X133050000Y-88710000I0J150000D01*
G01*
X133050000Y-86960000D01*
G75*
G02*
X133200000Y-86810000I150000J0D01*
G01*
G37*
G36*
G01*
X131930000Y-86810000D02*
X132230000Y-86810000D01*
G75*
G02*
X132380000Y-86960000I0J-150000D01*
G01*
X132380000Y-88710000D01*
G75*
G02*
X132230000Y-88860000I-150000J0D01*
G01*
X131930000Y-88860000D01*
G75*
G02*
X131780000Y-88710000I0J150000D01*
G01*
X131780000Y-86960000D01*
G75*
G02*
X131930000Y-86810000I150000J0D01*
G01*
G37*
G36*
G01*
X130660000Y-86810000D02*
X130960000Y-86810000D01*
G75*
G02*
X131110000Y-86960000I0J-150000D01*
G01*
X131110000Y-88710000D01*
G75*
G02*
X130960000Y-88860000I-150000J0D01*
G01*
X130660000Y-88860000D01*
G75*
G02*
X130510000Y-88710000I0J150000D01*
G01*
X130510000Y-86960000D01*
G75*
G02*
X130660000Y-86810000I150000J0D01*
G01*
G37*
G36*
G01*
X120500000Y-86810000D02*
X120800000Y-86810000D01*
G75*
G02*
X120950000Y-86960000I0J-150000D01*
G01*
X120950000Y-88710000D01*
G75*
G02*
X120800000Y-88860000I-150000J0D01*
G01*
X120500000Y-88860000D01*
G75*
G02*
X120350000Y-88710000I0J150000D01*
G01*
X120350000Y-86960000D01*
G75*
G02*
X120500000Y-86810000I150000J0D01*
G01*
G37*
G36*
G01*
X117960000Y-86810000D02*
X118260000Y-86810000D01*
G75*
G02*
X118410000Y-86960000I0J-150000D01*
G01*
X118410000Y-88710000D01*
G75*
G02*
X118260000Y-88860000I-150000J0D01*
G01*
X117960000Y-88860000D01*
G75*
G02*
X117810000Y-88710000I0J150000D01*
G01*
X117810000Y-86960000D01*
G75*
G02*
X117960000Y-86810000I150000J0D01*
G01*
G37*
G36*
G01*
X134470000Y-86810000D02*
X134770000Y-86810000D01*
G75*
G02*
X134920000Y-86960000I0J-150000D01*
G01*
X134920000Y-88710000D01*
G75*
G02*
X134770000Y-88860000I-150000J0D01*
G01*
X134470000Y-88860000D01*
G75*
G02*
X134320000Y-88710000I0J150000D01*
G01*
X134320000Y-86960000D01*
G75*
G02*
X134470000Y-86810000I150000J0D01*
G01*
G37*
G36*
G01*
X124310000Y-86810000D02*
X124610000Y-86810000D01*
G75*
G02*
X124760000Y-86960000I0J-150000D01*
G01*
X124760000Y-88710000D01*
G75*
G02*
X124610000Y-88860000I-150000J0D01*
G01*
X124310000Y-88860000D01*
G75*
G02*
X124160000Y-88710000I0J150000D01*
G01*
X124160000Y-86960000D01*
G75*
G02*
X124310000Y-86810000I150000J0D01*
G01*
G37*
G36*
G01*
X119230000Y-86810000D02*
X119530000Y-86810000D01*
G75*
G02*
X119680000Y-86960000I0J-150000D01*
G01*
X119680000Y-88710000D01*
G75*
G02*
X119530000Y-88860000I-150000J0D01*
G01*
X119230000Y-88860000D01*
G75*
G02*
X119080000Y-88710000I0J150000D01*
G01*
X119080000Y-86960000D01*
G75*
G02*
X119230000Y-86810000I150000J0D01*
G01*
G37*
G36*
G01*
X126850000Y-86810000D02*
X127150000Y-86810000D01*
G75*
G02*
X127300000Y-86960000I0J-150000D01*
G01*
X127300000Y-88710000D01*
G75*
G02*
X127150000Y-88860000I-150000J0D01*
G01*
X126850000Y-88860000D01*
G75*
G02*
X126700000Y-88710000I0J150000D01*
G01*
X126700000Y-86960000D01*
G75*
G02*
X126850000Y-86810000I150000J0D01*
G01*
G37*
G36*
G01*
X128120000Y-86810000D02*
X128420000Y-86810000D01*
G75*
G02*
X128570000Y-86960000I0J-150000D01*
G01*
X128570000Y-88710000D01*
G75*
G02*
X128420000Y-88860000I-150000J0D01*
G01*
X128120000Y-88860000D01*
G75*
G02*
X127970000Y-88710000I0J150000D01*
G01*
X127970000Y-86960000D01*
G75*
G02*
X128120000Y-86810000I150000J0D01*
G01*
G37*
G36*
G01*
X129390000Y-86810000D02*
X129690000Y-86810000D01*
G75*
G02*
X129840000Y-86960000I0J-150000D01*
G01*
X129840000Y-88710000D01*
G75*
G02*
X129690000Y-88860000I-150000J0D01*
G01*
X129390000Y-88860000D01*
G75*
G02*
X129240000Y-88710000I0J150000D01*
G01*
X129240000Y-86960000D01*
G75*
G02*
X129390000Y-86810000I150000J0D01*
G01*
G37*
G36*
G01*
X121770000Y-86810000D02*
X122070000Y-86810000D01*
G75*
G02*
X122220000Y-86960000I0J-150000D01*
G01*
X122220000Y-88710000D01*
G75*
G02*
X122070000Y-88860000I-150000J0D01*
G01*
X121770000Y-88860000D01*
G75*
G02*
X121620000Y-88710000I0J150000D01*
G01*
X121620000Y-86960000D01*
G75*
G02*
X121770000Y-86810000I150000J0D01*
G01*
G37*
G36*
G01*
X117960000Y-76240000D02*
X118260000Y-76240000D01*
G75*
G02*
X118410000Y-76390000I0J-150000D01*
G01*
X118410000Y-78140000D01*
G75*
G02*
X118260000Y-78290000I-150000J0D01*
G01*
X117960000Y-78290000D01*
G75*
G02*
X117810000Y-78140000I0J150000D01*
G01*
X117810000Y-76390000D01*
G75*
G02*
X117960000Y-76240000I150000J0D01*
G01*
G37*
G36*
G01*
X123040000Y-86810000D02*
X123340000Y-86810000D01*
G75*
G02*
X123490000Y-86960000I0J-150000D01*
G01*
X123490000Y-88710000D01*
G75*
G02*
X123340000Y-88860000I-150000J0D01*
G01*
X123040000Y-88860000D01*
G75*
G02*
X122890000Y-88710000I0J150000D01*
G01*
X122890000Y-86960000D01*
G75*
G02*
X123040000Y-86810000I150000J0D01*
G01*
G37*
G36*
G01*
X119230000Y-76240000D02*
X119530000Y-76240000D01*
G75*
G02*
X119680000Y-76390000I0J-150000D01*
G01*
X119680000Y-78140000D01*
G75*
G02*
X119530000Y-78290000I-150000J0D01*
G01*
X119230000Y-78290000D01*
G75*
G02*
X119080000Y-78140000I0J150000D01*
G01*
X119080000Y-76390000D01*
G75*
G02*
X119230000Y-76240000I150000J0D01*
G01*
G37*
G36*
G01*
X125580000Y-86810000D02*
X125880000Y-86810000D01*
G75*
G02*
X126030000Y-86960000I0J-150000D01*
G01*
X126030000Y-88710000D01*
G75*
G02*
X125880000Y-88860000I-150000J0D01*
G01*
X125580000Y-88860000D01*
G75*
G02*
X125430000Y-88710000I0J150000D01*
G01*
X125430000Y-86960000D01*
G75*
G02*
X125580000Y-86810000I150000J0D01*
G01*
G37*
G36*
G01*
X120500000Y-76240000D02*
X120800000Y-76240000D01*
G75*
G02*
X120950000Y-76390000I0J-150000D01*
G01*
X120950000Y-78140000D01*
G75*
G02*
X120800000Y-78290000I-150000J0D01*
G01*
X120500000Y-78290000D01*
G75*
G02*
X120350000Y-78140000I0J150000D01*
G01*
X120350000Y-76390000D01*
G75*
G02*
X120500000Y-76240000I150000J0D01*
G01*
G37*
G36*
G01*
X126850000Y-76240000D02*
X127150000Y-76240000D01*
G75*
G02*
X127300000Y-76390000I0J-150000D01*
G01*
X127300000Y-78140000D01*
G75*
G02*
X127150000Y-78290000I-150000J0D01*
G01*
X126850000Y-78290000D01*
G75*
G02*
X126700000Y-78140000I0J150000D01*
G01*
X126700000Y-76390000D01*
G75*
G02*
X126850000Y-76240000I150000J0D01*
G01*
G37*
G36*
G01*
X134470000Y-76240000D02*
X134770000Y-76240000D01*
G75*
G02*
X134920000Y-76390000I0J-150000D01*
G01*
X134920000Y-78140000D01*
G75*
G02*
X134770000Y-78290000I-150000J0D01*
G01*
X134470000Y-78290000D01*
G75*
G02*
X134320000Y-78140000I0J150000D01*
G01*
X134320000Y-76390000D01*
G75*
G02*
X134470000Y-76240000I150000J0D01*
G01*
G37*
G36*
G01*
X123040000Y-76240000D02*
X123340000Y-76240000D01*
G75*
G02*
X123490000Y-76390000I0J-150000D01*
G01*
X123490000Y-78140000D01*
G75*
G02*
X123340000Y-78290000I-150000J0D01*
G01*
X123040000Y-78290000D01*
G75*
G02*
X122890000Y-78140000I0J150000D01*
G01*
X122890000Y-76390000D01*
G75*
G02*
X123040000Y-76240000I150000J0D01*
G01*
G37*
G36*
G01*
X133200000Y-76240000D02*
X133500000Y-76240000D01*
G75*
G02*
X133650000Y-76390000I0J-150000D01*
G01*
X133650000Y-78140000D01*
G75*
G02*
X133500000Y-78290000I-150000J0D01*
G01*
X133200000Y-78290000D01*
G75*
G02*
X133050000Y-78140000I0J150000D01*
G01*
X133050000Y-76390000D01*
G75*
G02*
X133200000Y-76240000I150000J0D01*
G01*
G37*
G36*
G01*
X130660000Y-76240000D02*
X130960000Y-76240000D01*
G75*
G02*
X131110000Y-76390000I0J-150000D01*
G01*
X131110000Y-78140000D01*
G75*
G02*
X130960000Y-78290000I-150000J0D01*
G01*
X130660000Y-78290000D01*
G75*
G02*
X130510000Y-78140000I0J150000D01*
G01*
X130510000Y-76390000D01*
G75*
G02*
X130660000Y-76240000I150000J0D01*
G01*
G37*
G36*
G01*
X129390000Y-76240000D02*
X129690000Y-76240000D01*
G75*
G02*
X129840000Y-76390000I0J-150000D01*
G01*
X129840000Y-78140000D01*
G75*
G02*
X129690000Y-78290000I-150000J0D01*
G01*
X129390000Y-78290000D01*
G75*
G02*
X129240000Y-78140000I0J150000D01*
G01*
X129240000Y-76390000D01*
G75*
G02*
X129390000Y-76240000I150000J0D01*
G01*
G37*
G36*
G01*
X121770000Y-76240000D02*
X122070000Y-76240000D01*
G75*
G02*
X122220000Y-76390000I0J-150000D01*
G01*
X122220000Y-78140000D01*
G75*
G02*
X122070000Y-78290000I-150000J0D01*
G01*
X121770000Y-78290000D01*
G75*
G02*
X121620000Y-78140000I0J150000D01*
G01*
X121620000Y-76390000D01*
G75*
G02*
X121770000Y-76240000I150000J0D01*
G01*
G37*
G36*
G01*
X128120000Y-76240000D02*
X128420000Y-76240000D01*
G75*
G02*
X128570000Y-76390000I0J-150000D01*
G01*
X128570000Y-78140000D01*
G75*
G02*
X128420000Y-78290000I-150000J0D01*
G01*
X128120000Y-78290000D01*
G75*
G02*
X127970000Y-78140000I0J150000D01*
G01*
X127970000Y-76390000D01*
G75*
G02*
X128120000Y-76240000I150000J0D01*
G01*
G37*
G36*
G01*
X131930000Y-76240000D02*
X132230000Y-76240000D01*
G75*
G02*
X132380000Y-76390000I0J-150000D01*
G01*
X132380000Y-78140000D01*
G75*
G02*
X132230000Y-78290000I-150000J0D01*
G01*
X131930000Y-78290000D01*
G75*
G02*
X131780000Y-78140000I0J150000D01*
G01*
X131780000Y-76390000D01*
G75*
G02*
X131930000Y-76240000I150000J0D01*
G01*
G37*
G36*
G01*
X124310000Y-76240000D02*
X124610000Y-76240000D01*
G75*
G02*
X124760000Y-76390000I0J-150000D01*
G01*
X124760000Y-78140000D01*
G75*
G02*
X124610000Y-78290000I-150000J0D01*
G01*
X124310000Y-78290000D01*
G75*
G02*
X124160000Y-78140000I0J150000D01*
G01*
X124160000Y-76390000D01*
G75*
G02*
X124310000Y-76240000I150000J0D01*
G01*
G37*
G36*
G01*
X125580000Y-76240000D02*
X125880000Y-76240000D01*
G75*
G02*
X126030000Y-76390000I0J-150000D01*
G01*
X126030000Y-78140000D01*
G75*
G02*
X125880000Y-78290000I-150000J0D01*
G01*
X125580000Y-78290000D01*
G75*
G02*
X125430000Y-78140000I0J150000D01*
G01*
X125430000Y-76390000D01*
G75*
G02*
X125580000Y-76240000I150000J0D01*
G01*
G37*
%TD*%
%TO.C,BU9480F1*%
G36*
G01*
X131595000Y-98578500D02*
X131295000Y-98578500D01*
G75*
G02*
X131145000Y-98428500I0J150000D01*
G01*
X131145000Y-96778500D01*
G75*
G02*
X131295000Y-96628500I150000J0D01*
G01*
X131595000Y-96628500D01*
G75*
G02*
X131745000Y-96778500I0J-150000D01*
G01*
X131745000Y-98428500D01*
G75*
G02*
X131595000Y-98578500I-150000J0D01*
G01*
G37*
G36*
G01*
X132865000Y-98578500D02*
X132565000Y-98578500D01*
G75*
G02*
X132415000Y-98428500I0J150000D01*
G01*
X132415000Y-96778500D01*
G75*
G02*
X132565000Y-96628500I150000J0D01*
G01*
X132865000Y-96628500D01*
G75*
G02*
X133015000Y-96778500I0J-150000D01*
G01*
X133015000Y-98428500D01*
G75*
G02*
X132865000Y-98578500I-150000J0D01*
G01*
G37*
G36*
G01*
X134135000Y-98578500D02*
X133835000Y-98578500D01*
G75*
G02*
X133685000Y-98428500I0J150000D01*
G01*
X133685000Y-96778500D01*
G75*
G02*
X133835000Y-96628500I150000J0D01*
G01*
X134135000Y-96628500D01*
G75*
G02*
X134285000Y-96778500I0J-150000D01*
G01*
X134285000Y-98428500D01*
G75*
G02*
X134135000Y-98578500I-150000J0D01*
G01*
G37*
G36*
G01*
X135405000Y-98578500D02*
X135105000Y-98578500D01*
G75*
G02*
X134955000Y-98428500I0J150000D01*
G01*
X134955000Y-96778500D01*
G75*
G02*
X135105000Y-96628500I150000J0D01*
G01*
X135405000Y-96628500D01*
G75*
G02*
X135555000Y-96778500I0J-150000D01*
G01*
X135555000Y-98428500D01*
G75*
G02*
X135405000Y-98578500I-150000J0D01*
G01*
G37*
G36*
G01*
X135405000Y-103528500D02*
X135105000Y-103528500D01*
G75*
G02*
X134955000Y-103378500I0J150000D01*
G01*
X134955000Y-101728500D01*
G75*
G02*
X135105000Y-101578500I150000J0D01*
G01*
X135405000Y-101578500D01*
G75*
G02*
X135555000Y-101728500I0J-150000D01*
G01*
X135555000Y-103378500D01*
G75*
G02*
X135405000Y-103528500I-150000J0D01*
G01*
G37*
G36*
G01*
X134135000Y-103528500D02*
X133835000Y-103528500D01*
G75*
G02*
X133685000Y-103378500I0J150000D01*
G01*
X133685000Y-101728500D01*
G75*
G02*
X133835000Y-101578500I150000J0D01*
G01*
X134135000Y-101578500D01*
G75*
G02*
X134285000Y-101728500I0J-150000D01*
G01*
X134285000Y-103378500D01*
G75*
G02*
X134135000Y-103528500I-150000J0D01*
G01*
G37*
G36*
G01*
X132865000Y-103528500D02*
X132565000Y-103528500D01*
G75*
G02*
X132415000Y-103378500I0J150000D01*
G01*
X132415000Y-101728500D01*
G75*
G02*
X132565000Y-101578500I150000J0D01*
G01*
X132865000Y-101578500D01*
G75*
G02*
X133015000Y-101728500I0J-150000D01*
G01*
X133015000Y-103378500D01*
G75*
G02*
X132865000Y-103528500I-150000J0D01*
G01*
G37*
G36*
G01*
X131595000Y-103528500D02*
X131295000Y-103528500D01*
G75*
G02*
X131145000Y-103378500I0J150000D01*
G01*
X131145000Y-101728500D01*
G75*
G02*
X131295000Y-101578500I150000J0D01*
G01*
X131595000Y-101578500D01*
G75*
G02*
X131745000Y-101728500I0J-150000D01*
G01*
X131745000Y-103378500D01*
G75*
G02*
X131595000Y-103528500I-150000J0D01*
G01*
G37*
%TD*%
D10*
%TO.C,J5*%
X100965000Y-115317000D03*
X100965000Y-122047000D03*
%TD*%
%TO.C,J7*%
G36*
G01*
X98736999Y-111820000D02*
X99637001Y-111820000D01*
G75*
G02*
X99887000Y-112069999I0J-249999D01*
G01*
X99887000Y-112720001D01*
G75*
G02*
X99637001Y-112970000I-249999J0D01*
G01*
X98736999Y-112970000D01*
G75*
G02*
X98487000Y-112720001I0J249999D01*
G01*
X98487000Y-112069999D01*
G75*
G02*
X98736999Y-111820000I249999J0D01*
G01*
G37*
G36*
G01*
X98736999Y-109770000D02*
X99637001Y-109770000D01*
G75*
G02*
X99887000Y-110019999I0J-249999D01*
G01*
X99887000Y-110670001D01*
G75*
G02*
X99637001Y-110920000I-249999J0D01*
G01*
X98736999Y-110920000D01*
G75*
G02*
X98487000Y-110670001I0J249999D01*
G01*
X98487000Y-110019999D01*
G75*
G02*
X98736999Y-109770000I249999J0D01*
G01*
G37*
%TD*%
D11*
%TO.C,X1*%
X124587000Y-92596000D03*
X124587000Y-94996000D03*
X122687000Y-94996000D03*
X122687000Y-92596000D03*
%TD*%
%TO.C,C13*%
G36*
G01*
X123275000Y-110460000D02*
X124375000Y-110460000D01*
G75*
G02*
X124625000Y-110710000I0J-250000D01*
G01*
X124625000Y-112810000D01*
G75*
G02*
X124375000Y-113060000I-250000J0D01*
G01*
X123275000Y-113060000D01*
G75*
G02*
X123025000Y-112810000I0J250000D01*
G01*
X123025000Y-110710000D01*
G75*
G02*
X123275000Y-110460000I250000J0D01*
G01*
G37*
G36*
G01*
X123275000Y-106860000D02*
X124375000Y-106860000D01*
G75*
G02*
X124625000Y-107110000I0J-250000D01*
G01*
X124625000Y-109210000D01*
G75*
G02*
X124375000Y-109460000I-250000J0D01*
G01*
X123275000Y-109460000D01*
G75*
G02*
X123025000Y-109210000I0J250000D01*
G01*
X123025000Y-107110000D01*
G75*
G02*
X123275000Y-106860000I250000J0D01*
G01*
G37*
%TD*%
%TO.C,C12*%
G36*
G01*
X120862000Y-102840000D02*
X121962000Y-102840000D01*
G75*
G02*
X122212000Y-103090000I0J-250000D01*
G01*
X122212000Y-105190000D01*
G75*
G02*
X121962000Y-105440000I-250000J0D01*
G01*
X120862000Y-105440000D01*
G75*
G02*
X120612000Y-105190000I0J250000D01*
G01*
X120612000Y-103090000D01*
G75*
G02*
X120862000Y-102840000I250000J0D01*
G01*
G37*
G36*
G01*
X120862000Y-99240000D02*
X121962000Y-99240000D01*
G75*
G02*
X122212000Y-99490000I0J-250000D01*
G01*
X122212000Y-101590000D01*
G75*
G02*
X121962000Y-101840000I-250000J0D01*
G01*
X120862000Y-101840000D01*
G75*
G02*
X120612000Y-101590000I0J250000D01*
G01*
X120612000Y-99490000D01*
G75*
G02*
X120862000Y-99240000I250000J0D01*
G01*
G37*
%TD*%
%TO.C,C11*%
G36*
G01*
X125942000Y-102840000D02*
X127042000Y-102840000D01*
G75*
G02*
X127292000Y-103090000I0J-250000D01*
G01*
X127292000Y-105190000D01*
G75*
G02*
X127042000Y-105440000I-250000J0D01*
G01*
X125942000Y-105440000D01*
G75*
G02*
X125692000Y-105190000I0J250000D01*
G01*
X125692000Y-103090000D01*
G75*
G02*
X125942000Y-102840000I250000J0D01*
G01*
G37*
G36*
G01*
X125942000Y-99240000D02*
X127042000Y-99240000D01*
G75*
G02*
X127292000Y-99490000I0J-250000D01*
G01*
X127292000Y-101590000D01*
G75*
G02*
X127042000Y-101840000I-250000J0D01*
G01*
X125942000Y-101840000D01*
G75*
G02*
X125692000Y-101590000I0J250000D01*
G01*
X125692000Y-99490000D01*
G75*
G02*
X125942000Y-99240000I250000J0D01*
G01*
G37*
%TD*%
%TO.C,C10*%
G36*
G01*
X133435000Y-110460000D02*
X134535000Y-110460000D01*
G75*
G02*
X134785000Y-110710000I0J-250000D01*
G01*
X134785000Y-112810000D01*
G75*
G02*
X134535000Y-113060000I-250000J0D01*
G01*
X133435000Y-113060000D01*
G75*
G02*
X133185000Y-112810000I0J250000D01*
G01*
X133185000Y-110710000D01*
G75*
G02*
X133435000Y-110460000I250000J0D01*
G01*
G37*
G36*
G01*
X133435000Y-106860000D02*
X134535000Y-106860000D01*
G75*
G02*
X134785000Y-107110000I0J-250000D01*
G01*
X134785000Y-109210000D01*
G75*
G02*
X134535000Y-109460000I-250000J0D01*
G01*
X133435000Y-109460000D01*
G75*
G02*
X133185000Y-109210000I0J250000D01*
G01*
X133185000Y-107110000D01*
G75*
G02*
X133435000Y-106860000I250000J0D01*
G01*
G37*
%TD*%
%TO.C,C2*%
G36*
G01*
X128355000Y-110460000D02*
X129455000Y-110460000D01*
G75*
G02*
X129705000Y-110710000I0J-250000D01*
G01*
X129705000Y-112810000D01*
G75*
G02*
X129455000Y-113060000I-250000J0D01*
G01*
X128355000Y-113060000D01*
G75*
G02*
X128105000Y-112810000I0J250000D01*
G01*
X128105000Y-110710000D01*
G75*
G02*
X128355000Y-110460000I250000J0D01*
G01*
G37*
G36*
G01*
X128355000Y-106860000D02*
X129455000Y-106860000D01*
G75*
G02*
X129705000Y-107110000I0J-250000D01*
G01*
X129705000Y-109210000D01*
G75*
G02*
X129455000Y-109460000I-250000J0D01*
G01*
X128355000Y-109460000D01*
G75*
G02*
X128105000Y-109210000I0J250000D01*
G01*
X128105000Y-107110000D01*
G75*
G02*
X128355000Y-106860000I250000J0D01*
G01*
G37*
%TD*%
D12*
%TO.C,J6*%
X106990000Y-121540000D03*
X106990000Y-114340000D03*
X106990000Y-112140000D03*
X113990000Y-121540000D03*
X113990000Y-118140000D03*
X113990000Y-112640000D03*
%TD*%
%TO.C,U1*%
G36*
G01*
X101115000Y-40410000D02*
X100815000Y-40410000D01*
G75*
G02*
X100665000Y-40260000I0J150000D01*
G01*
X100665000Y-38610000D01*
G75*
G02*
X100815000Y-38460000I150000J0D01*
G01*
X101115000Y-38460000D01*
G75*
G02*
X101265000Y-38610000I0J-150000D01*
G01*
X101265000Y-40260000D01*
G75*
G02*
X101115000Y-40410000I-150000J0D01*
G01*
G37*
G36*
G01*
X102385000Y-40410000D02*
X102085000Y-40410000D01*
G75*
G02*
X101935000Y-40260000I0J150000D01*
G01*
X101935000Y-38610000D01*
G75*
G02*
X102085000Y-38460000I150000J0D01*
G01*
X102385000Y-38460000D01*
G75*
G02*
X102535000Y-38610000I0J-150000D01*
G01*
X102535000Y-40260000D01*
G75*
G02*
X102385000Y-40410000I-150000J0D01*
G01*
G37*
G36*
G01*
X103655000Y-40410000D02*
X103355000Y-40410000D01*
G75*
G02*
X103205000Y-40260000I0J150000D01*
G01*
X103205000Y-38610000D01*
G75*
G02*
X103355000Y-38460000I150000J0D01*
G01*
X103655000Y-38460000D01*
G75*
G02*
X103805000Y-38610000I0J-150000D01*
G01*
X103805000Y-40260000D01*
G75*
G02*
X103655000Y-40410000I-150000J0D01*
G01*
G37*
G36*
G01*
X104925000Y-40410000D02*
X104625000Y-40410000D01*
G75*
G02*
X104475000Y-40260000I0J150000D01*
G01*
X104475000Y-38610000D01*
G75*
G02*
X104625000Y-38460000I150000J0D01*
G01*
X104925000Y-38460000D01*
G75*
G02*
X105075000Y-38610000I0J-150000D01*
G01*
X105075000Y-40260000D01*
G75*
G02*
X104925000Y-40410000I-150000J0D01*
G01*
G37*
G36*
G01*
X106195000Y-40410000D02*
X105895000Y-40410000D01*
G75*
G02*
X105745000Y-40260000I0J150000D01*
G01*
X105745000Y-38610000D01*
G75*
G02*
X105895000Y-38460000I150000J0D01*
G01*
X106195000Y-38460000D01*
G75*
G02*
X106345000Y-38610000I0J-150000D01*
G01*
X106345000Y-40260000D01*
G75*
G02*
X106195000Y-40410000I-150000J0D01*
G01*
G37*
G36*
G01*
X107465000Y-40410000D02*
X107165000Y-40410000D01*
G75*
G02*
X107015000Y-40260000I0J150000D01*
G01*
X107015000Y-38610000D01*
G75*
G02*
X107165000Y-38460000I150000J0D01*
G01*
X107465000Y-38460000D01*
G75*
G02*
X107615000Y-38610000I0J-150000D01*
G01*
X107615000Y-40260000D01*
G75*
G02*
X107465000Y-40410000I-150000J0D01*
G01*
G37*
G36*
G01*
X108735000Y-40410000D02*
X108435000Y-40410000D01*
G75*
G02*
X108285000Y-40260000I0J150000D01*
G01*
X108285000Y-38610000D01*
G75*
G02*
X108435000Y-38460000I150000J0D01*
G01*
X108735000Y-38460000D01*
G75*
G02*
X108885000Y-38610000I0J-150000D01*
G01*
X108885000Y-40260000D01*
G75*
G02*
X108735000Y-40410000I-150000J0D01*
G01*
G37*
G36*
G01*
X110005000Y-40410000D02*
X109705000Y-40410000D01*
G75*
G02*
X109555000Y-40260000I0J150000D01*
G01*
X109555000Y-38610000D01*
G75*
G02*
X109705000Y-38460000I150000J0D01*
G01*
X110005000Y-38460000D01*
G75*
G02*
X110155000Y-38610000I0J-150000D01*
G01*
X110155000Y-40260000D01*
G75*
G02*
X110005000Y-40410000I-150000J0D01*
G01*
G37*
G36*
G01*
X110005000Y-45360000D02*
X109705000Y-45360000D01*
G75*
G02*
X109555000Y-45210000I0J150000D01*
G01*
X109555000Y-43560000D01*
G75*
G02*
X109705000Y-43410000I150000J0D01*
G01*
X110005000Y-43410000D01*
G75*
G02*
X110155000Y-43560000I0J-150000D01*
G01*
X110155000Y-45210000D01*
G75*
G02*
X110005000Y-45360000I-150000J0D01*
G01*
G37*
G36*
G01*
X108735000Y-45360000D02*
X108435000Y-45360000D01*
G75*
G02*
X108285000Y-45210000I0J150000D01*
G01*
X108285000Y-43560000D01*
G75*
G02*
X108435000Y-43410000I150000J0D01*
G01*
X108735000Y-43410000D01*
G75*
G02*
X108885000Y-43560000I0J-150000D01*
G01*
X108885000Y-45210000D01*
G75*
G02*
X108735000Y-45360000I-150000J0D01*
G01*
G37*
G36*
G01*
X107465000Y-45360000D02*
X107165000Y-45360000D01*
G75*
G02*
X107015000Y-45210000I0J150000D01*
G01*
X107015000Y-43560000D01*
G75*
G02*
X107165000Y-43410000I150000J0D01*
G01*
X107465000Y-43410000D01*
G75*
G02*
X107615000Y-43560000I0J-150000D01*
G01*
X107615000Y-45210000D01*
G75*
G02*
X107465000Y-45360000I-150000J0D01*
G01*
G37*
G36*
G01*
X106195000Y-45360000D02*
X105895000Y-45360000D01*
G75*
G02*
X105745000Y-45210000I0J150000D01*
G01*
X105745000Y-43560000D01*
G75*
G02*
X105895000Y-43410000I150000J0D01*
G01*
X106195000Y-43410000D01*
G75*
G02*
X106345000Y-43560000I0J-150000D01*
G01*
X106345000Y-45210000D01*
G75*
G02*
X106195000Y-45360000I-150000J0D01*
G01*
G37*
G36*
G01*
X104925000Y-45360000D02*
X104625000Y-45360000D01*
G75*
G02*
X104475000Y-45210000I0J150000D01*
G01*
X104475000Y-43560000D01*
G75*
G02*
X104625000Y-43410000I150000J0D01*
G01*
X104925000Y-43410000D01*
G75*
G02*
X105075000Y-43560000I0J-150000D01*
G01*
X105075000Y-45210000D01*
G75*
G02*
X104925000Y-45360000I-150000J0D01*
G01*
G37*
G36*
G01*
X103655000Y-45360000D02*
X103355000Y-45360000D01*
G75*
G02*
X103205000Y-45210000I0J150000D01*
G01*
X103205000Y-43560000D01*
G75*
G02*
X103355000Y-43410000I150000J0D01*
G01*
X103655000Y-43410000D01*
G75*
G02*
X103805000Y-43560000I0J-150000D01*
G01*
X103805000Y-45210000D01*
G75*
G02*
X103655000Y-45360000I-150000J0D01*
G01*
G37*
G36*
G01*
X102385000Y-45360000D02*
X102085000Y-45360000D01*
G75*
G02*
X101935000Y-45210000I0J150000D01*
G01*
X101935000Y-43560000D01*
G75*
G02*
X102085000Y-43410000I150000J0D01*
G01*
X102385000Y-43410000D01*
G75*
G02*
X102535000Y-43560000I0J-150000D01*
G01*
X102535000Y-45210000D01*
G75*
G02*
X102385000Y-45360000I-150000J0D01*
G01*
G37*
G36*
G01*
X101115000Y-45360000D02*
X100815000Y-45360000D01*
G75*
G02*
X100665000Y-45210000I0J150000D01*
G01*
X100665000Y-43560000D01*
G75*
G02*
X100815000Y-43410000I150000J0D01*
G01*
X101115000Y-43410000D01*
G75*
G02*
X101265000Y-43560000I0J-150000D01*
G01*
X101265000Y-45210000D01*
G75*
G02*
X101115000Y-45360000I-150000J0D01*
G01*
G37*
%TD*%
%TO.C,U10*%
G36*
G01*
X101830000Y-52855000D02*
X101830000Y-52555000D01*
G75*
G02*
X101980000Y-52405000I150000J0D01*
G01*
X103630000Y-52405000D01*
G75*
G02*
X103780000Y-52555000I0J-150000D01*
G01*
X103780000Y-52855000D01*
G75*
G02*
X103630000Y-53005000I-150000J0D01*
G01*
X101980000Y-53005000D01*
G75*
G02*
X101830000Y-52855000I0J150000D01*
G01*
G37*
G36*
G01*
X101830000Y-54125000D02*
X101830000Y-53825000D01*
G75*
G02*
X101980000Y-53675000I150000J0D01*
G01*
X103630000Y-53675000D01*
G75*
G02*
X103780000Y-53825000I0J-150000D01*
G01*
X103780000Y-54125000D01*
G75*
G02*
X103630000Y-54275000I-150000J0D01*
G01*
X101980000Y-54275000D01*
G75*
G02*
X101830000Y-54125000I0J150000D01*
G01*
G37*
G36*
G01*
X101830000Y-55395000D02*
X101830000Y-55095000D01*
G75*
G02*
X101980000Y-54945000I150000J0D01*
G01*
X103630000Y-54945000D01*
G75*
G02*
X103780000Y-55095000I0J-150000D01*
G01*
X103780000Y-55395000D01*
G75*
G02*
X103630000Y-55545000I-150000J0D01*
G01*
X101980000Y-55545000D01*
G75*
G02*
X101830000Y-55395000I0J150000D01*
G01*
G37*
G36*
G01*
X101830000Y-56665000D02*
X101830000Y-56365000D01*
G75*
G02*
X101980000Y-56215000I150000J0D01*
G01*
X103630000Y-56215000D01*
G75*
G02*
X103780000Y-56365000I0J-150000D01*
G01*
X103780000Y-56665000D01*
G75*
G02*
X103630000Y-56815000I-150000J0D01*
G01*
X101980000Y-56815000D01*
G75*
G02*
X101830000Y-56665000I0J150000D01*
G01*
G37*
G36*
G01*
X101830000Y-57935000D02*
X101830000Y-57635000D01*
G75*
G02*
X101980000Y-57485000I150000J0D01*
G01*
X103630000Y-57485000D01*
G75*
G02*
X103780000Y-57635000I0J-150000D01*
G01*
X103780000Y-57935000D01*
G75*
G02*
X103630000Y-58085000I-150000J0D01*
G01*
X101980000Y-58085000D01*
G75*
G02*
X101830000Y-57935000I0J150000D01*
G01*
G37*
G36*
G01*
X101830000Y-59205000D02*
X101830000Y-58905000D01*
G75*
G02*
X101980000Y-58755000I150000J0D01*
G01*
X103630000Y-58755000D01*
G75*
G02*
X103780000Y-58905000I0J-150000D01*
G01*
X103780000Y-59205000D01*
G75*
G02*
X103630000Y-59355000I-150000J0D01*
G01*
X101980000Y-59355000D01*
G75*
G02*
X101830000Y-59205000I0J150000D01*
G01*
G37*
G36*
G01*
X101830000Y-60475000D02*
X101830000Y-60175000D01*
G75*
G02*
X101980000Y-60025000I150000J0D01*
G01*
X103630000Y-60025000D01*
G75*
G02*
X103780000Y-60175000I0J-150000D01*
G01*
X103780000Y-60475000D01*
G75*
G02*
X103630000Y-60625000I-150000J0D01*
G01*
X101980000Y-60625000D01*
G75*
G02*
X101830000Y-60475000I0J150000D01*
G01*
G37*
G36*
G01*
X101830000Y-61745000D02*
X101830000Y-61445000D01*
G75*
G02*
X101980000Y-61295000I150000J0D01*
G01*
X103630000Y-61295000D01*
G75*
G02*
X103780000Y-61445000I0J-150000D01*
G01*
X103780000Y-61745000D01*
G75*
G02*
X103630000Y-61895000I-150000J0D01*
G01*
X101980000Y-61895000D01*
G75*
G02*
X101830000Y-61745000I0J150000D01*
G01*
G37*
G36*
G01*
X96880000Y-61745000D02*
X96880000Y-61445000D01*
G75*
G02*
X97030000Y-61295000I150000J0D01*
G01*
X98680000Y-61295000D01*
G75*
G02*
X98830000Y-61445000I0J-150000D01*
G01*
X98830000Y-61745000D01*
G75*
G02*
X98680000Y-61895000I-150000J0D01*
G01*
X97030000Y-61895000D01*
G75*
G02*
X96880000Y-61745000I0J150000D01*
G01*
G37*
G36*
G01*
X96880000Y-60475000D02*
X96880000Y-60175000D01*
G75*
G02*
X97030000Y-60025000I150000J0D01*
G01*
X98680000Y-60025000D01*
G75*
G02*
X98830000Y-60175000I0J-150000D01*
G01*
X98830000Y-60475000D01*
G75*
G02*
X98680000Y-60625000I-150000J0D01*
G01*
X97030000Y-60625000D01*
G75*
G02*
X96880000Y-60475000I0J150000D01*
G01*
G37*
G36*
G01*
X96880000Y-59205000D02*
X96880000Y-58905000D01*
G75*
G02*
X97030000Y-58755000I150000J0D01*
G01*
X98680000Y-58755000D01*
G75*
G02*
X98830000Y-58905000I0J-150000D01*
G01*
X98830000Y-59205000D01*
G75*
G02*
X98680000Y-59355000I-150000J0D01*
G01*
X97030000Y-59355000D01*
G75*
G02*
X96880000Y-59205000I0J150000D01*
G01*
G37*
G36*
G01*
X96880000Y-57935000D02*
X96880000Y-57635000D01*
G75*
G02*
X97030000Y-57485000I150000J0D01*
G01*
X98680000Y-57485000D01*
G75*
G02*
X98830000Y-57635000I0J-150000D01*
G01*
X98830000Y-57935000D01*
G75*
G02*
X98680000Y-58085000I-150000J0D01*
G01*
X97030000Y-58085000D01*
G75*
G02*
X96880000Y-57935000I0J150000D01*
G01*
G37*
G36*
G01*
X96880000Y-56665000D02*
X96880000Y-56365000D01*
G75*
G02*
X97030000Y-56215000I150000J0D01*
G01*
X98680000Y-56215000D01*
G75*
G02*
X98830000Y-56365000I0J-150000D01*
G01*
X98830000Y-56665000D01*
G75*
G02*
X98680000Y-56815000I-150000J0D01*
G01*
X97030000Y-56815000D01*
G75*
G02*
X96880000Y-56665000I0J150000D01*
G01*
G37*
G36*
G01*
X96880000Y-55395000D02*
X96880000Y-55095000D01*
G75*
G02*
X97030000Y-54945000I150000J0D01*
G01*
X98680000Y-54945000D01*
G75*
G02*
X98830000Y-55095000I0J-150000D01*
G01*
X98830000Y-55395000D01*
G75*
G02*
X98680000Y-55545000I-150000J0D01*
G01*
X97030000Y-55545000D01*
G75*
G02*
X96880000Y-55395000I0J150000D01*
G01*
G37*
G36*
G01*
X96880000Y-54125000D02*
X96880000Y-53825000D01*
G75*
G02*
X97030000Y-53675000I150000J0D01*
G01*
X98680000Y-53675000D01*
G75*
G02*
X98830000Y-53825000I0J-150000D01*
G01*
X98830000Y-54125000D01*
G75*
G02*
X98680000Y-54275000I-150000J0D01*
G01*
X97030000Y-54275000D01*
G75*
G02*
X96880000Y-54125000I0J150000D01*
G01*
G37*
G36*
G01*
X96880000Y-52855000D02*
X96880000Y-52555000D01*
G75*
G02*
X97030000Y-52405000I150000J0D01*
G01*
X98680000Y-52405000D01*
G75*
G02*
X98830000Y-52555000I0J-150000D01*
G01*
X98830000Y-52855000D01*
G75*
G02*
X98680000Y-53005000I-150000J0D01*
G01*
X97030000Y-53005000D01*
G75*
G02*
X96880000Y-52855000I0J150000D01*
G01*
G37*
%TD*%
%TO.C,U9*%
G36*
G01*
X136375000Y-67540000D02*
X136675000Y-67540000D01*
G75*
G02*
X136825000Y-67690000I0J-150000D01*
G01*
X136825000Y-69340000D01*
G75*
G02*
X136675000Y-69490000I-150000J0D01*
G01*
X136375000Y-69490000D01*
G75*
G02*
X136225000Y-69340000I0J150000D01*
G01*
X136225000Y-67690000D01*
G75*
G02*
X136375000Y-67540000I150000J0D01*
G01*
G37*
G36*
G01*
X135105000Y-67540000D02*
X135405000Y-67540000D01*
G75*
G02*
X135555000Y-67690000I0J-150000D01*
G01*
X135555000Y-69340000D01*
G75*
G02*
X135405000Y-69490000I-150000J0D01*
G01*
X135105000Y-69490000D01*
G75*
G02*
X134955000Y-69340000I0J150000D01*
G01*
X134955000Y-67690000D01*
G75*
G02*
X135105000Y-67540000I150000J0D01*
G01*
G37*
G36*
G01*
X133835000Y-67540000D02*
X134135000Y-67540000D01*
G75*
G02*
X134285000Y-67690000I0J-150000D01*
G01*
X134285000Y-69340000D01*
G75*
G02*
X134135000Y-69490000I-150000J0D01*
G01*
X133835000Y-69490000D01*
G75*
G02*
X133685000Y-69340000I0J150000D01*
G01*
X133685000Y-67690000D01*
G75*
G02*
X133835000Y-67540000I150000J0D01*
G01*
G37*
G36*
G01*
X132565000Y-67540000D02*
X132865000Y-67540000D01*
G75*
G02*
X133015000Y-67690000I0J-150000D01*
G01*
X133015000Y-69340000D01*
G75*
G02*
X132865000Y-69490000I-150000J0D01*
G01*
X132565000Y-69490000D01*
G75*
G02*
X132415000Y-69340000I0J150000D01*
G01*
X132415000Y-67690000D01*
G75*
G02*
X132565000Y-67540000I150000J0D01*
G01*
G37*
G36*
G01*
X131295000Y-67540000D02*
X131595000Y-67540000D01*
G75*
G02*
X131745000Y-67690000I0J-150000D01*
G01*
X131745000Y-69340000D01*
G75*
G02*
X131595000Y-69490000I-150000J0D01*
G01*
X131295000Y-69490000D01*
G75*
G02*
X131145000Y-69340000I0J150000D01*
G01*
X131145000Y-67690000D01*
G75*
G02*
X131295000Y-67540000I150000J0D01*
G01*
G37*
G36*
G01*
X130025000Y-67540000D02*
X130325000Y-67540000D01*
G75*
G02*
X130475000Y-67690000I0J-150000D01*
G01*
X130475000Y-69340000D01*
G75*
G02*
X130325000Y-69490000I-150000J0D01*
G01*
X130025000Y-69490000D01*
G75*
G02*
X129875000Y-69340000I0J150000D01*
G01*
X129875000Y-67690000D01*
G75*
G02*
X130025000Y-67540000I150000J0D01*
G01*
G37*
G36*
G01*
X128755000Y-67540000D02*
X129055000Y-67540000D01*
G75*
G02*
X129205000Y-67690000I0J-150000D01*
G01*
X129205000Y-69340000D01*
G75*
G02*
X129055000Y-69490000I-150000J0D01*
G01*
X128755000Y-69490000D01*
G75*
G02*
X128605000Y-69340000I0J150000D01*
G01*
X128605000Y-67690000D01*
G75*
G02*
X128755000Y-67540000I150000J0D01*
G01*
G37*
G36*
G01*
X127485000Y-67540000D02*
X127785000Y-67540000D01*
G75*
G02*
X127935000Y-67690000I0J-150000D01*
G01*
X127935000Y-69340000D01*
G75*
G02*
X127785000Y-69490000I-150000J0D01*
G01*
X127485000Y-69490000D01*
G75*
G02*
X127335000Y-69340000I0J150000D01*
G01*
X127335000Y-67690000D01*
G75*
G02*
X127485000Y-67540000I150000J0D01*
G01*
G37*
G36*
G01*
X127485000Y-62590000D02*
X127785000Y-62590000D01*
G75*
G02*
X127935000Y-62740000I0J-150000D01*
G01*
X127935000Y-64390000D01*
G75*
G02*
X127785000Y-64540000I-150000J0D01*
G01*
X127485000Y-64540000D01*
G75*
G02*
X127335000Y-64390000I0J150000D01*
G01*
X127335000Y-62740000D01*
G75*
G02*
X127485000Y-62590000I150000J0D01*
G01*
G37*
G36*
G01*
X128755000Y-62590000D02*
X129055000Y-62590000D01*
G75*
G02*
X129205000Y-62740000I0J-150000D01*
G01*
X129205000Y-64390000D01*
G75*
G02*
X129055000Y-64540000I-150000J0D01*
G01*
X128755000Y-64540000D01*
G75*
G02*
X128605000Y-64390000I0J150000D01*
G01*
X128605000Y-62740000D01*
G75*
G02*
X128755000Y-62590000I150000J0D01*
G01*
G37*
G36*
G01*
X130025000Y-62590000D02*
X130325000Y-62590000D01*
G75*
G02*
X130475000Y-62740000I0J-150000D01*
G01*
X130475000Y-64390000D01*
G75*
G02*
X130325000Y-64540000I-150000J0D01*
G01*
X130025000Y-64540000D01*
G75*
G02*
X129875000Y-64390000I0J150000D01*
G01*
X129875000Y-62740000D01*
G75*
G02*
X130025000Y-62590000I150000J0D01*
G01*
G37*
G36*
G01*
X131295000Y-62590000D02*
X131595000Y-62590000D01*
G75*
G02*
X131745000Y-62740000I0J-150000D01*
G01*
X131745000Y-64390000D01*
G75*
G02*
X131595000Y-64540000I-150000J0D01*
G01*
X131295000Y-64540000D01*
G75*
G02*
X131145000Y-64390000I0J150000D01*
G01*
X131145000Y-62740000D01*
G75*
G02*
X131295000Y-62590000I150000J0D01*
G01*
G37*
G36*
G01*
X132565000Y-62590000D02*
X132865000Y-62590000D01*
G75*
G02*
X133015000Y-62740000I0J-150000D01*
G01*
X133015000Y-64390000D01*
G75*
G02*
X132865000Y-64540000I-150000J0D01*
G01*
X132565000Y-64540000D01*
G75*
G02*
X132415000Y-64390000I0J150000D01*
G01*
X132415000Y-62740000D01*
G75*
G02*
X132565000Y-62590000I150000J0D01*
G01*
G37*
G36*
G01*
X133835000Y-62590000D02*
X134135000Y-62590000D01*
G75*
G02*
X134285000Y-62740000I0J-150000D01*
G01*
X134285000Y-64390000D01*
G75*
G02*
X134135000Y-64540000I-150000J0D01*
G01*
X133835000Y-64540000D01*
G75*
G02*
X133685000Y-64390000I0J150000D01*
G01*
X133685000Y-62740000D01*
G75*
G02*
X133835000Y-62590000I150000J0D01*
G01*
G37*
G36*
G01*
X135105000Y-62590000D02*
X135405000Y-62590000D01*
G75*
G02*
X135555000Y-62740000I0J-150000D01*
G01*
X135555000Y-64390000D01*
G75*
G02*
X135405000Y-64540000I-150000J0D01*
G01*
X135105000Y-64540000D01*
G75*
G02*
X134955000Y-64390000I0J150000D01*
G01*
X134955000Y-62740000D01*
G75*
G02*
X135105000Y-62590000I150000J0D01*
G01*
G37*
G36*
G01*
X136375000Y-62590000D02*
X136675000Y-62590000D01*
G75*
G02*
X136825000Y-62740000I0J-150000D01*
G01*
X136825000Y-64390000D01*
G75*
G02*
X136675000Y-64540000I-150000J0D01*
G01*
X136375000Y-64540000D01*
G75*
G02*
X136225000Y-64390000I0J150000D01*
G01*
X136225000Y-62740000D01*
G75*
G02*
X136375000Y-62590000I150000J0D01*
G01*
G37*
%TD*%
%TO.C,U8*%
G36*
G01*
X124945000Y-67540000D02*
X125245000Y-67540000D01*
G75*
G02*
X125395000Y-67690000I0J-150000D01*
G01*
X125395000Y-69340000D01*
G75*
G02*
X125245000Y-69490000I-150000J0D01*
G01*
X124945000Y-69490000D01*
G75*
G02*
X124795000Y-69340000I0J150000D01*
G01*
X124795000Y-67690000D01*
G75*
G02*
X124945000Y-67540000I150000J0D01*
G01*
G37*
G36*
G01*
X123675000Y-67540000D02*
X123975000Y-67540000D01*
G75*
G02*
X124125000Y-67690000I0J-150000D01*
G01*
X124125000Y-69340000D01*
G75*
G02*
X123975000Y-69490000I-150000J0D01*
G01*
X123675000Y-69490000D01*
G75*
G02*
X123525000Y-69340000I0J150000D01*
G01*
X123525000Y-67690000D01*
G75*
G02*
X123675000Y-67540000I150000J0D01*
G01*
G37*
G36*
G01*
X122405000Y-67540000D02*
X122705000Y-67540000D01*
G75*
G02*
X122855000Y-67690000I0J-150000D01*
G01*
X122855000Y-69340000D01*
G75*
G02*
X122705000Y-69490000I-150000J0D01*
G01*
X122405000Y-69490000D01*
G75*
G02*
X122255000Y-69340000I0J150000D01*
G01*
X122255000Y-67690000D01*
G75*
G02*
X122405000Y-67540000I150000J0D01*
G01*
G37*
G36*
G01*
X121135000Y-67540000D02*
X121435000Y-67540000D01*
G75*
G02*
X121585000Y-67690000I0J-150000D01*
G01*
X121585000Y-69340000D01*
G75*
G02*
X121435000Y-69490000I-150000J0D01*
G01*
X121135000Y-69490000D01*
G75*
G02*
X120985000Y-69340000I0J150000D01*
G01*
X120985000Y-67690000D01*
G75*
G02*
X121135000Y-67540000I150000J0D01*
G01*
G37*
G36*
G01*
X119865000Y-67540000D02*
X120165000Y-67540000D01*
G75*
G02*
X120315000Y-67690000I0J-150000D01*
G01*
X120315000Y-69340000D01*
G75*
G02*
X120165000Y-69490000I-150000J0D01*
G01*
X119865000Y-69490000D01*
G75*
G02*
X119715000Y-69340000I0J150000D01*
G01*
X119715000Y-67690000D01*
G75*
G02*
X119865000Y-67540000I150000J0D01*
G01*
G37*
G36*
G01*
X118595000Y-67540000D02*
X118895000Y-67540000D01*
G75*
G02*
X119045000Y-67690000I0J-150000D01*
G01*
X119045000Y-69340000D01*
G75*
G02*
X118895000Y-69490000I-150000J0D01*
G01*
X118595000Y-69490000D01*
G75*
G02*
X118445000Y-69340000I0J150000D01*
G01*
X118445000Y-67690000D01*
G75*
G02*
X118595000Y-67540000I150000J0D01*
G01*
G37*
G36*
G01*
X117325000Y-67540000D02*
X117625000Y-67540000D01*
G75*
G02*
X117775000Y-67690000I0J-150000D01*
G01*
X117775000Y-69340000D01*
G75*
G02*
X117625000Y-69490000I-150000J0D01*
G01*
X117325000Y-69490000D01*
G75*
G02*
X117175000Y-69340000I0J150000D01*
G01*
X117175000Y-67690000D01*
G75*
G02*
X117325000Y-67540000I150000J0D01*
G01*
G37*
G36*
G01*
X116055000Y-67540000D02*
X116355000Y-67540000D01*
G75*
G02*
X116505000Y-67690000I0J-150000D01*
G01*
X116505000Y-69340000D01*
G75*
G02*
X116355000Y-69490000I-150000J0D01*
G01*
X116055000Y-69490000D01*
G75*
G02*
X115905000Y-69340000I0J150000D01*
G01*
X115905000Y-67690000D01*
G75*
G02*
X116055000Y-67540000I150000J0D01*
G01*
G37*
G36*
G01*
X116055000Y-62590000D02*
X116355000Y-62590000D01*
G75*
G02*
X116505000Y-62740000I0J-150000D01*
G01*
X116505000Y-64390000D01*
G75*
G02*
X116355000Y-64540000I-150000J0D01*
G01*
X116055000Y-64540000D01*
G75*
G02*
X115905000Y-64390000I0J150000D01*
G01*
X115905000Y-62740000D01*
G75*
G02*
X116055000Y-62590000I150000J0D01*
G01*
G37*
G36*
G01*
X117325000Y-62590000D02*
X117625000Y-62590000D01*
G75*
G02*
X117775000Y-62740000I0J-150000D01*
G01*
X117775000Y-64390000D01*
G75*
G02*
X117625000Y-64540000I-150000J0D01*
G01*
X117325000Y-64540000D01*
G75*
G02*
X117175000Y-64390000I0J150000D01*
G01*
X117175000Y-62740000D01*
G75*
G02*
X117325000Y-62590000I150000J0D01*
G01*
G37*
G36*
G01*
X118595000Y-62590000D02*
X118895000Y-62590000D01*
G75*
G02*
X119045000Y-62740000I0J-150000D01*
G01*
X119045000Y-64390000D01*
G75*
G02*
X118895000Y-64540000I-150000J0D01*
G01*
X118595000Y-64540000D01*
G75*
G02*
X118445000Y-64390000I0J150000D01*
G01*
X118445000Y-62740000D01*
G75*
G02*
X118595000Y-62590000I150000J0D01*
G01*
G37*
G36*
G01*
X119865000Y-62590000D02*
X120165000Y-62590000D01*
G75*
G02*
X120315000Y-62740000I0J-150000D01*
G01*
X120315000Y-64390000D01*
G75*
G02*
X120165000Y-64540000I-150000J0D01*
G01*
X119865000Y-64540000D01*
G75*
G02*
X119715000Y-64390000I0J150000D01*
G01*
X119715000Y-62740000D01*
G75*
G02*
X119865000Y-62590000I150000J0D01*
G01*
G37*
G36*
G01*
X121135000Y-62590000D02*
X121435000Y-62590000D01*
G75*
G02*
X121585000Y-62740000I0J-150000D01*
G01*
X121585000Y-64390000D01*
G75*
G02*
X121435000Y-64540000I-150000J0D01*
G01*
X121135000Y-64540000D01*
G75*
G02*
X120985000Y-64390000I0J150000D01*
G01*
X120985000Y-62740000D01*
G75*
G02*
X121135000Y-62590000I150000J0D01*
G01*
G37*
G36*
G01*
X122405000Y-62590000D02*
X122705000Y-62590000D01*
G75*
G02*
X122855000Y-62740000I0J-150000D01*
G01*
X122855000Y-64390000D01*
G75*
G02*
X122705000Y-64540000I-150000J0D01*
G01*
X122405000Y-64540000D01*
G75*
G02*
X122255000Y-64390000I0J150000D01*
G01*
X122255000Y-62740000D01*
G75*
G02*
X122405000Y-62590000I150000J0D01*
G01*
G37*
G36*
G01*
X123675000Y-62590000D02*
X123975000Y-62590000D01*
G75*
G02*
X124125000Y-62740000I0J-150000D01*
G01*
X124125000Y-64390000D01*
G75*
G02*
X123975000Y-64540000I-150000J0D01*
G01*
X123675000Y-64540000D01*
G75*
G02*
X123525000Y-64390000I0J150000D01*
G01*
X123525000Y-62740000D01*
G75*
G02*
X123675000Y-62590000I150000J0D01*
G01*
G37*
G36*
G01*
X124945000Y-62590000D02*
X125245000Y-62590000D01*
G75*
G02*
X125395000Y-62740000I0J-150000D01*
G01*
X125395000Y-64390000D01*
G75*
G02*
X125245000Y-64540000I-150000J0D01*
G01*
X124945000Y-64540000D01*
G75*
G02*
X124795000Y-64390000I0J150000D01*
G01*
X124795000Y-62740000D01*
G75*
G02*
X124945000Y-62590000I150000J0D01*
G01*
G37*
%TD*%
%TO.C,U7*%
G36*
G01*
X122785000Y-50315000D02*
X122785000Y-50015000D01*
G75*
G02*
X122935000Y-49865000I150000J0D01*
G01*
X124585000Y-49865000D01*
G75*
G02*
X124735000Y-50015000I0J-150000D01*
G01*
X124735000Y-50315000D01*
G75*
G02*
X124585000Y-50465000I-150000J0D01*
G01*
X122935000Y-50465000D01*
G75*
G02*
X122785000Y-50315000I0J150000D01*
G01*
G37*
G36*
G01*
X122785000Y-51585000D02*
X122785000Y-51285000D01*
G75*
G02*
X122935000Y-51135000I150000J0D01*
G01*
X124585000Y-51135000D01*
G75*
G02*
X124735000Y-51285000I0J-150000D01*
G01*
X124735000Y-51585000D01*
G75*
G02*
X124585000Y-51735000I-150000J0D01*
G01*
X122935000Y-51735000D01*
G75*
G02*
X122785000Y-51585000I0J150000D01*
G01*
G37*
G36*
G01*
X122785000Y-52855000D02*
X122785000Y-52555000D01*
G75*
G02*
X122935000Y-52405000I150000J0D01*
G01*
X124585000Y-52405000D01*
G75*
G02*
X124735000Y-52555000I0J-150000D01*
G01*
X124735000Y-52855000D01*
G75*
G02*
X124585000Y-53005000I-150000J0D01*
G01*
X122935000Y-53005000D01*
G75*
G02*
X122785000Y-52855000I0J150000D01*
G01*
G37*
G36*
G01*
X122785000Y-54125000D02*
X122785000Y-53825000D01*
G75*
G02*
X122935000Y-53675000I150000J0D01*
G01*
X124585000Y-53675000D01*
G75*
G02*
X124735000Y-53825000I0J-150000D01*
G01*
X124735000Y-54125000D01*
G75*
G02*
X124585000Y-54275000I-150000J0D01*
G01*
X122935000Y-54275000D01*
G75*
G02*
X122785000Y-54125000I0J150000D01*
G01*
G37*
G36*
G01*
X122785000Y-55395000D02*
X122785000Y-55095000D01*
G75*
G02*
X122935000Y-54945000I150000J0D01*
G01*
X124585000Y-54945000D01*
G75*
G02*
X124735000Y-55095000I0J-150000D01*
G01*
X124735000Y-55395000D01*
G75*
G02*
X124585000Y-55545000I-150000J0D01*
G01*
X122935000Y-55545000D01*
G75*
G02*
X122785000Y-55395000I0J150000D01*
G01*
G37*
G36*
G01*
X122785000Y-56665000D02*
X122785000Y-56365000D01*
G75*
G02*
X122935000Y-56215000I150000J0D01*
G01*
X124585000Y-56215000D01*
G75*
G02*
X124735000Y-56365000I0J-150000D01*
G01*
X124735000Y-56665000D01*
G75*
G02*
X124585000Y-56815000I-150000J0D01*
G01*
X122935000Y-56815000D01*
G75*
G02*
X122785000Y-56665000I0J150000D01*
G01*
G37*
G36*
G01*
X122785000Y-57935000D02*
X122785000Y-57635000D01*
G75*
G02*
X122935000Y-57485000I150000J0D01*
G01*
X124585000Y-57485000D01*
G75*
G02*
X124735000Y-57635000I0J-150000D01*
G01*
X124735000Y-57935000D01*
G75*
G02*
X124585000Y-58085000I-150000J0D01*
G01*
X122935000Y-58085000D01*
G75*
G02*
X122785000Y-57935000I0J150000D01*
G01*
G37*
G36*
G01*
X122785000Y-59205000D02*
X122785000Y-58905000D01*
G75*
G02*
X122935000Y-58755000I150000J0D01*
G01*
X124585000Y-58755000D01*
G75*
G02*
X124735000Y-58905000I0J-150000D01*
G01*
X124735000Y-59205000D01*
G75*
G02*
X124585000Y-59355000I-150000J0D01*
G01*
X122935000Y-59355000D01*
G75*
G02*
X122785000Y-59205000I0J150000D01*
G01*
G37*
G36*
G01*
X117835000Y-59205000D02*
X117835000Y-58905000D01*
G75*
G02*
X117985000Y-58755000I150000J0D01*
G01*
X119635000Y-58755000D01*
G75*
G02*
X119785000Y-58905000I0J-150000D01*
G01*
X119785000Y-59205000D01*
G75*
G02*
X119635000Y-59355000I-150000J0D01*
G01*
X117985000Y-59355000D01*
G75*
G02*
X117835000Y-59205000I0J150000D01*
G01*
G37*
G36*
G01*
X117835000Y-57935000D02*
X117835000Y-57635000D01*
G75*
G02*
X117985000Y-57485000I150000J0D01*
G01*
X119635000Y-57485000D01*
G75*
G02*
X119785000Y-57635000I0J-150000D01*
G01*
X119785000Y-57935000D01*
G75*
G02*
X119635000Y-58085000I-150000J0D01*
G01*
X117985000Y-58085000D01*
G75*
G02*
X117835000Y-57935000I0J150000D01*
G01*
G37*
G36*
G01*
X117835000Y-56665000D02*
X117835000Y-56365000D01*
G75*
G02*
X117985000Y-56215000I150000J0D01*
G01*
X119635000Y-56215000D01*
G75*
G02*
X119785000Y-56365000I0J-150000D01*
G01*
X119785000Y-56665000D01*
G75*
G02*
X119635000Y-56815000I-150000J0D01*
G01*
X117985000Y-56815000D01*
G75*
G02*
X117835000Y-56665000I0J150000D01*
G01*
G37*
G36*
G01*
X117835000Y-55395000D02*
X117835000Y-55095000D01*
G75*
G02*
X117985000Y-54945000I150000J0D01*
G01*
X119635000Y-54945000D01*
G75*
G02*
X119785000Y-55095000I0J-150000D01*
G01*
X119785000Y-55395000D01*
G75*
G02*
X119635000Y-55545000I-150000J0D01*
G01*
X117985000Y-55545000D01*
G75*
G02*
X117835000Y-55395000I0J150000D01*
G01*
G37*
G36*
G01*
X117835000Y-54125000D02*
X117835000Y-53825000D01*
G75*
G02*
X117985000Y-53675000I150000J0D01*
G01*
X119635000Y-53675000D01*
G75*
G02*
X119785000Y-53825000I0J-150000D01*
G01*
X119785000Y-54125000D01*
G75*
G02*
X119635000Y-54275000I-150000J0D01*
G01*
X117985000Y-54275000D01*
G75*
G02*
X117835000Y-54125000I0J150000D01*
G01*
G37*
G36*
G01*
X117835000Y-52855000D02*
X117835000Y-52555000D01*
G75*
G02*
X117985000Y-52405000I150000J0D01*
G01*
X119635000Y-52405000D01*
G75*
G02*
X119785000Y-52555000I0J-150000D01*
G01*
X119785000Y-52855000D01*
G75*
G02*
X119635000Y-53005000I-150000J0D01*
G01*
X117985000Y-53005000D01*
G75*
G02*
X117835000Y-52855000I0J150000D01*
G01*
G37*
G36*
G01*
X117835000Y-51585000D02*
X117835000Y-51285000D01*
G75*
G02*
X117985000Y-51135000I150000J0D01*
G01*
X119635000Y-51135000D01*
G75*
G02*
X119785000Y-51285000I0J-150000D01*
G01*
X119785000Y-51585000D01*
G75*
G02*
X119635000Y-51735000I-150000J0D01*
G01*
X117985000Y-51735000D01*
G75*
G02*
X117835000Y-51585000I0J150000D01*
G01*
G37*
G36*
G01*
X117835000Y-50315000D02*
X117835000Y-50015000D01*
G75*
G02*
X117985000Y-49865000I150000J0D01*
G01*
X119635000Y-49865000D01*
G75*
G02*
X119785000Y-50015000I0J-150000D01*
G01*
X119785000Y-50315000D01*
G75*
G02*
X119635000Y-50465000I-150000J0D01*
G01*
X117985000Y-50465000D01*
G75*
G02*
X117835000Y-50315000I0J150000D01*
G01*
G37*
%TD*%
%TO.C,U6*%
G36*
G01*
X134215000Y-50315000D02*
X134215000Y-50015000D01*
G75*
G02*
X134365000Y-49865000I150000J0D01*
G01*
X136015000Y-49865000D01*
G75*
G02*
X136165000Y-50015000I0J-150000D01*
G01*
X136165000Y-50315000D01*
G75*
G02*
X136015000Y-50465000I-150000J0D01*
G01*
X134365000Y-50465000D01*
G75*
G02*
X134215000Y-50315000I0J150000D01*
G01*
G37*
G36*
G01*
X134215000Y-51585000D02*
X134215000Y-51285000D01*
G75*
G02*
X134365000Y-51135000I150000J0D01*
G01*
X136015000Y-51135000D01*
G75*
G02*
X136165000Y-51285000I0J-150000D01*
G01*
X136165000Y-51585000D01*
G75*
G02*
X136015000Y-51735000I-150000J0D01*
G01*
X134365000Y-51735000D01*
G75*
G02*
X134215000Y-51585000I0J150000D01*
G01*
G37*
G36*
G01*
X134215000Y-52855000D02*
X134215000Y-52555000D01*
G75*
G02*
X134365000Y-52405000I150000J0D01*
G01*
X136015000Y-52405000D01*
G75*
G02*
X136165000Y-52555000I0J-150000D01*
G01*
X136165000Y-52855000D01*
G75*
G02*
X136015000Y-53005000I-150000J0D01*
G01*
X134365000Y-53005000D01*
G75*
G02*
X134215000Y-52855000I0J150000D01*
G01*
G37*
G36*
G01*
X134215000Y-54125000D02*
X134215000Y-53825000D01*
G75*
G02*
X134365000Y-53675000I150000J0D01*
G01*
X136015000Y-53675000D01*
G75*
G02*
X136165000Y-53825000I0J-150000D01*
G01*
X136165000Y-54125000D01*
G75*
G02*
X136015000Y-54275000I-150000J0D01*
G01*
X134365000Y-54275000D01*
G75*
G02*
X134215000Y-54125000I0J150000D01*
G01*
G37*
G36*
G01*
X134215000Y-55395000D02*
X134215000Y-55095000D01*
G75*
G02*
X134365000Y-54945000I150000J0D01*
G01*
X136015000Y-54945000D01*
G75*
G02*
X136165000Y-55095000I0J-150000D01*
G01*
X136165000Y-55395000D01*
G75*
G02*
X136015000Y-55545000I-150000J0D01*
G01*
X134365000Y-55545000D01*
G75*
G02*
X134215000Y-55395000I0J150000D01*
G01*
G37*
G36*
G01*
X134215000Y-56665000D02*
X134215000Y-56365000D01*
G75*
G02*
X134365000Y-56215000I150000J0D01*
G01*
X136015000Y-56215000D01*
G75*
G02*
X136165000Y-56365000I0J-150000D01*
G01*
X136165000Y-56665000D01*
G75*
G02*
X136015000Y-56815000I-150000J0D01*
G01*
X134365000Y-56815000D01*
G75*
G02*
X134215000Y-56665000I0J150000D01*
G01*
G37*
G36*
G01*
X134215000Y-57935000D02*
X134215000Y-57635000D01*
G75*
G02*
X134365000Y-57485000I150000J0D01*
G01*
X136015000Y-57485000D01*
G75*
G02*
X136165000Y-57635000I0J-150000D01*
G01*
X136165000Y-57935000D01*
G75*
G02*
X136015000Y-58085000I-150000J0D01*
G01*
X134365000Y-58085000D01*
G75*
G02*
X134215000Y-57935000I0J150000D01*
G01*
G37*
G36*
G01*
X134215000Y-59205000D02*
X134215000Y-58905000D01*
G75*
G02*
X134365000Y-58755000I150000J0D01*
G01*
X136015000Y-58755000D01*
G75*
G02*
X136165000Y-58905000I0J-150000D01*
G01*
X136165000Y-59205000D01*
G75*
G02*
X136015000Y-59355000I-150000J0D01*
G01*
X134365000Y-59355000D01*
G75*
G02*
X134215000Y-59205000I0J150000D01*
G01*
G37*
G36*
G01*
X129265000Y-59205000D02*
X129265000Y-58905000D01*
G75*
G02*
X129415000Y-58755000I150000J0D01*
G01*
X131065000Y-58755000D01*
G75*
G02*
X131215000Y-58905000I0J-150000D01*
G01*
X131215000Y-59205000D01*
G75*
G02*
X131065000Y-59355000I-150000J0D01*
G01*
X129415000Y-59355000D01*
G75*
G02*
X129265000Y-59205000I0J150000D01*
G01*
G37*
G36*
G01*
X129265000Y-57935000D02*
X129265000Y-57635000D01*
G75*
G02*
X129415000Y-57485000I150000J0D01*
G01*
X131065000Y-57485000D01*
G75*
G02*
X131215000Y-57635000I0J-150000D01*
G01*
X131215000Y-57935000D01*
G75*
G02*
X131065000Y-58085000I-150000J0D01*
G01*
X129415000Y-58085000D01*
G75*
G02*
X129265000Y-57935000I0J150000D01*
G01*
G37*
G36*
G01*
X129265000Y-56665000D02*
X129265000Y-56365000D01*
G75*
G02*
X129415000Y-56215000I150000J0D01*
G01*
X131065000Y-56215000D01*
G75*
G02*
X131215000Y-56365000I0J-150000D01*
G01*
X131215000Y-56665000D01*
G75*
G02*
X131065000Y-56815000I-150000J0D01*
G01*
X129415000Y-56815000D01*
G75*
G02*
X129265000Y-56665000I0J150000D01*
G01*
G37*
G36*
G01*
X129265000Y-55395000D02*
X129265000Y-55095000D01*
G75*
G02*
X129415000Y-54945000I150000J0D01*
G01*
X131065000Y-54945000D01*
G75*
G02*
X131215000Y-55095000I0J-150000D01*
G01*
X131215000Y-55395000D01*
G75*
G02*
X131065000Y-55545000I-150000J0D01*
G01*
X129415000Y-55545000D01*
G75*
G02*
X129265000Y-55395000I0J150000D01*
G01*
G37*
G36*
G01*
X129265000Y-54125000D02*
X129265000Y-53825000D01*
G75*
G02*
X129415000Y-53675000I150000J0D01*
G01*
X131065000Y-53675000D01*
G75*
G02*
X131215000Y-53825000I0J-150000D01*
G01*
X131215000Y-54125000D01*
G75*
G02*
X131065000Y-54275000I-150000J0D01*
G01*
X129415000Y-54275000D01*
G75*
G02*
X129265000Y-54125000I0J150000D01*
G01*
G37*
G36*
G01*
X129265000Y-52855000D02*
X129265000Y-52555000D01*
G75*
G02*
X129415000Y-52405000I150000J0D01*
G01*
X131065000Y-52405000D01*
G75*
G02*
X131215000Y-52555000I0J-150000D01*
G01*
X131215000Y-52855000D01*
G75*
G02*
X131065000Y-53005000I-150000J0D01*
G01*
X129415000Y-53005000D01*
G75*
G02*
X129265000Y-52855000I0J150000D01*
G01*
G37*
G36*
G01*
X129265000Y-51585000D02*
X129265000Y-51285000D01*
G75*
G02*
X129415000Y-51135000I150000J0D01*
G01*
X131065000Y-51135000D01*
G75*
G02*
X131215000Y-51285000I0J-150000D01*
G01*
X131215000Y-51585000D01*
G75*
G02*
X131065000Y-51735000I-150000J0D01*
G01*
X129415000Y-51735000D01*
G75*
G02*
X129265000Y-51585000I0J150000D01*
G01*
G37*
G36*
G01*
X129265000Y-50315000D02*
X129265000Y-50015000D01*
G75*
G02*
X129415000Y-49865000I150000J0D01*
G01*
X131065000Y-49865000D01*
G75*
G02*
X131215000Y-50015000I0J-150000D01*
G01*
X131215000Y-50315000D01*
G75*
G02*
X131065000Y-50465000I-150000J0D01*
G01*
X129415000Y-50465000D01*
G75*
G02*
X129265000Y-50315000I0J150000D01*
G01*
G37*
%TD*%
M02*
