%TF.GenerationSoftware,KiCad,Pcbnew,(5.1.8)-1*%
%TF.CreationDate,2021-03-08T12:32:49+01:00*%
%TF.ProjectId,Nes Sound Expansion,4e657320-536f-4756-9e64-20457870616e,rev?*%
%TF.SameCoordinates,Original*%
%TF.FileFunction,Legend,Top*%
%TF.FilePolarity,Positive*%
%FSLAX46Y46*%
G04 Gerber Fmt 4.6, Leading zero omitted, Abs format (unit mm)*
G04 Created by KiCad (PCBNEW (5.1.8)-1) date 2021-03-08 12:32:49*
%MOMM*%
%LPD*%
G01*
G04 APERTURE LIST*
%ADD10C,0.120000*%
%ADD11C,0.150000*%
G04 APERTURE END LIST*
D10*
%TO.C,YMF288*%
X90975000Y-86410000D02*
X90730000Y-86410000D01*
X90975000Y-82550000D02*
X90975000Y-86410000D01*
X72855000Y-82550000D02*
X72855000Y-78690000D01*
X90730000Y-78690000D02*
X90730000Y-76875000D01*
X72855000Y-82550000D02*
X72855000Y-86410000D01*
X90975000Y-78690000D02*
X90730000Y-78690000D01*
X72855000Y-78690000D02*
X73100000Y-78690000D01*
X90975000Y-82550000D02*
X90975000Y-78690000D01*
X72855000Y-86410000D02*
X73100000Y-86410000D01*
%TO.C,R7*%
X75665000Y-119962064D02*
X75665000Y-119507936D01*
X74195000Y-119962064D02*
X74195000Y-119507936D01*
%TO.C,R13*%
X71655000Y-44492936D02*
X71655000Y-44947064D01*
X73125000Y-44492936D02*
X73125000Y-44947064D01*
%TO.C,R9*%
X55345000Y-106907064D02*
X55345000Y-106452936D01*
X53875000Y-106907064D02*
X53875000Y-106452936D01*
%TO.C,R10*%
X74395000Y-109812064D02*
X74395000Y-109357936D01*
X72925000Y-109812064D02*
X72925000Y-109357936D01*
%TO.C,R14*%
X92175000Y-40867064D02*
X92175000Y-40412936D01*
X90705000Y-40867064D02*
X90705000Y-40412936D01*
%TO.C,R2*%
X89000000Y-92657064D02*
X89000000Y-92202936D01*
X87530000Y-92657064D02*
X87530000Y-92202936D01*
%TO.C,R12*%
X75465000Y-44492936D02*
X75465000Y-44947064D01*
X76935000Y-44492936D02*
X76935000Y-44947064D01*
%TO.C,R3*%
X85190000Y-92657064D02*
X85190000Y-92202936D01*
X83720000Y-92657064D02*
X83720000Y-92202936D01*
%TO.C,D1*%
X81290000Y-72660000D02*
X76990000Y-72660000D01*
X81290000Y-74660000D02*
X81290000Y-72660000D01*
X76990000Y-74660000D02*
X81290000Y-74660000D01*
%TO.C,R1*%
X92810000Y-92657064D02*
X92810000Y-92202936D01*
X91340000Y-92657064D02*
X91340000Y-92202936D01*
%TO.C,R11*%
X60425000Y-108177064D02*
X60425000Y-107722936D01*
X58955000Y-108177064D02*
X58955000Y-107722936D01*
%TO.C,R8*%
X79475000Y-119962064D02*
X79475000Y-119507936D01*
X78005000Y-119962064D02*
X78005000Y-119507936D01*
%TO.C,R5*%
X87095000Y-119962064D02*
X87095000Y-119507936D01*
X85625000Y-119962064D02*
X85625000Y-119507936D01*
%TO.C,C5*%
X92060000Y-45179469D02*
X92060000Y-44975531D01*
X90820000Y-45179469D02*
X90820000Y-44975531D01*
%TO.C,J6*%
X69140000Y-123740000D02*
X68640000Y-123740000D01*
X63440000Y-123740000D02*
X62940000Y-123740000D01*
X63440000Y-125740000D02*
X63440000Y-123740000D01*
X68640000Y-125740000D02*
X63440000Y-125740000D01*
X68640000Y-123740000D02*
X68640000Y-125740000D01*
X62940000Y-123740000D02*
X62940000Y-122540000D01*
X62940000Y-120590000D02*
X62940000Y-115340000D01*
X62940000Y-113390000D02*
X62940000Y-113090000D01*
X63690000Y-111540000D02*
X69140000Y-111540000D01*
X69140000Y-113590000D02*
X69140000Y-117190000D01*
X69140000Y-119090000D02*
X69140000Y-120590000D01*
X69140000Y-122440000D02*
X69140000Y-123740000D01*
X69140000Y-122440000D02*
X70490000Y-122440000D01*
X69140000Y-120590000D02*
X70490000Y-120590000D01*
%TO.C,C13*%
X81185000Y-107210000D02*
X80685000Y-107210000D01*
X80935000Y-106960000D02*
X80935000Y-107460000D01*
X78179437Y-107700000D02*
X77115000Y-108764437D01*
X80570563Y-107700000D02*
X81635000Y-108764437D01*
X80570563Y-107700000D02*
X80435000Y-107700000D01*
X78179437Y-107700000D02*
X78315000Y-107700000D01*
X77115000Y-108764437D02*
X77115000Y-112220000D01*
X81635000Y-108764437D02*
X81635000Y-112220000D01*
X81635000Y-112220000D02*
X80435000Y-112220000D01*
X77115000Y-112220000D02*
X78315000Y-112220000D01*
%TO.C,C11*%
X82455000Y-99590000D02*
X81955000Y-99590000D01*
X82205000Y-99340000D02*
X82205000Y-99840000D01*
X79449437Y-100080000D02*
X78385000Y-101144437D01*
X81840563Y-100080000D02*
X82905000Y-101144437D01*
X81840563Y-100080000D02*
X81705000Y-100080000D01*
X79449437Y-100080000D02*
X79585000Y-100080000D01*
X78385000Y-101144437D02*
X78385000Y-104600000D01*
X82905000Y-101144437D02*
X82905000Y-104600000D01*
X82905000Y-104600000D02*
X81705000Y-104600000D01*
X78385000Y-104600000D02*
X79585000Y-104600000D01*
%TO.C,R4*%
X58955000Y-96292936D02*
X58955000Y-96747064D01*
X60425000Y-96292936D02*
X60425000Y-96747064D01*
%TO.C,C4*%
X73010000Y-40114469D02*
X73010000Y-39910531D01*
X71770000Y-40114469D02*
X71770000Y-39910531D01*
%TO.C,C3*%
X75580000Y-39910531D02*
X75580000Y-40114469D01*
X76820000Y-39910531D02*
X76820000Y-40114469D01*
%TO.C,C1*%
X73566031Y-74280000D02*
X73769969Y-74280000D01*
X73566031Y-73040000D02*
X73769969Y-73040000D01*
%TO.C,C12*%
X77375000Y-99590000D02*
X76875000Y-99590000D01*
X77125000Y-99340000D02*
X77125000Y-99840000D01*
X74369437Y-100080000D02*
X73305000Y-101144437D01*
X76760563Y-100080000D02*
X77825000Y-101144437D01*
X76760563Y-100080000D02*
X76625000Y-100080000D01*
X74369437Y-100080000D02*
X74505000Y-100080000D01*
X73305000Y-101144437D02*
X73305000Y-104600000D01*
X77825000Y-101144437D02*
X77825000Y-104600000D01*
X77825000Y-104600000D02*
X76625000Y-104600000D01*
X73305000Y-104600000D02*
X74505000Y-104600000D01*
%TO.C,C10*%
X91345000Y-107210000D02*
X90845000Y-107210000D01*
X91095000Y-106960000D02*
X91095000Y-107460000D01*
X88339437Y-107700000D02*
X87275000Y-108764437D01*
X90730563Y-107700000D02*
X91795000Y-108764437D01*
X90730563Y-107700000D02*
X90595000Y-107700000D01*
X88339437Y-107700000D02*
X88475000Y-107700000D01*
X87275000Y-108764437D02*
X87275000Y-112220000D01*
X91795000Y-108764437D02*
X91795000Y-112220000D01*
X91795000Y-112220000D02*
X90595000Y-112220000D01*
X87275000Y-112220000D02*
X88475000Y-112220000D01*
%TO.C,C2*%
X86265000Y-107210000D02*
X85765000Y-107210000D01*
X86015000Y-106960000D02*
X86015000Y-107460000D01*
X83259437Y-107700000D02*
X82195000Y-108764437D01*
X85650563Y-107700000D02*
X86715000Y-108764437D01*
X85650563Y-107700000D02*
X85515000Y-107700000D01*
X83259437Y-107700000D02*
X83395000Y-107700000D01*
X82195000Y-108764437D02*
X82195000Y-112220000D01*
X86715000Y-108764437D02*
X86715000Y-112220000D01*
X86715000Y-112220000D02*
X85515000Y-112220000D01*
X82195000Y-112220000D02*
X83395000Y-112220000D01*
%TO.C,J1*%
X53280000Y-85030000D02*
X54610000Y-85030000D01*
X53280000Y-86360000D02*
X53280000Y-85030000D01*
X53280000Y-87630000D02*
X55940000Y-87630000D01*
X55940000Y-87630000D02*
X55940000Y-102930000D01*
X53280000Y-87630000D02*
X53280000Y-102930000D01*
X53280000Y-102930000D02*
X55940000Y-102930000D01*
%TO.C,U8*%
X81260000Y-66040000D02*
X81260000Y-62590000D01*
X81260000Y-66040000D02*
X81260000Y-67990000D01*
X71140000Y-66040000D02*
X71140000Y-64090000D01*
X71140000Y-66040000D02*
X71140000Y-67990000D01*
%TO.C,U2*%
X83820000Y-38110000D02*
X80370000Y-38110000D01*
X83820000Y-38110000D02*
X85770000Y-38110000D01*
X83820000Y-46980000D02*
X81870000Y-46980000D01*
X83820000Y-46980000D02*
X85770000Y-46980000D01*
%TO.C,U10*%
X55880000Y-52090000D02*
X52430000Y-52090000D01*
X55880000Y-52090000D02*
X57830000Y-52090000D01*
X55880000Y-62210000D02*
X53930000Y-62210000D01*
X55880000Y-62210000D02*
X57830000Y-62210000D01*
%TO.C,U1*%
X55900000Y-41910000D02*
X55900000Y-45360000D01*
X55900000Y-41910000D02*
X55900000Y-39960000D01*
X66020000Y-41910000D02*
X66020000Y-43860000D01*
X66020000Y-41910000D02*
X66020000Y-39960000D01*
%TO.C,BU9480F1*%
X86435000Y-103077500D02*
X86435000Y-104730000D01*
X86152500Y-103077500D02*
X86435000Y-103077500D01*
X86152500Y-100330000D02*
X86152500Y-103077500D01*
X86152500Y-97582500D02*
X86435000Y-97582500D01*
X86152500Y-100330000D02*
X86152500Y-97582500D01*
X91647500Y-103077500D02*
X91365000Y-103077500D01*
X91647500Y-100330000D02*
X91647500Y-103077500D01*
X91647500Y-97582500D02*
X91365000Y-97582500D01*
X91647500Y-100330000D02*
X91647500Y-97582500D01*
%TO.C,U9*%
X92690000Y-66040000D02*
X92690000Y-62590000D01*
X92690000Y-66040000D02*
X92690000Y-67990000D01*
X82570000Y-66040000D02*
X82570000Y-64090000D01*
X82570000Y-66040000D02*
X82570000Y-67990000D01*
%TO.C,U7*%
X76835000Y-49550000D02*
X73385000Y-49550000D01*
X76835000Y-49550000D02*
X78785000Y-49550000D01*
X76835000Y-59670000D02*
X74885000Y-59670000D01*
X76835000Y-59670000D02*
X78785000Y-59670000D01*
%TO.C,U6*%
X88265000Y-49550000D02*
X84815000Y-49550000D01*
X88265000Y-49550000D02*
X90215000Y-49550000D01*
X88265000Y-59670000D02*
X86315000Y-59670000D01*
X88265000Y-59670000D02*
X90215000Y-59670000D01*
%TO.C,J7*%
X53280000Y-110430000D02*
X54610000Y-110430000D01*
X53280000Y-111760000D02*
X53280000Y-110430000D01*
X53280000Y-113030000D02*
X55940000Y-113030000D01*
X55940000Y-113030000D02*
X55940000Y-115630000D01*
X53280000Y-113030000D02*
X53280000Y-115630000D01*
X53280000Y-115630000D02*
X55940000Y-115630000D01*
%TO.C,J2*%
X55940000Y-82610000D02*
X54610000Y-82610000D01*
X55940000Y-81280000D02*
X55940000Y-82610000D01*
X55940000Y-80010000D02*
X53280000Y-80010000D01*
X53280000Y-80010000D02*
X53280000Y-64710000D01*
X55940000Y-80010000D02*
X55940000Y-64710000D01*
X55940000Y-64710000D02*
X53280000Y-64710000D01*
%TO.C,J5*%
X53280000Y-116780000D02*
X54610000Y-116780000D01*
X53280000Y-118110000D02*
X53280000Y-116780000D01*
X53280000Y-119380000D02*
X55940000Y-119380000D01*
X55940000Y-119380000D02*
X55940000Y-121980000D01*
X53280000Y-119380000D02*
X53280000Y-121980000D01*
X53280000Y-121980000D02*
X55940000Y-121980000D01*
%TO.C,X1*%
X74710000Y-92450000D02*
X73110000Y-92450000D01*
X74710000Y-95330000D02*
X74710000Y-92450000D01*
X80110000Y-92450000D02*
X80110000Y-95330000D01*
X78310000Y-97590000D02*
X76510000Y-97590000D01*
X76510000Y-90190000D02*
X78310000Y-90190000D01*
X76510000Y-89950000D02*
X76510000Y-90190000D01*
%TO.C,R6*%
X83285000Y-119962064D02*
X83285000Y-119507936D01*
X81815000Y-119962064D02*
X81815000Y-119507936D01*
%TO.C,YMF288*%
X135425000Y-86410000D02*
X135180000Y-86410000D01*
X135425000Y-82550000D02*
X135425000Y-86410000D01*
X117305000Y-82550000D02*
X117305000Y-78690000D01*
X135180000Y-78690000D02*
X135180000Y-76875000D01*
X117305000Y-82550000D02*
X117305000Y-86410000D01*
X135425000Y-78690000D02*
X135180000Y-78690000D01*
X117305000Y-78690000D02*
X117550000Y-78690000D01*
X135425000Y-82550000D02*
X135425000Y-78690000D01*
X117305000Y-86410000D02*
X117550000Y-86410000D01*
%TO.C,X1*%
X119160000Y-92450000D02*
X117560000Y-92450000D01*
X119160000Y-95330000D02*
X119160000Y-92450000D01*
X124560000Y-92450000D02*
X124560000Y-95330000D01*
X122760000Y-97590000D02*
X120960000Y-97590000D01*
X120960000Y-90190000D02*
X122760000Y-90190000D01*
X120960000Y-89950000D02*
X120960000Y-90190000D01*
%TO.C,D1*%
X125740000Y-72660000D02*
X121440000Y-72660000D01*
X125740000Y-74660000D02*
X125740000Y-72660000D01*
X121440000Y-74660000D02*
X125740000Y-74660000D01*
%TO.C,R3*%
X129640000Y-92657064D02*
X129640000Y-92202936D01*
X128170000Y-92657064D02*
X128170000Y-92202936D01*
%TO.C,R2*%
X133450000Y-92657064D02*
X133450000Y-92202936D01*
X131980000Y-92657064D02*
X131980000Y-92202936D01*
%TO.C,R1*%
X137260000Y-92657064D02*
X137260000Y-92202936D01*
X135790000Y-92657064D02*
X135790000Y-92202936D01*
%TO.C,R14*%
X136625000Y-40867064D02*
X136625000Y-40412936D01*
X135155000Y-40867064D02*
X135155000Y-40412936D01*
%TO.C,R13*%
X116105000Y-44492936D02*
X116105000Y-44947064D01*
X117575000Y-44492936D02*
X117575000Y-44947064D01*
%TO.C,R12*%
X119915000Y-44492936D02*
X119915000Y-44947064D01*
X121385000Y-44492936D02*
X121385000Y-44947064D01*
%TO.C,R11*%
X104875000Y-108177064D02*
X104875000Y-107722936D01*
X103405000Y-108177064D02*
X103405000Y-107722936D01*
%TO.C,R10*%
X118845000Y-109812064D02*
X118845000Y-109357936D01*
X117375000Y-109812064D02*
X117375000Y-109357936D01*
%TO.C,R9*%
X99795000Y-106907064D02*
X99795000Y-106452936D01*
X98325000Y-106907064D02*
X98325000Y-106452936D01*
%TO.C,R8*%
X123925000Y-119962064D02*
X123925000Y-119507936D01*
X122455000Y-119962064D02*
X122455000Y-119507936D01*
%TO.C,R7*%
X120115000Y-119962064D02*
X120115000Y-119507936D01*
X118645000Y-119962064D02*
X118645000Y-119507936D01*
%TO.C,R6*%
X127735000Y-119962064D02*
X127735000Y-119507936D01*
X126265000Y-119962064D02*
X126265000Y-119507936D01*
%TO.C,R5*%
X131545000Y-119962064D02*
X131545000Y-119507936D01*
X130075000Y-119962064D02*
X130075000Y-119507936D01*
%TO.C,R4*%
X103405000Y-96292936D02*
X103405000Y-96747064D01*
X104875000Y-96292936D02*
X104875000Y-96747064D01*
%TO.C,C5*%
X136510000Y-45179469D02*
X136510000Y-44975531D01*
X135270000Y-45179469D02*
X135270000Y-44975531D01*
%TO.C,C4*%
X117460000Y-40114469D02*
X117460000Y-39910531D01*
X116220000Y-40114469D02*
X116220000Y-39910531D01*
%TO.C,C3*%
X120030000Y-39910531D02*
X120030000Y-40114469D01*
X121270000Y-39910531D02*
X121270000Y-40114469D01*
%TO.C,C1*%
X118016031Y-74280000D02*
X118219969Y-74280000D01*
X118016031Y-73040000D02*
X118219969Y-73040000D01*
%TO.C,C13*%
X125635000Y-107210000D02*
X125135000Y-107210000D01*
X125385000Y-106960000D02*
X125385000Y-107460000D01*
X122629437Y-107700000D02*
X121565000Y-108764437D01*
X125020563Y-107700000D02*
X126085000Y-108764437D01*
X125020563Y-107700000D02*
X124885000Y-107700000D01*
X122629437Y-107700000D02*
X122765000Y-107700000D01*
X121565000Y-108764437D02*
X121565000Y-112220000D01*
X126085000Y-108764437D02*
X126085000Y-112220000D01*
X126085000Y-112220000D02*
X124885000Y-112220000D01*
X121565000Y-112220000D02*
X122765000Y-112220000D01*
%TO.C,C12*%
X121825000Y-99590000D02*
X121325000Y-99590000D01*
X121575000Y-99340000D02*
X121575000Y-99840000D01*
X118819437Y-100080000D02*
X117755000Y-101144437D01*
X121210563Y-100080000D02*
X122275000Y-101144437D01*
X121210563Y-100080000D02*
X121075000Y-100080000D01*
X118819437Y-100080000D02*
X118955000Y-100080000D01*
X117755000Y-101144437D02*
X117755000Y-104600000D01*
X122275000Y-101144437D02*
X122275000Y-104600000D01*
X122275000Y-104600000D02*
X121075000Y-104600000D01*
X117755000Y-104600000D02*
X118955000Y-104600000D01*
%TO.C,C11*%
X126905000Y-99590000D02*
X126405000Y-99590000D01*
X126655000Y-99340000D02*
X126655000Y-99840000D01*
X123899437Y-100080000D02*
X122835000Y-101144437D01*
X126290563Y-100080000D02*
X127355000Y-101144437D01*
X126290563Y-100080000D02*
X126155000Y-100080000D01*
X123899437Y-100080000D02*
X124035000Y-100080000D01*
X122835000Y-101144437D02*
X122835000Y-104600000D01*
X127355000Y-101144437D02*
X127355000Y-104600000D01*
X127355000Y-104600000D02*
X126155000Y-104600000D01*
X122835000Y-104600000D02*
X124035000Y-104600000D01*
%TO.C,C10*%
X135795000Y-107210000D02*
X135295000Y-107210000D01*
X135545000Y-106960000D02*
X135545000Y-107460000D01*
X132789437Y-107700000D02*
X131725000Y-108764437D01*
X135180563Y-107700000D02*
X136245000Y-108764437D01*
X135180563Y-107700000D02*
X135045000Y-107700000D01*
X132789437Y-107700000D02*
X132925000Y-107700000D01*
X131725000Y-108764437D02*
X131725000Y-112220000D01*
X136245000Y-108764437D02*
X136245000Y-112220000D01*
X136245000Y-112220000D02*
X135045000Y-112220000D01*
X131725000Y-112220000D02*
X132925000Y-112220000D01*
%TO.C,C2*%
X130715000Y-107210000D02*
X130215000Y-107210000D01*
X130465000Y-106960000D02*
X130465000Y-107460000D01*
X127709437Y-107700000D02*
X126645000Y-108764437D01*
X130100563Y-107700000D02*
X131165000Y-108764437D01*
X130100563Y-107700000D02*
X129965000Y-107700000D01*
X127709437Y-107700000D02*
X127845000Y-107700000D01*
X126645000Y-108764437D02*
X126645000Y-112220000D01*
X131165000Y-108764437D02*
X131165000Y-112220000D01*
X131165000Y-112220000D02*
X129965000Y-112220000D01*
X126645000Y-112220000D02*
X127845000Y-112220000D01*
%TO.C,J6*%
X113590000Y-123740000D02*
X113090000Y-123740000D01*
X107890000Y-123740000D02*
X107390000Y-123740000D01*
X107890000Y-125740000D02*
X107890000Y-123740000D01*
X113090000Y-125740000D02*
X107890000Y-125740000D01*
X113090000Y-123740000D02*
X113090000Y-125740000D01*
X107390000Y-123740000D02*
X107390000Y-122540000D01*
X107390000Y-120590000D02*
X107390000Y-115340000D01*
X107390000Y-113390000D02*
X107390000Y-113090000D01*
X108140000Y-111540000D02*
X113590000Y-111540000D01*
X113590000Y-113590000D02*
X113590000Y-117190000D01*
X113590000Y-119090000D02*
X113590000Y-120590000D01*
X113590000Y-122440000D02*
X113590000Y-123740000D01*
X113590000Y-122440000D02*
X114940000Y-122440000D01*
X113590000Y-120590000D02*
X114940000Y-120590000D01*
%TO.C,J2*%
X100390000Y-82610000D02*
X99060000Y-82610000D01*
X100390000Y-81280000D02*
X100390000Y-82610000D01*
X100390000Y-80010000D02*
X97730000Y-80010000D01*
X97730000Y-80010000D02*
X97730000Y-64710000D01*
X100390000Y-80010000D02*
X100390000Y-64710000D01*
X100390000Y-64710000D02*
X97730000Y-64710000D01*
%TO.C,J1*%
X97730000Y-85030000D02*
X99060000Y-85030000D01*
X97730000Y-86360000D02*
X97730000Y-85030000D01*
X97730000Y-87630000D02*
X100390000Y-87630000D01*
X100390000Y-87630000D02*
X100390000Y-102930000D01*
X97730000Y-87630000D02*
X97730000Y-102930000D01*
X97730000Y-102930000D02*
X100390000Y-102930000D01*
%TO.C,U2*%
X128270000Y-38110000D02*
X124820000Y-38110000D01*
X128270000Y-38110000D02*
X130220000Y-38110000D01*
X128270000Y-46980000D02*
X126320000Y-46980000D01*
X128270000Y-46980000D02*
X130220000Y-46980000D01*
%TO.C,BU9480F1*%
X130885000Y-103077500D02*
X130885000Y-104730000D01*
X130602500Y-103077500D02*
X130885000Y-103077500D01*
X130602500Y-100330000D02*
X130602500Y-103077500D01*
X130602500Y-97582500D02*
X130885000Y-97582500D01*
X130602500Y-100330000D02*
X130602500Y-97582500D01*
X136097500Y-103077500D02*
X135815000Y-103077500D01*
X136097500Y-100330000D02*
X136097500Y-103077500D01*
X136097500Y-97582500D02*
X135815000Y-97582500D01*
X136097500Y-100330000D02*
X136097500Y-97582500D01*
%TO.C,U1*%
X100350000Y-41910000D02*
X100350000Y-45360000D01*
X100350000Y-41910000D02*
X100350000Y-39960000D01*
X110470000Y-41910000D02*
X110470000Y-43860000D01*
X110470000Y-41910000D02*
X110470000Y-39960000D01*
%TO.C,U10*%
X100330000Y-52090000D02*
X96880000Y-52090000D01*
X100330000Y-52090000D02*
X102280000Y-52090000D01*
X100330000Y-62210000D02*
X98380000Y-62210000D01*
X100330000Y-62210000D02*
X102280000Y-62210000D01*
%TO.C,U9*%
X137140000Y-66040000D02*
X137140000Y-62590000D01*
X137140000Y-66040000D02*
X137140000Y-67990000D01*
X127020000Y-66040000D02*
X127020000Y-64090000D01*
X127020000Y-66040000D02*
X127020000Y-67990000D01*
%TO.C,U8*%
X125710000Y-66040000D02*
X125710000Y-62590000D01*
X125710000Y-66040000D02*
X125710000Y-67990000D01*
X115590000Y-66040000D02*
X115590000Y-64090000D01*
X115590000Y-66040000D02*
X115590000Y-67990000D01*
%TO.C,U7*%
X121285000Y-49550000D02*
X117835000Y-49550000D01*
X121285000Y-49550000D02*
X123235000Y-49550000D01*
X121285000Y-59670000D02*
X119335000Y-59670000D01*
X121285000Y-59670000D02*
X123235000Y-59670000D01*
%TO.C,U6*%
X132715000Y-49550000D02*
X129265000Y-49550000D01*
X132715000Y-49550000D02*
X134665000Y-49550000D01*
X132715000Y-59670000D02*
X130765000Y-59670000D01*
X132715000Y-59670000D02*
X134665000Y-59670000D01*
%TO.C,J7*%
X97730000Y-110430000D02*
X99060000Y-110430000D01*
X97730000Y-111760000D02*
X97730000Y-110430000D01*
X97730000Y-113030000D02*
X100390000Y-113030000D01*
X100390000Y-113030000D02*
X100390000Y-115630000D01*
X97730000Y-113030000D02*
X97730000Y-115630000D01*
X97730000Y-115630000D02*
X100390000Y-115630000D01*
%TO.C,J5*%
X97730000Y-116780000D02*
X99060000Y-116780000D01*
X97730000Y-118110000D02*
X97730000Y-116780000D01*
X97730000Y-119380000D02*
X100390000Y-119380000D01*
X100390000Y-119380000D02*
X100390000Y-121980000D01*
X97730000Y-119380000D02*
X97730000Y-121980000D01*
X97730000Y-121980000D02*
X100390000Y-121980000D01*
%TO.C,YMF288*%
D11*
X92051190Y-84978571D02*
X92527380Y-84978571D01*
X91527380Y-85311904D02*
X92051190Y-84978571D01*
X91527380Y-84645238D01*
X92527380Y-84311904D02*
X91527380Y-84311904D01*
X92241666Y-83978571D01*
X91527380Y-83645238D01*
X92527380Y-83645238D01*
X92003571Y-82835714D02*
X92003571Y-83169047D01*
X92527380Y-83169047D02*
X91527380Y-83169047D01*
X91527380Y-82692857D01*
X91622619Y-82359523D02*
X91575000Y-82311904D01*
X91527380Y-82216666D01*
X91527380Y-81978571D01*
X91575000Y-81883333D01*
X91622619Y-81835714D01*
X91717857Y-81788095D01*
X91813095Y-81788095D01*
X91955952Y-81835714D01*
X92527380Y-82407142D01*
X92527380Y-81788095D01*
X91955952Y-81216666D02*
X91908333Y-81311904D01*
X91860714Y-81359523D01*
X91765476Y-81407142D01*
X91717857Y-81407142D01*
X91622619Y-81359523D01*
X91575000Y-81311904D01*
X91527380Y-81216666D01*
X91527380Y-81026190D01*
X91575000Y-80930952D01*
X91622619Y-80883333D01*
X91717857Y-80835714D01*
X91765476Y-80835714D01*
X91860714Y-80883333D01*
X91908333Y-80930952D01*
X91955952Y-81026190D01*
X91955952Y-81216666D01*
X92003571Y-81311904D01*
X92051190Y-81359523D01*
X92146428Y-81407142D01*
X92336904Y-81407142D01*
X92432142Y-81359523D01*
X92479761Y-81311904D01*
X92527380Y-81216666D01*
X92527380Y-81026190D01*
X92479761Y-80930952D01*
X92432142Y-80883333D01*
X92336904Y-80835714D01*
X92146428Y-80835714D01*
X92051190Y-80883333D01*
X92003571Y-80930952D01*
X91955952Y-81026190D01*
X91955952Y-80264285D02*
X91908333Y-80359523D01*
X91860714Y-80407142D01*
X91765476Y-80454761D01*
X91717857Y-80454761D01*
X91622619Y-80407142D01*
X91575000Y-80359523D01*
X91527380Y-80264285D01*
X91527380Y-80073809D01*
X91575000Y-79978571D01*
X91622619Y-79930952D01*
X91717857Y-79883333D01*
X91765476Y-79883333D01*
X91860714Y-79930952D01*
X91908333Y-79978571D01*
X91955952Y-80073809D01*
X91955952Y-80264285D01*
X92003571Y-80359523D01*
X92051190Y-80407142D01*
X92146428Y-80454761D01*
X92336904Y-80454761D01*
X92432142Y-80407142D01*
X92479761Y-80359523D01*
X92527380Y-80264285D01*
X92527380Y-80073809D01*
X92479761Y-79978571D01*
X92432142Y-79930952D01*
X92336904Y-79883333D01*
X92146428Y-79883333D01*
X92051190Y-79930952D01*
X92003571Y-79978571D01*
X91955952Y-80073809D01*
%TO.C,R7*%
X73732380Y-119901666D02*
X73256190Y-120235000D01*
X73732380Y-120473095D02*
X72732380Y-120473095D01*
X72732380Y-120092142D01*
X72780000Y-119996904D01*
X72827619Y-119949285D01*
X72922857Y-119901666D01*
X73065714Y-119901666D01*
X73160952Y-119949285D01*
X73208571Y-119996904D01*
X73256190Y-120092142D01*
X73256190Y-120473095D01*
X72732380Y-119568333D02*
X72732380Y-118901666D01*
X73732380Y-119330238D01*
%TO.C,R13*%
X74492380Y-45362857D02*
X74016190Y-45696190D01*
X74492380Y-45934285D02*
X73492380Y-45934285D01*
X73492380Y-45553333D01*
X73540000Y-45458095D01*
X73587619Y-45410476D01*
X73682857Y-45362857D01*
X73825714Y-45362857D01*
X73920952Y-45410476D01*
X73968571Y-45458095D01*
X74016190Y-45553333D01*
X74016190Y-45934285D01*
X74492380Y-44410476D02*
X74492380Y-44981904D01*
X74492380Y-44696190D02*
X73492380Y-44696190D01*
X73635238Y-44791428D01*
X73730476Y-44886666D01*
X73778095Y-44981904D01*
X73492380Y-44077142D02*
X73492380Y-43458095D01*
X73873333Y-43791428D01*
X73873333Y-43648571D01*
X73920952Y-43553333D01*
X73968571Y-43505714D01*
X74063809Y-43458095D01*
X74301904Y-43458095D01*
X74397142Y-43505714D01*
X74444761Y-43553333D01*
X74492380Y-43648571D01*
X74492380Y-43934285D01*
X74444761Y-44029523D01*
X74397142Y-44077142D01*
%TO.C,R9*%
X53412380Y-106846666D02*
X52936190Y-107180000D01*
X53412380Y-107418095D02*
X52412380Y-107418095D01*
X52412380Y-107037142D01*
X52460000Y-106941904D01*
X52507619Y-106894285D01*
X52602857Y-106846666D01*
X52745714Y-106846666D01*
X52840952Y-106894285D01*
X52888571Y-106941904D01*
X52936190Y-107037142D01*
X52936190Y-107418095D01*
X53412380Y-106370476D02*
X53412380Y-106180000D01*
X53364761Y-106084761D01*
X53317142Y-106037142D01*
X53174285Y-105941904D01*
X52983809Y-105894285D01*
X52602857Y-105894285D01*
X52507619Y-105941904D01*
X52460000Y-105989523D01*
X52412380Y-106084761D01*
X52412380Y-106275238D01*
X52460000Y-106370476D01*
X52507619Y-106418095D01*
X52602857Y-106465714D01*
X52840952Y-106465714D01*
X52936190Y-106418095D01*
X52983809Y-106370476D01*
X53031428Y-106275238D01*
X53031428Y-106084761D01*
X52983809Y-105989523D01*
X52936190Y-105941904D01*
X52840952Y-105894285D01*
%TO.C,R10*%
X72462380Y-110227857D02*
X71986190Y-110561190D01*
X72462380Y-110799285D02*
X71462380Y-110799285D01*
X71462380Y-110418333D01*
X71510000Y-110323095D01*
X71557619Y-110275476D01*
X71652857Y-110227857D01*
X71795714Y-110227857D01*
X71890952Y-110275476D01*
X71938571Y-110323095D01*
X71986190Y-110418333D01*
X71986190Y-110799285D01*
X72462380Y-109275476D02*
X72462380Y-109846904D01*
X72462380Y-109561190D02*
X71462380Y-109561190D01*
X71605238Y-109656428D01*
X71700476Y-109751666D01*
X71748095Y-109846904D01*
X71462380Y-108656428D02*
X71462380Y-108561190D01*
X71510000Y-108465952D01*
X71557619Y-108418333D01*
X71652857Y-108370714D01*
X71843333Y-108323095D01*
X72081428Y-108323095D01*
X72271904Y-108370714D01*
X72367142Y-108418333D01*
X72414761Y-108465952D01*
X72462380Y-108561190D01*
X72462380Y-108656428D01*
X72414761Y-108751666D01*
X72367142Y-108799285D01*
X72271904Y-108846904D01*
X72081428Y-108894523D01*
X71843333Y-108894523D01*
X71652857Y-108846904D01*
X71557619Y-108799285D01*
X71510000Y-108751666D01*
X71462380Y-108656428D01*
%TO.C,R14*%
X90242380Y-41282857D02*
X89766190Y-41616190D01*
X90242380Y-41854285D02*
X89242380Y-41854285D01*
X89242380Y-41473333D01*
X89290000Y-41378095D01*
X89337619Y-41330476D01*
X89432857Y-41282857D01*
X89575714Y-41282857D01*
X89670952Y-41330476D01*
X89718571Y-41378095D01*
X89766190Y-41473333D01*
X89766190Y-41854285D01*
X90242380Y-40330476D02*
X90242380Y-40901904D01*
X90242380Y-40616190D02*
X89242380Y-40616190D01*
X89385238Y-40711428D01*
X89480476Y-40806666D01*
X89528095Y-40901904D01*
X89575714Y-39473333D02*
X90242380Y-39473333D01*
X89194761Y-39711428D02*
X89909047Y-39949523D01*
X89909047Y-39330476D01*
%TO.C,R2*%
X87067380Y-92596666D02*
X86591190Y-92930000D01*
X87067380Y-93168095D02*
X86067380Y-93168095D01*
X86067380Y-92787142D01*
X86115000Y-92691904D01*
X86162619Y-92644285D01*
X86257857Y-92596666D01*
X86400714Y-92596666D01*
X86495952Y-92644285D01*
X86543571Y-92691904D01*
X86591190Y-92787142D01*
X86591190Y-93168095D01*
X86162619Y-92215714D02*
X86115000Y-92168095D01*
X86067380Y-92072857D01*
X86067380Y-91834761D01*
X86115000Y-91739523D01*
X86162619Y-91691904D01*
X86257857Y-91644285D01*
X86353095Y-91644285D01*
X86495952Y-91691904D01*
X87067380Y-92263333D01*
X87067380Y-91644285D01*
%TO.C,R12*%
X78302380Y-45362857D02*
X77826190Y-45696190D01*
X78302380Y-45934285D02*
X77302380Y-45934285D01*
X77302380Y-45553333D01*
X77350000Y-45458095D01*
X77397619Y-45410476D01*
X77492857Y-45362857D01*
X77635714Y-45362857D01*
X77730952Y-45410476D01*
X77778571Y-45458095D01*
X77826190Y-45553333D01*
X77826190Y-45934285D01*
X78302380Y-44410476D02*
X78302380Y-44981904D01*
X78302380Y-44696190D02*
X77302380Y-44696190D01*
X77445238Y-44791428D01*
X77540476Y-44886666D01*
X77588095Y-44981904D01*
X77397619Y-44029523D02*
X77350000Y-43981904D01*
X77302380Y-43886666D01*
X77302380Y-43648571D01*
X77350000Y-43553333D01*
X77397619Y-43505714D01*
X77492857Y-43458095D01*
X77588095Y-43458095D01*
X77730952Y-43505714D01*
X78302380Y-44077142D01*
X78302380Y-43458095D01*
%TO.C,R3*%
X83257380Y-92596666D02*
X82781190Y-92930000D01*
X83257380Y-93168095D02*
X82257380Y-93168095D01*
X82257380Y-92787142D01*
X82305000Y-92691904D01*
X82352619Y-92644285D01*
X82447857Y-92596666D01*
X82590714Y-92596666D01*
X82685952Y-92644285D01*
X82733571Y-92691904D01*
X82781190Y-92787142D01*
X82781190Y-93168095D01*
X82257380Y-92263333D02*
X82257380Y-91644285D01*
X82638333Y-91977619D01*
X82638333Y-91834761D01*
X82685952Y-91739523D01*
X82733571Y-91691904D01*
X82828809Y-91644285D01*
X83066904Y-91644285D01*
X83162142Y-91691904D01*
X83209761Y-91739523D01*
X83257380Y-91834761D01*
X83257380Y-92120476D01*
X83209761Y-92215714D01*
X83162142Y-92263333D01*
%TO.C,D1*%
X78001904Y-76112380D02*
X78001904Y-75112380D01*
X78240000Y-75112380D01*
X78382857Y-75160000D01*
X78478095Y-75255238D01*
X78525714Y-75350476D01*
X78573333Y-75540952D01*
X78573333Y-75683809D01*
X78525714Y-75874285D01*
X78478095Y-75969523D01*
X78382857Y-76064761D01*
X78240000Y-76112380D01*
X78001904Y-76112380D01*
X79525714Y-76112380D02*
X78954285Y-76112380D01*
X79240000Y-76112380D02*
X79240000Y-75112380D01*
X79144761Y-75255238D01*
X79049523Y-75350476D01*
X78954285Y-75398095D01*
%TO.C,R1*%
X90877380Y-92596666D02*
X90401190Y-92930000D01*
X90877380Y-93168095D02*
X89877380Y-93168095D01*
X89877380Y-92787142D01*
X89925000Y-92691904D01*
X89972619Y-92644285D01*
X90067857Y-92596666D01*
X90210714Y-92596666D01*
X90305952Y-92644285D01*
X90353571Y-92691904D01*
X90401190Y-92787142D01*
X90401190Y-93168095D01*
X90877380Y-91644285D02*
X90877380Y-92215714D01*
X90877380Y-91930000D02*
X89877380Y-91930000D01*
X90020238Y-92025238D01*
X90115476Y-92120476D01*
X90163095Y-92215714D01*
%TO.C,R11*%
X58492380Y-108592857D02*
X58016190Y-108926190D01*
X58492380Y-109164285D02*
X57492380Y-109164285D01*
X57492380Y-108783333D01*
X57540000Y-108688095D01*
X57587619Y-108640476D01*
X57682857Y-108592857D01*
X57825714Y-108592857D01*
X57920952Y-108640476D01*
X57968571Y-108688095D01*
X58016190Y-108783333D01*
X58016190Y-109164285D01*
X58492380Y-107640476D02*
X58492380Y-108211904D01*
X58492380Y-107926190D02*
X57492380Y-107926190D01*
X57635238Y-108021428D01*
X57730476Y-108116666D01*
X57778095Y-108211904D01*
X58492380Y-106688095D02*
X58492380Y-107259523D01*
X58492380Y-106973809D02*
X57492380Y-106973809D01*
X57635238Y-107069047D01*
X57730476Y-107164285D01*
X57778095Y-107259523D01*
%TO.C,R8*%
X77542380Y-119901666D02*
X77066190Y-120235000D01*
X77542380Y-120473095D02*
X76542380Y-120473095D01*
X76542380Y-120092142D01*
X76590000Y-119996904D01*
X76637619Y-119949285D01*
X76732857Y-119901666D01*
X76875714Y-119901666D01*
X76970952Y-119949285D01*
X77018571Y-119996904D01*
X77066190Y-120092142D01*
X77066190Y-120473095D01*
X76970952Y-119330238D02*
X76923333Y-119425476D01*
X76875714Y-119473095D01*
X76780476Y-119520714D01*
X76732857Y-119520714D01*
X76637619Y-119473095D01*
X76590000Y-119425476D01*
X76542380Y-119330238D01*
X76542380Y-119139761D01*
X76590000Y-119044523D01*
X76637619Y-118996904D01*
X76732857Y-118949285D01*
X76780476Y-118949285D01*
X76875714Y-118996904D01*
X76923333Y-119044523D01*
X76970952Y-119139761D01*
X76970952Y-119330238D01*
X77018571Y-119425476D01*
X77066190Y-119473095D01*
X77161428Y-119520714D01*
X77351904Y-119520714D01*
X77447142Y-119473095D01*
X77494761Y-119425476D01*
X77542380Y-119330238D01*
X77542380Y-119139761D01*
X77494761Y-119044523D01*
X77447142Y-118996904D01*
X77351904Y-118949285D01*
X77161428Y-118949285D01*
X77066190Y-118996904D01*
X77018571Y-119044523D01*
X76970952Y-119139761D01*
%TO.C,R5*%
X85162380Y-119901666D02*
X84686190Y-120235000D01*
X85162380Y-120473095D02*
X84162380Y-120473095D01*
X84162380Y-120092142D01*
X84210000Y-119996904D01*
X84257619Y-119949285D01*
X84352857Y-119901666D01*
X84495714Y-119901666D01*
X84590952Y-119949285D01*
X84638571Y-119996904D01*
X84686190Y-120092142D01*
X84686190Y-120473095D01*
X84162380Y-118996904D02*
X84162380Y-119473095D01*
X84638571Y-119520714D01*
X84590952Y-119473095D01*
X84543333Y-119377857D01*
X84543333Y-119139761D01*
X84590952Y-119044523D01*
X84638571Y-118996904D01*
X84733809Y-118949285D01*
X84971904Y-118949285D01*
X85067142Y-118996904D01*
X85114761Y-119044523D01*
X85162380Y-119139761D01*
X85162380Y-119377857D01*
X85114761Y-119473095D01*
X85067142Y-119520714D01*
%TO.C,C5*%
X90307142Y-45244166D02*
X90354761Y-45291785D01*
X90402380Y-45434642D01*
X90402380Y-45529880D01*
X90354761Y-45672738D01*
X90259523Y-45767976D01*
X90164285Y-45815595D01*
X89973809Y-45863214D01*
X89830952Y-45863214D01*
X89640476Y-45815595D01*
X89545238Y-45767976D01*
X89450000Y-45672738D01*
X89402380Y-45529880D01*
X89402380Y-45434642D01*
X89450000Y-45291785D01*
X89497619Y-45244166D01*
X89402380Y-44339404D02*
X89402380Y-44815595D01*
X89878571Y-44863214D01*
X89830952Y-44815595D01*
X89783333Y-44720357D01*
X89783333Y-44482261D01*
X89830952Y-44387023D01*
X89878571Y-44339404D01*
X89973809Y-44291785D01*
X90211904Y-44291785D01*
X90307142Y-44339404D01*
X90354761Y-44387023D01*
X90402380Y-44482261D01*
X90402380Y-44720357D01*
X90354761Y-44815595D01*
X90307142Y-44863214D01*
%TO.C,J6*%
X65706666Y-126452380D02*
X65706666Y-127166666D01*
X65659047Y-127309523D01*
X65563809Y-127404761D01*
X65420952Y-127452380D01*
X65325714Y-127452380D01*
X66611428Y-126452380D02*
X66420952Y-126452380D01*
X66325714Y-126500000D01*
X66278095Y-126547619D01*
X66182857Y-126690476D01*
X66135238Y-126880952D01*
X66135238Y-127261904D01*
X66182857Y-127357142D01*
X66230476Y-127404761D01*
X66325714Y-127452380D01*
X66516190Y-127452380D01*
X66611428Y-127404761D01*
X66659047Y-127357142D01*
X66706666Y-127261904D01*
X66706666Y-127023809D01*
X66659047Y-126928571D01*
X66611428Y-126880952D01*
X66516190Y-126833333D01*
X66325714Y-126833333D01*
X66230476Y-126880952D01*
X66182857Y-126928571D01*
X66135238Y-127023809D01*
%TO.C,C13*%
X82932142Y-110602857D02*
X82979761Y-110650476D01*
X83027380Y-110793333D01*
X83027380Y-110888571D01*
X82979761Y-111031428D01*
X82884523Y-111126666D01*
X82789285Y-111174285D01*
X82598809Y-111221904D01*
X82455952Y-111221904D01*
X82265476Y-111174285D01*
X82170238Y-111126666D01*
X82075000Y-111031428D01*
X82027380Y-110888571D01*
X82027380Y-110793333D01*
X82075000Y-110650476D01*
X82122619Y-110602857D01*
X83027380Y-109650476D02*
X83027380Y-110221904D01*
X83027380Y-109936190D02*
X82027380Y-109936190D01*
X82170238Y-110031428D01*
X82265476Y-110126666D01*
X82313095Y-110221904D01*
X82027380Y-109317142D02*
X82027380Y-108698095D01*
X82408333Y-109031428D01*
X82408333Y-108888571D01*
X82455952Y-108793333D01*
X82503571Y-108745714D01*
X82598809Y-108698095D01*
X82836904Y-108698095D01*
X82932142Y-108745714D01*
X82979761Y-108793333D01*
X83027380Y-108888571D01*
X83027380Y-109174285D01*
X82979761Y-109269523D01*
X82932142Y-109317142D01*
%TO.C,C11*%
X84202142Y-102982857D02*
X84249761Y-103030476D01*
X84297380Y-103173333D01*
X84297380Y-103268571D01*
X84249761Y-103411428D01*
X84154523Y-103506666D01*
X84059285Y-103554285D01*
X83868809Y-103601904D01*
X83725952Y-103601904D01*
X83535476Y-103554285D01*
X83440238Y-103506666D01*
X83345000Y-103411428D01*
X83297380Y-103268571D01*
X83297380Y-103173333D01*
X83345000Y-103030476D01*
X83392619Y-102982857D01*
X84297380Y-102030476D02*
X84297380Y-102601904D01*
X84297380Y-102316190D02*
X83297380Y-102316190D01*
X83440238Y-102411428D01*
X83535476Y-102506666D01*
X83583095Y-102601904D01*
X84297380Y-101078095D02*
X84297380Y-101649523D01*
X84297380Y-101363809D02*
X83297380Y-101363809D01*
X83440238Y-101459047D01*
X83535476Y-101554285D01*
X83583095Y-101649523D01*
%TO.C,R4*%
X61792380Y-96686666D02*
X61316190Y-97020000D01*
X61792380Y-97258095D02*
X60792380Y-97258095D01*
X60792380Y-96877142D01*
X60840000Y-96781904D01*
X60887619Y-96734285D01*
X60982857Y-96686666D01*
X61125714Y-96686666D01*
X61220952Y-96734285D01*
X61268571Y-96781904D01*
X61316190Y-96877142D01*
X61316190Y-97258095D01*
X61125714Y-95829523D02*
X61792380Y-95829523D01*
X60744761Y-96067619D02*
X61459047Y-96305714D01*
X61459047Y-95686666D01*
%TO.C,C4*%
X71257142Y-40179166D02*
X71304761Y-40226785D01*
X71352380Y-40369642D01*
X71352380Y-40464880D01*
X71304761Y-40607738D01*
X71209523Y-40702976D01*
X71114285Y-40750595D01*
X70923809Y-40798214D01*
X70780952Y-40798214D01*
X70590476Y-40750595D01*
X70495238Y-40702976D01*
X70400000Y-40607738D01*
X70352380Y-40464880D01*
X70352380Y-40369642D01*
X70400000Y-40226785D01*
X70447619Y-40179166D01*
X70685714Y-39322023D02*
X71352380Y-39322023D01*
X70304761Y-39560119D02*
X71019047Y-39798214D01*
X71019047Y-39179166D01*
%TO.C,C3*%
X78047142Y-40179166D02*
X78094761Y-40226785D01*
X78142380Y-40369642D01*
X78142380Y-40464880D01*
X78094761Y-40607738D01*
X77999523Y-40702976D01*
X77904285Y-40750595D01*
X77713809Y-40798214D01*
X77570952Y-40798214D01*
X77380476Y-40750595D01*
X77285238Y-40702976D01*
X77190000Y-40607738D01*
X77142380Y-40464880D01*
X77142380Y-40369642D01*
X77190000Y-40226785D01*
X77237619Y-40179166D01*
X77142380Y-39845833D02*
X77142380Y-39226785D01*
X77523333Y-39560119D01*
X77523333Y-39417261D01*
X77570952Y-39322023D01*
X77618571Y-39274404D01*
X77713809Y-39226785D01*
X77951904Y-39226785D01*
X78047142Y-39274404D01*
X78094761Y-39322023D01*
X78142380Y-39417261D01*
X78142380Y-39702976D01*
X78094761Y-39798214D01*
X78047142Y-39845833D01*
%TO.C,C1*%
X73501333Y-72527142D02*
X73453714Y-72574761D01*
X73310857Y-72622380D01*
X73215619Y-72622380D01*
X73072761Y-72574761D01*
X72977523Y-72479523D01*
X72929904Y-72384285D01*
X72882285Y-72193809D01*
X72882285Y-72050952D01*
X72929904Y-71860476D01*
X72977523Y-71765238D01*
X73072761Y-71670000D01*
X73215619Y-71622380D01*
X73310857Y-71622380D01*
X73453714Y-71670000D01*
X73501333Y-71717619D01*
X74453714Y-72622380D02*
X73882285Y-72622380D01*
X74168000Y-72622380D02*
X74168000Y-71622380D01*
X74072761Y-71765238D01*
X73977523Y-71860476D01*
X73882285Y-71908095D01*
%TO.C,C12*%
X79122142Y-102982857D02*
X79169761Y-103030476D01*
X79217380Y-103173333D01*
X79217380Y-103268571D01*
X79169761Y-103411428D01*
X79074523Y-103506666D01*
X78979285Y-103554285D01*
X78788809Y-103601904D01*
X78645952Y-103601904D01*
X78455476Y-103554285D01*
X78360238Y-103506666D01*
X78265000Y-103411428D01*
X78217380Y-103268571D01*
X78217380Y-103173333D01*
X78265000Y-103030476D01*
X78312619Y-102982857D01*
X79217380Y-102030476D02*
X79217380Y-102601904D01*
X79217380Y-102316190D02*
X78217380Y-102316190D01*
X78360238Y-102411428D01*
X78455476Y-102506666D01*
X78503095Y-102601904D01*
X78312619Y-101649523D02*
X78265000Y-101601904D01*
X78217380Y-101506666D01*
X78217380Y-101268571D01*
X78265000Y-101173333D01*
X78312619Y-101125714D01*
X78407857Y-101078095D01*
X78503095Y-101078095D01*
X78645952Y-101125714D01*
X79217380Y-101697142D01*
X79217380Y-101078095D01*
%TO.C,C10*%
X93092142Y-110602857D02*
X93139761Y-110650476D01*
X93187380Y-110793333D01*
X93187380Y-110888571D01*
X93139761Y-111031428D01*
X93044523Y-111126666D01*
X92949285Y-111174285D01*
X92758809Y-111221904D01*
X92615952Y-111221904D01*
X92425476Y-111174285D01*
X92330238Y-111126666D01*
X92235000Y-111031428D01*
X92187380Y-110888571D01*
X92187380Y-110793333D01*
X92235000Y-110650476D01*
X92282619Y-110602857D01*
X93187380Y-109650476D02*
X93187380Y-110221904D01*
X93187380Y-109936190D02*
X92187380Y-109936190D01*
X92330238Y-110031428D01*
X92425476Y-110126666D01*
X92473095Y-110221904D01*
X92187380Y-109031428D02*
X92187380Y-108936190D01*
X92235000Y-108840952D01*
X92282619Y-108793333D01*
X92377857Y-108745714D01*
X92568333Y-108698095D01*
X92806428Y-108698095D01*
X92996904Y-108745714D01*
X93092142Y-108793333D01*
X93139761Y-108840952D01*
X93187380Y-108936190D01*
X93187380Y-109031428D01*
X93139761Y-109126666D01*
X93092142Y-109174285D01*
X92996904Y-109221904D01*
X92806428Y-109269523D01*
X92568333Y-109269523D01*
X92377857Y-109221904D01*
X92282619Y-109174285D01*
X92235000Y-109126666D01*
X92187380Y-109031428D01*
%TO.C,C2*%
X88012142Y-110126666D02*
X88059761Y-110174285D01*
X88107380Y-110317142D01*
X88107380Y-110412380D01*
X88059761Y-110555238D01*
X87964523Y-110650476D01*
X87869285Y-110698095D01*
X87678809Y-110745714D01*
X87535952Y-110745714D01*
X87345476Y-110698095D01*
X87250238Y-110650476D01*
X87155000Y-110555238D01*
X87107380Y-110412380D01*
X87107380Y-110317142D01*
X87155000Y-110174285D01*
X87202619Y-110126666D01*
X87202619Y-109745714D02*
X87155000Y-109698095D01*
X87107380Y-109602857D01*
X87107380Y-109364761D01*
X87155000Y-109269523D01*
X87202619Y-109221904D01*
X87297857Y-109174285D01*
X87393095Y-109174285D01*
X87535952Y-109221904D01*
X88107380Y-109793333D01*
X88107380Y-109174285D01*
%TO.C,J1*%
X54276666Y-83482380D02*
X54276666Y-84196666D01*
X54229047Y-84339523D01*
X54133809Y-84434761D01*
X53990952Y-84482380D01*
X53895714Y-84482380D01*
X55276666Y-84482380D02*
X54705238Y-84482380D01*
X54990952Y-84482380D02*
X54990952Y-83482380D01*
X54895714Y-83625238D01*
X54800476Y-83720476D01*
X54705238Y-83768095D01*
X57602380Y-100146666D02*
X56602380Y-100146666D01*
X57602380Y-99575238D01*
X56602380Y-99575238D01*
X57078571Y-99099047D02*
X57078571Y-98765714D01*
X57602380Y-98622857D02*
X57602380Y-99099047D01*
X56602380Y-99099047D01*
X56602380Y-98622857D01*
X57554761Y-98241904D02*
X57602380Y-98099047D01*
X57602380Y-97860952D01*
X57554761Y-97765714D01*
X57507142Y-97718095D01*
X57411904Y-97670476D01*
X57316666Y-97670476D01*
X57221428Y-97718095D01*
X57173809Y-97765714D01*
X57126190Y-97860952D01*
X57078571Y-98051428D01*
X57030952Y-98146666D01*
X56983333Y-98194285D01*
X56888095Y-98241904D01*
X56792857Y-98241904D01*
X56697619Y-98194285D01*
X56650000Y-98146666D01*
X56602380Y-98051428D01*
X56602380Y-97813333D01*
X56650000Y-97670476D01*
X57221428Y-97241904D02*
X57221428Y-96480000D01*
X57554761Y-96051428D02*
X57602380Y-95908571D01*
X57602380Y-95670476D01*
X57554761Y-95575238D01*
X57507142Y-95527619D01*
X57411904Y-95480000D01*
X57316666Y-95480000D01*
X57221428Y-95527619D01*
X57173809Y-95575238D01*
X57126190Y-95670476D01*
X57078571Y-95860952D01*
X57030952Y-95956190D01*
X56983333Y-96003809D01*
X56888095Y-96051428D01*
X56792857Y-96051428D01*
X56697619Y-96003809D01*
X56650000Y-95956190D01*
X56602380Y-95860952D01*
X56602380Y-95622857D01*
X56650000Y-95480000D01*
X57602380Y-95051428D02*
X56602380Y-95051428D01*
X57602380Y-94480000D01*
X56602380Y-94480000D01*
X57078571Y-94003809D02*
X57078571Y-93670476D01*
X57602380Y-93527619D02*
X57602380Y-94003809D01*
X56602380Y-94003809D01*
X56602380Y-93527619D01*
X57554761Y-93146666D02*
X57602380Y-93003809D01*
X57602380Y-92765714D01*
X57554761Y-92670476D01*
X57507142Y-92622857D01*
X57411904Y-92575238D01*
X57316666Y-92575238D01*
X57221428Y-92622857D01*
X57173809Y-92670476D01*
X57126190Y-92765714D01*
X57078571Y-92956190D01*
X57030952Y-93051428D01*
X56983333Y-93099047D01*
X56888095Y-93146666D01*
X56792857Y-93146666D01*
X56697619Y-93099047D01*
X56650000Y-93051428D01*
X56602380Y-92956190D01*
X56602380Y-92718095D01*
X56650000Y-92575238D01*
X57602380Y-91384761D02*
X56602380Y-91384761D01*
X56602380Y-91003809D01*
X56650000Y-90908571D01*
X56697619Y-90860952D01*
X56792857Y-90813333D01*
X56935714Y-90813333D01*
X57030952Y-90860952D01*
X57078571Y-90908571D01*
X57126190Y-91003809D01*
X57126190Y-91384761D01*
X57602380Y-90241904D02*
X57554761Y-90337142D01*
X57507142Y-90384761D01*
X57411904Y-90432380D01*
X57126190Y-90432380D01*
X57030952Y-90384761D01*
X56983333Y-90337142D01*
X56935714Y-90241904D01*
X56935714Y-90099047D01*
X56983333Y-90003809D01*
X57030952Y-89956190D01*
X57126190Y-89908571D01*
X57411904Y-89908571D01*
X57507142Y-89956190D01*
X57554761Y-90003809D01*
X57602380Y-90099047D01*
X57602380Y-90241904D01*
X57602380Y-89480000D02*
X56935714Y-89480000D01*
X57126190Y-89480000D02*
X57030952Y-89432380D01*
X56983333Y-89384761D01*
X56935714Y-89289523D01*
X56935714Y-89194285D01*
X56935714Y-89003809D02*
X56935714Y-88622857D01*
X56602380Y-88860952D02*
X57459523Y-88860952D01*
X57554761Y-88813333D01*
X57602380Y-88718095D01*
X57602380Y-88622857D01*
X57602380Y-87765714D02*
X57602380Y-88337142D01*
X57602380Y-88051428D02*
X56602380Y-88051428D01*
X56745238Y-88146666D01*
X56840476Y-88241904D01*
X56888095Y-88337142D01*
%TO.C,U8*%
X80097380Y-66801904D02*
X80906904Y-66801904D01*
X81002142Y-66754285D01*
X81049761Y-66706666D01*
X81097380Y-66611428D01*
X81097380Y-66420952D01*
X81049761Y-66325714D01*
X81002142Y-66278095D01*
X80906904Y-66230476D01*
X80097380Y-66230476D01*
X80525952Y-65611428D02*
X80478333Y-65706666D01*
X80430714Y-65754285D01*
X80335476Y-65801904D01*
X80287857Y-65801904D01*
X80192619Y-65754285D01*
X80145000Y-65706666D01*
X80097380Y-65611428D01*
X80097380Y-65420952D01*
X80145000Y-65325714D01*
X80192619Y-65278095D01*
X80287857Y-65230476D01*
X80335476Y-65230476D01*
X80430714Y-65278095D01*
X80478333Y-65325714D01*
X80525952Y-65420952D01*
X80525952Y-65611428D01*
X80573571Y-65706666D01*
X80621190Y-65754285D01*
X80716428Y-65801904D01*
X80906904Y-65801904D01*
X81002142Y-65754285D01*
X81049761Y-65706666D01*
X81097380Y-65611428D01*
X81097380Y-65420952D01*
X81049761Y-65325714D01*
X81002142Y-65278095D01*
X80906904Y-65230476D01*
X80716428Y-65230476D01*
X80621190Y-65278095D01*
X80573571Y-65325714D01*
X80525952Y-65420952D01*
X69752380Y-69159047D02*
X69752380Y-68492380D01*
X70752380Y-68920952D01*
X70085714Y-67682857D02*
X70752380Y-67682857D01*
X69704761Y-67920952D02*
X70419047Y-68159047D01*
X70419047Y-67540000D01*
X70752380Y-66682857D02*
X70752380Y-67159047D01*
X69752380Y-67159047D01*
X70704761Y-66397142D02*
X70752380Y-66254285D01*
X70752380Y-66016190D01*
X70704761Y-65920952D01*
X70657142Y-65873333D01*
X70561904Y-65825714D01*
X70466666Y-65825714D01*
X70371428Y-65873333D01*
X70323809Y-65920952D01*
X70276190Y-66016190D01*
X70228571Y-66206666D01*
X70180952Y-66301904D01*
X70133333Y-66349523D01*
X70038095Y-66397142D01*
X69942857Y-66397142D01*
X69847619Y-66349523D01*
X69800000Y-66301904D01*
X69752380Y-66206666D01*
X69752380Y-65968571D01*
X69800000Y-65825714D01*
X69847619Y-65444761D02*
X69800000Y-65397142D01*
X69752380Y-65301904D01*
X69752380Y-65063809D01*
X69800000Y-64968571D01*
X69847619Y-64920952D01*
X69942857Y-64873333D01*
X70038095Y-64873333D01*
X70180952Y-64920952D01*
X70752380Y-65492380D01*
X70752380Y-64873333D01*
X69752380Y-63968571D02*
X69752380Y-64444761D01*
X70228571Y-64492380D01*
X70180952Y-64444761D01*
X70133333Y-64349523D01*
X70133333Y-64111428D01*
X70180952Y-64016190D01*
X70228571Y-63968571D01*
X70323809Y-63920952D01*
X70561904Y-63920952D01*
X70657142Y-63968571D01*
X70704761Y-64016190D01*
X70752380Y-64111428D01*
X70752380Y-64349523D01*
X70704761Y-64444761D01*
X70657142Y-64492380D01*
X69752380Y-63587619D02*
X69752380Y-62920952D01*
X70752380Y-63349523D01*
%TO.C,U2*%
X83058095Y-36717380D02*
X83058095Y-37526904D01*
X83105714Y-37622142D01*
X83153333Y-37669761D01*
X83248571Y-37717380D01*
X83439047Y-37717380D01*
X83534285Y-37669761D01*
X83581904Y-37622142D01*
X83629523Y-37526904D01*
X83629523Y-36717380D01*
X84058095Y-36812619D02*
X84105714Y-36765000D01*
X84200952Y-36717380D01*
X84439047Y-36717380D01*
X84534285Y-36765000D01*
X84581904Y-36812619D01*
X84629523Y-36907857D01*
X84629523Y-37003095D01*
X84581904Y-37145952D01*
X84010476Y-37717380D01*
X84629523Y-37717380D01*
X80700952Y-47277380D02*
X81367619Y-47277380D01*
X80939047Y-48277380D01*
X82177142Y-47610714D02*
X82177142Y-48277380D01*
X81939047Y-47229761D02*
X81700952Y-47944047D01*
X82320000Y-47944047D01*
X83177142Y-48277380D02*
X82700952Y-48277380D01*
X82700952Y-47277380D01*
X83462857Y-48229761D02*
X83605714Y-48277380D01*
X83843809Y-48277380D01*
X83939047Y-48229761D01*
X83986666Y-48182142D01*
X84034285Y-48086904D01*
X84034285Y-47991666D01*
X83986666Y-47896428D01*
X83939047Y-47848809D01*
X83843809Y-47801190D01*
X83653333Y-47753571D01*
X83558095Y-47705952D01*
X83510476Y-47658333D01*
X83462857Y-47563095D01*
X83462857Y-47467857D01*
X83510476Y-47372619D01*
X83558095Y-47325000D01*
X83653333Y-47277380D01*
X83891428Y-47277380D01*
X84034285Y-47325000D01*
X84986666Y-48277380D02*
X84415238Y-48277380D01*
X84700952Y-48277380D02*
X84700952Y-47277380D01*
X84605714Y-47420238D01*
X84510476Y-47515476D01*
X84415238Y-47563095D01*
X85320000Y-47277380D02*
X85939047Y-47277380D01*
X85605714Y-47658333D01*
X85748571Y-47658333D01*
X85843809Y-47705952D01*
X85891428Y-47753571D01*
X85939047Y-47848809D01*
X85939047Y-48086904D01*
X85891428Y-48182142D01*
X85843809Y-48229761D01*
X85748571Y-48277380D01*
X85462857Y-48277380D01*
X85367619Y-48229761D01*
X85320000Y-48182142D01*
X86320000Y-47372619D02*
X86367619Y-47325000D01*
X86462857Y-47277380D01*
X86700952Y-47277380D01*
X86796190Y-47325000D01*
X86843809Y-47372619D01*
X86891428Y-47467857D01*
X86891428Y-47563095D01*
X86843809Y-47705952D01*
X86272380Y-48277380D01*
X86891428Y-48277380D01*
%TO.C,U10*%
X54641904Y-50702380D02*
X54641904Y-51511904D01*
X54689523Y-51607142D01*
X54737142Y-51654761D01*
X54832380Y-51702380D01*
X55022857Y-51702380D01*
X55118095Y-51654761D01*
X55165714Y-51607142D01*
X55213333Y-51511904D01*
X55213333Y-50702380D01*
X56213333Y-51702380D02*
X55641904Y-51702380D01*
X55927619Y-51702380D02*
X55927619Y-50702380D01*
X55832380Y-50845238D01*
X55737142Y-50940476D01*
X55641904Y-50988095D01*
X56832380Y-50702380D02*
X56927619Y-50702380D01*
X57022857Y-50750000D01*
X57070476Y-50797619D01*
X57118095Y-50892857D01*
X57165714Y-51083333D01*
X57165714Y-51321428D01*
X57118095Y-51511904D01*
X57070476Y-51607142D01*
X57022857Y-51654761D01*
X56927619Y-51702380D01*
X56832380Y-51702380D01*
X56737142Y-51654761D01*
X56689523Y-51607142D01*
X56641904Y-51511904D01*
X56594285Y-51321428D01*
X56594285Y-51083333D01*
X56641904Y-50892857D01*
X56689523Y-50797619D01*
X56737142Y-50750000D01*
X56832380Y-50702380D01*
X52760952Y-62502380D02*
X53427619Y-62502380D01*
X52999047Y-63502380D01*
X54237142Y-62835714D02*
X54237142Y-63502380D01*
X53999047Y-62454761D02*
X53760952Y-63169047D01*
X54380000Y-63169047D01*
X55237142Y-63502380D02*
X54760952Y-63502380D01*
X54760952Y-62502380D01*
X55522857Y-63454761D02*
X55665714Y-63502380D01*
X55903809Y-63502380D01*
X55999047Y-63454761D01*
X56046666Y-63407142D01*
X56094285Y-63311904D01*
X56094285Y-63216666D01*
X56046666Y-63121428D01*
X55999047Y-63073809D01*
X55903809Y-63026190D01*
X55713333Y-62978571D01*
X55618095Y-62930952D01*
X55570476Y-62883333D01*
X55522857Y-62788095D01*
X55522857Y-62692857D01*
X55570476Y-62597619D01*
X55618095Y-62550000D01*
X55713333Y-62502380D01*
X55951428Y-62502380D01*
X56094285Y-62550000D01*
X56475238Y-62597619D02*
X56522857Y-62550000D01*
X56618095Y-62502380D01*
X56856190Y-62502380D01*
X56951428Y-62550000D01*
X56999047Y-62597619D01*
X57046666Y-62692857D01*
X57046666Y-62788095D01*
X56999047Y-62930952D01*
X56427619Y-63502380D01*
X57046666Y-63502380D01*
X57951428Y-62502380D02*
X57475238Y-62502380D01*
X57427619Y-62978571D01*
X57475238Y-62930952D01*
X57570476Y-62883333D01*
X57808571Y-62883333D01*
X57903809Y-62930952D01*
X57951428Y-62978571D01*
X57999047Y-63073809D01*
X57999047Y-63311904D01*
X57951428Y-63407142D01*
X57903809Y-63454761D01*
X57808571Y-63502380D01*
X57570476Y-63502380D01*
X57475238Y-63454761D01*
X57427619Y-63407142D01*
X58332380Y-62502380D02*
X58999047Y-62502380D01*
X58570476Y-63502380D01*
%TO.C,U1*%
X54512380Y-42671904D02*
X55321904Y-42671904D01*
X55417142Y-42624285D01*
X55464761Y-42576666D01*
X55512380Y-42481428D01*
X55512380Y-42290952D01*
X55464761Y-42195714D01*
X55417142Y-42148095D01*
X55321904Y-42100476D01*
X54512380Y-42100476D01*
X55512380Y-41100476D02*
X55512380Y-41671904D01*
X55512380Y-41386190D02*
X54512380Y-41386190D01*
X54655238Y-41481428D01*
X54750476Y-41576666D01*
X54798095Y-41671904D01*
X66312380Y-45029047D02*
X66312380Y-44362380D01*
X67312380Y-44790952D01*
X66645714Y-43552857D02*
X67312380Y-43552857D01*
X66264761Y-43790952D02*
X66979047Y-44029047D01*
X66979047Y-43410000D01*
X67312380Y-42552857D02*
X67312380Y-43029047D01*
X66312380Y-43029047D01*
X67264761Y-42267142D02*
X67312380Y-42124285D01*
X67312380Y-41886190D01*
X67264761Y-41790952D01*
X67217142Y-41743333D01*
X67121904Y-41695714D01*
X67026666Y-41695714D01*
X66931428Y-41743333D01*
X66883809Y-41790952D01*
X66836190Y-41886190D01*
X66788571Y-42076666D01*
X66740952Y-42171904D01*
X66693333Y-42219523D01*
X66598095Y-42267142D01*
X66502857Y-42267142D01*
X66407619Y-42219523D01*
X66360000Y-42171904D01*
X66312380Y-42076666D01*
X66312380Y-41838571D01*
X66360000Y-41695714D01*
X67312380Y-40743333D02*
X67312380Y-41314761D01*
X67312380Y-41029047D02*
X66312380Y-41029047D01*
X66455238Y-41124285D01*
X66550476Y-41219523D01*
X66598095Y-41314761D01*
X66312380Y-40410000D02*
X66312380Y-39790952D01*
X66693333Y-40124285D01*
X66693333Y-39981428D01*
X66740952Y-39886190D01*
X66788571Y-39838571D01*
X66883809Y-39790952D01*
X67121904Y-39790952D01*
X67217142Y-39838571D01*
X67264761Y-39886190D01*
X67312380Y-39981428D01*
X67312380Y-40267142D01*
X67264761Y-40362380D01*
X67217142Y-40410000D01*
X67312380Y-39314761D02*
X67312380Y-39124285D01*
X67264761Y-39029047D01*
X67217142Y-38981428D01*
X67074285Y-38886190D01*
X66883809Y-38838571D01*
X66502857Y-38838571D01*
X66407619Y-38886190D01*
X66360000Y-38933809D01*
X66312380Y-39029047D01*
X66312380Y-39219523D01*
X66360000Y-39314761D01*
X66407619Y-39362380D01*
X66502857Y-39410000D01*
X66740952Y-39410000D01*
X66836190Y-39362380D01*
X66883809Y-39314761D01*
X66931428Y-39219523D01*
X66931428Y-39029047D01*
X66883809Y-38933809D01*
X66836190Y-38886190D01*
X66740952Y-38838571D01*
%TO.C,BU9480F1*%
X85238571Y-103591904D02*
X85286190Y-103449047D01*
X85333809Y-103401428D01*
X85429047Y-103353809D01*
X85571904Y-103353809D01*
X85667142Y-103401428D01*
X85714761Y-103449047D01*
X85762380Y-103544285D01*
X85762380Y-103925238D01*
X84762380Y-103925238D01*
X84762380Y-103591904D01*
X84810000Y-103496666D01*
X84857619Y-103449047D01*
X84952857Y-103401428D01*
X85048095Y-103401428D01*
X85143333Y-103449047D01*
X85190952Y-103496666D01*
X85238571Y-103591904D01*
X85238571Y-103925238D01*
X84762380Y-102925238D02*
X85571904Y-102925238D01*
X85667142Y-102877619D01*
X85714761Y-102830000D01*
X85762380Y-102734761D01*
X85762380Y-102544285D01*
X85714761Y-102449047D01*
X85667142Y-102401428D01*
X85571904Y-102353809D01*
X84762380Y-102353809D01*
X85762380Y-101830000D02*
X85762380Y-101639523D01*
X85714761Y-101544285D01*
X85667142Y-101496666D01*
X85524285Y-101401428D01*
X85333809Y-101353809D01*
X84952857Y-101353809D01*
X84857619Y-101401428D01*
X84810000Y-101449047D01*
X84762380Y-101544285D01*
X84762380Y-101734761D01*
X84810000Y-101830000D01*
X84857619Y-101877619D01*
X84952857Y-101925238D01*
X85190952Y-101925238D01*
X85286190Y-101877619D01*
X85333809Y-101830000D01*
X85381428Y-101734761D01*
X85381428Y-101544285D01*
X85333809Y-101449047D01*
X85286190Y-101401428D01*
X85190952Y-101353809D01*
X85095714Y-100496666D02*
X85762380Y-100496666D01*
X84714761Y-100734761D02*
X85429047Y-100972857D01*
X85429047Y-100353809D01*
X85190952Y-99830000D02*
X85143333Y-99925238D01*
X85095714Y-99972857D01*
X85000476Y-100020476D01*
X84952857Y-100020476D01*
X84857619Y-99972857D01*
X84810000Y-99925238D01*
X84762380Y-99830000D01*
X84762380Y-99639523D01*
X84810000Y-99544285D01*
X84857619Y-99496666D01*
X84952857Y-99449047D01*
X85000476Y-99449047D01*
X85095714Y-99496666D01*
X85143333Y-99544285D01*
X85190952Y-99639523D01*
X85190952Y-99830000D01*
X85238571Y-99925238D01*
X85286190Y-99972857D01*
X85381428Y-100020476D01*
X85571904Y-100020476D01*
X85667142Y-99972857D01*
X85714761Y-99925238D01*
X85762380Y-99830000D01*
X85762380Y-99639523D01*
X85714761Y-99544285D01*
X85667142Y-99496666D01*
X85571904Y-99449047D01*
X85381428Y-99449047D01*
X85286190Y-99496666D01*
X85238571Y-99544285D01*
X85190952Y-99639523D01*
X84762380Y-98830000D02*
X84762380Y-98734761D01*
X84810000Y-98639523D01*
X84857619Y-98591904D01*
X84952857Y-98544285D01*
X85143333Y-98496666D01*
X85381428Y-98496666D01*
X85571904Y-98544285D01*
X85667142Y-98591904D01*
X85714761Y-98639523D01*
X85762380Y-98734761D01*
X85762380Y-98830000D01*
X85714761Y-98925238D01*
X85667142Y-98972857D01*
X85571904Y-99020476D01*
X85381428Y-99068095D01*
X85143333Y-99068095D01*
X84952857Y-99020476D01*
X84857619Y-98972857D01*
X84810000Y-98925238D01*
X84762380Y-98830000D01*
X85238571Y-97734761D02*
X85238571Y-98068095D01*
X85762380Y-98068095D02*
X84762380Y-98068095D01*
X84762380Y-97591904D01*
X85762380Y-96687142D02*
X85762380Y-97258571D01*
X85762380Y-96972857D02*
X84762380Y-96972857D01*
X84905238Y-97068095D01*
X85000476Y-97163333D01*
X85048095Y-97258571D01*
%TO.C,U9*%
X91527380Y-66801904D02*
X92336904Y-66801904D01*
X92432142Y-66754285D01*
X92479761Y-66706666D01*
X92527380Y-66611428D01*
X92527380Y-66420952D01*
X92479761Y-66325714D01*
X92432142Y-66278095D01*
X92336904Y-66230476D01*
X91527380Y-66230476D01*
X92527380Y-65706666D02*
X92527380Y-65516190D01*
X92479761Y-65420952D01*
X92432142Y-65373333D01*
X92289285Y-65278095D01*
X92098809Y-65230476D01*
X91717857Y-65230476D01*
X91622619Y-65278095D01*
X91575000Y-65325714D01*
X91527380Y-65420952D01*
X91527380Y-65611428D01*
X91575000Y-65706666D01*
X91622619Y-65754285D01*
X91717857Y-65801904D01*
X91955952Y-65801904D01*
X92051190Y-65754285D01*
X92098809Y-65706666D01*
X92146428Y-65611428D01*
X92146428Y-65420952D01*
X92098809Y-65325714D01*
X92051190Y-65278095D01*
X91955952Y-65230476D01*
X81182380Y-69159047D02*
X81182380Y-68492380D01*
X82182380Y-68920952D01*
X81515714Y-67682857D02*
X82182380Y-67682857D01*
X81134761Y-67920952D02*
X81849047Y-68159047D01*
X81849047Y-67540000D01*
X82182380Y-66682857D02*
X82182380Y-67159047D01*
X81182380Y-67159047D01*
X82134761Y-66397142D02*
X82182380Y-66254285D01*
X82182380Y-66016190D01*
X82134761Y-65920952D01*
X82087142Y-65873333D01*
X81991904Y-65825714D01*
X81896666Y-65825714D01*
X81801428Y-65873333D01*
X81753809Y-65920952D01*
X81706190Y-66016190D01*
X81658571Y-66206666D01*
X81610952Y-66301904D01*
X81563333Y-66349523D01*
X81468095Y-66397142D01*
X81372857Y-66397142D01*
X81277619Y-66349523D01*
X81230000Y-66301904D01*
X81182380Y-66206666D01*
X81182380Y-65968571D01*
X81230000Y-65825714D01*
X81277619Y-65444761D02*
X81230000Y-65397142D01*
X81182380Y-65301904D01*
X81182380Y-65063809D01*
X81230000Y-64968571D01*
X81277619Y-64920952D01*
X81372857Y-64873333D01*
X81468095Y-64873333D01*
X81610952Y-64920952D01*
X82182380Y-65492380D01*
X82182380Y-64873333D01*
X81182380Y-63968571D02*
X81182380Y-64444761D01*
X81658571Y-64492380D01*
X81610952Y-64444761D01*
X81563333Y-64349523D01*
X81563333Y-64111428D01*
X81610952Y-64016190D01*
X81658571Y-63968571D01*
X81753809Y-63920952D01*
X81991904Y-63920952D01*
X82087142Y-63968571D01*
X82134761Y-64016190D01*
X82182380Y-64111428D01*
X82182380Y-64349523D01*
X82134761Y-64444761D01*
X82087142Y-64492380D01*
X81182380Y-63587619D02*
X81182380Y-62920952D01*
X82182380Y-63349523D01*
%TO.C,U7*%
X76073095Y-48162380D02*
X76073095Y-48971904D01*
X76120714Y-49067142D01*
X76168333Y-49114761D01*
X76263571Y-49162380D01*
X76454047Y-49162380D01*
X76549285Y-49114761D01*
X76596904Y-49067142D01*
X76644523Y-48971904D01*
X76644523Y-48162380D01*
X77025476Y-48162380D02*
X77692142Y-48162380D01*
X77263571Y-49162380D01*
X73715952Y-59962380D02*
X74382619Y-59962380D01*
X73954047Y-60962380D01*
X75192142Y-60295714D02*
X75192142Y-60962380D01*
X74954047Y-59914761D02*
X74715952Y-60629047D01*
X75335000Y-60629047D01*
X76192142Y-60962380D02*
X75715952Y-60962380D01*
X75715952Y-59962380D01*
X76477857Y-60914761D02*
X76620714Y-60962380D01*
X76858809Y-60962380D01*
X76954047Y-60914761D01*
X77001666Y-60867142D01*
X77049285Y-60771904D01*
X77049285Y-60676666D01*
X77001666Y-60581428D01*
X76954047Y-60533809D01*
X76858809Y-60486190D01*
X76668333Y-60438571D01*
X76573095Y-60390952D01*
X76525476Y-60343333D01*
X76477857Y-60248095D01*
X76477857Y-60152857D01*
X76525476Y-60057619D01*
X76573095Y-60010000D01*
X76668333Y-59962380D01*
X76906428Y-59962380D01*
X77049285Y-60010000D01*
X78001666Y-60962380D02*
X77430238Y-60962380D01*
X77715952Y-60962380D02*
X77715952Y-59962380D01*
X77620714Y-60105238D01*
X77525476Y-60200476D01*
X77430238Y-60248095D01*
X78335000Y-59962380D02*
X79001666Y-59962380D01*
X78573095Y-60962380D01*
X79811190Y-60295714D02*
X79811190Y-60962380D01*
X79573095Y-59914761D02*
X79335000Y-60629047D01*
X79954047Y-60629047D01*
%TO.C,U6*%
X87503095Y-48162380D02*
X87503095Y-48971904D01*
X87550714Y-49067142D01*
X87598333Y-49114761D01*
X87693571Y-49162380D01*
X87884047Y-49162380D01*
X87979285Y-49114761D01*
X88026904Y-49067142D01*
X88074523Y-48971904D01*
X88074523Y-48162380D01*
X88979285Y-48162380D02*
X88788809Y-48162380D01*
X88693571Y-48210000D01*
X88645952Y-48257619D01*
X88550714Y-48400476D01*
X88503095Y-48590952D01*
X88503095Y-48971904D01*
X88550714Y-49067142D01*
X88598333Y-49114761D01*
X88693571Y-49162380D01*
X88884047Y-49162380D01*
X88979285Y-49114761D01*
X89026904Y-49067142D01*
X89074523Y-48971904D01*
X89074523Y-48733809D01*
X89026904Y-48638571D01*
X88979285Y-48590952D01*
X88884047Y-48543333D01*
X88693571Y-48543333D01*
X88598333Y-48590952D01*
X88550714Y-48638571D01*
X88503095Y-48733809D01*
X85145952Y-59962380D02*
X85812619Y-59962380D01*
X85384047Y-60962380D01*
X86622142Y-60295714D02*
X86622142Y-60962380D01*
X86384047Y-59914761D02*
X86145952Y-60629047D01*
X86765000Y-60629047D01*
X87622142Y-60962380D02*
X87145952Y-60962380D01*
X87145952Y-59962380D01*
X87907857Y-60914761D02*
X88050714Y-60962380D01*
X88288809Y-60962380D01*
X88384047Y-60914761D01*
X88431666Y-60867142D01*
X88479285Y-60771904D01*
X88479285Y-60676666D01*
X88431666Y-60581428D01*
X88384047Y-60533809D01*
X88288809Y-60486190D01*
X88098333Y-60438571D01*
X88003095Y-60390952D01*
X87955476Y-60343333D01*
X87907857Y-60248095D01*
X87907857Y-60152857D01*
X87955476Y-60057619D01*
X88003095Y-60010000D01*
X88098333Y-59962380D01*
X88336428Y-59962380D01*
X88479285Y-60010000D01*
X89431666Y-60962380D02*
X88860238Y-60962380D01*
X89145952Y-60962380D02*
X89145952Y-59962380D01*
X89050714Y-60105238D01*
X88955476Y-60200476D01*
X88860238Y-60248095D01*
X89765000Y-59962380D02*
X90431666Y-59962380D01*
X90003095Y-60962380D01*
X91241190Y-60295714D02*
X91241190Y-60962380D01*
X91003095Y-59914761D02*
X90765000Y-60629047D01*
X91384047Y-60629047D01*
%TO.C,J7*%
X54276666Y-108882380D02*
X54276666Y-109596666D01*
X54229047Y-109739523D01*
X54133809Y-109834761D01*
X53990952Y-109882380D01*
X53895714Y-109882380D01*
X54657619Y-108882380D02*
X55324285Y-108882380D01*
X54895714Y-109882380D01*
X57078571Y-115506190D02*
X57078571Y-115172857D01*
X57602380Y-115030000D02*
X57602380Y-115506190D01*
X56602380Y-115506190D01*
X56602380Y-115030000D01*
X57602380Y-114601428D02*
X56602380Y-114601428D01*
X57602380Y-114030000D01*
X56602380Y-114030000D01*
X57602380Y-112315714D02*
X57602380Y-112791904D01*
X56602380Y-112791904D01*
X57078571Y-111982380D02*
X57078571Y-111649047D01*
X57602380Y-111506190D02*
X57602380Y-111982380D01*
X56602380Y-111982380D01*
X56602380Y-111506190D01*
X57602380Y-111077619D02*
X56602380Y-111077619D01*
X56602380Y-110839523D01*
X56650000Y-110696666D01*
X56745238Y-110601428D01*
X56840476Y-110553809D01*
X57030952Y-110506190D01*
X57173809Y-110506190D01*
X57364285Y-110553809D01*
X57459523Y-110601428D01*
X57554761Y-110696666D01*
X57602380Y-110839523D01*
X57602380Y-111077619D01*
%TO.C,J2*%
X54276666Y-83062380D02*
X54276666Y-83776666D01*
X54229047Y-83919523D01*
X54133809Y-84014761D01*
X53990952Y-84062380D01*
X53895714Y-84062380D01*
X54705238Y-83157619D02*
X54752857Y-83110000D01*
X54848095Y-83062380D01*
X55086190Y-83062380D01*
X55181428Y-83110000D01*
X55229047Y-83157619D01*
X55276666Y-83252857D01*
X55276666Y-83348095D01*
X55229047Y-83490952D01*
X54657619Y-84062380D01*
X55276666Y-84062380D01*
X57602380Y-79826666D02*
X56602380Y-79826666D01*
X57602380Y-79255238D01*
X56602380Y-79255238D01*
X57078571Y-78779047D02*
X57078571Y-78445714D01*
X57602380Y-78302857D02*
X57602380Y-78779047D01*
X56602380Y-78779047D01*
X56602380Y-78302857D01*
X57554761Y-77921904D02*
X57602380Y-77779047D01*
X57602380Y-77540952D01*
X57554761Y-77445714D01*
X57507142Y-77398095D01*
X57411904Y-77350476D01*
X57316666Y-77350476D01*
X57221428Y-77398095D01*
X57173809Y-77445714D01*
X57126190Y-77540952D01*
X57078571Y-77731428D01*
X57030952Y-77826666D01*
X56983333Y-77874285D01*
X56888095Y-77921904D01*
X56792857Y-77921904D01*
X56697619Y-77874285D01*
X56650000Y-77826666D01*
X56602380Y-77731428D01*
X56602380Y-77493333D01*
X56650000Y-77350476D01*
X57221428Y-76921904D02*
X57221428Y-76160000D01*
X57554761Y-75731428D02*
X57602380Y-75588571D01*
X57602380Y-75350476D01*
X57554761Y-75255238D01*
X57507142Y-75207619D01*
X57411904Y-75160000D01*
X57316666Y-75160000D01*
X57221428Y-75207619D01*
X57173809Y-75255238D01*
X57126190Y-75350476D01*
X57078571Y-75540952D01*
X57030952Y-75636190D01*
X56983333Y-75683809D01*
X56888095Y-75731428D01*
X56792857Y-75731428D01*
X56697619Y-75683809D01*
X56650000Y-75636190D01*
X56602380Y-75540952D01*
X56602380Y-75302857D01*
X56650000Y-75160000D01*
X57602380Y-74731428D02*
X56602380Y-74731428D01*
X57602380Y-74160000D01*
X56602380Y-74160000D01*
X57078571Y-73683809D02*
X57078571Y-73350476D01*
X57602380Y-73207619D02*
X57602380Y-73683809D01*
X56602380Y-73683809D01*
X56602380Y-73207619D01*
X57554761Y-72826666D02*
X57602380Y-72683809D01*
X57602380Y-72445714D01*
X57554761Y-72350476D01*
X57507142Y-72302857D01*
X57411904Y-72255238D01*
X57316666Y-72255238D01*
X57221428Y-72302857D01*
X57173809Y-72350476D01*
X57126190Y-72445714D01*
X57078571Y-72636190D01*
X57030952Y-72731428D01*
X56983333Y-72779047D01*
X56888095Y-72826666D01*
X56792857Y-72826666D01*
X56697619Y-72779047D01*
X56650000Y-72731428D01*
X56602380Y-72636190D01*
X56602380Y-72398095D01*
X56650000Y-72255238D01*
X57602380Y-71064761D02*
X56602380Y-71064761D01*
X56602380Y-70683809D01*
X56650000Y-70588571D01*
X56697619Y-70540952D01*
X56792857Y-70493333D01*
X56935714Y-70493333D01*
X57030952Y-70540952D01*
X57078571Y-70588571D01*
X57126190Y-70683809D01*
X57126190Y-71064761D01*
X57602380Y-69921904D02*
X57554761Y-70017142D01*
X57507142Y-70064761D01*
X57411904Y-70112380D01*
X57126190Y-70112380D01*
X57030952Y-70064761D01*
X56983333Y-70017142D01*
X56935714Y-69921904D01*
X56935714Y-69779047D01*
X56983333Y-69683809D01*
X57030952Y-69636190D01*
X57126190Y-69588571D01*
X57411904Y-69588571D01*
X57507142Y-69636190D01*
X57554761Y-69683809D01*
X57602380Y-69779047D01*
X57602380Y-69921904D01*
X57602380Y-69160000D02*
X56935714Y-69160000D01*
X57126190Y-69160000D02*
X57030952Y-69112380D01*
X56983333Y-69064761D01*
X56935714Y-68969523D01*
X56935714Y-68874285D01*
X56935714Y-68683809D02*
X56935714Y-68302857D01*
X56602380Y-68540952D02*
X57459523Y-68540952D01*
X57554761Y-68493333D01*
X57602380Y-68398095D01*
X57602380Y-68302857D01*
X56697619Y-68017142D02*
X56650000Y-67969523D01*
X56602380Y-67874285D01*
X56602380Y-67636190D01*
X56650000Y-67540952D01*
X56697619Y-67493333D01*
X56792857Y-67445714D01*
X56888095Y-67445714D01*
X57030952Y-67493333D01*
X57602380Y-68064761D01*
X57602380Y-67445714D01*
%TO.C,J5*%
X54276666Y-115232380D02*
X54276666Y-115946666D01*
X54229047Y-116089523D01*
X54133809Y-116184761D01*
X53990952Y-116232380D01*
X53895714Y-116232380D01*
X55229047Y-115232380D02*
X54752857Y-115232380D01*
X54705238Y-115708571D01*
X54752857Y-115660952D01*
X54848095Y-115613333D01*
X55086190Y-115613333D01*
X55181428Y-115660952D01*
X55229047Y-115708571D01*
X55276666Y-115803809D01*
X55276666Y-116041904D01*
X55229047Y-116137142D01*
X55181428Y-116184761D01*
X55086190Y-116232380D01*
X54848095Y-116232380D01*
X54752857Y-116184761D01*
X54705238Y-116137142D01*
X57078571Y-124173809D02*
X57078571Y-123840476D01*
X57602380Y-123697619D02*
X57602380Y-124173809D01*
X56602380Y-124173809D01*
X56602380Y-123697619D01*
X57602380Y-123269047D02*
X56602380Y-123269047D01*
X57602380Y-122697619D01*
X56602380Y-122697619D01*
X57554761Y-121507142D02*
X57602380Y-121364285D01*
X57602380Y-121126190D01*
X57554761Y-121030952D01*
X57507142Y-120983333D01*
X57411904Y-120935714D01*
X57316666Y-120935714D01*
X57221428Y-120983333D01*
X57173809Y-121030952D01*
X57126190Y-121126190D01*
X57078571Y-121316666D01*
X57030952Y-121411904D01*
X56983333Y-121459523D01*
X56888095Y-121507142D01*
X56792857Y-121507142D01*
X56697619Y-121459523D01*
X56650000Y-121411904D01*
X56602380Y-121316666D01*
X56602380Y-121078571D01*
X56650000Y-120935714D01*
X56935714Y-120602380D02*
X57602380Y-120411904D01*
X57126190Y-120221428D01*
X57602380Y-120030952D01*
X56935714Y-119840476D01*
X57602380Y-119459523D02*
X56935714Y-119459523D01*
X56602380Y-119459523D02*
X56650000Y-119507142D01*
X56697619Y-119459523D01*
X56650000Y-119411904D01*
X56602380Y-119459523D01*
X56697619Y-119459523D01*
X56935714Y-119126190D02*
X56935714Y-118745238D01*
X56602380Y-118983333D02*
X57459523Y-118983333D01*
X57554761Y-118935714D01*
X57602380Y-118840476D01*
X57602380Y-118745238D01*
X57554761Y-117983333D02*
X57602380Y-118078571D01*
X57602380Y-118269047D01*
X57554761Y-118364285D01*
X57507142Y-118411904D01*
X57411904Y-118459523D01*
X57126190Y-118459523D01*
X57030952Y-118411904D01*
X56983333Y-118364285D01*
X56935714Y-118269047D01*
X56935714Y-118078571D01*
X56983333Y-117983333D01*
X57602380Y-117554761D02*
X56602380Y-117554761D01*
X57602380Y-117126190D02*
X57078571Y-117126190D01*
X56983333Y-117173809D01*
X56935714Y-117269047D01*
X56935714Y-117411904D01*
X56983333Y-117507142D01*
X57030952Y-117554761D01*
%TO.C,X1*%
X81962380Y-94699523D02*
X82962380Y-94032857D01*
X81962380Y-94032857D02*
X82962380Y-94699523D01*
X82962380Y-93128095D02*
X82962380Y-93699523D01*
X82962380Y-93413809D02*
X81962380Y-93413809D01*
X82105238Y-93509047D01*
X82200476Y-93604285D01*
X82248095Y-93699523D01*
%TO.C,R6*%
X81352380Y-119901666D02*
X80876190Y-120235000D01*
X81352380Y-120473095D02*
X80352380Y-120473095D01*
X80352380Y-120092142D01*
X80400000Y-119996904D01*
X80447619Y-119949285D01*
X80542857Y-119901666D01*
X80685714Y-119901666D01*
X80780952Y-119949285D01*
X80828571Y-119996904D01*
X80876190Y-120092142D01*
X80876190Y-120473095D01*
X80352380Y-119044523D02*
X80352380Y-119235000D01*
X80400000Y-119330238D01*
X80447619Y-119377857D01*
X80590476Y-119473095D01*
X80780952Y-119520714D01*
X81161904Y-119520714D01*
X81257142Y-119473095D01*
X81304761Y-119425476D01*
X81352380Y-119330238D01*
X81352380Y-119139761D01*
X81304761Y-119044523D01*
X81257142Y-118996904D01*
X81161904Y-118949285D01*
X80923809Y-118949285D01*
X80828571Y-118996904D01*
X80780952Y-119044523D01*
X80733333Y-119139761D01*
X80733333Y-119330238D01*
X80780952Y-119425476D01*
X80828571Y-119473095D01*
X80923809Y-119520714D01*
%TO.C,YMF288*%
X136501190Y-84978571D02*
X136977380Y-84978571D01*
X135977380Y-85311904D02*
X136501190Y-84978571D01*
X135977380Y-84645238D01*
X136977380Y-84311904D02*
X135977380Y-84311904D01*
X136691666Y-83978571D01*
X135977380Y-83645238D01*
X136977380Y-83645238D01*
X136453571Y-82835714D02*
X136453571Y-83169047D01*
X136977380Y-83169047D02*
X135977380Y-83169047D01*
X135977380Y-82692857D01*
X136072619Y-82359523D02*
X136025000Y-82311904D01*
X135977380Y-82216666D01*
X135977380Y-81978571D01*
X136025000Y-81883333D01*
X136072619Y-81835714D01*
X136167857Y-81788095D01*
X136263095Y-81788095D01*
X136405952Y-81835714D01*
X136977380Y-82407142D01*
X136977380Y-81788095D01*
X136405952Y-81216666D02*
X136358333Y-81311904D01*
X136310714Y-81359523D01*
X136215476Y-81407142D01*
X136167857Y-81407142D01*
X136072619Y-81359523D01*
X136025000Y-81311904D01*
X135977380Y-81216666D01*
X135977380Y-81026190D01*
X136025000Y-80930952D01*
X136072619Y-80883333D01*
X136167857Y-80835714D01*
X136215476Y-80835714D01*
X136310714Y-80883333D01*
X136358333Y-80930952D01*
X136405952Y-81026190D01*
X136405952Y-81216666D01*
X136453571Y-81311904D01*
X136501190Y-81359523D01*
X136596428Y-81407142D01*
X136786904Y-81407142D01*
X136882142Y-81359523D01*
X136929761Y-81311904D01*
X136977380Y-81216666D01*
X136977380Y-81026190D01*
X136929761Y-80930952D01*
X136882142Y-80883333D01*
X136786904Y-80835714D01*
X136596428Y-80835714D01*
X136501190Y-80883333D01*
X136453571Y-80930952D01*
X136405952Y-81026190D01*
X136405952Y-80264285D02*
X136358333Y-80359523D01*
X136310714Y-80407142D01*
X136215476Y-80454761D01*
X136167857Y-80454761D01*
X136072619Y-80407142D01*
X136025000Y-80359523D01*
X135977380Y-80264285D01*
X135977380Y-80073809D01*
X136025000Y-79978571D01*
X136072619Y-79930952D01*
X136167857Y-79883333D01*
X136215476Y-79883333D01*
X136310714Y-79930952D01*
X136358333Y-79978571D01*
X136405952Y-80073809D01*
X136405952Y-80264285D01*
X136453571Y-80359523D01*
X136501190Y-80407142D01*
X136596428Y-80454761D01*
X136786904Y-80454761D01*
X136882142Y-80407142D01*
X136929761Y-80359523D01*
X136977380Y-80264285D01*
X136977380Y-80073809D01*
X136929761Y-79978571D01*
X136882142Y-79930952D01*
X136786904Y-79883333D01*
X136596428Y-79883333D01*
X136501190Y-79930952D01*
X136453571Y-79978571D01*
X136405952Y-80073809D01*
%TO.C,X1*%
X126412380Y-94699523D02*
X127412380Y-94032857D01*
X126412380Y-94032857D02*
X127412380Y-94699523D01*
X127412380Y-93128095D02*
X127412380Y-93699523D01*
X127412380Y-93413809D02*
X126412380Y-93413809D01*
X126555238Y-93509047D01*
X126650476Y-93604285D01*
X126698095Y-93699523D01*
%TO.C,D1*%
X122451904Y-76112380D02*
X122451904Y-75112380D01*
X122690000Y-75112380D01*
X122832857Y-75160000D01*
X122928095Y-75255238D01*
X122975714Y-75350476D01*
X123023333Y-75540952D01*
X123023333Y-75683809D01*
X122975714Y-75874285D01*
X122928095Y-75969523D01*
X122832857Y-76064761D01*
X122690000Y-76112380D01*
X122451904Y-76112380D01*
X123975714Y-76112380D02*
X123404285Y-76112380D01*
X123690000Y-76112380D02*
X123690000Y-75112380D01*
X123594761Y-75255238D01*
X123499523Y-75350476D01*
X123404285Y-75398095D01*
%TO.C,R3*%
X127707380Y-92596666D02*
X127231190Y-92930000D01*
X127707380Y-93168095D02*
X126707380Y-93168095D01*
X126707380Y-92787142D01*
X126755000Y-92691904D01*
X126802619Y-92644285D01*
X126897857Y-92596666D01*
X127040714Y-92596666D01*
X127135952Y-92644285D01*
X127183571Y-92691904D01*
X127231190Y-92787142D01*
X127231190Y-93168095D01*
X126707380Y-92263333D02*
X126707380Y-91644285D01*
X127088333Y-91977619D01*
X127088333Y-91834761D01*
X127135952Y-91739523D01*
X127183571Y-91691904D01*
X127278809Y-91644285D01*
X127516904Y-91644285D01*
X127612142Y-91691904D01*
X127659761Y-91739523D01*
X127707380Y-91834761D01*
X127707380Y-92120476D01*
X127659761Y-92215714D01*
X127612142Y-92263333D01*
%TO.C,R2*%
X131517380Y-92596666D02*
X131041190Y-92930000D01*
X131517380Y-93168095D02*
X130517380Y-93168095D01*
X130517380Y-92787142D01*
X130565000Y-92691904D01*
X130612619Y-92644285D01*
X130707857Y-92596666D01*
X130850714Y-92596666D01*
X130945952Y-92644285D01*
X130993571Y-92691904D01*
X131041190Y-92787142D01*
X131041190Y-93168095D01*
X130612619Y-92215714D02*
X130565000Y-92168095D01*
X130517380Y-92072857D01*
X130517380Y-91834761D01*
X130565000Y-91739523D01*
X130612619Y-91691904D01*
X130707857Y-91644285D01*
X130803095Y-91644285D01*
X130945952Y-91691904D01*
X131517380Y-92263333D01*
X131517380Y-91644285D01*
%TO.C,R1*%
X135327380Y-92596666D02*
X134851190Y-92930000D01*
X135327380Y-93168095D02*
X134327380Y-93168095D01*
X134327380Y-92787142D01*
X134375000Y-92691904D01*
X134422619Y-92644285D01*
X134517857Y-92596666D01*
X134660714Y-92596666D01*
X134755952Y-92644285D01*
X134803571Y-92691904D01*
X134851190Y-92787142D01*
X134851190Y-93168095D01*
X135327380Y-91644285D02*
X135327380Y-92215714D01*
X135327380Y-91930000D02*
X134327380Y-91930000D01*
X134470238Y-92025238D01*
X134565476Y-92120476D01*
X134613095Y-92215714D01*
%TO.C,R14*%
X134692380Y-41282857D02*
X134216190Y-41616190D01*
X134692380Y-41854285D02*
X133692380Y-41854285D01*
X133692380Y-41473333D01*
X133740000Y-41378095D01*
X133787619Y-41330476D01*
X133882857Y-41282857D01*
X134025714Y-41282857D01*
X134120952Y-41330476D01*
X134168571Y-41378095D01*
X134216190Y-41473333D01*
X134216190Y-41854285D01*
X134692380Y-40330476D02*
X134692380Y-40901904D01*
X134692380Y-40616190D02*
X133692380Y-40616190D01*
X133835238Y-40711428D01*
X133930476Y-40806666D01*
X133978095Y-40901904D01*
X134025714Y-39473333D02*
X134692380Y-39473333D01*
X133644761Y-39711428D02*
X134359047Y-39949523D01*
X134359047Y-39330476D01*
%TO.C,R13*%
X118942380Y-45362857D02*
X118466190Y-45696190D01*
X118942380Y-45934285D02*
X117942380Y-45934285D01*
X117942380Y-45553333D01*
X117990000Y-45458095D01*
X118037619Y-45410476D01*
X118132857Y-45362857D01*
X118275714Y-45362857D01*
X118370952Y-45410476D01*
X118418571Y-45458095D01*
X118466190Y-45553333D01*
X118466190Y-45934285D01*
X118942380Y-44410476D02*
X118942380Y-44981904D01*
X118942380Y-44696190D02*
X117942380Y-44696190D01*
X118085238Y-44791428D01*
X118180476Y-44886666D01*
X118228095Y-44981904D01*
X117942380Y-44077142D02*
X117942380Y-43458095D01*
X118323333Y-43791428D01*
X118323333Y-43648571D01*
X118370952Y-43553333D01*
X118418571Y-43505714D01*
X118513809Y-43458095D01*
X118751904Y-43458095D01*
X118847142Y-43505714D01*
X118894761Y-43553333D01*
X118942380Y-43648571D01*
X118942380Y-43934285D01*
X118894761Y-44029523D01*
X118847142Y-44077142D01*
%TO.C,R12*%
X122752380Y-45362857D02*
X122276190Y-45696190D01*
X122752380Y-45934285D02*
X121752380Y-45934285D01*
X121752380Y-45553333D01*
X121800000Y-45458095D01*
X121847619Y-45410476D01*
X121942857Y-45362857D01*
X122085714Y-45362857D01*
X122180952Y-45410476D01*
X122228571Y-45458095D01*
X122276190Y-45553333D01*
X122276190Y-45934285D01*
X122752380Y-44410476D02*
X122752380Y-44981904D01*
X122752380Y-44696190D02*
X121752380Y-44696190D01*
X121895238Y-44791428D01*
X121990476Y-44886666D01*
X122038095Y-44981904D01*
X121847619Y-44029523D02*
X121800000Y-43981904D01*
X121752380Y-43886666D01*
X121752380Y-43648571D01*
X121800000Y-43553333D01*
X121847619Y-43505714D01*
X121942857Y-43458095D01*
X122038095Y-43458095D01*
X122180952Y-43505714D01*
X122752380Y-44077142D01*
X122752380Y-43458095D01*
%TO.C,R11*%
X102942380Y-108592857D02*
X102466190Y-108926190D01*
X102942380Y-109164285D02*
X101942380Y-109164285D01*
X101942380Y-108783333D01*
X101990000Y-108688095D01*
X102037619Y-108640476D01*
X102132857Y-108592857D01*
X102275714Y-108592857D01*
X102370952Y-108640476D01*
X102418571Y-108688095D01*
X102466190Y-108783333D01*
X102466190Y-109164285D01*
X102942380Y-107640476D02*
X102942380Y-108211904D01*
X102942380Y-107926190D02*
X101942380Y-107926190D01*
X102085238Y-108021428D01*
X102180476Y-108116666D01*
X102228095Y-108211904D01*
X102942380Y-106688095D02*
X102942380Y-107259523D01*
X102942380Y-106973809D02*
X101942380Y-106973809D01*
X102085238Y-107069047D01*
X102180476Y-107164285D01*
X102228095Y-107259523D01*
%TO.C,R10*%
X116912380Y-110227857D02*
X116436190Y-110561190D01*
X116912380Y-110799285D02*
X115912380Y-110799285D01*
X115912380Y-110418333D01*
X115960000Y-110323095D01*
X116007619Y-110275476D01*
X116102857Y-110227857D01*
X116245714Y-110227857D01*
X116340952Y-110275476D01*
X116388571Y-110323095D01*
X116436190Y-110418333D01*
X116436190Y-110799285D01*
X116912380Y-109275476D02*
X116912380Y-109846904D01*
X116912380Y-109561190D02*
X115912380Y-109561190D01*
X116055238Y-109656428D01*
X116150476Y-109751666D01*
X116198095Y-109846904D01*
X115912380Y-108656428D02*
X115912380Y-108561190D01*
X115960000Y-108465952D01*
X116007619Y-108418333D01*
X116102857Y-108370714D01*
X116293333Y-108323095D01*
X116531428Y-108323095D01*
X116721904Y-108370714D01*
X116817142Y-108418333D01*
X116864761Y-108465952D01*
X116912380Y-108561190D01*
X116912380Y-108656428D01*
X116864761Y-108751666D01*
X116817142Y-108799285D01*
X116721904Y-108846904D01*
X116531428Y-108894523D01*
X116293333Y-108894523D01*
X116102857Y-108846904D01*
X116007619Y-108799285D01*
X115960000Y-108751666D01*
X115912380Y-108656428D01*
%TO.C,R9*%
X97862380Y-106846666D02*
X97386190Y-107180000D01*
X97862380Y-107418095D02*
X96862380Y-107418095D01*
X96862380Y-107037142D01*
X96910000Y-106941904D01*
X96957619Y-106894285D01*
X97052857Y-106846666D01*
X97195714Y-106846666D01*
X97290952Y-106894285D01*
X97338571Y-106941904D01*
X97386190Y-107037142D01*
X97386190Y-107418095D01*
X97862380Y-106370476D02*
X97862380Y-106180000D01*
X97814761Y-106084761D01*
X97767142Y-106037142D01*
X97624285Y-105941904D01*
X97433809Y-105894285D01*
X97052857Y-105894285D01*
X96957619Y-105941904D01*
X96910000Y-105989523D01*
X96862380Y-106084761D01*
X96862380Y-106275238D01*
X96910000Y-106370476D01*
X96957619Y-106418095D01*
X97052857Y-106465714D01*
X97290952Y-106465714D01*
X97386190Y-106418095D01*
X97433809Y-106370476D01*
X97481428Y-106275238D01*
X97481428Y-106084761D01*
X97433809Y-105989523D01*
X97386190Y-105941904D01*
X97290952Y-105894285D01*
%TO.C,R8*%
X121992380Y-119901666D02*
X121516190Y-120235000D01*
X121992380Y-120473095D02*
X120992380Y-120473095D01*
X120992380Y-120092142D01*
X121040000Y-119996904D01*
X121087619Y-119949285D01*
X121182857Y-119901666D01*
X121325714Y-119901666D01*
X121420952Y-119949285D01*
X121468571Y-119996904D01*
X121516190Y-120092142D01*
X121516190Y-120473095D01*
X121420952Y-119330238D02*
X121373333Y-119425476D01*
X121325714Y-119473095D01*
X121230476Y-119520714D01*
X121182857Y-119520714D01*
X121087619Y-119473095D01*
X121040000Y-119425476D01*
X120992380Y-119330238D01*
X120992380Y-119139761D01*
X121040000Y-119044523D01*
X121087619Y-118996904D01*
X121182857Y-118949285D01*
X121230476Y-118949285D01*
X121325714Y-118996904D01*
X121373333Y-119044523D01*
X121420952Y-119139761D01*
X121420952Y-119330238D01*
X121468571Y-119425476D01*
X121516190Y-119473095D01*
X121611428Y-119520714D01*
X121801904Y-119520714D01*
X121897142Y-119473095D01*
X121944761Y-119425476D01*
X121992380Y-119330238D01*
X121992380Y-119139761D01*
X121944761Y-119044523D01*
X121897142Y-118996904D01*
X121801904Y-118949285D01*
X121611428Y-118949285D01*
X121516190Y-118996904D01*
X121468571Y-119044523D01*
X121420952Y-119139761D01*
%TO.C,R7*%
X118182380Y-119901666D02*
X117706190Y-120235000D01*
X118182380Y-120473095D02*
X117182380Y-120473095D01*
X117182380Y-120092142D01*
X117230000Y-119996904D01*
X117277619Y-119949285D01*
X117372857Y-119901666D01*
X117515714Y-119901666D01*
X117610952Y-119949285D01*
X117658571Y-119996904D01*
X117706190Y-120092142D01*
X117706190Y-120473095D01*
X117182380Y-119568333D02*
X117182380Y-118901666D01*
X118182380Y-119330238D01*
%TO.C,R6*%
X125802380Y-119901666D02*
X125326190Y-120235000D01*
X125802380Y-120473095D02*
X124802380Y-120473095D01*
X124802380Y-120092142D01*
X124850000Y-119996904D01*
X124897619Y-119949285D01*
X124992857Y-119901666D01*
X125135714Y-119901666D01*
X125230952Y-119949285D01*
X125278571Y-119996904D01*
X125326190Y-120092142D01*
X125326190Y-120473095D01*
X124802380Y-119044523D02*
X124802380Y-119235000D01*
X124850000Y-119330238D01*
X124897619Y-119377857D01*
X125040476Y-119473095D01*
X125230952Y-119520714D01*
X125611904Y-119520714D01*
X125707142Y-119473095D01*
X125754761Y-119425476D01*
X125802380Y-119330238D01*
X125802380Y-119139761D01*
X125754761Y-119044523D01*
X125707142Y-118996904D01*
X125611904Y-118949285D01*
X125373809Y-118949285D01*
X125278571Y-118996904D01*
X125230952Y-119044523D01*
X125183333Y-119139761D01*
X125183333Y-119330238D01*
X125230952Y-119425476D01*
X125278571Y-119473095D01*
X125373809Y-119520714D01*
%TO.C,R5*%
X129612380Y-119901666D02*
X129136190Y-120235000D01*
X129612380Y-120473095D02*
X128612380Y-120473095D01*
X128612380Y-120092142D01*
X128660000Y-119996904D01*
X128707619Y-119949285D01*
X128802857Y-119901666D01*
X128945714Y-119901666D01*
X129040952Y-119949285D01*
X129088571Y-119996904D01*
X129136190Y-120092142D01*
X129136190Y-120473095D01*
X128612380Y-118996904D02*
X128612380Y-119473095D01*
X129088571Y-119520714D01*
X129040952Y-119473095D01*
X128993333Y-119377857D01*
X128993333Y-119139761D01*
X129040952Y-119044523D01*
X129088571Y-118996904D01*
X129183809Y-118949285D01*
X129421904Y-118949285D01*
X129517142Y-118996904D01*
X129564761Y-119044523D01*
X129612380Y-119139761D01*
X129612380Y-119377857D01*
X129564761Y-119473095D01*
X129517142Y-119520714D01*
%TO.C,R4*%
X106242380Y-96686666D02*
X105766190Y-97020000D01*
X106242380Y-97258095D02*
X105242380Y-97258095D01*
X105242380Y-96877142D01*
X105290000Y-96781904D01*
X105337619Y-96734285D01*
X105432857Y-96686666D01*
X105575714Y-96686666D01*
X105670952Y-96734285D01*
X105718571Y-96781904D01*
X105766190Y-96877142D01*
X105766190Y-97258095D01*
X105575714Y-95829523D02*
X106242380Y-95829523D01*
X105194761Y-96067619D02*
X105909047Y-96305714D01*
X105909047Y-95686666D01*
%TO.C,C5*%
X134757142Y-45244166D02*
X134804761Y-45291785D01*
X134852380Y-45434642D01*
X134852380Y-45529880D01*
X134804761Y-45672738D01*
X134709523Y-45767976D01*
X134614285Y-45815595D01*
X134423809Y-45863214D01*
X134280952Y-45863214D01*
X134090476Y-45815595D01*
X133995238Y-45767976D01*
X133900000Y-45672738D01*
X133852380Y-45529880D01*
X133852380Y-45434642D01*
X133900000Y-45291785D01*
X133947619Y-45244166D01*
X133852380Y-44339404D02*
X133852380Y-44815595D01*
X134328571Y-44863214D01*
X134280952Y-44815595D01*
X134233333Y-44720357D01*
X134233333Y-44482261D01*
X134280952Y-44387023D01*
X134328571Y-44339404D01*
X134423809Y-44291785D01*
X134661904Y-44291785D01*
X134757142Y-44339404D01*
X134804761Y-44387023D01*
X134852380Y-44482261D01*
X134852380Y-44720357D01*
X134804761Y-44815595D01*
X134757142Y-44863214D01*
%TO.C,C4*%
X115707142Y-40179166D02*
X115754761Y-40226785D01*
X115802380Y-40369642D01*
X115802380Y-40464880D01*
X115754761Y-40607738D01*
X115659523Y-40702976D01*
X115564285Y-40750595D01*
X115373809Y-40798214D01*
X115230952Y-40798214D01*
X115040476Y-40750595D01*
X114945238Y-40702976D01*
X114850000Y-40607738D01*
X114802380Y-40464880D01*
X114802380Y-40369642D01*
X114850000Y-40226785D01*
X114897619Y-40179166D01*
X115135714Y-39322023D02*
X115802380Y-39322023D01*
X114754761Y-39560119D02*
X115469047Y-39798214D01*
X115469047Y-39179166D01*
%TO.C,C3*%
X122497142Y-40179166D02*
X122544761Y-40226785D01*
X122592380Y-40369642D01*
X122592380Y-40464880D01*
X122544761Y-40607738D01*
X122449523Y-40702976D01*
X122354285Y-40750595D01*
X122163809Y-40798214D01*
X122020952Y-40798214D01*
X121830476Y-40750595D01*
X121735238Y-40702976D01*
X121640000Y-40607738D01*
X121592380Y-40464880D01*
X121592380Y-40369642D01*
X121640000Y-40226785D01*
X121687619Y-40179166D01*
X121592380Y-39845833D02*
X121592380Y-39226785D01*
X121973333Y-39560119D01*
X121973333Y-39417261D01*
X122020952Y-39322023D01*
X122068571Y-39274404D01*
X122163809Y-39226785D01*
X122401904Y-39226785D01*
X122497142Y-39274404D01*
X122544761Y-39322023D01*
X122592380Y-39417261D01*
X122592380Y-39702976D01*
X122544761Y-39798214D01*
X122497142Y-39845833D01*
%TO.C,C1*%
X117951333Y-72527142D02*
X117903714Y-72574761D01*
X117760857Y-72622380D01*
X117665619Y-72622380D01*
X117522761Y-72574761D01*
X117427523Y-72479523D01*
X117379904Y-72384285D01*
X117332285Y-72193809D01*
X117332285Y-72050952D01*
X117379904Y-71860476D01*
X117427523Y-71765238D01*
X117522761Y-71670000D01*
X117665619Y-71622380D01*
X117760857Y-71622380D01*
X117903714Y-71670000D01*
X117951333Y-71717619D01*
X118903714Y-72622380D02*
X118332285Y-72622380D01*
X118618000Y-72622380D02*
X118618000Y-71622380D01*
X118522761Y-71765238D01*
X118427523Y-71860476D01*
X118332285Y-71908095D01*
%TO.C,C13*%
X127382142Y-110602857D02*
X127429761Y-110650476D01*
X127477380Y-110793333D01*
X127477380Y-110888571D01*
X127429761Y-111031428D01*
X127334523Y-111126666D01*
X127239285Y-111174285D01*
X127048809Y-111221904D01*
X126905952Y-111221904D01*
X126715476Y-111174285D01*
X126620238Y-111126666D01*
X126525000Y-111031428D01*
X126477380Y-110888571D01*
X126477380Y-110793333D01*
X126525000Y-110650476D01*
X126572619Y-110602857D01*
X127477380Y-109650476D02*
X127477380Y-110221904D01*
X127477380Y-109936190D02*
X126477380Y-109936190D01*
X126620238Y-110031428D01*
X126715476Y-110126666D01*
X126763095Y-110221904D01*
X126477380Y-109317142D02*
X126477380Y-108698095D01*
X126858333Y-109031428D01*
X126858333Y-108888571D01*
X126905952Y-108793333D01*
X126953571Y-108745714D01*
X127048809Y-108698095D01*
X127286904Y-108698095D01*
X127382142Y-108745714D01*
X127429761Y-108793333D01*
X127477380Y-108888571D01*
X127477380Y-109174285D01*
X127429761Y-109269523D01*
X127382142Y-109317142D01*
%TO.C,C12*%
X123572142Y-102982857D02*
X123619761Y-103030476D01*
X123667380Y-103173333D01*
X123667380Y-103268571D01*
X123619761Y-103411428D01*
X123524523Y-103506666D01*
X123429285Y-103554285D01*
X123238809Y-103601904D01*
X123095952Y-103601904D01*
X122905476Y-103554285D01*
X122810238Y-103506666D01*
X122715000Y-103411428D01*
X122667380Y-103268571D01*
X122667380Y-103173333D01*
X122715000Y-103030476D01*
X122762619Y-102982857D01*
X123667380Y-102030476D02*
X123667380Y-102601904D01*
X123667380Y-102316190D02*
X122667380Y-102316190D01*
X122810238Y-102411428D01*
X122905476Y-102506666D01*
X122953095Y-102601904D01*
X122762619Y-101649523D02*
X122715000Y-101601904D01*
X122667380Y-101506666D01*
X122667380Y-101268571D01*
X122715000Y-101173333D01*
X122762619Y-101125714D01*
X122857857Y-101078095D01*
X122953095Y-101078095D01*
X123095952Y-101125714D01*
X123667380Y-101697142D01*
X123667380Y-101078095D01*
%TO.C,C11*%
X128652142Y-102982857D02*
X128699761Y-103030476D01*
X128747380Y-103173333D01*
X128747380Y-103268571D01*
X128699761Y-103411428D01*
X128604523Y-103506666D01*
X128509285Y-103554285D01*
X128318809Y-103601904D01*
X128175952Y-103601904D01*
X127985476Y-103554285D01*
X127890238Y-103506666D01*
X127795000Y-103411428D01*
X127747380Y-103268571D01*
X127747380Y-103173333D01*
X127795000Y-103030476D01*
X127842619Y-102982857D01*
X128747380Y-102030476D02*
X128747380Y-102601904D01*
X128747380Y-102316190D02*
X127747380Y-102316190D01*
X127890238Y-102411428D01*
X127985476Y-102506666D01*
X128033095Y-102601904D01*
X128747380Y-101078095D02*
X128747380Y-101649523D01*
X128747380Y-101363809D02*
X127747380Y-101363809D01*
X127890238Y-101459047D01*
X127985476Y-101554285D01*
X128033095Y-101649523D01*
%TO.C,C10*%
X137542142Y-110602857D02*
X137589761Y-110650476D01*
X137637380Y-110793333D01*
X137637380Y-110888571D01*
X137589761Y-111031428D01*
X137494523Y-111126666D01*
X137399285Y-111174285D01*
X137208809Y-111221904D01*
X137065952Y-111221904D01*
X136875476Y-111174285D01*
X136780238Y-111126666D01*
X136685000Y-111031428D01*
X136637380Y-110888571D01*
X136637380Y-110793333D01*
X136685000Y-110650476D01*
X136732619Y-110602857D01*
X137637380Y-109650476D02*
X137637380Y-110221904D01*
X137637380Y-109936190D02*
X136637380Y-109936190D01*
X136780238Y-110031428D01*
X136875476Y-110126666D01*
X136923095Y-110221904D01*
X136637380Y-109031428D02*
X136637380Y-108936190D01*
X136685000Y-108840952D01*
X136732619Y-108793333D01*
X136827857Y-108745714D01*
X137018333Y-108698095D01*
X137256428Y-108698095D01*
X137446904Y-108745714D01*
X137542142Y-108793333D01*
X137589761Y-108840952D01*
X137637380Y-108936190D01*
X137637380Y-109031428D01*
X137589761Y-109126666D01*
X137542142Y-109174285D01*
X137446904Y-109221904D01*
X137256428Y-109269523D01*
X137018333Y-109269523D01*
X136827857Y-109221904D01*
X136732619Y-109174285D01*
X136685000Y-109126666D01*
X136637380Y-109031428D01*
%TO.C,C2*%
X132462142Y-110126666D02*
X132509761Y-110174285D01*
X132557380Y-110317142D01*
X132557380Y-110412380D01*
X132509761Y-110555238D01*
X132414523Y-110650476D01*
X132319285Y-110698095D01*
X132128809Y-110745714D01*
X131985952Y-110745714D01*
X131795476Y-110698095D01*
X131700238Y-110650476D01*
X131605000Y-110555238D01*
X131557380Y-110412380D01*
X131557380Y-110317142D01*
X131605000Y-110174285D01*
X131652619Y-110126666D01*
X131652619Y-109745714D02*
X131605000Y-109698095D01*
X131557380Y-109602857D01*
X131557380Y-109364761D01*
X131605000Y-109269523D01*
X131652619Y-109221904D01*
X131747857Y-109174285D01*
X131843095Y-109174285D01*
X131985952Y-109221904D01*
X132557380Y-109793333D01*
X132557380Y-109174285D01*
%TO.C,J6*%
X110156666Y-126452380D02*
X110156666Y-127166666D01*
X110109047Y-127309523D01*
X110013809Y-127404761D01*
X109870952Y-127452380D01*
X109775714Y-127452380D01*
X111061428Y-126452380D02*
X110870952Y-126452380D01*
X110775714Y-126500000D01*
X110728095Y-126547619D01*
X110632857Y-126690476D01*
X110585238Y-126880952D01*
X110585238Y-127261904D01*
X110632857Y-127357142D01*
X110680476Y-127404761D01*
X110775714Y-127452380D01*
X110966190Y-127452380D01*
X111061428Y-127404761D01*
X111109047Y-127357142D01*
X111156666Y-127261904D01*
X111156666Y-127023809D01*
X111109047Y-126928571D01*
X111061428Y-126880952D01*
X110966190Y-126833333D01*
X110775714Y-126833333D01*
X110680476Y-126880952D01*
X110632857Y-126928571D01*
X110585238Y-127023809D01*
%TO.C,J2*%
X98726666Y-83062380D02*
X98726666Y-83776666D01*
X98679047Y-83919523D01*
X98583809Y-84014761D01*
X98440952Y-84062380D01*
X98345714Y-84062380D01*
X99155238Y-83157619D02*
X99202857Y-83110000D01*
X99298095Y-83062380D01*
X99536190Y-83062380D01*
X99631428Y-83110000D01*
X99679047Y-83157619D01*
X99726666Y-83252857D01*
X99726666Y-83348095D01*
X99679047Y-83490952D01*
X99107619Y-84062380D01*
X99726666Y-84062380D01*
X102052380Y-79826666D02*
X101052380Y-79826666D01*
X102052380Y-79255238D01*
X101052380Y-79255238D01*
X101528571Y-78779047D02*
X101528571Y-78445714D01*
X102052380Y-78302857D02*
X102052380Y-78779047D01*
X101052380Y-78779047D01*
X101052380Y-78302857D01*
X102004761Y-77921904D02*
X102052380Y-77779047D01*
X102052380Y-77540952D01*
X102004761Y-77445714D01*
X101957142Y-77398095D01*
X101861904Y-77350476D01*
X101766666Y-77350476D01*
X101671428Y-77398095D01*
X101623809Y-77445714D01*
X101576190Y-77540952D01*
X101528571Y-77731428D01*
X101480952Y-77826666D01*
X101433333Y-77874285D01*
X101338095Y-77921904D01*
X101242857Y-77921904D01*
X101147619Y-77874285D01*
X101100000Y-77826666D01*
X101052380Y-77731428D01*
X101052380Y-77493333D01*
X101100000Y-77350476D01*
X101671428Y-76921904D02*
X101671428Y-76160000D01*
X102004761Y-75731428D02*
X102052380Y-75588571D01*
X102052380Y-75350476D01*
X102004761Y-75255238D01*
X101957142Y-75207619D01*
X101861904Y-75160000D01*
X101766666Y-75160000D01*
X101671428Y-75207619D01*
X101623809Y-75255238D01*
X101576190Y-75350476D01*
X101528571Y-75540952D01*
X101480952Y-75636190D01*
X101433333Y-75683809D01*
X101338095Y-75731428D01*
X101242857Y-75731428D01*
X101147619Y-75683809D01*
X101100000Y-75636190D01*
X101052380Y-75540952D01*
X101052380Y-75302857D01*
X101100000Y-75160000D01*
X102052380Y-74731428D02*
X101052380Y-74731428D01*
X102052380Y-74160000D01*
X101052380Y-74160000D01*
X101528571Y-73683809D02*
X101528571Y-73350476D01*
X102052380Y-73207619D02*
X102052380Y-73683809D01*
X101052380Y-73683809D01*
X101052380Y-73207619D01*
X102004761Y-72826666D02*
X102052380Y-72683809D01*
X102052380Y-72445714D01*
X102004761Y-72350476D01*
X101957142Y-72302857D01*
X101861904Y-72255238D01*
X101766666Y-72255238D01*
X101671428Y-72302857D01*
X101623809Y-72350476D01*
X101576190Y-72445714D01*
X101528571Y-72636190D01*
X101480952Y-72731428D01*
X101433333Y-72779047D01*
X101338095Y-72826666D01*
X101242857Y-72826666D01*
X101147619Y-72779047D01*
X101100000Y-72731428D01*
X101052380Y-72636190D01*
X101052380Y-72398095D01*
X101100000Y-72255238D01*
X102052380Y-71064761D02*
X101052380Y-71064761D01*
X101052380Y-70683809D01*
X101100000Y-70588571D01*
X101147619Y-70540952D01*
X101242857Y-70493333D01*
X101385714Y-70493333D01*
X101480952Y-70540952D01*
X101528571Y-70588571D01*
X101576190Y-70683809D01*
X101576190Y-71064761D01*
X102052380Y-69921904D02*
X102004761Y-70017142D01*
X101957142Y-70064761D01*
X101861904Y-70112380D01*
X101576190Y-70112380D01*
X101480952Y-70064761D01*
X101433333Y-70017142D01*
X101385714Y-69921904D01*
X101385714Y-69779047D01*
X101433333Y-69683809D01*
X101480952Y-69636190D01*
X101576190Y-69588571D01*
X101861904Y-69588571D01*
X101957142Y-69636190D01*
X102004761Y-69683809D01*
X102052380Y-69779047D01*
X102052380Y-69921904D01*
X102052380Y-69160000D02*
X101385714Y-69160000D01*
X101576190Y-69160000D02*
X101480952Y-69112380D01*
X101433333Y-69064761D01*
X101385714Y-68969523D01*
X101385714Y-68874285D01*
X101385714Y-68683809D02*
X101385714Y-68302857D01*
X101052380Y-68540952D02*
X101909523Y-68540952D01*
X102004761Y-68493333D01*
X102052380Y-68398095D01*
X102052380Y-68302857D01*
X101147619Y-68017142D02*
X101100000Y-67969523D01*
X101052380Y-67874285D01*
X101052380Y-67636190D01*
X101100000Y-67540952D01*
X101147619Y-67493333D01*
X101242857Y-67445714D01*
X101338095Y-67445714D01*
X101480952Y-67493333D01*
X102052380Y-68064761D01*
X102052380Y-67445714D01*
%TO.C,J1*%
X98726666Y-83482380D02*
X98726666Y-84196666D01*
X98679047Y-84339523D01*
X98583809Y-84434761D01*
X98440952Y-84482380D01*
X98345714Y-84482380D01*
X99726666Y-84482380D02*
X99155238Y-84482380D01*
X99440952Y-84482380D02*
X99440952Y-83482380D01*
X99345714Y-83625238D01*
X99250476Y-83720476D01*
X99155238Y-83768095D01*
X102052380Y-100146666D02*
X101052380Y-100146666D01*
X102052380Y-99575238D01*
X101052380Y-99575238D01*
X101528571Y-99099047D02*
X101528571Y-98765714D01*
X102052380Y-98622857D02*
X102052380Y-99099047D01*
X101052380Y-99099047D01*
X101052380Y-98622857D01*
X102004761Y-98241904D02*
X102052380Y-98099047D01*
X102052380Y-97860952D01*
X102004761Y-97765714D01*
X101957142Y-97718095D01*
X101861904Y-97670476D01*
X101766666Y-97670476D01*
X101671428Y-97718095D01*
X101623809Y-97765714D01*
X101576190Y-97860952D01*
X101528571Y-98051428D01*
X101480952Y-98146666D01*
X101433333Y-98194285D01*
X101338095Y-98241904D01*
X101242857Y-98241904D01*
X101147619Y-98194285D01*
X101100000Y-98146666D01*
X101052380Y-98051428D01*
X101052380Y-97813333D01*
X101100000Y-97670476D01*
X101671428Y-97241904D02*
X101671428Y-96480000D01*
X102004761Y-96051428D02*
X102052380Y-95908571D01*
X102052380Y-95670476D01*
X102004761Y-95575238D01*
X101957142Y-95527619D01*
X101861904Y-95480000D01*
X101766666Y-95480000D01*
X101671428Y-95527619D01*
X101623809Y-95575238D01*
X101576190Y-95670476D01*
X101528571Y-95860952D01*
X101480952Y-95956190D01*
X101433333Y-96003809D01*
X101338095Y-96051428D01*
X101242857Y-96051428D01*
X101147619Y-96003809D01*
X101100000Y-95956190D01*
X101052380Y-95860952D01*
X101052380Y-95622857D01*
X101100000Y-95480000D01*
X102052380Y-95051428D02*
X101052380Y-95051428D01*
X102052380Y-94480000D01*
X101052380Y-94480000D01*
X101528571Y-94003809D02*
X101528571Y-93670476D01*
X102052380Y-93527619D02*
X102052380Y-94003809D01*
X101052380Y-94003809D01*
X101052380Y-93527619D01*
X102004761Y-93146666D02*
X102052380Y-93003809D01*
X102052380Y-92765714D01*
X102004761Y-92670476D01*
X101957142Y-92622857D01*
X101861904Y-92575238D01*
X101766666Y-92575238D01*
X101671428Y-92622857D01*
X101623809Y-92670476D01*
X101576190Y-92765714D01*
X101528571Y-92956190D01*
X101480952Y-93051428D01*
X101433333Y-93099047D01*
X101338095Y-93146666D01*
X101242857Y-93146666D01*
X101147619Y-93099047D01*
X101100000Y-93051428D01*
X101052380Y-92956190D01*
X101052380Y-92718095D01*
X101100000Y-92575238D01*
X102052380Y-91384761D02*
X101052380Y-91384761D01*
X101052380Y-91003809D01*
X101100000Y-90908571D01*
X101147619Y-90860952D01*
X101242857Y-90813333D01*
X101385714Y-90813333D01*
X101480952Y-90860952D01*
X101528571Y-90908571D01*
X101576190Y-91003809D01*
X101576190Y-91384761D01*
X102052380Y-90241904D02*
X102004761Y-90337142D01*
X101957142Y-90384761D01*
X101861904Y-90432380D01*
X101576190Y-90432380D01*
X101480952Y-90384761D01*
X101433333Y-90337142D01*
X101385714Y-90241904D01*
X101385714Y-90099047D01*
X101433333Y-90003809D01*
X101480952Y-89956190D01*
X101576190Y-89908571D01*
X101861904Y-89908571D01*
X101957142Y-89956190D01*
X102004761Y-90003809D01*
X102052380Y-90099047D01*
X102052380Y-90241904D01*
X102052380Y-89480000D02*
X101385714Y-89480000D01*
X101576190Y-89480000D02*
X101480952Y-89432380D01*
X101433333Y-89384761D01*
X101385714Y-89289523D01*
X101385714Y-89194285D01*
X101385714Y-89003809D02*
X101385714Y-88622857D01*
X101052380Y-88860952D02*
X101909523Y-88860952D01*
X102004761Y-88813333D01*
X102052380Y-88718095D01*
X102052380Y-88622857D01*
X102052380Y-87765714D02*
X102052380Y-88337142D01*
X102052380Y-88051428D02*
X101052380Y-88051428D01*
X101195238Y-88146666D01*
X101290476Y-88241904D01*
X101338095Y-88337142D01*
%TO.C,U2*%
X127508095Y-36717380D02*
X127508095Y-37526904D01*
X127555714Y-37622142D01*
X127603333Y-37669761D01*
X127698571Y-37717380D01*
X127889047Y-37717380D01*
X127984285Y-37669761D01*
X128031904Y-37622142D01*
X128079523Y-37526904D01*
X128079523Y-36717380D01*
X128508095Y-36812619D02*
X128555714Y-36765000D01*
X128650952Y-36717380D01*
X128889047Y-36717380D01*
X128984285Y-36765000D01*
X129031904Y-36812619D01*
X129079523Y-36907857D01*
X129079523Y-37003095D01*
X129031904Y-37145952D01*
X128460476Y-37717380D01*
X129079523Y-37717380D01*
X125150952Y-47277380D02*
X125817619Y-47277380D01*
X125389047Y-48277380D01*
X126627142Y-47610714D02*
X126627142Y-48277380D01*
X126389047Y-47229761D02*
X126150952Y-47944047D01*
X126770000Y-47944047D01*
X127627142Y-48277380D02*
X127150952Y-48277380D01*
X127150952Y-47277380D01*
X127912857Y-48229761D02*
X128055714Y-48277380D01*
X128293809Y-48277380D01*
X128389047Y-48229761D01*
X128436666Y-48182142D01*
X128484285Y-48086904D01*
X128484285Y-47991666D01*
X128436666Y-47896428D01*
X128389047Y-47848809D01*
X128293809Y-47801190D01*
X128103333Y-47753571D01*
X128008095Y-47705952D01*
X127960476Y-47658333D01*
X127912857Y-47563095D01*
X127912857Y-47467857D01*
X127960476Y-47372619D01*
X128008095Y-47325000D01*
X128103333Y-47277380D01*
X128341428Y-47277380D01*
X128484285Y-47325000D01*
X129436666Y-48277380D02*
X128865238Y-48277380D01*
X129150952Y-48277380D02*
X129150952Y-47277380D01*
X129055714Y-47420238D01*
X128960476Y-47515476D01*
X128865238Y-47563095D01*
X129770000Y-47277380D02*
X130389047Y-47277380D01*
X130055714Y-47658333D01*
X130198571Y-47658333D01*
X130293809Y-47705952D01*
X130341428Y-47753571D01*
X130389047Y-47848809D01*
X130389047Y-48086904D01*
X130341428Y-48182142D01*
X130293809Y-48229761D01*
X130198571Y-48277380D01*
X129912857Y-48277380D01*
X129817619Y-48229761D01*
X129770000Y-48182142D01*
X130770000Y-47372619D02*
X130817619Y-47325000D01*
X130912857Y-47277380D01*
X131150952Y-47277380D01*
X131246190Y-47325000D01*
X131293809Y-47372619D01*
X131341428Y-47467857D01*
X131341428Y-47563095D01*
X131293809Y-47705952D01*
X130722380Y-48277380D01*
X131341428Y-48277380D01*
%TO.C,BU9480F1*%
X129688571Y-103591904D02*
X129736190Y-103449047D01*
X129783809Y-103401428D01*
X129879047Y-103353809D01*
X130021904Y-103353809D01*
X130117142Y-103401428D01*
X130164761Y-103449047D01*
X130212380Y-103544285D01*
X130212380Y-103925238D01*
X129212380Y-103925238D01*
X129212380Y-103591904D01*
X129260000Y-103496666D01*
X129307619Y-103449047D01*
X129402857Y-103401428D01*
X129498095Y-103401428D01*
X129593333Y-103449047D01*
X129640952Y-103496666D01*
X129688571Y-103591904D01*
X129688571Y-103925238D01*
X129212380Y-102925238D02*
X130021904Y-102925238D01*
X130117142Y-102877619D01*
X130164761Y-102830000D01*
X130212380Y-102734761D01*
X130212380Y-102544285D01*
X130164761Y-102449047D01*
X130117142Y-102401428D01*
X130021904Y-102353809D01*
X129212380Y-102353809D01*
X130212380Y-101830000D02*
X130212380Y-101639523D01*
X130164761Y-101544285D01*
X130117142Y-101496666D01*
X129974285Y-101401428D01*
X129783809Y-101353809D01*
X129402857Y-101353809D01*
X129307619Y-101401428D01*
X129260000Y-101449047D01*
X129212380Y-101544285D01*
X129212380Y-101734761D01*
X129260000Y-101830000D01*
X129307619Y-101877619D01*
X129402857Y-101925238D01*
X129640952Y-101925238D01*
X129736190Y-101877619D01*
X129783809Y-101830000D01*
X129831428Y-101734761D01*
X129831428Y-101544285D01*
X129783809Y-101449047D01*
X129736190Y-101401428D01*
X129640952Y-101353809D01*
X129545714Y-100496666D02*
X130212380Y-100496666D01*
X129164761Y-100734761D02*
X129879047Y-100972857D01*
X129879047Y-100353809D01*
X129640952Y-99830000D02*
X129593333Y-99925238D01*
X129545714Y-99972857D01*
X129450476Y-100020476D01*
X129402857Y-100020476D01*
X129307619Y-99972857D01*
X129260000Y-99925238D01*
X129212380Y-99830000D01*
X129212380Y-99639523D01*
X129260000Y-99544285D01*
X129307619Y-99496666D01*
X129402857Y-99449047D01*
X129450476Y-99449047D01*
X129545714Y-99496666D01*
X129593333Y-99544285D01*
X129640952Y-99639523D01*
X129640952Y-99830000D01*
X129688571Y-99925238D01*
X129736190Y-99972857D01*
X129831428Y-100020476D01*
X130021904Y-100020476D01*
X130117142Y-99972857D01*
X130164761Y-99925238D01*
X130212380Y-99830000D01*
X130212380Y-99639523D01*
X130164761Y-99544285D01*
X130117142Y-99496666D01*
X130021904Y-99449047D01*
X129831428Y-99449047D01*
X129736190Y-99496666D01*
X129688571Y-99544285D01*
X129640952Y-99639523D01*
X129212380Y-98830000D02*
X129212380Y-98734761D01*
X129260000Y-98639523D01*
X129307619Y-98591904D01*
X129402857Y-98544285D01*
X129593333Y-98496666D01*
X129831428Y-98496666D01*
X130021904Y-98544285D01*
X130117142Y-98591904D01*
X130164761Y-98639523D01*
X130212380Y-98734761D01*
X130212380Y-98830000D01*
X130164761Y-98925238D01*
X130117142Y-98972857D01*
X130021904Y-99020476D01*
X129831428Y-99068095D01*
X129593333Y-99068095D01*
X129402857Y-99020476D01*
X129307619Y-98972857D01*
X129260000Y-98925238D01*
X129212380Y-98830000D01*
X129688571Y-97734761D02*
X129688571Y-98068095D01*
X130212380Y-98068095D02*
X129212380Y-98068095D01*
X129212380Y-97591904D01*
X130212380Y-96687142D02*
X130212380Y-97258571D01*
X130212380Y-96972857D02*
X129212380Y-96972857D01*
X129355238Y-97068095D01*
X129450476Y-97163333D01*
X129498095Y-97258571D01*
%TO.C,U1*%
X98962380Y-42671904D02*
X99771904Y-42671904D01*
X99867142Y-42624285D01*
X99914761Y-42576666D01*
X99962380Y-42481428D01*
X99962380Y-42290952D01*
X99914761Y-42195714D01*
X99867142Y-42148095D01*
X99771904Y-42100476D01*
X98962380Y-42100476D01*
X99962380Y-41100476D02*
X99962380Y-41671904D01*
X99962380Y-41386190D02*
X98962380Y-41386190D01*
X99105238Y-41481428D01*
X99200476Y-41576666D01*
X99248095Y-41671904D01*
X110762380Y-45029047D02*
X110762380Y-44362380D01*
X111762380Y-44790952D01*
X111095714Y-43552857D02*
X111762380Y-43552857D01*
X110714761Y-43790952D02*
X111429047Y-44029047D01*
X111429047Y-43410000D01*
X111762380Y-42552857D02*
X111762380Y-43029047D01*
X110762380Y-43029047D01*
X111714761Y-42267142D02*
X111762380Y-42124285D01*
X111762380Y-41886190D01*
X111714761Y-41790952D01*
X111667142Y-41743333D01*
X111571904Y-41695714D01*
X111476666Y-41695714D01*
X111381428Y-41743333D01*
X111333809Y-41790952D01*
X111286190Y-41886190D01*
X111238571Y-42076666D01*
X111190952Y-42171904D01*
X111143333Y-42219523D01*
X111048095Y-42267142D01*
X110952857Y-42267142D01*
X110857619Y-42219523D01*
X110810000Y-42171904D01*
X110762380Y-42076666D01*
X110762380Y-41838571D01*
X110810000Y-41695714D01*
X111762380Y-40743333D02*
X111762380Y-41314761D01*
X111762380Y-41029047D02*
X110762380Y-41029047D01*
X110905238Y-41124285D01*
X111000476Y-41219523D01*
X111048095Y-41314761D01*
X110762380Y-40410000D02*
X110762380Y-39790952D01*
X111143333Y-40124285D01*
X111143333Y-39981428D01*
X111190952Y-39886190D01*
X111238571Y-39838571D01*
X111333809Y-39790952D01*
X111571904Y-39790952D01*
X111667142Y-39838571D01*
X111714761Y-39886190D01*
X111762380Y-39981428D01*
X111762380Y-40267142D01*
X111714761Y-40362380D01*
X111667142Y-40410000D01*
X111762380Y-39314761D02*
X111762380Y-39124285D01*
X111714761Y-39029047D01*
X111667142Y-38981428D01*
X111524285Y-38886190D01*
X111333809Y-38838571D01*
X110952857Y-38838571D01*
X110857619Y-38886190D01*
X110810000Y-38933809D01*
X110762380Y-39029047D01*
X110762380Y-39219523D01*
X110810000Y-39314761D01*
X110857619Y-39362380D01*
X110952857Y-39410000D01*
X111190952Y-39410000D01*
X111286190Y-39362380D01*
X111333809Y-39314761D01*
X111381428Y-39219523D01*
X111381428Y-39029047D01*
X111333809Y-38933809D01*
X111286190Y-38886190D01*
X111190952Y-38838571D01*
%TO.C,U10*%
X99091904Y-50702380D02*
X99091904Y-51511904D01*
X99139523Y-51607142D01*
X99187142Y-51654761D01*
X99282380Y-51702380D01*
X99472857Y-51702380D01*
X99568095Y-51654761D01*
X99615714Y-51607142D01*
X99663333Y-51511904D01*
X99663333Y-50702380D01*
X100663333Y-51702380D02*
X100091904Y-51702380D01*
X100377619Y-51702380D02*
X100377619Y-50702380D01*
X100282380Y-50845238D01*
X100187142Y-50940476D01*
X100091904Y-50988095D01*
X101282380Y-50702380D02*
X101377619Y-50702380D01*
X101472857Y-50750000D01*
X101520476Y-50797619D01*
X101568095Y-50892857D01*
X101615714Y-51083333D01*
X101615714Y-51321428D01*
X101568095Y-51511904D01*
X101520476Y-51607142D01*
X101472857Y-51654761D01*
X101377619Y-51702380D01*
X101282380Y-51702380D01*
X101187142Y-51654761D01*
X101139523Y-51607142D01*
X101091904Y-51511904D01*
X101044285Y-51321428D01*
X101044285Y-51083333D01*
X101091904Y-50892857D01*
X101139523Y-50797619D01*
X101187142Y-50750000D01*
X101282380Y-50702380D01*
X97210952Y-62502380D02*
X97877619Y-62502380D01*
X97449047Y-63502380D01*
X98687142Y-62835714D02*
X98687142Y-63502380D01*
X98449047Y-62454761D02*
X98210952Y-63169047D01*
X98830000Y-63169047D01*
X99687142Y-63502380D02*
X99210952Y-63502380D01*
X99210952Y-62502380D01*
X99972857Y-63454761D02*
X100115714Y-63502380D01*
X100353809Y-63502380D01*
X100449047Y-63454761D01*
X100496666Y-63407142D01*
X100544285Y-63311904D01*
X100544285Y-63216666D01*
X100496666Y-63121428D01*
X100449047Y-63073809D01*
X100353809Y-63026190D01*
X100163333Y-62978571D01*
X100068095Y-62930952D01*
X100020476Y-62883333D01*
X99972857Y-62788095D01*
X99972857Y-62692857D01*
X100020476Y-62597619D01*
X100068095Y-62550000D01*
X100163333Y-62502380D01*
X100401428Y-62502380D01*
X100544285Y-62550000D01*
X100925238Y-62597619D02*
X100972857Y-62550000D01*
X101068095Y-62502380D01*
X101306190Y-62502380D01*
X101401428Y-62550000D01*
X101449047Y-62597619D01*
X101496666Y-62692857D01*
X101496666Y-62788095D01*
X101449047Y-62930952D01*
X100877619Y-63502380D01*
X101496666Y-63502380D01*
X102401428Y-62502380D02*
X101925238Y-62502380D01*
X101877619Y-62978571D01*
X101925238Y-62930952D01*
X102020476Y-62883333D01*
X102258571Y-62883333D01*
X102353809Y-62930952D01*
X102401428Y-62978571D01*
X102449047Y-63073809D01*
X102449047Y-63311904D01*
X102401428Y-63407142D01*
X102353809Y-63454761D01*
X102258571Y-63502380D01*
X102020476Y-63502380D01*
X101925238Y-63454761D01*
X101877619Y-63407142D01*
X102782380Y-62502380D02*
X103449047Y-62502380D01*
X103020476Y-63502380D01*
%TO.C,U9*%
X135977380Y-66801904D02*
X136786904Y-66801904D01*
X136882142Y-66754285D01*
X136929761Y-66706666D01*
X136977380Y-66611428D01*
X136977380Y-66420952D01*
X136929761Y-66325714D01*
X136882142Y-66278095D01*
X136786904Y-66230476D01*
X135977380Y-66230476D01*
X136977380Y-65706666D02*
X136977380Y-65516190D01*
X136929761Y-65420952D01*
X136882142Y-65373333D01*
X136739285Y-65278095D01*
X136548809Y-65230476D01*
X136167857Y-65230476D01*
X136072619Y-65278095D01*
X136025000Y-65325714D01*
X135977380Y-65420952D01*
X135977380Y-65611428D01*
X136025000Y-65706666D01*
X136072619Y-65754285D01*
X136167857Y-65801904D01*
X136405952Y-65801904D01*
X136501190Y-65754285D01*
X136548809Y-65706666D01*
X136596428Y-65611428D01*
X136596428Y-65420952D01*
X136548809Y-65325714D01*
X136501190Y-65278095D01*
X136405952Y-65230476D01*
X125632380Y-69159047D02*
X125632380Y-68492380D01*
X126632380Y-68920952D01*
X125965714Y-67682857D02*
X126632380Y-67682857D01*
X125584761Y-67920952D02*
X126299047Y-68159047D01*
X126299047Y-67540000D01*
X126632380Y-66682857D02*
X126632380Y-67159047D01*
X125632380Y-67159047D01*
X126584761Y-66397142D02*
X126632380Y-66254285D01*
X126632380Y-66016190D01*
X126584761Y-65920952D01*
X126537142Y-65873333D01*
X126441904Y-65825714D01*
X126346666Y-65825714D01*
X126251428Y-65873333D01*
X126203809Y-65920952D01*
X126156190Y-66016190D01*
X126108571Y-66206666D01*
X126060952Y-66301904D01*
X126013333Y-66349523D01*
X125918095Y-66397142D01*
X125822857Y-66397142D01*
X125727619Y-66349523D01*
X125680000Y-66301904D01*
X125632380Y-66206666D01*
X125632380Y-65968571D01*
X125680000Y-65825714D01*
X125727619Y-65444761D02*
X125680000Y-65397142D01*
X125632380Y-65301904D01*
X125632380Y-65063809D01*
X125680000Y-64968571D01*
X125727619Y-64920952D01*
X125822857Y-64873333D01*
X125918095Y-64873333D01*
X126060952Y-64920952D01*
X126632380Y-65492380D01*
X126632380Y-64873333D01*
X125632380Y-63968571D02*
X125632380Y-64444761D01*
X126108571Y-64492380D01*
X126060952Y-64444761D01*
X126013333Y-64349523D01*
X126013333Y-64111428D01*
X126060952Y-64016190D01*
X126108571Y-63968571D01*
X126203809Y-63920952D01*
X126441904Y-63920952D01*
X126537142Y-63968571D01*
X126584761Y-64016190D01*
X126632380Y-64111428D01*
X126632380Y-64349523D01*
X126584761Y-64444761D01*
X126537142Y-64492380D01*
X125632380Y-63587619D02*
X125632380Y-62920952D01*
X126632380Y-63349523D01*
%TO.C,U8*%
X124547380Y-66801904D02*
X125356904Y-66801904D01*
X125452142Y-66754285D01*
X125499761Y-66706666D01*
X125547380Y-66611428D01*
X125547380Y-66420952D01*
X125499761Y-66325714D01*
X125452142Y-66278095D01*
X125356904Y-66230476D01*
X124547380Y-66230476D01*
X124975952Y-65611428D02*
X124928333Y-65706666D01*
X124880714Y-65754285D01*
X124785476Y-65801904D01*
X124737857Y-65801904D01*
X124642619Y-65754285D01*
X124595000Y-65706666D01*
X124547380Y-65611428D01*
X124547380Y-65420952D01*
X124595000Y-65325714D01*
X124642619Y-65278095D01*
X124737857Y-65230476D01*
X124785476Y-65230476D01*
X124880714Y-65278095D01*
X124928333Y-65325714D01*
X124975952Y-65420952D01*
X124975952Y-65611428D01*
X125023571Y-65706666D01*
X125071190Y-65754285D01*
X125166428Y-65801904D01*
X125356904Y-65801904D01*
X125452142Y-65754285D01*
X125499761Y-65706666D01*
X125547380Y-65611428D01*
X125547380Y-65420952D01*
X125499761Y-65325714D01*
X125452142Y-65278095D01*
X125356904Y-65230476D01*
X125166428Y-65230476D01*
X125071190Y-65278095D01*
X125023571Y-65325714D01*
X124975952Y-65420952D01*
X114202380Y-69159047D02*
X114202380Y-68492380D01*
X115202380Y-68920952D01*
X114535714Y-67682857D02*
X115202380Y-67682857D01*
X114154761Y-67920952D02*
X114869047Y-68159047D01*
X114869047Y-67540000D01*
X115202380Y-66682857D02*
X115202380Y-67159047D01*
X114202380Y-67159047D01*
X115154761Y-66397142D02*
X115202380Y-66254285D01*
X115202380Y-66016190D01*
X115154761Y-65920952D01*
X115107142Y-65873333D01*
X115011904Y-65825714D01*
X114916666Y-65825714D01*
X114821428Y-65873333D01*
X114773809Y-65920952D01*
X114726190Y-66016190D01*
X114678571Y-66206666D01*
X114630952Y-66301904D01*
X114583333Y-66349523D01*
X114488095Y-66397142D01*
X114392857Y-66397142D01*
X114297619Y-66349523D01*
X114250000Y-66301904D01*
X114202380Y-66206666D01*
X114202380Y-65968571D01*
X114250000Y-65825714D01*
X114297619Y-65444761D02*
X114250000Y-65397142D01*
X114202380Y-65301904D01*
X114202380Y-65063809D01*
X114250000Y-64968571D01*
X114297619Y-64920952D01*
X114392857Y-64873333D01*
X114488095Y-64873333D01*
X114630952Y-64920952D01*
X115202380Y-65492380D01*
X115202380Y-64873333D01*
X114202380Y-63968571D02*
X114202380Y-64444761D01*
X114678571Y-64492380D01*
X114630952Y-64444761D01*
X114583333Y-64349523D01*
X114583333Y-64111428D01*
X114630952Y-64016190D01*
X114678571Y-63968571D01*
X114773809Y-63920952D01*
X115011904Y-63920952D01*
X115107142Y-63968571D01*
X115154761Y-64016190D01*
X115202380Y-64111428D01*
X115202380Y-64349523D01*
X115154761Y-64444761D01*
X115107142Y-64492380D01*
X114202380Y-63587619D02*
X114202380Y-62920952D01*
X115202380Y-63349523D01*
%TO.C,U7*%
X120523095Y-48162380D02*
X120523095Y-48971904D01*
X120570714Y-49067142D01*
X120618333Y-49114761D01*
X120713571Y-49162380D01*
X120904047Y-49162380D01*
X120999285Y-49114761D01*
X121046904Y-49067142D01*
X121094523Y-48971904D01*
X121094523Y-48162380D01*
X121475476Y-48162380D02*
X122142142Y-48162380D01*
X121713571Y-49162380D01*
X118165952Y-59962380D02*
X118832619Y-59962380D01*
X118404047Y-60962380D01*
X119642142Y-60295714D02*
X119642142Y-60962380D01*
X119404047Y-59914761D02*
X119165952Y-60629047D01*
X119785000Y-60629047D01*
X120642142Y-60962380D02*
X120165952Y-60962380D01*
X120165952Y-59962380D01*
X120927857Y-60914761D02*
X121070714Y-60962380D01*
X121308809Y-60962380D01*
X121404047Y-60914761D01*
X121451666Y-60867142D01*
X121499285Y-60771904D01*
X121499285Y-60676666D01*
X121451666Y-60581428D01*
X121404047Y-60533809D01*
X121308809Y-60486190D01*
X121118333Y-60438571D01*
X121023095Y-60390952D01*
X120975476Y-60343333D01*
X120927857Y-60248095D01*
X120927857Y-60152857D01*
X120975476Y-60057619D01*
X121023095Y-60010000D01*
X121118333Y-59962380D01*
X121356428Y-59962380D01*
X121499285Y-60010000D01*
X122451666Y-60962380D02*
X121880238Y-60962380D01*
X122165952Y-60962380D02*
X122165952Y-59962380D01*
X122070714Y-60105238D01*
X121975476Y-60200476D01*
X121880238Y-60248095D01*
X122785000Y-59962380D02*
X123451666Y-59962380D01*
X123023095Y-60962380D01*
X124261190Y-60295714D02*
X124261190Y-60962380D01*
X124023095Y-59914761D02*
X123785000Y-60629047D01*
X124404047Y-60629047D01*
%TO.C,U6*%
X131953095Y-48162380D02*
X131953095Y-48971904D01*
X132000714Y-49067142D01*
X132048333Y-49114761D01*
X132143571Y-49162380D01*
X132334047Y-49162380D01*
X132429285Y-49114761D01*
X132476904Y-49067142D01*
X132524523Y-48971904D01*
X132524523Y-48162380D01*
X133429285Y-48162380D02*
X133238809Y-48162380D01*
X133143571Y-48210000D01*
X133095952Y-48257619D01*
X133000714Y-48400476D01*
X132953095Y-48590952D01*
X132953095Y-48971904D01*
X133000714Y-49067142D01*
X133048333Y-49114761D01*
X133143571Y-49162380D01*
X133334047Y-49162380D01*
X133429285Y-49114761D01*
X133476904Y-49067142D01*
X133524523Y-48971904D01*
X133524523Y-48733809D01*
X133476904Y-48638571D01*
X133429285Y-48590952D01*
X133334047Y-48543333D01*
X133143571Y-48543333D01*
X133048333Y-48590952D01*
X133000714Y-48638571D01*
X132953095Y-48733809D01*
X129595952Y-59962380D02*
X130262619Y-59962380D01*
X129834047Y-60962380D01*
X131072142Y-60295714D02*
X131072142Y-60962380D01*
X130834047Y-59914761D02*
X130595952Y-60629047D01*
X131215000Y-60629047D01*
X132072142Y-60962380D02*
X131595952Y-60962380D01*
X131595952Y-59962380D01*
X132357857Y-60914761D02*
X132500714Y-60962380D01*
X132738809Y-60962380D01*
X132834047Y-60914761D01*
X132881666Y-60867142D01*
X132929285Y-60771904D01*
X132929285Y-60676666D01*
X132881666Y-60581428D01*
X132834047Y-60533809D01*
X132738809Y-60486190D01*
X132548333Y-60438571D01*
X132453095Y-60390952D01*
X132405476Y-60343333D01*
X132357857Y-60248095D01*
X132357857Y-60152857D01*
X132405476Y-60057619D01*
X132453095Y-60010000D01*
X132548333Y-59962380D01*
X132786428Y-59962380D01*
X132929285Y-60010000D01*
X133881666Y-60962380D02*
X133310238Y-60962380D01*
X133595952Y-60962380D02*
X133595952Y-59962380D01*
X133500714Y-60105238D01*
X133405476Y-60200476D01*
X133310238Y-60248095D01*
X134215000Y-59962380D02*
X134881666Y-59962380D01*
X134453095Y-60962380D01*
X135691190Y-60295714D02*
X135691190Y-60962380D01*
X135453095Y-59914761D02*
X135215000Y-60629047D01*
X135834047Y-60629047D01*
%TO.C,J7*%
X98726666Y-108882380D02*
X98726666Y-109596666D01*
X98679047Y-109739523D01*
X98583809Y-109834761D01*
X98440952Y-109882380D01*
X98345714Y-109882380D01*
X99107619Y-108882380D02*
X99774285Y-108882380D01*
X99345714Y-109882380D01*
X101528571Y-115506190D02*
X101528571Y-115172857D01*
X102052380Y-115030000D02*
X102052380Y-115506190D01*
X101052380Y-115506190D01*
X101052380Y-115030000D01*
X102052380Y-114601428D02*
X101052380Y-114601428D01*
X102052380Y-114030000D01*
X101052380Y-114030000D01*
X102052380Y-112315714D02*
X102052380Y-112791904D01*
X101052380Y-112791904D01*
X101528571Y-111982380D02*
X101528571Y-111649047D01*
X102052380Y-111506190D02*
X102052380Y-111982380D01*
X101052380Y-111982380D01*
X101052380Y-111506190D01*
X102052380Y-111077619D02*
X101052380Y-111077619D01*
X101052380Y-110839523D01*
X101100000Y-110696666D01*
X101195238Y-110601428D01*
X101290476Y-110553809D01*
X101480952Y-110506190D01*
X101623809Y-110506190D01*
X101814285Y-110553809D01*
X101909523Y-110601428D01*
X102004761Y-110696666D01*
X102052380Y-110839523D01*
X102052380Y-111077619D01*
%TO.C,J5*%
X98726666Y-115232380D02*
X98726666Y-115946666D01*
X98679047Y-116089523D01*
X98583809Y-116184761D01*
X98440952Y-116232380D01*
X98345714Y-116232380D01*
X99679047Y-115232380D02*
X99202857Y-115232380D01*
X99155238Y-115708571D01*
X99202857Y-115660952D01*
X99298095Y-115613333D01*
X99536190Y-115613333D01*
X99631428Y-115660952D01*
X99679047Y-115708571D01*
X99726666Y-115803809D01*
X99726666Y-116041904D01*
X99679047Y-116137142D01*
X99631428Y-116184761D01*
X99536190Y-116232380D01*
X99298095Y-116232380D01*
X99202857Y-116184761D01*
X99155238Y-116137142D01*
X101528571Y-124173809D02*
X101528571Y-123840476D01*
X102052380Y-123697619D02*
X102052380Y-124173809D01*
X101052380Y-124173809D01*
X101052380Y-123697619D01*
X102052380Y-123269047D02*
X101052380Y-123269047D01*
X102052380Y-122697619D01*
X101052380Y-122697619D01*
X102004761Y-121507142D02*
X102052380Y-121364285D01*
X102052380Y-121126190D01*
X102004761Y-121030952D01*
X101957142Y-120983333D01*
X101861904Y-120935714D01*
X101766666Y-120935714D01*
X101671428Y-120983333D01*
X101623809Y-121030952D01*
X101576190Y-121126190D01*
X101528571Y-121316666D01*
X101480952Y-121411904D01*
X101433333Y-121459523D01*
X101338095Y-121507142D01*
X101242857Y-121507142D01*
X101147619Y-121459523D01*
X101100000Y-121411904D01*
X101052380Y-121316666D01*
X101052380Y-121078571D01*
X101100000Y-120935714D01*
X101385714Y-120602380D02*
X102052380Y-120411904D01*
X101576190Y-120221428D01*
X102052380Y-120030952D01*
X101385714Y-119840476D01*
X102052380Y-119459523D02*
X101385714Y-119459523D01*
X101052380Y-119459523D02*
X101100000Y-119507142D01*
X101147619Y-119459523D01*
X101100000Y-119411904D01*
X101052380Y-119459523D01*
X101147619Y-119459523D01*
X101385714Y-119126190D02*
X101385714Y-118745238D01*
X101052380Y-118983333D02*
X101909523Y-118983333D01*
X102004761Y-118935714D01*
X102052380Y-118840476D01*
X102052380Y-118745238D01*
X102004761Y-117983333D02*
X102052380Y-118078571D01*
X102052380Y-118269047D01*
X102004761Y-118364285D01*
X101957142Y-118411904D01*
X101861904Y-118459523D01*
X101576190Y-118459523D01*
X101480952Y-118411904D01*
X101433333Y-118364285D01*
X101385714Y-118269047D01*
X101385714Y-118078571D01*
X101433333Y-117983333D01*
X102052380Y-117554761D02*
X101052380Y-117554761D01*
X102052380Y-117126190D02*
X101528571Y-117126190D01*
X101433333Y-117173809D01*
X101385714Y-117269047D01*
X101385714Y-117411904D01*
X101433333Y-117507142D01*
X101480952Y-117554761D01*
%TD*%
M02*
