%TF.GenerationSoftware,KiCad,Pcbnew,(5.1.8)-1*%
%TF.CreationDate,2021-03-08T12:32:49+01:00*%
%TF.ProjectId,Nes Sound Expansion,4e657320-536f-4756-9e64-20457870616e,rev?*%
%TF.SameCoordinates,Original*%
%TF.FileFunction,Soldermask,Top*%
%TF.FilePolarity,Negative*%
%FSLAX46Y46*%
G04 Gerber Fmt 4.6, Leading zero omitted, Abs format (unit mm)*
G04 Created by KiCad (PCBNEW (5.1.8)-1) date 2021-03-08 12:32:49*
%MOMM*%
%LPD*%
G01*
G04 APERTURE LIST*
%ADD10R,1.300000X1.700000*%
%ADD11R,2.000000X1.500000*%
%ADD12C,1.500000*%
%ADD13R,1.700000X1.700000*%
%ADD14O,1.700000X1.700000*%
%ADD15R,3.000000X1.980000*%
G04 APERTURE END LIST*
%TO.C,YMF288*%
G36*
G01*
X81130000Y-76240000D02*
X81430000Y-76240000D01*
G75*
G02*
X81580000Y-76390000I0J-150000D01*
G01*
X81580000Y-78140000D01*
G75*
G02*
X81430000Y-78290000I-150000J0D01*
G01*
X81130000Y-78290000D01*
G75*
G02*
X80980000Y-78140000I0J150000D01*
G01*
X80980000Y-76390000D01*
G75*
G02*
X81130000Y-76240000I150000J0D01*
G01*
G37*
G36*
G01*
X79860000Y-76240000D02*
X80160000Y-76240000D01*
G75*
G02*
X80310000Y-76390000I0J-150000D01*
G01*
X80310000Y-78140000D01*
G75*
G02*
X80160000Y-78290000I-150000J0D01*
G01*
X79860000Y-78290000D01*
G75*
G02*
X79710000Y-78140000I0J150000D01*
G01*
X79710000Y-76390000D01*
G75*
G02*
X79860000Y-76240000I150000J0D01*
G01*
G37*
G36*
G01*
X87480000Y-76240000D02*
X87780000Y-76240000D01*
G75*
G02*
X87930000Y-76390000I0J-150000D01*
G01*
X87930000Y-78140000D01*
G75*
G02*
X87780000Y-78290000I-150000J0D01*
G01*
X87480000Y-78290000D01*
G75*
G02*
X87330000Y-78140000I0J150000D01*
G01*
X87330000Y-76390000D01*
G75*
G02*
X87480000Y-76240000I150000J0D01*
G01*
G37*
G36*
G01*
X83670000Y-76240000D02*
X83970000Y-76240000D01*
G75*
G02*
X84120000Y-76390000I0J-150000D01*
G01*
X84120000Y-78140000D01*
G75*
G02*
X83970000Y-78290000I-150000J0D01*
G01*
X83670000Y-78290000D01*
G75*
G02*
X83520000Y-78140000I0J150000D01*
G01*
X83520000Y-76390000D01*
G75*
G02*
X83670000Y-76240000I150000J0D01*
G01*
G37*
G36*
G01*
X77320000Y-76240000D02*
X77620000Y-76240000D01*
G75*
G02*
X77770000Y-76390000I0J-150000D01*
G01*
X77770000Y-78140000D01*
G75*
G02*
X77620000Y-78290000I-150000J0D01*
G01*
X77320000Y-78290000D01*
G75*
G02*
X77170000Y-78140000I0J150000D01*
G01*
X77170000Y-76390000D01*
G75*
G02*
X77320000Y-76240000I150000J0D01*
G01*
G37*
G36*
G01*
X84940000Y-76240000D02*
X85240000Y-76240000D01*
G75*
G02*
X85390000Y-76390000I0J-150000D01*
G01*
X85390000Y-78140000D01*
G75*
G02*
X85240000Y-78290000I-150000J0D01*
G01*
X84940000Y-78290000D01*
G75*
G02*
X84790000Y-78140000I0J150000D01*
G01*
X84790000Y-76390000D01*
G75*
G02*
X84940000Y-76240000I150000J0D01*
G01*
G37*
G36*
G01*
X86210000Y-76240000D02*
X86510000Y-76240000D01*
G75*
G02*
X86660000Y-76390000I0J-150000D01*
G01*
X86660000Y-78140000D01*
G75*
G02*
X86510000Y-78290000I-150000J0D01*
G01*
X86210000Y-78290000D01*
G75*
G02*
X86060000Y-78140000I0J150000D01*
G01*
X86060000Y-76390000D01*
G75*
G02*
X86210000Y-76240000I150000J0D01*
G01*
G37*
G36*
G01*
X88750000Y-76240000D02*
X89050000Y-76240000D01*
G75*
G02*
X89200000Y-76390000I0J-150000D01*
G01*
X89200000Y-78140000D01*
G75*
G02*
X89050000Y-78290000I-150000J0D01*
G01*
X88750000Y-78290000D01*
G75*
G02*
X88600000Y-78140000I0J150000D01*
G01*
X88600000Y-76390000D01*
G75*
G02*
X88750000Y-76240000I150000J0D01*
G01*
G37*
G36*
G01*
X78590000Y-76240000D02*
X78890000Y-76240000D01*
G75*
G02*
X79040000Y-76390000I0J-150000D01*
G01*
X79040000Y-78140000D01*
G75*
G02*
X78890000Y-78290000I-150000J0D01*
G01*
X78590000Y-78290000D01*
G75*
G02*
X78440000Y-78140000I0J150000D01*
G01*
X78440000Y-76390000D01*
G75*
G02*
X78590000Y-76240000I150000J0D01*
G01*
G37*
G36*
G01*
X90020000Y-76240000D02*
X90320000Y-76240000D01*
G75*
G02*
X90470000Y-76390000I0J-150000D01*
G01*
X90470000Y-78140000D01*
G75*
G02*
X90320000Y-78290000I-150000J0D01*
G01*
X90020000Y-78290000D01*
G75*
G02*
X89870000Y-78140000I0J150000D01*
G01*
X89870000Y-76390000D01*
G75*
G02*
X90020000Y-76240000I150000J0D01*
G01*
G37*
G36*
G01*
X82400000Y-76240000D02*
X82700000Y-76240000D01*
G75*
G02*
X82850000Y-76390000I0J-150000D01*
G01*
X82850000Y-78140000D01*
G75*
G02*
X82700000Y-78290000I-150000J0D01*
G01*
X82400000Y-78290000D01*
G75*
G02*
X82250000Y-78140000I0J150000D01*
G01*
X82250000Y-76390000D01*
G75*
G02*
X82400000Y-76240000I150000J0D01*
G01*
G37*
G36*
G01*
X76050000Y-76240000D02*
X76350000Y-76240000D01*
G75*
G02*
X76500000Y-76390000I0J-150000D01*
G01*
X76500000Y-78140000D01*
G75*
G02*
X76350000Y-78290000I-150000J0D01*
G01*
X76050000Y-78290000D01*
G75*
G02*
X75900000Y-78140000I0J150000D01*
G01*
X75900000Y-76390000D01*
G75*
G02*
X76050000Y-76240000I150000J0D01*
G01*
G37*
G36*
G01*
X81130000Y-86810000D02*
X81430000Y-86810000D01*
G75*
G02*
X81580000Y-86960000I0J-150000D01*
G01*
X81580000Y-88710000D01*
G75*
G02*
X81430000Y-88860000I-150000J0D01*
G01*
X81130000Y-88860000D01*
G75*
G02*
X80980000Y-88710000I0J150000D01*
G01*
X80980000Y-86960000D01*
G75*
G02*
X81130000Y-86810000I150000J0D01*
G01*
G37*
G36*
G01*
X74780000Y-76240000D02*
X75080000Y-76240000D01*
G75*
G02*
X75230000Y-76390000I0J-150000D01*
G01*
X75230000Y-78140000D01*
G75*
G02*
X75080000Y-78290000I-150000J0D01*
G01*
X74780000Y-78290000D01*
G75*
G02*
X74630000Y-78140000I0J150000D01*
G01*
X74630000Y-76390000D01*
G75*
G02*
X74780000Y-76240000I150000J0D01*
G01*
G37*
G36*
G01*
X78590000Y-86810000D02*
X78890000Y-86810000D01*
G75*
G02*
X79040000Y-86960000I0J-150000D01*
G01*
X79040000Y-88710000D01*
G75*
G02*
X78890000Y-88860000I-150000J0D01*
G01*
X78590000Y-88860000D01*
G75*
G02*
X78440000Y-88710000I0J150000D01*
G01*
X78440000Y-86960000D01*
G75*
G02*
X78590000Y-86810000I150000J0D01*
G01*
G37*
G36*
G01*
X73510000Y-76240000D02*
X73810000Y-76240000D01*
G75*
G02*
X73960000Y-76390000I0J-150000D01*
G01*
X73960000Y-78140000D01*
G75*
G02*
X73810000Y-78290000I-150000J0D01*
G01*
X73510000Y-78290000D01*
G75*
G02*
X73360000Y-78140000I0J150000D01*
G01*
X73360000Y-76390000D01*
G75*
G02*
X73510000Y-76240000I150000J0D01*
G01*
G37*
G36*
G01*
X77320000Y-86810000D02*
X77620000Y-86810000D01*
G75*
G02*
X77770000Y-86960000I0J-150000D01*
G01*
X77770000Y-88710000D01*
G75*
G02*
X77620000Y-88860000I-150000J0D01*
G01*
X77320000Y-88860000D01*
G75*
G02*
X77170000Y-88710000I0J150000D01*
G01*
X77170000Y-86960000D01*
G75*
G02*
X77320000Y-86810000I150000J0D01*
G01*
G37*
G36*
G01*
X84940000Y-86810000D02*
X85240000Y-86810000D01*
G75*
G02*
X85390000Y-86960000I0J-150000D01*
G01*
X85390000Y-88710000D01*
G75*
G02*
X85240000Y-88860000I-150000J0D01*
G01*
X84940000Y-88860000D01*
G75*
G02*
X84790000Y-88710000I0J150000D01*
G01*
X84790000Y-86960000D01*
G75*
G02*
X84940000Y-86810000I150000J0D01*
G01*
G37*
G36*
G01*
X83670000Y-86810000D02*
X83970000Y-86810000D01*
G75*
G02*
X84120000Y-86960000I0J-150000D01*
G01*
X84120000Y-88710000D01*
G75*
G02*
X83970000Y-88860000I-150000J0D01*
G01*
X83670000Y-88860000D01*
G75*
G02*
X83520000Y-88710000I0J150000D01*
G01*
X83520000Y-86960000D01*
G75*
G02*
X83670000Y-86810000I150000J0D01*
G01*
G37*
G36*
G01*
X82400000Y-86810000D02*
X82700000Y-86810000D01*
G75*
G02*
X82850000Y-86960000I0J-150000D01*
G01*
X82850000Y-88710000D01*
G75*
G02*
X82700000Y-88860000I-150000J0D01*
G01*
X82400000Y-88860000D01*
G75*
G02*
X82250000Y-88710000I0J150000D01*
G01*
X82250000Y-86960000D01*
G75*
G02*
X82400000Y-86810000I150000J0D01*
G01*
G37*
G36*
G01*
X74780000Y-86810000D02*
X75080000Y-86810000D01*
G75*
G02*
X75230000Y-86960000I0J-150000D01*
G01*
X75230000Y-88710000D01*
G75*
G02*
X75080000Y-88860000I-150000J0D01*
G01*
X74780000Y-88860000D01*
G75*
G02*
X74630000Y-88710000I0J150000D01*
G01*
X74630000Y-86960000D01*
G75*
G02*
X74780000Y-86810000I150000J0D01*
G01*
G37*
G36*
G01*
X79860000Y-86810000D02*
X80160000Y-86810000D01*
G75*
G02*
X80310000Y-86960000I0J-150000D01*
G01*
X80310000Y-88710000D01*
G75*
G02*
X80160000Y-88860000I-150000J0D01*
G01*
X79860000Y-88860000D01*
G75*
G02*
X79710000Y-88710000I0J150000D01*
G01*
X79710000Y-86960000D01*
G75*
G02*
X79860000Y-86810000I150000J0D01*
G01*
G37*
G36*
G01*
X90020000Y-86810000D02*
X90320000Y-86810000D01*
G75*
G02*
X90470000Y-86960000I0J-150000D01*
G01*
X90470000Y-88710000D01*
G75*
G02*
X90320000Y-88860000I-150000J0D01*
G01*
X90020000Y-88860000D01*
G75*
G02*
X89870000Y-88710000I0J150000D01*
G01*
X89870000Y-86960000D01*
G75*
G02*
X90020000Y-86810000I150000J0D01*
G01*
G37*
G36*
G01*
X73510000Y-86810000D02*
X73810000Y-86810000D01*
G75*
G02*
X73960000Y-86960000I0J-150000D01*
G01*
X73960000Y-88710000D01*
G75*
G02*
X73810000Y-88860000I-150000J0D01*
G01*
X73510000Y-88860000D01*
G75*
G02*
X73360000Y-88710000I0J150000D01*
G01*
X73360000Y-86960000D01*
G75*
G02*
X73510000Y-86810000I150000J0D01*
G01*
G37*
G36*
G01*
X76050000Y-86810000D02*
X76350000Y-86810000D01*
G75*
G02*
X76500000Y-86960000I0J-150000D01*
G01*
X76500000Y-88710000D01*
G75*
G02*
X76350000Y-88860000I-150000J0D01*
G01*
X76050000Y-88860000D01*
G75*
G02*
X75900000Y-88710000I0J150000D01*
G01*
X75900000Y-86960000D01*
G75*
G02*
X76050000Y-86810000I150000J0D01*
G01*
G37*
G36*
G01*
X86210000Y-86810000D02*
X86510000Y-86810000D01*
G75*
G02*
X86660000Y-86960000I0J-150000D01*
G01*
X86660000Y-88710000D01*
G75*
G02*
X86510000Y-88860000I-150000J0D01*
G01*
X86210000Y-88860000D01*
G75*
G02*
X86060000Y-88710000I0J150000D01*
G01*
X86060000Y-86960000D01*
G75*
G02*
X86210000Y-86810000I150000J0D01*
G01*
G37*
G36*
G01*
X87480000Y-86810000D02*
X87780000Y-86810000D01*
G75*
G02*
X87930000Y-86960000I0J-150000D01*
G01*
X87930000Y-88710000D01*
G75*
G02*
X87780000Y-88860000I-150000J0D01*
G01*
X87480000Y-88860000D01*
G75*
G02*
X87330000Y-88710000I0J150000D01*
G01*
X87330000Y-86960000D01*
G75*
G02*
X87480000Y-86810000I150000J0D01*
G01*
G37*
G36*
G01*
X88750000Y-86810000D02*
X89050000Y-86810000D01*
G75*
G02*
X89200000Y-86960000I0J-150000D01*
G01*
X89200000Y-88710000D01*
G75*
G02*
X89050000Y-88860000I-150000J0D01*
G01*
X88750000Y-88860000D01*
G75*
G02*
X88600000Y-88710000I0J150000D01*
G01*
X88600000Y-86960000D01*
G75*
G02*
X88750000Y-86810000I150000J0D01*
G01*
G37*
%TD*%
%TO.C,R7*%
G36*
G01*
X75380001Y-121335000D02*
X74479999Y-121335000D01*
G75*
G02*
X74230000Y-121085001I0J249999D01*
G01*
X74230000Y-120384999D01*
G75*
G02*
X74479999Y-120135000I249999J0D01*
G01*
X75380001Y-120135000D01*
G75*
G02*
X75630000Y-120384999I0J-249999D01*
G01*
X75630000Y-121085001D01*
G75*
G02*
X75380001Y-121335000I-249999J0D01*
G01*
G37*
G36*
G01*
X75380001Y-119335000D02*
X74479999Y-119335000D01*
G75*
G02*
X74230000Y-119085001I0J249999D01*
G01*
X74230000Y-118384999D01*
G75*
G02*
X74479999Y-118135000I249999J0D01*
G01*
X75380001Y-118135000D01*
G75*
G02*
X75630000Y-118384999I0J-249999D01*
G01*
X75630000Y-119085001D01*
G75*
G02*
X75380001Y-119335000I-249999J0D01*
G01*
G37*
%TD*%
%TO.C,R13*%
G36*
G01*
X71939999Y-43120000D02*
X72840001Y-43120000D01*
G75*
G02*
X73090000Y-43369999I0J-249999D01*
G01*
X73090000Y-44070001D01*
G75*
G02*
X72840001Y-44320000I-249999J0D01*
G01*
X71939999Y-44320000D01*
G75*
G02*
X71690000Y-44070001I0J249999D01*
G01*
X71690000Y-43369999D01*
G75*
G02*
X71939999Y-43120000I249999J0D01*
G01*
G37*
G36*
G01*
X71939999Y-45120000D02*
X72840001Y-45120000D01*
G75*
G02*
X73090000Y-45369999I0J-249999D01*
G01*
X73090000Y-46070001D01*
G75*
G02*
X72840001Y-46320000I-249999J0D01*
G01*
X71939999Y-46320000D01*
G75*
G02*
X71690000Y-46070001I0J249999D01*
G01*
X71690000Y-45369999D01*
G75*
G02*
X71939999Y-45120000I249999J0D01*
G01*
G37*
%TD*%
%TO.C,R9*%
G36*
G01*
X55060001Y-108280000D02*
X54159999Y-108280000D01*
G75*
G02*
X53910000Y-108030001I0J249999D01*
G01*
X53910000Y-107329999D01*
G75*
G02*
X54159999Y-107080000I249999J0D01*
G01*
X55060001Y-107080000D01*
G75*
G02*
X55310000Y-107329999I0J-249999D01*
G01*
X55310000Y-108030001D01*
G75*
G02*
X55060001Y-108280000I-249999J0D01*
G01*
G37*
G36*
G01*
X55060001Y-106280000D02*
X54159999Y-106280000D01*
G75*
G02*
X53910000Y-106030001I0J249999D01*
G01*
X53910000Y-105329999D01*
G75*
G02*
X54159999Y-105080000I249999J0D01*
G01*
X55060001Y-105080000D01*
G75*
G02*
X55310000Y-105329999I0J-249999D01*
G01*
X55310000Y-106030001D01*
G75*
G02*
X55060001Y-106280000I-249999J0D01*
G01*
G37*
%TD*%
%TO.C,R10*%
G36*
G01*
X74110001Y-111185000D02*
X73209999Y-111185000D01*
G75*
G02*
X72960000Y-110935001I0J249999D01*
G01*
X72960000Y-110234999D01*
G75*
G02*
X73209999Y-109985000I249999J0D01*
G01*
X74110001Y-109985000D01*
G75*
G02*
X74360000Y-110234999I0J-249999D01*
G01*
X74360000Y-110935001D01*
G75*
G02*
X74110001Y-111185000I-249999J0D01*
G01*
G37*
G36*
G01*
X74110001Y-109185000D02*
X73209999Y-109185000D01*
G75*
G02*
X72960000Y-108935001I0J249999D01*
G01*
X72960000Y-108234999D01*
G75*
G02*
X73209999Y-107985000I249999J0D01*
G01*
X74110001Y-107985000D01*
G75*
G02*
X74360000Y-108234999I0J-249999D01*
G01*
X74360000Y-108935001D01*
G75*
G02*
X74110001Y-109185000I-249999J0D01*
G01*
G37*
%TD*%
%TO.C,R14*%
G36*
G01*
X91890001Y-42240000D02*
X90989999Y-42240000D01*
G75*
G02*
X90740000Y-41990001I0J249999D01*
G01*
X90740000Y-41289999D01*
G75*
G02*
X90989999Y-41040000I249999J0D01*
G01*
X91890001Y-41040000D01*
G75*
G02*
X92140000Y-41289999I0J-249999D01*
G01*
X92140000Y-41990001D01*
G75*
G02*
X91890001Y-42240000I-249999J0D01*
G01*
G37*
G36*
G01*
X91890001Y-40240000D02*
X90989999Y-40240000D01*
G75*
G02*
X90740000Y-39990001I0J249999D01*
G01*
X90740000Y-39289999D01*
G75*
G02*
X90989999Y-39040000I249999J0D01*
G01*
X91890001Y-39040000D01*
G75*
G02*
X92140000Y-39289999I0J-249999D01*
G01*
X92140000Y-39990001D01*
G75*
G02*
X91890001Y-40240000I-249999J0D01*
G01*
G37*
%TD*%
%TO.C,R2*%
G36*
G01*
X88715001Y-94030000D02*
X87814999Y-94030000D01*
G75*
G02*
X87565000Y-93780001I0J249999D01*
G01*
X87565000Y-93079999D01*
G75*
G02*
X87814999Y-92830000I249999J0D01*
G01*
X88715001Y-92830000D01*
G75*
G02*
X88965000Y-93079999I0J-249999D01*
G01*
X88965000Y-93780001D01*
G75*
G02*
X88715001Y-94030000I-249999J0D01*
G01*
G37*
G36*
G01*
X88715001Y-92030000D02*
X87814999Y-92030000D01*
G75*
G02*
X87565000Y-91780001I0J249999D01*
G01*
X87565000Y-91079999D01*
G75*
G02*
X87814999Y-90830000I249999J0D01*
G01*
X88715001Y-90830000D01*
G75*
G02*
X88965000Y-91079999I0J-249999D01*
G01*
X88965000Y-91780001D01*
G75*
G02*
X88715001Y-92030000I-249999J0D01*
G01*
G37*
%TD*%
%TO.C,R12*%
G36*
G01*
X75749999Y-43120000D02*
X76650001Y-43120000D01*
G75*
G02*
X76900000Y-43369999I0J-249999D01*
G01*
X76900000Y-44070001D01*
G75*
G02*
X76650001Y-44320000I-249999J0D01*
G01*
X75749999Y-44320000D01*
G75*
G02*
X75500000Y-44070001I0J249999D01*
G01*
X75500000Y-43369999D01*
G75*
G02*
X75749999Y-43120000I249999J0D01*
G01*
G37*
G36*
G01*
X75749999Y-45120000D02*
X76650001Y-45120000D01*
G75*
G02*
X76900000Y-45369999I0J-249999D01*
G01*
X76900000Y-46070001D01*
G75*
G02*
X76650001Y-46320000I-249999J0D01*
G01*
X75749999Y-46320000D01*
G75*
G02*
X75500000Y-46070001I0J249999D01*
G01*
X75500000Y-45369999D01*
G75*
G02*
X75749999Y-45120000I249999J0D01*
G01*
G37*
%TD*%
%TO.C,R3*%
G36*
G01*
X84905001Y-94030000D02*
X84004999Y-94030000D01*
G75*
G02*
X83755000Y-93780001I0J249999D01*
G01*
X83755000Y-93079999D01*
G75*
G02*
X84004999Y-92830000I249999J0D01*
G01*
X84905001Y-92830000D01*
G75*
G02*
X85155000Y-93079999I0J-249999D01*
G01*
X85155000Y-93780001D01*
G75*
G02*
X84905001Y-94030000I-249999J0D01*
G01*
G37*
G36*
G01*
X84905001Y-92030000D02*
X84004999Y-92030000D01*
G75*
G02*
X83755000Y-91780001I0J249999D01*
G01*
X83755000Y-91079999D01*
G75*
G02*
X84004999Y-90830000I249999J0D01*
G01*
X84905001Y-90830000D01*
G75*
G02*
X85155000Y-91079999I0J-249999D01*
G01*
X85155000Y-91780001D01*
G75*
G02*
X84905001Y-92030000I-249999J0D01*
G01*
G37*
%TD*%
D10*
%TO.C,D1*%
X80490000Y-73660000D03*
X76990000Y-73660000D03*
%TD*%
%TO.C,R1*%
G36*
G01*
X92525001Y-94030000D02*
X91624999Y-94030000D01*
G75*
G02*
X91375000Y-93780001I0J249999D01*
G01*
X91375000Y-93079999D01*
G75*
G02*
X91624999Y-92830000I249999J0D01*
G01*
X92525001Y-92830000D01*
G75*
G02*
X92775000Y-93079999I0J-249999D01*
G01*
X92775000Y-93780001D01*
G75*
G02*
X92525001Y-94030000I-249999J0D01*
G01*
G37*
G36*
G01*
X92525001Y-92030000D02*
X91624999Y-92030000D01*
G75*
G02*
X91375000Y-91780001I0J249999D01*
G01*
X91375000Y-91079999D01*
G75*
G02*
X91624999Y-90830000I249999J0D01*
G01*
X92525001Y-90830000D01*
G75*
G02*
X92775000Y-91079999I0J-249999D01*
G01*
X92775000Y-91780001D01*
G75*
G02*
X92525001Y-92030000I-249999J0D01*
G01*
G37*
%TD*%
%TO.C,R11*%
G36*
G01*
X60140001Y-109550000D02*
X59239999Y-109550000D01*
G75*
G02*
X58990000Y-109300001I0J249999D01*
G01*
X58990000Y-108599999D01*
G75*
G02*
X59239999Y-108350000I249999J0D01*
G01*
X60140001Y-108350000D01*
G75*
G02*
X60390000Y-108599999I0J-249999D01*
G01*
X60390000Y-109300001D01*
G75*
G02*
X60140001Y-109550000I-249999J0D01*
G01*
G37*
G36*
G01*
X60140001Y-107550000D02*
X59239999Y-107550000D01*
G75*
G02*
X58990000Y-107300001I0J249999D01*
G01*
X58990000Y-106599999D01*
G75*
G02*
X59239999Y-106350000I249999J0D01*
G01*
X60140001Y-106350000D01*
G75*
G02*
X60390000Y-106599999I0J-249999D01*
G01*
X60390000Y-107300001D01*
G75*
G02*
X60140001Y-107550000I-249999J0D01*
G01*
G37*
%TD*%
%TO.C,R8*%
G36*
G01*
X79190001Y-121335000D02*
X78289999Y-121335000D01*
G75*
G02*
X78040000Y-121085001I0J249999D01*
G01*
X78040000Y-120384999D01*
G75*
G02*
X78289999Y-120135000I249999J0D01*
G01*
X79190001Y-120135000D01*
G75*
G02*
X79440000Y-120384999I0J-249999D01*
G01*
X79440000Y-121085001D01*
G75*
G02*
X79190001Y-121335000I-249999J0D01*
G01*
G37*
G36*
G01*
X79190001Y-119335000D02*
X78289999Y-119335000D01*
G75*
G02*
X78040000Y-119085001I0J249999D01*
G01*
X78040000Y-118384999D01*
G75*
G02*
X78289999Y-118135000I249999J0D01*
G01*
X79190001Y-118135000D01*
G75*
G02*
X79440000Y-118384999I0J-249999D01*
G01*
X79440000Y-119085001D01*
G75*
G02*
X79190001Y-119335000I-249999J0D01*
G01*
G37*
%TD*%
%TO.C,R5*%
G36*
G01*
X86810001Y-121335000D02*
X85909999Y-121335000D01*
G75*
G02*
X85660000Y-121085001I0J249999D01*
G01*
X85660000Y-120384999D01*
G75*
G02*
X85909999Y-120135000I249999J0D01*
G01*
X86810001Y-120135000D01*
G75*
G02*
X87060000Y-120384999I0J-249999D01*
G01*
X87060000Y-121085001D01*
G75*
G02*
X86810001Y-121335000I-249999J0D01*
G01*
G37*
G36*
G01*
X86810001Y-119335000D02*
X85909999Y-119335000D01*
G75*
G02*
X85660000Y-119085001I0J249999D01*
G01*
X85660000Y-118384999D01*
G75*
G02*
X85909999Y-118135000I249999J0D01*
G01*
X86810001Y-118135000D01*
G75*
G02*
X87060000Y-118384999I0J-249999D01*
G01*
X87060000Y-119085001D01*
G75*
G02*
X86810001Y-119335000I-249999J0D01*
G01*
G37*
%TD*%
%TO.C,C5*%
G36*
G01*
X91871250Y-46122500D02*
X91008750Y-46122500D01*
G75*
G02*
X90800000Y-45913750I0J208750D01*
G01*
X90800000Y-45496250D01*
G75*
G02*
X91008750Y-45287500I208750J0D01*
G01*
X91871250Y-45287500D01*
G75*
G02*
X92080000Y-45496250I0J-208750D01*
G01*
X92080000Y-45913750D01*
G75*
G02*
X91871250Y-46122500I-208750J0D01*
G01*
G37*
G36*
G01*
X91871250Y-44867500D02*
X91008750Y-44867500D01*
G75*
G02*
X90800000Y-44658750I0J208750D01*
G01*
X90800000Y-44241250D01*
G75*
G02*
X91008750Y-44032500I208750J0D01*
G01*
X91871250Y-44032500D01*
G75*
G02*
X92080000Y-44241250I0J-208750D01*
G01*
X92080000Y-44658750D01*
G75*
G02*
X91871250Y-44867500I-208750J0D01*
G01*
G37*
%TD*%
D11*
%TO.C,J6*%
X69540000Y-112640000D03*
X69540000Y-118140000D03*
X69540000Y-121540000D03*
X62540000Y-112140000D03*
X62540000Y-114340000D03*
D12*
X66040000Y-121140000D03*
X66040000Y-114140000D03*
D11*
X62540000Y-121540000D03*
%TD*%
%TO.C,C13*%
G36*
G01*
X78825000Y-106860000D02*
X79925000Y-106860000D01*
G75*
G02*
X80175000Y-107110000I0J-250000D01*
G01*
X80175000Y-109210000D01*
G75*
G02*
X79925000Y-109460000I-250000J0D01*
G01*
X78825000Y-109460000D01*
G75*
G02*
X78575000Y-109210000I0J250000D01*
G01*
X78575000Y-107110000D01*
G75*
G02*
X78825000Y-106860000I250000J0D01*
G01*
G37*
G36*
G01*
X78825000Y-110460000D02*
X79925000Y-110460000D01*
G75*
G02*
X80175000Y-110710000I0J-250000D01*
G01*
X80175000Y-112810000D01*
G75*
G02*
X79925000Y-113060000I-250000J0D01*
G01*
X78825000Y-113060000D01*
G75*
G02*
X78575000Y-112810000I0J250000D01*
G01*
X78575000Y-110710000D01*
G75*
G02*
X78825000Y-110460000I250000J0D01*
G01*
G37*
%TD*%
%TO.C,C11*%
G36*
G01*
X80095000Y-99240000D02*
X81195000Y-99240000D01*
G75*
G02*
X81445000Y-99490000I0J-250000D01*
G01*
X81445000Y-101590000D01*
G75*
G02*
X81195000Y-101840000I-250000J0D01*
G01*
X80095000Y-101840000D01*
G75*
G02*
X79845000Y-101590000I0J250000D01*
G01*
X79845000Y-99490000D01*
G75*
G02*
X80095000Y-99240000I250000J0D01*
G01*
G37*
G36*
G01*
X80095000Y-102840000D02*
X81195000Y-102840000D01*
G75*
G02*
X81445000Y-103090000I0J-250000D01*
G01*
X81445000Y-105190000D01*
G75*
G02*
X81195000Y-105440000I-250000J0D01*
G01*
X80095000Y-105440000D01*
G75*
G02*
X79845000Y-105190000I0J250000D01*
G01*
X79845000Y-103090000D01*
G75*
G02*
X80095000Y-102840000I250000J0D01*
G01*
G37*
%TD*%
%TO.C,R4*%
G36*
G01*
X59239999Y-94920000D02*
X60140001Y-94920000D01*
G75*
G02*
X60390000Y-95169999I0J-249999D01*
G01*
X60390000Y-95870001D01*
G75*
G02*
X60140001Y-96120000I-249999J0D01*
G01*
X59239999Y-96120000D01*
G75*
G02*
X58990000Y-95870001I0J249999D01*
G01*
X58990000Y-95169999D01*
G75*
G02*
X59239999Y-94920000I249999J0D01*
G01*
G37*
G36*
G01*
X59239999Y-96920000D02*
X60140001Y-96920000D01*
G75*
G02*
X60390000Y-97169999I0J-249999D01*
G01*
X60390000Y-97870001D01*
G75*
G02*
X60140001Y-98120000I-249999J0D01*
G01*
X59239999Y-98120000D01*
G75*
G02*
X58990000Y-97870001I0J249999D01*
G01*
X58990000Y-97169999D01*
G75*
G02*
X59239999Y-96920000I249999J0D01*
G01*
G37*
%TD*%
%TO.C,C4*%
G36*
G01*
X72821250Y-41057500D02*
X71958750Y-41057500D01*
G75*
G02*
X71750000Y-40848750I0J208750D01*
G01*
X71750000Y-40431250D01*
G75*
G02*
X71958750Y-40222500I208750J0D01*
G01*
X72821250Y-40222500D01*
G75*
G02*
X73030000Y-40431250I0J-208750D01*
G01*
X73030000Y-40848750D01*
G75*
G02*
X72821250Y-41057500I-208750J0D01*
G01*
G37*
G36*
G01*
X72821250Y-39802500D02*
X71958750Y-39802500D01*
G75*
G02*
X71750000Y-39593750I0J208750D01*
G01*
X71750000Y-39176250D01*
G75*
G02*
X71958750Y-38967500I208750J0D01*
G01*
X72821250Y-38967500D01*
G75*
G02*
X73030000Y-39176250I0J-208750D01*
G01*
X73030000Y-39593750D01*
G75*
G02*
X72821250Y-39802500I-208750J0D01*
G01*
G37*
%TD*%
%TO.C,C3*%
G36*
G01*
X75768750Y-38967500D02*
X76631250Y-38967500D01*
G75*
G02*
X76840000Y-39176250I0J-208750D01*
G01*
X76840000Y-39593750D01*
G75*
G02*
X76631250Y-39802500I-208750J0D01*
G01*
X75768750Y-39802500D01*
G75*
G02*
X75560000Y-39593750I0J208750D01*
G01*
X75560000Y-39176250D01*
G75*
G02*
X75768750Y-38967500I208750J0D01*
G01*
G37*
G36*
G01*
X75768750Y-40222500D02*
X76631250Y-40222500D01*
G75*
G02*
X76840000Y-40431250I0J-208750D01*
G01*
X76840000Y-40848750D01*
G75*
G02*
X76631250Y-41057500I-208750J0D01*
G01*
X75768750Y-41057500D01*
G75*
G02*
X75560000Y-40848750I0J208750D01*
G01*
X75560000Y-40431250D01*
G75*
G02*
X75768750Y-40222500I208750J0D01*
G01*
G37*
%TD*%
%TO.C,C1*%
G36*
G01*
X72623000Y-74091250D02*
X72623000Y-73228750D01*
G75*
G02*
X72831750Y-73020000I208750J0D01*
G01*
X73249250Y-73020000D01*
G75*
G02*
X73458000Y-73228750I0J-208750D01*
G01*
X73458000Y-74091250D01*
G75*
G02*
X73249250Y-74300000I-208750J0D01*
G01*
X72831750Y-74300000D01*
G75*
G02*
X72623000Y-74091250I0J208750D01*
G01*
G37*
G36*
G01*
X73878000Y-74091250D02*
X73878000Y-73228750D01*
G75*
G02*
X74086750Y-73020000I208750J0D01*
G01*
X74504250Y-73020000D01*
G75*
G02*
X74713000Y-73228750I0J-208750D01*
G01*
X74713000Y-74091250D01*
G75*
G02*
X74504250Y-74300000I-208750J0D01*
G01*
X74086750Y-74300000D01*
G75*
G02*
X73878000Y-74091250I0J208750D01*
G01*
G37*
%TD*%
%TO.C,C12*%
G36*
G01*
X75015000Y-99240000D02*
X76115000Y-99240000D01*
G75*
G02*
X76365000Y-99490000I0J-250000D01*
G01*
X76365000Y-101590000D01*
G75*
G02*
X76115000Y-101840000I-250000J0D01*
G01*
X75015000Y-101840000D01*
G75*
G02*
X74765000Y-101590000I0J250000D01*
G01*
X74765000Y-99490000D01*
G75*
G02*
X75015000Y-99240000I250000J0D01*
G01*
G37*
G36*
G01*
X75015000Y-102840000D02*
X76115000Y-102840000D01*
G75*
G02*
X76365000Y-103090000I0J-250000D01*
G01*
X76365000Y-105190000D01*
G75*
G02*
X76115000Y-105440000I-250000J0D01*
G01*
X75015000Y-105440000D01*
G75*
G02*
X74765000Y-105190000I0J250000D01*
G01*
X74765000Y-103090000D01*
G75*
G02*
X75015000Y-102840000I250000J0D01*
G01*
G37*
%TD*%
%TO.C,C10*%
G36*
G01*
X88985000Y-106860000D02*
X90085000Y-106860000D01*
G75*
G02*
X90335000Y-107110000I0J-250000D01*
G01*
X90335000Y-109210000D01*
G75*
G02*
X90085000Y-109460000I-250000J0D01*
G01*
X88985000Y-109460000D01*
G75*
G02*
X88735000Y-109210000I0J250000D01*
G01*
X88735000Y-107110000D01*
G75*
G02*
X88985000Y-106860000I250000J0D01*
G01*
G37*
G36*
G01*
X88985000Y-110460000D02*
X90085000Y-110460000D01*
G75*
G02*
X90335000Y-110710000I0J-250000D01*
G01*
X90335000Y-112810000D01*
G75*
G02*
X90085000Y-113060000I-250000J0D01*
G01*
X88985000Y-113060000D01*
G75*
G02*
X88735000Y-112810000I0J250000D01*
G01*
X88735000Y-110710000D01*
G75*
G02*
X88985000Y-110460000I250000J0D01*
G01*
G37*
%TD*%
%TO.C,C2*%
G36*
G01*
X83905000Y-106860000D02*
X85005000Y-106860000D01*
G75*
G02*
X85255000Y-107110000I0J-250000D01*
G01*
X85255000Y-109210000D01*
G75*
G02*
X85005000Y-109460000I-250000J0D01*
G01*
X83905000Y-109460000D01*
G75*
G02*
X83655000Y-109210000I0J250000D01*
G01*
X83655000Y-107110000D01*
G75*
G02*
X83905000Y-106860000I250000J0D01*
G01*
G37*
G36*
G01*
X83905000Y-110460000D02*
X85005000Y-110460000D01*
G75*
G02*
X85255000Y-110710000I0J-250000D01*
G01*
X85255000Y-112810000D01*
G75*
G02*
X85005000Y-113060000I-250000J0D01*
G01*
X83905000Y-113060000D01*
G75*
G02*
X83655000Y-112810000I0J250000D01*
G01*
X83655000Y-110710000D01*
G75*
G02*
X83905000Y-110460000I250000J0D01*
G01*
G37*
%TD*%
D13*
%TO.C,J1*%
X54610000Y-86360000D03*
D14*
X54610000Y-88900000D03*
X54610000Y-91440000D03*
X54610000Y-93980000D03*
X54610000Y-96520000D03*
X54610000Y-99060000D03*
X54610000Y-101600000D03*
%TD*%
%TO.C,U8*%
G36*
G01*
X80495000Y-62590000D02*
X80795000Y-62590000D01*
G75*
G02*
X80945000Y-62740000I0J-150000D01*
G01*
X80945000Y-64390000D01*
G75*
G02*
X80795000Y-64540000I-150000J0D01*
G01*
X80495000Y-64540000D01*
G75*
G02*
X80345000Y-64390000I0J150000D01*
G01*
X80345000Y-62740000D01*
G75*
G02*
X80495000Y-62590000I150000J0D01*
G01*
G37*
G36*
G01*
X79225000Y-62590000D02*
X79525000Y-62590000D01*
G75*
G02*
X79675000Y-62740000I0J-150000D01*
G01*
X79675000Y-64390000D01*
G75*
G02*
X79525000Y-64540000I-150000J0D01*
G01*
X79225000Y-64540000D01*
G75*
G02*
X79075000Y-64390000I0J150000D01*
G01*
X79075000Y-62740000D01*
G75*
G02*
X79225000Y-62590000I150000J0D01*
G01*
G37*
G36*
G01*
X77955000Y-62590000D02*
X78255000Y-62590000D01*
G75*
G02*
X78405000Y-62740000I0J-150000D01*
G01*
X78405000Y-64390000D01*
G75*
G02*
X78255000Y-64540000I-150000J0D01*
G01*
X77955000Y-64540000D01*
G75*
G02*
X77805000Y-64390000I0J150000D01*
G01*
X77805000Y-62740000D01*
G75*
G02*
X77955000Y-62590000I150000J0D01*
G01*
G37*
G36*
G01*
X76685000Y-62590000D02*
X76985000Y-62590000D01*
G75*
G02*
X77135000Y-62740000I0J-150000D01*
G01*
X77135000Y-64390000D01*
G75*
G02*
X76985000Y-64540000I-150000J0D01*
G01*
X76685000Y-64540000D01*
G75*
G02*
X76535000Y-64390000I0J150000D01*
G01*
X76535000Y-62740000D01*
G75*
G02*
X76685000Y-62590000I150000J0D01*
G01*
G37*
G36*
G01*
X75415000Y-62590000D02*
X75715000Y-62590000D01*
G75*
G02*
X75865000Y-62740000I0J-150000D01*
G01*
X75865000Y-64390000D01*
G75*
G02*
X75715000Y-64540000I-150000J0D01*
G01*
X75415000Y-64540000D01*
G75*
G02*
X75265000Y-64390000I0J150000D01*
G01*
X75265000Y-62740000D01*
G75*
G02*
X75415000Y-62590000I150000J0D01*
G01*
G37*
G36*
G01*
X74145000Y-62590000D02*
X74445000Y-62590000D01*
G75*
G02*
X74595000Y-62740000I0J-150000D01*
G01*
X74595000Y-64390000D01*
G75*
G02*
X74445000Y-64540000I-150000J0D01*
G01*
X74145000Y-64540000D01*
G75*
G02*
X73995000Y-64390000I0J150000D01*
G01*
X73995000Y-62740000D01*
G75*
G02*
X74145000Y-62590000I150000J0D01*
G01*
G37*
G36*
G01*
X72875000Y-62590000D02*
X73175000Y-62590000D01*
G75*
G02*
X73325000Y-62740000I0J-150000D01*
G01*
X73325000Y-64390000D01*
G75*
G02*
X73175000Y-64540000I-150000J0D01*
G01*
X72875000Y-64540000D01*
G75*
G02*
X72725000Y-64390000I0J150000D01*
G01*
X72725000Y-62740000D01*
G75*
G02*
X72875000Y-62590000I150000J0D01*
G01*
G37*
G36*
G01*
X71605000Y-62590000D02*
X71905000Y-62590000D01*
G75*
G02*
X72055000Y-62740000I0J-150000D01*
G01*
X72055000Y-64390000D01*
G75*
G02*
X71905000Y-64540000I-150000J0D01*
G01*
X71605000Y-64540000D01*
G75*
G02*
X71455000Y-64390000I0J150000D01*
G01*
X71455000Y-62740000D01*
G75*
G02*
X71605000Y-62590000I150000J0D01*
G01*
G37*
G36*
G01*
X71605000Y-67540000D02*
X71905000Y-67540000D01*
G75*
G02*
X72055000Y-67690000I0J-150000D01*
G01*
X72055000Y-69340000D01*
G75*
G02*
X71905000Y-69490000I-150000J0D01*
G01*
X71605000Y-69490000D01*
G75*
G02*
X71455000Y-69340000I0J150000D01*
G01*
X71455000Y-67690000D01*
G75*
G02*
X71605000Y-67540000I150000J0D01*
G01*
G37*
G36*
G01*
X72875000Y-67540000D02*
X73175000Y-67540000D01*
G75*
G02*
X73325000Y-67690000I0J-150000D01*
G01*
X73325000Y-69340000D01*
G75*
G02*
X73175000Y-69490000I-150000J0D01*
G01*
X72875000Y-69490000D01*
G75*
G02*
X72725000Y-69340000I0J150000D01*
G01*
X72725000Y-67690000D01*
G75*
G02*
X72875000Y-67540000I150000J0D01*
G01*
G37*
G36*
G01*
X74145000Y-67540000D02*
X74445000Y-67540000D01*
G75*
G02*
X74595000Y-67690000I0J-150000D01*
G01*
X74595000Y-69340000D01*
G75*
G02*
X74445000Y-69490000I-150000J0D01*
G01*
X74145000Y-69490000D01*
G75*
G02*
X73995000Y-69340000I0J150000D01*
G01*
X73995000Y-67690000D01*
G75*
G02*
X74145000Y-67540000I150000J0D01*
G01*
G37*
G36*
G01*
X75415000Y-67540000D02*
X75715000Y-67540000D01*
G75*
G02*
X75865000Y-67690000I0J-150000D01*
G01*
X75865000Y-69340000D01*
G75*
G02*
X75715000Y-69490000I-150000J0D01*
G01*
X75415000Y-69490000D01*
G75*
G02*
X75265000Y-69340000I0J150000D01*
G01*
X75265000Y-67690000D01*
G75*
G02*
X75415000Y-67540000I150000J0D01*
G01*
G37*
G36*
G01*
X76685000Y-67540000D02*
X76985000Y-67540000D01*
G75*
G02*
X77135000Y-67690000I0J-150000D01*
G01*
X77135000Y-69340000D01*
G75*
G02*
X76985000Y-69490000I-150000J0D01*
G01*
X76685000Y-69490000D01*
G75*
G02*
X76535000Y-69340000I0J150000D01*
G01*
X76535000Y-67690000D01*
G75*
G02*
X76685000Y-67540000I150000J0D01*
G01*
G37*
G36*
G01*
X77955000Y-67540000D02*
X78255000Y-67540000D01*
G75*
G02*
X78405000Y-67690000I0J-150000D01*
G01*
X78405000Y-69340000D01*
G75*
G02*
X78255000Y-69490000I-150000J0D01*
G01*
X77955000Y-69490000D01*
G75*
G02*
X77805000Y-69340000I0J150000D01*
G01*
X77805000Y-67690000D01*
G75*
G02*
X77955000Y-67540000I150000J0D01*
G01*
G37*
G36*
G01*
X79225000Y-67540000D02*
X79525000Y-67540000D01*
G75*
G02*
X79675000Y-67690000I0J-150000D01*
G01*
X79675000Y-69340000D01*
G75*
G02*
X79525000Y-69490000I-150000J0D01*
G01*
X79225000Y-69490000D01*
G75*
G02*
X79075000Y-69340000I0J150000D01*
G01*
X79075000Y-67690000D01*
G75*
G02*
X79225000Y-67540000I150000J0D01*
G01*
G37*
G36*
G01*
X80495000Y-67540000D02*
X80795000Y-67540000D01*
G75*
G02*
X80945000Y-67690000I0J-150000D01*
G01*
X80945000Y-69340000D01*
G75*
G02*
X80795000Y-69490000I-150000J0D01*
G01*
X80495000Y-69490000D01*
G75*
G02*
X80345000Y-69340000I0J150000D01*
G01*
X80345000Y-67690000D01*
G75*
G02*
X80495000Y-67540000I150000J0D01*
G01*
G37*
%TD*%
%TO.C,U2*%
G36*
G01*
X80370000Y-38885000D02*
X80370000Y-38585000D01*
G75*
G02*
X80520000Y-38435000I150000J0D01*
G01*
X82170000Y-38435000D01*
G75*
G02*
X82320000Y-38585000I0J-150000D01*
G01*
X82320000Y-38885000D01*
G75*
G02*
X82170000Y-39035000I-150000J0D01*
G01*
X80520000Y-39035000D01*
G75*
G02*
X80370000Y-38885000I0J150000D01*
G01*
G37*
G36*
G01*
X80370000Y-40155000D02*
X80370000Y-39855000D01*
G75*
G02*
X80520000Y-39705000I150000J0D01*
G01*
X82170000Y-39705000D01*
G75*
G02*
X82320000Y-39855000I0J-150000D01*
G01*
X82320000Y-40155000D01*
G75*
G02*
X82170000Y-40305000I-150000J0D01*
G01*
X80520000Y-40305000D01*
G75*
G02*
X80370000Y-40155000I0J150000D01*
G01*
G37*
G36*
G01*
X80370000Y-41425000D02*
X80370000Y-41125000D01*
G75*
G02*
X80520000Y-40975000I150000J0D01*
G01*
X82170000Y-40975000D01*
G75*
G02*
X82320000Y-41125000I0J-150000D01*
G01*
X82320000Y-41425000D01*
G75*
G02*
X82170000Y-41575000I-150000J0D01*
G01*
X80520000Y-41575000D01*
G75*
G02*
X80370000Y-41425000I0J150000D01*
G01*
G37*
G36*
G01*
X80370000Y-42695000D02*
X80370000Y-42395000D01*
G75*
G02*
X80520000Y-42245000I150000J0D01*
G01*
X82170000Y-42245000D01*
G75*
G02*
X82320000Y-42395000I0J-150000D01*
G01*
X82320000Y-42695000D01*
G75*
G02*
X82170000Y-42845000I-150000J0D01*
G01*
X80520000Y-42845000D01*
G75*
G02*
X80370000Y-42695000I0J150000D01*
G01*
G37*
G36*
G01*
X80370000Y-43965000D02*
X80370000Y-43665000D01*
G75*
G02*
X80520000Y-43515000I150000J0D01*
G01*
X82170000Y-43515000D01*
G75*
G02*
X82320000Y-43665000I0J-150000D01*
G01*
X82320000Y-43965000D01*
G75*
G02*
X82170000Y-44115000I-150000J0D01*
G01*
X80520000Y-44115000D01*
G75*
G02*
X80370000Y-43965000I0J150000D01*
G01*
G37*
G36*
G01*
X80370000Y-45235000D02*
X80370000Y-44935000D01*
G75*
G02*
X80520000Y-44785000I150000J0D01*
G01*
X82170000Y-44785000D01*
G75*
G02*
X82320000Y-44935000I0J-150000D01*
G01*
X82320000Y-45235000D01*
G75*
G02*
X82170000Y-45385000I-150000J0D01*
G01*
X80520000Y-45385000D01*
G75*
G02*
X80370000Y-45235000I0J150000D01*
G01*
G37*
G36*
G01*
X80370000Y-46505000D02*
X80370000Y-46205000D01*
G75*
G02*
X80520000Y-46055000I150000J0D01*
G01*
X82170000Y-46055000D01*
G75*
G02*
X82320000Y-46205000I0J-150000D01*
G01*
X82320000Y-46505000D01*
G75*
G02*
X82170000Y-46655000I-150000J0D01*
G01*
X80520000Y-46655000D01*
G75*
G02*
X80370000Y-46505000I0J150000D01*
G01*
G37*
G36*
G01*
X85320000Y-46505000D02*
X85320000Y-46205000D01*
G75*
G02*
X85470000Y-46055000I150000J0D01*
G01*
X87120000Y-46055000D01*
G75*
G02*
X87270000Y-46205000I0J-150000D01*
G01*
X87270000Y-46505000D01*
G75*
G02*
X87120000Y-46655000I-150000J0D01*
G01*
X85470000Y-46655000D01*
G75*
G02*
X85320000Y-46505000I0J150000D01*
G01*
G37*
G36*
G01*
X85320000Y-45235000D02*
X85320000Y-44935000D01*
G75*
G02*
X85470000Y-44785000I150000J0D01*
G01*
X87120000Y-44785000D01*
G75*
G02*
X87270000Y-44935000I0J-150000D01*
G01*
X87270000Y-45235000D01*
G75*
G02*
X87120000Y-45385000I-150000J0D01*
G01*
X85470000Y-45385000D01*
G75*
G02*
X85320000Y-45235000I0J150000D01*
G01*
G37*
G36*
G01*
X85320000Y-43965000D02*
X85320000Y-43665000D01*
G75*
G02*
X85470000Y-43515000I150000J0D01*
G01*
X87120000Y-43515000D01*
G75*
G02*
X87270000Y-43665000I0J-150000D01*
G01*
X87270000Y-43965000D01*
G75*
G02*
X87120000Y-44115000I-150000J0D01*
G01*
X85470000Y-44115000D01*
G75*
G02*
X85320000Y-43965000I0J150000D01*
G01*
G37*
G36*
G01*
X85320000Y-42695000D02*
X85320000Y-42395000D01*
G75*
G02*
X85470000Y-42245000I150000J0D01*
G01*
X87120000Y-42245000D01*
G75*
G02*
X87270000Y-42395000I0J-150000D01*
G01*
X87270000Y-42695000D01*
G75*
G02*
X87120000Y-42845000I-150000J0D01*
G01*
X85470000Y-42845000D01*
G75*
G02*
X85320000Y-42695000I0J150000D01*
G01*
G37*
G36*
G01*
X85320000Y-41425000D02*
X85320000Y-41125000D01*
G75*
G02*
X85470000Y-40975000I150000J0D01*
G01*
X87120000Y-40975000D01*
G75*
G02*
X87270000Y-41125000I0J-150000D01*
G01*
X87270000Y-41425000D01*
G75*
G02*
X87120000Y-41575000I-150000J0D01*
G01*
X85470000Y-41575000D01*
G75*
G02*
X85320000Y-41425000I0J150000D01*
G01*
G37*
G36*
G01*
X85320000Y-40155000D02*
X85320000Y-39855000D01*
G75*
G02*
X85470000Y-39705000I150000J0D01*
G01*
X87120000Y-39705000D01*
G75*
G02*
X87270000Y-39855000I0J-150000D01*
G01*
X87270000Y-40155000D01*
G75*
G02*
X87120000Y-40305000I-150000J0D01*
G01*
X85470000Y-40305000D01*
G75*
G02*
X85320000Y-40155000I0J150000D01*
G01*
G37*
G36*
G01*
X85320000Y-38885000D02*
X85320000Y-38585000D01*
G75*
G02*
X85470000Y-38435000I150000J0D01*
G01*
X87120000Y-38435000D01*
G75*
G02*
X87270000Y-38585000I0J-150000D01*
G01*
X87270000Y-38885000D01*
G75*
G02*
X87120000Y-39035000I-150000J0D01*
G01*
X85470000Y-39035000D01*
G75*
G02*
X85320000Y-38885000I0J150000D01*
G01*
G37*
%TD*%
%TO.C,U10*%
G36*
G01*
X52430000Y-52855000D02*
X52430000Y-52555000D01*
G75*
G02*
X52580000Y-52405000I150000J0D01*
G01*
X54230000Y-52405000D01*
G75*
G02*
X54380000Y-52555000I0J-150000D01*
G01*
X54380000Y-52855000D01*
G75*
G02*
X54230000Y-53005000I-150000J0D01*
G01*
X52580000Y-53005000D01*
G75*
G02*
X52430000Y-52855000I0J150000D01*
G01*
G37*
G36*
G01*
X52430000Y-54125000D02*
X52430000Y-53825000D01*
G75*
G02*
X52580000Y-53675000I150000J0D01*
G01*
X54230000Y-53675000D01*
G75*
G02*
X54380000Y-53825000I0J-150000D01*
G01*
X54380000Y-54125000D01*
G75*
G02*
X54230000Y-54275000I-150000J0D01*
G01*
X52580000Y-54275000D01*
G75*
G02*
X52430000Y-54125000I0J150000D01*
G01*
G37*
G36*
G01*
X52430000Y-55395000D02*
X52430000Y-55095000D01*
G75*
G02*
X52580000Y-54945000I150000J0D01*
G01*
X54230000Y-54945000D01*
G75*
G02*
X54380000Y-55095000I0J-150000D01*
G01*
X54380000Y-55395000D01*
G75*
G02*
X54230000Y-55545000I-150000J0D01*
G01*
X52580000Y-55545000D01*
G75*
G02*
X52430000Y-55395000I0J150000D01*
G01*
G37*
G36*
G01*
X52430000Y-56665000D02*
X52430000Y-56365000D01*
G75*
G02*
X52580000Y-56215000I150000J0D01*
G01*
X54230000Y-56215000D01*
G75*
G02*
X54380000Y-56365000I0J-150000D01*
G01*
X54380000Y-56665000D01*
G75*
G02*
X54230000Y-56815000I-150000J0D01*
G01*
X52580000Y-56815000D01*
G75*
G02*
X52430000Y-56665000I0J150000D01*
G01*
G37*
G36*
G01*
X52430000Y-57935000D02*
X52430000Y-57635000D01*
G75*
G02*
X52580000Y-57485000I150000J0D01*
G01*
X54230000Y-57485000D01*
G75*
G02*
X54380000Y-57635000I0J-150000D01*
G01*
X54380000Y-57935000D01*
G75*
G02*
X54230000Y-58085000I-150000J0D01*
G01*
X52580000Y-58085000D01*
G75*
G02*
X52430000Y-57935000I0J150000D01*
G01*
G37*
G36*
G01*
X52430000Y-59205000D02*
X52430000Y-58905000D01*
G75*
G02*
X52580000Y-58755000I150000J0D01*
G01*
X54230000Y-58755000D01*
G75*
G02*
X54380000Y-58905000I0J-150000D01*
G01*
X54380000Y-59205000D01*
G75*
G02*
X54230000Y-59355000I-150000J0D01*
G01*
X52580000Y-59355000D01*
G75*
G02*
X52430000Y-59205000I0J150000D01*
G01*
G37*
G36*
G01*
X52430000Y-60475000D02*
X52430000Y-60175000D01*
G75*
G02*
X52580000Y-60025000I150000J0D01*
G01*
X54230000Y-60025000D01*
G75*
G02*
X54380000Y-60175000I0J-150000D01*
G01*
X54380000Y-60475000D01*
G75*
G02*
X54230000Y-60625000I-150000J0D01*
G01*
X52580000Y-60625000D01*
G75*
G02*
X52430000Y-60475000I0J150000D01*
G01*
G37*
G36*
G01*
X52430000Y-61745000D02*
X52430000Y-61445000D01*
G75*
G02*
X52580000Y-61295000I150000J0D01*
G01*
X54230000Y-61295000D01*
G75*
G02*
X54380000Y-61445000I0J-150000D01*
G01*
X54380000Y-61745000D01*
G75*
G02*
X54230000Y-61895000I-150000J0D01*
G01*
X52580000Y-61895000D01*
G75*
G02*
X52430000Y-61745000I0J150000D01*
G01*
G37*
G36*
G01*
X57380000Y-61745000D02*
X57380000Y-61445000D01*
G75*
G02*
X57530000Y-61295000I150000J0D01*
G01*
X59180000Y-61295000D01*
G75*
G02*
X59330000Y-61445000I0J-150000D01*
G01*
X59330000Y-61745000D01*
G75*
G02*
X59180000Y-61895000I-150000J0D01*
G01*
X57530000Y-61895000D01*
G75*
G02*
X57380000Y-61745000I0J150000D01*
G01*
G37*
G36*
G01*
X57380000Y-60475000D02*
X57380000Y-60175000D01*
G75*
G02*
X57530000Y-60025000I150000J0D01*
G01*
X59180000Y-60025000D01*
G75*
G02*
X59330000Y-60175000I0J-150000D01*
G01*
X59330000Y-60475000D01*
G75*
G02*
X59180000Y-60625000I-150000J0D01*
G01*
X57530000Y-60625000D01*
G75*
G02*
X57380000Y-60475000I0J150000D01*
G01*
G37*
G36*
G01*
X57380000Y-59205000D02*
X57380000Y-58905000D01*
G75*
G02*
X57530000Y-58755000I150000J0D01*
G01*
X59180000Y-58755000D01*
G75*
G02*
X59330000Y-58905000I0J-150000D01*
G01*
X59330000Y-59205000D01*
G75*
G02*
X59180000Y-59355000I-150000J0D01*
G01*
X57530000Y-59355000D01*
G75*
G02*
X57380000Y-59205000I0J150000D01*
G01*
G37*
G36*
G01*
X57380000Y-57935000D02*
X57380000Y-57635000D01*
G75*
G02*
X57530000Y-57485000I150000J0D01*
G01*
X59180000Y-57485000D01*
G75*
G02*
X59330000Y-57635000I0J-150000D01*
G01*
X59330000Y-57935000D01*
G75*
G02*
X59180000Y-58085000I-150000J0D01*
G01*
X57530000Y-58085000D01*
G75*
G02*
X57380000Y-57935000I0J150000D01*
G01*
G37*
G36*
G01*
X57380000Y-56665000D02*
X57380000Y-56365000D01*
G75*
G02*
X57530000Y-56215000I150000J0D01*
G01*
X59180000Y-56215000D01*
G75*
G02*
X59330000Y-56365000I0J-150000D01*
G01*
X59330000Y-56665000D01*
G75*
G02*
X59180000Y-56815000I-150000J0D01*
G01*
X57530000Y-56815000D01*
G75*
G02*
X57380000Y-56665000I0J150000D01*
G01*
G37*
G36*
G01*
X57380000Y-55395000D02*
X57380000Y-55095000D01*
G75*
G02*
X57530000Y-54945000I150000J0D01*
G01*
X59180000Y-54945000D01*
G75*
G02*
X59330000Y-55095000I0J-150000D01*
G01*
X59330000Y-55395000D01*
G75*
G02*
X59180000Y-55545000I-150000J0D01*
G01*
X57530000Y-55545000D01*
G75*
G02*
X57380000Y-55395000I0J150000D01*
G01*
G37*
G36*
G01*
X57380000Y-54125000D02*
X57380000Y-53825000D01*
G75*
G02*
X57530000Y-53675000I150000J0D01*
G01*
X59180000Y-53675000D01*
G75*
G02*
X59330000Y-53825000I0J-150000D01*
G01*
X59330000Y-54125000D01*
G75*
G02*
X59180000Y-54275000I-150000J0D01*
G01*
X57530000Y-54275000D01*
G75*
G02*
X57380000Y-54125000I0J150000D01*
G01*
G37*
G36*
G01*
X57380000Y-52855000D02*
X57380000Y-52555000D01*
G75*
G02*
X57530000Y-52405000I150000J0D01*
G01*
X59180000Y-52405000D01*
G75*
G02*
X59330000Y-52555000I0J-150000D01*
G01*
X59330000Y-52855000D01*
G75*
G02*
X59180000Y-53005000I-150000J0D01*
G01*
X57530000Y-53005000D01*
G75*
G02*
X57380000Y-52855000I0J150000D01*
G01*
G37*
%TD*%
D13*
%TO.C,J3*%
X68580000Y-109220000D03*
D14*
X68580000Y-106680000D03*
X68580000Y-104140000D03*
X68580000Y-101600000D03*
X68580000Y-99060000D03*
X68580000Y-96520000D03*
X68580000Y-93980000D03*
X68580000Y-91440000D03*
X68580000Y-88900000D03*
X68580000Y-86360000D03*
X68580000Y-83820000D03*
X68580000Y-81280000D03*
X68580000Y-78740000D03*
X68580000Y-76200000D03*
X68580000Y-73660000D03*
X68580000Y-71120000D03*
X68580000Y-68580000D03*
X68580000Y-66040000D03*
X68580000Y-63500000D03*
X68580000Y-60960000D03*
X68580000Y-58420000D03*
X68580000Y-55880000D03*
X68580000Y-53340000D03*
X68580000Y-50800000D03*
%TD*%
%TO.C,U1*%
G36*
G01*
X56665000Y-45360000D02*
X56365000Y-45360000D01*
G75*
G02*
X56215000Y-45210000I0J150000D01*
G01*
X56215000Y-43560000D01*
G75*
G02*
X56365000Y-43410000I150000J0D01*
G01*
X56665000Y-43410000D01*
G75*
G02*
X56815000Y-43560000I0J-150000D01*
G01*
X56815000Y-45210000D01*
G75*
G02*
X56665000Y-45360000I-150000J0D01*
G01*
G37*
G36*
G01*
X57935000Y-45360000D02*
X57635000Y-45360000D01*
G75*
G02*
X57485000Y-45210000I0J150000D01*
G01*
X57485000Y-43560000D01*
G75*
G02*
X57635000Y-43410000I150000J0D01*
G01*
X57935000Y-43410000D01*
G75*
G02*
X58085000Y-43560000I0J-150000D01*
G01*
X58085000Y-45210000D01*
G75*
G02*
X57935000Y-45360000I-150000J0D01*
G01*
G37*
G36*
G01*
X59205000Y-45360000D02*
X58905000Y-45360000D01*
G75*
G02*
X58755000Y-45210000I0J150000D01*
G01*
X58755000Y-43560000D01*
G75*
G02*
X58905000Y-43410000I150000J0D01*
G01*
X59205000Y-43410000D01*
G75*
G02*
X59355000Y-43560000I0J-150000D01*
G01*
X59355000Y-45210000D01*
G75*
G02*
X59205000Y-45360000I-150000J0D01*
G01*
G37*
G36*
G01*
X60475000Y-45360000D02*
X60175000Y-45360000D01*
G75*
G02*
X60025000Y-45210000I0J150000D01*
G01*
X60025000Y-43560000D01*
G75*
G02*
X60175000Y-43410000I150000J0D01*
G01*
X60475000Y-43410000D01*
G75*
G02*
X60625000Y-43560000I0J-150000D01*
G01*
X60625000Y-45210000D01*
G75*
G02*
X60475000Y-45360000I-150000J0D01*
G01*
G37*
G36*
G01*
X61745000Y-45360000D02*
X61445000Y-45360000D01*
G75*
G02*
X61295000Y-45210000I0J150000D01*
G01*
X61295000Y-43560000D01*
G75*
G02*
X61445000Y-43410000I150000J0D01*
G01*
X61745000Y-43410000D01*
G75*
G02*
X61895000Y-43560000I0J-150000D01*
G01*
X61895000Y-45210000D01*
G75*
G02*
X61745000Y-45360000I-150000J0D01*
G01*
G37*
G36*
G01*
X63015000Y-45360000D02*
X62715000Y-45360000D01*
G75*
G02*
X62565000Y-45210000I0J150000D01*
G01*
X62565000Y-43560000D01*
G75*
G02*
X62715000Y-43410000I150000J0D01*
G01*
X63015000Y-43410000D01*
G75*
G02*
X63165000Y-43560000I0J-150000D01*
G01*
X63165000Y-45210000D01*
G75*
G02*
X63015000Y-45360000I-150000J0D01*
G01*
G37*
G36*
G01*
X64285000Y-45360000D02*
X63985000Y-45360000D01*
G75*
G02*
X63835000Y-45210000I0J150000D01*
G01*
X63835000Y-43560000D01*
G75*
G02*
X63985000Y-43410000I150000J0D01*
G01*
X64285000Y-43410000D01*
G75*
G02*
X64435000Y-43560000I0J-150000D01*
G01*
X64435000Y-45210000D01*
G75*
G02*
X64285000Y-45360000I-150000J0D01*
G01*
G37*
G36*
G01*
X65555000Y-45360000D02*
X65255000Y-45360000D01*
G75*
G02*
X65105000Y-45210000I0J150000D01*
G01*
X65105000Y-43560000D01*
G75*
G02*
X65255000Y-43410000I150000J0D01*
G01*
X65555000Y-43410000D01*
G75*
G02*
X65705000Y-43560000I0J-150000D01*
G01*
X65705000Y-45210000D01*
G75*
G02*
X65555000Y-45360000I-150000J0D01*
G01*
G37*
G36*
G01*
X65555000Y-40410000D02*
X65255000Y-40410000D01*
G75*
G02*
X65105000Y-40260000I0J150000D01*
G01*
X65105000Y-38610000D01*
G75*
G02*
X65255000Y-38460000I150000J0D01*
G01*
X65555000Y-38460000D01*
G75*
G02*
X65705000Y-38610000I0J-150000D01*
G01*
X65705000Y-40260000D01*
G75*
G02*
X65555000Y-40410000I-150000J0D01*
G01*
G37*
G36*
G01*
X64285000Y-40410000D02*
X63985000Y-40410000D01*
G75*
G02*
X63835000Y-40260000I0J150000D01*
G01*
X63835000Y-38610000D01*
G75*
G02*
X63985000Y-38460000I150000J0D01*
G01*
X64285000Y-38460000D01*
G75*
G02*
X64435000Y-38610000I0J-150000D01*
G01*
X64435000Y-40260000D01*
G75*
G02*
X64285000Y-40410000I-150000J0D01*
G01*
G37*
G36*
G01*
X63015000Y-40410000D02*
X62715000Y-40410000D01*
G75*
G02*
X62565000Y-40260000I0J150000D01*
G01*
X62565000Y-38610000D01*
G75*
G02*
X62715000Y-38460000I150000J0D01*
G01*
X63015000Y-38460000D01*
G75*
G02*
X63165000Y-38610000I0J-150000D01*
G01*
X63165000Y-40260000D01*
G75*
G02*
X63015000Y-40410000I-150000J0D01*
G01*
G37*
G36*
G01*
X61745000Y-40410000D02*
X61445000Y-40410000D01*
G75*
G02*
X61295000Y-40260000I0J150000D01*
G01*
X61295000Y-38610000D01*
G75*
G02*
X61445000Y-38460000I150000J0D01*
G01*
X61745000Y-38460000D01*
G75*
G02*
X61895000Y-38610000I0J-150000D01*
G01*
X61895000Y-40260000D01*
G75*
G02*
X61745000Y-40410000I-150000J0D01*
G01*
G37*
G36*
G01*
X60475000Y-40410000D02*
X60175000Y-40410000D01*
G75*
G02*
X60025000Y-40260000I0J150000D01*
G01*
X60025000Y-38610000D01*
G75*
G02*
X60175000Y-38460000I150000J0D01*
G01*
X60475000Y-38460000D01*
G75*
G02*
X60625000Y-38610000I0J-150000D01*
G01*
X60625000Y-40260000D01*
G75*
G02*
X60475000Y-40410000I-150000J0D01*
G01*
G37*
G36*
G01*
X59205000Y-40410000D02*
X58905000Y-40410000D01*
G75*
G02*
X58755000Y-40260000I0J150000D01*
G01*
X58755000Y-38610000D01*
G75*
G02*
X58905000Y-38460000I150000J0D01*
G01*
X59205000Y-38460000D01*
G75*
G02*
X59355000Y-38610000I0J-150000D01*
G01*
X59355000Y-40260000D01*
G75*
G02*
X59205000Y-40410000I-150000J0D01*
G01*
G37*
G36*
G01*
X57935000Y-40410000D02*
X57635000Y-40410000D01*
G75*
G02*
X57485000Y-40260000I0J150000D01*
G01*
X57485000Y-38610000D01*
G75*
G02*
X57635000Y-38460000I150000J0D01*
G01*
X57935000Y-38460000D01*
G75*
G02*
X58085000Y-38610000I0J-150000D01*
G01*
X58085000Y-40260000D01*
G75*
G02*
X57935000Y-40410000I-150000J0D01*
G01*
G37*
G36*
G01*
X56665000Y-40410000D02*
X56365000Y-40410000D01*
G75*
G02*
X56215000Y-40260000I0J150000D01*
G01*
X56215000Y-38610000D01*
G75*
G02*
X56365000Y-38460000I150000J0D01*
G01*
X56665000Y-38460000D01*
G75*
G02*
X56815000Y-38610000I0J-150000D01*
G01*
X56815000Y-40260000D01*
G75*
G02*
X56665000Y-40410000I-150000J0D01*
G01*
G37*
%TD*%
D13*
%TO.C,J4*%
X63500000Y-109220000D03*
D14*
X63500000Y-106680000D03*
X63500000Y-104140000D03*
X63500000Y-101600000D03*
X63500000Y-99060000D03*
X63500000Y-96520000D03*
X63500000Y-93980000D03*
X63500000Y-91440000D03*
X63500000Y-88900000D03*
X63500000Y-86360000D03*
X63500000Y-83820000D03*
X63500000Y-81280000D03*
X63500000Y-78740000D03*
X63500000Y-76200000D03*
X63500000Y-73660000D03*
X63500000Y-71120000D03*
X63500000Y-68580000D03*
X63500000Y-66040000D03*
X63500000Y-63500000D03*
X63500000Y-60960000D03*
X63500000Y-58420000D03*
X63500000Y-55880000D03*
X63500000Y-53340000D03*
X63500000Y-50800000D03*
%TD*%
%TO.C,BU9480F1*%
G36*
G01*
X87145000Y-104730000D02*
X86845000Y-104730000D01*
G75*
G02*
X86695000Y-104580000I0J150000D01*
G01*
X86695000Y-103280000D01*
G75*
G02*
X86845000Y-103130000I150000J0D01*
G01*
X87145000Y-103130000D01*
G75*
G02*
X87295000Y-103280000I0J-150000D01*
G01*
X87295000Y-104580000D01*
G75*
G02*
X87145000Y-104730000I-150000J0D01*
G01*
G37*
G36*
G01*
X88415000Y-104730000D02*
X88115000Y-104730000D01*
G75*
G02*
X87965000Y-104580000I0J150000D01*
G01*
X87965000Y-103280000D01*
G75*
G02*
X88115000Y-103130000I150000J0D01*
G01*
X88415000Y-103130000D01*
G75*
G02*
X88565000Y-103280000I0J-150000D01*
G01*
X88565000Y-104580000D01*
G75*
G02*
X88415000Y-104730000I-150000J0D01*
G01*
G37*
G36*
G01*
X89685000Y-104730000D02*
X89385000Y-104730000D01*
G75*
G02*
X89235000Y-104580000I0J150000D01*
G01*
X89235000Y-103280000D01*
G75*
G02*
X89385000Y-103130000I150000J0D01*
G01*
X89685000Y-103130000D01*
G75*
G02*
X89835000Y-103280000I0J-150000D01*
G01*
X89835000Y-104580000D01*
G75*
G02*
X89685000Y-104730000I-150000J0D01*
G01*
G37*
G36*
G01*
X90955000Y-104730000D02*
X90655000Y-104730000D01*
G75*
G02*
X90505000Y-104580000I0J150000D01*
G01*
X90505000Y-103280000D01*
G75*
G02*
X90655000Y-103130000I150000J0D01*
G01*
X90955000Y-103130000D01*
G75*
G02*
X91105000Y-103280000I0J-150000D01*
G01*
X91105000Y-104580000D01*
G75*
G02*
X90955000Y-104730000I-150000J0D01*
G01*
G37*
G36*
G01*
X90955000Y-97530000D02*
X90655000Y-97530000D01*
G75*
G02*
X90505000Y-97380000I0J150000D01*
G01*
X90505000Y-96080000D01*
G75*
G02*
X90655000Y-95930000I150000J0D01*
G01*
X90955000Y-95930000D01*
G75*
G02*
X91105000Y-96080000I0J-150000D01*
G01*
X91105000Y-97380000D01*
G75*
G02*
X90955000Y-97530000I-150000J0D01*
G01*
G37*
G36*
G01*
X89685000Y-97530000D02*
X89385000Y-97530000D01*
G75*
G02*
X89235000Y-97380000I0J150000D01*
G01*
X89235000Y-96080000D01*
G75*
G02*
X89385000Y-95930000I150000J0D01*
G01*
X89685000Y-95930000D01*
G75*
G02*
X89835000Y-96080000I0J-150000D01*
G01*
X89835000Y-97380000D01*
G75*
G02*
X89685000Y-97530000I-150000J0D01*
G01*
G37*
G36*
G01*
X88415000Y-97530000D02*
X88115000Y-97530000D01*
G75*
G02*
X87965000Y-97380000I0J150000D01*
G01*
X87965000Y-96080000D01*
G75*
G02*
X88115000Y-95930000I150000J0D01*
G01*
X88415000Y-95930000D01*
G75*
G02*
X88565000Y-96080000I0J-150000D01*
G01*
X88565000Y-97380000D01*
G75*
G02*
X88415000Y-97530000I-150000J0D01*
G01*
G37*
G36*
G01*
X87145000Y-97530000D02*
X86845000Y-97530000D01*
G75*
G02*
X86695000Y-97380000I0J150000D01*
G01*
X86695000Y-96080000D01*
G75*
G02*
X86845000Y-95930000I150000J0D01*
G01*
X87145000Y-95930000D01*
G75*
G02*
X87295000Y-96080000I0J-150000D01*
G01*
X87295000Y-97380000D01*
G75*
G02*
X87145000Y-97530000I-150000J0D01*
G01*
G37*
%TD*%
%TO.C,U9*%
G36*
G01*
X91925000Y-62590000D02*
X92225000Y-62590000D01*
G75*
G02*
X92375000Y-62740000I0J-150000D01*
G01*
X92375000Y-64390000D01*
G75*
G02*
X92225000Y-64540000I-150000J0D01*
G01*
X91925000Y-64540000D01*
G75*
G02*
X91775000Y-64390000I0J150000D01*
G01*
X91775000Y-62740000D01*
G75*
G02*
X91925000Y-62590000I150000J0D01*
G01*
G37*
G36*
G01*
X90655000Y-62590000D02*
X90955000Y-62590000D01*
G75*
G02*
X91105000Y-62740000I0J-150000D01*
G01*
X91105000Y-64390000D01*
G75*
G02*
X90955000Y-64540000I-150000J0D01*
G01*
X90655000Y-64540000D01*
G75*
G02*
X90505000Y-64390000I0J150000D01*
G01*
X90505000Y-62740000D01*
G75*
G02*
X90655000Y-62590000I150000J0D01*
G01*
G37*
G36*
G01*
X89385000Y-62590000D02*
X89685000Y-62590000D01*
G75*
G02*
X89835000Y-62740000I0J-150000D01*
G01*
X89835000Y-64390000D01*
G75*
G02*
X89685000Y-64540000I-150000J0D01*
G01*
X89385000Y-64540000D01*
G75*
G02*
X89235000Y-64390000I0J150000D01*
G01*
X89235000Y-62740000D01*
G75*
G02*
X89385000Y-62590000I150000J0D01*
G01*
G37*
G36*
G01*
X88115000Y-62590000D02*
X88415000Y-62590000D01*
G75*
G02*
X88565000Y-62740000I0J-150000D01*
G01*
X88565000Y-64390000D01*
G75*
G02*
X88415000Y-64540000I-150000J0D01*
G01*
X88115000Y-64540000D01*
G75*
G02*
X87965000Y-64390000I0J150000D01*
G01*
X87965000Y-62740000D01*
G75*
G02*
X88115000Y-62590000I150000J0D01*
G01*
G37*
G36*
G01*
X86845000Y-62590000D02*
X87145000Y-62590000D01*
G75*
G02*
X87295000Y-62740000I0J-150000D01*
G01*
X87295000Y-64390000D01*
G75*
G02*
X87145000Y-64540000I-150000J0D01*
G01*
X86845000Y-64540000D01*
G75*
G02*
X86695000Y-64390000I0J150000D01*
G01*
X86695000Y-62740000D01*
G75*
G02*
X86845000Y-62590000I150000J0D01*
G01*
G37*
G36*
G01*
X85575000Y-62590000D02*
X85875000Y-62590000D01*
G75*
G02*
X86025000Y-62740000I0J-150000D01*
G01*
X86025000Y-64390000D01*
G75*
G02*
X85875000Y-64540000I-150000J0D01*
G01*
X85575000Y-64540000D01*
G75*
G02*
X85425000Y-64390000I0J150000D01*
G01*
X85425000Y-62740000D01*
G75*
G02*
X85575000Y-62590000I150000J0D01*
G01*
G37*
G36*
G01*
X84305000Y-62590000D02*
X84605000Y-62590000D01*
G75*
G02*
X84755000Y-62740000I0J-150000D01*
G01*
X84755000Y-64390000D01*
G75*
G02*
X84605000Y-64540000I-150000J0D01*
G01*
X84305000Y-64540000D01*
G75*
G02*
X84155000Y-64390000I0J150000D01*
G01*
X84155000Y-62740000D01*
G75*
G02*
X84305000Y-62590000I150000J0D01*
G01*
G37*
G36*
G01*
X83035000Y-62590000D02*
X83335000Y-62590000D01*
G75*
G02*
X83485000Y-62740000I0J-150000D01*
G01*
X83485000Y-64390000D01*
G75*
G02*
X83335000Y-64540000I-150000J0D01*
G01*
X83035000Y-64540000D01*
G75*
G02*
X82885000Y-64390000I0J150000D01*
G01*
X82885000Y-62740000D01*
G75*
G02*
X83035000Y-62590000I150000J0D01*
G01*
G37*
G36*
G01*
X83035000Y-67540000D02*
X83335000Y-67540000D01*
G75*
G02*
X83485000Y-67690000I0J-150000D01*
G01*
X83485000Y-69340000D01*
G75*
G02*
X83335000Y-69490000I-150000J0D01*
G01*
X83035000Y-69490000D01*
G75*
G02*
X82885000Y-69340000I0J150000D01*
G01*
X82885000Y-67690000D01*
G75*
G02*
X83035000Y-67540000I150000J0D01*
G01*
G37*
G36*
G01*
X84305000Y-67540000D02*
X84605000Y-67540000D01*
G75*
G02*
X84755000Y-67690000I0J-150000D01*
G01*
X84755000Y-69340000D01*
G75*
G02*
X84605000Y-69490000I-150000J0D01*
G01*
X84305000Y-69490000D01*
G75*
G02*
X84155000Y-69340000I0J150000D01*
G01*
X84155000Y-67690000D01*
G75*
G02*
X84305000Y-67540000I150000J0D01*
G01*
G37*
G36*
G01*
X85575000Y-67540000D02*
X85875000Y-67540000D01*
G75*
G02*
X86025000Y-67690000I0J-150000D01*
G01*
X86025000Y-69340000D01*
G75*
G02*
X85875000Y-69490000I-150000J0D01*
G01*
X85575000Y-69490000D01*
G75*
G02*
X85425000Y-69340000I0J150000D01*
G01*
X85425000Y-67690000D01*
G75*
G02*
X85575000Y-67540000I150000J0D01*
G01*
G37*
G36*
G01*
X86845000Y-67540000D02*
X87145000Y-67540000D01*
G75*
G02*
X87295000Y-67690000I0J-150000D01*
G01*
X87295000Y-69340000D01*
G75*
G02*
X87145000Y-69490000I-150000J0D01*
G01*
X86845000Y-69490000D01*
G75*
G02*
X86695000Y-69340000I0J150000D01*
G01*
X86695000Y-67690000D01*
G75*
G02*
X86845000Y-67540000I150000J0D01*
G01*
G37*
G36*
G01*
X88115000Y-67540000D02*
X88415000Y-67540000D01*
G75*
G02*
X88565000Y-67690000I0J-150000D01*
G01*
X88565000Y-69340000D01*
G75*
G02*
X88415000Y-69490000I-150000J0D01*
G01*
X88115000Y-69490000D01*
G75*
G02*
X87965000Y-69340000I0J150000D01*
G01*
X87965000Y-67690000D01*
G75*
G02*
X88115000Y-67540000I150000J0D01*
G01*
G37*
G36*
G01*
X89385000Y-67540000D02*
X89685000Y-67540000D01*
G75*
G02*
X89835000Y-67690000I0J-150000D01*
G01*
X89835000Y-69340000D01*
G75*
G02*
X89685000Y-69490000I-150000J0D01*
G01*
X89385000Y-69490000D01*
G75*
G02*
X89235000Y-69340000I0J150000D01*
G01*
X89235000Y-67690000D01*
G75*
G02*
X89385000Y-67540000I150000J0D01*
G01*
G37*
G36*
G01*
X90655000Y-67540000D02*
X90955000Y-67540000D01*
G75*
G02*
X91105000Y-67690000I0J-150000D01*
G01*
X91105000Y-69340000D01*
G75*
G02*
X90955000Y-69490000I-150000J0D01*
G01*
X90655000Y-69490000D01*
G75*
G02*
X90505000Y-69340000I0J150000D01*
G01*
X90505000Y-67690000D01*
G75*
G02*
X90655000Y-67540000I150000J0D01*
G01*
G37*
G36*
G01*
X91925000Y-67540000D02*
X92225000Y-67540000D01*
G75*
G02*
X92375000Y-67690000I0J-150000D01*
G01*
X92375000Y-69340000D01*
G75*
G02*
X92225000Y-69490000I-150000J0D01*
G01*
X91925000Y-69490000D01*
G75*
G02*
X91775000Y-69340000I0J150000D01*
G01*
X91775000Y-67690000D01*
G75*
G02*
X91925000Y-67540000I150000J0D01*
G01*
G37*
%TD*%
%TO.C,U7*%
G36*
G01*
X73385000Y-50315000D02*
X73385000Y-50015000D01*
G75*
G02*
X73535000Y-49865000I150000J0D01*
G01*
X75185000Y-49865000D01*
G75*
G02*
X75335000Y-50015000I0J-150000D01*
G01*
X75335000Y-50315000D01*
G75*
G02*
X75185000Y-50465000I-150000J0D01*
G01*
X73535000Y-50465000D01*
G75*
G02*
X73385000Y-50315000I0J150000D01*
G01*
G37*
G36*
G01*
X73385000Y-51585000D02*
X73385000Y-51285000D01*
G75*
G02*
X73535000Y-51135000I150000J0D01*
G01*
X75185000Y-51135000D01*
G75*
G02*
X75335000Y-51285000I0J-150000D01*
G01*
X75335000Y-51585000D01*
G75*
G02*
X75185000Y-51735000I-150000J0D01*
G01*
X73535000Y-51735000D01*
G75*
G02*
X73385000Y-51585000I0J150000D01*
G01*
G37*
G36*
G01*
X73385000Y-52855000D02*
X73385000Y-52555000D01*
G75*
G02*
X73535000Y-52405000I150000J0D01*
G01*
X75185000Y-52405000D01*
G75*
G02*
X75335000Y-52555000I0J-150000D01*
G01*
X75335000Y-52855000D01*
G75*
G02*
X75185000Y-53005000I-150000J0D01*
G01*
X73535000Y-53005000D01*
G75*
G02*
X73385000Y-52855000I0J150000D01*
G01*
G37*
G36*
G01*
X73385000Y-54125000D02*
X73385000Y-53825000D01*
G75*
G02*
X73535000Y-53675000I150000J0D01*
G01*
X75185000Y-53675000D01*
G75*
G02*
X75335000Y-53825000I0J-150000D01*
G01*
X75335000Y-54125000D01*
G75*
G02*
X75185000Y-54275000I-150000J0D01*
G01*
X73535000Y-54275000D01*
G75*
G02*
X73385000Y-54125000I0J150000D01*
G01*
G37*
G36*
G01*
X73385000Y-55395000D02*
X73385000Y-55095000D01*
G75*
G02*
X73535000Y-54945000I150000J0D01*
G01*
X75185000Y-54945000D01*
G75*
G02*
X75335000Y-55095000I0J-150000D01*
G01*
X75335000Y-55395000D01*
G75*
G02*
X75185000Y-55545000I-150000J0D01*
G01*
X73535000Y-55545000D01*
G75*
G02*
X73385000Y-55395000I0J150000D01*
G01*
G37*
G36*
G01*
X73385000Y-56665000D02*
X73385000Y-56365000D01*
G75*
G02*
X73535000Y-56215000I150000J0D01*
G01*
X75185000Y-56215000D01*
G75*
G02*
X75335000Y-56365000I0J-150000D01*
G01*
X75335000Y-56665000D01*
G75*
G02*
X75185000Y-56815000I-150000J0D01*
G01*
X73535000Y-56815000D01*
G75*
G02*
X73385000Y-56665000I0J150000D01*
G01*
G37*
G36*
G01*
X73385000Y-57935000D02*
X73385000Y-57635000D01*
G75*
G02*
X73535000Y-57485000I150000J0D01*
G01*
X75185000Y-57485000D01*
G75*
G02*
X75335000Y-57635000I0J-150000D01*
G01*
X75335000Y-57935000D01*
G75*
G02*
X75185000Y-58085000I-150000J0D01*
G01*
X73535000Y-58085000D01*
G75*
G02*
X73385000Y-57935000I0J150000D01*
G01*
G37*
G36*
G01*
X73385000Y-59205000D02*
X73385000Y-58905000D01*
G75*
G02*
X73535000Y-58755000I150000J0D01*
G01*
X75185000Y-58755000D01*
G75*
G02*
X75335000Y-58905000I0J-150000D01*
G01*
X75335000Y-59205000D01*
G75*
G02*
X75185000Y-59355000I-150000J0D01*
G01*
X73535000Y-59355000D01*
G75*
G02*
X73385000Y-59205000I0J150000D01*
G01*
G37*
G36*
G01*
X78335000Y-59205000D02*
X78335000Y-58905000D01*
G75*
G02*
X78485000Y-58755000I150000J0D01*
G01*
X80135000Y-58755000D01*
G75*
G02*
X80285000Y-58905000I0J-150000D01*
G01*
X80285000Y-59205000D01*
G75*
G02*
X80135000Y-59355000I-150000J0D01*
G01*
X78485000Y-59355000D01*
G75*
G02*
X78335000Y-59205000I0J150000D01*
G01*
G37*
G36*
G01*
X78335000Y-57935000D02*
X78335000Y-57635000D01*
G75*
G02*
X78485000Y-57485000I150000J0D01*
G01*
X80135000Y-57485000D01*
G75*
G02*
X80285000Y-57635000I0J-150000D01*
G01*
X80285000Y-57935000D01*
G75*
G02*
X80135000Y-58085000I-150000J0D01*
G01*
X78485000Y-58085000D01*
G75*
G02*
X78335000Y-57935000I0J150000D01*
G01*
G37*
G36*
G01*
X78335000Y-56665000D02*
X78335000Y-56365000D01*
G75*
G02*
X78485000Y-56215000I150000J0D01*
G01*
X80135000Y-56215000D01*
G75*
G02*
X80285000Y-56365000I0J-150000D01*
G01*
X80285000Y-56665000D01*
G75*
G02*
X80135000Y-56815000I-150000J0D01*
G01*
X78485000Y-56815000D01*
G75*
G02*
X78335000Y-56665000I0J150000D01*
G01*
G37*
G36*
G01*
X78335000Y-55395000D02*
X78335000Y-55095000D01*
G75*
G02*
X78485000Y-54945000I150000J0D01*
G01*
X80135000Y-54945000D01*
G75*
G02*
X80285000Y-55095000I0J-150000D01*
G01*
X80285000Y-55395000D01*
G75*
G02*
X80135000Y-55545000I-150000J0D01*
G01*
X78485000Y-55545000D01*
G75*
G02*
X78335000Y-55395000I0J150000D01*
G01*
G37*
G36*
G01*
X78335000Y-54125000D02*
X78335000Y-53825000D01*
G75*
G02*
X78485000Y-53675000I150000J0D01*
G01*
X80135000Y-53675000D01*
G75*
G02*
X80285000Y-53825000I0J-150000D01*
G01*
X80285000Y-54125000D01*
G75*
G02*
X80135000Y-54275000I-150000J0D01*
G01*
X78485000Y-54275000D01*
G75*
G02*
X78335000Y-54125000I0J150000D01*
G01*
G37*
G36*
G01*
X78335000Y-52855000D02*
X78335000Y-52555000D01*
G75*
G02*
X78485000Y-52405000I150000J0D01*
G01*
X80135000Y-52405000D01*
G75*
G02*
X80285000Y-52555000I0J-150000D01*
G01*
X80285000Y-52855000D01*
G75*
G02*
X80135000Y-53005000I-150000J0D01*
G01*
X78485000Y-53005000D01*
G75*
G02*
X78335000Y-52855000I0J150000D01*
G01*
G37*
G36*
G01*
X78335000Y-51585000D02*
X78335000Y-51285000D01*
G75*
G02*
X78485000Y-51135000I150000J0D01*
G01*
X80135000Y-51135000D01*
G75*
G02*
X80285000Y-51285000I0J-150000D01*
G01*
X80285000Y-51585000D01*
G75*
G02*
X80135000Y-51735000I-150000J0D01*
G01*
X78485000Y-51735000D01*
G75*
G02*
X78335000Y-51585000I0J150000D01*
G01*
G37*
G36*
G01*
X78335000Y-50315000D02*
X78335000Y-50015000D01*
G75*
G02*
X78485000Y-49865000I150000J0D01*
G01*
X80135000Y-49865000D01*
G75*
G02*
X80285000Y-50015000I0J-150000D01*
G01*
X80285000Y-50315000D01*
G75*
G02*
X80135000Y-50465000I-150000J0D01*
G01*
X78485000Y-50465000D01*
G75*
G02*
X78335000Y-50315000I0J150000D01*
G01*
G37*
%TD*%
%TO.C,U6*%
G36*
G01*
X84815000Y-50315000D02*
X84815000Y-50015000D01*
G75*
G02*
X84965000Y-49865000I150000J0D01*
G01*
X86615000Y-49865000D01*
G75*
G02*
X86765000Y-50015000I0J-150000D01*
G01*
X86765000Y-50315000D01*
G75*
G02*
X86615000Y-50465000I-150000J0D01*
G01*
X84965000Y-50465000D01*
G75*
G02*
X84815000Y-50315000I0J150000D01*
G01*
G37*
G36*
G01*
X84815000Y-51585000D02*
X84815000Y-51285000D01*
G75*
G02*
X84965000Y-51135000I150000J0D01*
G01*
X86615000Y-51135000D01*
G75*
G02*
X86765000Y-51285000I0J-150000D01*
G01*
X86765000Y-51585000D01*
G75*
G02*
X86615000Y-51735000I-150000J0D01*
G01*
X84965000Y-51735000D01*
G75*
G02*
X84815000Y-51585000I0J150000D01*
G01*
G37*
G36*
G01*
X84815000Y-52855000D02*
X84815000Y-52555000D01*
G75*
G02*
X84965000Y-52405000I150000J0D01*
G01*
X86615000Y-52405000D01*
G75*
G02*
X86765000Y-52555000I0J-150000D01*
G01*
X86765000Y-52855000D01*
G75*
G02*
X86615000Y-53005000I-150000J0D01*
G01*
X84965000Y-53005000D01*
G75*
G02*
X84815000Y-52855000I0J150000D01*
G01*
G37*
G36*
G01*
X84815000Y-54125000D02*
X84815000Y-53825000D01*
G75*
G02*
X84965000Y-53675000I150000J0D01*
G01*
X86615000Y-53675000D01*
G75*
G02*
X86765000Y-53825000I0J-150000D01*
G01*
X86765000Y-54125000D01*
G75*
G02*
X86615000Y-54275000I-150000J0D01*
G01*
X84965000Y-54275000D01*
G75*
G02*
X84815000Y-54125000I0J150000D01*
G01*
G37*
G36*
G01*
X84815000Y-55395000D02*
X84815000Y-55095000D01*
G75*
G02*
X84965000Y-54945000I150000J0D01*
G01*
X86615000Y-54945000D01*
G75*
G02*
X86765000Y-55095000I0J-150000D01*
G01*
X86765000Y-55395000D01*
G75*
G02*
X86615000Y-55545000I-150000J0D01*
G01*
X84965000Y-55545000D01*
G75*
G02*
X84815000Y-55395000I0J150000D01*
G01*
G37*
G36*
G01*
X84815000Y-56665000D02*
X84815000Y-56365000D01*
G75*
G02*
X84965000Y-56215000I150000J0D01*
G01*
X86615000Y-56215000D01*
G75*
G02*
X86765000Y-56365000I0J-150000D01*
G01*
X86765000Y-56665000D01*
G75*
G02*
X86615000Y-56815000I-150000J0D01*
G01*
X84965000Y-56815000D01*
G75*
G02*
X84815000Y-56665000I0J150000D01*
G01*
G37*
G36*
G01*
X84815000Y-57935000D02*
X84815000Y-57635000D01*
G75*
G02*
X84965000Y-57485000I150000J0D01*
G01*
X86615000Y-57485000D01*
G75*
G02*
X86765000Y-57635000I0J-150000D01*
G01*
X86765000Y-57935000D01*
G75*
G02*
X86615000Y-58085000I-150000J0D01*
G01*
X84965000Y-58085000D01*
G75*
G02*
X84815000Y-57935000I0J150000D01*
G01*
G37*
G36*
G01*
X84815000Y-59205000D02*
X84815000Y-58905000D01*
G75*
G02*
X84965000Y-58755000I150000J0D01*
G01*
X86615000Y-58755000D01*
G75*
G02*
X86765000Y-58905000I0J-150000D01*
G01*
X86765000Y-59205000D01*
G75*
G02*
X86615000Y-59355000I-150000J0D01*
G01*
X84965000Y-59355000D01*
G75*
G02*
X84815000Y-59205000I0J150000D01*
G01*
G37*
G36*
G01*
X89765000Y-59205000D02*
X89765000Y-58905000D01*
G75*
G02*
X89915000Y-58755000I150000J0D01*
G01*
X91565000Y-58755000D01*
G75*
G02*
X91715000Y-58905000I0J-150000D01*
G01*
X91715000Y-59205000D01*
G75*
G02*
X91565000Y-59355000I-150000J0D01*
G01*
X89915000Y-59355000D01*
G75*
G02*
X89765000Y-59205000I0J150000D01*
G01*
G37*
G36*
G01*
X89765000Y-57935000D02*
X89765000Y-57635000D01*
G75*
G02*
X89915000Y-57485000I150000J0D01*
G01*
X91565000Y-57485000D01*
G75*
G02*
X91715000Y-57635000I0J-150000D01*
G01*
X91715000Y-57935000D01*
G75*
G02*
X91565000Y-58085000I-150000J0D01*
G01*
X89915000Y-58085000D01*
G75*
G02*
X89765000Y-57935000I0J150000D01*
G01*
G37*
G36*
G01*
X89765000Y-56665000D02*
X89765000Y-56365000D01*
G75*
G02*
X89915000Y-56215000I150000J0D01*
G01*
X91565000Y-56215000D01*
G75*
G02*
X91715000Y-56365000I0J-150000D01*
G01*
X91715000Y-56665000D01*
G75*
G02*
X91565000Y-56815000I-150000J0D01*
G01*
X89915000Y-56815000D01*
G75*
G02*
X89765000Y-56665000I0J150000D01*
G01*
G37*
G36*
G01*
X89765000Y-55395000D02*
X89765000Y-55095000D01*
G75*
G02*
X89915000Y-54945000I150000J0D01*
G01*
X91565000Y-54945000D01*
G75*
G02*
X91715000Y-55095000I0J-150000D01*
G01*
X91715000Y-55395000D01*
G75*
G02*
X91565000Y-55545000I-150000J0D01*
G01*
X89915000Y-55545000D01*
G75*
G02*
X89765000Y-55395000I0J150000D01*
G01*
G37*
G36*
G01*
X89765000Y-54125000D02*
X89765000Y-53825000D01*
G75*
G02*
X89915000Y-53675000I150000J0D01*
G01*
X91565000Y-53675000D01*
G75*
G02*
X91715000Y-53825000I0J-150000D01*
G01*
X91715000Y-54125000D01*
G75*
G02*
X91565000Y-54275000I-150000J0D01*
G01*
X89915000Y-54275000D01*
G75*
G02*
X89765000Y-54125000I0J150000D01*
G01*
G37*
G36*
G01*
X89765000Y-52855000D02*
X89765000Y-52555000D01*
G75*
G02*
X89915000Y-52405000I150000J0D01*
G01*
X91565000Y-52405000D01*
G75*
G02*
X91715000Y-52555000I0J-150000D01*
G01*
X91715000Y-52855000D01*
G75*
G02*
X91565000Y-53005000I-150000J0D01*
G01*
X89915000Y-53005000D01*
G75*
G02*
X89765000Y-52855000I0J150000D01*
G01*
G37*
G36*
G01*
X89765000Y-51585000D02*
X89765000Y-51285000D01*
G75*
G02*
X89915000Y-51135000I150000J0D01*
G01*
X91565000Y-51135000D01*
G75*
G02*
X91715000Y-51285000I0J-150000D01*
G01*
X91715000Y-51585000D01*
G75*
G02*
X91565000Y-51735000I-150000J0D01*
G01*
X89915000Y-51735000D01*
G75*
G02*
X89765000Y-51585000I0J150000D01*
G01*
G37*
G36*
G01*
X89765000Y-50315000D02*
X89765000Y-50015000D01*
G75*
G02*
X89915000Y-49865000I150000J0D01*
G01*
X91565000Y-49865000D01*
G75*
G02*
X91715000Y-50015000I0J-150000D01*
G01*
X91715000Y-50315000D01*
G75*
G02*
X91565000Y-50465000I-150000J0D01*
G01*
X89915000Y-50465000D01*
G75*
G02*
X89765000Y-50315000I0J150000D01*
G01*
G37*
%TD*%
D13*
%TO.C,J7*%
X54610000Y-111760000D03*
D14*
X54610000Y-114300000D03*
%TD*%
D13*
%TO.C,J2*%
X54610000Y-81280000D03*
D14*
X54610000Y-78740000D03*
X54610000Y-76200000D03*
X54610000Y-73660000D03*
X54610000Y-71120000D03*
X54610000Y-68580000D03*
X54610000Y-66040000D03*
%TD*%
D13*
%TO.C,J5*%
X54610000Y-118110000D03*
D14*
X54610000Y-120650000D03*
%TD*%
D15*
%TO.C,X1*%
X74810000Y-91260000D03*
X74810000Y-96520000D03*
X80010000Y-96520000D03*
X80010000Y-91260000D03*
%TD*%
%TO.C,R6*%
G36*
G01*
X83000001Y-121335000D02*
X82099999Y-121335000D01*
G75*
G02*
X81850000Y-121085001I0J249999D01*
G01*
X81850000Y-120384999D01*
G75*
G02*
X82099999Y-120135000I249999J0D01*
G01*
X83000001Y-120135000D01*
G75*
G02*
X83250000Y-120384999I0J-249999D01*
G01*
X83250000Y-121085001D01*
G75*
G02*
X83000001Y-121335000I-249999J0D01*
G01*
G37*
G36*
G01*
X83000001Y-119335000D02*
X82099999Y-119335000D01*
G75*
G02*
X81850000Y-119085001I0J249999D01*
G01*
X81850000Y-118384999D01*
G75*
G02*
X82099999Y-118135000I249999J0D01*
G01*
X83000001Y-118135000D01*
G75*
G02*
X83250000Y-118384999I0J-249999D01*
G01*
X83250000Y-119085001D01*
G75*
G02*
X83000001Y-119335000I-249999J0D01*
G01*
G37*
%TD*%
%TO.C,YMF288*%
G36*
G01*
X133200000Y-86810000D02*
X133500000Y-86810000D01*
G75*
G02*
X133650000Y-86960000I0J-150000D01*
G01*
X133650000Y-88710000D01*
G75*
G02*
X133500000Y-88860000I-150000J0D01*
G01*
X133200000Y-88860000D01*
G75*
G02*
X133050000Y-88710000I0J150000D01*
G01*
X133050000Y-86960000D01*
G75*
G02*
X133200000Y-86810000I150000J0D01*
G01*
G37*
G36*
G01*
X131930000Y-86810000D02*
X132230000Y-86810000D01*
G75*
G02*
X132380000Y-86960000I0J-150000D01*
G01*
X132380000Y-88710000D01*
G75*
G02*
X132230000Y-88860000I-150000J0D01*
G01*
X131930000Y-88860000D01*
G75*
G02*
X131780000Y-88710000I0J150000D01*
G01*
X131780000Y-86960000D01*
G75*
G02*
X131930000Y-86810000I150000J0D01*
G01*
G37*
G36*
G01*
X130660000Y-86810000D02*
X130960000Y-86810000D01*
G75*
G02*
X131110000Y-86960000I0J-150000D01*
G01*
X131110000Y-88710000D01*
G75*
G02*
X130960000Y-88860000I-150000J0D01*
G01*
X130660000Y-88860000D01*
G75*
G02*
X130510000Y-88710000I0J150000D01*
G01*
X130510000Y-86960000D01*
G75*
G02*
X130660000Y-86810000I150000J0D01*
G01*
G37*
G36*
G01*
X120500000Y-86810000D02*
X120800000Y-86810000D01*
G75*
G02*
X120950000Y-86960000I0J-150000D01*
G01*
X120950000Y-88710000D01*
G75*
G02*
X120800000Y-88860000I-150000J0D01*
G01*
X120500000Y-88860000D01*
G75*
G02*
X120350000Y-88710000I0J150000D01*
G01*
X120350000Y-86960000D01*
G75*
G02*
X120500000Y-86810000I150000J0D01*
G01*
G37*
G36*
G01*
X117960000Y-86810000D02*
X118260000Y-86810000D01*
G75*
G02*
X118410000Y-86960000I0J-150000D01*
G01*
X118410000Y-88710000D01*
G75*
G02*
X118260000Y-88860000I-150000J0D01*
G01*
X117960000Y-88860000D01*
G75*
G02*
X117810000Y-88710000I0J150000D01*
G01*
X117810000Y-86960000D01*
G75*
G02*
X117960000Y-86810000I150000J0D01*
G01*
G37*
G36*
G01*
X134470000Y-86810000D02*
X134770000Y-86810000D01*
G75*
G02*
X134920000Y-86960000I0J-150000D01*
G01*
X134920000Y-88710000D01*
G75*
G02*
X134770000Y-88860000I-150000J0D01*
G01*
X134470000Y-88860000D01*
G75*
G02*
X134320000Y-88710000I0J150000D01*
G01*
X134320000Y-86960000D01*
G75*
G02*
X134470000Y-86810000I150000J0D01*
G01*
G37*
G36*
G01*
X124310000Y-86810000D02*
X124610000Y-86810000D01*
G75*
G02*
X124760000Y-86960000I0J-150000D01*
G01*
X124760000Y-88710000D01*
G75*
G02*
X124610000Y-88860000I-150000J0D01*
G01*
X124310000Y-88860000D01*
G75*
G02*
X124160000Y-88710000I0J150000D01*
G01*
X124160000Y-86960000D01*
G75*
G02*
X124310000Y-86810000I150000J0D01*
G01*
G37*
G36*
G01*
X119230000Y-86810000D02*
X119530000Y-86810000D01*
G75*
G02*
X119680000Y-86960000I0J-150000D01*
G01*
X119680000Y-88710000D01*
G75*
G02*
X119530000Y-88860000I-150000J0D01*
G01*
X119230000Y-88860000D01*
G75*
G02*
X119080000Y-88710000I0J150000D01*
G01*
X119080000Y-86960000D01*
G75*
G02*
X119230000Y-86810000I150000J0D01*
G01*
G37*
G36*
G01*
X126850000Y-86810000D02*
X127150000Y-86810000D01*
G75*
G02*
X127300000Y-86960000I0J-150000D01*
G01*
X127300000Y-88710000D01*
G75*
G02*
X127150000Y-88860000I-150000J0D01*
G01*
X126850000Y-88860000D01*
G75*
G02*
X126700000Y-88710000I0J150000D01*
G01*
X126700000Y-86960000D01*
G75*
G02*
X126850000Y-86810000I150000J0D01*
G01*
G37*
G36*
G01*
X128120000Y-86810000D02*
X128420000Y-86810000D01*
G75*
G02*
X128570000Y-86960000I0J-150000D01*
G01*
X128570000Y-88710000D01*
G75*
G02*
X128420000Y-88860000I-150000J0D01*
G01*
X128120000Y-88860000D01*
G75*
G02*
X127970000Y-88710000I0J150000D01*
G01*
X127970000Y-86960000D01*
G75*
G02*
X128120000Y-86810000I150000J0D01*
G01*
G37*
G36*
G01*
X129390000Y-86810000D02*
X129690000Y-86810000D01*
G75*
G02*
X129840000Y-86960000I0J-150000D01*
G01*
X129840000Y-88710000D01*
G75*
G02*
X129690000Y-88860000I-150000J0D01*
G01*
X129390000Y-88860000D01*
G75*
G02*
X129240000Y-88710000I0J150000D01*
G01*
X129240000Y-86960000D01*
G75*
G02*
X129390000Y-86810000I150000J0D01*
G01*
G37*
G36*
G01*
X121770000Y-86810000D02*
X122070000Y-86810000D01*
G75*
G02*
X122220000Y-86960000I0J-150000D01*
G01*
X122220000Y-88710000D01*
G75*
G02*
X122070000Y-88860000I-150000J0D01*
G01*
X121770000Y-88860000D01*
G75*
G02*
X121620000Y-88710000I0J150000D01*
G01*
X121620000Y-86960000D01*
G75*
G02*
X121770000Y-86810000I150000J0D01*
G01*
G37*
G36*
G01*
X117960000Y-76240000D02*
X118260000Y-76240000D01*
G75*
G02*
X118410000Y-76390000I0J-150000D01*
G01*
X118410000Y-78140000D01*
G75*
G02*
X118260000Y-78290000I-150000J0D01*
G01*
X117960000Y-78290000D01*
G75*
G02*
X117810000Y-78140000I0J150000D01*
G01*
X117810000Y-76390000D01*
G75*
G02*
X117960000Y-76240000I150000J0D01*
G01*
G37*
G36*
G01*
X123040000Y-86810000D02*
X123340000Y-86810000D01*
G75*
G02*
X123490000Y-86960000I0J-150000D01*
G01*
X123490000Y-88710000D01*
G75*
G02*
X123340000Y-88860000I-150000J0D01*
G01*
X123040000Y-88860000D01*
G75*
G02*
X122890000Y-88710000I0J150000D01*
G01*
X122890000Y-86960000D01*
G75*
G02*
X123040000Y-86810000I150000J0D01*
G01*
G37*
G36*
G01*
X119230000Y-76240000D02*
X119530000Y-76240000D01*
G75*
G02*
X119680000Y-76390000I0J-150000D01*
G01*
X119680000Y-78140000D01*
G75*
G02*
X119530000Y-78290000I-150000J0D01*
G01*
X119230000Y-78290000D01*
G75*
G02*
X119080000Y-78140000I0J150000D01*
G01*
X119080000Y-76390000D01*
G75*
G02*
X119230000Y-76240000I150000J0D01*
G01*
G37*
G36*
G01*
X125580000Y-86810000D02*
X125880000Y-86810000D01*
G75*
G02*
X126030000Y-86960000I0J-150000D01*
G01*
X126030000Y-88710000D01*
G75*
G02*
X125880000Y-88860000I-150000J0D01*
G01*
X125580000Y-88860000D01*
G75*
G02*
X125430000Y-88710000I0J150000D01*
G01*
X125430000Y-86960000D01*
G75*
G02*
X125580000Y-86810000I150000J0D01*
G01*
G37*
G36*
G01*
X120500000Y-76240000D02*
X120800000Y-76240000D01*
G75*
G02*
X120950000Y-76390000I0J-150000D01*
G01*
X120950000Y-78140000D01*
G75*
G02*
X120800000Y-78290000I-150000J0D01*
G01*
X120500000Y-78290000D01*
G75*
G02*
X120350000Y-78140000I0J150000D01*
G01*
X120350000Y-76390000D01*
G75*
G02*
X120500000Y-76240000I150000J0D01*
G01*
G37*
G36*
G01*
X126850000Y-76240000D02*
X127150000Y-76240000D01*
G75*
G02*
X127300000Y-76390000I0J-150000D01*
G01*
X127300000Y-78140000D01*
G75*
G02*
X127150000Y-78290000I-150000J0D01*
G01*
X126850000Y-78290000D01*
G75*
G02*
X126700000Y-78140000I0J150000D01*
G01*
X126700000Y-76390000D01*
G75*
G02*
X126850000Y-76240000I150000J0D01*
G01*
G37*
G36*
G01*
X134470000Y-76240000D02*
X134770000Y-76240000D01*
G75*
G02*
X134920000Y-76390000I0J-150000D01*
G01*
X134920000Y-78140000D01*
G75*
G02*
X134770000Y-78290000I-150000J0D01*
G01*
X134470000Y-78290000D01*
G75*
G02*
X134320000Y-78140000I0J150000D01*
G01*
X134320000Y-76390000D01*
G75*
G02*
X134470000Y-76240000I150000J0D01*
G01*
G37*
G36*
G01*
X123040000Y-76240000D02*
X123340000Y-76240000D01*
G75*
G02*
X123490000Y-76390000I0J-150000D01*
G01*
X123490000Y-78140000D01*
G75*
G02*
X123340000Y-78290000I-150000J0D01*
G01*
X123040000Y-78290000D01*
G75*
G02*
X122890000Y-78140000I0J150000D01*
G01*
X122890000Y-76390000D01*
G75*
G02*
X123040000Y-76240000I150000J0D01*
G01*
G37*
G36*
G01*
X133200000Y-76240000D02*
X133500000Y-76240000D01*
G75*
G02*
X133650000Y-76390000I0J-150000D01*
G01*
X133650000Y-78140000D01*
G75*
G02*
X133500000Y-78290000I-150000J0D01*
G01*
X133200000Y-78290000D01*
G75*
G02*
X133050000Y-78140000I0J150000D01*
G01*
X133050000Y-76390000D01*
G75*
G02*
X133200000Y-76240000I150000J0D01*
G01*
G37*
G36*
G01*
X130660000Y-76240000D02*
X130960000Y-76240000D01*
G75*
G02*
X131110000Y-76390000I0J-150000D01*
G01*
X131110000Y-78140000D01*
G75*
G02*
X130960000Y-78290000I-150000J0D01*
G01*
X130660000Y-78290000D01*
G75*
G02*
X130510000Y-78140000I0J150000D01*
G01*
X130510000Y-76390000D01*
G75*
G02*
X130660000Y-76240000I150000J0D01*
G01*
G37*
G36*
G01*
X129390000Y-76240000D02*
X129690000Y-76240000D01*
G75*
G02*
X129840000Y-76390000I0J-150000D01*
G01*
X129840000Y-78140000D01*
G75*
G02*
X129690000Y-78290000I-150000J0D01*
G01*
X129390000Y-78290000D01*
G75*
G02*
X129240000Y-78140000I0J150000D01*
G01*
X129240000Y-76390000D01*
G75*
G02*
X129390000Y-76240000I150000J0D01*
G01*
G37*
G36*
G01*
X121770000Y-76240000D02*
X122070000Y-76240000D01*
G75*
G02*
X122220000Y-76390000I0J-150000D01*
G01*
X122220000Y-78140000D01*
G75*
G02*
X122070000Y-78290000I-150000J0D01*
G01*
X121770000Y-78290000D01*
G75*
G02*
X121620000Y-78140000I0J150000D01*
G01*
X121620000Y-76390000D01*
G75*
G02*
X121770000Y-76240000I150000J0D01*
G01*
G37*
G36*
G01*
X128120000Y-76240000D02*
X128420000Y-76240000D01*
G75*
G02*
X128570000Y-76390000I0J-150000D01*
G01*
X128570000Y-78140000D01*
G75*
G02*
X128420000Y-78290000I-150000J0D01*
G01*
X128120000Y-78290000D01*
G75*
G02*
X127970000Y-78140000I0J150000D01*
G01*
X127970000Y-76390000D01*
G75*
G02*
X128120000Y-76240000I150000J0D01*
G01*
G37*
G36*
G01*
X131930000Y-76240000D02*
X132230000Y-76240000D01*
G75*
G02*
X132380000Y-76390000I0J-150000D01*
G01*
X132380000Y-78140000D01*
G75*
G02*
X132230000Y-78290000I-150000J0D01*
G01*
X131930000Y-78290000D01*
G75*
G02*
X131780000Y-78140000I0J150000D01*
G01*
X131780000Y-76390000D01*
G75*
G02*
X131930000Y-76240000I150000J0D01*
G01*
G37*
G36*
G01*
X124310000Y-76240000D02*
X124610000Y-76240000D01*
G75*
G02*
X124760000Y-76390000I0J-150000D01*
G01*
X124760000Y-78140000D01*
G75*
G02*
X124610000Y-78290000I-150000J0D01*
G01*
X124310000Y-78290000D01*
G75*
G02*
X124160000Y-78140000I0J150000D01*
G01*
X124160000Y-76390000D01*
G75*
G02*
X124310000Y-76240000I150000J0D01*
G01*
G37*
G36*
G01*
X125580000Y-76240000D02*
X125880000Y-76240000D01*
G75*
G02*
X126030000Y-76390000I0J-150000D01*
G01*
X126030000Y-78140000D01*
G75*
G02*
X125880000Y-78290000I-150000J0D01*
G01*
X125580000Y-78290000D01*
G75*
G02*
X125430000Y-78140000I0J150000D01*
G01*
X125430000Y-76390000D01*
G75*
G02*
X125580000Y-76240000I150000J0D01*
G01*
G37*
%TD*%
%TO.C,X1*%
X124460000Y-91260000D03*
X124460000Y-96520000D03*
X119260000Y-96520000D03*
X119260000Y-91260000D03*
%TD*%
D10*
%TO.C,D1*%
X121440000Y-73660000D03*
X124940000Y-73660000D03*
%TD*%
%TO.C,R3*%
G36*
G01*
X129355001Y-92030000D02*
X128454999Y-92030000D01*
G75*
G02*
X128205000Y-91780001I0J249999D01*
G01*
X128205000Y-91079999D01*
G75*
G02*
X128454999Y-90830000I249999J0D01*
G01*
X129355001Y-90830000D01*
G75*
G02*
X129605000Y-91079999I0J-249999D01*
G01*
X129605000Y-91780001D01*
G75*
G02*
X129355001Y-92030000I-249999J0D01*
G01*
G37*
G36*
G01*
X129355001Y-94030000D02*
X128454999Y-94030000D01*
G75*
G02*
X128205000Y-93780001I0J249999D01*
G01*
X128205000Y-93079999D01*
G75*
G02*
X128454999Y-92830000I249999J0D01*
G01*
X129355001Y-92830000D01*
G75*
G02*
X129605000Y-93079999I0J-249999D01*
G01*
X129605000Y-93780001D01*
G75*
G02*
X129355001Y-94030000I-249999J0D01*
G01*
G37*
%TD*%
%TO.C,R2*%
G36*
G01*
X133165001Y-92030000D02*
X132264999Y-92030000D01*
G75*
G02*
X132015000Y-91780001I0J249999D01*
G01*
X132015000Y-91079999D01*
G75*
G02*
X132264999Y-90830000I249999J0D01*
G01*
X133165001Y-90830000D01*
G75*
G02*
X133415000Y-91079999I0J-249999D01*
G01*
X133415000Y-91780001D01*
G75*
G02*
X133165001Y-92030000I-249999J0D01*
G01*
G37*
G36*
G01*
X133165001Y-94030000D02*
X132264999Y-94030000D01*
G75*
G02*
X132015000Y-93780001I0J249999D01*
G01*
X132015000Y-93079999D01*
G75*
G02*
X132264999Y-92830000I249999J0D01*
G01*
X133165001Y-92830000D01*
G75*
G02*
X133415000Y-93079999I0J-249999D01*
G01*
X133415000Y-93780001D01*
G75*
G02*
X133165001Y-94030000I-249999J0D01*
G01*
G37*
%TD*%
%TO.C,R1*%
G36*
G01*
X136975001Y-92030000D02*
X136074999Y-92030000D01*
G75*
G02*
X135825000Y-91780001I0J249999D01*
G01*
X135825000Y-91079999D01*
G75*
G02*
X136074999Y-90830000I249999J0D01*
G01*
X136975001Y-90830000D01*
G75*
G02*
X137225000Y-91079999I0J-249999D01*
G01*
X137225000Y-91780001D01*
G75*
G02*
X136975001Y-92030000I-249999J0D01*
G01*
G37*
G36*
G01*
X136975001Y-94030000D02*
X136074999Y-94030000D01*
G75*
G02*
X135825000Y-93780001I0J249999D01*
G01*
X135825000Y-93079999D01*
G75*
G02*
X136074999Y-92830000I249999J0D01*
G01*
X136975001Y-92830000D01*
G75*
G02*
X137225000Y-93079999I0J-249999D01*
G01*
X137225000Y-93780001D01*
G75*
G02*
X136975001Y-94030000I-249999J0D01*
G01*
G37*
%TD*%
%TO.C,R14*%
G36*
G01*
X136340001Y-40240000D02*
X135439999Y-40240000D01*
G75*
G02*
X135190000Y-39990001I0J249999D01*
G01*
X135190000Y-39289999D01*
G75*
G02*
X135439999Y-39040000I249999J0D01*
G01*
X136340001Y-39040000D01*
G75*
G02*
X136590000Y-39289999I0J-249999D01*
G01*
X136590000Y-39990001D01*
G75*
G02*
X136340001Y-40240000I-249999J0D01*
G01*
G37*
G36*
G01*
X136340001Y-42240000D02*
X135439999Y-42240000D01*
G75*
G02*
X135190000Y-41990001I0J249999D01*
G01*
X135190000Y-41289999D01*
G75*
G02*
X135439999Y-41040000I249999J0D01*
G01*
X136340001Y-41040000D01*
G75*
G02*
X136590000Y-41289999I0J-249999D01*
G01*
X136590000Y-41990001D01*
G75*
G02*
X136340001Y-42240000I-249999J0D01*
G01*
G37*
%TD*%
%TO.C,R13*%
G36*
G01*
X116389999Y-45120000D02*
X117290001Y-45120000D01*
G75*
G02*
X117540000Y-45369999I0J-249999D01*
G01*
X117540000Y-46070001D01*
G75*
G02*
X117290001Y-46320000I-249999J0D01*
G01*
X116389999Y-46320000D01*
G75*
G02*
X116140000Y-46070001I0J249999D01*
G01*
X116140000Y-45369999D01*
G75*
G02*
X116389999Y-45120000I249999J0D01*
G01*
G37*
G36*
G01*
X116389999Y-43120000D02*
X117290001Y-43120000D01*
G75*
G02*
X117540000Y-43369999I0J-249999D01*
G01*
X117540000Y-44070001D01*
G75*
G02*
X117290001Y-44320000I-249999J0D01*
G01*
X116389999Y-44320000D01*
G75*
G02*
X116140000Y-44070001I0J249999D01*
G01*
X116140000Y-43369999D01*
G75*
G02*
X116389999Y-43120000I249999J0D01*
G01*
G37*
%TD*%
%TO.C,R12*%
G36*
G01*
X120199999Y-45120000D02*
X121100001Y-45120000D01*
G75*
G02*
X121350000Y-45369999I0J-249999D01*
G01*
X121350000Y-46070001D01*
G75*
G02*
X121100001Y-46320000I-249999J0D01*
G01*
X120199999Y-46320000D01*
G75*
G02*
X119950000Y-46070001I0J249999D01*
G01*
X119950000Y-45369999D01*
G75*
G02*
X120199999Y-45120000I249999J0D01*
G01*
G37*
G36*
G01*
X120199999Y-43120000D02*
X121100001Y-43120000D01*
G75*
G02*
X121350000Y-43369999I0J-249999D01*
G01*
X121350000Y-44070001D01*
G75*
G02*
X121100001Y-44320000I-249999J0D01*
G01*
X120199999Y-44320000D01*
G75*
G02*
X119950000Y-44070001I0J249999D01*
G01*
X119950000Y-43369999D01*
G75*
G02*
X120199999Y-43120000I249999J0D01*
G01*
G37*
%TD*%
%TO.C,R11*%
G36*
G01*
X104590001Y-107550000D02*
X103689999Y-107550000D01*
G75*
G02*
X103440000Y-107300001I0J249999D01*
G01*
X103440000Y-106599999D01*
G75*
G02*
X103689999Y-106350000I249999J0D01*
G01*
X104590001Y-106350000D01*
G75*
G02*
X104840000Y-106599999I0J-249999D01*
G01*
X104840000Y-107300001D01*
G75*
G02*
X104590001Y-107550000I-249999J0D01*
G01*
G37*
G36*
G01*
X104590001Y-109550000D02*
X103689999Y-109550000D01*
G75*
G02*
X103440000Y-109300001I0J249999D01*
G01*
X103440000Y-108599999D01*
G75*
G02*
X103689999Y-108350000I249999J0D01*
G01*
X104590001Y-108350000D01*
G75*
G02*
X104840000Y-108599999I0J-249999D01*
G01*
X104840000Y-109300001D01*
G75*
G02*
X104590001Y-109550000I-249999J0D01*
G01*
G37*
%TD*%
%TO.C,R10*%
G36*
G01*
X118560001Y-109185000D02*
X117659999Y-109185000D01*
G75*
G02*
X117410000Y-108935001I0J249999D01*
G01*
X117410000Y-108234999D01*
G75*
G02*
X117659999Y-107985000I249999J0D01*
G01*
X118560001Y-107985000D01*
G75*
G02*
X118810000Y-108234999I0J-249999D01*
G01*
X118810000Y-108935001D01*
G75*
G02*
X118560001Y-109185000I-249999J0D01*
G01*
G37*
G36*
G01*
X118560001Y-111185000D02*
X117659999Y-111185000D01*
G75*
G02*
X117410000Y-110935001I0J249999D01*
G01*
X117410000Y-110234999D01*
G75*
G02*
X117659999Y-109985000I249999J0D01*
G01*
X118560001Y-109985000D01*
G75*
G02*
X118810000Y-110234999I0J-249999D01*
G01*
X118810000Y-110935001D01*
G75*
G02*
X118560001Y-111185000I-249999J0D01*
G01*
G37*
%TD*%
%TO.C,R9*%
G36*
G01*
X99510001Y-106280000D02*
X98609999Y-106280000D01*
G75*
G02*
X98360000Y-106030001I0J249999D01*
G01*
X98360000Y-105329999D01*
G75*
G02*
X98609999Y-105080000I249999J0D01*
G01*
X99510001Y-105080000D01*
G75*
G02*
X99760000Y-105329999I0J-249999D01*
G01*
X99760000Y-106030001D01*
G75*
G02*
X99510001Y-106280000I-249999J0D01*
G01*
G37*
G36*
G01*
X99510001Y-108280000D02*
X98609999Y-108280000D01*
G75*
G02*
X98360000Y-108030001I0J249999D01*
G01*
X98360000Y-107329999D01*
G75*
G02*
X98609999Y-107080000I249999J0D01*
G01*
X99510001Y-107080000D01*
G75*
G02*
X99760000Y-107329999I0J-249999D01*
G01*
X99760000Y-108030001D01*
G75*
G02*
X99510001Y-108280000I-249999J0D01*
G01*
G37*
%TD*%
%TO.C,R8*%
G36*
G01*
X123640001Y-119335000D02*
X122739999Y-119335000D01*
G75*
G02*
X122490000Y-119085001I0J249999D01*
G01*
X122490000Y-118384999D01*
G75*
G02*
X122739999Y-118135000I249999J0D01*
G01*
X123640001Y-118135000D01*
G75*
G02*
X123890000Y-118384999I0J-249999D01*
G01*
X123890000Y-119085001D01*
G75*
G02*
X123640001Y-119335000I-249999J0D01*
G01*
G37*
G36*
G01*
X123640001Y-121335000D02*
X122739999Y-121335000D01*
G75*
G02*
X122490000Y-121085001I0J249999D01*
G01*
X122490000Y-120384999D01*
G75*
G02*
X122739999Y-120135000I249999J0D01*
G01*
X123640001Y-120135000D01*
G75*
G02*
X123890000Y-120384999I0J-249999D01*
G01*
X123890000Y-121085001D01*
G75*
G02*
X123640001Y-121335000I-249999J0D01*
G01*
G37*
%TD*%
%TO.C,R7*%
G36*
G01*
X119830001Y-119335000D02*
X118929999Y-119335000D01*
G75*
G02*
X118680000Y-119085001I0J249999D01*
G01*
X118680000Y-118384999D01*
G75*
G02*
X118929999Y-118135000I249999J0D01*
G01*
X119830001Y-118135000D01*
G75*
G02*
X120080000Y-118384999I0J-249999D01*
G01*
X120080000Y-119085001D01*
G75*
G02*
X119830001Y-119335000I-249999J0D01*
G01*
G37*
G36*
G01*
X119830001Y-121335000D02*
X118929999Y-121335000D01*
G75*
G02*
X118680000Y-121085001I0J249999D01*
G01*
X118680000Y-120384999D01*
G75*
G02*
X118929999Y-120135000I249999J0D01*
G01*
X119830001Y-120135000D01*
G75*
G02*
X120080000Y-120384999I0J-249999D01*
G01*
X120080000Y-121085001D01*
G75*
G02*
X119830001Y-121335000I-249999J0D01*
G01*
G37*
%TD*%
%TO.C,R6*%
G36*
G01*
X127450001Y-119335000D02*
X126549999Y-119335000D01*
G75*
G02*
X126300000Y-119085001I0J249999D01*
G01*
X126300000Y-118384999D01*
G75*
G02*
X126549999Y-118135000I249999J0D01*
G01*
X127450001Y-118135000D01*
G75*
G02*
X127700000Y-118384999I0J-249999D01*
G01*
X127700000Y-119085001D01*
G75*
G02*
X127450001Y-119335000I-249999J0D01*
G01*
G37*
G36*
G01*
X127450001Y-121335000D02*
X126549999Y-121335000D01*
G75*
G02*
X126300000Y-121085001I0J249999D01*
G01*
X126300000Y-120384999D01*
G75*
G02*
X126549999Y-120135000I249999J0D01*
G01*
X127450001Y-120135000D01*
G75*
G02*
X127700000Y-120384999I0J-249999D01*
G01*
X127700000Y-121085001D01*
G75*
G02*
X127450001Y-121335000I-249999J0D01*
G01*
G37*
%TD*%
%TO.C,R5*%
G36*
G01*
X131260001Y-119335000D02*
X130359999Y-119335000D01*
G75*
G02*
X130110000Y-119085001I0J249999D01*
G01*
X130110000Y-118384999D01*
G75*
G02*
X130359999Y-118135000I249999J0D01*
G01*
X131260001Y-118135000D01*
G75*
G02*
X131510000Y-118384999I0J-249999D01*
G01*
X131510000Y-119085001D01*
G75*
G02*
X131260001Y-119335000I-249999J0D01*
G01*
G37*
G36*
G01*
X131260001Y-121335000D02*
X130359999Y-121335000D01*
G75*
G02*
X130110000Y-121085001I0J249999D01*
G01*
X130110000Y-120384999D01*
G75*
G02*
X130359999Y-120135000I249999J0D01*
G01*
X131260001Y-120135000D01*
G75*
G02*
X131510000Y-120384999I0J-249999D01*
G01*
X131510000Y-121085001D01*
G75*
G02*
X131260001Y-121335000I-249999J0D01*
G01*
G37*
%TD*%
%TO.C,R4*%
G36*
G01*
X103689999Y-96920000D02*
X104590001Y-96920000D01*
G75*
G02*
X104840000Y-97169999I0J-249999D01*
G01*
X104840000Y-97870001D01*
G75*
G02*
X104590001Y-98120000I-249999J0D01*
G01*
X103689999Y-98120000D01*
G75*
G02*
X103440000Y-97870001I0J249999D01*
G01*
X103440000Y-97169999D01*
G75*
G02*
X103689999Y-96920000I249999J0D01*
G01*
G37*
G36*
G01*
X103689999Y-94920000D02*
X104590001Y-94920000D01*
G75*
G02*
X104840000Y-95169999I0J-249999D01*
G01*
X104840000Y-95870001D01*
G75*
G02*
X104590001Y-96120000I-249999J0D01*
G01*
X103689999Y-96120000D01*
G75*
G02*
X103440000Y-95870001I0J249999D01*
G01*
X103440000Y-95169999D01*
G75*
G02*
X103689999Y-94920000I249999J0D01*
G01*
G37*
%TD*%
%TO.C,C5*%
G36*
G01*
X136321250Y-44867500D02*
X135458750Y-44867500D01*
G75*
G02*
X135250000Y-44658750I0J208750D01*
G01*
X135250000Y-44241250D01*
G75*
G02*
X135458750Y-44032500I208750J0D01*
G01*
X136321250Y-44032500D01*
G75*
G02*
X136530000Y-44241250I0J-208750D01*
G01*
X136530000Y-44658750D01*
G75*
G02*
X136321250Y-44867500I-208750J0D01*
G01*
G37*
G36*
G01*
X136321250Y-46122500D02*
X135458750Y-46122500D01*
G75*
G02*
X135250000Y-45913750I0J208750D01*
G01*
X135250000Y-45496250D01*
G75*
G02*
X135458750Y-45287500I208750J0D01*
G01*
X136321250Y-45287500D01*
G75*
G02*
X136530000Y-45496250I0J-208750D01*
G01*
X136530000Y-45913750D01*
G75*
G02*
X136321250Y-46122500I-208750J0D01*
G01*
G37*
%TD*%
%TO.C,C4*%
G36*
G01*
X117271250Y-39802500D02*
X116408750Y-39802500D01*
G75*
G02*
X116200000Y-39593750I0J208750D01*
G01*
X116200000Y-39176250D01*
G75*
G02*
X116408750Y-38967500I208750J0D01*
G01*
X117271250Y-38967500D01*
G75*
G02*
X117480000Y-39176250I0J-208750D01*
G01*
X117480000Y-39593750D01*
G75*
G02*
X117271250Y-39802500I-208750J0D01*
G01*
G37*
G36*
G01*
X117271250Y-41057500D02*
X116408750Y-41057500D01*
G75*
G02*
X116200000Y-40848750I0J208750D01*
G01*
X116200000Y-40431250D01*
G75*
G02*
X116408750Y-40222500I208750J0D01*
G01*
X117271250Y-40222500D01*
G75*
G02*
X117480000Y-40431250I0J-208750D01*
G01*
X117480000Y-40848750D01*
G75*
G02*
X117271250Y-41057500I-208750J0D01*
G01*
G37*
%TD*%
%TO.C,C3*%
G36*
G01*
X120218750Y-40222500D02*
X121081250Y-40222500D01*
G75*
G02*
X121290000Y-40431250I0J-208750D01*
G01*
X121290000Y-40848750D01*
G75*
G02*
X121081250Y-41057500I-208750J0D01*
G01*
X120218750Y-41057500D01*
G75*
G02*
X120010000Y-40848750I0J208750D01*
G01*
X120010000Y-40431250D01*
G75*
G02*
X120218750Y-40222500I208750J0D01*
G01*
G37*
G36*
G01*
X120218750Y-38967500D02*
X121081250Y-38967500D01*
G75*
G02*
X121290000Y-39176250I0J-208750D01*
G01*
X121290000Y-39593750D01*
G75*
G02*
X121081250Y-39802500I-208750J0D01*
G01*
X120218750Y-39802500D01*
G75*
G02*
X120010000Y-39593750I0J208750D01*
G01*
X120010000Y-39176250D01*
G75*
G02*
X120218750Y-38967500I208750J0D01*
G01*
G37*
%TD*%
%TO.C,C1*%
G36*
G01*
X118328000Y-74091250D02*
X118328000Y-73228750D01*
G75*
G02*
X118536750Y-73020000I208750J0D01*
G01*
X118954250Y-73020000D01*
G75*
G02*
X119163000Y-73228750I0J-208750D01*
G01*
X119163000Y-74091250D01*
G75*
G02*
X118954250Y-74300000I-208750J0D01*
G01*
X118536750Y-74300000D01*
G75*
G02*
X118328000Y-74091250I0J208750D01*
G01*
G37*
G36*
G01*
X117073000Y-74091250D02*
X117073000Y-73228750D01*
G75*
G02*
X117281750Y-73020000I208750J0D01*
G01*
X117699250Y-73020000D01*
G75*
G02*
X117908000Y-73228750I0J-208750D01*
G01*
X117908000Y-74091250D01*
G75*
G02*
X117699250Y-74300000I-208750J0D01*
G01*
X117281750Y-74300000D01*
G75*
G02*
X117073000Y-74091250I0J208750D01*
G01*
G37*
%TD*%
%TO.C,C13*%
G36*
G01*
X123275000Y-110460000D02*
X124375000Y-110460000D01*
G75*
G02*
X124625000Y-110710000I0J-250000D01*
G01*
X124625000Y-112810000D01*
G75*
G02*
X124375000Y-113060000I-250000J0D01*
G01*
X123275000Y-113060000D01*
G75*
G02*
X123025000Y-112810000I0J250000D01*
G01*
X123025000Y-110710000D01*
G75*
G02*
X123275000Y-110460000I250000J0D01*
G01*
G37*
G36*
G01*
X123275000Y-106860000D02*
X124375000Y-106860000D01*
G75*
G02*
X124625000Y-107110000I0J-250000D01*
G01*
X124625000Y-109210000D01*
G75*
G02*
X124375000Y-109460000I-250000J0D01*
G01*
X123275000Y-109460000D01*
G75*
G02*
X123025000Y-109210000I0J250000D01*
G01*
X123025000Y-107110000D01*
G75*
G02*
X123275000Y-106860000I250000J0D01*
G01*
G37*
%TD*%
%TO.C,C12*%
G36*
G01*
X119465000Y-102840000D02*
X120565000Y-102840000D01*
G75*
G02*
X120815000Y-103090000I0J-250000D01*
G01*
X120815000Y-105190000D01*
G75*
G02*
X120565000Y-105440000I-250000J0D01*
G01*
X119465000Y-105440000D01*
G75*
G02*
X119215000Y-105190000I0J250000D01*
G01*
X119215000Y-103090000D01*
G75*
G02*
X119465000Y-102840000I250000J0D01*
G01*
G37*
G36*
G01*
X119465000Y-99240000D02*
X120565000Y-99240000D01*
G75*
G02*
X120815000Y-99490000I0J-250000D01*
G01*
X120815000Y-101590000D01*
G75*
G02*
X120565000Y-101840000I-250000J0D01*
G01*
X119465000Y-101840000D01*
G75*
G02*
X119215000Y-101590000I0J250000D01*
G01*
X119215000Y-99490000D01*
G75*
G02*
X119465000Y-99240000I250000J0D01*
G01*
G37*
%TD*%
%TO.C,C11*%
G36*
G01*
X124545000Y-102840000D02*
X125645000Y-102840000D01*
G75*
G02*
X125895000Y-103090000I0J-250000D01*
G01*
X125895000Y-105190000D01*
G75*
G02*
X125645000Y-105440000I-250000J0D01*
G01*
X124545000Y-105440000D01*
G75*
G02*
X124295000Y-105190000I0J250000D01*
G01*
X124295000Y-103090000D01*
G75*
G02*
X124545000Y-102840000I250000J0D01*
G01*
G37*
G36*
G01*
X124545000Y-99240000D02*
X125645000Y-99240000D01*
G75*
G02*
X125895000Y-99490000I0J-250000D01*
G01*
X125895000Y-101590000D01*
G75*
G02*
X125645000Y-101840000I-250000J0D01*
G01*
X124545000Y-101840000D01*
G75*
G02*
X124295000Y-101590000I0J250000D01*
G01*
X124295000Y-99490000D01*
G75*
G02*
X124545000Y-99240000I250000J0D01*
G01*
G37*
%TD*%
%TO.C,C10*%
G36*
G01*
X133435000Y-110460000D02*
X134535000Y-110460000D01*
G75*
G02*
X134785000Y-110710000I0J-250000D01*
G01*
X134785000Y-112810000D01*
G75*
G02*
X134535000Y-113060000I-250000J0D01*
G01*
X133435000Y-113060000D01*
G75*
G02*
X133185000Y-112810000I0J250000D01*
G01*
X133185000Y-110710000D01*
G75*
G02*
X133435000Y-110460000I250000J0D01*
G01*
G37*
G36*
G01*
X133435000Y-106860000D02*
X134535000Y-106860000D01*
G75*
G02*
X134785000Y-107110000I0J-250000D01*
G01*
X134785000Y-109210000D01*
G75*
G02*
X134535000Y-109460000I-250000J0D01*
G01*
X133435000Y-109460000D01*
G75*
G02*
X133185000Y-109210000I0J250000D01*
G01*
X133185000Y-107110000D01*
G75*
G02*
X133435000Y-106860000I250000J0D01*
G01*
G37*
%TD*%
%TO.C,C2*%
G36*
G01*
X128355000Y-110460000D02*
X129455000Y-110460000D01*
G75*
G02*
X129705000Y-110710000I0J-250000D01*
G01*
X129705000Y-112810000D01*
G75*
G02*
X129455000Y-113060000I-250000J0D01*
G01*
X128355000Y-113060000D01*
G75*
G02*
X128105000Y-112810000I0J250000D01*
G01*
X128105000Y-110710000D01*
G75*
G02*
X128355000Y-110460000I250000J0D01*
G01*
G37*
G36*
G01*
X128355000Y-106860000D02*
X129455000Y-106860000D01*
G75*
G02*
X129705000Y-107110000I0J-250000D01*
G01*
X129705000Y-109210000D01*
G75*
G02*
X129455000Y-109460000I-250000J0D01*
G01*
X128355000Y-109460000D01*
G75*
G02*
X128105000Y-109210000I0J250000D01*
G01*
X128105000Y-107110000D01*
G75*
G02*
X128355000Y-106860000I250000J0D01*
G01*
G37*
%TD*%
D11*
%TO.C,J6*%
X106990000Y-121540000D03*
D12*
X110490000Y-114140000D03*
X110490000Y-121140000D03*
D11*
X106990000Y-114340000D03*
X106990000Y-112140000D03*
X113990000Y-121540000D03*
X113990000Y-118140000D03*
X113990000Y-112640000D03*
%TD*%
D14*
%TO.C,J2*%
X99060000Y-66040000D03*
X99060000Y-68580000D03*
X99060000Y-71120000D03*
X99060000Y-73660000D03*
X99060000Y-76200000D03*
X99060000Y-78740000D03*
D13*
X99060000Y-81280000D03*
%TD*%
D14*
%TO.C,J1*%
X99060000Y-101600000D03*
X99060000Y-99060000D03*
X99060000Y-96520000D03*
X99060000Y-93980000D03*
X99060000Y-91440000D03*
X99060000Y-88900000D03*
D13*
X99060000Y-86360000D03*
%TD*%
%TO.C,U2*%
G36*
G01*
X129770000Y-38885000D02*
X129770000Y-38585000D01*
G75*
G02*
X129920000Y-38435000I150000J0D01*
G01*
X131570000Y-38435000D01*
G75*
G02*
X131720000Y-38585000I0J-150000D01*
G01*
X131720000Y-38885000D01*
G75*
G02*
X131570000Y-39035000I-150000J0D01*
G01*
X129920000Y-39035000D01*
G75*
G02*
X129770000Y-38885000I0J150000D01*
G01*
G37*
G36*
G01*
X129770000Y-40155000D02*
X129770000Y-39855000D01*
G75*
G02*
X129920000Y-39705000I150000J0D01*
G01*
X131570000Y-39705000D01*
G75*
G02*
X131720000Y-39855000I0J-150000D01*
G01*
X131720000Y-40155000D01*
G75*
G02*
X131570000Y-40305000I-150000J0D01*
G01*
X129920000Y-40305000D01*
G75*
G02*
X129770000Y-40155000I0J150000D01*
G01*
G37*
G36*
G01*
X129770000Y-41425000D02*
X129770000Y-41125000D01*
G75*
G02*
X129920000Y-40975000I150000J0D01*
G01*
X131570000Y-40975000D01*
G75*
G02*
X131720000Y-41125000I0J-150000D01*
G01*
X131720000Y-41425000D01*
G75*
G02*
X131570000Y-41575000I-150000J0D01*
G01*
X129920000Y-41575000D01*
G75*
G02*
X129770000Y-41425000I0J150000D01*
G01*
G37*
G36*
G01*
X129770000Y-42695000D02*
X129770000Y-42395000D01*
G75*
G02*
X129920000Y-42245000I150000J0D01*
G01*
X131570000Y-42245000D01*
G75*
G02*
X131720000Y-42395000I0J-150000D01*
G01*
X131720000Y-42695000D01*
G75*
G02*
X131570000Y-42845000I-150000J0D01*
G01*
X129920000Y-42845000D01*
G75*
G02*
X129770000Y-42695000I0J150000D01*
G01*
G37*
G36*
G01*
X129770000Y-43965000D02*
X129770000Y-43665000D01*
G75*
G02*
X129920000Y-43515000I150000J0D01*
G01*
X131570000Y-43515000D01*
G75*
G02*
X131720000Y-43665000I0J-150000D01*
G01*
X131720000Y-43965000D01*
G75*
G02*
X131570000Y-44115000I-150000J0D01*
G01*
X129920000Y-44115000D01*
G75*
G02*
X129770000Y-43965000I0J150000D01*
G01*
G37*
G36*
G01*
X129770000Y-45235000D02*
X129770000Y-44935000D01*
G75*
G02*
X129920000Y-44785000I150000J0D01*
G01*
X131570000Y-44785000D01*
G75*
G02*
X131720000Y-44935000I0J-150000D01*
G01*
X131720000Y-45235000D01*
G75*
G02*
X131570000Y-45385000I-150000J0D01*
G01*
X129920000Y-45385000D01*
G75*
G02*
X129770000Y-45235000I0J150000D01*
G01*
G37*
G36*
G01*
X129770000Y-46505000D02*
X129770000Y-46205000D01*
G75*
G02*
X129920000Y-46055000I150000J0D01*
G01*
X131570000Y-46055000D01*
G75*
G02*
X131720000Y-46205000I0J-150000D01*
G01*
X131720000Y-46505000D01*
G75*
G02*
X131570000Y-46655000I-150000J0D01*
G01*
X129920000Y-46655000D01*
G75*
G02*
X129770000Y-46505000I0J150000D01*
G01*
G37*
G36*
G01*
X124820000Y-46505000D02*
X124820000Y-46205000D01*
G75*
G02*
X124970000Y-46055000I150000J0D01*
G01*
X126620000Y-46055000D01*
G75*
G02*
X126770000Y-46205000I0J-150000D01*
G01*
X126770000Y-46505000D01*
G75*
G02*
X126620000Y-46655000I-150000J0D01*
G01*
X124970000Y-46655000D01*
G75*
G02*
X124820000Y-46505000I0J150000D01*
G01*
G37*
G36*
G01*
X124820000Y-45235000D02*
X124820000Y-44935000D01*
G75*
G02*
X124970000Y-44785000I150000J0D01*
G01*
X126620000Y-44785000D01*
G75*
G02*
X126770000Y-44935000I0J-150000D01*
G01*
X126770000Y-45235000D01*
G75*
G02*
X126620000Y-45385000I-150000J0D01*
G01*
X124970000Y-45385000D01*
G75*
G02*
X124820000Y-45235000I0J150000D01*
G01*
G37*
G36*
G01*
X124820000Y-43965000D02*
X124820000Y-43665000D01*
G75*
G02*
X124970000Y-43515000I150000J0D01*
G01*
X126620000Y-43515000D01*
G75*
G02*
X126770000Y-43665000I0J-150000D01*
G01*
X126770000Y-43965000D01*
G75*
G02*
X126620000Y-44115000I-150000J0D01*
G01*
X124970000Y-44115000D01*
G75*
G02*
X124820000Y-43965000I0J150000D01*
G01*
G37*
G36*
G01*
X124820000Y-42695000D02*
X124820000Y-42395000D01*
G75*
G02*
X124970000Y-42245000I150000J0D01*
G01*
X126620000Y-42245000D01*
G75*
G02*
X126770000Y-42395000I0J-150000D01*
G01*
X126770000Y-42695000D01*
G75*
G02*
X126620000Y-42845000I-150000J0D01*
G01*
X124970000Y-42845000D01*
G75*
G02*
X124820000Y-42695000I0J150000D01*
G01*
G37*
G36*
G01*
X124820000Y-41425000D02*
X124820000Y-41125000D01*
G75*
G02*
X124970000Y-40975000I150000J0D01*
G01*
X126620000Y-40975000D01*
G75*
G02*
X126770000Y-41125000I0J-150000D01*
G01*
X126770000Y-41425000D01*
G75*
G02*
X126620000Y-41575000I-150000J0D01*
G01*
X124970000Y-41575000D01*
G75*
G02*
X124820000Y-41425000I0J150000D01*
G01*
G37*
G36*
G01*
X124820000Y-40155000D02*
X124820000Y-39855000D01*
G75*
G02*
X124970000Y-39705000I150000J0D01*
G01*
X126620000Y-39705000D01*
G75*
G02*
X126770000Y-39855000I0J-150000D01*
G01*
X126770000Y-40155000D01*
G75*
G02*
X126620000Y-40305000I-150000J0D01*
G01*
X124970000Y-40305000D01*
G75*
G02*
X124820000Y-40155000I0J150000D01*
G01*
G37*
G36*
G01*
X124820000Y-38885000D02*
X124820000Y-38585000D01*
G75*
G02*
X124970000Y-38435000I150000J0D01*
G01*
X126620000Y-38435000D01*
G75*
G02*
X126770000Y-38585000I0J-150000D01*
G01*
X126770000Y-38885000D01*
G75*
G02*
X126620000Y-39035000I-150000J0D01*
G01*
X124970000Y-39035000D01*
G75*
G02*
X124820000Y-38885000I0J150000D01*
G01*
G37*
%TD*%
%TO.C,BU9480F1*%
G36*
G01*
X131595000Y-97530000D02*
X131295000Y-97530000D01*
G75*
G02*
X131145000Y-97380000I0J150000D01*
G01*
X131145000Y-96080000D01*
G75*
G02*
X131295000Y-95930000I150000J0D01*
G01*
X131595000Y-95930000D01*
G75*
G02*
X131745000Y-96080000I0J-150000D01*
G01*
X131745000Y-97380000D01*
G75*
G02*
X131595000Y-97530000I-150000J0D01*
G01*
G37*
G36*
G01*
X132865000Y-97530000D02*
X132565000Y-97530000D01*
G75*
G02*
X132415000Y-97380000I0J150000D01*
G01*
X132415000Y-96080000D01*
G75*
G02*
X132565000Y-95930000I150000J0D01*
G01*
X132865000Y-95930000D01*
G75*
G02*
X133015000Y-96080000I0J-150000D01*
G01*
X133015000Y-97380000D01*
G75*
G02*
X132865000Y-97530000I-150000J0D01*
G01*
G37*
G36*
G01*
X134135000Y-97530000D02*
X133835000Y-97530000D01*
G75*
G02*
X133685000Y-97380000I0J150000D01*
G01*
X133685000Y-96080000D01*
G75*
G02*
X133835000Y-95930000I150000J0D01*
G01*
X134135000Y-95930000D01*
G75*
G02*
X134285000Y-96080000I0J-150000D01*
G01*
X134285000Y-97380000D01*
G75*
G02*
X134135000Y-97530000I-150000J0D01*
G01*
G37*
G36*
G01*
X135405000Y-97530000D02*
X135105000Y-97530000D01*
G75*
G02*
X134955000Y-97380000I0J150000D01*
G01*
X134955000Y-96080000D01*
G75*
G02*
X135105000Y-95930000I150000J0D01*
G01*
X135405000Y-95930000D01*
G75*
G02*
X135555000Y-96080000I0J-150000D01*
G01*
X135555000Y-97380000D01*
G75*
G02*
X135405000Y-97530000I-150000J0D01*
G01*
G37*
G36*
G01*
X135405000Y-104730000D02*
X135105000Y-104730000D01*
G75*
G02*
X134955000Y-104580000I0J150000D01*
G01*
X134955000Y-103280000D01*
G75*
G02*
X135105000Y-103130000I150000J0D01*
G01*
X135405000Y-103130000D01*
G75*
G02*
X135555000Y-103280000I0J-150000D01*
G01*
X135555000Y-104580000D01*
G75*
G02*
X135405000Y-104730000I-150000J0D01*
G01*
G37*
G36*
G01*
X134135000Y-104730000D02*
X133835000Y-104730000D01*
G75*
G02*
X133685000Y-104580000I0J150000D01*
G01*
X133685000Y-103280000D01*
G75*
G02*
X133835000Y-103130000I150000J0D01*
G01*
X134135000Y-103130000D01*
G75*
G02*
X134285000Y-103280000I0J-150000D01*
G01*
X134285000Y-104580000D01*
G75*
G02*
X134135000Y-104730000I-150000J0D01*
G01*
G37*
G36*
G01*
X132865000Y-104730000D02*
X132565000Y-104730000D01*
G75*
G02*
X132415000Y-104580000I0J150000D01*
G01*
X132415000Y-103280000D01*
G75*
G02*
X132565000Y-103130000I150000J0D01*
G01*
X132865000Y-103130000D01*
G75*
G02*
X133015000Y-103280000I0J-150000D01*
G01*
X133015000Y-104580000D01*
G75*
G02*
X132865000Y-104730000I-150000J0D01*
G01*
G37*
G36*
G01*
X131595000Y-104730000D02*
X131295000Y-104730000D01*
G75*
G02*
X131145000Y-104580000I0J150000D01*
G01*
X131145000Y-103280000D01*
G75*
G02*
X131295000Y-103130000I150000J0D01*
G01*
X131595000Y-103130000D01*
G75*
G02*
X131745000Y-103280000I0J-150000D01*
G01*
X131745000Y-104580000D01*
G75*
G02*
X131595000Y-104730000I-150000J0D01*
G01*
G37*
%TD*%
%TO.C,U1*%
G36*
G01*
X101115000Y-40410000D02*
X100815000Y-40410000D01*
G75*
G02*
X100665000Y-40260000I0J150000D01*
G01*
X100665000Y-38610000D01*
G75*
G02*
X100815000Y-38460000I150000J0D01*
G01*
X101115000Y-38460000D01*
G75*
G02*
X101265000Y-38610000I0J-150000D01*
G01*
X101265000Y-40260000D01*
G75*
G02*
X101115000Y-40410000I-150000J0D01*
G01*
G37*
G36*
G01*
X102385000Y-40410000D02*
X102085000Y-40410000D01*
G75*
G02*
X101935000Y-40260000I0J150000D01*
G01*
X101935000Y-38610000D01*
G75*
G02*
X102085000Y-38460000I150000J0D01*
G01*
X102385000Y-38460000D01*
G75*
G02*
X102535000Y-38610000I0J-150000D01*
G01*
X102535000Y-40260000D01*
G75*
G02*
X102385000Y-40410000I-150000J0D01*
G01*
G37*
G36*
G01*
X103655000Y-40410000D02*
X103355000Y-40410000D01*
G75*
G02*
X103205000Y-40260000I0J150000D01*
G01*
X103205000Y-38610000D01*
G75*
G02*
X103355000Y-38460000I150000J0D01*
G01*
X103655000Y-38460000D01*
G75*
G02*
X103805000Y-38610000I0J-150000D01*
G01*
X103805000Y-40260000D01*
G75*
G02*
X103655000Y-40410000I-150000J0D01*
G01*
G37*
G36*
G01*
X104925000Y-40410000D02*
X104625000Y-40410000D01*
G75*
G02*
X104475000Y-40260000I0J150000D01*
G01*
X104475000Y-38610000D01*
G75*
G02*
X104625000Y-38460000I150000J0D01*
G01*
X104925000Y-38460000D01*
G75*
G02*
X105075000Y-38610000I0J-150000D01*
G01*
X105075000Y-40260000D01*
G75*
G02*
X104925000Y-40410000I-150000J0D01*
G01*
G37*
G36*
G01*
X106195000Y-40410000D02*
X105895000Y-40410000D01*
G75*
G02*
X105745000Y-40260000I0J150000D01*
G01*
X105745000Y-38610000D01*
G75*
G02*
X105895000Y-38460000I150000J0D01*
G01*
X106195000Y-38460000D01*
G75*
G02*
X106345000Y-38610000I0J-150000D01*
G01*
X106345000Y-40260000D01*
G75*
G02*
X106195000Y-40410000I-150000J0D01*
G01*
G37*
G36*
G01*
X107465000Y-40410000D02*
X107165000Y-40410000D01*
G75*
G02*
X107015000Y-40260000I0J150000D01*
G01*
X107015000Y-38610000D01*
G75*
G02*
X107165000Y-38460000I150000J0D01*
G01*
X107465000Y-38460000D01*
G75*
G02*
X107615000Y-38610000I0J-150000D01*
G01*
X107615000Y-40260000D01*
G75*
G02*
X107465000Y-40410000I-150000J0D01*
G01*
G37*
G36*
G01*
X108735000Y-40410000D02*
X108435000Y-40410000D01*
G75*
G02*
X108285000Y-40260000I0J150000D01*
G01*
X108285000Y-38610000D01*
G75*
G02*
X108435000Y-38460000I150000J0D01*
G01*
X108735000Y-38460000D01*
G75*
G02*
X108885000Y-38610000I0J-150000D01*
G01*
X108885000Y-40260000D01*
G75*
G02*
X108735000Y-40410000I-150000J0D01*
G01*
G37*
G36*
G01*
X110005000Y-40410000D02*
X109705000Y-40410000D01*
G75*
G02*
X109555000Y-40260000I0J150000D01*
G01*
X109555000Y-38610000D01*
G75*
G02*
X109705000Y-38460000I150000J0D01*
G01*
X110005000Y-38460000D01*
G75*
G02*
X110155000Y-38610000I0J-150000D01*
G01*
X110155000Y-40260000D01*
G75*
G02*
X110005000Y-40410000I-150000J0D01*
G01*
G37*
G36*
G01*
X110005000Y-45360000D02*
X109705000Y-45360000D01*
G75*
G02*
X109555000Y-45210000I0J150000D01*
G01*
X109555000Y-43560000D01*
G75*
G02*
X109705000Y-43410000I150000J0D01*
G01*
X110005000Y-43410000D01*
G75*
G02*
X110155000Y-43560000I0J-150000D01*
G01*
X110155000Y-45210000D01*
G75*
G02*
X110005000Y-45360000I-150000J0D01*
G01*
G37*
G36*
G01*
X108735000Y-45360000D02*
X108435000Y-45360000D01*
G75*
G02*
X108285000Y-45210000I0J150000D01*
G01*
X108285000Y-43560000D01*
G75*
G02*
X108435000Y-43410000I150000J0D01*
G01*
X108735000Y-43410000D01*
G75*
G02*
X108885000Y-43560000I0J-150000D01*
G01*
X108885000Y-45210000D01*
G75*
G02*
X108735000Y-45360000I-150000J0D01*
G01*
G37*
G36*
G01*
X107465000Y-45360000D02*
X107165000Y-45360000D01*
G75*
G02*
X107015000Y-45210000I0J150000D01*
G01*
X107015000Y-43560000D01*
G75*
G02*
X107165000Y-43410000I150000J0D01*
G01*
X107465000Y-43410000D01*
G75*
G02*
X107615000Y-43560000I0J-150000D01*
G01*
X107615000Y-45210000D01*
G75*
G02*
X107465000Y-45360000I-150000J0D01*
G01*
G37*
G36*
G01*
X106195000Y-45360000D02*
X105895000Y-45360000D01*
G75*
G02*
X105745000Y-45210000I0J150000D01*
G01*
X105745000Y-43560000D01*
G75*
G02*
X105895000Y-43410000I150000J0D01*
G01*
X106195000Y-43410000D01*
G75*
G02*
X106345000Y-43560000I0J-150000D01*
G01*
X106345000Y-45210000D01*
G75*
G02*
X106195000Y-45360000I-150000J0D01*
G01*
G37*
G36*
G01*
X104925000Y-45360000D02*
X104625000Y-45360000D01*
G75*
G02*
X104475000Y-45210000I0J150000D01*
G01*
X104475000Y-43560000D01*
G75*
G02*
X104625000Y-43410000I150000J0D01*
G01*
X104925000Y-43410000D01*
G75*
G02*
X105075000Y-43560000I0J-150000D01*
G01*
X105075000Y-45210000D01*
G75*
G02*
X104925000Y-45360000I-150000J0D01*
G01*
G37*
G36*
G01*
X103655000Y-45360000D02*
X103355000Y-45360000D01*
G75*
G02*
X103205000Y-45210000I0J150000D01*
G01*
X103205000Y-43560000D01*
G75*
G02*
X103355000Y-43410000I150000J0D01*
G01*
X103655000Y-43410000D01*
G75*
G02*
X103805000Y-43560000I0J-150000D01*
G01*
X103805000Y-45210000D01*
G75*
G02*
X103655000Y-45360000I-150000J0D01*
G01*
G37*
G36*
G01*
X102385000Y-45360000D02*
X102085000Y-45360000D01*
G75*
G02*
X101935000Y-45210000I0J150000D01*
G01*
X101935000Y-43560000D01*
G75*
G02*
X102085000Y-43410000I150000J0D01*
G01*
X102385000Y-43410000D01*
G75*
G02*
X102535000Y-43560000I0J-150000D01*
G01*
X102535000Y-45210000D01*
G75*
G02*
X102385000Y-45360000I-150000J0D01*
G01*
G37*
G36*
G01*
X101115000Y-45360000D02*
X100815000Y-45360000D01*
G75*
G02*
X100665000Y-45210000I0J150000D01*
G01*
X100665000Y-43560000D01*
G75*
G02*
X100815000Y-43410000I150000J0D01*
G01*
X101115000Y-43410000D01*
G75*
G02*
X101265000Y-43560000I0J-150000D01*
G01*
X101265000Y-45210000D01*
G75*
G02*
X101115000Y-45360000I-150000J0D01*
G01*
G37*
%TD*%
%TO.C,U10*%
G36*
G01*
X101830000Y-52855000D02*
X101830000Y-52555000D01*
G75*
G02*
X101980000Y-52405000I150000J0D01*
G01*
X103630000Y-52405000D01*
G75*
G02*
X103780000Y-52555000I0J-150000D01*
G01*
X103780000Y-52855000D01*
G75*
G02*
X103630000Y-53005000I-150000J0D01*
G01*
X101980000Y-53005000D01*
G75*
G02*
X101830000Y-52855000I0J150000D01*
G01*
G37*
G36*
G01*
X101830000Y-54125000D02*
X101830000Y-53825000D01*
G75*
G02*
X101980000Y-53675000I150000J0D01*
G01*
X103630000Y-53675000D01*
G75*
G02*
X103780000Y-53825000I0J-150000D01*
G01*
X103780000Y-54125000D01*
G75*
G02*
X103630000Y-54275000I-150000J0D01*
G01*
X101980000Y-54275000D01*
G75*
G02*
X101830000Y-54125000I0J150000D01*
G01*
G37*
G36*
G01*
X101830000Y-55395000D02*
X101830000Y-55095000D01*
G75*
G02*
X101980000Y-54945000I150000J0D01*
G01*
X103630000Y-54945000D01*
G75*
G02*
X103780000Y-55095000I0J-150000D01*
G01*
X103780000Y-55395000D01*
G75*
G02*
X103630000Y-55545000I-150000J0D01*
G01*
X101980000Y-55545000D01*
G75*
G02*
X101830000Y-55395000I0J150000D01*
G01*
G37*
G36*
G01*
X101830000Y-56665000D02*
X101830000Y-56365000D01*
G75*
G02*
X101980000Y-56215000I150000J0D01*
G01*
X103630000Y-56215000D01*
G75*
G02*
X103780000Y-56365000I0J-150000D01*
G01*
X103780000Y-56665000D01*
G75*
G02*
X103630000Y-56815000I-150000J0D01*
G01*
X101980000Y-56815000D01*
G75*
G02*
X101830000Y-56665000I0J150000D01*
G01*
G37*
G36*
G01*
X101830000Y-57935000D02*
X101830000Y-57635000D01*
G75*
G02*
X101980000Y-57485000I150000J0D01*
G01*
X103630000Y-57485000D01*
G75*
G02*
X103780000Y-57635000I0J-150000D01*
G01*
X103780000Y-57935000D01*
G75*
G02*
X103630000Y-58085000I-150000J0D01*
G01*
X101980000Y-58085000D01*
G75*
G02*
X101830000Y-57935000I0J150000D01*
G01*
G37*
G36*
G01*
X101830000Y-59205000D02*
X101830000Y-58905000D01*
G75*
G02*
X101980000Y-58755000I150000J0D01*
G01*
X103630000Y-58755000D01*
G75*
G02*
X103780000Y-58905000I0J-150000D01*
G01*
X103780000Y-59205000D01*
G75*
G02*
X103630000Y-59355000I-150000J0D01*
G01*
X101980000Y-59355000D01*
G75*
G02*
X101830000Y-59205000I0J150000D01*
G01*
G37*
G36*
G01*
X101830000Y-60475000D02*
X101830000Y-60175000D01*
G75*
G02*
X101980000Y-60025000I150000J0D01*
G01*
X103630000Y-60025000D01*
G75*
G02*
X103780000Y-60175000I0J-150000D01*
G01*
X103780000Y-60475000D01*
G75*
G02*
X103630000Y-60625000I-150000J0D01*
G01*
X101980000Y-60625000D01*
G75*
G02*
X101830000Y-60475000I0J150000D01*
G01*
G37*
G36*
G01*
X101830000Y-61745000D02*
X101830000Y-61445000D01*
G75*
G02*
X101980000Y-61295000I150000J0D01*
G01*
X103630000Y-61295000D01*
G75*
G02*
X103780000Y-61445000I0J-150000D01*
G01*
X103780000Y-61745000D01*
G75*
G02*
X103630000Y-61895000I-150000J0D01*
G01*
X101980000Y-61895000D01*
G75*
G02*
X101830000Y-61745000I0J150000D01*
G01*
G37*
G36*
G01*
X96880000Y-61745000D02*
X96880000Y-61445000D01*
G75*
G02*
X97030000Y-61295000I150000J0D01*
G01*
X98680000Y-61295000D01*
G75*
G02*
X98830000Y-61445000I0J-150000D01*
G01*
X98830000Y-61745000D01*
G75*
G02*
X98680000Y-61895000I-150000J0D01*
G01*
X97030000Y-61895000D01*
G75*
G02*
X96880000Y-61745000I0J150000D01*
G01*
G37*
G36*
G01*
X96880000Y-60475000D02*
X96880000Y-60175000D01*
G75*
G02*
X97030000Y-60025000I150000J0D01*
G01*
X98680000Y-60025000D01*
G75*
G02*
X98830000Y-60175000I0J-150000D01*
G01*
X98830000Y-60475000D01*
G75*
G02*
X98680000Y-60625000I-150000J0D01*
G01*
X97030000Y-60625000D01*
G75*
G02*
X96880000Y-60475000I0J150000D01*
G01*
G37*
G36*
G01*
X96880000Y-59205000D02*
X96880000Y-58905000D01*
G75*
G02*
X97030000Y-58755000I150000J0D01*
G01*
X98680000Y-58755000D01*
G75*
G02*
X98830000Y-58905000I0J-150000D01*
G01*
X98830000Y-59205000D01*
G75*
G02*
X98680000Y-59355000I-150000J0D01*
G01*
X97030000Y-59355000D01*
G75*
G02*
X96880000Y-59205000I0J150000D01*
G01*
G37*
G36*
G01*
X96880000Y-57935000D02*
X96880000Y-57635000D01*
G75*
G02*
X97030000Y-57485000I150000J0D01*
G01*
X98680000Y-57485000D01*
G75*
G02*
X98830000Y-57635000I0J-150000D01*
G01*
X98830000Y-57935000D01*
G75*
G02*
X98680000Y-58085000I-150000J0D01*
G01*
X97030000Y-58085000D01*
G75*
G02*
X96880000Y-57935000I0J150000D01*
G01*
G37*
G36*
G01*
X96880000Y-56665000D02*
X96880000Y-56365000D01*
G75*
G02*
X97030000Y-56215000I150000J0D01*
G01*
X98680000Y-56215000D01*
G75*
G02*
X98830000Y-56365000I0J-150000D01*
G01*
X98830000Y-56665000D01*
G75*
G02*
X98680000Y-56815000I-150000J0D01*
G01*
X97030000Y-56815000D01*
G75*
G02*
X96880000Y-56665000I0J150000D01*
G01*
G37*
G36*
G01*
X96880000Y-55395000D02*
X96880000Y-55095000D01*
G75*
G02*
X97030000Y-54945000I150000J0D01*
G01*
X98680000Y-54945000D01*
G75*
G02*
X98830000Y-55095000I0J-150000D01*
G01*
X98830000Y-55395000D01*
G75*
G02*
X98680000Y-55545000I-150000J0D01*
G01*
X97030000Y-55545000D01*
G75*
G02*
X96880000Y-55395000I0J150000D01*
G01*
G37*
G36*
G01*
X96880000Y-54125000D02*
X96880000Y-53825000D01*
G75*
G02*
X97030000Y-53675000I150000J0D01*
G01*
X98680000Y-53675000D01*
G75*
G02*
X98830000Y-53825000I0J-150000D01*
G01*
X98830000Y-54125000D01*
G75*
G02*
X98680000Y-54275000I-150000J0D01*
G01*
X97030000Y-54275000D01*
G75*
G02*
X96880000Y-54125000I0J150000D01*
G01*
G37*
G36*
G01*
X96880000Y-52855000D02*
X96880000Y-52555000D01*
G75*
G02*
X97030000Y-52405000I150000J0D01*
G01*
X98680000Y-52405000D01*
G75*
G02*
X98830000Y-52555000I0J-150000D01*
G01*
X98830000Y-52855000D01*
G75*
G02*
X98680000Y-53005000I-150000J0D01*
G01*
X97030000Y-53005000D01*
G75*
G02*
X96880000Y-52855000I0J150000D01*
G01*
G37*
%TD*%
%TO.C,U9*%
G36*
G01*
X136375000Y-67540000D02*
X136675000Y-67540000D01*
G75*
G02*
X136825000Y-67690000I0J-150000D01*
G01*
X136825000Y-69340000D01*
G75*
G02*
X136675000Y-69490000I-150000J0D01*
G01*
X136375000Y-69490000D01*
G75*
G02*
X136225000Y-69340000I0J150000D01*
G01*
X136225000Y-67690000D01*
G75*
G02*
X136375000Y-67540000I150000J0D01*
G01*
G37*
G36*
G01*
X135105000Y-67540000D02*
X135405000Y-67540000D01*
G75*
G02*
X135555000Y-67690000I0J-150000D01*
G01*
X135555000Y-69340000D01*
G75*
G02*
X135405000Y-69490000I-150000J0D01*
G01*
X135105000Y-69490000D01*
G75*
G02*
X134955000Y-69340000I0J150000D01*
G01*
X134955000Y-67690000D01*
G75*
G02*
X135105000Y-67540000I150000J0D01*
G01*
G37*
G36*
G01*
X133835000Y-67540000D02*
X134135000Y-67540000D01*
G75*
G02*
X134285000Y-67690000I0J-150000D01*
G01*
X134285000Y-69340000D01*
G75*
G02*
X134135000Y-69490000I-150000J0D01*
G01*
X133835000Y-69490000D01*
G75*
G02*
X133685000Y-69340000I0J150000D01*
G01*
X133685000Y-67690000D01*
G75*
G02*
X133835000Y-67540000I150000J0D01*
G01*
G37*
G36*
G01*
X132565000Y-67540000D02*
X132865000Y-67540000D01*
G75*
G02*
X133015000Y-67690000I0J-150000D01*
G01*
X133015000Y-69340000D01*
G75*
G02*
X132865000Y-69490000I-150000J0D01*
G01*
X132565000Y-69490000D01*
G75*
G02*
X132415000Y-69340000I0J150000D01*
G01*
X132415000Y-67690000D01*
G75*
G02*
X132565000Y-67540000I150000J0D01*
G01*
G37*
G36*
G01*
X131295000Y-67540000D02*
X131595000Y-67540000D01*
G75*
G02*
X131745000Y-67690000I0J-150000D01*
G01*
X131745000Y-69340000D01*
G75*
G02*
X131595000Y-69490000I-150000J0D01*
G01*
X131295000Y-69490000D01*
G75*
G02*
X131145000Y-69340000I0J150000D01*
G01*
X131145000Y-67690000D01*
G75*
G02*
X131295000Y-67540000I150000J0D01*
G01*
G37*
G36*
G01*
X130025000Y-67540000D02*
X130325000Y-67540000D01*
G75*
G02*
X130475000Y-67690000I0J-150000D01*
G01*
X130475000Y-69340000D01*
G75*
G02*
X130325000Y-69490000I-150000J0D01*
G01*
X130025000Y-69490000D01*
G75*
G02*
X129875000Y-69340000I0J150000D01*
G01*
X129875000Y-67690000D01*
G75*
G02*
X130025000Y-67540000I150000J0D01*
G01*
G37*
G36*
G01*
X128755000Y-67540000D02*
X129055000Y-67540000D01*
G75*
G02*
X129205000Y-67690000I0J-150000D01*
G01*
X129205000Y-69340000D01*
G75*
G02*
X129055000Y-69490000I-150000J0D01*
G01*
X128755000Y-69490000D01*
G75*
G02*
X128605000Y-69340000I0J150000D01*
G01*
X128605000Y-67690000D01*
G75*
G02*
X128755000Y-67540000I150000J0D01*
G01*
G37*
G36*
G01*
X127485000Y-67540000D02*
X127785000Y-67540000D01*
G75*
G02*
X127935000Y-67690000I0J-150000D01*
G01*
X127935000Y-69340000D01*
G75*
G02*
X127785000Y-69490000I-150000J0D01*
G01*
X127485000Y-69490000D01*
G75*
G02*
X127335000Y-69340000I0J150000D01*
G01*
X127335000Y-67690000D01*
G75*
G02*
X127485000Y-67540000I150000J0D01*
G01*
G37*
G36*
G01*
X127485000Y-62590000D02*
X127785000Y-62590000D01*
G75*
G02*
X127935000Y-62740000I0J-150000D01*
G01*
X127935000Y-64390000D01*
G75*
G02*
X127785000Y-64540000I-150000J0D01*
G01*
X127485000Y-64540000D01*
G75*
G02*
X127335000Y-64390000I0J150000D01*
G01*
X127335000Y-62740000D01*
G75*
G02*
X127485000Y-62590000I150000J0D01*
G01*
G37*
G36*
G01*
X128755000Y-62590000D02*
X129055000Y-62590000D01*
G75*
G02*
X129205000Y-62740000I0J-150000D01*
G01*
X129205000Y-64390000D01*
G75*
G02*
X129055000Y-64540000I-150000J0D01*
G01*
X128755000Y-64540000D01*
G75*
G02*
X128605000Y-64390000I0J150000D01*
G01*
X128605000Y-62740000D01*
G75*
G02*
X128755000Y-62590000I150000J0D01*
G01*
G37*
G36*
G01*
X130025000Y-62590000D02*
X130325000Y-62590000D01*
G75*
G02*
X130475000Y-62740000I0J-150000D01*
G01*
X130475000Y-64390000D01*
G75*
G02*
X130325000Y-64540000I-150000J0D01*
G01*
X130025000Y-64540000D01*
G75*
G02*
X129875000Y-64390000I0J150000D01*
G01*
X129875000Y-62740000D01*
G75*
G02*
X130025000Y-62590000I150000J0D01*
G01*
G37*
G36*
G01*
X131295000Y-62590000D02*
X131595000Y-62590000D01*
G75*
G02*
X131745000Y-62740000I0J-150000D01*
G01*
X131745000Y-64390000D01*
G75*
G02*
X131595000Y-64540000I-150000J0D01*
G01*
X131295000Y-64540000D01*
G75*
G02*
X131145000Y-64390000I0J150000D01*
G01*
X131145000Y-62740000D01*
G75*
G02*
X131295000Y-62590000I150000J0D01*
G01*
G37*
G36*
G01*
X132565000Y-62590000D02*
X132865000Y-62590000D01*
G75*
G02*
X133015000Y-62740000I0J-150000D01*
G01*
X133015000Y-64390000D01*
G75*
G02*
X132865000Y-64540000I-150000J0D01*
G01*
X132565000Y-64540000D01*
G75*
G02*
X132415000Y-64390000I0J150000D01*
G01*
X132415000Y-62740000D01*
G75*
G02*
X132565000Y-62590000I150000J0D01*
G01*
G37*
G36*
G01*
X133835000Y-62590000D02*
X134135000Y-62590000D01*
G75*
G02*
X134285000Y-62740000I0J-150000D01*
G01*
X134285000Y-64390000D01*
G75*
G02*
X134135000Y-64540000I-150000J0D01*
G01*
X133835000Y-64540000D01*
G75*
G02*
X133685000Y-64390000I0J150000D01*
G01*
X133685000Y-62740000D01*
G75*
G02*
X133835000Y-62590000I150000J0D01*
G01*
G37*
G36*
G01*
X135105000Y-62590000D02*
X135405000Y-62590000D01*
G75*
G02*
X135555000Y-62740000I0J-150000D01*
G01*
X135555000Y-64390000D01*
G75*
G02*
X135405000Y-64540000I-150000J0D01*
G01*
X135105000Y-64540000D01*
G75*
G02*
X134955000Y-64390000I0J150000D01*
G01*
X134955000Y-62740000D01*
G75*
G02*
X135105000Y-62590000I150000J0D01*
G01*
G37*
G36*
G01*
X136375000Y-62590000D02*
X136675000Y-62590000D01*
G75*
G02*
X136825000Y-62740000I0J-150000D01*
G01*
X136825000Y-64390000D01*
G75*
G02*
X136675000Y-64540000I-150000J0D01*
G01*
X136375000Y-64540000D01*
G75*
G02*
X136225000Y-64390000I0J150000D01*
G01*
X136225000Y-62740000D01*
G75*
G02*
X136375000Y-62590000I150000J0D01*
G01*
G37*
%TD*%
%TO.C,U8*%
G36*
G01*
X124945000Y-67540000D02*
X125245000Y-67540000D01*
G75*
G02*
X125395000Y-67690000I0J-150000D01*
G01*
X125395000Y-69340000D01*
G75*
G02*
X125245000Y-69490000I-150000J0D01*
G01*
X124945000Y-69490000D01*
G75*
G02*
X124795000Y-69340000I0J150000D01*
G01*
X124795000Y-67690000D01*
G75*
G02*
X124945000Y-67540000I150000J0D01*
G01*
G37*
G36*
G01*
X123675000Y-67540000D02*
X123975000Y-67540000D01*
G75*
G02*
X124125000Y-67690000I0J-150000D01*
G01*
X124125000Y-69340000D01*
G75*
G02*
X123975000Y-69490000I-150000J0D01*
G01*
X123675000Y-69490000D01*
G75*
G02*
X123525000Y-69340000I0J150000D01*
G01*
X123525000Y-67690000D01*
G75*
G02*
X123675000Y-67540000I150000J0D01*
G01*
G37*
G36*
G01*
X122405000Y-67540000D02*
X122705000Y-67540000D01*
G75*
G02*
X122855000Y-67690000I0J-150000D01*
G01*
X122855000Y-69340000D01*
G75*
G02*
X122705000Y-69490000I-150000J0D01*
G01*
X122405000Y-69490000D01*
G75*
G02*
X122255000Y-69340000I0J150000D01*
G01*
X122255000Y-67690000D01*
G75*
G02*
X122405000Y-67540000I150000J0D01*
G01*
G37*
G36*
G01*
X121135000Y-67540000D02*
X121435000Y-67540000D01*
G75*
G02*
X121585000Y-67690000I0J-150000D01*
G01*
X121585000Y-69340000D01*
G75*
G02*
X121435000Y-69490000I-150000J0D01*
G01*
X121135000Y-69490000D01*
G75*
G02*
X120985000Y-69340000I0J150000D01*
G01*
X120985000Y-67690000D01*
G75*
G02*
X121135000Y-67540000I150000J0D01*
G01*
G37*
G36*
G01*
X119865000Y-67540000D02*
X120165000Y-67540000D01*
G75*
G02*
X120315000Y-67690000I0J-150000D01*
G01*
X120315000Y-69340000D01*
G75*
G02*
X120165000Y-69490000I-150000J0D01*
G01*
X119865000Y-69490000D01*
G75*
G02*
X119715000Y-69340000I0J150000D01*
G01*
X119715000Y-67690000D01*
G75*
G02*
X119865000Y-67540000I150000J0D01*
G01*
G37*
G36*
G01*
X118595000Y-67540000D02*
X118895000Y-67540000D01*
G75*
G02*
X119045000Y-67690000I0J-150000D01*
G01*
X119045000Y-69340000D01*
G75*
G02*
X118895000Y-69490000I-150000J0D01*
G01*
X118595000Y-69490000D01*
G75*
G02*
X118445000Y-69340000I0J150000D01*
G01*
X118445000Y-67690000D01*
G75*
G02*
X118595000Y-67540000I150000J0D01*
G01*
G37*
G36*
G01*
X117325000Y-67540000D02*
X117625000Y-67540000D01*
G75*
G02*
X117775000Y-67690000I0J-150000D01*
G01*
X117775000Y-69340000D01*
G75*
G02*
X117625000Y-69490000I-150000J0D01*
G01*
X117325000Y-69490000D01*
G75*
G02*
X117175000Y-69340000I0J150000D01*
G01*
X117175000Y-67690000D01*
G75*
G02*
X117325000Y-67540000I150000J0D01*
G01*
G37*
G36*
G01*
X116055000Y-67540000D02*
X116355000Y-67540000D01*
G75*
G02*
X116505000Y-67690000I0J-150000D01*
G01*
X116505000Y-69340000D01*
G75*
G02*
X116355000Y-69490000I-150000J0D01*
G01*
X116055000Y-69490000D01*
G75*
G02*
X115905000Y-69340000I0J150000D01*
G01*
X115905000Y-67690000D01*
G75*
G02*
X116055000Y-67540000I150000J0D01*
G01*
G37*
G36*
G01*
X116055000Y-62590000D02*
X116355000Y-62590000D01*
G75*
G02*
X116505000Y-62740000I0J-150000D01*
G01*
X116505000Y-64390000D01*
G75*
G02*
X116355000Y-64540000I-150000J0D01*
G01*
X116055000Y-64540000D01*
G75*
G02*
X115905000Y-64390000I0J150000D01*
G01*
X115905000Y-62740000D01*
G75*
G02*
X116055000Y-62590000I150000J0D01*
G01*
G37*
G36*
G01*
X117325000Y-62590000D02*
X117625000Y-62590000D01*
G75*
G02*
X117775000Y-62740000I0J-150000D01*
G01*
X117775000Y-64390000D01*
G75*
G02*
X117625000Y-64540000I-150000J0D01*
G01*
X117325000Y-64540000D01*
G75*
G02*
X117175000Y-64390000I0J150000D01*
G01*
X117175000Y-62740000D01*
G75*
G02*
X117325000Y-62590000I150000J0D01*
G01*
G37*
G36*
G01*
X118595000Y-62590000D02*
X118895000Y-62590000D01*
G75*
G02*
X119045000Y-62740000I0J-150000D01*
G01*
X119045000Y-64390000D01*
G75*
G02*
X118895000Y-64540000I-150000J0D01*
G01*
X118595000Y-64540000D01*
G75*
G02*
X118445000Y-64390000I0J150000D01*
G01*
X118445000Y-62740000D01*
G75*
G02*
X118595000Y-62590000I150000J0D01*
G01*
G37*
G36*
G01*
X119865000Y-62590000D02*
X120165000Y-62590000D01*
G75*
G02*
X120315000Y-62740000I0J-150000D01*
G01*
X120315000Y-64390000D01*
G75*
G02*
X120165000Y-64540000I-150000J0D01*
G01*
X119865000Y-64540000D01*
G75*
G02*
X119715000Y-64390000I0J150000D01*
G01*
X119715000Y-62740000D01*
G75*
G02*
X119865000Y-62590000I150000J0D01*
G01*
G37*
G36*
G01*
X121135000Y-62590000D02*
X121435000Y-62590000D01*
G75*
G02*
X121585000Y-62740000I0J-150000D01*
G01*
X121585000Y-64390000D01*
G75*
G02*
X121435000Y-64540000I-150000J0D01*
G01*
X121135000Y-64540000D01*
G75*
G02*
X120985000Y-64390000I0J150000D01*
G01*
X120985000Y-62740000D01*
G75*
G02*
X121135000Y-62590000I150000J0D01*
G01*
G37*
G36*
G01*
X122405000Y-62590000D02*
X122705000Y-62590000D01*
G75*
G02*
X122855000Y-62740000I0J-150000D01*
G01*
X122855000Y-64390000D01*
G75*
G02*
X122705000Y-64540000I-150000J0D01*
G01*
X122405000Y-64540000D01*
G75*
G02*
X122255000Y-64390000I0J150000D01*
G01*
X122255000Y-62740000D01*
G75*
G02*
X122405000Y-62590000I150000J0D01*
G01*
G37*
G36*
G01*
X123675000Y-62590000D02*
X123975000Y-62590000D01*
G75*
G02*
X124125000Y-62740000I0J-150000D01*
G01*
X124125000Y-64390000D01*
G75*
G02*
X123975000Y-64540000I-150000J0D01*
G01*
X123675000Y-64540000D01*
G75*
G02*
X123525000Y-64390000I0J150000D01*
G01*
X123525000Y-62740000D01*
G75*
G02*
X123675000Y-62590000I150000J0D01*
G01*
G37*
G36*
G01*
X124945000Y-62590000D02*
X125245000Y-62590000D01*
G75*
G02*
X125395000Y-62740000I0J-150000D01*
G01*
X125395000Y-64390000D01*
G75*
G02*
X125245000Y-64540000I-150000J0D01*
G01*
X124945000Y-64540000D01*
G75*
G02*
X124795000Y-64390000I0J150000D01*
G01*
X124795000Y-62740000D01*
G75*
G02*
X124945000Y-62590000I150000J0D01*
G01*
G37*
%TD*%
%TO.C,U7*%
G36*
G01*
X122785000Y-50315000D02*
X122785000Y-50015000D01*
G75*
G02*
X122935000Y-49865000I150000J0D01*
G01*
X124585000Y-49865000D01*
G75*
G02*
X124735000Y-50015000I0J-150000D01*
G01*
X124735000Y-50315000D01*
G75*
G02*
X124585000Y-50465000I-150000J0D01*
G01*
X122935000Y-50465000D01*
G75*
G02*
X122785000Y-50315000I0J150000D01*
G01*
G37*
G36*
G01*
X122785000Y-51585000D02*
X122785000Y-51285000D01*
G75*
G02*
X122935000Y-51135000I150000J0D01*
G01*
X124585000Y-51135000D01*
G75*
G02*
X124735000Y-51285000I0J-150000D01*
G01*
X124735000Y-51585000D01*
G75*
G02*
X124585000Y-51735000I-150000J0D01*
G01*
X122935000Y-51735000D01*
G75*
G02*
X122785000Y-51585000I0J150000D01*
G01*
G37*
G36*
G01*
X122785000Y-52855000D02*
X122785000Y-52555000D01*
G75*
G02*
X122935000Y-52405000I150000J0D01*
G01*
X124585000Y-52405000D01*
G75*
G02*
X124735000Y-52555000I0J-150000D01*
G01*
X124735000Y-52855000D01*
G75*
G02*
X124585000Y-53005000I-150000J0D01*
G01*
X122935000Y-53005000D01*
G75*
G02*
X122785000Y-52855000I0J150000D01*
G01*
G37*
G36*
G01*
X122785000Y-54125000D02*
X122785000Y-53825000D01*
G75*
G02*
X122935000Y-53675000I150000J0D01*
G01*
X124585000Y-53675000D01*
G75*
G02*
X124735000Y-53825000I0J-150000D01*
G01*
X124735000Y-54125000D01*
G75*
G02*
X124585000Y-54275000I-150000J0D01*
G01*
X122935000Y-54275000D01*
G75*
G02*
X122785000Y-54125000I0J150000D01*
G01*
G37*
G36*
G01*
X122785000Y-55395000D02*
X122785000Y-55095000D01*
G75*
G02*
X122935000Y-54945000I150000J0D01*
G01*
X124585000Y-54945000D01*
G75*
G02*
X124735000Y-55095000I0J-150000D01*
G01*
X124735000Y-55395000D01*
G75*
G02*
X124585000Y-55545000I-150000J0D01*
G01*
X122935000Y-55545000D01*
G75*
G02*
X122785000Y-55395000I0J150000D01*
G01*
G37*
G36*
G01*
X122785000Y-56665000D02*
X122785000Y-56365000D01*
G75*
G02*
X122935000Y-56215000I150000J0D01*
G01*
X124585000Y-56215000D01*
G75*
G02*
X124735000Y-56365000I0J-150000D01*
G01*
X124735000Y-56665000D01*
G75*
G02*
X124585000Y-56815000I-150000J0D01*
G01*
X122935000Y-56815000D01*
G75*
G02*
X122785000Y-56665000I0J150000D01*
G01*
G37*
G36*
G01*
X122785000Y-57935000D02*
X122785000Y-57635000D01*
G75*
G02*
X122935000Y-57485000I150000J0D01*
G01*
X124585000Y-57485000D01*
G75*
G02*
X124735000Y-57635000I0J-150000D01*
G01*
X124735000Y-57935000D01*
G75*
G02*
X124585000Y-58085000I-150000J0D01*
G01*
X122935000Y-58085000D01*
G75*
G02*
X122785000Y-57935000I0J150000D01*
G01*
G37*
G36*
G01*
X122785000Y-59205000D02*
X122785000Y-58905000D01*
G75*
G02*
X122935000Y-58755000I150000J0D01*
G01*
X124585000Y-58755000D01*
G75*
G02*
X124735000Y-58905000I0J-150000D01*
G01*
X124735000Y-59205000D01*
G75*
G02*
X124585000Y-59355000I-150000J0D01*
G01*
X122935000Y-59355000D01*
G75*
G02*
X122785000Y-59205000I0J150000D01*
G01*
G37*
G36*
G01*
X117835000Y-59205000D02*
X117835000Y-58905000D01*
G75*
G02*
X117985000Y-58755000I150000J0D01*
G01*
X119635000Y-58755000D01*
G75*
G02*
X119785000Y-58905000I0J-150000D01*
G01*
X119785000Y-59205000D01*
G75*
G02*
X119635000Y-59355000I-150000J0D01*
G01*
X117985000Y-59355000D01*
G75*
G02*
X117835000Y-59205000I0J150000D01*
G01*
G37*
G36*
G01*
X117835000Y-57935000D02*
X117835000Y-57635000D01*
G75*
G02*
X117985000Y-57485000I150000J0D01*
G01*
X119635000Y-57485000D01*
G75*
G02*
X119785000Y-57635000I0J-150000D01*
G01*
X119785000Y-57935000D01*
G75*
G02*
X119635000Y-58085000I-150000J0D01*
G01*
X117985000Y-58085000D01*
G75*
G02*
X117835000Y-57935000I0J150000D01*
G01*
G37*
G36*
G01*
X117835000Y-56665000D02*
X117835000Y-56365000D01*
G75*
G02*
X117985000Y-56215000I150000J0D01*
G01*
X119635000Y-56215000D01*
G75*
G02*
X119785000Y-56365000I0J-150000D01*
G01*
X119785000Y-56665000D01*
G75*
G02*
X119635000Y-56815000I-150000J0D01*
G01*
X117985000Y-56815000D01*
G75*
G02*
X117835000Y-56665000I0J150000D01*
G01*
G37*
G36*
G01*
X117835000Y-55395000D02*
X117835000Y-55095000D01*
G75*
G02*
X117985000Y-54945000I150000J0D01*
G01*
X119635000Y-54945000D01*
G75*
G02*
X119785000Y-55095000I0J-150000D01*
G01*
X119785000Y-55395000D01*
G75*
G02*
X119635000Y-55545000I-150000J0D01*
G01*
X117985000Y-55545000D01*
G75*
G02*
X117835000Y-55395000I0J150000D01*
G01*
G37*
G36*
G01*
X117835000Y-54125000D02*
X117835000Y-53825000D01*
G75*
G02*
X117985000Y-53675000I150000J0D01*
G01*
X119635000Y-53675000D01*
G75*
G02*
X119785000Y-53825000I0J-150000D01*
G01*
X119785000Y-54125000D01*
G75*
G02*
X119635000Y-54275000I-150000J0D01*
G01*
X117985000Y-54275000D01*
G75*
G02*
X117835000Y-54125000I0J150000D01*
G01*
G37*
G36*
G01*
X117835000Y-52855000D02*
X117835000Y-52555000D01*
G75*
G02*
X117985000Y-52405000I150000J0D01*
G01*
X119635000Y-52405000D01*
G75*
G02*
X119785000Y-52555000I0J-150000D01*
G01*
X119785000Y-52855000D01*
G75*
G02*
X119635000Y-53005000I-150000J0D01*
G01*
X117985000Y-53005000D01*
G75*
G02*
X117835000Y-52855000I0J150000D01*
G01*
G37*
G36*
G01*
X117835000Y-51585000D02*
X117835000Y-51285000D01*
G75*
G02*
X117985000Y-51135000I150000J0D01*
G01*
X119635000Y-51135000D01*
G75*
G02*
X119785000Y-51285000I0J-150000D01*
G01*
X119785000Y-51585000D01*
G75*
G02*
X119635000Y-51735000I-150000J0D01*
G01*
X117985000Y-51735000D01*
G75*
G02*
X117835000Y-51585000I0J150000D01*
G01*
G37*
G36*
G01*
X117835000Y-50315000D02*
X117835000Y-50015000D01*
G75*
G02*
X117985000Y-49865000I150000J0D01*
G01*
X119635000Y-49865000D01*
G75*
G02*
X119785000Y-50015000I0J-150000D01*
G01*
X119785000Y-50315000D01*
G75*
G02*
X119635000Y-50465000I-150000J0D01*
G01*
X117985000Y-50465000D01*
G75*
G02*
X117835000Y-50315000I0J150000D01*
G01*
G37*
%TD*%
%TO.C,U6*%
G36*
G01*
X134215000Y-50315000D02*
X134215000Y-50015000D01*
G75*
G02*
X134365000Y-49865000I150000J0D01*
G01*
X136015000Y-49865000D01*
G75*
G02*
X136165000Y-50015000I0J-150000D01*
G01*
X136165000Y-50315000D01*
G75*
G02*
X136015000Y-50465000I-150000J0D01*
G01*
X134365000Y-50465000D01*
G75*
G02*
X134215000Y-50315000I0J150000D01*
G01*
G37*
G36*
G01*
X134215000Y-51585000D02*
X134215000Y-51285000D01*
G75*
G02*
X134365000Y-51135000I150000J0D01*
G01*
X136015000Y-51135000D01*
G75*
G02*
X136165000Y-51285000I0J-150000D01*
G01*
X136165000Y-51585000D01*
G75*
G02*
X136015000Y-51735000I-150000J0D01*
G01*
X134365000Y-51735000D01*
G75*
G02*
X134215000Y-51585000I0J150000D01*
G01*
G37*
G36*
G01*
X134215000Y-52855000D02*
X134215000Y-52555000D01*
G75*
G02*
X134365000Y-52405000I150000J0D01*
G01*
X136015000Y-52405000D01*
G75*
G02*
X136165000Y-52555000I0J-150000D01*
G01*
X136165000Y-52855000D01*
G75*
G02*
X136015000Y-53005000I-150000J0D01*
G01*
X134365000Y-53005000D01*
G75*
G02*
X134215000Y-52855000I0J150000D01*
G01*
G37*
G36*
G01*
X134215000Y-54125000D02*
X134215000Y-53825000D01*
G75*
G02*
X134365000Y-53675000I150000J0D01*
G01*
X136015000Y-53675000D01*
G75*
G02*
X136165000Y-53825000I0J-150000D01*
G01*
X136165000Y-54125000D01*
G75*
G02*
X136015000Y-54275000I-150000J0D01*
G01*
X134365000Y-54275000D01*
G75*
G02*
X134215000Y-54125000I0J150000D01*
G01*
G37*
G36*
G01*
X134215000Y-55395000D02*
X134215000Y-55095000D01*
G75*
G02*
X134365000Y-54945000I150000J0D01*
G01*
X136015000Y-54945000D01*
G75*
G02*
X136165000Y-55095000I0J-150000D01*
G01*
X136165000Y-55395000D01*
G75*
G02*
X136015000Y-55545000I-150000J0D01*
G01*
X134365000Y-55545000D01*
G75*
G02*
X134215000Y-55395000I0J150000D01*
G01*
G37*
G36*
G01*
X134215000Y-56665000D02*
X134215000Y-56365000D01*
G75*
G02*
X134365000Y-56215000I150000J0D01*
G01*
X136015000Y-56215000D01*
G75*
G02*
X136165000Y-56365000I0J-150000D01*
G01*
X136165000Y-56665000D01*
G75*
G02*
X136015000Y-56815000I-150000J0D01*
G01*
X134365000Y-56815000D01*
G75*
G02*
X134215000Y-56665000I0J150000D01*
G01*
G37*
G36*
G01*
X134215000Y-57935000D02*
X134215000Y-57635000D01*
G75*
G02*
X134365000Y-57485000I150000J0D01*
G01*
X136015000Y-57485000D01*
G75*
G02*
X136165000Y-57635000I0J-150000D01*
G01*
X136165000Y-57935000D01*
G75*
G02*
X136015000Y-58085000I-150000J0D01*
G01*
X134365000Y-58085000D01*
G75*
G02*
X134215000Y-57935000I0J150000D01*
G01*
G37*
G36*
G01*
X134215000Y-59205000D02*
X134215000Y-58905000D01*
G75*
G02*
X134365000Y-58755000I150000J0D01*
G01*
X136015000Y-58755000D01*
G75*
G02*
X136165000Y-58905000I0J-150000D01*
G01*
X136165000Y-59205000D01*
G75*
G02*
X136015000Y-59355000I-150000J0D01*
G01*
X134365000Y-59355000D01*
G75*
G02*
X134215000Y-59205000I0J150000D01*
G01*
G37*
G36*
G01*
X129265000Y-59205000D02*
X129265000Y-58905000D01*
G75*
G02*
X129415000Y-58755000I150000J0D01*
G01*
X131065000Y-58755000D01*
G75*
G02*
X131215000Y-58905000I0J-150000D01*
G01*
X131215000Y-59205000D01*
G75*
G02*
X131065000Y-59355000I-150000J0D01*
G01*
X129415000Y-59355000D01*
G75*
G02*
X129265000Y-59205000I0J150000D01*
G01*
G37*
G36*
G01*
X129265000Y-57935000D02*
X129265000Y-57635000D01*
G75*
G02*
X129415000Y-57485000I150000J0D01*
G01*
X131065000Y-57485000D01*
G75*
G02*
X131215000Y-57635000I0J-150000D01*
G01*
X131215000Y-57935000D01*
G75*
G02*
X131065000Y-58085000I-150000J0D01*
G01*
X129415000Y-58085000D01*
G75*
G02*
X129265000Y-57935000I0J150000D01*
G01*
G37*
G36*
G01*
X129265000Y-56665000D02*
X129265000Y-56365000D01*
G75*
G02*
X129415000Y-56215000I150000J0D01*
G01*
X131065000Y-56215000D01*
G75*
G02*
X131215000Y-56365000I0J-150000D01*
G01*
X131215000Y-56665000D01*
G75*
G02*
X131065000Y-56815000I-150000J0D01*
G01*
X129415000Y-56815000D01*
G75*
G02*
X129265000Y-56665000I0J150000D01*
G01*
G37*
G36*
G01*
X129265000Y-55395000D02*
X129265000Y-55095000D01*
G75*
G02*
X129415000Y-54945000I150000J0D01*
G01*
X131065000Y-54945000D01*
G75*
G02*
X131215000Y-55095000I0J-150000D01*
G01*
X131215000Y-55395000D01*
G75*
G02*
X131065000Y-55545000I-150000J0D01*
G01*
X129415000Y-55545000D01*
G75*
G02*
X129265000Y-55395000I0J150000D01*
G01*
G37*
G36*
G01*
X129265000Y-54125000D02*
X129265000Y-53825000D01*
G75*
G02*
X129415000Y-53675000I150000J0D01*
G01*
X131065000Y-53675000D01*
G75*
G02*
X131215000Y-53825000I0J-150000D01*
G01*
X131215000Y-54125000D01*
G75*
G02*
X131065000Y-54275000I-150000J0D01*
G01*
X129415000Y-54275000D01*
G75*
G02*
X129265000Y-54125000I0J150000D01*
G01*
G37*
G36*
G01*
X129265000Y-52855000D02*
X129265000Y-52555000D01*
G75*
G02*
X129415000Y-52405000I150000J0D01*
G01*
X131065000Y-52405000D01*
G75*
G02*
X131215000Y-52555000I0J-150000D01*
G01*
X131215000Y-52855000D01*
G75*
G02*
X131065000Y-53005000I-150000J0D01*
G01*
X129415000Y-53005000D01*
G75*
G02*
X129265000Y-52855000I0J150000D01*
G01*
G37*
G36*
G01*
X129265000Y-51585000D02*
X129265000Y-51285000D01*
G75*
G02*
X129415000Y-51135000I150000J0D01*
G01*
X131065000Y-51135000D01*
G75*
G02*
X131215000Y-51285000I0J-150000D01*
G01*
X131215000Y-51585000D01*
G75*
G02*
X131065000Y-51735000I-150000J0D01*
G01*
X129415000Y-51735000D01*
G75*
G02*
X129265000Y-51585000I0J150000D01*
G01*
G37*
G36*
G01*
X129265000Y-50315000D02*
X129265000Y-50015000D01*
G75*
G02*
X129415000Y-49865000I150000J0D01*
G01*
X131065000Y-49865000D01*
G75*
G02*
X131215000Y-50015000I0J-150000D01*
G01*
X131215000Y-50315000D01*
G75*
G02*
X131065000Y-50465000I-150000J0D01*
G01*
X129415000Y-50465000D01*
G75*
G02*
X129265000Y-50315000I0J150000D01*
G01*
G37*
%TD*%
D14*
%TO.C,J7*%
X99060000Y-114300000D03*
D13*
X99060000Y-111760000D03*
%TD*%
D14*
%TO.C,J5*%
X99060000Y-120650000D03*
D13*
X99060000Y-118110000D03*
%TD*%
D14*
%TO.C,J4*%
X107950000Y-50800000D03*
X107950000Y-53340000D03*
X107950000Y-55880000D03*
X107950000Y-58420000D03*
X107950000Y-60960000D03*
X107950000Y-63500000D03*
X107950000Y-66040000D03*
X107950000Y-68580000D03*
X107950000Y-71120000D03*
X107950000Y-73660000D03*
X107950000Y-76200000D03*
X107950000Y-78740000D03*
X107950000Y-81280000D03*
X107950000Y-83820000D03*
X107950000Y-86360000D03*
X107950000Y-88900000D03*
X107950000Y-91440000D03*
X107950000Y-93980000D03*
X107950000Y-96520000D03*
X107950000Y-99060000D03*
X107950000Y-101600000D03*
X107950000Y-104140000D03*
X107950000Y-106680000D03*
D13*
X107950000Y-109220000D03*
%TD*%
D14*
%TO.C,J3*%
X113030000Y-50800000D03*
X113030000Y-53340000D03*
X113030000Y-55880000D03*
X113030000Y-58420000D03*
X113030000Y-60960000D03*
X113030000Y-63500000D03*
X113030000Y-66040000D03*
X113030000Y-68580000D03*
X113030000Y-71120000D03*
X113030000Y-73660000D03*
X113030000Y-76200000D03*
X113030000Y-78740000D03*
X113030000Y-81280000D03*
X113030000Y-83820000D03*
X113030000Y-86360000D03*
X113030000Y-88900000D03*
X113030000Y-91440000D03*
X113030000Y-93980000D03*
X113030000Y-96520000D03*
X113030000Y-99060000D03*
X113030000Y-101600000D03*
X113030000Y-104140000D03*
X113030000Y-106680000D03*
D13*
X113030000Y-109220000D03*
%TD*%
M02*
