%TF.GenerationSoftware,KiCad,Pcbnew,(5.1.8)-1*%
%TF.CreationDate,2021-05-20T16:02:40+02:00*%
%TF.ProjectId,Nes Sound Expansion,4e657320-536f-4756-9e64-20457870616e,rev?*%
%TF.SameCoordinates,Original*%
%TF.FileFunction,Legend,Top*%
%TF.FilePolarity,Positive*%
%FSLAX46Y46*%
G04 Gerber Fmt 4.6, Leading zero omitted, Abs format (unit mm)*
G04 Created by KiCad (PCBNEW (5.1.8)-1) date 2021-05-20 16:02:40*
%MOMM*%
%LPD*%
G01*
G04 APERTURE LIST*
%ADD10C,0.120000*%
%ADD11C,0.150000*%
G04 APERTURE END LIST*
D10*
%TO.C,R19*%
X104256064Y-94461000D02*
X103801936Y-94461000D01*
X104256064Y-92991000D02*
X103801936Y-92991000D01*
%TO.C,R18*%
X104256064Y-100430000D02*
X103801936Y-100430000D01*
X104256064Y-98960000D02*
X103801936Y-98960000D01*
%TO.C,R4*%
X104256064Y-97509000D02*
X103801936Y-97509000D01*
X104256064Y-96039000D02*
X103801936Y-96039000D01*
%TO.C,R17*%
X117178064Y-92302000D02*
X116723936Y-92302000D01*
X117178064Y-90832000D02*
X116723936Y-90832000D01*
%TO.C,R16*%
X117194064Y-95350000D02*
X116739936Y-95350000D01*
X117194064Y-93880000D02*
X116739936Y-93880000D01*
%TO.C,R10*%
X117375000Y-109812064D02*
X117375000Y-109357936D01*
X118845000Y-109812064D02*
X118845000Y-109357936D01*
%TO.C,R9*%
X98325000Y-106907064D02*
X98325000Y-106452936D01*
X99795000Y-106907064D02*
X99795000Y-106452936D01*
%TO.C,R8*%
X122455000Y-119962064D02*
X122455000Y-119507936D01*
X123925000Y-119962064D02*
X123925000Y-119507936D01*
%TO.C,R7*%
X118645000Y-119962064D02*
X118645000Y-119507936D01*
X120115000Y-119962064D02*
X120115000Y-119507936D01*
%TO.C,R6*%
X126265000Y-119962064D02*
X126265000Y-119507936D01*
X127735000Y-119962064D02*
X127735000Y-119507936D01*
%TO.C,R5*%
X130075000Y-119962064D02*
X130075000Y-119507936D01*
X131545000Y-119962064D02*
X131545000Y-119507936D01*
%TO.C,R3*%
X128170000Y-92657064D02*
X128170000Y-92202936D01*
X129640000Y-92657064D02*
X129640000Y-92202936D01*
%TO.C,R2*%
X131980000Y-92657064D02*
X131980000Y-92202936D01*
X133450000Y-92657064D02*
X133450000Y-92202936D01*
%TO.C,R1*%
X135790000Y-92657064D02*
X135790000Y-92202936D01*
X137260000Y-92657064D02*
X137260000Y-92202936D01*
%TO.C,R14*%
X136117000Y-40589564D02*
X136117000Y-40135436D01*
X134647000Y-40589564D02*
X134647000Y-40135436D01*
%TO.C,R13*%
X115978000Y-44492936D02*
X115978000Y-44947064D01*
X117448000Y-44492936D02*
X117448000Y-44947064D01*
%TO.C,R12*%
X119915000Y-44492936D02*
X119915000Y-44947064D01*
X121385000Y-44492936D02*
X121385000Y-44947064D01*
%TO.C,R15*%
X123891064Y-72750000D02*
X122436936Y-72750000D01*
X123891064Y-74570000D02*
X122436936Y-74570000D01*
%TO.C,U2*%
X128270000Y-38110000D02*
X124820000Y-38110000D01*
X128270000Y-38110000D02*
X130220000Y-38110000D01*
X128270000Y-46980000D02*
X126320000Y-46980000D01*
X128270000Y-46980000D02*
X130220000Y-46980000D01*
%TO.C,C5*%
X134647000Y-44884748D02*
X134647000Y-45407252D01*
X136117000Y-44884748D02*
X136117000Y-45407252D01*
%TO.C,C4*%
X115978000Y-40063748D02*
X115978000Y-40586252D01*
X117448000Y-40063748D02*
X117448000Y-40586252D01*
%TO.C,C3*%
X119915000Y-40063748D02*
X119915000Y-40586252D01*
X121385000Y-40063748D02*
X121385000Y-40586252D01*
%TO.C,C1*%
X118686252Y-72925000D02*
X118163748Y-72925000D01*
X118686252Y-74395000D02*
X118163748Y-74395000D01*
%TO.C,YMF288*%
X135425000Y-86410000D02*
X135180000Y-86410000D01*
X135425000Y-82550000D02*
X135425000Y-86410000D01*
X117305000Y-82550000D02*
X117305000Y-78690000D01*
X135180000Y-78690000D02*
X135180000Y-76875000D01*
X117305000Y-82550000D02*
X117305000Y-86410000D01*
X135425000Y-78690000D02*
X135180000Y-78690000D01*
X117305000Y-78690000D02*
X117550000Y-78690000D01*
X135425000Y-82550000D02*
X135425000Y-78690000D01*
X117305000Y-86410000D02*
X117550000Y-86410000D01*
%TO.C,BU9480F1*%
X130790000Y-100078500D02*
X130790000Y-103528500D01*
X130790000Y-100078500D02*
X130790000Y-98128500D01*
X135910000Y-100078500D02*
X135910000Y-102028500D01*
X135910000Y-100078500D02*
X135910000Y-98128500D01*
%TO.C,J5*%
X100330000Y-119285333D02*
X101600000Y-119285333D01*
X101530000Y-120492000D02*
X101530000Y-119285333D01*
X101410000Y-120492000D02*
X101410000Y-119285333D01*
X101290000Y-120492000D02*
X101290000Y-119285333D01*
X101170000Y-120492000D02*
X101170000Y-119285333D01*
X101050000Y-120492000D02*
X101050000Y-119285333D01*
X100930000Y-120492000D02*
X100930000Y-119285333D01*
X100810000Y-120492000D02*
X100810000Y-119285333D01*
X100690000Y-120492000D02*
X100690000Y-119285333D01*
X100570000Y-120492000D02*
X100570000Y-119285333D01*
X100450000Y-120492000D02*
X100450000Y-119285333D01*
X100330000Y-116872000D02*
X100330000Y-120492000D01*
X101600000Y-116872000D02*
X100330000Y-116872000D01*
X101600000Y-120492000D02*
X101600000Y-116872000D01*
X100330000Y-120492000D02*
X101600000Y-120492000D01*
X98615000Y-122332000D02*
X99998000Y-122332000D01*
X98615000Y-122332000D02*
X98615000Y-120949000D01*
X101765000Y-115272000D02*
X103075000Y-115272000D01*
X98855000Y-115272000D02*
X100165000Y-115272000D01*
X101765000Y-122092000D02*
X103075000Y-122092000D01*
X98855000Y-122092000D02*
X100165000Y-122092000D01*
X103075000Y-122092000D02*
X103075000Y-115272000D01*
X98855000Y-122092000D02*
X98855000Y-115272000D01*
%TO.C,J7*%
X98227000Y-109510000D02*
X98227000Y-112370000D01*
X100147000Y-109510000D02*
X98227000Y-109510000D01*
X100147000Y-112370000D02*
X100147000Y-109510000D01*
%TO.C,X1*%
X121887000Y-91696000D02*
X121887000Y-95896000D01*
X125387000Y-91696000D02*
X121887000Y-91696000D01*
%TO.C,C13*%
X125635000Y-107210000D02*
X125135000Y-107210000D01*
X125385000Y-106960000D02*
X125385000Y-107460000D01*
X122629437Y-107700000D02*
X121565000Y-108764437D01*
X125020563Y-107700000D02*
X126085000Y-108764437D01*
X125020563Y-107700000D02*
X124885000Y-107700000D01*
X122629437Y-107700000D02*
X122765000Y-107700000D01*
X121565000Y-108764437D02*
X121565000Y-112220000D01*
X126085000Y-108764437D02*
X126085000Y-112220000D01*
X126085000Y-112220000D02*
X124885000Y-112220000D01*
X121565000Y-112220000D02*
X122765000Y-112220000D01*
%TO.C,C12*%
X123222000Y-99590000D02*
X122722000Y-99590000D01*
X122972000Y-99340000D02*
X122972000Y-99840000D01*
X120216437Y-100080000D02*
X119152000Y-101144437D01*
X122607563Y-100080000D02*
X123672000Y-101144437D01*
X122607563Y-100080000D02*
X122472000Y-100080000D01*
X120216437Y-100080000D02*
X120352000Y-100080000D01*
X119152000Y-101144437D02*
X119152000Y-104600000D01*
X123672000Y-101144437D02*
X123672000Y-104600000D01*
X123672000Y-104600000D02*
X122472000Y-104600000D01*
X119152000Y-104600000D02*
X120352000Y-104600000D01*
%TO.C,C11*%
X128302000Y-99590000D02*
X127802000Y-99590000D01*
X128052000Y-99340000D02*
X128052000Y-99840000D01*
X125296437Y-100080000D02*
X124232000Y-101144437D01*
X127687563Y-100080000D02*
X128752000Y-101144437D01*
X127687563Y-100080000D02*
X127552000Y-100080000D01*
X125296437Y-100080000D02*
X125432000Y-100080000D01*
X124232000Y-101144437D02*
X124232000Y-104600000D01*
X128752000Y-101144437D02*
X128752000Y-104600000D01*
X128752000Y-104600000D02*
X127552000Y-104600000D01*
X124232000Y-104600000D02*
X125432000Y-104600000D01*
%TO.C,C10*%
X135795000Y-107210000D02*
X135295000Y-107210000D01*
X135545000Y-106960000D02*
X135545000Y-107460000D01*
X132789437Y-107700000D02*
X131725000Y-108764437D01*
X135180563Y-107700000D02*
X136245000Y-108764437D01*
X135180563Y-107700000D02*
X135045000Y-107700000D01*
X132789437Y-107700000D02*
X132925000Y-107700000D01*
X131725000Y-108764437D02*
X131725000Y-112220000D01*
X136245000Y-108764437D02*
X136245000Y-112220000D01*
X136245000Y-112220000D02*
X135045000Y-112220000D01*
X131725000Y-112220000D02*
X132925000Y-112220000D01*
%TO.C,C2*%
X130715000Y-107210000D02*
X130215000Y-107210000D01*
X130465000Y-106960000D02*
X130465000Y-107460000D01*
X127709437Y-107700000D02*
X126645000Y-108764437D01*
X130100563Y-107700000D02*
X131165000Y-108764437D01*
X130100563Y-107700000D02*
X129965000Y-107700000D01*
X127709437Y-107700000D02*
X127845000Y-107700000D01*
X126645000Y-108764437D02*
X126645000Y-112220000D01*
X131165000Y-108764437D02*
X131165000Y-112220000D01*
X131165000Y-112220000D02*
X129965000Y-112220000D01*
X126645000Y-112220000D02*
X127845000Y-112220000D01*
%TO.C,J6*%
X113590000Y-123740000D02*
X113090000Y-123740000D01*
X107890000Y-123740000D02*
X107390000Y-123740000D01*
X107890000Y-125740000D02*
X107890000Y-123740000D01*
X113090000Y-125740000D02*
X107890000Y-125740000D01*
X113090000Y-123740000D02*
X113090000Y-125740000D01*
X107390000Y-123740000D02*
X107390000Y-122540000D01*
X107390000Y-120590000D02*
X107390000Y-115340000D01*
X107390000Y-113390000D02*
X107390000Y-113090000D01*
X108140000Y-111540000D02*
X113590000Y-111540000D01*
X113590000Y-113590000D02*
X113590000Y-117190000D01*
X113590000Y-119090000D02*
X113590000Y-120590000D01*
X113590000Y-122440000D02*
X113590000Y-123740000D01*
X113590000Y-122440000D02*
X114940000Y-122440000D01*
X113590000Y-120590000D02*
X114940000Y-120590000D01*
%TO.C,J2*%
X100390000Y-82610000D02*
X99060000Y-82610000D01*
X100390000Y-81280000D02*
X100390000Y-82610000D01*
X100390000Y-80010000D02*
X97730000Y-80010000D01*
X97730000Y-80010000D02*
X97730000Y-64710000D01*
X100390000Y-80010000D02*
X100390000Y-64710000D01*
X100390000Y-64710000D02*
X97730000Y-64710000D01*
%TO.C,J1*%
X97730000Y-85030000D02*
X99060000Y-85030000D01*
X97730000Y-86360000D02*
X97730000Y-85030000D01*
X97730000Y-87630000D02*
X100390000Y-87630000D01*
X100390000Y-87630000D02*
X100390000Y-102930000D01*
X97730000Y-87630000D02*
X97730000Y-102930000D01*
X97730000Y-102930000D02*
X100390000Y-102930000D01*
%TO.C,U1*%
X100350000Y-41910000D02*
X100350000Y-45360000D01*
X100350000Y-41910000D02*
X100350000Y-39960000D01*
X110470000Y-41910000D02*
X110470000Y-43860000D01*
X110470000Y-41910000D02*
X110470000Y-39960000D01*
%TO.C,U10*%
X100330000Y-52090000D02*
X96880000Y-52090000D01*
X100330000Y-52090000D02*
X102280000Y-52090000D01*
X100330000Y-62210000D02*
X98380000Y-62210000D01*
X100330000Y-62210000D02*
X102280000Y-62210000D01*
%TO.C,U9*%
X137140000Y-66040000D02*
X137140000Y-62590000D01*
X137140000Y-66040000D02*
X137140000Y-67990000D01*
X127020000Y-66040000D02*
X127020000Y-64090000D01*
X127020000Y-66040000D02*
X127020000Y-67990000D01*
%TO.C,U8*%
X125710000Y-66040000D02*
X125710000Y-62590000D01*
X125710000Y-66040000D02*
X125710000Y-67990000D01*
X115590000Y-66040000D02*
X115590000Y-64090000D01*
X115590000Y-66040000D02*
X115590000Y-67990000D01*
%TO.C,U7*%
X121285000Y-49550000D02*
X117835000Y-49550000D01*
X121285000Y-49550000D02*
X123235000Y-49550000D01*
X121285000Y-59670000D02*
X119335000Y-59670000D01*
X121285000Y-59670000D02*
X123235000Y-59670000D01*
%TO.C,U6*%
X132715000Y-49550000D02*
X129265000Y-49550000D01*
X132715000Y-49550000D02*
X134665000Y-49550000D01*
X132715000Y-59670000D02*
X130765000Y-59670000D01*
X132715000Y-59670000D02*
X134665000Y-59670000D01*
%TO.C,R19*%
D11*
X103386142Y-95828380D02*
X103052809Y-95352190D01*
X102814714Y-95828380D02*
X102814714Y-94828380D01*
X103195666Y-94828380D01*
X103290904Y-94876000D01*
X103338523Y-94923619D01*
X103386142Y-95018857D01*
X103386142Y-95161714D01*
X103338523Y-95256952D01*
X103290904Y-95304571D01*
X103195666Y-95352190D01*
X102814714Y-95352190D01*
X104338523Y-95828380D02*
X103767095Y-95828380D01*
X104052809Y-95828380D02*
X104052809Y-94828380D01*
X103957571Y-94971238D01*
X103862333Y-95066476D01*
X103767095Y-95114095D01*
X104814714Y-95828380D02*
X105005190Y-95828380D01*
X105100428Y-95780761D01*
X105148047Y-95733142D01*
X105243285Y-95590285D01*
X105290904Y-95399809D01*
X105290904Y-95018857D01*
X105243285Y-94923619D01*
X105195666Y-94876000D01*
X105100428Y-94828380D01*
X104909952Y-94828380D01*
X104814714Y-94876000D01*
X104767095Y-94923619D01*
X104719476Y-95018857D01*
X104719476Y-95256952D01*
X104767095Y-95352190D01*
X104814714Y-95399809D01*
X104909952Y-95447428D01*
X105100428Y-95447428D01*
X105195666Y-95399809D01*
X105243285Y-95352190D01*
X105290904Y-95256952D01*
%TO.C,R18*%
X103386142Y-101797380D02*
X103052809Y-101321190D01*
X102814714Y-101797380D02*
X102814714Y-100797380D01*
X103195666Y-100797380D01*
X103290904Y-100845000D01*
X103338523Y-100892619D01*
X103386142Y-100987857D01*
X103386142Y-101130714D01*
X103338523Y-101225952D01*
X103290904Y-101273571D01*
X103195666Y-101321190D01*
X102814714Y-101321190D01*
X104338523Y-101797380D02*
X103767095Y-101797380D01*
X104052809Y-101797380D02*
X104052809Y-100797380D01*
X103957571Y-100940238D01*
X103862333Y-101035476D01*
X103767095Y-101083095D01*
X104909952Y-101225952D02*
X104814714Y-101178333D01*
X104767095Y-101130714D01*
X104719476Y-101035476D01*
X104719476Y-100987857D01*
X104767095Y-100892619D01*
X104814714Y-100845000D01*
X104909952Y-100797380D01*
X105100428Y-100797380D01*
X105195666Y-100845000D01*
X105243285Y-100892619D01*
X105290904Y-100987857D01*
X105290904Y-101035476D01*
X105243285Y-101130714D01*
X105195666Y-101178333D01*
X105100428Y-101225952D01*
X104909952Y-101225952D01*
X104814714Y-101273571D01*
X104767095Y-101321190D01*
X104719476Y-101416428D01*
X104719476Y-101606904D01*
X104767095Y-101702142D01*
X104814714Y-101749761D01*
X104909952Y-101797380D01*
X105100428Y-101797380D01*
X105195666Y-101749761D01*
X105243285Y-101702142D01*
X105290904Y-101606904D01*
X105290904Y-101416428D01*
X105243285Y-101321190D01*
X105195666Y-101273571D01*
X105100428Y-101225952D01*
%TO.C,R4*%
X103862333Y-98876380D02*
X103529000Y-98400190D01*
X103290904Y-98876380D02*
X103290904Y-97876380D01*
X103671857Y-97876380D01*
X103767095Y-97924000D01*
X103814714Y-97971619D01*
X103862333Y-98066857D01*
X103862333Y-98209714D01*
X103814714Y-98304952D01*
X103767095Y-98352571D01*
X103671857Y-98400190D01*
X103290904Y-98400190D01*
X104719476Y-98209714D02*
X104719476Y-98876380D01*
X104481380Y-97828761D02*
X104243285Y-98543047D01*
X104862333Y-98543047D01*
%TO.C,R17*%
X116308142Y-93669380D02*
X115974809Y-93193190D01*
X115736714Y-93669380D02*
X115736714Y-92669380D01*
X116117666Y-92669380D01*
X116212904Y-92717000D01*
X116260523Y-92764619D01*
X116308142Y-92859857D01*
X116308142Y-93002714D01*
X116260523Y-93097952D01*
X116212904Y-93145571D01*
X116117666Y-93193190D01*
X115736714Y-93193190D01*
X117260523Y-93669380D02*
X116689095Y-93669380D01*
X116974809Y-93669380D02*
X116974809Y-92669380D01*
X116879571Y-92812238D01*
X116784333Y-92907476D01*
X116689095Y-92955095D01*
X117593857Y-92669380D02*
X118260523Y-92669380D01*
X117831952Y-93669380D01*
%TO.C,R16*%
X116324142Y-96717380D02*
X115990809Y-96241190D01*
X115752714Y-96717380D02*
X115752714Y-95717380D01*
X116133666Y-95717380D01*
X116228904Y-95765000D01*
X116276523Y-95812619D01*
X116324142Y-95907857D01*
X116324142Y-96050714D01*
X116276523Y-96145952D01*
X116228904Y-96193571D01*
X116133666Y-96241190D01*
X115752714Y-96241190D01*
X117276523Y-96717380D02*
X116705095Y-96717380D01*
X116990809Y-96717380D02*
X116990809Y-95717380D01*
X116895571Y-95860238D01*
X116800333Y-95955476D01*
X116705095Y-96003095D01*
X118133666Y-95717380D02*
X117943190Y-95717380D01*
X117847952Y-95765000D01*
X117800333Y-95812619D01*
X117705095Y-95955476D01*
X117657476Y-96145952D01*
X117657476Y-96526904D01*
X117705095Y-96622142D01*
X117752714Y-96669761D01*
X117847952Y-96717380D01*
X118038428Y-96717380D01*
X118133666Y-96669761D01*
X118181285Y-96622142D01*
X118228904Y-96526904D01*
X118228904Y-96288809D01*
X118181285Y-96193571D01*
X118133666Y-96145952D01*
X118038428Y-96098333D01*
X117847952Y-96098333D01*
X117752714Y-96145952D01*
X117705095Y-96193571D01*
X117657476Y-96288809D01*
%TO.C,R10*%
X116912380Y-110227857D02*
X116436190Y-110561190D01*
X116912380Y-110799285D02*
X115912380Y-110799285D01*
X115912380Y-110418333D01*
X115960000Y-110323095D01*
X116007619Y-110275476D01*
X116102857Y-110227857D01*
X116245714Y-110227857D01*
X116340952Y-110275476D01*
X116388571Y-110323095D01*
X116436190Y-110418333D01*
X116436190Y-110799285D01*
X116912380Y-109275476D02*
X116912380Y-109846904D01*
X116912380Y-109561190D02*
X115912380Y-109561190D01*
X116055238Y-109656428D01*
X116150476Y-109751666D01*
X116198095Y-109846904D01*
X115912380Y-108656428D02*
X115912380Y-108561190D01*
X115960000Y-108465952D01*
X116007619Y-108418333D01*
X116102857Y-108370714D01*
X116293333Y-108323095D01*
X116531428Y-108323095D01*
X116721904Y-108370714D01*
X116817142Y-108418333D01*
X116864761Y-108465952D01*
X116912380Y-108561190D01*
X116912380Y-108656428D01*
X116864761Y-108751666D01*
X116817142Y-108799285D01*
X116721904Y-108846904D01*
X116531428Y-108894523D01*
X116293333Y-108894523D01*
X116102857Y-108846904D01*
X116007619Y-108799285D01*
X115960000Y-108751666D01*
X115912380Y-108656428D01*
%TO.C,R9*%
X97862380Y-106846666D02*
X97386190Y-107180000D01*
X97862380Y-107418095D02*
X96862380Y-107418095D01*
X96862380Y-107037142D01*
X96910000Y-106941904D01*
X96957619Y-106894285D01*
X97052857Y-106846666D01*
X97195714Y-106846666D01*
X97290952Y-106894285D01*
X97338571Y-106941904D01*
X97386190Y-107037142D01*
X97386190Y-107418095D01*
X97862380Y-106370476D02*
X97862380Y-106180000D01*
X97814761Y-106084761D01*
X97767142Y-106037142D01*
X97624285Y-105941904D01*
X97433809Y-105894285D01*
X97052857Y-105894285D01*
X96957619Y-105941904D01*
X96910000Y-105989523D01*
X96862380Y-106084761D01*
X96862380Y-106275238D01*
X96910000Y-106370476D01*
X96957619Y-106418095D01*
X97052857Y-106465714D01*
X97290952Y-106465714D01*
X97386190Y-106418095D01*
X97433809Y-106370476D01*
X97481428Y-106275238D01*
X97481428Y-106084761D01*
X97433809Y-105989523D01*
X97386190Y-105941904D01*
X97290952Y-105894285D01*
%TO.C,R8*%
X121992380Y-119901666D02*
X121516190Y-120235000D01*
X121992380Y-120473095D02*
X120992380Y-120473095D01*
X120992380Y-120092142D01*
X121040000Y-119996904D01*
X121087619Y-119949285D01*
X121182857Y-119901666D01*
X121325714Y-119901666D01*
X121420952Y-119949285D01*
X121468571Y-119996904D01*
X121516190Y-120092142D01*
X121516190Y-120473095D01*
X121420952Y-119330238D02*
X121373333Y-119425476D01*
X121325714Y-119473095D01*
X121230476Y-119520714D01*
X121182857Y-119520714D01*
X121087619Y-119473095D01*
X121040000Y-119425476D01*
X120992380Y-119330238D01*
X120992380Y-119139761D01*
X121040000Y-119044523D01*
X121087619Y-118996904D01*
X121182857Y-118949285D01*
X121230476Y-118949285D01*
X121325714Y-118996904D01*
X121373333Y-119044523D01*
X121420952Y-119139761D01*
X121420952Y-119330238D01*
X121468571Y-119425476D01*
X121516190Y-119473095D01*
X121611428Y-119520714D01*
X121801904Y-119520714D01*
X121897142Y-119473095D01*
X121944761Y-119425476D01*
X121992380Y-119330238D01*
X121992380Y-119139761D01*
X121944761Y-119044523D01*
X121897142Y-118996904D01*
X121801904Y-118949285D01*
X121611428Y-118949285D01*
X121516190Y-118996904D01*
X121468571Y-119044523D01*
X121420952Y-119139761D01*
%TO.C,R7*%
X118182380Y-119901666D02*
X117706190Y-120235000D01*
X118182380Y-120473095D02*
X117182380Y-120473095D01*
X117182380Y-120092142D01*
X117230000Y-119996904D01*
X117277619Y-119949285D01*
X117372857Y-119901666D01*
X117515714Y-119901666D01*
X117610952Y-119949285D01*
X117658571Y-119996904D01*
X117706190Y-120092142D01*
X117706190Y-120473095D01*
X117182380Y-119568333D02*
X117182380Y-118901666D01*
X118182380Y-119330238D01*
%TO.C,R6*%
X125802380Y-119901666D02*
X125326190Y-120235000D01*
X125802380Y-120473095D02*
X124802380Y-120473095D01*
X124802380Y-120092142D01*
X124850000Y-119996904D01*
X124897619Y-119949285D01*
X124992857Y-119901666D01*
X125135714Y-119901666D01*
X125230952Y-119949285D01*
X125278571Y-119996904D01*
X125326190Y-120092142D01*
X125326190Y-120473095D01*
X124802380Y-119044523D02*
X124802380Y-119235000D01*
X124850000Y-119330238D01*
X124897619Y-119377857D01*
X125040476Y-119473095D01*
X125230952Y-119520714D01*
X125611904Y-119520714D01*
X125707142Y-119473095D01*
X125754761Y-119425476D01*
X125802380Y-119330238D01*
X125802380Y-119139761D01*
X125754761Y-119044523D01*
X125707142Y-118996904D01*
X125611904Y-118949285D01*
X125373809Y-118949285D01*
X125278571Y-118996904D01*
X125230952Y-119044523D01*
X125183333Y-119139761D01*
X125183333Y-119330238D01*
X125230952Y-119425476D01*
X125278571Y-119473095D01*
X125373809Y-119520714D01*
%TO.C,R5*%
X129612380Y-119901666D02*
X129136190Y-120235000D01*
X129612380Y-120473095D02*
X128612380Y-120473095D01*
X128612380Y-120092142D01*
X128660000Y-119996904D01*
X128707619Y-119949285D01*
X128802857Y-119901666D01*
X128945714Y-119901666D01*
X129040952Y-119949285D01*
X129088571Y-119996904D01*
X129136190Y-120092142D01*
X129136190Y-120473095D01*
X128612380Y-118996904D02*
X128612380Y-119473095D01*
X129088571Y-119520714D01*
X129040952Y-119473095D01*
X128993333Y-119377857D01*
X128993333Y-119139761D01*
X129040952Y-119044523D01*
X129088571Y-118996904D01*
X129183809Y-118949285D01*
X129421904Y-118949285D01*
X129517142Y-118996904D01*
X129564761Y-119044523D01*
X129612380Y-119139761D01*
X129612380Y-119377857D01*
X129564761Y-119473095D01*
X129517142Y-119520714D01*
%TO.C,R3*%
X127707380Y-92596666D02*
X127231190Y-92930000D01*
X127707380Y-93168095D02*
X126707380Y-93168095D01*
X126707380Y-92787142D01*
X126755000Y-92691904D01*
X126802619Y-92644285D01*
X126897857Y-92596666D01*
X127040714Y-92596666D01*
X127135952Y-92644285D01*
X127183571Y-92691904D01*
X127231190Y-92787142D01*
X127231190Y-93168095D01*
X126707380Y-92263333D02*
X126707380Y-91644285D01*
X127088333Y-91977619D01*
X127088333Y-91834761D01*
X127135952Y-91739523D01*
X127183571Y-91691904D01*
X127278809Y-91644285D01*
X127516904Y-91644285D01*
X127612142Y-91691904D01*
X127659761Y-91739523D01*
X127707380Y-91834761D01*
X127707380Y-92120476D01*
X127659761Y-92215714D01*
X127612142Y-92263333D01*
%TO.C,R2*%
X131517380Y-92596666D02*
X131041190Y-92930000D01*
X131517380Y-93168095D02*
X130517380Y-93168095D01*
X130517380Y-92787142D01*
X130565000Y-92691904D01*
X130612619Y-92644285D01*
X130707857Y-92596666D01*
X130850714Y-92596666D01*
X130945952Y-92644285D01*
X130993571Y-92691904D01*
X131041190Y-92787142D01*
X131041190Y-93168095D01*
X130612619Y-92215714D02*
X130565000Y-92168095D01*
X130517380Y-92072857D01*
X130517380Y-91834761D01*
X130565000Y-91739523D01*
X130612619Y-91691904D01*
X130707857Y-91644285D01*
X130803095Y-91644285D01*
X130945952Y-91691904D01*
X131517380Y-92263333D01*
X131517380Y-91644285D01*
%TO.C,R1*%
X135327380Y-92596666D02*
X134851190Y-92930000D01*
X135327380Y-93168095D02*
X134327380Y-93168095D01*
X134327380Y-92787142D01*
X134375000Y-92691904D01*
X134422619Y-92644285D01*
X134517857Y-92596666D01*
X134660714Y-92596666D01*
X134755952Y-92644285D01*
X134803571Y-92691904D01*
X134851190Y-92787142D01*
X134851190Y-93168095D01*
X135327380Y-91644285D02*
X135327380Y-92215714D01*
X135327380Y-91930000D02*
X134327380Y-91930000D01*
X134470238Y-92025238D01*
X134565476Y-92120476D01*
X134613095Y-92215714D01*
%TO.C,R14*%
X137612380Y-41005357D02*
X137136190Y-41338690D01*
X137612380Y-41576785D02*
X136612380Y-41576785D01*
X136612380Y-41195833D01*
X136660000Y-41100595D01*
X136707619Y-41052976D01*
X136802857Y-41005357D01*
X136945714Y-41005357D01*
X137040952Y-41052976D01*
X137088571Y-41100595D01*
X137136190Y-41195833D01*
X137136190Y-41576785D01*
X137612380Y-40052976D02*
X137612380Y-40624404D01*
X137612380Y-40338690D02*
X136612380Y-40338690D01*
X136755238Y-40433928D01*
X136850476Y-40529166D01*
X136898095Y-40624404D01*
X136945714Y-39195833D02*
X137612380Y-39195833D01*
X136564761Y-39433928D02*
X137279047Y-39672023D01*
X137279047Y-39052976D01*
%TO.C,R13*%
X118815380Y-45362857D02*
X118339190Y-45696190D01*
X118815380Y-45934285D02*
X117815380Y-45934285D01*
X117815380Y-45553333D01*
X117863000Y-45458095D01*
X117910619Y-45410476D01*
X118005857Y-45362857D01*
X118148714Y-45362857D01*
X118243952Y-45410476D01*
X118291571Y-45458095D01*
X118339190Y-45553333D01*
X118339190Y-45934285D01*
X118815380Y-44410476D02*
X118815380Y-44981904D01*
X118815380Y-44696190D02*
X117815380Y-44696190D01*
X117958238Y-44791428D01*
X118053476Y-44886666D01*
X118101095Y-44981904D01*
X117815380Y-44077142D02*
X117815380Y-43458095D01*
X118196333Y-43791428D01*
X118196333Y-43648571D01*
X118243952Y-43553333D01*
X118291571Y-43505714D01*
X118386809Y-43458095D01*
X118624904Y-43458095D01*
X118720142Y-43505714D01*
X118767761Y-43553333D01*
X118815380Y-43648571D01*
X118815380Y-43934285D01*
X118767761Y-44029523D01*
X118720142Y-44077142D01*
%TO.C,R12*%
X122752380Y-45362857D02*
X122276190Y-45696190D01*
X122752380Y-45934285D02*
X121752380Y-45934285D01*
X121752380Y-45553333D01*
X121800000Y-45458095D01*
X121847619Y-45410476D01*
X121942857Y-45362857D01*
X122085714Y-45362857D01*
X122180952Y-45410476D01*
X122228571Y-45458095D01*
X122276190Y-45553333D01*
X122276190Y-45934285D01*
X122752380Y-44410476D02*
X122752380Y-44981904D01*
X122752380Y-44696190D02*
X121752380Y-44696190D01*
X121895238Y-44791428D01*
X121990476Y-44886666D01*
X122038095Y-44981904D01*
X121847619Y-44029523D02*
X121800000Y-43981904D01*
X121752380Y-43886666D01*
X121752380Y-43648571D01*
X121800000Y-43553333D01*
X121847619Y-43505714D01*
X121942857Y-43458095D01*
X122038095Y-43458095D01*
X122180952Y-43505714D01*
X122752380Y-44077142D01*
X122752380Y-43458095D01*
%TO.C,R15*%
X122521142Y-75932380D02*
X122187809Y-75456190D01*
X121949714Y-75932380D02*
X121949714Y-74932380D01*
X122330666Y-74932380D01*
X122425904Y-74980000D01*
X122473523Y-75027619D01*
X122521142Y-75122857D01*
X122521142Y-75265714D01*
X122473523Y-75360952D01*
X122425904Y-75408571D01*
X122330666Y-75456190D01*
X121949714Y-75456190D01*
X123473523Y-75932380D02*
X122902095Y-75932380D01*
X123187809Y-75932380D02*
X123187809Y-74932380D01*
X123092571Y-75075238D01*
X122997333Y-75170476D01*
X122902095Y-75218095D01*
X124378285Y-74932380D02*
X123902095Y-74932380D01*
X123854476Y-75408571D01*
X123902095Y-75360952D01*
X123997333Y-75313333D01*
X124235428Y-75313333D01*
X124330666Y-75360952D01*
X124378285Y-75408571D01*
X124425904Y-75503809D01*
X124425904Y-75741904D01*
X124378285Y-75837142D01*
X124330666Y-75884761D01*
X124235428Y-75932380D01*
X123997333Y-75932380D01*
X123902095Y-75884761D01*
X123854476Y-75837142D01*
%TO.C,U2*%
X127508095Y-36717380D02*
X127508095Y-37526904D01*
X127555714Y-37622142D01*
X127603333Y-37669761D01*
X127698571Y-37717380D01*
X127889047Y-37717380D01*
X127984285Y-37669761D01*
X128031904Y-37622142D01*
X128079523Y-37526904D01*
X128079523Y-36717380D01*
X128508095Y-36812619D02*
X128555714Y-36765000D01*
X128650952Y-36717380D01*
X128889047Y-36717380D01*
X128984285Y-36765000D01*
X129031904Y-36812619D01*
X129079523Y-36907857D01*
X129079523Y-37003095D01*
X129031904Y-37145952D01*
X128460476Y-37717380D01*
X129079523Y-37717380D01*
X125008095Y-47277380D02*
X125674761Y-47277380D01*
X125246190Y-48277380D01*
X126484285Y-47610714D02*
X126484285Y-48277380D01*
X126246190Y-47229761D02*
X126008095Y-47944047D01*
X126627142Y-47944047D01*
X127008095Y-48277380D02*
X127008095Y-47277380D01*
X127008095Y-47753571D02*
X127579523Y-47753571D01*
X127579523Y-48277380D02*
X127579523Y-47277380D01*
X128627142Y-48182142D02*
X128579523Y-48229761D01*
X128436666Y-48277380D01*
X128341428Y-48277380D01*
X128198571Y-48229761D01*
X128103333Y-48134523D01*
X128055714Y-48039285D01*
X128008095Y-47848809D01*
X128008095Y-47705952D01*
X128055714Y-47515476D01*
X128103333Y-47420238D01*
X128198571Y-47325000D01*
X128341428Y-47277380D01*
X128436666Y-47277380D01*
X128579523Y-47325000D01*
X128627142Y-47372619D01*
X129579523Y-48277380D02*
X129008095Y-48277380D01*
X129293809Y-48277380D02*
X129293809Y-47277380D01*
X129198571Y-47420238D01*
X129103333Y-47515476D01*
X129008095Y-47563095D01*
X129912857Y-47277380D02*
X130531904Y-47277380D01*
X130198571Y-47658333D01*
X130341428Y-47658333D01*
X130436666Y-47705952D01*
X130484285Y-47753571D01*
X130531904Y-47848809D01*
X130531904Y-48086904D01*
X130484285Y-48182142D01*
X130436666Y-48229761D01*
X130341428Y-48277380D01*
X130055714Y-48277380D01*
X129960476Y-48229761D01*
X129912857Y-48182142D01*
X130912857Y-47372619D02*
X130960476Y-47325000D01*
X131055714Y-47277380D01*
X131293809Y-47277380D01*
X131389047Y-47325000D01*
X131436666Y-47372619D01*
X131484285Y-47467857D01*
X131484285Y-47563095D01*
X131436666Y-47705952D01*
X130865238Y-48277380D01*
X131484285Y-48277380D01*
%TO.C,C5*%
X137419142Y-45312666D02*
X137466761Y-45360285D01*
X137514380Y-45503142D01*
X137514380Y-45598380D01*
X137466761Y-45741238D01*
X137371523Y-45836476D01*
X137276285Y-45884095D01*
X137085809Y-45931714D01*
X136942952Y-45931714D01*
X136752476Y-45884095D01*
X136657238Y-45836476D01*
X136562000Y-45741238D01*
X136514380Y-45598380D01*
X136514380Y-45503142D01*
X136562000Y-45360285D01*
X136609619Y-45312666D01*
X136514380Y-44407904D02*
X136514380Y-44884095D01*
X136990571Y-44931714D01*
X136942952Y-44884095D01*
X136895333Y-44788857D01*
X136895333Y-44550761D01*
X136942952Y-44455523D01*
X136990571Y-44407904D01*
X137085809Y-44360285D01*
X137323904Y-44360285D01*
X137419142Y-44407904D01*
X137466761Y-44455523D01*
X137514380Y-44550761D01*
X137514380Y-44788857D01*
X137466761Y-44884095D01*
X137419142Y-44931714D01*
%TO.C,C4*%
X118750142Y-40491666D02*
X118797761Y-40539285D01*
X118845380Y-40682142D01*
X118845380Y-40777380D01*
X118797761Y-40920238D01*
X118702523Y-41015476D01*
X118607285Y-41063095D01*
X118416809Y-41110714D01*
X118273952Y-41110714D01*
X118083476Y-41063095D01*
X117988238Y-41015476D01*
X117893000Y-40920238D01*
X117845380Y-40777380D01*
X117845380Y-40682142D01*
X117893000Y-40539285D01*
X117940619Y-40491666D01*
X118178714Y-39634523D02*
X118845380Y-39634523D01*
X117797761Y-39872619D02*
X118512047Y-40110714D01*
X118512047Y-39491666D01*
%TO.C,C3*%
X122687142Y-40491666D02*
X122734761Y-40539285D01*
X122782380Y-40682142D01*
X122782380Y-40777380D01*
X122734761Y-40920238D01*
X122639523Y-41015476D01*
X122544285Y-41063095D01*
X122353809Y-41110714D01*
X122210952Y-41110714D01*
X122020476Y-41063095D01*
X121925238Y-41015476D01*
X121830000Y-40920238D01*
X121782380Y-40777380D01*
X121782380Y-40682142D01*
X121830000Y-40539285D01*
X121877619Y-40491666D01*
X121782380Y-40158333D02*
X121782380Y-39539285D01*
X122163333Y-39872619D01*
X122163333Y-39729761D01*
X122210952Y-39634523D01*
X122258571Y-39586904D01*
X122353809Y-39539285D01*
X122591904Y-39539285D01*
X122687142Y-39586904D01*
X122734761Y-39634523D01*
X122782380Y-39729761D01*
X122782380Y-40015476D01*
X122734761Y-40110714D01*
X122687142Y-40158333D01*
%TO.C,C1*%
X118258333Y-75697142D02*
X118210714Y-75744761D01*
X118067857Y-75792380D01*
X117972619Y-75792380D01*
X117829761Y-75744761D01*
X117734523Y-75649523D01*
X117686904Y-75554285D01*
X117639285Y-75363809D01*
X117639285Y-75220952D01*
X117686904Y-75030476D01*
X117734523Y-74935238D01*
X117829761Y-74840000D01*
X117972619Y-74792380D01*
X118067857Y-74792380D01*
X118210714Y-74840000D01*
X118258333Y-74887619D01*
X119210714Y-75792380D02*
X118639285Y-75792380D01*
X118925000Y-75792380D02*
X118925000Y-74792380D01*
X118829761Y-74935238D01*
X118734523Y-75030476D01*
X118639285Y-75078095D01*
%TO.C,YMF288*%
X136501190Y-84978571D02*
X136977380Y-84978571D01*
X135977380Y-85311904D02*
X136501190Y-84978571D01*
X135977380Y-84645238D01*
X136977380Y-84311904D02*
X135977380Y-84311904D01*
X136691666Y-83978571D01*
X135977380Y-83645238D01*
X136977380Y-83645238D01*
X136453571Y-82835714D02*
X136453571Y-83169047D01*
X136977380Y-83169047D02*
X135977380Y-83169047D01*
X135977380Y-82692857D01*
X136072619Y-82359523D02*
X136025000Y-82311904D01*
X135977380Y-82216666D01*
X135977380Y-81978571D01*
X136025000Y-81883333D01*
X136072619Y-81835714D01*
X136167857Y-81788095D01*
X136263095Y-81788095D01*
X136405952Y-81835714D01*
X136977380Y-82407142D01*
X136977380Y-81788095D01*
X136405952Y-81216666D02*
X136358333Y-81311904D01*
X136310714Y-81359523D01*
X136215476Y-81407142D01*
X136167857Y-81407142D01*
X136072619Y-81359523D01*
X136025000Y-81311904D01*
X135977380Y-81216666D01*
X135977380Y-81026190D01*
X136025000Y-80930952D01*
X136072619Y-80883333D01*
X136167857Y-80835714D01*
X136215476Y-80835714D01*
X136310714Y-80883333D01*
X136358333Y-80930952D01*
X136405952Y-81026190D01*
X136405952Y-81216666D01*
X136453571Y-81311904D01*
X136501190Y-81359523D01*
X136596428Y-81407142D01*
X136786904Y-81407142D01*
X136882142Y-81359523D01*
X136929761Y-81311904D01*
X136977380Y-81216666D01*
X136977380Y-81026190D01*
X136929761Y-80930952D01*
X136882142Y-80883333D01*
X136786904Y-80835714D01*
X136596428Y-80835714D01*
X136501190Y-80883333D01*
X136453571Y-80930952D01*
X136405952Y-81026190D01*
X136405952Y-80264285D02*
X136358333Y-80359523D01*
X136310714Y-80407142D01*
X136215476Y-80454761D01*
X136167857Y-80454761D01*
X136072619Y-80407142D01*
X136025000Y-80359523D01*
X135977380Y-80264285D01*
X135977380Y-80073809D01*
X136025000Y-79978571D01*
X136072619Y-79930952D01*
X136167857Y-79883333D01*
X136215476Y-79883333D01*
X136310714Y-79930952D01*
X136358333Y-79978571D01*
X136405952Y-80073809D01*
X136405952Y-80264285D01*
X136453571Y-80359523D01*
X136501190Y-80407142D01*
X136596428Y-80454761D01*
X136786904Y-80454761D01*
X136882142Y-80407142D01*
X136929761Y-80359523D01*
X136977380Y-80264285D01*
X136977380Y-80073809D01*
X136929761Y-79978571D01*
X136882142Y-79930952D01*
X136786904Y-79883333D01*
X136596428Y-79883333D01*
X136501190Y-79930952D01*
X136453571Y-79978571D01*
X136405952Y-80073809D01*
%TO.C,BU9480F1*%
X129878571Y-103340404D02*
X129926190Y-103197547D01*
X129973809Y-103149928D01*
X130069047Y-103102309D01*
X130211904Y-103102309D01*
X130307142Y-103149928D01*
X130354761Y-103197547D01*
X130402380Y-103292785D01*
X130402380Y-103673738D01*
X129402380Y-103673738D01*
X129402380Y-103340404D01*
X129450000Y-103245166D01*
X129497619Y-103197547D01*
X129592857Y-103149928D01*
X129688095Y-103149928D01*
X129783333Y-103197547D01*
X129830952Y-103245166D01*
X129878571Y-103340404D01*
X129878571Y-103673738D01*
X129402380Y-102673738D02*
X130211904Y-102673738D01*
X130307142Y-102626119D01*
X130354761Y-102578500D01*
X130402380Y-102483261D01*
X130402380Y-102292785D01*
X130354761Y-102197547D01*
X130307142Y-102149928D01*
X130211904Y-102102309D01*
X129402380Y-102102309D01*
X130402380Y-101578500D02*
X130402380Y-101388023D01*
X130354761Y-101292785D01*
X130307142Y-101245166D01*
X130164285Y-101149928D01*
X129973809Y-101102309D01*
X129592857Y-101102309D01*
X129497619Y-101149928D01*
X129450000Y-101197547D01*
X129402380Y-101292785D01*
X129402380Y-101483261D01*
X129450000Y-101578500D01*
X129497619Y-101626119D01*
X129592857Y-101673738D01*
X129830952Y-101673738D01*
X129926190Y-101626119D01*
X129973809Y-101578500D01*
X130021428Y-101483261D01*
X130021428Y-101292785D01*
X129973809Y-101197547D01*
X129926190Y-101149928D01*
X129830952Y-101102309D01*
X129735714Y-100245166D02*
X130402380Y-100245166D01*
X129354761Y-100483261D02*
X130069047Y-100721357D01*
X130069047Y-100102309D01*
X129830952Y-99578500D02*
X129783333Y-99673738D01*
X129735714Y-99721357D01*
X129640476Y-99768976D01*
X129592857Y-99768976D01*
X129497619Y-99721357D01*
X129450000Y-99673738D01*
X129402380Y-99578500D01*
X129402380Y-99388023D01*
X129450000Y-99292785D01*
X129497619Y-99245166D01*
X129592857Y-99197547D01*
X129640476Y-99197547D01*
X129735714Y-99245166D01*
X129783333Y-99292785D01*
X129830952Y-99388023D01*
X129830952Y-99578500D01*
X129878571Y-99673738D01*
X129926190Y-99721357D01*
X130021428Y-99768976D01*
X130211904Y-99768976D01*
X130307142Y-99721357D01*
X130354761Y-99673738D01*
X130402380Y-99578500D01*
X130402380Y-99388023D01*
X130354761Y-99292785D01*
X130307142Y-99245166D01*
X130211904Y-99197547D01*
X130021428Y-99197547D01*
X129926190Y-99245166D01*
X129878571Y-99292785D01*
X129830952Y-99388023D01*
X129402380Y-98578500D02*
X129402380Y-98483261D01*
X129450000Y-98388023D01*
X129497619Y-98340404D01*
X129592857Y-98292785D01*
X129783333Y-98245166D01*
X130021428Y-98245166D01*
X130211904Y-98292785D01*
X130307142Y-98340404D01*
X130354761Y-98388023D01*
X130402380Y-98483261D01*
X130402380Y-98578500D01*
X130354761Y-98673738D01*
X130307142Y-98721357D01*
X130211904Y-98768976D01*
X130021428Y-98816595D01*
X129783333Y-98816595D01*
X129592857Y-98768976D01*
X129497619Y-98721357D01*
X129450000Y-98673738D01*
X129402380Y-98578500D01*
X129878571Y-97483261D02*
X129878571Y-97816595D01*
X130402380Y-97816595D02*
X129402380Y-97816595D01*
X129402380Y-97340404D01*
X130402380Y-96435642D02*
X130402380Y-97007071D01*
X130402380Y-96721357D02*
X129402380Y-96721357D01*
X129545238Y-96816595D01*
X129640476Y-96911833D01*
X129688095Y-97007071D01*
%TO.C,J5*%
X97307380Y-119015333D02*
X98021666Y-119015333D01*
X98164523Y-119062952D01*
X98259761Y-119158190D01*
X98307380Y-119301047D01*
X98307380Y-119396285D01*
X97307380Y-118062952D02*
X97307380Y-118539142D01*
X97783571Y-118586761D01*
X97735952Y-118539142D01*
X97688333Y-118443904D01*
X97688333Y-118205809D01*
X97735952Y-118110571D01*
X97783571Y-118062952D01*
X97878809Y-118015333D01*
X98116904Y-118015333D01*
X98212142Y-118062952D01*
X98259761Y-118110571D01*
X98307380Y-118205809D01*
X98307380Y-118443904D01*
X98259761Y-118539142D01*
X98212142Y-118586761D01*
%TO.C,J7*%
X100289380Y-111703333D02*
X101003666Y-111703333D01*
X101146523Y-111750952D01*
X101241761Y-111846190D01*
X101289380Y-111989047D01*
X101289380Y-112084285D01*
X100289380Y-111322380D02*
X100289380Y-110655714D01*
X101289380Y-111084285D01*
%TO.C,X1*%
X125639380Y-94605523D02*
X126639380Y-93938857D01*
X125639380Y-93938857D02*
X126639380Y-94605523D01*
X126639380Y-93034095D02*
X126639380Y-93605523D01*
X126639380Y-93319809D02*
X125639380Y-93319809D01*
X125782238Y-93415047D01*
X125877476Y-93510285D01*
X125925095Y-93605523D01*
%TO.C,C13*%
X122420142Y-106402142D02*
X122372523Y-106449761D01*
X122229666Y-106497380D01*
X122134428Y-106497380D01*
X121991571Y-106449761D01*
X121896333Y-106354523D01*
X121848714Y-106259285D01*
X121801095Y-106068809D01*
X121801095Y-105925952D01*
X121848714Y-105735476D01*
X121896333Y-105640238D01*
X121991571Y-105545000D01*
X122134428Y-105497380D01*
X122229666Y-105497380D01*
X122372523Y-105545000D01*
X122420142Y-105592619D01*
X123372523Y-106497380D02*
X122801095Y-106497380D01*
X123086809Y-106497380D02*
X123086809Y-105497380D01*
X122991571Y-105640238D01*
X122896333Y-105735476D01*
X122801095Y-105783095D01*
X123705857Y-105497380D02*
X124324904Y-105497380D01*
X123991571Y-105878333D01*
X124134428Y-105878333D01*
X124229666Y-105925952D01*
X124277285Y-105973571D01*
X124324904Y-106068809D01*
X124324904Y-106306904D01*
X124277285Y-106402142D01*
X124229666Y-106449761D01*
X124134428Y-106497380D01*
X123848714Y-106497380D01*
X123753476Y-106449761D01*
X123705857Y-106402142D01*
%TO.C,C12*%
X120007142Y-98909142D02*
X119959523Y-98956761D01*
X119816666Y-99004380D01*
X119721428Y-99004380D01*
X119578571Y-98956761D01*
X119483333Y-98861523D01*
X119435714Y-98766285D01*
X119388095Y-98575809D01*
X119388095Y-98432952D01*
X119435714Y-98242476D01*
X119483333Y-98147238D01*
X119578571Y-98052000D01*
X119721428Y-98004380D01*
X119816666Y-98004380D01*
X119959523Y-98052000D01*
X120007142Y-98099619D01*
X120959523Y-99004380D02*
X120388095Y-99004380D01*
X120673809Y-99004380D02*
X120673809Y-98004380D01*
X120578571Y-98147238D01*
X120483333Y-98242476D01*
X120388095Y-98290095D01*
X121340476Y-98099619D02*
X121388095Y-98052000D01*
X121483333Y-98004380D01*
X121721428Y-98004380D01*
X121816666Y-98052000D01*
X121864285Y-98099619D01*
X121911904Y-98194857D01*
X121911904Y-98290095D01*
X121864285Y-98432952D01*
X121292857Y-99004380D01*
X121911904Y-99004380D01*
%TO.C,C11*%
X125087142Y-98909142D02*
X125039523Y-98956761D01*
X124896666Y-99004380D01*
X124801428Y-99004380D01*
X124658571Y-98956761D01*
X124563333Y-98861523D01*
X124515714Y-98766285D01*
X124468095Y-98575809D01*
X124468095Y-98432952D01*
X124515714Y-98242476D01*
X124563333Y-98147238D01*
X124658571Y-98052000D01*
X124801428Y-98004380D01*
X124896666Y-98004380D01*
X125039523Y-98052000D01*
X125087142Y-98099619D01*
X126039523Y-99004380D02*
X125468095Y-99004380D01*
X125753809Y-99004380D02*
X125753809Y-98004380D01*
X125658571Y-98147238D01*
X125563333Y-98242476D01*
X125468095Y-98290095D01*
X126991904Y-99004380D02*
X126420476Y-99004380D01*
X126706190Y-99004380D02*
X126706190Y-98004380D01*
X126610952Y-98147238D01*
X126515714Y-98242476D01*
X126420476Y-98290095D01*
%TO.C,C10*%
X132707142Y-106402142D02*
X132659523Y-106449761D01*
X132516666Y-106497380D01*
X132421428Y-106497380D01*
X132278571Y-106449761D01*
X132183333Y-106354523D01*
X132135714Y-106259285D01*
X132088095Y-106068809D01*
X132088095Y-105925952D01*
X132135714Y-105735476D01*
X132183333Y-105640238D01*
X132278571Y-105545000D01*
X132421428Y-105497380D01*
X132516666Y-105497380D01*
X132659523Y-105545000D01*
X132707142Y-105592619D01*
X133659523Y-106497380D02*
X133088095Y-106497380D01*
X133373809Y-106497380D02*
X133373809Y-105497380D01*
X133278571Y-105640238D01*
X133183333Y-105735476D01*
X133088095Y-105783095D01*
X134278571Y-105497380D02*
X134373809Y-105497380D01*
X134469047Y-105545000D01*
X134516666Y-105592619D01*
X134564285Y-105687857D01*
X134611904Y-105878333D01*
X134611904Y-106116428D01*
X134564285Y-106306904D01*
X134516666Y-106402142D01*
X134469047Y-106449761D01*
X134373809Y-106497380D01*
X134278571Y-106497380D01*
X134183333Y-106449761D01*
X134135714Y-106402142D01*
X134088095Y-106306904D01*
X134040476Y-106116428D01*
X134040476Y-105878333D01*
X134088095Y-105687857D01*
X134135714Y-105592619D01*
X134183333Y-105545000D01*
X134278571Y-105497380D01*
%TO.C,C2*%
X127976333Y-106402142D02*
X127928714Y-106449761D01*
X127785857Y-106497380D01*
X127690619Y-106497380D01*
X127547761Y-106449761D01*
X127452523Y-106354523D01*
X127404904Y-106259285D01*
X127357285Y-106068809D01*
X127357285Y-105925952D01*
X127404904Y-105735476D01*
X127452523Y-105640238D01*
X127547761Y-105545000D01*
X127690619Y-105497380D01*
X127785857Y-105497380D01*
X127928714Y-105545000D01*
X127976333Y-105592619D01*
X128357285Y-105592619D02*
X128404904Y-105545000D01*
X128500142Y-105497380D01*
X128738238Y-105497380D01*
X128833476Y-105545000D01*
X128881095Y-105592619D01*
X128928714Y-105687857D01*
X128928714Y-105783095D01*
X128881095Y-105925952D01*
X128309666Y-106497380D01*
X128928714Y-106497380D01*
%TO.C,J6*%
X110156666Y-126452380D02*
X110156666Y-127166666D01*
X110109047Y-127309523D01*
X110013809Y-127404761D01*
X109870952Y-127452380D01*
X109775714Y-127452380D01*
X111061428Y-126452380D02*
X110870952Y-126452380D01*
X110775714Y-126500000D01*
X110728095Y-126547619D01*
X110632857Y-126690476D01*
X110585238Y-126880952D01*
X110585238Y-127261904D01*
X110632857Y-127357142D01*
X110680476Y-127404761D01*
X110775714Y-127452380D01*
X110966190Y-127452380D01*
X111061428Y-127404761D01*
X111109047Y-127357142D01*
X111156666Y-127261904D01*
X111156666Y-127023809D01*
X111109047Y-126928571D01*
X111061428Y-126880952D01*
X110966190Y-126833333D01*
X110775714Y-126833333D01*
X110680476Y-126880952D01*
X110632857Y-126928571D01*
X110585238Y-127023809D01*
%TO.C,J2*%
X98726666Y-83062380D02*
X98726666Y-83776666D01*
X98679047Y-83919523D01*
X98583809Y-84014761D01*
X98440952Y-84062380D01*
X98345714Y-84062380D01*
X99155238Y-83157619D02*
X99202857Y-83110000D01*
X99298095Y-83062380D01*
X99536190Y-83062380D01*
X99631428Y-83110000D01*
X99679047Y-83157619D01*
X99726666Y-83252857D01*
X99726666Y-83348095D01*
X99679047Y-83490952D01*
X99107619Y-84062380D01*
X99726666Y-84062380D01*
X102052380Y-79826666D02*
X101052380Y-79826666D01*
X102052380Y-79255238D01*
X101052380Y-79255238D01*
X101528571Y-78779047D02*
X101528571Y-78445714D01*
X102052380Y-78302857D02*
X102052380Y-78779047D01*
X101052380Y-78779047D01*
X101052380Y-78302857D01*
X102004761Y-77921904D02*
X102052380Y-77779047D01*
X102052380Y-77540952D01*
X102004761Y-77445714D01*
X101957142Y-77398095D01*
X101861904Y-77350476D01*
X101766666Y-77350476D01*
X101671428Y-77398095D01*
X101623809Y-77445714D01*
X101576190Y-77540952D01*
X101528571Y-77731428D01*
X101480952Y-77826666D01*
X101433333Y-77874285D01*
X101338095Y-77921904D01*
X101242857Y-77921904D01*
X101147619Y-77874285D01*
X101100000Y-77826666D01*
X101052380Y-77731428D01*
X101052380Y-77493333D01*
X101100000Y-77350476D01*
X101671428Y-76921904D02*
X101671428Y-76160000D01*
X102004761Y-75731428D02*
X102052380Y-75588571D01*
X102052380Y-75350476D01*
X102004761Y-75255238D01*
X101957142Y-75207619D01*
X101861904Y-75160000D01*
X101766666Y-75160000D01*
X101671428Y-75207619D01*
X101623809Y-75255238D01*
X101576190Y-75350476D01*
X101528571Y-75540952D01*
X101480952Y-75636190D01*
X101433333Y-75683809D01*
X101338095Y-75731428D01*
X101242857Y-75731428D01*
X101147619Y-75683809D01*
X101100000Y-75636190D01*
X101052380Y-75540952D01*
X101052380Y-75302857D01*
X101100000Y-75160000D01*
X102052380Y-74731428D02*
X101052380Y-74731428D01*
X102052380Y-74160000D01*
X101052380Y-74160000D01*
X101528571Y-73683809D02*
X101528571Y-73350476D01*
X102052380Y-73207619D02*
X102052380Y-73683809D01*
X101052380Y-73683809D01*
X101052380Y-73207619D01*
X102004761Y-72826666D02*
X102052380Y-72683809D01*
X102052380Y-72445714D01*
X102004761Y-72350476D01*
X101957142Y-72302857D01*
X101861904Y-72255238D01*
X101766666Y-72255238D01*
X101671428Y-72302857D01*
X101623809Y-72350476D01*
X101576190Y-72445714D01*
X101528571Y-72636190D01*
X101480952Y-72731428D01*
X101433333Y-72779047D01*
X101338095Y-72826666D01*
X101242857Y-72826666D01*
X101147619Y-72779047D01*
X101100000Y-72731428D01*
X101052380Y-72636190D01*
X101052380Y-72398095D01*
X101100000Y-72255238D01*
X102052380Y-71064761D02*
X101052380Y-71064761D01*
X101052380Y-70683809D01*
X101100000Y-70588571D01*
X101147619Y-70540952D01*
X101242857Y-70493333D01*
X101385714Y-70493333D01*
X101480952Y-70540952D01*
X101528571Y-70588571D01*
X101576190Y-70683809D01*
X101576190Y-71064761D01*
X102052380Y-69921904D02*
X102004761Y-70017142D01*
X101957142Y-70064761D01*
X101861904Y-70112380D01*
X101576190Y-70112380D01*
X101480952Y-70064761D01*
X101433333Y-70017142D01*
X101385714Y-69921904D01*
X101385714Y-69779047D01*
X101433333Y-69683809D01*
X101480952Y-69636190D01*
X101576190Y-69588571D01*
X101861904Y-69588571D01*
X101957142Y-69636190D01*
X102004761Y-69683809D01*
X102052380Y-69779047D01*
X102052380Y-69921904D01*
X102052380Y-69160000D02*
X101385714Y-69160000D01*
X101576190Y-69160000D02*
X101480952Y-69112380D01*
X101433333Y-69064761D01*
X101385714Y-68969523D01*
X101385714Y-68874285D01*
X101385714Y-68683809D02*
X101385714Y-68302857D01*
X101052380Y-68540952D02*
X101909523Y-68540952D01*
X102004761Y-68493333D01*
X102052380Y-68398095D01*
X102052380Y-68302857D01*
X101147619Y-68017142D02*
X101100000Y-67969523D01*
X101052380Y-67874285D01*
X101052380Y-67636190D01*
X101100000Y-67540952D01*
X101147619Y-67493333D01*
X101242857Y-67445714D01*
X101338095Y-67445714D01*
X101480952Y-67493333D01*
X102052380Y-68064761D01*
X102052380Y-67445714D01*
%TO.C,J1*%
X98726666Y-83482380D02*
X98726666Y-84196666D01*
X98679047Y-84339523D01*
X98583809Y-84434761D01*
X98440952Y-84482380D01*
X98345714Y-84482380D01*
X99726666Y-84482380D02*
X99155238Y-84482380D01*
X99440952Y-84482380D02*
X99440952Y-83482380D01*
X99345714Y-83625238D01*
X99250476Y-83720476D01*
X99155238Y-83768095D01*
X102052380Y-100146666D02*
X101052380Y-100146666D01*
X102052380Y-99575238D01*
X101052380Y-99575238D01*
X101528571Y-99099047D02*
X101528571Y-98765714D01*
X102052380Y-98622857D02*
X102052380Y-99099047D01*
X101052380Y-99099047D01*
X101052380Y-98622857D01*
X102004761Y-98241904D02*
X102052380Y-98099047D01*
X102052380Y-97860952D01*
X102004761Y-97765714D01*
X101957142Y-97718095D01*
X101861904Y-97670476D01*
X101766666Y-97670476D01*
X101671428Y-97718095D01*
X101623809Y-97765714D01*
X101576190Y-97860952D01*
X101528571Y-98051428D01*
X101480952Y-98146666D01*
X101433333Y-98194285D01*
X101338095Y-98241904D01*
X101242857Y-98241904D01*
X101147619Y-98194285D01*
X101100000Y-98146666D01*
X101052380Y-98051428D01*
X101052380Y-97813333D01*
X101100000Y-97670476D01*
X101671428Y-97241904D02*
X101671428Y-96480000D01*
X102004761Y-96051428D02*
X102052380Y-95908571D01*
X102052380Y-95670476D01*
X102004761Y-95575238D01*
X101957142Y-95527619D01*
X101861904Y-95480000D01*
X101766666Y-95480000D01*
X101671428Y-95527619D01*
X101623809Y-95575238D01*
X101576190Y-95670476D01*
X101528571Y-95860952D01*
X101480952Y-95956190D01*
X101433333Y-96003809D01*
X101338095Y-96051428D01*
X101242857Y-96051428D01*
X101147619Y-96003809D01*
X101100000Y-95956190D01*
X101052380Y-95860952D01*
X101052380Y-95622857D01*
X101100000Y-95480000D01*
X102052380Y-95051428D02*
X101052380Y-95051428D01*
X102052380Y-94480000D01*
X101052380Y-94480000D01*
X101528571Y-94003809D02*
X101528571Y-93670476D01*
X102052380Y-93527619D02*
X102052380Y-94003809D01*
X101052380Y-94003809D01*
X101052380Y-93527619D01*
X102004761Y-93146666D02*
X102052380Y-93003809D01*
X102052380Y-92765714D01*
X102004761Y-92670476D01*
X101957142Y-92622857D01*
X101861904Y-92575238D01*
X101766666Y-92575238D01*
X101671428Y-92622857D01*
X101623809Y-92670476D01*
X101576190Y-92765714D01*
X101528571Y-92956190D01*
X101480952Y-93051428D01*
X101433333Y-93099047D01*
X101338095Y-93146666D01*
X101242857Y-93146666D01*
X101147619Y-93099047D01*
X101100000Y-93051428D01*
X101052380Y-92956190D01*
X101052380Y-92718095D01*
X101100000Y-92575238D01*
X102052380Y-91384761D02*
X101052380Y-91384761D01*
X101052380Y-91003809D01*
X101100000Y-90908571D01*
X101147619Y-90860952D01*
X101242857Y-90813333D01*
X101385714Y-90813333D01*
X101480952Y-90860952D01*
X101528571Y-90908571D01*
X101576190Y-91003809D01*
X101576190Y-91384761D01*
X102052380Y-90241904D02*
X102004761Y-90337142D01*
X101957142Y-90384761D01*
X101861904Y-90432380D01*
X101576190Y-90432380D01*
X101480952Y-90384761D01*
X101433333Y-90337142D01*
X101385714Y-90241904D01*
X101385714Y-90099047D01*
X101433333Y-90003809D01*
X101480952Y-89956190D01*
X101576190Y-89908571D01*
X101861904Y-89908571D01*
X101957142Y-89956190D01*
X102004761Y-90003809D01*
X102052380Y-90099047D01*
X102052380Y-90241904D01*
X102052380Y-89480000D02*
X101385714Y-89480000D01*
X101576190Y-89480000D02*
X101480952Y-89432380D01*
X101433333Y-89384761D01*
X101385714Y-89289523D01*
X101385714Y-89194285D01*
X101385714Y-89003809D02*
X101385714Y-88622857D01*
X101052380Y-88860952D02*
X101909523Y-88860952D01*
X102004761Y-88813333D01*
X102052380Y-88718095D01*
X102052380Y-88622857D01*
X102052380Y-87765714D02*
X102052380Y-88337142D01*
X102052380Y-88051428D02*
X101052380Y-88051428D01*
X101195238Y-88146666D01*
X101290476Y-88241904D01*
X101338095Y-88337142D01*
%TO.C,U1*%
X98962380Y-42671904D02*
X99771904Y-42671904D01*
X99867142Y-42624285D01*
X99914761Y-42576666D01*
X99962380Y-42481428D01*
X99962380Y-42290952D01*
X99914761Y-42195714D01*
X99867142Y-42148095D01*
X99771904Y-42100476D01*
X98962380Y-42100476D01*
X99962380Y-41100476D02*
X99962380Y-41671904D01*
X99962380Y-41386190D02*
X98962380Y-41386190D01*
X99105238Y-41481428D01*
X99200476Y-41576666D01*
X99248095Y-41671904D01*
X110762380Y-45171904D02*
X110762380Y-44505238D01*
X111762380Y-44933809D01*
X111095714Y-43695714D02*
X111762380Y-43695714D01*
X110714761Y-43933809D02*
X111429047Y-44171904D01*
X111429047Y-43552857D01*
X111762380Y-43171904D02*
X110762380Y-43171904D01*
X111238571Y-43171904D02*
X111238571Y-42600476D01*
X111762380Y-42600476D02*
X110762380Y-42600476D01*
X111667142Y-41552857D02*
X111714761Y-41600476D01*
X111762380Y-41743333D01*
X111762380Y-41838571D01*
X111714761Y-41981428D01*
X111619523Y-42076666D01*
X111524285Y-42124285D01*
X111333809Y-42171904D01*
X111190952Y-42171904D01*
X111000476Y-42124285D01*
X110905238Y-42076666D01*
X110810000Y-41981428D01*
X110762380Y-41838571D01*
X110762380Y-41743333D01*
X110810000Y-41600476D01*
X110857619Y-41552857D01*
X111762380Y-40600476D02*
X111762380Y-41171904D01*
X111762380Y-40886190D02*
X110762380Y-40886190D01*
X110905238Y-40981428D01*
X111000476Y-41076666D01*
X111048095Y-41171904D01*
X110762380Y-40267142D02*
X110762380Y-39648095D01*
X111143333Y-39981428D01*
X111143333Y-39838571D01*
X111190952Y-39743333D01*
X111238571Y-39695714D01*
X111333809Y-39648095D01*
X111571904Y-39648095D01*
X111667142Y-39695714D01*
X111714761Y-39743333D01*
X111762380Y-39838571D01*
X111762380Y-40124285D01*
X111714761Y-40219523D01*
X111667142Y-40267142D01*
X111762380Y-39171904D02*
X111762380Y-38981428D01*
X111714761Y-38886190D01*
X111667142Y-38838571D01*
X111524285Y-38743333D01*
X111333809Y-38695714D01*
X110952857Y-38695714D01*
X110857619Y-38743333D01*
X110810000Y-38790952D01*
X110762380Y-38886190D01*
X110762380Y-39076666D01*
X110810000Y-39171904D01*
X110857619Y-39219523D01*
X110952857Y-39267142D01*
X111190952Y-39267142D01*
X111286190Y-39219523D01*
X111333809Y-39171904D01*
X111381428Y-39076666D01*
X111381428Y-38886190D01*
X111333809Y-38790952D01*
X111286190Y-38743333D01*
X111190952Y-38695714D01*
%TO.C,U10*%
X99091904Y-50702380D02*
X99091904Y-51511904D01*
X99139523Y-51607142D01*
X99187142Y-51654761D01*
X99282380Y-51702380D01*
X99472857Y-51702380D01*
X99568095Y-51654761D01*
X99615714Y-51607142D01*
X99663333Y-51511904D01*
X99663333Y-50702380D01*
X100663333Y-51702380D02*
X100091904Y-51702380D01*
X100377619Y-51702380D02*
X100377619Y-50702380D01*
X100282380Y-50845238D01*
X100187142Y-50940476D01*
X100091904Y-50988095D01*
X101282380Y-50702380D02*
X101377619Y-50702380D01*
X101472857Y-50750000D01*
X101520476Y-50797619D01*
X101568095Y-50892857D01*
X101615714Y-51083333D01*
X101615714Y-51321428D01*
X101568095Y-51511904D01*
X101520476Y-51607142D01*
X101472857Y-51654761D01*
X101377619Y-51702380D01*
X101282380Y-51702380D01*
X101187142Y-51654761D01*
X101139523Y-51607142D01*
X101091904Y-51511904D01*
X101044285Y-51321428D01*
X101044285Y-51083333D01*
X101091904Y-50892857D01*
X101139523Y-50797619D01*
X101187142Y-50750000D01*
X101282380Y-50702380D01*
X97068095Y-62502380D02*
X97734761Y-62502380D01*
X97306190Y-63502380D01*
X98544285Y-62835714D02*
X98544285Y-63502380D01*
X98306190Y-62454761D02*
X98068095Y-63169047D01*
X98687142Y-63169047D01*
X99068095Y-63502380D02*
X99068095Y-62502380D01*
X99068095Y-62978571D02*
X99639523Y-62978571D01*
X99639523Y-63502380D02*
X99639523Y-62502380D01*
X100687142Y-63407142D02*
X100639523Y-63454761D01*
X100496666Y-63502380D01*
X100401428Y-63502380D01*
X100258571Y-63454761D01*
X100163333Y-63359523D01*
X100115714Y-63264285D01*
X100068095Y-63073809D01*
X100068095Y-62930952D01*
X100115714Y-62740476D01*
X100163333Y-62645238D01*
X100258571Y-62550000D01*
X100401428Y-62502380D01*
X100496666Y-62502380D01*
X100639523Y-62550000D01*
X100687142Y-62597619D01*
X101068095Y-62597619D02*
X101115714Y-62550000D01*
X101210952Y-62502380D01*
X101449047Y-62502380D01*
X101544285Y-62550000D01*
X101591904Y-62597619D01*
X101639523Y-62692857D01*
X101639523Y-62788095D01*
X101591904Y-62930952D01*
X101020476Y-63502380D01*
X101639523Y-63502380D01*
X102544285Y-62502380D02*
X102068095Y-62502380D01*
X102020476Y-62978571D01*
X102068095Y-62930952D01*
X102163333Y-62883333D01*
X102401428Y-62883333D01*
X102496666Y-62930952D01*
X102544285Y-62978571D01*
X102591904Y-63073809D01*
X102591904Y-63311904D01*
X102544285Y-63407142D01*
X102496666Y-63454761D01*
X102401428Y-63502380D01*
X102163333Y-63502380D01*
X102068095Y-63454761D01*
X102020476Y-63407142D01*
X102925238Y-62502380D02*
X103591904Y-62502380D01*
X103163333Y-63502380D01*
%TO.C,U9*%
X135977380Y-66801904D02*
X136786904Y-66801904D01*
X136882142Y-66754285D01*
X136929761Y-66706666D01*
X136977380Y-66611428D01*
X136977380Y-66420952D01*
X136929761Y-66325714D01*
X136882142Y-66278095D01*
X136786904Y-66230476D01*
X135977380Y-66230476D01*
X136977380Y-65706666D02*
X136977380Y-65516190D01*
X136929761Y-65420952D01*
X136882142Y-65373333D01*
X136739285Y-65278095D01*
X136548809Y-65230476D01*
X136167857Y-65230476D01*
X136072619Y-65278095D01*
X136025000Y-65325714D01*
X135977380Y-65420952D01*
X135977380Y-65611428D01*
X136025000Y-65706666D01*
X136072619Y-65754285D01*
X136167857Y-65801904D01*
X136405952Y-65801904D01*
X136501190Y-65754285D01*
X136548809Y-65706666D01*
X136596428Y-65611428D01*
X136596428Y-65420952D01*
X136548809Y-65325714D01*
X136501190Y-65278095D01*
X136405952Y-65230476D01*
X125632380Y-69301904D02*
X125632380Y-68635238D01*
X126632380Y-69063809D01*
X125965714Y-67825714D02*
X126632380Y-67825714D01*
X125584761Y-68063809D02*
X126299047Y-68301904D01*
X126299047Y-67682857D01*
X126632380Y-67301904D02*
X125632380Y-67301904D01*
X126108571Y-67301904D02*
X126108571Y-66730476D01*
X126632380Y-66730476D02*
X125632380Y-66730476D01*
X126537142Y-65682857D02*
X126584761Y-65730476D01*
X126632380Y-65873333D01*
X126632380Y-65968571D01*
X126584761Y-66111428D01*
X126489523Y-66206666D01*
X126394285Y-66254285D01*
X126203809Y-66301904D01*
X126060952Y-66301904D01*
X125870476Y-66254285D01*
X125775238Y-66206666D01*
X125680000Y-66111428D01*
X125632380Y-65968571D01*
X125632380Y-65873333D01*
X125680000Y-65730476D01*
X125727619Y-65682857D01*
X125727619Y-65301904D02*
X125680000Y-65254285D01*
X125632380Y-65159047D01*
X125632380Y-64920952D01*
X125680000Y-64825714D01*
X125727619Y-64778095D01*
X125822857Y-64730476D01*
X125918095Y-64730476D01*
X126060952Y-64778095D01*
X126632380Y-65349523D01*
X126632380Y-64730476D01*
X125632380Y-63825714D02*
X125632380Y-64301904D01*
X126108571Y-64349523D01*
X126060952Y-64301904D01*
X126013333Y-64206666D01*
X126013333Y-63968571D01*
X126060952Y-63873333D01*
X126108571Y-63825714D01*
X126203809Y-63778095D01*
X126441904Y-63778095D01*
X126537142Y-63825714D01*
X126584761Y-63873333D01*
X126632380Y-63968571D01*
X126632380Y-64206666D01*
X126584761Y-64301904D01*
X126537142Y-64349523D01*
X125632380Y-63444761D02*
X125632380Y-62778095D01*
X126632380Y-63206666D01*
%TO.C,U8*%
X124547380Y-66801904D02*
X125356904Y-66801904D01*
X125452142Y-66754285D01*
X125499761Y-66706666D01*
X125547380Y-66611428D01*
X125547380Y-66420952D01*
X125499761Y-66325714D01*
X125452142Y-66278095D01*
X125356904Y-66230476D01*
X124547380Y-66230476D01*
X124975952Y-65611428D02*
X124928333Y-65706666D01*
X124880714Y-65754285D01*
X124785476Y-65801904D01*
X124737857Y-65801904D01*
X124642619Y-65754285D01*
X124595000Y-65706666D01*
X124547380Y-65611428D01*
X124547380Y-65420952D01*
X124595000Y-65325714D01*
X124642619Y-65278095D01*
X124737857Y-65230476D01*
X124785476Y-65230476D01*
X124880714Y-65278095D01*
X124928333Y-65325714D01*
X124975952Y-65420952D01*
X124975952Y-65611428D01*
X125023571Y-65706666D01*
X125071190Y-65754285D01*
X125166428Y-65801904D01*
X125356904Y-65801904D01*
X125452142Y-65754285D01*
X125499761Y-65706666D01*
X125547380Y-65611428D01*
X125547380Y-65420952D01*
X125499761Y-65325714D01*
X125452142Y-65278095D01*
X125356904Y-65230476D01*
X125166428Y-65230476D01*
X125071190Y-65278095D01*
X125023571Y-65325714D01*
X124975952Y-65420952D01*
X114202380Y-69301904D02*
X114202380Y-68635238D01*
X115202380Y-69063809D01*
X114535714Y-67825714D02*
X115202380Y-67825714D01*
X114154761Y-68063809D02*
X114869047Y-68301904D01*
X114869047Y-67682857D01*
X115202380Y-67301904D02*
X114202380Y-67301904D01*
X114678571Y-67301904D02*
X114678571Y-66730476D01*
X115202380Y-66730476D02*
X114202380Y-66730476D01*
X115107142Y-65682857D02*
X115154761Y-65730476D01*
X115202380Y-65873333D01*
X115202380Y-65968571D01*
X115154761Y-66111428D01*
X115059523Y-66206666D01*
X114964285Y-66254285D01*
X114773809Y-66301904D01*
X114630952Y-66301904D01*
X114440476Y-66254285D01*
X114345238Y-66206666D01*
X114250000Y-66111428D01*
X114202380Y-65968571D01*
X114202380Y-65873333D01*
X114250000Y-65730476D01*
X114297619Y-65682857D01*
X114297619Y-65301904D02*
X114250000Y-65254285D01*
X114202380Y-65159047D01*
X114202380Y-64920952D01*
X114250000Y-64825714D01*
X114297619Y-64778095D01*
X114392857Y-64730476D01*
X114488095Y-64730476D01*
X114630952Y-64778095D01*
X115202380Y-65349523D01*
X115202380Y-64730476D01*
X114202380Y-63825714D02*
X114202380Y-64301904D01*
X114678571Y-64349523D01*
X114630952Y-64301904D01*
X114583333Y-64206666D01*
X114583333Y-63968571D01*
X114630952Y-63873333D01*
X114678571Y-63825714D01*
X114773809Y-63778095D01*
X115011904Y-63778095D01*
X115107142Y-63825714D01*
X115154761Y-63873333D01*
X115202380Y-63968571D01*
X115202380Y-64206666D01*
X115154761Y-64301904D01*
X115107142Y-64349523D01*
X114202380Y-63444761D02*
X114202380Y-62778095D01*
X115202380Y-63206666D01*
%TO.C,U7*%
X120523095Y-48162380D02*
X120523095Y-48971904D01*
X120570714Y-49067142D01*
X120618333Y-49114761D01*
X120713571Y-49162380D01*
X120904047Y-49162380D01*
X120999285Y-49114761D01*
X121046904Y-49067142D01*
X121094523Y-48971904D01*
X121094523Y-48162380D01*
X121475476Y-48162380D02*
X122142142Y-48162380D01*
X121713571Y-49162380D01*
X117642142Y-59962380D02*
X118308809Y-59962380D01*
X117880238Y-60962380D01*
X119118333Y-60295714D02*
X119118333Y-60962380D01*
X118880238Y-59914761D02*
X118642142Y-60629047D01*
X119261190Y-60629047D01*
X119642142Y-60962380D02*
X119642142Y-59962380D01*
X119642142Y-60438571D02*
X120213571Y-60438571D01*
X120213571Y-60962380D02*
X120213571Y-59962380D01*
X121261190Y-60867142D02*
X121213571Y-60914761D01*
X121070714Y-60962380D01*
X120975476Y-60962380D01*
X120832619Y-60914761D01*
X120737380Y-60819523D01*
X120689761Y-60724285D01*
X120642142Y-60533809D01*
X120642142Y-60390952D01*
X120689761Y-60200476D01*
X120737380Y-60105238D01*
X120832619Y-60010000D01*
X120975476Y-59962380D01*
X121070714Y-59962380D01*
X121213571Y-60010000D01*
X121261190Y-60057619D01*
X121546904Y-59962380D02*
X122118333Y-59962380D01*
X121832619Y-60962380D02*
X121832619Y-59962380D01*
X122975476Y-60962380D02*
X122404047Y-60962380D01*
X122689761Y-60962380D02*
X122689761Y-59962380D01*
X122594523Y-60105238D01*
X122499285Y-60200476D01*
X122404047Y-60248095D01*
X123308809Y-59962380D02*
X123975476Y-59962380D01*
X123546904Y-60962380D01*
X124785000Y-60295714D02*
X124785000Y-60962380D01*
X124546904Y-59914761D02*
X124308809Y-60629047D01*
X124927857Y-60629047D01*
%TO.C,U6*%
X131953095Y-48162380D02*
X131953095Y-48971904D01*
X132000714Y-49067142D01*
X132048333Y-49114761D01*
X132143571Y-49162380D01*
X132334047Y-49162380D01*
X132429285Y-49114761D01*
X132476904Y-49067142D01*
X132524523Y-48971904D01*
X132524523Y-48162380D01*
X133429285Y-48162380D02*
X133238809Y-48162380D01*
X133143571Y-48210000D01*
X133095952Y-48257619D01*
X133000714Y-48400476D01*
X132953095Y-48590952D01*
X132953095Y-48971904D01*
X133000714Y-49067142D01*
X133048333Y-49114761D01*
X133143571Y-49162380D01*
X133334047Y-49162380D01*
X133429285Y-49114761D01*
X133476904Y-49067142D01*
X133524523Y-48971904D01*
X133524523Y-48733809D01*
X133476904Y-48638571D01*
X133429285Y-48590952D01*
X133334047Y-48543333D01*
X133143571Y-48543333D01*
X133048333Y-48590952D01*
X133000714Y-48638571D01*
X132953095Y-48733809D01*
X129453095Y-59962380D02*
X130119761Y-59962380D01*
X129691190Y-60962380D01*
X130929285Y-60295714D02*
X130929285Y-60962380D01*
X130691190Y-59914761D02*
X130453095Y-60629047D01*
X131072142Y-60629047D01*
X131453095Y-60962380D02*
X131453095Y-59962380D01*
X131453095Y-60438571D02*
X132024523Y-60438571D01*
X132024523Y-60962380D02*
X132024523Y-59962380D01*
X133072142Y-60867142D02*
X133024523Y-60914761D01*
X132881666Y-60962380D01*
X132786428Y-60962380D01*
X132643571Y-60914761D01*
X132548333Y-60819523D01*
X132500714Y-60724285D01*
X132453095Y-60533809D01*
X132453095Y-60390952D01*
X132500714Y-60200476D01*
X132548333Y-60105238D01*
X132643571Y-60010000D01*
X132786428Y-59962380D01*
X132881666Y-59962380D01*
X133024523Y-60010000D01*
X133072142Y-60057619D01*
X134024523Y-60962380D02*
X133453095Y-60962380D01*
X133738809Y-60962380D02*
X133738809Y-59962380D01*
X133643571Y-60105238D01*
X133548333Y-60200476D01*
X133453095Y-60248095D01*
X134357857Y-59962380D02*
X135024523Y-59962380D01*
X134595952Y-60962380D01*
X135834047Y-60295714D02*
X135834047Y-60962380D01*
X135595952Y-59914761D02*
X135357857Y-60629047D01*
X135976904Y-60629047D01*
%TD*%
M02*
