%TF.GenerationSoftware,KiCad,Pcbnew,(7.0.0-0)*%
%TF.CreationDate,2023-03-31T09:05:14+02:00*%
%TF.ProjectId,Nes Sound Expansion,4e657320-536f-4756-9e64-20457870616e,rev?*%
%TF.SameCoordinates,Original*%
%TF.FileFunction,Copper,L1,Top*%
%TF.FilePolarity,Positive*%
%FSLAX46Y46*%
G04 Gerber Fmt 4.6, Leading zero omitted, Abs format (unit mm)*
G04 Created by KiCad (PCBNEW (7.0.0-0)) date 2023-03-31 09:05:14*
%MOMM*%
%LPD*%
G01*
G04 APERTURE LIST*
G04 Aperture macros list*
%AMRoundRect*
0 Rectangle with rounded corners*
0 $1 Rounding radius*
0 $2 $3 $4 $5 $6 $7 $8 $9 X,Y pos of 4 corners*
0 Add a 4 corners polygon primitive as box body*
4,1,4,$2,$3,$4,$5,$6,$7,$8,$9,$2,$3,0*
0 Add four circle primitives for the rounded corners*
1,1,$1+$1,$2,$3*
1,1,$1+$1,$4,$5*
1,1,$1+$1,$6,$7*
1,1,$1+$1,$8,$9*
0 Add four rect primitives between the rounded corners*
20,1,$1+$1,$2,$3,$4,$5,0*
20,1,$1+$1,$4,$5,$6,$7,0*
20,1,$1+$1,$6,$7,$8,$9,0*
20,1,$1+$1,$8,$9,$2,$3,0*%
G04 Aperture macros list end*
%TA.AperFunction,SMDPad,CuDef*%
%ADD10RoundRect,0.225000X0.250000X-0.225000X0.250000X0.225000X-0.250000X0.225000X-0.250000X-0.225000X0*%
%TD*%
%TA.AperFunction,SMDPad,CuDef*%
%ADD11RoundRect,0.225000X-0.250000X0.225000X-0.250000X-0.225000X0.250000X-0.225000X0.250000X0.225000X0*%
%TD*%
%TA.AperFunction,SMDPad,CuDef*%
%ADD12RoundRect,0.150000X-0.825000X-0.150000X0.825000X-0.150000X0.825000X0.150000X-0.825000X0.150000X0*%
%TD*%
%TA.AperFunction,SMDPad,CuDef*%
%ADD13RoundRect,0.200000X-0.200000X-0.275000X0.200000X-0.275000X0.200000X0.275000X-0.200000X0.275000X0*%
%TD*%
%TA.AperFunction,SMDPad,CuDef*%
%ADD14RoundRect,0.200000X-0.275000X0.200000X-0.275000X-0.200000X0.275000X-0.200000X0.275000X0.200000X0*%
%TD*%
%TA.AperFunction,SMDPad,CuDef*%
%ADD15RoundRect,0.250000X0.250000X0.475000X-0.250000X0.475000X-0.250000X-0.475000X0.250000X-0.475000X0*%
%TD*%
%TA.AperFunction,SMDPad,CuDef*%
%ADD16R,1.500000X1.600000*%
%TD*%
%TA.AperFunction,SMDPad,CuDef*%
%ADD17RoundRect,0.200000X0.200000X0.275000X-0.200000X0.275000X-0.200000X-0.275000X0.200000X-0.275000X0*%
%TD*%
%TA.AperFunction,SMDPad,CuDef*%
%ADD18RoundRect,0.150000X-0.150000X0.875000X-0.150000X-0.875000X0.150000X-0.875000X0.150000X0.875000X0*%
%TD*%
%TA.AperFunction,SMDPad,CuDef*%
%ADD19RoundRect,0.200000X0.275000X-0.200000X0.275000X0.200000X-0.275000X0.200000X-0.275000X-0.200000X0*%
%TD*%
%TA.AperFunction,SMDPad,CuDef*%
%ADD20RoundRect,0.250000X1.050000X0.550000X-1.050000X0.550000X-1.050000X-0.550000X1.050000X-0.550000X0*%
%TD*%
%TA.AperFunction,SMDPad,CuDef*%
%ADD21R,2.000000X1.500000*%
%TD*%
%TA.AperFunction,SMDPad,CuDef*%
%ADD22RoundRect,0.243750X-0.243750X-0.456250X0.243750X-0.456250X0.243750X0.456250X-0.243750X0.456250X0*%
%TD*%
%TA.AperFunction,SMDPad,CuDef*%
%ADD23RoundRect,0.250000X-0.475000X0.250000X-0.475000X-0.250000X0.475000X-0.250000X0.475000X0.250000X0*%
%TD*%
%TA.AperFunction,SMDPad,CuDef*%
%ADD24RoundRect,0.250000X0.475000X-0.250000X0.475000X0.250000X-0.475000X0.250000X-0.475000X-0.250000X0*%
%TD*%
%TA.AperFunction,SMDPad,CuDef*%
%ADD25RoundRect,0.250000X-0.250000X-0.475000X0.250000X-0.475000X0.250000X0.475000X-0.250000X0.475000X0*%
%TD*%
%TA.AperFunction,SMDPad,CuDef*%
%ADD26RoundRect,0.150000X0.150000X-0.825000X0.150000X0.825000X-0.150000X0.825000X-0.150000X-0.825000X0*%
%TD*%
%TA.AperFunction,SMDPad,CuDef*%
%ADD27RoundRect,0.150000X-0.150000X0.825000X-0.150000X-0.825000X0.150000X-0.825000X0.150000X0.825000X0*%
%TD*%
%TA.AperFunction,ComponentPad*%
%ADD28RoundRect,0.250000X-0.600000X-0.600000X0.600000X-0.600000X0.600000X0.600000X-0.600000X0.600000X0*%
%TD*%
%TA.AperFunction,ComponentPad*%
%ADD29C,1.700000*%
%TD*%
%TA.AperFunction,ComponentPad*%
%ADD30R,1.700000X1.700000*%
%TD*%
%TA.AperFunction,ComponentPad*%
%ADD31O,1.700000X1.700000*%
%TD*%
%TA.AperFunction,ViaPad*%
%ADD32C,0.500000*%
%TD*%
%TA.AperFunction,Conductor*%
%ADD33C,0.450000*%
%TD*%
%TA.AperFunction,Conductor*%
%ADD34C,0.220000*%
%TD*%
G04 APERTURE END LIST*
D10*
%TO.P,C9,1*%
%TO.N,GND*%
X130810000Y-54364000D03*
%TO.P,C9,2*%
%TO.N,Net-(U3B-+)*%
X130810000Y-52814000D03*
%TD*%
D11*
%TO.P,C8,1*%
%TO.N,Net-(U3A-+)*%
X121285000Y-52753000D03*
%TO.P,C8,2*%
%TO.N,GND*%
X121285000Y-54303000D03*
%TD*%
%TO.P,C5,1*%
%TO.N,Net-(C5-Pad1)*%
X134047000Y-76502000D03*
%TO.P,C5,2*%
%TO.N,GND*%
X134047000Y-78052000D03*
%TD*%
D10*
%TO.P,C4,1*%
%TO.N,Net-(C4-Pad1)*%
X116651000Y-63833000D03*
%TO.P,C4,2*%
%TO.N,GND*%
X116651000Y-62283000D03*
%TD*%
D11*
%TO.P,C3,1*%
%TO.N,GND*%
X119888000Y-62331000D03*
%TO.P,C3,2*%
%TO.N,Net-(C3-Pad2)*%
X119888000Y-63881000D03*
%TD*%
D12*
%TO.P,U1,1,E*%
%TO.N,GND*%
X98806000Y-112522000D03*
%TO.P,U1,2,A0*%
%TO.N,OUT1*%
X98806000Y-113792000D03*
%TO.P,U1,3,A1*%
X98806000Y-115062000D03*
%TO.P,U1,4,O0*%
%TO.N,unconnected-(U1A-O0-Pad4)*%
X98806000Y-116332000D03*
%TO.P,U1,5,O1*%
%TO.N,unconnected-(U1A-O1-Pad5)*%
X98806000Y-117602000D03*
%TO.P,U1,6,O2*%
%TO.N,unconnected-(U1A-O2-Pad6)*%
X98806000Y-118872000D03*
%TO.P,U1,7,O3*%
%TO.N,OUT1_*%
X98806000Y-120142000D03*
%TO.P,U1,8,GND*%
%TO.N,GND*%
X98806000Y-121412000D03*
%TO.P,U1,9,O3*%
%TO.N,unconnected-(U1B-O3-Pad9)*%
X103756000Y-121412000D03*
%TO.P,U1,10,O2*%
%TO.N,unconnected-(U1B-O2-Pad10)*%
X103756000Y-120142000D03*
%TO.P,U1,11,O1*%
%TO.N,CS_*%
X103756000Y-118872000D03*
%TO.P,U1,12,O0*%
%TO.N,unconnected-(U1B-O0-Pad12)*%
X103756000Y-117602000D03*
%TO.P,U1,13,A1*%
%TO.N,R-W*%
X103756000Y-116332000D03*
%TO.P,U1,14,A0*%
%TO.N,A14*%
X103756000Y-115062000D03*
%TO.P,U1,15,E*%
%TO.N,ROMSEL*%
X103756000Y-113792000D03*
%TO.P,U1,16,VCC*%
%TO.N,+5V*%
X103756000Y-112522000D03*
%TD*%
D13*
%TO.P,R9,1*%
%TO.N,Net-(J7-K)*%
X103061000Y-106680000D03*
%TO.P,R9,2*%
%TO.N,GND*%
X104711000Y-106680000D03*
%TD*%
D12*
%TO.P,U7,1,~{Mr}*%
%TO.N,FF_Reset*%
X130432000Y-82931000D03*
%TO.P,U7,2,Q0*%
%TO.N,D0_buf*%
X130432000Y-84201000D03*
%TO.P,U7,3,D0*%
%TO.N,D4*%
X130432000Y-85471000D03*
%TO.P,U7,4,D1*%
%TO.N,D5*%
X130432000Y-86741000D03*
%TO.P,U7,5,Q1*%
%TO.N,D1_buf*%
X130432000Y-88011000D03*
%TO.P,U7,6,D2*%
%TO.N,D6*%
X130432000Y-89281000D03*
%TO.P,U7,7,Q2*%
%TO.N,D2_buf*%
X130432000Y-90551000D03*
%TO.P,U7,8,GND*%
%TO.N,GND*%
X130432000Y-91821000D03*
%TO.P,U7,9,Cp*%
%TO.N,OUT1_*%
X135382000Y-91821000D03*
%TO.P,U7,10,Q3*%
%TO.N,D3_buf*%
X135382000Y-90551000D03*
%TO.P,U7,11,D3*%
%TO.N,D7*%
X135382000Y-89281000D03*
%TO.P,U7,12,Q4*%
%TO.N,unconnected-(U7-Q4-Pad12)*%
X135382000Y-88011000D03*
%TO.P,U7,13,D4*%
%TO.N,unconnected-(U7-D4-Pad13)*%
X135382000Y-86741000D03*
%TO.P,U7,14,D5*%
%TO.N,+5V*%
X135382000Y-85471000D03*
%TO.P,U7,15,Q5*%
%TO.N,4016_EN*%
X135382000Y-84201000D03*
%TO.P,U7,16,VCC*%
%TO.N,+5V*%
X135382000Y-82931000D03*
%TD*%
%TO.P,U2,1*%
%TO.N,Net-(C4-Pad1)*%
X123255000Y-61214000D03*
%TO.P,U2,2*%
X123255000Y-62484000D03*
%TO.P,U2,3*%
%TO.N,Net-(R14-Pad2)*%
X123255000Y-63754000D03*
%TO.P,U2,4*%
%TO.N,Net-(C3-Pad2)*%
X123255000Y-65024000D03*
%TO.P,U2,5*%
%TO.N,Net-(R14-Pad2)*%
X123255000Y-66294000D03*
%TO.P,U2,6*%
%TO.N,CS_buf*%
X123255000Y-67564000D03*
%TO.P,U2,7,GND*%
%TO.N,GND*%
X123255000Y-68834000D03*
%TO.P,U2,8*%
%TO.N,FF_Reset*%
X128205000Y-68834000D03*
%TO.P,U2,9*%
%TO.N,Net-(U2-Pad10)*%
X128205000Y-67564000D03*
%TO.P,U2,10*%
X128205000Y-66294000D03*
%TO.P,U2,11*%
X128205000Y-65024000D03*
%TO.P,U2,12*%
%TO.N,Net-(C5-Pad1)*%
X128205000Y-63754000D03*
%TO.P,U2,13*%
X128205000Y-62484000D03*
%TO.P,U2,14,VCC*%
%TO.N,+5V*%
X128205000Y-61214000D03*
%TD*%
D14*
%TO.P,R6,1*%
%TO.N,Net-(C6-Pad1)*%
X117856000Y-56508000D03*
%TO.P,R6,2*%
%TO.N,Aud*%
X117856000Y-58158000D03*
%TD*%
D12*
%TO.P,U6,1,~{Mr}*%
%TO.N,FF_Reset*%
X120969000Y-82931000D03*
%TO.P,U6,2,Q0*%
%TO.N,D4_buf*%
X120969000Y-84201000D03*
%TO.P,U6,3,D0*%
%TO.N,D4*%
X120969000Y-85471000D03*
%TO.P,U6,4,D1*%
%TO.N,D5*%
X120969000Y-86741000D03*
%TO.P,U6,5,Q1*%
%TO.N,D5_buf*%
X120969000Y-88011000D03*
%TO.P,U6,6,D2*%
%TO.N,D6*%
X120969000Y-89281000D03*
%TO.P,U6,7,Q2*%
%TO.N,D6_buf*%
X120969000Y-90551000D03*
%TO.P,U6,8,GND*%
%TO.N,GND*%
X120969000Y-91821000D03*
%TO.P,U6,9,Cp*%
%TO.N,OUT1*%
X125919000Y-91821000D03*
%TO.P,U6,10,Q3*%
%TO.N,D7_buf*%
X125919000Y-90551000D03*
%TO.P,U6,11,D3*%
%TO.N,D7*%
X125919000Y-89281000D03*
%TO.P,U6,12,Q4*%
%TO.N,A0_buf*%
X125919000Y-88011000D03*
%TO.P,U6,13,D4*%
%TO.N,D3*%
X125919000Y-86741000D03*
%TO.P,U6,14,D5*%
%TO.N,D2*%
X125919000Y-85471000D03*
%TO.P,U6,15,Q5*%
%TO.N,A1_buf*%
X125919000Y-84201000D03*
%TO.P,U6,16,VCC*%
%TO.N,+5V*%
X125919000Y-82931000D03*
%TD*%
D15*
%TO.P,C2,1*%
%TO.N,Net-(BU9480F1-REF)*%
X127569000Y-57846000D03*
%TO.P,C2,2*%
%TO.N,GND*%
X125669000Y-57846000D03*
%TD*%
D14*
%TO.P,R7,1*%
%TO.N,Net-(C7-Pad1)*%
X130810000Y-56762000D03*
%TO.P,R7,2*%
%TO.N,Aud*%
X130810000Y-58412000D03*
%TD*%
%TO.P,R8,1*%
%TO.N,Net-(C7-Pad1)*%
X134112000Y-56762000D03*
%TO.P,R8,2*%
%TO.N,Net-(BU9480F1-ROUT)*%
X134112000Y-58412000D03*
%TD*%
D16*
%TO.P,X1,1,~{ST}*%
%TO.N,unconnected-(X1-~{ST}-Pad1)*%
X108881999Y-118109999D03*
%TO.P,X1,2,GND*%
%TO.N,GND*%
X108881999Y-120649999D03*
%TO.P,X1,3,OUT*%
%TO.N,Net-(X1-OUT)*%
X111081999Y-120649999D03*
%TO.P,X1,4,VCC*%
%TO.N,+5V*%
X111081999Y-118109999D03*
%TD*%
D17*
%TO.P,R4,1*%
%TO.N,Net-(J3-Pin_9)*%
X104394000Y-98298000D03*
%TO.P,R4,2*%
%TO.N,AudIn*%
X102744000Y-98298000D03*
%TD*%
D14*
%TO.P,R5,1*%
%TO.N,Net-(C6-Pad1)*%
X121412000Y-56571000D03*
%TO.P,R5,2*%
%TO.N,Net-(BU9480F1-LOUT)*%
X121412000Y-58221000D03*
%TD*%
D18*
%TO.P,YMF288,1,GND*%
%TO.N,GND*%
X134620000Y-109474000D03*
%TO.P,YMF288,2,D0*%
%TO.N,D0_Chip*%
X133350000Y-109474000D03*
%TO.P,YMF288,3,D1*%
%TO.N,D1_Chip*%
X132080000Y-109474000D03*
%TO.P,YMF288,4,D2*%
%TO.N,D2_Chip*%
X130810000Y-109474000D03*
%TO.P,YMF288,5,D3*%
%TO.N,D3_Chip*%
X129540000Y-109474000D03*
%TO.P,YMF288,6,D4*%
%TO.N,D4_Chip*%
X128270000Y-109474000D03*
%TO.P,YMF288,7,D5*%
%TO.N,D5_Chip*%
X127000000Y-109474000D03*
%TO.P,YMF288,8,D6*%
%TO.N,D6_Chip*%
X125730000Y-109474000D03*
%TO.P,YMF288,9,D7*%
%TO.N,D7_Chip*%
X124460000Y-109474000D03*
%TO.P,YMF288,10,NC*%
%TO.N,unconnected-(YMF288-NC-Pad10)*%
X123190000Y-109474000D03*
%TO.P,YMF288,11,~{RST}*%
%TO.N,Net-(YMF288-~{RST})*%
X121920000Y-109474000D03*
%TO.P,YMF288,12,5V/3V*%
%TO.N,+5V*%
X120650000Y-109474000D03*
%TO.P,YMF288,13,NC*%
%TO.N,unconnected-(YMF288-NC-Pad13)*%
X119380000Y-109474000D03*
%TO.P,YMF288,14,GND*%
%TO.N,GND*%
X118110000Y-109474000D03*
%TO.P,YMF288,15,~{IRQ}*%
%TO.N,IRQ*%
X118110000Y-120044000D03*
%TO.P,YMF288,16,GND*%
%TO.N,GND*%
X119380000Y-120044000D03*
%TO.P,YMF288,17,~{CS}*%
%TO.N,CS_Chip*%
X120650000Y-120044000D03*
%TO.P,YMF288,18,~{WR}*%
%TO.N,GND*%
X121920000Y-120044000D03*
%TO.P,YMF288,19,~{RD}*%
%TO.N,+5V*%
X123190000Y-120044000D03*
%TO.P,YMF288,20,A0*%
%TO.N,A0_Chip*%
X124460000Y-120044000D03*
%TO.P,YMF288,21,A1*%
%TO.N,A1_Chip*%
X125730000Y-120044000D03*
%TO.P,YMF288,22,VCC*%
%TO.N,+5V*%
X127000000Y-120044000D03*
%TO.P,YMF288,23,BCLK*%
%TO.N,Net-(BU9480F1-BCLK)*%
X128270000Y-120044000D03*
%TO.P,YMF288,24,SOUT*%
%TO.N,Net-(BU9480F1-SDAT)*%
X129540000Y-120044000D03*
%TO.P,YMF288,25,MCLK*%
%TO.N,unconnected-(YMF288-MCLK-Pad25)*%
X130810000Y-120044000D03*
%TO.P,YMF288,26,LRCK*%
%TO.N,Net-(BU9480F1-LRCK)*%
X132080000Y-120044000D03*
%TO.P,YMF288,27,VCC*%
%TO.N,+5V*%
X133350000Y-120044000D03*
%TO.P,YMF288,28,FMOSC*%
%TO.N,Net-(X1-OUT)*%
X134620000Y-120044000D03*
%TD*%
D19*
%TO.P,R14,1*%
%TO.N,Net-(C5-Pad1)*%
X134047000Y-73318500D03*
%TO.P,R14,2*%
%TO.N,Net-(R14-Pad2)*%
X134047000Y-71668500D03*
%TD*%
D14*
%TO.P,R13,1*%
%TO.N,Net-(C4-Pad1)*%
X116651000Y-66628000D03*
%TO.P,R13,2*%
%TO.N,4016_EN*%
X116651000Y-68278000D03*
%TD*%
%TO.P,R12,1*%
%TO.N,Net-(C3-Pad2)*%
X119888000Y-66676000D03*
%TO.P,R12,2*%
%TO.N,4016_EN*%
X119888000Y-68326000D03*
%TD*%
%TO.P,R15,1*%
%TO.N,+5V*%
X115824000Y-111839000D03*
%TO.P,R15,2*%
%TO.N,Net-(YMF288-~{RST})*%
X115824000Y-113489000D03*
%TD*%
D17*
%TO.P,R17,1*%
%TO.N,GND*%
X117776000Y-91440000D03*
%TO.P,R17,2*%
%TO.N,A13*%
X116126000Y-91440000D03*
%TD*%
D20*
%TO.P,C11,1*%
%TO.N,Net-(C11-Pad1)*%
X121688000Y-40132000D03*
%TO.P,C11,2*%
%TO.N,Net-(C11-Pad2)*%
X118088000Y-40132000D03*
%TD*%
D21*
%TO.P,J6,2*%
%TO.N,N/C*%
X113989999Y-38386999D03*
%TO.P,J6,G*%
%TO.N,GND*%
X106989999Y-38386999D03*
%TO.P,J6,S*%
%TO.N,Net-(C11-Pad2)*%
X106989999Y-41786999D03*
%TO.P,J6,SN*%
%TO.N,Net-(J6-PadSN)*%
X106989999Y-47286999D03*
%TO.P,J6,T*%
%TO.N,Net-(C10-Pad2)*%
X113989999Y-45586999D03*
%TO.P,J6,TN*%
%TO.N,Net-(J6-PadSN)*%
X113989999Y-47786999D03*
%TD*%
D17*
%TO.P,R19,1*%
%TO.N,Net-(J4-Pin_9)*%
X104394000Y-95758000D03*
%TO.P,R19,2*%
%TO.N,AudIn*%
X102744000Y-95758000D03*
%TD*%
%TO.P,R16,1*%
%TO.N,GND*%
X117792000Y-93980000D03*
%TO.P,R16,2*%
%TO.N,A14*%
X116142000Y-93980000D03*
%TD*%
D22*
%TO.P,J7,1,K*%
%TO.N,Net-(J7-K)*%
X102948500Y-109220000D03*
%TO.P,J7,2,A*%
%TO.N,+5V*%
X104823500Y-109220000D03*
%TD*%
D20*
%TO.P,C10,1*%
%TO.N,Net-(C10-Pad1)*%
X121710000Y-45847000D03*
%TO.P,C10,2*%
%TO.N,Net-(C10-Pad2)*%
X118110000Y-45847000D03*
%TD*%
D17*
%TO.P,R18,1*%
%TO.N,Net-(J3-Pin_6)*%
X104394000Y-100838000D03*
%TO.P,R18,2*%
%TO.N,AudIn*%
X102744000Y-100838000D03*
%TD*%
D23*
%TO.P,C1,1*%
%TO.N,Net-(YMF288-~{RST})*%
X115824000Y-116095000D03*
%TO.P,C1,2*%
%TO.N,GND*%
X115824000Y-117995000D03*
%TD*%
D24*
%TO.P,C6,1*%
%TO.N,Net-(C6-Pad1)*%
X117983000Y-54478000D03*
%TO.P,C6,2*%
%TO.N,Net-(U3A-+)*%
X117983000Y-52578000D03*
%TD*%
%TO.P,C7,1*%
%TO.N,Net-(C7-Pad1)*%
X134112000Y-54544000D03*
%TO.P,C7,2*%
%TO.N,Net-(U3B-+)*%
X134112000Y-52644000D03*
%TD*%
D25*
%TO.P,C12,1*%
%TO.N,Net-(C12-Pad1)*%
X133162000Y-49276000D03*
%TO.P,C12,2*%
%TO.N,GND*%
X135062000Y-49276000D03*
%TD*%
%TO.P,C13,1*%
%TO.N,Net-(C13-Pad1)*%
X133416000Y-38862000D03*
%TO.P,C13,2*%
%TO.N,GND*%
X135316000Y-38862000D03*
%TD*%
D14*
%TO.P,R22,1*%
%TO.N,Net-(U3B-+)*%
X133858000Y-41276000D03*
%TO.P,R22,2*%
%TO.N,+5V*%
X133858000Y-42926000D03*
%TD*%
D19*
%TO.P,R23,1*%
%TO.N,GND*%
X127635000Y-54376500D03*
%TO.P,R23,2*%
%TO.N,Net-(U3B-+)*%
X127635000Y-52726500D03*
%TD*%
D13*
%TO.P,R26,1*%
%TO.N,Net-(C10-Pad1)*%
X125897500Y-49276000D03*
%TO.P,R26,2*%
%TO.N,Net-(U3A--)*%
X127547500Y-49276000D03*
%TD*%
D26*
%TO.P,U3,1*%
%TO.N,Net-(C10-Pad1)*%
X126873000Y-46417000D03*
%TO.P,U3,2,-*%
%TO.N,Net-(U3A--)*%
X128143000Y-46417000D03*
%TO.P,U3,3,+*%
%TO.N,Net-(U3A-+)*%
X129413000Y-46417000D03*
%TO.P,U3,4,V-*%
%TO.N,GND*%
X130683000Y-46417000D03*
%TO.P,U3,5,+*%
%TO.N,Net-(U3B-+)*%
X130683000Y-41467000D03*
%TO.P,U3,6,-*%
%TO.N,Net-(U3B--)*%
X129413000Y-41467000D03*
%TO.P,U3,7*%
%TO.N,Net-(C11-Pad1)*%
X128143000Y-41467000D03*
%TO.P,U3,8,V+*%
%TO.N,+5V*%
X126873000Y-41467000D03*
%TD*%
D27*
%TO.P,BU9480F1,1,ROUT*%
%TO.N,Net-(BU9480F1-ROUT)*%
X135255000Y-61787000D03*
%TO.P,BU9480F1,2,REF*%
%TO.N,Net-(BU9480F1-REF)*%
X133985000Y-61787000D03*
%TO.P,BU9480F1,3,GND*%
%TO.N,GND*%
X132715000Y-61787000D03*
%TO.P,BU9480F1,4,LOUT*%
%TO.N,Net-(BU9480F1-LOUT)*%
X131445000Y-61787000D03*
%TO.P,BU9480F1,5,LRCK*%
%TO.N,Net-(BU9480F1-LRCK)*%
X131445000Y-66737000D03*
%TO.P,BU9480F1,6,SDAT*%
%TO.N,Net-(BU9480F1-SDAT)*%
X132715000Y-66737000D03*
%TO.P,BU9480F1,7,BCLK*%
%TO.N,Net-(BU9480F1-BCLK)*%
X133985000Y-66737000D03*
%TO.P,BU9480F1,8,VCC*%
%TO.N,+5V*%
X135255000Y-66737000D03*
%TD*%
D14*
%TO.P,R21,1*%
%TO.N,Net-(U3A-+)*%
X124587000Y-52726500D03*
%TO.P,R21,2*%
%TO.N,GND*%
X124587000Y-54376500D03*
%TD*%
D13*
%TO.P,R24,1*%
%TO.N,Net-(U3A--)*%
X129500500Y-49276000D03*
%TO.P,R24,2*%
%TO.N,Net-(C12-Pad1)*%
X131150500Y-49276000D03*
%TD*%
%TO.P,R25,1*%
%TO.N,Net-(U3B--)*%
X129731000Y-38608000D03*
%TO.P,R25,2*%
%TO.N,Net-(C13-Pad1)*%
X131381000Y-38608000D03*
%TD*%
%TO.P,R27,1*%
%TO.N,Net-(C11-Pad1)*%
X126071500Y-38608000D03*
%TO.P,R27,2*%
%TO.N,Net-(U3B--)*%
X127721500Y-38608000D03*
%TD*%
D14*
%TO.P,R20,1*%
%TO.N,+5V*%
X133858000Y-44959000D03*
%TO.P,R20,2*%
%TO.N,Net-(U3A-+)*%
X133858000Y-46609000D03*
%TD*%
%TO.P,R10,1*%
%TO.N,Net-(J6-PadSN)*%
X116332000Y-100267000D03*
%TO.P,R10,2*%
%TO.N,AudIn*%
X116332000Y-101917000D03*
%TD*%
D28*
%TO.P,J1,1,Pin_1*%
%TO.N,Joy1_D2*%
X99822000Y-69850000D03*
D29*
%TO.P,J1,2,Pin_2*%
%TO.N,Joy2_D0*%
X102362000Y-69850000D03*
%TO.P,J1,3,Pin_3*%
%TO.N,+5V*%
X99822000Y-72390000D03*
%TO.P,J1,4,Pin_4*%
%TO.N,Joy2_D1*%
X102362000Y-72390000D03*
%TO.P,J1,5,Pin_5*%
%TO.N,Joy1_OE*%
X99822000Y-74930000D03*
%TO.P,J1,6,Pin_6*%
%TO.N,Joy2_D2*%
X102362000Y-74930000D03*
%TO.P,J1,7,Pin_7*%
%TO.N,Joy1_D1*%
X99822000Y-77470000D03*
%TO.P,J1,8,Pin_8*%
%TO.N,Joy2_D3*%
X102362000Y-77470000D03*
%TO.P,J1,9,Pin_9*%
%TO.N,OUT0*%
X99822000Y-80010000D03*
%TO.P,J1,10,Pin_10*%
%TO.N,Joy2_D4*%
X102362000Y-80010000D03*
%TO.P,J1,11,Pin_11*%
%TO.N,OUT1*%
X99822000Y-82550000D03*
%TO.P,J1,12,Pin_12*%
%TO.N,IRQ*%
X102362000Y-82550000D03*
%TO.P,J1,13,Pin_13*%
%TO.N,OUT2*%
X99822000Y-85090000D03*
%TO.P,J1,14,Pin_14*%
%TO.N,Aud*%
X102362000Y-85090000D03*
%TO.P,J1,15,Pin_15*%
%TO.N,Joy2_OE*%
X99822000Y-87630000D03*
%TO.P,J1,16,Pin_16*%
%TO.N,GND*%
X102362000Y-87630000D03*
%TD*%
D12*
%TO.P,U8,1,S*%
%TO.N,4016_EN*%
X120969000Y-96012000D03*
%TO.P,U8,2,I0a*%
%TO.N,D5*%
X120969000Y-97282000D03*
%TO.P,U8,3,I1a*%
%TO.N,D5_buf*%
X120969000Y-98552000D03*
%TO.P,U8,4,Za*%
%TO.N,D5_Chip*%
X120969000Y-99822000D03*
%TO.P,U8,5,I0b*%
%TO.N,D4*%
X120969000Y-101092000D03*
%TO.P,U8,6,I1b*%
%TO.N,D4_buf*%
X120969000Y-102362000D03*
%TO.P,U8,7,Zb*%
%TO.N,D4_Chip*%
X120969000Y-103632000D03*
%TO.P,U8,8,GND*%
%TO.N,GND*%
X120969000Y-104902000D03*
%TO.P,U8,9,Zd*%
%TO.N,D6_Chip*%
X125919000Y-104902000D03*
%TO.P,U8,10,I1d*%
%TO.N,D6_buf*%
X125919000Y-103632000D03*
%TO.P,U8,11,I0d*%
%TO.N,D6*%
X125919000Y-102362000D03*
%TO.P,U8,12,Zc*%
%TO.N,D7_Chip*%
X125919000Y-101092000D03*
%TO.P,U8,13,I1c*%
%TO.N,D7_buf*%
X125919000Y-99822000D03*
%TO.P,U8,14,I0c*%
%TO.N,D7*%
X125919000Y-98552000D03*
%TO.P,U8,15,OE*%
%TO.N,GND*%
X125919000Y-97282000D03*
%TO.P,U8,16,VCC*%
%TO.N,+5V*%
X125919000Y-96012000D03*
%TD*%
D26*
%TO.P,U10,1,S*%
%TO.N,4016_EN*%
X121158000Y-78356000D03*
%TO.P,U10,2,I0a*%
%TO.N,A1*%
X122428000Y-78356000D03*
%TO.P,U10,3,I1a*%
%TO.N,A1_buf*%
X123698000Y-78356000D03*
%TO.P,U10,4,Za*%
%TO.N,A1_Chip*%
X124968000Y-78356000D03*
%TO.P,U10,5,I0b*%
%TO.N,A13*%
X126238000Y-78356000D03*
%TO.P,U10,6,I1b*%
%TO.N,A0_buf*%
X127508000Y-78356000D03*
%TO.P,U10,7,Zb*%
%TO.N,A0_Chip*%
X128778000Y-78356000D03*
%TO.P,U10,8,GND*%
%TO.N,GND*%
X130048000Y-78356000D03*
%TO.P,U10,9,Zd*%
%TO.N,unconnected-(U10-Zd-Pad9)*%
X130048000Y-73406000D03*
%TO.P,U10,10,I1d*%
%TO.N,unconnected-(U10-I1d-Pad10)*%
X128778000Y-73406000D03*
%TO.P,U10,11,I0d*%
%TO.N,unconnected-(U10-I0d-Pad11)*%
X127508000Y-73406000D03*
%TO.P,U10,12,Zc*%
%TO.N,CS_Chip*%
X126238000Y-73406000D03*
%TO.P,U10,13,I1c*%
%TO.N,CS_buf*%
X124968000Y-73406000D03*
%TO.P,U10,14,I0c*%
%TO.N,CS_*%
X123698000Y-73406000D03*
%TO.P,U10,15,OE*%
%TO.N,GND*%
X122428000Y-73406000D03*
%TO.P,U10,16,VCC*%
%TO.N,+5V*%
X121158000Y-73406000D03*
%TD*%
D12*
%TO.P,U9,1,S*%
%TO.N,4016_EN*%
X130367000Y-96012000D03*
%TO.P,U9,2,I0a*%
%TO.N,D0*%
X130367000Y-97282000D03*
%TO.P,U9,3,I1a*%
%TO.N,D0_buf*%
X130367000Y-98552000D03*
%TO.P,U9,4,Za*%
%TO.N,D0_Chip*%
X130367000Y-99822000D03*
%TO.P,U9,5,I0b*%
%TO.N,D1*%
X130367000Y-101092000D03*
%TO.P,U9,6,I1b*%
%TO.N,D1_buf*%
X130367000Y-102362000D03*
%TO.P,U9,7,Zb*%
%TO.N,D1_Chip*%
X130367000Y-103632000D03*
%TO.P,U9,8,GND*%
%TO.N,GND*%
X130367000Y-104902000D03*
%TO.P,U9,9,Zd*%
%TO.N,D3_Chip*%
X135317000Y-104902000D03*
%TO.P,U9,10,I1d*%
%TO.N,D3_buf*%
X135317000Y-103632000D03*
%TO.P,U9,11,I0d*%
%TO.N,D3*%
X135317000Y-102362000D03*
%TO.P,U9,12,Zc*%
%TO.N,D2_Chip*%
X135317000Y-101092000D03*
%TO.P,U9,13,I1c*%
%TO.N,D2_buf*%
X135317000Y-99822000D03*
%TO.P,U9,14,I0c*%
%TO.N,D2*%
X135317000Y-98552000D03*
%TO.P,U9,15,OE*%
%TO.N,GND*%
X135317000Y-97282000D03*
%TO.P,U9,16,VCC*%
%TO.N,+5V*%
X135317000Y-96012000D03*
%TD*%
D30*
%TO.P,J3,1,Pin_1*%
%TO.N,+5V*%
X113283999Y-109219999D03*
D31*
%TO.P,J3,2,Pin_2*%
%TO.N,GND*%
X113283999Y-106679999D03*
%TO.P,J3,3,Pin_3*%
%TO.N,AudIn*%
X113283999Y-104139999D03*
%TO.P,J3,4,Pin_4*%
%TO.N,NMI*%
X113283999Y-101599999D03*
%TO.P,J3,5,Pin_5*%
%TO.N,unconnected-(J3-Pin_5-Pad5)*%
X113283999Y-99059999D03*
%TO.P,J3,6,Pin_6*%
%TO.N,Net-(J3-Pin_6)*%
X113283999Y-96519999D03*
%TO.P,J3,7,Pin_7*%
%TO.N,A14*%
X113283999Y-93979999D03*
%TO.P,J3,8,Pin_8*%
%TO.N,A13*%
X113283999Y-91439999D03*
%TO.P,J3,9,Pin_9*%
%TO.N,Net-(J3-Pin_9)*%
X113283999Y-88899999D03*
%TO.P,J3,10,Pin_10*%
%TO.N,unconnected-(J3-Pin_10-Pad10)*%
X113283999Y-86359999D03*
%TO.P,J3,11,Pin_11*%
%TO.N,Joy2_OE*%
X113283999Y-83819999D03*
%TO.P,J3,12,Pin_12*%
%TO.N,Joy1_D1*%
X113283999Y-81279999D03*
%TO.P,J3,13,Pin_13*%
%TO.N,Joy1_D3*%
X113283999Y-78739999D03*
%TO.P,J3,14,Pin_14*%
%TO.N,IRQ*%
X113283999Y-76199999D03*
%TO.P,J3,15,Pin_15*%
%TO.N,Joy2_D2*%
X113283999Y-73659999D03*
%TO.P,J3,16,Pin_16*%
%TO.N,Joy2_D3*%
X113283999Y-71119999D03*
%TO.P,J3,17,Pin_17*%
%TO.N,unconnected-(J3-Pin_17-Pad17)*%
X113283999Y-68579999D03*
%TO.P,J3,18,Pin_18*%
%TO.N,Joy2_D4*%
X113283999Y-66039999D03*
%TO.P,J3,19,Pin_19*%
%TO.N,Joy2_D0*%
X113283999Y-63499999D03*
%TO.P,J3,20,Pin_20*%
%TO.N,Joy2_D1*%
X113283999Y-60959999D03*
%TO.P,J3,21,Pin_21*%
%TO.N,unconnected-(J3-Pin_21-Pad21)*%
X113283999Y-58419999D03*
%TO.P,J3,22,Pin_22*%
%TO.N,Aud*%
X113283999Y-55879999D03*
%TO.P,J3,23,Pin_23*%
%TO.N,unconnected-(J3-Pin_23-Pad23)*%
X113283999Y-53339999D03*
%TO.P,J3,24,Pin_24*%
%TO.N,unconnected-(J3-Pin_24-Pad24)*%
X113283999Y-50799999D03*
%TD*%
D30*
%TO.P,J4,1,Pin_1*%
%TO.N,+5V*%
X107695999Y-109219999D03*
D31*
%TO.P,J4,2,Pin_2*%
%TO.N,GND*%
X107695999Y-106679999D03*
%TO.P,J4,3,Pin_3*%
%TO.N,unconnected-(J4-Pin_3-Pad3)*%
X107695999Y-104139999D03*
%TO.P,J4,4,Pin_4*%
%TO.N,OUT2*%
X107695999Y-101599999D03*
%TO.P,J4,5,Pin_5*%
%TO.N,OUT1*%
X107695999Y-99059999D03*
%TO.P,J4,6,Pin_6*%
%TO.N,OUT0*%
X107695999Y-96519999D03*
%TO.P,J4,7,Pin_7*%
%TO.N,unconnected-(J4-Pin_7-Pad7)*%
X107695999Y-93979999D03*
%TO.P,J4,8,Pin_8*%
%TO.N,R-W*%
X107695999Y-91439999D03*
%TO.P,J4,9,Pin_9*%
%TO.N,Net-(J4-Pin_9)*%
X107695999Y-88899999D03*
%TO.P,J4,10,Pin_10*%
%TO.N,ROMSEL*%
X107695999Y-86359999D03*
%TO.P,J4,11,Pin_11*%
%TO.N,A1*%
X107695999Y-83819999D03*
%TO.P,J4,12,Pin_12*%
%TO.N,Joy1_OE*%
X107695999Y-81279999D03*
%TO.P,J4,13,Pin_13*%
%TO.N,Joy1_D4*%
X107695999Y-78739999D03*
%TO.P,J4,14,Pin_14*%
%TO.N,Joy1_D0*%
X107695999Y-76199999D03*
%TO.P,J4,15,Pin_15*%
%TO.N,unconnected-(J4-Pin_15-Pad15)*%
X107695999Y-73659999D03*
%TO.P,J4,16,Pin_16*%
%TO.N,Joy1_D2*%
X107695999Y-71119999D03*
%TO.P,J4,17,Pin_17*%
%TO.N,D0*%
X107695999Y-68579999D03*
%TO.P,J4,18,Pin_18*%
%TO.N,D1*%
X107695999Y-66039999D03*
%TO.P,J4,19,Pin_19*%
%TO.N,D2*%
X107695999Y-63499999D03*
%TO.P,J4,20,Pin_20*%
%TO.N,D3*%
X107695999Y-60959999D03*
%TO.P,J4,21,Pin_21*%
%TO.N,D4*%
X107695999Y-58419999D03*
%TO.P,J4,22,Pin_22*%
%TO.N,D5*%
X107695999Y-55879999D03*
%TO.P,J4,23,Pin_23*%
%TO.N,D6*%
X107695999Y-53339999D03*
%TO.P,J4,24,Pin_24*%
%TO.N,D7*%
X107695999Y-50799999D03*
%TD*%
D32*
%TO.N,Net-(J3-Pin_6)*%
X106172000Y-98298000D03*
%TO.N,Net-(J3-Pin_9)*%
X105192300Y-97472900D03*
%TO.N,IRQ*%
X117657800Y-118375300D03*
%TO.N,4016_EN*%
X128421500Y-91391200D03*
X123449000Y-90139400D03*
%TO.N,AudIn*%
X102779800Y-102362000D03*
%TO.N,A1_Chip*%
X128048400Y-103912900D03*
X124223700Y-81817900D03*
%TO.N,A0_Chip*%
X125059100Y-111610900D03*
X128803700Y-80278700D03*
%TO.N,CS_Chip*%
X119642000Y-116638900D03*
X126181900Y-76026300D03*
%TO.N,CS_*%
X124381900Y-74552300D03*
X105084300Y-118474000D03*
%TO.N,A1*%
X119915500Y-81228500D03*
%TO.N,A13*%
X122773100Y-84080600D03*
%TO.N,Net-(BU9480F1-LRCK)*%
X131502900Y-68104600D03*
X131913400Y-121478500D03*
%TO.N,Net-(BU9480F1-SDAT)*%
X132205300Y-70985600D03*
X129540000Y-121459000D03*
%TO.N,Net-(BU9480F1-BCLK)*%
X134481200Y-81066900D03*
X128270000Y-121449300D03*
%TO.N,OUT1_*%
X134139300Y-95438700D03*
X100173500Y-120078400D03*
%TO.N,D6_buf*%
X127297800Y-102187200D03*
X122187200Y-91062900D03*
%TO.N,D0_buf*%
X131777200Y-96504200D03*
X129115000Y-84937500D03*
%TO.N,D3_buf*%
X133650800Y-101714500D03*
X133947500Y-93179000D03*
%TO.N,OUT1*%
X123821800Y-94244900D03*
%TO.N,D0*%
X129169200Y-96726800D03*
%TO.N,D1*%
X129181700Y-100509400D03*
%TO.N,D2*%
X127831000Y-84168000D03*
X131102100Y-94202000D03*
%TO.N,D3*%
X128314700Y-83422900D03*
X132765200Y-99669800D03*
%TO.N,D5*%
X122963800Y-88394800D03*
X128009100Y-88419300D03*
%TO.N,D6*%
X122063200Y-89910000D03*
X127277500Y-99083800D03*
X127990200Y-90933800D03*
%TO.N,D7*%
X131829700Y-85291500D03*
X134106100Y-88464400D03*
%TO.N,GND*%
X121920000Y-118579700D03*
X124740400Y-57912000D03*
X131275500Y-107684700D03*
X134024100Y-107799700D03*
X124049100Y-69588500D03*
X133365800Y-86821900D03*
X132696700Y-78249900D03*
%TO.N,+5V*%
X125919000Y-95313900D03*
X120107900Y-77702200D03*
X124498400Y-82931000D03*
X111804900Y-77162200D03*
%TD*%
D33*
%TO.N,GND*%
X130048000Y-78356000D02*
X130172000Y-78232000D01*
X130172000Y-78232000D02*
X132678800Y-78232000D01*
X132678800Y-78232000D02*
X132696700Y-78249900D01*
D34*
%TO.N,Net-(BU9480F1-LRCK)*%
X132080000Y-121311900D02*
X132080000Y-120044000D01*
X131913400Y-121478500D02*
X132080000Y-121311900D01*
%TO.N,Net-(X1-OUT)*%
X111082000Y-120650000D02*
X112070300Y-120650000D01*
X112070300Y-120650000D02*
X113848300Y-122428000D01*
X113848300Y-122428000D02*
X133209900Y-122428000D01*
X133209900Y-122428000D02*
X134620000Y-121017900D01*
X134620000Y-121017900D02*
X134620000Y-120044000D01*
%TO.N,CS_*%
X105084300Y-118474000D02*
X104686300Y-118872000D01*
X104686300Y-118872000D02*
X103756000Y-118872000D01*
%TO.N,D5*%
X107393000Y-59690000D02*
X108458000Y-59690000D01*
X106586300Y-56989700D02*
X106586300Y-58883300D01*
X106586300Y-58883300D02*
X107393000Y-59690000D01*
X110870600Y-62102600D02*
X110870600Y-67718000D01*
X108458000Y-59690000D02*
X110870600Y-62102600D01*
X107696000Y-55880000D02*
X106586300Y-56989700D01*
X110870600Y-67718000D02*
X113002600Y-69850000D01*
X113002600Y-69850000D02*
X113602000Y-69850000D01*
X113602000Y-69850000D02*
X118229000Y-74477000D01*
X120673200Y-86741000D02*
X120969000Y-86741000D01*
X118229000Y-84296800D02*
X120673200Y-86741000D01*
X118229000Y-74477000D02*
X118229000Y-84296800D01*
%TO.N,D6*%
X107372800Y-62230000D02*
X107990500Y-62230000D01*
X120701600Y-89281000D02*
X120969000Y-89281000D01*
X107514300Y-53340000D02*
X106230600Y-54623700D01*
X106230600Y-54623700D02*
X106230600Y-61087800D01*
X107990500Y-62230000D02*
X110509100Y-64748600D01*
X107696000Y-53340000D02*
X107514300Y-53340000D01*
X117386900Y-85966300D02*
X120701600Y-89281000D01*
X110509100Y-64748600D02*
X110509100Y-69909200D01*
X110509100Y-69909200D02*
X112989900Y-72390000D01*
X112989900Y-72390000D02*
X113594800Y-72390000D01*
X106230600Y-61087800D02*
X107372800Y-62230000D01*
X113594800Y-72390000D02*
X117386900Y-76182100D01*
X117386900Y-76182100D02*
X117386900Y-85966300D01*
%TO.N,Joy1_OE*%
X107696000Y-81280000D02*
X107696000Y-81183900D01*
X107696000Y-81183900D02*
X102712100Y-76200000D01*
X102712100Y-76200000D02*
X101092000Y-76200000D01*
X101092000Y-76200000D02*
X99822000Y-74930000D01*
%TO.N,A14*%
X113284000Y-93980000D02*
X109863202Y-97400798D01*
X105630881Y-115062000D02*
X103756000Y-115062000D01*
X109863202Y-97400798D02*
X109863202Y-110829679D01*
X109863202Y-110829679D02*
X105630881Y-115062000D01*
%TO.N,R-W*%
X103471400Y-116332000D02*
X103756000Y-116332000D01*
%TO.N,ROMSEL*%
X109515701Y-88179701D02*
X107696000Y-86360000D01*
X106793940Y-113407501D02*
X109515701Y-110685739D01*
%TO.N,R-W*%
X102889600Y-113060000D02*
X102519200Y-113430400D01*
X102519200Y-113430400D02*
X102519200Y-115379800D01*
%TO.N,ROMSEL*%
X103756000Y-113792000D02*
X104140499Y-113407501D01*
X104140499Y-113407501D02*
X106793940Y-113407501D01*
X109515701Y-110685739D02*
X109515701Y-88179701D01*
%TO.N,R-W*%
X107696000Y-91440000D02*
X108458000Y-91440000D01*
X108458000Y-91440000D02*
X109168200Y-92150200D01*
X109168200Y-92150200D02*
X109168200Y-110541800D01*
X109168200Y-110541800D02*
X106650000Y-113060000D01*
X106650000Y-113060000D02*
X102889600Y-113060000D01*
X102519200Y-115379800D02*
X103471400Y-116332000D01*
%TO.N,Net-(J4-Pin_9)*%
X107696000Y-88900000D02*
X106172000Y-90424000D01*
X106172000Y-90424000D02*
X106172000Y-91729800D01*
X106172000Y-91729800D02*
X107152200Y-92710000D01*
X107152200Y-92710000D02*
X108013900Y-92710000D01*
X108013900Y-92710000D02*
X108802100Y-93498200D01*
X108802100Y-93498200D02*
X108802100Y-97009800D01*
X108802100Y-97009800D02*
X108195200Y-97616700D01*
X108195200Y-97616700D02*
X106252700Y-97616700D01*
X106252700Y-97616700D02*
X104394000Y-95758000D01*
%TO.N,Net-(J3-Pin_6)*%
X104394000Y-100838000D02*
X104394000Y-100330000D01*
X104394000Y-100330000D02*
X106172000Y-98552000D01*
X106172000Y-98552000D02*
X106172000Y-98298000D01*
%TO.N,OUT1*%
X108819800Y-100183800D02*
X108819800Y-107097000D01*
X104777500Y-107862700D02*
X103886000Y-108754200D01*
X107696000Y-99060000D02*
X108819800Y-100183800D01*
X108819800Y-107097000D02*
X108054100Y-107862700D01*
X108054100Y-107862700D02*
X104777500Y-107862700D01*
X103886000Y-108754200D02*
X103886000Y-109720600D01*
X103886000Y-109720600D02*
X99814600Y-113792000D01*
X99814600Y-113792000D02*
X98806000Y-113792000D01*
%TO.N,AudIn*%
X102744000Y-98298000D02*
X102744000Y-102326200D01*
X102744000Y-100838000D02*
X102779800Y-100873800D01*
X102779800Y-100873800D02*
X102779800Y-102362000D01*
X102744000Y-102326200D02*
X102779800Y-102362000D01*
D33*
%TO.N,GND*%
X103498200Y-105467200D02*
X102304800Y-105467200D01*
X98806000Y-108966000D02*
X98806000Y-112522000D01*
X102304800Y-105467200D02*
X98806000Y-108966000D01*
X102362000Y-87630000D02*
X101346000Y-88646000D01*
X101346000Y-104648000D02*
X102165200Y-105467200D01*
X101346000Y-88646000D02*
X101346000Y-104648000D01*
X102165200Y-105467200D02*
X103498200Y-105467200D01*
%TO.N,+5V*%
X113284000Y-109220000D02*
X113284000Y-109299000D01*
X113284000Y-109299000D02*
X115824000Y-111839000D01*
X133858000Y-42926000D02*
X132334000Y-42926000D01*
X132334000Y-42926000D02*
X131826000Y-43434000D01*
X131826000Y-43434000D02*
X127407651Y-43434000D01*
X127407651Y-43434000D02*
X126873000Y-42899349D01*
X126873000Y-42899349D02*
X126873000Y-41467000D01*
X127407651Y-43434000D02*
X107442000Y-43434000D01*
X107442000Y-43434000D02*
X104060000Y-46816000D01*
X104060000Y-46816000D02*
X104060000Y-71171400D01*
%TO.N,GND*%
X125669000Y-57846000D02*
X125603000Y-57912000D01*
X125603000Y-57912000D02*
X124740400Y-57912000D01*
X127635000Y-54376500D02*
X127797500Y-54539000D01*
X130810000Y-54539000D02*
X131755000Y-53594000D01*
X127797500Y-54539000D02*
X130810000Y-54539000D01*
X131755000Y-53594000D02*
X135165400Y-53594000D01*
X135165400Y-53594000D02*
X135224500Y-53653100D01*
X130683000Y-47625000D02*
X130302000Y-48006000D01*
X130302000Y-50038000D02*
X129032000Y-51308000D01*
X129032000Y-51308000D02*
X127254000Y-51308000D01*
X130302000Y-48006000D02*
X130302000Y-50038000D01*
X130683000Y-46417000D02*
X130683000Y-47625000D01*
X127254000Y-51308000D02*
X125669000Y-52893000D01*
X125669000Y-52893000D02*
X125669000Y-55458500D01*
D34*
%TO.N,Net-(U3B-+)*%
X133858000Y-41276000D02*
X133858000Y-41831574D01*
X134112000Y-48768000D02*
X134112000Y-52644000D01*
X133858000Y-41831574D02*
X134571000Y-42544574D01*
X134571000Y-42544574D02*
X134571000Y-48309000D01*
X134571000Y-48309000D02*
X134112000Y-48768000D01*
D33*
%TO.N,GND*%
X135316000Y-38862000D02*
X135316000Y-49022000D01*
X135316000Y-49022000D02*
X135062000Y-49276000D01*
D34*
%TO.N,Net-(U3A-+)*%
X133858000Y-46609000D02*
X132207000Y-44958000D01*
X132207000Y-44958000D02*
X129413000Y-44958000D01*
X129413000Y-46417000D02*
X129413000Y-44958000D01*
X127605000Y-47401000D02*
X126535500Y-48470500D01*
X129413000Y-44958000D02*
X128078285Y-44958000D01*
X128078285Y-44958000D02*
X127605000Y-45431285D01*
X127605000Y-45431285D02*
X127605000Y-47401000D01*
X126535500Y-50778000D02*
X124587000Y-52726500D01*
X126535500Y-48470500D02*
X126535500Y-50778000D01*
%TO.N,Net-(U3B--)*%
X128039500Y-38926000D02*
X129413000Y-38926000D01*
X127721500Y-38608000D02*
X128039500Y-38926000D01*
X129413000Y-41467000D02*
X129413000Y-38926000D01*
X129413000Y-38926000D02*
X129731000Y-38608000D01*
%TO.N,Net-(U3A--)*%
X128738500Y-49276000D02*
X128143000Y-48680500D01*
X129500500Y-49276000D02*
X128738500Y-49276000D01*
X128143000Y-46417000D02*
X128143000Y-48680500D01*
X128143000Y-48680500D02*
X127547500Y-49276000D01*
%TO.N,Net-(J7-K)*%
X103061000Y-109107500D02*
X103061000Y-106680000D01*
X102948500Y-109220000D02*
X103061000Y-109107500D01*
%TO.N,Net-(J3-Pin_9)*%
X105192300Y-97499700D02*
X105192300Y-97472900D01*
X104394000Y-98298000D02*
X105192300Y-97499700D01*
%TO.N,Joy1_D1*%
X101092000Y-78740000D02*
X99822000Y-77470000D01*
X103583300Y-78740000D02*
X101092000Y-78740000D01*
X107232000Y-82388700D02*
X103583300Y-78740000D01*
X111087000Y-82388700D02*
X107232000Y-82388700D01*
X112195700Y-81280000D02*
X111087000Y-82388700D01*
X113284000Y-81280000D02*
X112195700Y-81280000D01*
%TO.N,Net-(U3B-+)*%
X133667000Y-41467000D02*
X133858000Y-41276000D01*
X130683000Y-41467000D02*
X133667000Y-41467000D01*
X127722500Y-52639000D02*
X130810000Y-52639000D01*
X127635000Y-52726500D02*
X127722500Y-52639000D01*
X134107000Y-52639000D02*
X134112000Y-52644000D01*
X130810000Y-52639000D02*
X134107000Y-52639000D01*
%TO.N,Net-(U3A-+)*%
X124438500Y-52578000D02*
X121285000Y-52578000D01*
X124587000Y-52726500D02*
X124438500Y-52578000D01*
X121285000Y-52578000D02*
X117983000Y-52578000D01*
%TO.N,Net-(YMF288-~{RST})*%
X115824000Y-116095000D02*
X115824000Y-113489000D01*
X118210600Y-113489000D02*
X115824000Y-113489000D01*
X121920000Y-109779600D02*
X118210600Y-113489000D01*
X121920000Y-109474000D02*
X121920000Y-109779600D01*
%TO.N,Net-(BU9480F1-ROUT)*%
X135255000Y-59555000D02*
X134112000Y-58412000D01*
X135255000Y-61787000D02*
X135255000Y-59555000D01*
%TO.N,Net-(C13-Pad1)*%
X131635000Y-38862000D02*
X131381000Y-38608000D01*
X133416000Y-38862000D02*
X131635000Y-38862000D01*
%TO.N,Net-(C12-Pad1)*%
X133162000Y-49276000D02*
X131150500Y-49276000D01*
%TO.N,Net-(C11-Pad1)*%
X126071500Y-38826400D02*
X126071500Y-38608000D01*
X128143000Y-40897900D02*
X126071500Y-38826400D01*
X128143000Y-41467000D02*
X128143000Y-40897900D01*
X122993600Y-38826400D02*
X121688000Y-40132000D01*
X126071500Y-38826400D02*
X122993600Y-38826400D01*
%TO.N,Net-(C10-Pad1)*%
X124352000Y-45847000D02*
X125897500Y-47392500D01*
X121710000Y-45847000D02*
X124352000Y-45847000D01*
X126873000Y-46417000D02*
X125897500Y-47392500D01*
X125897500Y-47392500D02*
X125897500Y-49276000D01*
%TO.N,Net-(C7-Pad1)*%
X134112000Y-54544000D02*
X134112000Y-56762000D01*
X134112000Y-56762000D02*
X130810000Y-56762000D01*
%TO.N,Net-(C6-Pad1)*%
X121222000Y-56381000D02*
X117983000Y-56381000D01*
X121412000Y-56571000D02*
X121222000Y-56381000D01*
X117983000Y-54478000D02*
X117983000Y-56381000D01*
X117983000Y-56381000D02*
X117856000Y-56508000D01*
%TO.N,Net-(C5-Pad1)*%
X128205000Y-63754000D02*
X128205000Y-62484000D01*
X134047000Y-76327000D02*
X134047000Y-73318500D01*
X133847700Y-73318500D02*
X134047000Y-73318500D01*
X130084800Y-69555600D02*
X133847700Y-73318500D01*
X130084800Y-65310400D02*
X130084800Y-69555600D01*
X128528400Y-63754000D02*
X130084800Y-65310400D01*
X128205000Y-63754000D02*
X128528400Y-63754000D01*
%TO.N,Net-(C4-Pad1)*%
X123255000Y-62484000D02*
X123255000Y-61214000D01*
X116651000Y-66628000D02*
X116651000Y-64008000D01*
X116079300Y-61214000D02*
X123255000Y-61214000D01*
X115686600Y-61606700D02*
X116079300Y-61214000D01*
X115686600Y-63043600D02*
X115686600Y-61606700D01*
X116651000Y-64008000D02*
X115686600Y-63043600D01*
%TO.N,IRQ*%
X117657800Y-119591800D02*
X117657800Y-118375300D01*
X118110000Y-120044000D02*
X117657800Y-119591800D01*
%TO.N,FF_Reset*%
X123422800Y-77104300D02*
X128205000Y-77104300D01*
X123063000Y-77464100D02*
X123422800Y-77104300D01*
X123063000Y-80837000D02*
X123063000Y-77464100D01*
X120969000Y-82931000D02*
X123063000Y-80837000D01*
X128205000Y-68834000D02*
X128205000Y-77104300D01*
X128205000Y-80704000D02*
X130432000Y-82931000D01*
X128205000Y-77104300D02*
X128205000Y-80704000D01*
%TO.N,Net-(R14-Pad2)*%
X127194700Y-61908100D02*
X124496800Y-64606000D01*
X129214200Y-61908100D02*
X127194700Y-61908100D01*
X132814700Y-65508600D02*
X129214200Y-61908100D01*
X133011700Y-65508600D02*
X132814700Y-65508600D01*
X133253900Y-65750800D02*
X133011700Y-65508600D01*
X133253900Y-70875400D02*
X133253900Y-65750800D01*
X134047000Y-71668500D02*
X133253900Y-70875400D01*
X123577600Y-66294000D02*
X123255000Y-66294000D01*
X124496800Y-65374800D02*
X123577600Y-66294000D01*
X124496800Y-64606000D02*
X124496800Y-65374800D01*
X123644800Y-63754000D02*
X123255000Y-63754000D01*
X124496800Y-64606000D02*
X123644800Y-63754000D01*
%TO.N,Net-(C3-Pad2)*%
X123255000Y-65024000D02*
X119888000Y-65024000D01*
X119888000Y-64056000D02*
X119888000Y-65024000D01*
X119888000Y-65024000D02*
X119888000Y-66676000D01*
%TO.N,4016_EN*%
X116699000Y-68326000D02*
X119888000Y-68326000D01*
X116651000Y-68278000D02*
X116699000Y-68326000D01*
X121717900Y-70155900D02*
X121717900Y-75048200D01*
X119888000Y-68326000D02*
X121717900Y-70155900D01*
X129508900Y-79342100D02*
X134746200Y-84579400D01*
X129508900Y-68576200D02*
X129508900Y-79342100D01*
X129203500Y-68270800D02*
X129508900Y-68576200D01*
X127212100Y-68270800D02*
X129203500Y-68270800D01*
X125683600Y-69799300D02*
X127212100Y-68270800D01*
X125683600Y-74215500D02*
X125683600Y-69799300D01*
X124850900Y-75048200D02*
X125683600Y-74215500D01*
X121717900Y-75048200D02*
X124850900Y-75048200D01*
X135124600Y-84201000D02*
X135382000Y-84201000D01*
X134746200Y-84579400D02*
X135124600Y-84201000D01*
X121717900Y-77796100D02*
X121158000Y-78356000D01*
X121717900Y-75048200D02*
X121717900Y-77796100D01*
X128488300Y-91324400D02*
X128421500Y-91391200D01*
X128488300Y-90918600D02*
X128488300Y-91324400D01*
X129490900Y-89916000D02*
X128488300Y-90918600D01*
X131325000Y-89916000D02*
X129490900Y-89916000D01*
X132318100Y-88922900D02*
X131325000Y-89916000D01*
X132318100Y-87007500D02*
X132318100Y-88922900D01*
X134746200Y-84579400D02*
X132318100Y-87007500D01*
X128421500Y-94066500D02*
X130367000Y-96012000D01*
X128421500Y-91391200D02*
X128421500Y-94066500D01*
X120969000Y-94465200D02*
X120969000Y-96012000D01*
X123449000Y-91985200D02*
X120969000Y-94465200D01*
X123449000Y-90139400D02*
X123449000Y-91985200D01*
%TO.N,Net-(U2-Pad10)*%
X128205000Y-65024000D02*
X128205000Y-66294000D01*
X128205000Y-66294000D02*
X128205000Y-67564000D01*
%TO.N,Net-(J6-PadSN)*%
X108728300Y-47787000D02*
X108228300Y-47287000D01*
X113990000Y-47787000D02*
X108728300Y-47787000D01*
X106990000Y-47287000D02*
X107609200Y-47287000D01*
X107609200Y-47287000D02*
X108228300Y-47287000D01*
X116808200Y-99790800D02*
X116332000Y-100267000D01*
X116808200Y-78108000D02*
X116808200Y-99790800D01*
X113630200Y-74930000D02*
X116808200Y-78108000D01*
X112970100Y-74930000D02*
X113630200Y-74930000D01*
X109527800Y-71487700D02*
X112970100Y-74930000D01*
X109527800Y-68817600D02*
X109527800Y-71487700D01*
X108020200Y-67310000D02*
X109527800Y-68817600D01*
X107425700Y-67310000D02*
X108020200Y-67310000D01*
X105882200Y-65766500D02*
X107425700Y-67310000D01*
X105882200Y-49014000D02*
X105882200Y-65766500D01*
X107609200Y-47287000D02*
X105882200Y-49014000D01*
%TO.N,AudIn*%
X114372300Y-103876700D02*
X116332000Y-101917000D01*
X114372300Y-104140000D02*
X114372300Y-103876700D01*
X113284000Y-104140000D02*
X114372300Y-104140000D01*
X102744000Y-98298000D02*
X102744000Y-95758000D01*
%TO.N,Net-(BU9480F1-REF)*%
X127698500Y-57716500D02*
X127569000Y-57846000D01*
X131228200Y-57716500D02*
X127698500Y-57716500D01*
X132034700Y-58523000D02*
X131228200Y-57716500D01*
X132034700Y-62631900D02*
X132034700Y-58523000D01*
X132406600Y-63003800D02*
X132034700Y-62631900D01*
X133080000Y-63003800D02*
X132406600Y-63003800D01*
X133985000Y-62098800D02*
X133080000Y-63003800D01*
X133985000Y-61787000D02*
X133985000Y-62098800D01*
%TO.N,A14*%
X116142000Y-93980000D02*
X113284000Y-93980000D01*
%TO.N,OUT0*%
X101092000Y-81280000D02*
X99822000Y-80010000D01*
X101092000Y-85404900D02*
X101092000Y-81280000D01*
X101865500Y-86178400D02*
X101092000Y-85404900D01*
X102467200Y-86178400D02*
X101865500Y-86178400D01*
X104010700Y-87721900D02*
X102467200Y-86178400D01*
X104010700Y-91882400D02*
X104010700Y-87721900D01*
X107560000Y-95431700D02*
X104010700Y-91882400D01*
X107696000Y-95431700D02*
X107560000Y-95431700D01*
X107696000Y-96520000D02*
X107696000Y-95431700D01*
%TO.N,Aud*%
X130305100Y-58916900D02*
X130810000Y-58412000D01*
X123787500Y-58916900D02*
X130305100Y-58916900D01*
X122445100Y-57574500D02*
X123787500Y-58916900D01*
X118439500Y-57574500D02*
X122445100Y-57574500D01*
X117856000Y-58158000D02*
X118439500Y-57574500D01*
X116650300Y-58158000D02*
X117856000Y-58158000D01*
X114372300Y-55880000D02*
X116650300Y-58158000D01*
X113284000Y-55880000D02*
X114372300Y-55880000D01*
%TO.N,CS_buf*%
X124968000Y-69017600D02*
X124968000Y-73406000D01*
X123514400Y-67564000D02*
X124968000Y-69017600D01*
X123255000Y-67564000D02*
X123514400Y-67564000D01*
%TO.N,A1_Chip*%
X128824900Y-104689400D02*
X128048400Y-103912900D01*
X128824900Y-112096800D02*
X128824900Y-104689400D01*
X125730000Y-115191700D02*
X128824900Y-112096800D01*
X125730000Y-120044000D02*
X125730000Y-115191700D01*
X124968000Y-81073600D02*
X124223700Y-81817900D01*
X124968000Y-78356000D02*
X124968000Y-81073600D01*
%TO.N,A0_Chip*%
X124460000Y-112210000D02*
X125059100Y-111610900D01*
X124460000Y-120044000D02*
X124460000Y-112210000D01*
X128778000Y-80253000D02*
X128778000Y-78356000D01*
X128803700Y-80278700D02*
X128778000Y-80253000D01*
%TO.N,CS_Chip*%
X126238000Y-75970200D02*
X126238000Y-73406000D01*
X126181900Y-76026300D02*
X126238000Y-75970200D01*
X120650000Y-117646900D02*
X119642000Y-116638900D01*
X120650000Y-120044000D02*
X120650000Y-117646900D01*
%TO.N,CS_*%
X124381900Y-74089900D02*
X124381900Y-74552300D01*
X123698000Y-73406000D02*
X124381900Y-74089900D01*
%TO.N,A1*%
X122428000Y-78716000D02*
X122428000Y-78356000D01*
X119915500Y-81228500D02*
X122428000Y-78716000D01*
%TO.N,A13*%
X113284000Y-91440000D02*
X116126000Y-91440000D01*
X126238000Y-80226000D02*
X126238000Y-78356000D01*
X127163900Y-81151900D02*
X126238000Y-80226000D01*
X127163900Y-84504400D02*
X127163900Y-81151900D01*
X126911800Y-84756500D02*
X127163900Y-84504400D01*
X123449000Y-84756500D02*
X126911800Y-84756500D01*
X122773100Y-84080600D02*
X123449000Y-84756500D01*
%TO.N,Net-(BU9480F1-LOUT)*%
X123866000Y-60675000D02*
X121412000Y-58221000D01*
X130333000Y-60675000D02*
X123866000Y-60675000D01*
X131445000Y-61787000D02*
X130333000Y-60675000D01*
%TO.N,Net-(BU9480F1-LRCK)*%
X131445000Y-68046700D02*
X131502900Y-68104600D01*
X131445000Y-66737000D02*
X131445000Y-68046700D01*
%TO.N,Net-(BU9480F1-SDAT)*%
X132205300Y-67246700D02*
X132205300Y-70985600D01*
X132715000Y-66737000D02*
X132205300Y-67246700D01*
X129540000Y-120044000D02*
X129540000Y-121459000D01*
%TO.N,Net-(BU9480F1-BCLK)*%
X128270000Y-120044000D02*
X128270000Y-121449300D01*
X135011400Y-80536700D02*
X134481200Y-81066900D01*
X135011400Y-69603300D02*
X135011400Y-80536700D01*
X133985000Y-68576900D02*
X135011400Y-69603300D01*
X133985000Y-66737000D02*
X133985000Y-68576900D01*
%TO.N,OUT1_*%
X98869600Y-120078400D02*
X98806000Y-120142000D01*
X100173500Y-120078400D02*
X98869600Y-120078400D01*
X135382000Y-94196000D02*
X134139300Y-95438700D01*
X135382000Y-91821000D02*
X135382000Y-94196000D01*
%TO.N,D0_Chip*%
X130661700Y-99822000D02*
X130367000Y-99822000D01*
X133120900Y-102281200D02*
X130661700Y-99822000D01*
X133120900Y-109244900D02*
X133120900Y-102281200D01*
X133350000Y-109474000D02*
X133120900Y-109244900D01*
%TO.N,D1_Chip*%
X132080000Y-105081500D02*
X132080000Y-109474000D01*
X130630500Y-103632000D02*
X132080000Y-105081500D01*
X130367000Y-103632000D02*
X130630500Y-103632000D01*
%TO.N,D3_Chip*%
X129540000Y-109787800D02*
X129540000Y-109474000D01*
X130924300Y-111172100D02*
X129540000Y-109787800D01*
X133230700Y-111172100D02*
X130924300Y-111172100D01*
X133893900Y-110508900D02*
X133230700Y-111172100D01*
X133893900Y-108432800D02*
X133893900Y-110508900D01*
X133503400Y-108042300D02*
X133893900Y-108432800D01*
X133503400Y-106715600D02*
X133503400Y-108042300D01*
X135317000Y-104902000D02*
X133503400Y-106715600D01*
%TO.N,D2_Chip*%
X130810000Y-109801100D02*
X130810000Y-109474000D01*
X131781400Y-110772500D02*
X130810000Y-109801100D01*
X132409600Y-110772500D02*
X131781400Y-110772500D01*
X132638600Y-110543500D02*
X132409600Y-110772500D01*
X132638600Y-103041500D02*
X132638600Y-110543500D01*
X131420100Y-101823000D02*
X132638600Y-103041500D01*
X129543100Y-101823000D02*
X131420100Y-101823000D01*
X128724600Y-101004500D02*
X129543100Y-101823000D01*
X128724600Y-100742800D02*
X128724600Y-101004500D01*
X128693400Y-100711600D02*
X128724600Y-100742800D01*
X128693400Y-99967300D02*
X128693400Y-100711600D01*
X129506800Y-99153900D02*
X128693400Y-99967300D01*
X133106800Y-99153900D02*
X129506800Y-99153900D01*
X135044900Y-101092000D02*
X133106800Y-99153900D01*
X135317000Y-101092000D02*
X135044900Y-101092000D01*
%TO.N,D4_Chip*%
X121254300Y-103632000D02*
X120969000Y-103632000D01*
X122460600Y-104838300D02*
X121254300Y-103632000D01*
X122460600Y-110367800D02*
X122460600Y-104838300D01*
X123192300Y-111099500D02*
X122460600Y-110367800D01*
X126950000Y-111099500D02*
X123192300Y-111099500D01*
X128270000Y-109779500D02*
X126950000Y-111099500D01*
X128270000Y-109474000D02*
X128270000Y-109779500D01*
%TO.N,D5_Chip*%
X120140300Y-99822000D02*
X120969000Y-99822000D01*
X119335900Y-100626400D02*
X120140300Y-99822000D01*
X119335900Y-102254100D02*
X119335900Y-100626400D01*
X120078800Y-102997000D02*
X119335900Y-102254100D01*
X121913800Y-102997000D02*
X120078800Y-102997000D01*
X123825000Y-104908200D02*
X121913800Y-102997000D01*
X123825000Y-110525300D02*
X123825000Y-104908200D01*
X124050800Y-110751100D02*
X123825000Y-110525300D01*
X126050500Y-110751100D02*
X124050800Y-110751100D01*
X127000000Y-109801600D02*
X126050500Y-110751100D01*
X127000000Y-109474000D02*
X127000000Y-109801600D01*
%TO.N,D7_Chip*%
X125645900Y-101092000D02*
X125919000Y-101092000D01*
X124460000Y-102277900D02*
X125645900Y-101092000D01*
X124460000Y-109474000D02*
X124460000Y-102277900D01*
%TO.N,D6_Chip*%
X125730000Y-105091000D02*
X125730000Y-109474000D01*
X125919000Y-104902000D02*
X125730000Y-105091000D01*
%TO.N,D4_buf*%
X120648800Y-102362000D02*
X120969000Y-102362000D01*
X119726100Y-101439300D02*
X120648800Y-102362000D01*
X119726100Y-100772300D02*
X119726100Y-101439300D01*
X119945300Y-100553100D02*
X119726100Y-100772300D01*
X121819800Y-100553100D02*
X119945300Y-100553100D01*
X122183000Y-100189900D02*
X121819800Y-100553100D01*
X122183000Y-93747600D02*
X122183000Y-100189900D01*
X122636900Y-93293700D02*
X122183000Y-93747600D01*
X122636900Y-93289900D02*
X122636900Y-93293700D01*
X123937300Y-91989500D02*
X122636900Y-93289900D01*
X123937300Y-86890300D02*
X123937300Y-91989500D01*
X121248000Y-84201000D02*
X123937300Y-86890300D01*
X120969000Y-84201000D02*
X121248000Y-84201000D01*
%TO.N,D5_buf*%
X120706200Y-98552000D02*
X120969000Y-98552000D01*
X119385000Y-97230800D02*
X120706200Y-98552000D01*
X119385000Y-94999200D02*
X119385000Y-97230800D01*
X122675500Y-91708700D02*
X119385000Y-94999200D01*
X122675500Y-90549000D02*
X122675500Y-91708700D01*
X122612400Y-90485900D02*
X122675500Y-90549000D01*
X122612400Y-89399200D02*
X122612400Y-90485900D01*
X121224200Y-88011000D02*
X122612400Y-89399200D01*
X120969000Y-88011000D02*
X121224200Y-88011000D01*
%TO.N,D6_buf*%
X127297800Y-102523300D02*
X127297800Y-102187200D01*
X126189100Y-103632000D02*
X127297800Y-102523300D01*
X125919000Y-103632000D02*
X126189100Y-103632000D01*
X121480900Y-91062900D02*
X120969000Y-90551000D01*
X122187200Y-91062900D02*
X121480900Y-91062900D01*
%TO.N,D7_buf*%
X125637200Y-90551000D02*
X125919000Y-90551000D01*
X124687100Y-91501100D02*
X125637200Y-90551000D01*
X124687100Y-92643200D02*
X124687100Y-91501100D01*
X123333500Y-93996800D02*
X124687100Y-92643200D01*
X123333500Y-97495700D02*
X123333500Y-93996800D01*
X125659800Y-99822000D02*
X123333500Y-97495700D01*
X125919000Y-99822000D02*
X125659800Y-99822000D01*
%TO.N,D0_buf*%
X129851500Y-84201000D02*
X129115000Y-84937500D01*
X130432000Y-84201000D02*
X129851500Y-84201000D01*
X131777200Y-97450500D02*
X131777200Y-96504200D01*
X130675700Y-98552000D02*
X131777200Y-97450500D01*
X130367000Y-98552000D02*
X130675700Y-98552000D01*
%TO.N,D1_buf*%
X129540000Y-102362000D02*
X130367000Y-102362000D01*
X128376300Y-101198300D02*
X129540000Y-102362000D01*
X128376300Y-100887100D02*
X128376300Y-101198300D01*
X128345100Y-100855900D02*
X128376300Y-100887100D01*
X128345100Y-97267100D02*
X128345100Y-100855900D01*
X127501900Y-96423900D02*
X128345100Y-97267100D01*
X127501900Y-90626600D02*
X127501900Y-96423900D01*
X130117500Y-88011000D02*
X127501900Y-90626600D01*
X130432000Y-88011000D02*
X130117500Y-88011000D01*
%TO.N,D2_buf*%
X130135200Y-90551000D02*
X130432000Y-90551000D01*
X129218100Y-91468100D02*
X130135200Y-90551000D01*
X129218100Y-93251400D02*
X129218100Y-91468100D01*
X133155500Y-97188800D02*
X129218100Y-93251400D01*
X133155500Y-97934900D02*
X133155500Y-97188800D01*
X135042600Y-99822000D02*
X133155500Y-97934900D01*
X135317000Y-99822000D02*
X135042600Y-99822000D01*
%TO.N,D3_buf*%
X135126800Y-90551000D02*
X135382000Y-90551000D01*
X133947500Y-91730300D02*
X135126800Y-90551000D01*
X133947500Y-93179000D02*
X133947500Y-91730300D01*
X133650800Y-102260900D02*
X133650800Y-101714500D01*
X135021900Y-103632000D02*
X133650800Y-102260900D01*
X135317000Y-103632000D02*
X135021900Y-103632000D01*
%TO.N,A1_buf*%
X125071900Y-84201000D02*
X125919000Y-84201000D01*
X123698000Y-82827100D02*
X125071900Y-84201000D01*
X123698000Y-78356000D02*
X123698000Y-82827100D01*
%TO.N,A0_buf*%
X126253600Y-88011000D02*
X125919000Y-88011000D01*
X128626500Y-85638100D02*
X126253600Y-88011000D01*
X128626500Y-84645700D02*
X128626500Y-85638100D01*
X128803600Y-84468600D02*
X128626500Y-84645700D01*
X128803600Y-83200200D02*
X128803600Y-84468600D01*
X127512300Y-81908900D02*
X128803600Y-83200200D01*
X127512300Y-78360300D02*
X127512300Y-81908900D01*
X127508000Y-78356000D02*
X127512300Y-78360300D01*
%TO.N,OUT1*%
X98806000Y-113792000D02*
X98806000Y-115062000D01*
X125919000Y-92147700D02*
X125919000Y-91821000D01*
X123821800Y-94244900D02*
X125919000Y-92147700D01*
%TO.N,D0*%
X129724400Y-97282000D02*
X129169200Y-96726800D01*
X130367000Y-97282000D02*
X129724400Y-97282000D01*
%TO.N,D1*%
X129764300Y-101092000D02*
X129181700Y-100509400D01*
X130367000Y-101092000D02*
X129764300Y-101092000D01*
%TO.N,D2*%
X127831000Y-84330000D02*
X127831000Y-84168000D01*
X126690000Y-85471000D02*
X127831000Y-84330000D01*
X125919000Y-85471000D02*
X126690000Y-85471000D01*
X135061800Y-98552000D02*
X135317000Y-98552000D01*
X131102100Y-94592300D02*
X135061800Y-98552000D01*
X131102100Y-94202000D02*
X131102100Y-94592300D01*
%TO.N,D3*%
X126226200Y-86741000D02*
X125919000Y-86741000D01*
X128277900Y-84689300D02*
X126226200Y-86741000D01*
X128277900Y-84501600D02*
X128277900Y-84689300D01*
X128366300Y-84413200D02*
X128277900Y-84501600D01*
X128366300Y-83474500D02*
X128366300Y-84413200D01*
X128314700Y-83422900D02*
X128366300Y-83474500D01*
X132765200Y-100118800D02*
X132765200Y-99669800D01*
X135008400Y-102362000D02*
X132765200Y-100118800D01*
X135317000Y-102362000D02*
X135008400Y-102362000D01*
%TO.N,D4*%
X126937100Y-88564900D02*
X124705200Y-88564900D01*
X127172500Y-88329500D02*
X126937100Y-88564900D01*
X127172500Y-87888800D02*
X127172500Y-88329500D01*
X129590300Y-85471000D02*
X127172500Y-87888800D01*
X130432000Y-85471000D02*
X129590300Y-85471000D01*
X121773500Y-101092000D02*
X120969000Y-101092000D01*
X122636900Y-100228600D02*
X121773500Y-101092000D01*
X122636900Y-93786300D02*
X122636900Y-100228600D01*
X124320700Y-92102500D02*
X122636900Y-93786300D01*
X124320700Y-88949400D02*
X124320700Y-92102500D01*
X124705200Y-88564900D02*
X124320700Y-88949400D01*
X120700600Y-85471000D02*
X120969000Y-85471000D01*
X119740800Y-84511200D02*
X120700600Y-85471000D01*
X119740800Y-83636800D02*
X119740800Y-84511200D01*
X121954200Y-83636800D02*
X119740800Y-83636800D01*
X122233900Y-83916500D02*
X121954200Y-83636800D01*
X122233900Y-84340600D02*
X122233900Y-83916500D01*
X124705000Y-86811700D02*
X122233900Y-84340600D01*
X124705000Y-88564700D02*
X124705000Y-86811700D01*
X124705200Y-88564900D02*
X124705000Y-88564700D01*
X112156600Y-62880600D02*
X107696000Y-58420000D01*
X112156600Y-63973000D02*
X112156600Y-62880600D01*
X112953600Y-64770000D02*
X112156600Y-63973000D01*
X113584600Y-64770000D02*
X112953600Y-64770000D01*
X115315000Y-66500400D02*
X113584600Y-64770000D01*
X115315000Y-69668400D02*
X115315000Y-66500400D01*
X119165000Y-73518400D02*
X115315000Y-69668400D01*
X119165000Y-83061000D02*
X119165000Y-73518400D01*
X119740800Y-83636800D02*
X119165000Y-83061000D01*
%TO.N,D5*%
X121310000Y-86741000D02*
X122963800Y-88394800D01*
X120969000Y-86741000D02*
X121310000Y-86741000D01*
X120638500Y-97282000D02*
X120969000Y-97282000D01*
X119733400Y-96376900D02*
X120638500Y-97282000D01*
X119733400Y-95148800D02*
X119733400Y-96376900D01*
X123023800Y-91858400D02*
X119733400Y-95148800D01*
X123023800Y-90404700D02*
X123023800Y-91858400D01*
X122960700Y-90341600D02*
X123023800Y-90404700D01*
X122960700Y-88397900D02*
X122960700Y-90341600D01*
X122963800Y-88394800D02*
X122960700Y-88397900D01*
X129687400Y-86741000D02*
X128009100Y-88419300D01*
X130432000Y-86741000D02*
X129687400Y-86741000D01*
%TO.N,D6*%
X121434200Y-89281000D02*
X120969000Y-89281000D01*
X122063200Y-89910000D02*
X121434200Y-89281000D01*
X127277500Y-101269900D02*
X127277500Y-99083800D01*
X126185400Y-102362000D02*
X127277500Y-101269900D01*
X125919000Y-102362000D02*
X126185400Y-102362000D01*
X127990200Y-90828900D02*
X127990200Y-90933800D01*
X129538100Y-89281000D02*
X127990200Y-90828900D01*
X130432000Y-89281000D02*
X129538100Y-89281000D01*
%TO.N,D7*%
X127136000Y-89659500D02*
X126757500Y-89281000D01*
X127136000Y-93265800D02*
X127136000Y-89659500D01*
X124668900Y-95732900D02*
X127136000Y-93265800D01*
X124668900Y-97625500D02*
X124668900Y-95732900D01*
X125595400Y-98552000D02*
X124668900Y-97625500D01*
X125919000Y-98552000D02*
X125595400Y-98552000D01*
X126757500Y-89281000D02*
X125919000Y-89281000D01*
X127520800Y-88517700D02*
X126757500Y-89281000D01*
X127520800Y-88070300D02*
X127520800Y-88517700D01*
X129389000Y-86202100D02*
X127520800Y-88070300D01*
X131289300Y-86202100D02*
X129389000Y-86202100D01*
X131829700Y-85661700D02*
X131289300Y-86202100D01*
X131829700Y-85291500D02*
X131829700Y-85661700D01*
X134922700Y-89281000D02*
X134106100Y-88464400D01*
X135382000Y-89281000D02*
X134922700Y-89281000D01*
%TO.N,Net-(C11-Pad2)*%
X116433000Y-41787000D02*
X118088000Y-40132000D01*
X106990000Y-41787000D02*
X116433000Y-41787000D01*
%TO.N,Net-(C10-Pad2)*%
X117850000Y-45587000D02*
X118110000Y-45847000D01*
X113990000Y-45587000D02*
X117850000Y-45587000D01*
D33*
%TO.N,GND*%
X107696000Y-106680000D02*
X106492700Y-106680000D01*
X106492700Y-106680000D02*
X104711000Y-106680000D01*
X125669000Y-55458500D02*
X124587000Y-54376500D01*
X125669000Y-57846000D02*
X125669000Y-55458500D01*
X126553000Y-55458500D02*
X127635000Y-54376500D01*
X125669000Y-55458500D02*
X126553000Y-55458500D01*
X124485500Y-54478000D02*
X124587000Y-54376500D01*
X121285000Y-54478000D02*
X124485500Y-54478000D01*
X113284000Y-106680000D02*
X114487300Y-106680000D01*
X120969000Y-104902000D02*
X118723000Y-104902000D01*
X116130500Y-107494500D02*
X118110000Y-109474000D01*
X118723000Y-104902000D02*
X116130500Y-107494500D01*
X115301800Y-107494500D02*
X114487300Y-106680000D01*
X116130500Y-107494500D02*
X115301800Y-107494500D01*
X121920000Y-120044000D02*
X121920000Y-118579700D01*
X106990000Y-38387000D02*
X106990000Y-37283700D01*
X133550600Y-37096600D02*
X135316000Y-38862000D01*
X107177100Y-37096600D02*
X133550600Y-37096600D01*
X106990000Y-37283700D02*
X107177100Y-37096600D01*
X103498200Y-105467200D02*
X104711000Y-106680000D01*
X121920000Y-120544000D02*
X121920000Y-120044000D01*
X121028500Y-121435500D02*
X121920000Y-120544000D01*
X120303700Y-121435500D02*
X121028500Y-121435500D01*
X119380000Y-120511800D02*
X120303700Y-121435500D01*
X119380000Y-120044000D02*
X119380000Y-120511800D01*
X135224500Y-56934800D02*
X135224500Y-53653100D01*
X134572300Y-57587000D02*
X135224500Y-56934800D01*
X133643600Y-57587000D02*
X134572300Y-57587000D01*
X132715000Y-58515600D02*
X133643600Y-57587000D01*
X132715000Y-61787000D02*
X132715000Y-58515600D01*
X135224500Y-49438500D02*
X135062000Y-49276000D01*
X135224500Y-53653100D02*
X135224500Y-49438500D01*
X130367000Y-106776200D02*
X131275500Y-107684700D01*
X130367000Y-104902000D02*
X130367000Y-106776200D01*
X114555600Y-119263400D02*
X115824000Y-117995000D01*
X110268600Y-119263400D02*
X114555600Y-119263400D01*
X108882000Y-120650000D02*
X110268600Y-119263400D01*
X116047000Y-117772000D02*
X115824000Y-117995000D01*
X117907700Y-117772000D02*
X116047000Y-117772000D01*
X119380000Y-119244300D02*
X117907700Y-117772000D01*
X119380000Y-120044000D02*
X119380000Y-119244300D01*
X129942800Y-104902000D02*
X130367000Y-104902000D01*
X127912900Y-102872100D02*
X129942800Y-104902000D01*
X127912900Y-101078900D02*
X127912900Y-102872100D01*
X127881800Y-101047800D02*
X127912900Y-101078900D01*
X127881800Y-98815200D02*
X127881800Y-101047800D01*
X126348600Y-97282000D02*
X127881800Y-98815200D01*
X125919000Y-97282000D02*
X126348600Y-97282000D01*
X134620000Y-108395600D02*
X134024100Y-107799700D01*
X134620000Y-109474000D02*
X134620000Y-108395600D01*
X108882000Y-120650000D02*
X107778700Y-120650000D01*
X98327200Y-121412000D02*
X98806000Y-121412000D01*
X97447900Y-120532700D02*
X98327200Y-121412000D01*
X97447900Y-113458000D02*
X97447900Y-120532700D01*
X98383900Y-112522000D02*
X97447900Y-113458000D01*
X98806000Y-112522000D02*
X98383900Y-112522000D01*
X106335800Y-122092900D02*
X107778700Y-120650000D01*
X99486900Y-122092900D02*
X106335800Y-122092900D01*
X98806000Y-121412000D02*
X99486900Y-122092900D01*
X117546200Y-62108000D02*
X118741100Y-63302900D01*
X116651000Y-62108000D02*
X117546200Y-62108000D01*
X118741100Y-66840500D02*
X118741100Y-63302900D01*
X119401600Y-67501000D02*
X118741100Y-66840500D01*
X121180600Y-67501000D02*
X119401600Y-67501000D01*
X122513600Y-68834000D02*
X121180600Y-67501000D01*
X123255000Y-68834000D02*
X122513600Y-68834000D01*
X118741100Y-63302900D02*
X119888000Y-62156000D01*
X122428000Y-71170000D02*
X124009500Y-69588500D01*
X122428000Y-73406000D02*
X122428000Y-71170000D01*
X124049100Y-69588500D02*
X124009500Y-69588500D01*
X124009500Y-69588500D02*
X123255000Y-68834000D01*
X134024100Y-78249900D02*
X134047000Y-78227000D01*
X132696700Y-78249900D02*
X134024100Y-78249900D01*
X135778900Y-97282000D02*
X135317000Y-97282000D01*
X136672000Y-98175100D02*
X135778900Y-97282000D01*
X136672000Y-107422000D02*
X136672000Y-98175100D01*
X134620000Y-109474000D02*
X136672000Y-107422000D01*
X130432000Y-91821000D02*
X130940100Y-91821000D01*
X133365800Y-89395300D02*
X133365800Y-86821900D01*
X130940100Y-91821000D02*
X133365800Y-89395300D01*
X117792000Y-103971000D02*
X117792000Y-93980000D01*
X118723000Y-104902000D02*
X117792000Y-103971000D01*
X117792000Y-93980000D02*
X117792000Y-91821000D01*
X117776000Y-91805000D02*
X117792000Y-91821000D01*
X117776000Y-91440000D02*
X117776000Y-91805000D01*
X117792000Y-91821000D02*
X120969000Y-91821000D01*
X131705400Y-92586300D02*
X130940100Y-91821000D01*
X131705400Y-94158000D02*
X131705400Y-92586300D01*
X134829400Y-97282000D02*
X131705400Y-94158000D01*
X135317000Y-97282000D02*
X134829400Y-97282000D01*
%TO.N,+5V*%
X133858000Y-44959000D02*
X133858000Y-42926000D01*
X125919000Y-95313900D02*
X125919000Y-96012000D01*
X118754900Y-111839000D02*
X115824000Y-111839000D01*
X120650000Y-109943900D02*
X118754900Y-111839000D01*
X120650000Y-109474000D02*
X120650000Y-109943900D01*
X114712600Y-112950400D02*
X114712600Y-116956100D01*
X115824000Y-111839000D02*
X114712600Y-112950400D01*
X113339200Y-116956100D02*
X112185300Y-118110000D01*
X114712600Y-116956100D02*
X113339200Y-116956100D01*
X111082000Y-118110000D02*
X112185300Y-118110000D01*
X127885900Y-118655700D02*
X132434100Y-118655700D01*
X127000000Y-119541600D02*
X127885900Y-118655700D01*
X127000000Y-120044000D02*
X127000000Y-119541600D01*
X133350000Y-119571600D02*
X133350000Y-120044000D01*
X132434100Y-118655700D02*
X133350000Y-119571600D01*
X127000000Y-120561000D02*
X127000000Y-120044000D01*
X126131700Y-121429300D02*
X127000000Y-120561000D01*
X124058100Y-121429300D02*
X126131700Y-121429300D01*
X123190000Y-120561200D02*
X124058100Y-121429300D01*
X123190000Y-120044000D02*
X123190000Y-120561200D01*
X135317000Y-96012000D02*
X136718600Y-96012000D01*
X137251700Y-113838100D02*
X132434100Y-118655700D01*
X137251700Y-96545100D02*
X137251700Y-113838100D01*
X136718600Y-96012000D02*
X137251700Y-96545100D01*
X129175400Y-61214000D02*
X128205000Y-61214000D01*
X132745600Y-64784200D02*
X129175400Y-61214000D01*
X133720100Y-64784200D02*
X132745600Y-64784200D01*
X135255000Y-66319100D02*
X133720100Y-64784200D01*
X135255000Y-66737000D02*
X135255000Y-66319100D01*
X136718600Y-86298000D02*
X135891600Y-85471000D01*
X136718600Y-96012000D02*
X136718600Y-86298000D01*
X135891600Y-85471000D02*
X135382000Y-85471000D01*
X136711000Y-84651600D02*
X135891600Y-85471000D01*
X136711000Y-83825500D02*
X136711000Y-84651600D01*
X135635200Y-82749700D02*
X136711000Y-83825500D01*
X135563300Y-82749700D02*
X135635200Y-82749700D01*
X135563300Y-67045300D02*
X135563300Y-82749700D01*
X135255000Y-66737000D02*
X135563300Y-67045300D01*
X135563300Y-82749700D02*
X135382000Y-82931000D01*
X118326500Y-116956100D02*
X114712600Y-116956100D01*
X119257500Y-116025100D02*
X118326500Y-116956100D01*
X120221900Y-116025100D02*
X119257500Y-116025100D01*
X123190000Y-118993200D02*
X120221900Y-116025100D01*
X123190000Y-120044000D02*
X123190000Y-118993200D01*
X124498400Y-82931000D02*
X125919000Y-82931000D01*
X107696000Y-109220000D02*
X104823500Y-109220000D01*
X104823500Y-111454500D02*
X103756000Y-112522000D01*
X104823500Y-109220000D02*
X104823500Y-111454500D01*
X101040600Y-71171400D02*
X104060000Y-71171400D01*
X99822000Y-72390000D02*
X101040600Y-71171400D01*
X104060000Y-71736700D02*
X104060000Y-71171400D01*
X107253300Y-74930000D02*
X104060000Y-71736700D01*
X109572700Y-74930000D02*
X107253300Y-74930000D01*
X111804900Y-77162200D02*
X109572700Y-74930000D01*
X121158000Y-76652100D02*
X120107900Y-77702200D01*
X121158000Y-73406000D02*
X121158000Y-76652100D01*
%TD*%
M02*
