%TF.GenerationSoftware,KiCad,Pcbnew,(7.0.0-0)*%
%TF.CreationDate,2023-03-31T09:05:14+02:00*%
%TF.ProjectId,Nes Sound Expansion,4e657320-536f-4756-9e64-20457870616e,rev?*%
%TF.SameCoordinates,Original*%
%TF.FileFunction,Copper,L2,Bot*%
%TF.FilePolarity,Positive*%
%FSLAX46Y46*%
G04 Gerber Fmt 4.6, Leading zero omitted, Abs format (unit mm)*
G04 Created by KiCad (PCBNEW (7.0.0-0)) date 2023-03-31 09:05:14*
%MOMM*%
%LPD*%
G01*
G04 APERTURE LIST*
G04 Aperture macros list*
%AMRoundRect*
0 Rectangle with rounded corners*
0 $1 Rounding radius*
0 $2 $3 $4 $5 $6 $7 $8 $9 X,Y pos of 4 corners*
0 Add a 4 corners polygon primitive as box body*
4,1,4,$2,$3,$4,$5,$6,$7,$8,$9,$2,$3,0*
0 Add four circle primitives for the rounded corners*
1,1,$1+$1,$2,$3*
1,1,$1+$1,$4,$5*
1,1,$1+$1,$6,$7*
1,1,$1+$1,$8,$9*
0 Add four rect primitives between the rounded corners*
20,1,$1+$1,$2,$3,$4,$5,0*
20,1,$1+$1,$4,$5,$6,$7,0*
20,1,$1+$1,$6,$7,$8,$9,0*
20,1,$1+$1,$8,$9,$2,$3,0*%
G04 Aperture macros list end*
%TA.AperFunction,ComponentPad*%
%ADD10RoundRect,0.250000X-0.600000X-0.600000X0.600000X-0.600000X0.600000X0.600000X-0.600000X0.600000X0*%
%TD*%
%TA.AperFunction,ComponentPad*%
%ADD11C,1.700000*%
%TD*%
%TA.AperFunction,ComponentPad*%
%ADD12R,1.700000X1.700000*%
%TD*%
%TA.AperFunction,ComponentPad*%
%ADD13O,1.700000X1.700000*%
%TD*%
%TA.AperFunction,ViaPad*%
%ADD14C,0.500000*%
%TD*%
%TA.AperFunction,Conductor*%
%ADD15C,0.220000*%
%TD*%
%TA.AperFunction,Conductor*%
%ADD16C,0.450000*%
%TD*%
G04 APERTURE END LIST*
D10*
%TO.P,J1,1,Pin_1*%
%TO.N,Joy1_D2*%
X99822000Y-69850000D03*
D11*
%TO.P,J1,2,Pin_2*%
%TO.N,Joy2_D0*%
X102362000Y-69850000D03*
%TO.P,J1,3,Pin_3*%
%TO.N,+5V*%
X99822000Y-72390000D03*
%TO.P,J1,4,Pin_4*%
%TO.N,Joy2_D1*%
X102362000Y-72390000D03*
%TO.P,J1,5,Pin_5*%
%TO.N,Joy1_OE*%
X99822000Y-74930000D03*
%TO.P,J1,6,Pin_6*%
%TO.N,Joy2_D2*%
X102362000Y-74930000D03*
%TO.P,J1,7,Pin_7*%
%TO.N,Joy1_D1*%
X99822000Y-77470000D03*
%TO.P,J1,8,Pin_8*%
%TO.N,Joy2_D3*%
X102362000Y-77470000D03*
%TO.P,J1,9,Pin_9*%
%TO.N,OUT0*%
X99822000Y-80010000D03*
%TO.P,J1,10,Pin_10*%
%TO.N,Joy2_D4*%
X102362000Y-80010000D03*
%TO.P,J1,11,Pin_11*%
%TO.N,OUT1*%
X99822000Y-82550000D03*
%TO.P,J1,12,Pin_12*%
%TO.N,IRQ*%
X102362000Y-82550000D03*
%TO.P,J1,13,Pin_13*%
%TO.N,OUT2*%
X99822000Y-85090000D03*
%TO.P,J1,14,Pin_14*%
%TO.N,Aud*%
X102362000Y-85090000D03*
%TO.P,J1,15,Pin_15*%
%TO.N,Joy2_OE*%
X99822000Y-87630000D03*
%TO.P,J1,16,Pin_16*%
%TO.N,GND*%
X102362000Y-87630000D03*
%TD*%
D12*
%TO.P,J3,1,Pin_1*%
%TO.N,+5V*%
X113283999Y-109219999D03*
D13*
%TO.P,J3,2,Pin_2*%
%TO.N,GND*%
X113283999Y-106679999D03*
%TO.P,J3,3,Pin_3*%
%TO.N,AudIn*%
X113283999Y-104139999D03*
%TO.P,J3,4,Pin_4*%
%TO.N,NMI*%
X113283999Y-101599999D03*
%TO.P,J3,5,Pin_5*%
%TO.N,unconnected-(J3-Pin_5-Pad5)*%
X113283999Y-99059999D03*
%TO.P,J3,6,Pin_6*%
%TO.N,Net-(J3-Pin_6)*%
X113283999Y-96519999D03*
%TO.P,J3,7,Pin_7*%
%TO.N,A14*%
X113283999Y-93979999D03*
%TO.P,J3,8,Pin_8*%
%TO.N,A13*%
X113283999Y-91439999D03*
%TO.P,J3,9,Pin_9*%
%TO.N,Net-(J3-Pin_9)*%
X113283999Y-88899999D03*
%TO.P,J3,10,Pin_10*%
%TO.N,unconnected-(J3-Pin_10-Pad10)*%
X113283999Y-86359999D03*
%TO.P,J3,11,Pin_11*%
%TO.N,Joy2_OE*%
X113283999Y-83819999D03*
%TO.P,J3,12,Pin_12*%
%TO.N,Joy1_D1*%
X113283999Y-81279999D03*
%TO.P,J3,13,Pin_13*%
%TO.N,Joy1_D3*%
X113283999Y-78739999D03*
%TO.P,J3,14,Pin_14*%
%TO.N,IRQ*%
X113283999Y-76199999D03*
%TO.P,J3,15,Pin_15*%
%TO.N,Joy2_D2*%
X113283999Y-73659999D03*
%TO.P,J3,16,Pin_16*%
%TO.N,Joy2_D3*%
X113283999Y-71119999D03*
%TO.P,J3,17,Pin_17*%
%TO.N,unconnected-(J3-Pin_17-Pad17)*%
X113283999Y-68579999D03*
%TO.P,J3,18,Pin_18*%
%TO.N,Joy2_D4*%
X113283999Y-66039999D03*
%TO.P,J3,19,Pin_19*%
%TO.N,Joy2_D0*%
X113283999Y-63499999D03*
%TO.P,J3,20,Pin_20*%
%TO.N,Joy2_D1*%
X113283999Y-60959999D03*
%TO.P,J3,21,Pin_21*%
%TO.N,unconnected-(J3-Pin_21-Pad21)*%
X113283999Y-58419999D03*
%TO.P,J3,22,Pin_22*%
%TO.N,Aud*%
X113283999Y-55879999D03*
%TO.P,J3,23,Pin_23*%
%TO.N,unconnected-(J3-Pin_23-Pad23)*%
X113283999Y-53339999D03*
%TO.P,J3,24,Pin_24*%
%TO.N,unconnected-(J3-Pin_24-Pad24)*%
X113283999Y-50799999D03*
%TD*%
D12*
%TO.P,J4,1,Pin_1*%
%TO.N,+5V*%
X107695999Y-109219999D03*
D13*
%TO.P,J4,2,Pin_2*%
%TO.N,GND*%
X107695999Y-106679999D03*
%TO.P,J4,3,Pin_3*%
%TO.N,unconnected-(J4-Pin_3-Pad3)*%
X107695999Y-104139999D03*
%TO.P,J4,4,Pin_4*%
%TO.N,OUT2*%
X107695999Y-101599999D03*
%TO.P,J4,5,Pin_5*%
%TO.N,OUT1*%
X107695999Y-99059999D03*
%TO.P,J4,6,Pin_6*%
%TO.N,OUT0*%
X107695999Y-96519999D03*
%TO.P,J4,7,Pin_7*%
%TO.N,unconnected-(J4-Pin_7-Pad7)*%
X107695999Y-93979999D03*
%TO.P,J4,8,Pin_8*%
%TO.N,R-W*%
X107695999Y-91439999D03*
%TO.P,J4,9,Pin_9*%
%TO.N,Net-(J4-Pin_9)*%
X107695999Y-88899999D03*
%TO.P,J4,10,Pin_10*%
%TO.N,ROMSEL*%
X107695999Y-86359999D03*
%TO.P,J4,11,Pin_11*%
%TO.N,A1*%
X107695999Y-83819999D03*
%TO.P,J4,12,Pin_12*%
%TO.N,Joy1_OE*%
X107695999Y-81279999D03*
%TO.P,J4,13,Pin_13*%
%TO.N,Joy1_D4*%
X107695999Y-78739999D03*
%TO.P,J4,14,Pin_14*%
%TO.N,Joy1_D0*%
X107695999Y-76199999D03*
%TO.P,J4,15,Pin_15*%
%TO.N,unconnected-(J4-Pin_15-Pad15)*%
X107695999Y-73659999D03*
%TO.P,J4,16,Pin_16*%
%TO.N,Joy1_D2*%
X107695999Y-71119999D03*
%TO.P,J4,17,Pin_17*%
%TO.N,D0*%
X107695999Y-68579999D03*
%TO.P,J4,18,Pin_18*%
%TO.N,D1*%
X107695999Y-66039999D03*
%TO.P,J4,19,Pin_19*%
%TO.N,D2*%
X107695999Y-63499999D03*
%TO.P,J4,20,Pin_20*%
%TO.N,D3*%
X107695999Y-60959999D03*
%TO.P,J4,21,Pin_21*%
%TO.N,D4*%
X107695999Y-58419999D03*
%TO.P,J4,22,Pin_22*%
%TO.N,D5*%
X107695999Y-55879999D03*
%TO.P,J4,23,Pin_23*%
%TO.N,D6*%
X107695999Y-53339999D03*
%TO.P,J4,24,Pin_24*%
%TO.N,D7*%
X107695999Y-50799999D03*
%TD*%
D14*
%TO.N,Net-(J3-Pin_6)*%
X106172000Y-98298000D03*
%TO.N,Net-(J3-Pin_9)*%
X105192300Y-97472900D03*
%TO.N,IRQ*%
X117657800Y-118375300D03*
%TO.N,4016_EN*%
X128421500Y-91391200D03*
X123449000Y-90139400D03*
%TO.N,AudIn*%
X102779800Y-102362000D03*
%TO.N,A1_Chip*%
X128048400Y-103912900D03*
X124223700Y-81817900D03*
%TO.N,A0_Chip*%
X125059100Y-111610900D03*
X128803700Y-80278700D03*
%TO.N,CS_Chip*%
X119642000Y-116638900D03*
X126181900Y-76026300D03*
%TO.N,CS_*%
X124381900Y-74552300D03*
X105084300Y-118474000D03*
%TO.N,A1*%
X119915500Y-81228500D03*
%TO.N,A13*%
X122773100Y-84080600D03*
%TO.N,Net-(BU9480F1-LRCK)*%
X131502900Y-68104600D03*
X131913400Y-121478500D03*
%TO.N,Net-(BU9480F1-SDAT)*%
X132205300Y-70985600D03*
X129540000Y-121459000D03*
%TO.N,Net-(BU9480F1-BCLK)*%
X134481200Y-81066900D03*
X128270000Y-121449300D03*
%TO.N,OUT1_*%
X134139300Y-95438700D03*
X100173500Y-120078400D03*
%TO.N,D6_buf*%
X127297800Y-102187200D03*
X122187200Y-91062900D03*
%TO.N,D0_buf*%
X131777200Y-96504200D03*
X129115000Y-84937500D03*
%TO.N,D3_buf*%
X133650800Y-101714500D03*
X133947500Y-93179000D03*
%TO.N,OUT1*%
X123821800Y-94244900D03*
%TO.N,D0*%
X129169200Y-96726800D03*
%TO.N,D1*%
X129181700Y-100509400D03*
%TO.N,D2*%
X127831000Y-84168000D03*
X131102100Y-94202000D03*
%TO.N,D3*%
X128314700Y-83422900D03*
X132765200Y-99669800D03*
%TO.N,D5*%
X122963800Y-88394800D03*
X128009100Y-88419300D03*
%TO.N,D6*%
X122063200Y-89910000D03*
X127277500Y-99083800D03*
X127990200Y-90933800D03*
%TO.N,D7*%
X131829700Y-85291500D03*
X134106100Y-88464400D03*
%TO.N,GND*%
X121920000Y-118579700D03*
X124740400Y-57912000D03*
X131275500Y-107684700D03*
X134024100Y-107799700D03*
X124049100Y-69588500D03*
X133365800Y-86821900D03*
X132696700Y-78249900D03*
%TO.N,+5V*%
X125919000Y-95313900D03*
X120107900Y-77702200D03*
X124498400Y-82931000D03*
X111804900Y-77162200D03*
%TD*%
D15*
%TO.N,Net-(BU9480F1-LRCK)*%
X135760400Y-117631500D02*
X135760400Y-72362100D01*
X131913400Y-121478500D02*
X135760400Y-117631500D01*
X135760400Y-72362100D02*
X131502900Y-68104600D01*
%TO.N,Net-(J3-Pin_9)*%
X113284000Y-88900000D02*
X111506000Y-90678000D01*
X111506000Y-90678000D02*
X111506000Y-91948000D01*
X111506000Y-91948000D02*
X108204000Y-95250000D01*
X108204000Y-95250000D02*
X107415200Y-95250000D01*
X107415200Y-95250000D02*
X105192300Y-97472900D01*
%TO.N,Net-(J3-Pin_6)*%
X108966000Y-97790000D02*
X106680000Y-97790000D01*
X110236000Y-96520000D02*
X108966000Y-97790000D01*
X113284000Y-96520000D02*
X110236000Y-96520000D01*
X106680000Y-97790000D02*
X106172000Y-98298000D01*
%TO.N,OUT1*%
X123821800Y-94244900D02*
X120276700Y-97790000D01*
X120276700Y-97790000D02*
X110054300Y-97790000D01*
X110054300Y-97790000D02*
X108784300Y-99060000D01*
X108784300Y-99060000D02*
X107696000Y-99060000D01*
%TO.N,OUT2*%
X107696000Y-101600000D02*
X107696000Y-101225900D01*
X107696000Y-101225900D02*
X98374400Y-91904300D01*
X98374400Y-86537600D02*
X99822000Y-85090000D01*
X98374400Y-91904300D02*
X98374400Y-86537600D01*
%TO.N,AudIn*%
X113284000Y-104140000D02*
X112014000Y-102870000D01*
X112014000Y-102870000D02*
X103287800Y-102870000D01*
X103287800Y-102870000D02*
X102779800Y-102362000D01*
D16*
%TO.N,GND*%
X124740400Y-69554300D02*
X124740400Y-57912000D01*
X124706200Y-69588500D02*
X124740400Y-69554300D01*
D15*
%TO.N,Joy1_D2*%
X101092000Y-71120000D02*
X99822000Y-69850000D01*
X107696000Y-71120000D02*
X101092000Y-71120000D01*
%TO.N,Joy2_D1*%
X101683200Y-72390000D02*
X102362000Y-72390000D01*
X100290400Y-70997200D02*
X101683200Y-72390000D01*
X99075700Y-70997200D02*
X100290400Y-70997200D01*
X98679500Y-70601000D02*
X99075700Y-70997200D01*
X98679500Y-69031700D02*
X98679500Y-70601000D01*
X105662900Y-62048300D02*
X98679500Y-69031700D01*
X111107400Y-62048300D02*
X105662900Y-62048300D01*
X112195700Y-60960000D02*
X111107400Y-62048300D01*
X113284000Y-60960000D02*
X112195700Y-60960000D01*
%TO.N,Joy2_D2*%
X110925700Y-74930000D02*
X102362000Y-74930000D01*
X112195700Y-73660000D02*
X110925700Y-74930000D01*
X113284000Y-73660000D02*
X112195700Y-73660000D01*
%TO.N,Joy2_D3*%
X109266800Y-77470000D02*
X102362000Y-77470000D01*
X111632700Y-75104100D02*
X109266800Y-77470000D01*
X113383100Y-75104100D02*
X111632700Y-75104100D01*
X114373400Y-74113800D02*
X113383100Y-75104100D01*
X114373400Y-73161700D02*
X114373400Y-74113800D01*
X113420000Y-72208300D02*
X114373400Y-73161700D01*
X113284000Y-72208300D02*
X113420000Y-72208300D01*
X113284000Y-71120000D02*
X113284000Y-72208300D01*
%TO.N,Joy2_D4*%
X101258800Y-78906800D02*
X102362000Y-80010000D01*
X101258800Y-74431500D02*
X101258800Y-78906800D01*
X102030300Y-73660000D02*
X101258800Y-74431500D01*
X103964300Y-73660000D02*
X102030300Y-73660000D01*
X105234300Y-72390000D02*
X103964300Y-73660000D01*
X108018400Y-72390000D02*
X105234300Y-72390000D01*
X108801200Y-71607200D02*
X108018400Y-72390000D01*
X108801200Y-70653800D02*
X108801200Y-71607200D01*
X108164100Y-70016700D02*
X108801200Y-70653800D01*
X107533600Y-70016700D02*
X108164100Y-70016700D01*
X106585800Y-69068900D02*
X107533600Y-70016700D01*
X106585800Y-68096300D02*
X106585800Y-69068900D01*
X107553800Y-67128300D02*
X106585800Y-68096300D01*
X111107400Y-67128300D02*
X107553800Y-67128300D01*
X112195700Y-66040000D02*
X111107400Y-67128300D01*
X113284000Y-66040000D02*
X112195700Y-66040000D01*
%TO.N,IRQ*%
X112908700Y-76200000D02*
X112195700Y-76200000D01*
X112908700Y-76200000D02*
X113284000Y-76200000D01*
X113284000Y-76200000D02*
X114372300Y-76200000D01*
X104902000Y-80010000D02*
X102362000Y-82550000D01*
X108126600Y-80010000D02*
X104902000Y-80010000D01*
X111936600Y-76200000D02*
X108126600Y-80010000D01*
X112195700Y-76200000D02*
X111936600Y-76200000D01*
X117657800Y-117235300D02*
X117657800Y-118375300D01*
X128545000Y-106348100D02*
X117657800Y-117235300D01*
X128545000Y-94098200D02*
X128545000Y-106348100D01*
X129258100Y-93385100D02*
X128545000Y-94098200D01*
X129258100Y-88442600D02*
X129258100Y-93385100D01*
X125601200Y-84785700D02*
X129258100Y-88442600D01*
X125601200Y-82445800D02*
X125601200Y-84785700D01*
X119355400Y-76200000D02*
X125601200Y-82445800D01*
X114372300Y-76200000D02*
X119355400Y-76200000D01*
%TO.N,4016_EN*%
X128488400Y-91324300D02*
X128421500Y-91391200D01*
X128488400Y-90741200D02*
X128488400Y-91324300D01*
X127886600Y-90139400D02*
X128488400Y-90741200D01*
X123449000Y-90139400D02*
X127886600Y-90139400D01*
%TO.N,Joy2_OE*%
X101092000Y-86360000D02*
X99822000Y-87630000D01*
X103964300Y-86360000D02*
X101092000Y-86360000D01*
X105416000Y-84908300D02*
X103964300Y-86360000D01*
X111107400Y-84908300D02*
X105416000Y-84908300D01*
X112195700Y-83820000D02*
X111107400Y-84908300D01*
X113284000Y-83820000D02*
X112195700Y-83820000D01*
%TO.N,Joy2_D0*%
X113284000Y-63500000D02*
X112195700Y-63500000D01*
X102362000Y-69745700D02*
X102362000Y-69850000D01*
X107519400Y-64588300D02*
X102362000Y-69745700D01*
X111107400Y-64588300D02*
X107519400Y-64588300D01*
X112195700Y-63500000D02*
X111107400Y-64588300D01*
%TO.N,Aud*%
X100910400Y-83638400D02*
X102362000Y-85090000D01*
X100910400Y-74442900D02*
X100910400Y-83638400D01*
X100127500Y-73660000D02*
X100910400Y-74442900D01*
X99518500Y-73660000D02*
X100127500Y-73660000D01*
X98315100Y-72456600D02*
X99518500Y-73660000D01*
X98315100Y-68783900D02*
X98315100Y-72456600D01*
X107409000Y-59690000D02*
X98315100Y-68783900D01*
X108385700Y-59690000D02*
X107409000Y-59690000D01*
X112195700Y-55880000D02*
X108385700Y-59690000D01*
X113284000Y-55880000D02*
X112195700Y-55880000D01*
%TO.N,A1_Chip*%
X128048400Y-92454900D02*
X128048400Y-103912900D01*
X128909800Y-91593500D02*
X128048400Y-92454900D01*
X128909800Y-88629200D02*
X128909800Y-91593500D01*
X125252900Y-84972300D02*
X128909800Y-88629200D01*
X125252900Y-82847100D02*
X125252900Y-84972300D01*
X124223700Y-81817900D02*
X125252900Y-82847100D01*
%TO.N,A0_Chip*%
X131006600Y-82481600D02*
X128803700Y-80278700D01*
X131006600Y-85983000D02*
X131006600Y-82481600D01*
X133261400Y-88237800D02*
X131006600Y-85983000D01*
X133261400Y-100632700D02*
X133261400Y-88237800D01*
X133079300Y-100814800D02*
X133261400Y-100632700D01*
X133079300Y-103590700D02*
X133079300Y-100814800D01*
X125059100Y-111610900D02*
X133079300Y-103590700D01*
%TO.N,CS_Chip*%
X119642000Y-115844900D02*
X119642000Y-116638900D01*
X130265500Y-105221400D02*
X119642000Y-115844900D01*
X130265500Y-93855500D02*
X130265500Y-105221400D01*
X130303000Y-93818000D02*
X130265500Y-93855500D01*
X130303000Y-87892800D02*
X130303000Y-93818000D01*
X129205600Y-86795400D02*
X130303000Y-87892800D01*
X129205600Y-86725700D02*
X129205600Y-86795400D01*
X126994400Y-84514500D02*
X129205600Y-86725700D01*
X126994400Y-76838800D02*
X126994400Y-84514500D01*
X126181900Y-76026300D02*
X126994400Y-76838800D01*
%TO.N,CS_*%
X105503700Y-118893400D02*
X105084300Y-118474000D01*
X118122200Y-118893400D02*
X105503700Y-118893400D01*
X124570800Y-112444800D02*
X118122200Y-118893400D01*
X124570800Y-111408700D02*
X124570800Y-112444800D01*
X124856900Y-111122600D02*
X124570800Y-111408700D01*
X124930300Y-111122600D02*
X124856900Y-111122600D01*
X130613800Y-105439100D02*
X124930300Y-111122600D01*
X130613800Y-93999800D02*
X130613800Y-105439100D01*
X130651400Y-93962200D02*
X130613800Y-93999800D01*
X130651400Y-87981800D02*
X130651400Y-93962200D01*
X130722500Y-87910700D02*
X130651400Y-87981800D01*
X130722500Y-87819700D02*
X130722500Y-87910700D01*
X129553900Y-86651100D02*
X130722500Y-87819700D01*
X129553900Y-86564000D02*
X129553900Y-86651100D01*
X127727200Y-84737300D02*
X129553900Y-86564000D01*
X127709800Y-84737300D02*
X127727200Y-84737300D01*
X127342700Y-84370200D02*
X127709800Y-84737300D01*
X127342700Y-76450400D02*
X127342700Y-84370200D01*
X125444600Y-74552300D02*
X127342700Y-76450400D01*
X124381900Y-74552300D02*
X125444600Y-74552300D01*
%TO.N,A1*%
X118412300Y-82731700D02*
X119915500Y-81228500D01*
X109872600Y-82731700D02*
X118412300Y-82731700D01*
X108784300Y-83820000D02*
X109872600Y-82731700D01*
X107696000Y-83820000D02*
X108784300Y-83820000D01*
%TO.N,A13*%
X121731700Y-84080600D02*
X122773100Y-84080600D01*
X114372300Y-91440000D02*
X121731700Y-84080600D01*
X113284000Y-91440000D02*
X114372300Y-91440000D01*
%TO.N,Net-(BU9480F1-SDAT)*%
X134982000Y-73762300D02*
X132205300Y-70985600D01*
X134982000Y-116017000D02*
X134982000Y-73762300D01*
X129540000Y-121459000D02*
X134982000Y-116017000D01*
%TO.N,Net-(BU9480F1-BCLK)*%
X134633600Y-81219300D02*
X134481200Y-81066900D01*
X134633600Y-115085700D02*
X134633600Y-81219300D01*
X128270000Y-121449300D02*
X134633600Y-115085700D01*
%TO.N,OUT1_*%
X117434400Y-120078400D02*
X100173500Y-120078400D01*
X134139300Y-103373500D02*
X117434400Y-120078400D01*
X134139300Y-95438700D02*
X134139300Y-103373500D01*
%TO.N,D6_buf*%
X126789200Y-101678600D02*
X127297800Y-102187200D01*
X126789200Y-95408800D02*
X126789200Y-101678600D01*
X122443300Y-91062900D02*
X126789200Y-95408800D01*
X122187200Y-91062900D02*
X122443300Y-91062900D01*
%TO.N,D0_buf*%
X130250500Y-86073000D02*
X129115000Y-84937500D01*
X130250500Y-86275300D02*
X130250500Y-86073000D01*
X131199300Y-87224100D02*
X130250500Y-86275300D01*
X131262400Y-87224100D02*
X131199300Y-87224100D01*
X131522100Y-87483800D02*
X131262400Y-87224100D01*
X131522100Y-87595000D02*
X131522100Y-87483800D01*
X131777200Y-87850100D02*
X131522100Y-87595000D01*
X131777200Y-96504200D02*
X131777200Y-87850100D01*
%TO.N,D3_buf*%
X133650800Y-93475700D02*
X133650800Y-101714500D01*
X133947500Y-93179000D02*
X133650800Y-93475700D01*
%TO.N,OUT1*%
X99822000Y-83296700D02*
X99822000Y-82550000D01*
X100957100Y-84431800D02*
X99822000Y-83296700D01*
X100957100Y-85509100D02*
X100957100Y-84431800D01*
X100106200Y-86360000D02*
X100957100Y-85509100D01*
X99509600Y-86360000D02*
X100106200Y-86360000D01*
X98724700Y-87144900D02*
X99509600Y-86360000D01*
X98724700Y-91750800D02*
X98724700Y-87144900D01*
X106204100Y-99230200D02*
X98724700Y-91750800D01*
X107525800Y-99230200D02*
X106204100Y-99230200D01*
X107696000Y-99060000D02*
X107525800Y-99230200D01*
%TO.N,D0*%
X107696000Y-68580000D02*
X108784300Y-68580000D01*
X129568900Y-96327100D02*
X129169200Y-96726800D01*
X129568900Y-93566900D02*
X129568900Y-96327100D01*
X129606400Y-93529400D02*
X129568900Y-93566900D01*
X129606400Y-88217400D02*
X129606400Y-93529400D01*
X125949500Y-84560500D02*
X129606400Y-88217400D01*
X125949500Y-82186300D02*
X125949500Y-84560500D01*
X113431500Y-69668300D02*
X125949500Y-82186300D01*
X109872600Y-69668300D02*
X113431500Y-69668300D01*
X108784300Y-68580000D02*
X109872600Y-69668300D01*
%TO.N,D1*%
X107696000Y-66040000D02*
X108784300Y-66040000D01*
X129917200Y-99773900D02*
X129181700Y-100509400D01*
X129917200Y-93711200D02*
X129917200Y-99773900D01*
X129954700Y-93673700D02*
X129917200Y-93711200D01*
X129954700Y-88037100D02*
X129954700Y-93673700D01*
X126646100Y-84728500D02*
X129954700Y-88037100D01*
X126646100Y-77805700D02*
X126646100Y-84728500D01*
X113784600Y-64944200D02*
X126646100Y-77805700D01*
X109880100Y-64944200D02*
X113784600Y-64944200D01*
X108784300Y-66040000D02*
X109880100Y-64944200D01*
%TO.N,D2*%
X107696000Y-63500000D02*
X108784300Y-63500000D01*
X127786100Y-84123100D02*
X127831000Y-84168000D01*
X127786100Y-76401100D02*
X127786100Y-84123100D01*
X113796600Y-62411600D02*
X127786100Y-76401100D01*
X109872700Y-62411600D02*
X113796600Y-62411600D01*
X108784300Y-63500000D02*
X109872700Y-62411600D01*
X131102100Y-87619500D02*
X131102100Y-94202000D01*
X130999500Y-87516900D02*
X131102100Y-87619500D01*
X130912300Y-87516900D02*
X130999500Y-87516900D01*
X129902200Y-86506800D02*
X130912300Y-87516900D01*
X129902200Y-86419400D02*
X129902200Y-86506800D01*
X127831000Y-84348200D02*
X129902200Y-86419400D01*
X127831000Y-84168000D02*
X127831000Y-84348200D01*
%TO.N,D3*%
X107696000Y-60960000D02*
X108784300Y-60960000D01*
X109895600Y-59848700D02*
X108784300Y-60960000D01*
X113729200Y-59848700D02*
X109895600Y-59848700D01*
X116770700Y-62890200D02*
X113729200Y-59848700D01*
X116770700Y-63807000D02*
X116770700Y-62890200D01*
X128314700Y-75351000D02*
X116770700Y-63807000D01*
X128314700Y-83422900D02*
X128314700Y-75351000D01*
X132765200Y-88234300D02*
X132765200Y-99669800D01*
X130598800Y-86067900D02*
X132765200Y-88234300D01*
X130598800Y-85707000D02*
X130598800Y-86067900D01*
X128314700Y-83422900D02*
X130598800Y-85707000D01*
%TO.N,D5*%
X127984600Y-88394800D02*
X128009100Y-88419300D01*
X122963800Y-88394800D02*
X127984600Y-88394800D01*
%TO.N,D6*%
X127277500Y-90933800D02*
X127990200Y-90933800D01*
X127277500Y-99083800D02*
X127277500Y-90933800D01*
X123087000Y-90933800D02*
X122063200Y-89910000D01*
X127277500Y-90933800D02*
X123087000Y-90933800D01*
%TO.N,D7*%
X107696000Y-50800000D02*
X108784300Y-50800000D01*
X131829700Y-78373300D02*
X131829700Y-85291500D01*
X119632300Y-66175900D02*
X131829700Y-78373300D01*
X119632300Y-60623100D02*
X119632300Y-66175900D01*
X113619200Y-54610000D02*
X119632300Y-60623100D01*
X112594300Y-54610000D02*
X113619200Y-54610000D01*
X108784300Y-50800000D02*
X112594300Y-54610000D01*
X131829700Y-86188000D02*
X131829700Y-85291500D01*
X134106100Y-88464400D02*
X131829700Y-86188000D01*
D16*
%TO.N,GND*%
X107696000Y-106680000D02*
X113284000Y-106680000D01*
X121920000Y-117040200D02*
X131275500Y-107684700D01*
X121920000Y-118579700D02*
X121920000Y-117040200D01*
X133909100Y-107684700D02*
X134024100Y-107799700D01*
X131275500Y-107684700D02*
X133909100Y-107684700D01*
X124706200Y-69588500D02*
X124049100Y-69588500D01*
X124706200Y-70259400D02*
X132696700Y-78249900D01*
X124706200Y-69588500D02*
X124706200Y-70259400D01*
X133365800Y-78919000D02*
X133365800Y-86821900D01*
X132696700Y-78249900D02*
X133365800Y-78919000D01*
%TO.N,+5V*%
X113284000Y-109220000D02*
X113284000Y-108016700D01*
X113284000Y-109220000D02*
X112080700Y-109220000D01*
X107696000Y-109220000D02*
X108899300Y-109220000D01*
X112080700Y-109220000D02*
X108899300Y-109220000D01*
X125919000Y-95757700D02*
X125919000Y-95313900D01*
X113660000Y-108016700D02*
X125919000Y-95757700D01*
X113284000Y-108016700D02*
X113660000Y-108016700D01*
X124435900Y-82931000D02*
X124498400Y-82931000D01*
X120107900Y-78603000D02*
X124435900Y-82931000D01*
X120107900Y-77702200D02*
X120107900Y-78603000D01*
X119875700Y-77470000D02*
X120107900Y-77702200D01*
X112112700Y-77470000D02*
X119875700Y-77470000D01*
X111804900Y-77162200D02*
X112112700Y-77470000D01*
X124435900Y-83271000D02*
X124435900Y-82931000D01*
X121434300Y-86272600D02*
X124435900Y-83271000D01*
X121434300Y-91211200D02*
X121434300Y-86272600D01*
X123864700Y-93641600D02*
X121434300Y-91211200D01*
X124246700Y-93641600D02*
X123864700Y-93641600D01*
X125919000Y-95313900D02*
X124246700Y-93641600D01*
%TD*%
M02*
