M48
; DRILL file {KiCad (7.0.0-0)} date Friday, 31 March 2023 at 09:05:14
; FORMAT={-:-/ absolute / inch / decimal}
; #@! TF.CreationDate,2023-03-31T09:05:14+02:00
; #@! TF.GenerationSoftware,Kicad,Pcbnew,(7.0.0-0)
; #@! TF.FileFunction,Plated,1,2,PTH
FMAT,2
INCH
; #@! TA.AperFunction,Plated,PTH,ViaDrill
T1C0.0118
; #@! TA.AperFunction,Plated,PTH,ComponentDrill
T2C0.0394
%
G90
G05
T1
X3.9438Y-4.7275
X4.0464Y-4.03
X4.1372Y-4.6643
X4.1414Y-3.8375
X4.18Y-3.87
X4.4018Y-3.0379
X4.6322Y-4.6604
X4.7103Y-4.5921
X4.7211Y-3.198
X4.7287Y-3.0591
X4.8Y-4.6685
X4.8056Y-3.5398
X4.8105Y-3.5852
X4.8336Y-3.3103
X4.8411Y-3.4801
X4.8602Y-3.5488
X4.8749Y-3.7104
X4.8838Y-2.7397
X4.8907Y-3.2212
X4.8969Y-2.9351
X4.9015Y-3.265
X4.911Y-2.28
X4.9236Y-4.3941
X4.9574Y-3.7525
X4.9678Y-2.9932
X5.0109Y-3.9009
X5.0117Y-4.0231
X5.0327Y-3.3137
X5.039Y-3.5801
X5.0397Y-3.4811
X5.0413Y-4.0911
X5.05Y-4.7815
X5.0518Y-3.2844
X5.056Y-3.5981
X5.071Y-3.1606
X5.0833Y-3.344
X5.0854Y-3.8081
X5.0859Y-3.9571
X5.1Y-4.7819
X5.1615Y-3.7087
X5.1683Y-4.2396
X5.1773Y-2.6813
X5.1881Y-3.7994
X5.1901Y-3.3579
X5.1934Y-4.7826
X5.2049Y-2.7947
X5.2243Y-3.0807
X5.227Y-3.924
X5.2506Y-3.4182
X5.2618Y-4.0045
X5.2735Y-3.6685
X5.2765Y-4.2441
X5.2798Y-3.4829
X5.2811Y-3.7574
X5.2945Y-3.1916
T2
X3.93Y-2.75
X3.93Y-2.85
X3.93Y-2.95
X3.93Y-3.05
X3.93Y-3.15
X3.93Y-3.25
X3.93Y-3.35
X3.93Y-3.45
X4.03Y-2.75
X4.03Y-2.85
X4.03Y-2.95
X4.03Y-3.05
X4.03Y-3.15
X4.03Y-3.25
X4.03Y-3.35
X4.03Y-3.45
X4.24Y-2.0
X4.24Y-2.1
X4.24Y-2.2
X4.24Y-2.3
X4.24Y-2.4
X4.24Y-2.5
X4.24Y-2.6
X4.24Y-2.7
X4.24Y-2.8
X4.24Y-2.9
X4.24Y-3.0
X4.24Y-3.1
X4.24Y-3.2
X4.24Y-3.3
X4.24Y-3.4
X4.24Y-3.5
X4.24Y-3.6
X4.24Y-3.7
X4.24Y-3.8
X4.24Y-3.9
X4.24Y-4.0
X4.24Y-4.1
X4.24Y-4.2
X4.24Y-4.3
X4.46Y-2.0
X4.46Y-2.1
X4.46Y-2.2
X4.46Y-2.3
X4.46Y-2.4
X4.46Y-2.5
X4.46Y-2.6
X4.46Y-2.7
X4.46Y-2.8
X4.46Y-2.9
X4.46Y-3.0
X4.46Y-3.1
X4.46Y-3.2
X4.46Y-3.3
X4.46Y-3.4
X4.46Y-3.5
X4.46Y-3.6
X4.46Y-3.7
X4.46Y-3.8
X4.46Y-3.9
X4.46Y-4.0
X4.46Y-4.1
X4.46Y-4.2
X4.46Y-4.3
T0
M30
