%TF.GenerationSoftware,KiCad,Pcbnew,(7.0.0-0)*%
%TF.CreationDate,2023-03-31T09:05:14+02:00*%
%TF.ProjectId,Nes Sound Expansion,4e657320-536f-4756-9e64-20457870616e,rev?*%
%TF.SameCoordinates,Original*%
%TF.FileFunction,Legend,Bot*%
%TF.FilePolarity,Positive*%
%FSLAX46Y46*%
G04 Gerber Fmt 4.6, Leading zero omitted, Abs format (unit mm)*
G04 Created by KiCad (PCBNEW (7.0.0-0)) date 2023-03-31 09:05:14*
%MOMM*%
%LPD*%
G01*
G04 APERTURE LIST*
G04 Aperture macros list*
%AMRoundRect*
0 Rectangle with rounded corners*
0 $1 Rounding radius*
0 $2 $3 $4 $5 $6 $7 $8 $9 X,Y pos of 4 corners*
0 Add a 4 corners polygon primitive as box body*
4,1,4,$2,$3,$4,$5,$6,$7,$8,$9,$2,$3,0*
0 Add four circle primitives for the rounded corners*
1,1,$1+$1,$2,$3*
1,1,$1+$1,$4,$5*
1,1,$1+$1,$6,$7*
1,1,$1+$1,$8,$9*
0 Add four rect primitives between the rounded corners*
20,1,$1+$1,$2,$3,$4,$5,0*
20,1,$1+$1,$4,$5,$6,$7,0*
20,1,$1+$1,$6,$7,$8,$9,0*
20,1,$1+$1,$8,$9,$2,$3,0*%
G04 Aperture macros list end*
%ADD10C,0.300000*%
%ADD11C,0.100000*%
%ADD12C,0.150000*%
%ADD13C,0.120000*%
%ADD14C,1.500000*%
%ADD15RoundRect,0.250000X-0.600000X-0.600000X0.600000X-0.600000X0.600000X0.600000X-0.600000X0.600000X0*%
%ADD16C,1.700000*%
%ADD17R,1.700000X1.700000*%
%ADD18O,1.700000X1.700000*%
G04 APERTURE END LIST*
D10*
X121093571Y-120043928D02*
X121093571Y-121543928D01*
X121093571Y-121543928D02*
X121950714Y-120043928D01*
X121950714Y-120043928D02*
X121950714Y-121543928D01*
X122665000Y-120829642D02*
X123165000Y-120829642D01*
X123379286Y-120043928D02*
X122665000Y-120043928D01*
X122665000Y-120043928D02*
X122665000Y-121543928D01*
X122665000Y-121543928D02*
X123379286Y-121543928D01*
X123950715Y-120115357D02*
X124165001Y-120043928D01*
X124165001Y-120043928D02*
X124522143Y-120043928D01*
X124522143Y-120043928D02*
X124665001Y-120115357D01*
X124665001Y-120115357D02*
X124736429Y-120186785D01*
X124736429Y-120186785D02*
X124807858Y-120329642D01*
X124807858Y-120329642D02*
X124807858Y-120472500D01*
X124807858Y-120472500D02*
X124736429Y-120615357D01*
X124736429Y-120615357D02*
X124665001Y-120686785D01*
X124665001Y-120686785D02*
X124522143Y-120758214D01*
X124522143Y-120758214D02*
X124236429Y-120829642D01*
X124236429Y-120829642D02*
X124093572Y-120901071D01*
X124093572Y-120901071D02*
X124022143Y-120972500D01*
X124022143Y-120972500D02*
X123950715Y-121115357D01*
X123950715Y-121115357D02*
X123950715Y-121258214D01*
X123950715Y-121258214D02*
X124022143Y-121401071D01*
X124022143Y-121401071D02*
X124093572Y-121472500D01*
X124093572Y-121472500D02*
X124236429Y-121543928D01*
X124236429Y-121543928D02*
X124593572Y-121543928D01*
X124593572Y-121543928D02*
X124807858Y-121472500D01*
X126350714Y-120829642D02*
X126850714Y-120829642D01*
X127065000Y-120043928D02*
X126350714Y-120043928D01*
X126350714Y-120043928D02*
X126350714Y-121543928D01*
X126350714Y-121543928D02*
X127065000Y-121543928D01*
X127707857Y-120043928D02*
X127707857Y-121543928D01*
X127707857Y-121543928D02*
X128279286Y-121543928D01*
X128279286Y-121543928D02*
X128422143Y-121472500D01*
X128422143Y-121472500D02*
X128493572Y-121401071D01*
X128493572Y-121401071D02*
X128565000Y-121258214D01*
X128565000Y-121258214D02*
X128565000Y-121043928D01*
X128565000Y-121043928D02*
X128493572Y-120901071D01*
X128493572Y-120901071D02*
X128422143Y-120829642D01*
X128422143Y-120829642D02*
X128279286Y-120758214D01*
X128279286Y-120758214D02*
X127707857Y-120758214D01*
X129136429Y-120115357D02*
X129350715Y-120043928D01*
X129350715Y-120043928D02*
X129707857Y-120043928D01*
X129707857Y-120043928D02*
X129850715Y-120115357D01*
X129850715Y-120115357D02*
X129922143Y-120186785D01*
X129922143Y-120186785D02*
X129993572Y-120329642D01*
X129993572Y-120329642D02*
X129993572Y-120472500D01*
X129993572Y-120472500D02*
X129922143Y-120615357D01*
X129922143Y-120615357D02*
X129850715Y-120686785D01*
X129850715Y-120686785D02*
X129707857Y-120758214D01*
X129707857Y-120758214D02*
X129422143Y-120829642D01*
X129422143Y-120829642D02*
X129279286Y-120901071D01*
X129279286Y-120901071D02*
X129207857Y-120972500D01*
X129207857Y-120972500D02*
X129136429Y-121115357D01*
X129136429Y-121115357D02*
X129136429Y-121258214D01*
X129136429Y-121258214D02*
X129207857Y-121401071D01*
X129207857Y-121401071D02*
X129279286Y-121472500D01*
X129279286Y-121472500D02*
X129422143Y-121543928D01*
X129422143Y-121543928D02*
X129779286Y-121543928D01*
X129779286Y-121543928D02*
X129993572Y-121472500D01*
X130636428Y-120043928D02*
X130636428Y-121543928D01*
X130636428Y-121543928D02*
X131136428Y-120472500D01*
X131136428Y-120472500D02*
X131636428Y-121543928D01*
X131636428Y-121543928D02*
X131636428Y-120043928D01*
X124507857Y-117613928D02*
X124007857Y-118328214D01*
X123650714Y-117613928D02*
X123650714Y-119113928D01*
X123650714Y-119113928D02*
X124222143Y-119113928D01*
X124222143Y-119113928D02*
X124365000Y-119042500D01*
X124365000Y-119042500D02*
X124436429Y-118971071D01*
X124436429Y-118971071D02*
X124507857Y-118828214D01*
X124507857Y-118828214D02*
X124507857Y-118613928D01*
X124507857Y-118613928D02*
X124436429Y-118471071D01*
X124436429Y-118471071D02*
X124365000Y-118399642D01*
X124365000Y-118399642D02*
X124222143Y-118328214D01*
X124222143Y-118328214D02*
X123650714Y-118328214D01*
X125722143Y-117685357D02*
X125579286Y-117613928D01*
X125579286Y-117613928D02*
X125293572Y-117613928D01*
X125293572Y-117613928D02*
X125150714Y-117685357D01*
X125150714Y-117685357D02*
X125079286Y-117828214D01*
X125079286Y-117828214D02*
X125079286Y-118399642D01*
X125079286Y-118399642D02*
X125150714Y-118542500D01*
X125150714Y-118542500D02*
X125293572Y-118613928D01*
X125293572Y-118613928D02*
X125579286Y-118613928D01*
X125579286Y-118613928D02*
X125722143Y-118542500D01*
X125722143Y-118542500D02*
X125793572Y-118399642D01*
X125793572Y-118399642D02*
X125793572Y-118256785D01*
X125793572Y-118256785D02*
X125079286Y-118113928D01*
X126293571Y-118613928D02*
X126650714Y-117613928D01*
X126650714Y-117613928D02*
X127007857Y-118613928D01*
X127579285Y-117756785D02*
X127650714Y-117685357D01*
X127650714Y-117685357D02*
X127579285Y-117613928D01*
X127579285Y-117613928D02*
X127507857Y-117685357D01*
X127507857Y-117685357D02*
X127579285Y-117756785D01*
X127579285Y-117756785D02*
X127579285Y-117613928D01*
X128793571Y-118399642D02*
X129007857Y-118328214D01*
X129007857Y-118328214D02*
X129079286Y-118256785D01*
X129079286Y-118256785D02*
X129150714Y-118113928D01*
X129150714Y-118113928D02*
X129150714Y-117899642D01*
X129150714Y-117899642D02*
X129079286Y-117756785D01*
X129079286Y-117756785D02*
X129007857Y-117685357D01*
X129007857Y-117685357D02*
X128865000Y-117613928D01*
X128865000Y-117613928D02*
X128293571Y-117613928D01*
X128293571Y-117613928D02*
X128293571Y-119113928D01*
X128293571Y-119113928D02*
X128793571Y-119113928D01*
X128793571Y-119113928D02*
X128936429Y-119042500D01*
X128936429Y-119042500D02*
X129007857Y-118971071D01*
X129007857Y-118971071D02*
X129079286Y-118828214D01*
X129079286Y-118828214D02*
X129079286Y-118685357D01*
X129079286Y-118685357D02*
X129007857Y-118542500D01*
X129007857Y-118542500D02*
X128936429Y-118471071D01*
X128936429Y-118471071D02*
X128793571Y-118399642D01*
X128793571Y-118399642D02*
X128293571Y-118399642D01*
D11*
X120835714Y-115933214D02*
X121095714Y-115933214D01*
X121207142Y-115524642D02*
X120835714Y-115524642D01*
X120835714Y-115524642D02*
X120835714Y-116304642D01*
X120835714Y-116304642D02*
X121207142Y-116304642D01*
X121467142Y-116304642D02*
X121987142Y-115524642D01*
X121987142Y-116304642D02*
X121467142Y-115524642D01*
X122284285Y-115524642D02*
X122284285Y-116304642D01*
X122284285Y-116304642D02*
X122581428Y-116304642D01*
X122581428Y-116304642D02*
X122655713Y-116267500D01*
X122655713Y-116267500D02*
X122692856Y-116230357D01*
X122692856Y-116230357D02*
X122729999Y-116156071D01*
X122729999Y-116156071D02*
X122729999Y-116044642D01*
X122729999Y-116044642D02*
X122692856Y-115970357D01*
X122692856Y-115970357D02*
X122655713Y-115933214D01*
X122655713Y-115933214D02*
X122581428Y-115896071D01*
X122581428Y-115896071D02*
X122284285Y-115896071D01*
X123175713Y-115970357D02*
X123101428Y-116007500D01*
X123101428Y-116007500D02*
X123064285Y-116044642D01*
X123064285Y-116044642D02*
X123027142Y-116118928D01*
X123027142Y-116118928D02*
X123027142Y-116156071D01*
X123027142Y-116156071D02*
X123064285Y-116230357D01*
X123064285Y-116230357D02*
X123101428Y-116267500D01*
X123101428Y-116267500D02*
X123175713Y-116304642D01*
X123175713Y-116304642D02*
X123324285Y-116304642D01*
X123324285Y-116304642D02*
X123398571Y-116267500D01*
X123398571Y-116267500D02*
X123435713Y-116230357D01*
X123435713Y-116230357D02*
X123472856Y-116156071D01*
X123472856Y-116156071D02*
X123472856Y-116118928D01*
X123472856Y-116118928D02*
X123435713Y-116044642D01*
X123435713Y-116044642D02*
X123398571Y-116007500D01*
X123398571Y-116007500D02*
X123324285Y-115970357D01*
X123324285Y-115970357D02*
X123175713Y-115970357D01*
X123175713Y-115970357D02*
X123101428Y-115933214D01*
X123101428Y-115933214D02*
X123064285Y-115896071D01*
X123064285Y-115896071D02*
X123027142Y-115821785D01*
X123027142Y-115821785D02*
X123027142Y-115673214D01*
X123027142Y-115673214D02*
X123064285Y-115598928D01*
X123064285Y-115598928D02*
X123101428Y-115561785D01*
X123101428Y-115561785D02*
X123175713Y-115524642D01*
X123175713Y-115524642D02*
X123324285Y-115524642D01*
X123324285Y-115524642D02*
X123398571Y-115561785D01*
X123398571Y-115561785D02*
X123435713Y-115598928D01*
X123435713Y-115598928D02*
X123472856Y-115673214D01*
X123472856Y-115673214D02*
X123472856Y-115821785D01*
X123472856Y-115821785D02*
X123435713Y-115896071D01*
X123435713Y-115896071D02*
X123398571Y-115933214D01*
X123398571Y-115933214D02*
X123324285Y-115970357D01*
X124720856Y-115598928D02*
X124683713Y-115561785D01*
X124683713Y-115561785D02*
X124572285Y-115524642D01*
X124572285Y-115524642D02*
X124497999Y-115524642D01*
X124497999Y-115524642D02*
X124386570Y-115561785D01*
X124386570Y-115561785D02*
X124312285Y-115636071D01*
X124312285Y-115636071D02*
X124275142Y-115710357D01*
X124275142Y-115710357D02*
X124237999Y-115858928D01*
X124237999Y-115858928D02*
X124237999Y-115970357D01*
X124237999Y-115970357D02*
X124275142Y-116118928D01*
X124275142Y-116118928D02*
X124312285Y-116193214D01*
X124312285Y-116193214D02*
X124386570Y-116267500D01*
X124386570Y-116267500D02*
X124497999Y-116304642D01*
X124497999Y-116304642D02*
X124572285Y-116304642D01*
X124572285Y-116304642D02*
X124683713Y-116267500D01*
X124683713Y-116267500D02*
X124720856Y-116230357D01*
X125055142Y-115933214D02*
X125315142Y-115933214D01*
X125426570Y-115524642D02*
X125055142Y-115524642D01*
X125055142Y-115524642D02*
X125055142Y-116304642D01*
X125055142Y-116304642D02*
X125426570Y-116304642D01*
X126169427Y-115524642D02*
X125723713Y-115524642D01*
X125946570Y-115524642D02*
X125946570Y-116304642D01*
X125946570Y-116304642D02*
X125872284Y-116193214D01*
X125872284Y-116193214D02*
X125797999Y-116118928D01*
X125797999Y-116118928D02*
X125723713Y-116081785D01*
X127194570Y-115227500D02*
X127157427Y-115264642D01*
X127157427Y-115264642D02*
X127083141Y-115376071D01*
X127083141Y-115376071D02*
X127045999Y-115450357D01*
X127045999Y-115450357D02*
X127008856Y-115561785D01*
X127008856Y-115561785D02*
X126971713Y-115747500D01*
X126971713Y-115747500D02*
X126971713Y-115896071D01*
X126971713Y-115896071D02*
X127008856Y-116081785D01*
X127008856Y-116081785D02*
X127045999Y-116193214D01*
X127045999Y-116193214D02*
X127083141Y-116267500D01*
X127083141Y-116267500D02*
X127157427Y-116378928D01*
X127157427Y-116378928D02*
X127194570Y-116416071D01*
X127491713Y-115524642D02*
X127491713Y-116304642D01*
X127491713Y-115933214D02*
X127937427Y-115933214D01*
X127937427Y-115524642D02*
X127937427Y-116304642D01*
X128308856Y-115524642D02*
X128308856Y-116304642D01*
X129014571Y-116044642D02*
X129014571Y-115413214D01*
X129014571Y-115413214D02*
X128977428Y-115338928D01*
X128977428Y-115338928D02*
X128940285Y-115301785D01*
X128940285Y-115301785D02*
X128865999Y-115264642D01*
X128865999Y-115264642D02*
X128754571Y-115264642D01*
X128754571Y-115264642D02*
X128680285Y-115301785D01*
X129014571Y-115561785D02*
X128940285Y-115524642D01*
X128940285Y-115524642D02*
X128791713Y-115524642D01*
X128791713Y-115524642D02*
X128717428Y-115561785D01*
X128717428Y-115561785D02*
X128680285Y-115598928D01*
X128680285Y-115598928D02*
X128643142Y-115673214D01*
X128643142Y-115673214D02*
X128643142Y-115896071D01*
X128643142Y-115896071D02*
X128680285Y-115970357D01*
X128680285Y-115970357D02*
X128717428Y-116007500D01*
X128717428Y-116007500D02*
X128791713Y-116044642D01*
X128791713Y-116044642D02*
X128940285Y-116044642D01*
X128940285Y-116044642D02*
X129014571Y-116007500D01*
X129385999Y-115524642D02*
X129385999Y-116304642D01*
X129720285Y-115524642D02*
X129720285Y-115933214D01*
X129720285Y-115933214D02*
X129683142Y-116007500D01*
X129683142Y-116007500D02*
X129608856Y-116044642D01*
X129608856Y-116044642D02*
X129497427Y-116044642D01*
X129497427Y-116044642D02*
X129423142Y-116007500D01*
X129423142Y-116007500D02*
X129385999Y-115970357D01*
X130017427Y-115227500D02*
X130054570Y-115264642D01*
X130054570Y-115264642D02*
X130128856Y-115376071D01*
X130128856Y-115376071D02*
X130165999Y-115450357D01*
X130165999Y-115450357D02*
X130203141Y-115561785D01*
X130203141Y-115561785D02*
X130240284Y-115747500D01*
X130240284Y-115747500D02*
X130240284Y-115896071D01*
X130240284Y-115896071D02*
X130203141Y-116081785D01*
X130203141Y-116081785D02*
X130165999Y-116193214D01*
X130165999Y-116193214D02*
X130128856Y-116267500D01*
X130128856Y-116267500D02*
X130054570Y-116378928D01*
X130054570Y-116378928D02*
X130017427Y-116416071D01*
X120835714Y-114669614D02*
X121095714Y-114669614D01*
X121207142Y-114261042D02*
X120835714Y-114261042D01*
X120835714Y-114261042D02*
X120835714Y-115041042D01*
X120835714Y-115041042D02*
X121207142Y-115041042D01*
X121467142Y-115041042D02*
X121987142Y-114261042D01*
X121987142Y-115041042D02*
X121467142Y-114261042D01*
X122284285Y-114261042D02*
X122284285Y-115041042D01*
X122284285Y-115041042D02*
X122581428Y-115041042D01*
X122581428Y-115041042D02*
X122655713Y-115003900D01*
X122655713Y-115003900D02*
X122692856Y-114966757D01*
X122692856Y-114966757D02*
X122729999Y-114892471D01*
X122729999Y-114892471D02*
X122729999Y-114781042D01*
X122729999Y-114781042D02*
X122692856Y-114706757D01*
X122692856Y-114706757D02*
X122655713Y-114669614D01*
X122655713Y-114669614D02*
X122581428Y-114632471D01*
X122581428Y-114632471D02*
X122284285Y-114632471D01*
X122989999Y-115041042D02*
X123472856Y-115041042D01*
X123472856Y-115041042D02*
X123212856Y-114743900D01*
X123212856Y-114743900D02*
X123324285Y-114743900D01*
X123324285Y-114743900D02*
X123398571Y-114706757D01*
X123398571Y-114706757D02*
X123435713Y-114669614D01*
X123435713Y-114669614D02*
X123472856Y-114595328D01*
X123472856Y-114595328D02*
X123472856Y-114409614D01*
X123472856Y-114409614D02*
X123435713Y-114335328D01*
X123435713Y-114335328D02*
X123398571Y-114298185D01*
X123398571Y-114298185D02*
X123324285Y-114261042D01*
X123324285Y-114261042D02*
X123101428Y-114261042D01*
X123101428Y-114261042D02*
X123027142Y-114298185D01*
X123027142Y-114298185D02*
X122989999Y-114335328D01*
X124720856Y-114335328D02*
X124683713Y-114298185D01*
X124683713Y-114298185D02*
X124572285Y-114261042D01*
X124572285Y-114261042D02*
X124497999Y-114261042D01*
X124497999Y-114261042D02*
X124386570Y-114298185D01*
X124386570Y-114298185D02*
X124312285Y-114372471D01*
X124312285Y-114372471D02*
X124275142Y-114446757D01*
X124275142Y-114446757D02*
X124237999Y-114595328D01*
X124237999Y-114595328D02*
X124237999Y-114706757D01*
X124237999Y-114706757D02*
X124275142Y-114855328D01*
X124275142Y-114855328D02*
X124312285Y-114929614D01*
X124312285Y-114929614D02*
X124386570Y-115003900D01*
X124386570Y-115003900D02*
X124497999Y-115041042D01*
X124497999Y-115041042D02*
X124572285Y-115041042D01*
X124572285Y-115041042D02*
X124683713Y-115003900D01*
X124683713Y-115003900D02*
X124720856Y-114966757D01*
X125055142Y-114669614D02*
X125315142Y-114669614D01*
X125426570Y-114261042D02*
X125055142Y-114261042D01*
X125055142Y-114261042D02*
X125055142Y-115041042D01*
X125055142Y-115041042D02*
X125426570Y-115041042D01*
X125723713Y-114966757D02*
X125760856Y-115003900D01*
X125760856Y-115003900D02*
X125835142Y-115041042D01*
X125835142Y-115041042D02*
X126020856Y-115041042D01*
X126020856Y-115041042D02*
X126095142Y-115003900D01*
X126095142Y-115003900D02*
X126132284Y-114966757D01*
X126132284Y-114966757D02*
X126169427Y-114892471D01*
X126169427Y-114892471D02*
X126169427Y-114818185D01*
X126169427Y-114818185D02*
X126132284Y-114706757D01*
X126132284Y-114706757D02*
X125686570Y-114261042D01*
X125686570Y-114261042D02*
X126169427Y-114261042D01*
X127194570Y-113963900D02*
X127157427Y-114001042D01*
X127157427Y-114001042D02*
X127083141Y-114112471D01*
X127083141Y-114112471D02*
X127045999Y-114186757D01*
X127045999Y-114186757D02*
X127008856Y-114298185D01*
X127008856Y-114298185D02*
X126971713Y-114483900D01*
X126971713Y-114483900D02*
X126971713Y-114632471D01*
X126971713Y-114632471D02*
X127008856Y-114818185D01*
X127008856Y-114818185D02*
X127045999Y-114929614D01*
X127045999Y-114929614D02*
X127083141Y-115003900D01*
X127083141Y-115003900D02*
X127157427Y-115115328D01*
X127157427Y-115115328D02*
X127194570Y-115152471D01*
X127863141Y-114261042D02*
X127491713Y-114261042D01*
X127491713Y-114261042D02*
X127491713Y-115041042D01*
X128234570Y-114261042D02*
X128160285Y-114298185D01*
X128160285Y-114298185D02*
X128123142Y-114335328D01*
X128123142Y-114335328D02*
X128085999Y-114409614D01*
X128085999Y-114409614D02*
X128085999Y-114632471D01*
X128085999Y-114632471D02*
X128123142Y-114706757D01*
X128123142Y-114706757D02*
X128160285Y-114743900D01*
X128160285Y-114743900D02*
X128234570Y-114781042D01*
X128234570Y-114781042D02*
X128345999Y-114781042D01*
X128345999Y-114781042D02*
X128420285Y-114743900D01*
X128420285Y-114743900D02*
X128457428Y-114706757D01*
X128457428Y-114706757D02*
X128494570Y-114632471D01*
X128494570Y-114632471D02*
X128494570Y-114409614D01*
X128494570Y-114409614D02*
X128457428Y-114335328D01*
X128457428Y-114335328D02*
X128420285Y-114298185D01*
X128420285Y-114298185D02*
X128345999Y-114261042D01*
X128345999Y-114261042D02*
X128234570Y-114261042D01*
X128754570Y-114781042D02*
X128903142Y-114261042D01*
X128903142Y-114261042D02*
X129051713Y-114632471D01*
X129051713Y-114632471D02*
X129200284Y-114261042D01*
X129200284Y-114261042D02*
X129348856Y-114781042D01*
X129571713Y-113963900D02*
X129608856Y-114001042D01*
X129608856Y-114001042D02*
X129683142Y-114112471D01*
X129683142Y-114112471D02*
X129720285Y-114186757D01*
X129720285Y-114186757D02*
X129757427Y-114298185D01*
X129757427Y-114298185D02*
X129794570Y-114483900D01*
X129794570Y-114483900D02*
X129794570Y-114632471D01*
X129794570Y-114632471D02*
X129757427Y-114818185D01*
X129757427Y-114818185D02*
X129720285Y-114929614D01*
X129720285Y-114929614D02*
X129683142Y-115003900D01*
X129683142Y-115003900D02*
X129608856Y-115115328D01*
X129608856Y-115115328D02*
X129571713Y-115152471D01*
X120835714Y-113406014D02*
X121095714Y-113406014D01*
X121207142Y-112997442D02*
X120835714Y-112997442D01*
X120835714Y-112997442D02*
X120835714Y-113777442D01*
X120835714Y-113777442D02*
X121207142Y-113777442D01*
X121467142Y-113777442D02*
X121987142Y-112997442D01*
X121987142Y-113777442D02*
X121467142Y-112997442D01*
X122284285Y-112997442D02*
X122284285Y-113777442D01*
X122284285Y-113777442D02*
X122581428Y-113777442D01*
X122581428Y-113777442D02*
X122655713Y-113740300D01*
X122655713Y-113740300D02*
X122692856Y-113703157D01*
X122692856Y-113703157D02*
X122729999Y-113628871D01*
X122729999Y-113628871D02*
X122729999Y-113517442D01*
X122729999Y-113517442D02*
X122692856Y-113443157D01*
X122692856Y-113443157D02*
X122655713Y-113406014D01*
X122655713Y-113406014D02*
X122581428Y-113368871D01*
X122581428Y-113368871D02*
X122284285Y-113368871D01*
X123472856Y-112997442D02*
X123027142Y-112997442D01*
X123249999Y-112997442D02*
X123249999Y-113777442D01*
X123249999Y-113777442D02*
X123175713Y-113666014D01*
X123175713Y-113666014D02*
X123101428Y-113591728D01*
X123101428Y-113591728D02*
X123027142Y-113554585D01*
X124720856Y-113071728D02*
X124683713Y-113034585D01*
X124683713Y-113034585D02*
X124572285Y-112997442D01*
X124572285Y-112997442D02*
X124497999Y-112997442D01*
X124497999Y-112997442D02*
X124386570Y-113034585D01*
X124386570Y-113034585D02*
X124312285Y-113108871D01*
X124312285Y-113108871D02*
X124275142Y-113183157D01*
X124275142Y-113183157D02*
X124237999Y-113331728D01*
X124237999Y-113331728D02*
X124237999Y-113443157D01*
X124237999Y-113443157D02*
X124275142Y-113591728D01*
X124275142Y-113591728D02*
X124312285Y-113666014D01*
X124312285Y-113666014D02*
X124386570Y-113740300D01*
X124386570Y-113740300D02*
X124497999Y-113777442D01*
X124497999Y-113777442D02*
X124572285Y-113777442D01*
X124572285Y-113777442D02*
X124683713Y-113740300D01*
X124683713Y-113740300D02*
X124720856Y-113703157D01*
X125055142Y-113406014D02*
X125315142Y-113406014D01*
X125426570Y-112997442D02*
X125055142Y-112997442D01*
X125055142Y-112997442D02*
X125055142Y-113777442D01*
X125055142Y-113777442D02*
X125426570Y-113777442D01*
X125686570Y-113777442D02*
X126169427Y-113777442D01*
X126169427Y-113777442D02*
X125909427Y-113480300D01*
X125909427Y-113480300D02*
X126020856Y-113480300D01*
X126020856Y-113480300D02*
X126095142Y-113443157D01*
X126095142Y-113443157D02*
X126132284Y-113406014D01*
X126132284Y-113406014D02*
X126169427Y-113331728D01*
X126169427Y-113331728D02*
X126169427Y-113146014D01*
X126169427Y-113146014D02*
X126132284Y-113071728D01*
X126132284Y-113071728D02*
X126095142Y-113034585D01*
X126095142Y-113034585D02*
X126020856Y-112997442D01*
X126020856Y-112997442D02*
X125797999Y-112997442D01*
X125797999Y-112997442D02*
X125723713Y-113034585D01*
X125723713Y-113034585D02*
X125686570Y-113071728D01*
X127194570Y-112700300D02*
X127157427Y-112737442D01*
X127157427Y-112737442D02*
X127083141Y-112848871D01*
X127083141Y-112848871D02*
X127045999Y-112923157D01*
X127045999Y-112923157D02*
X127008856Y-113034585D01*
X127008856Y-113034585D02*
X126971713Y-113220300D01*
X126971713Y-113220300D02*
X126971713Y-113368871D01*
X126971713Y-113368871D02*
X127008856Y-113554585D01*
X127008856Y-113554585D02*
X127045999Y-113666014D01*
X127045999Y-113666014D02*
X127083141Y-113740300D01*
X127083141Y-113740300D02*
X127157427Y-113851728D01*
X127157427Y-113851728D02*
X127194570Y-113888871D01*
X127863141Y-112997442D02*
X127491713Y-112997442D01*
X127491713Y-112997442D02*
X127491713Y-113777442D01*
X128234570Y-112997442D02*
X128160285Y-113034585D01*
X128160285Y-113034585D02*
X128123142Y-113071728D01*
X128123142Y-113071728D02*
X128085999Y-113146014D01*
X128085999Y-113146014D02*
X128085999Y-113368871D01*
X128085999Y-113368871D02*
X128123142Y-113443157D01*
X128123142Y-113443157D02*
X128160285Y-113480300D01*
X128160285Y-113480300D02*
X128234570Y-113517442D01*
X128234570Y-113517442D02*
X128345999Y-113517442D01*
X128345999Y-113517442D02*
X128420285Y-113480300D01*
X128420285Y-113480300D02*
X128457428Y-113443157D01*
X128457428Y-113443157D02*
X128494570Y-113368871D01*
X128494570Y-113368871D02*
X128494570Y-113146014D01*
X128494570Y-113146014D02*
X128457428Y-113071728D01*
X128457428Y-113071728D02*
X128420285Y-113034585D01*
X128420285Y-113034585D02*
X128345999Y-112997442D01*
X128345999Y-112997442D02*
X128234570Y-112997442D01*
X128754570Y-113517442D02*
X128903142Y-112997442D01*
X128903142Y-112997442D02*
X129051713Y-113368871D01*
X129051713Y-113368871D02*
X129200284Y-112997442D01*
X129200284Y-112997442D02*
X129348856Y-113517442D01*
X129571713Y-112700300D02*
X129608856Y-112737442D01*
X129608856Y-112737442D02*
X129683142Y-112848871D01*
X129683142Y-112848871D02*
X129720285Y-112923157D01*
X129720285Y-112923157D02*
X129757427Y-113034585D01*
X129757427Y-113034585D02*
X129794570Y-113220300D01*
X129794570Y-113220300D02*
X129794570Y-113368871D01*
X129794570Y-113368871D02*
X129757427Y-113554585D01*
X129757427Y-113554585D02*
X129720285Y-113666014D01*
X129720285Y-113666014D02*
X129683142Y-113740300D01*
X129683142Y-113740300D02*
X129608856Y-113851728D01*
X129608856Y-113851728D02*
X129571713Y-113888871D01*
X120835714Y-112142414D02*
X121095714Y-112142414D01*
X121207142Y-111733842D02*
X120835714Y-111733842D01*
X120835714Y-111733842D02*
X120835714Y-112513842D01*
X120835714Y-112513842D02*
X121207142Y-112513842D01*
X121467142Y-112513842D02*
X121987142Y-111733842D01*
X121987142Y-112513842D02*
X121467142Y-111733842D01*
X122284285Y-111733842D02*
X122284285Y-112513842D01*
X122284285Y-112513842D02*
X122581428Y-112513842D01*
X122581428Y-112513842D02*
X122655713Y-112476700D01*
X122655713Y-112476700D02*
X122692856Y-112439557D01*
X122692856Y-112439557D02*
X122729999Y-112365271D01*
X122729999Y-112365271D02*
X122729999Y-112253842D01*
X122729999Y-112253842D02*
X122692856Y-112179557D01*
X122692856Y-112179557D02*
X122655713Y-112142414D01*
X122655713Y-112142414D02*
X122581428Y-112105271D01*
X122581428Y-112105271D02*
X122284285Y-112105271D01*
X123398571Y-112253842D02*
X123398571Y-111733842D01*
X123212856Y-112550985D02*
X123027142Y-111993842D01*
X123027142Y-111993842D02*
X123509999Y-111993842D01*
X124237999Y-111956700D02*
X124609428Y-111956700D01*
X124163713Y-111733842D02*
X124423713Y-112513842D01*
X124423713Y-112513842D02*
X124683713Y-111733842D01*
X125352284Y-111733842D02*
X124906570Y-111733842D01*
X125129427Y-111733842D02*
X125129427Y-112513842D01*
X125129427Y-112513842D02*
X125055141Y-112402414D01*
X125055141Y-112402414D02*
X124980856Y-112328128D01*
X124980856Y-112328128D02*
X124906570Y-112290985D01*
X120835714Y-110878814D02*
X121095714Y-110878814D01*
X121207142Y-110470242D02*
X120835714Y-110470242D01*
X120835714Y-110470242D02*
X120835714Y-111250242D01*
X120835714Y-111250242D02*
X121207142Y-111250242D01*
X121467142Y-111250242D02*
X121987142Y-110470242D01*
X121987142Y-111250242D02*
X121467142Y-110470242D01*
X122284285Y-110470242D02*
X122284285Y-111250242D01*
X122284285Y-111250242D02*
X122581428Y-111250242D01*
X122581428Y-111250242D02*
X122655713Y-111213100D01*
X122655713Y-111213100D02*
X122692856Y-111175957D01*
X122692856Y-111175957D02*
X122729999Y-111101671D01*
X122729999Y-111101671D02*
X122729999Y-110990242D01*
X122729999Y-110990242D02*
X122692856Y-110915957D01*
X122692856Y-110915957D02*
X122655713Y-110878814D01*
X122655713Y-110878814D02*
X122581428Y-110841671D01*
X122581428Y-110841671D02*
X122284285Y-110841671D01*
X122989999Y-111250242D02*
X123509999Y-111250242D01*
X123509999Y-111250242D02*
X123175713Y-110470242D01*
X124237999Y-110693100D02*
X124609428Y-110693100D01*
X124163713Y-110470242D02*
X124423713Y-111250242D01*
X124423713Y-111250242D02*
X124683713Y-110470242D01*
X125092284Y-111250242D02*
X125166570Y-111250242D01*
X125166570Y-111250242D02*
X125240856Y-111213100D01*
X125240856Y-111213100D02*
X125277999Y-111175957D01*
X125277999Y-111175957D02*
X125315141Y-111101671D01*
X125315141Y-111101671D02*
X125352284Y-110953100D01*
X125352284Y-110953100D02*
X125352284Y-110767385D01*
X125352284Y-110767385D02*
X125315141Y-110618814D01*
X125315141Y-110618814D02*
X125277999Y-110544528D01*
X125277999Y-110544528D02*
X125240856Y-110507385D01*
X125240856Y-110507385D02*
X125166570Y-110470242D01*
X125166570Y-110470242D02*
X125092284Y-110470242D01*
X125092284Y-110470242D02*
X125017999Y-110507385D01*
X125017999Y-110507385D02*
X124980856Y-110544528D01*
X124980856Y-110544528D02*
X124943713Y-110618814D01*
X124943713Y-110618814D02*
X124906570Y-110767385D01*
X124906570Y-110767385D02*
X124906570Y-110953100D01*
X124906570Y-110953100D02*
X124943713Y-111101671D01*
X124943713Y-111101671D02*
X124980856Y-111175957D01*
X124980856Y-111175957D02*
X125017999Y-111213100D01*
X125017999Y-111213100D02*
X125092284Y-111250242D01*
X115374714Y-109083385D02*
X115969000Y-109083385D01*
X115671857Y-108786242D02*
X115671857Y-109380528D01*
X116711856Y-109566242D02*
X116340428Y-109566242D01*
X116340428Y-109566242D02*
X116303285Y-109194814D01*
X116303285Y-109194814D02*
X116340428Y-109231957D01*
X116340428Y-109231957D02*
X116414714Y-109269100D01*
X116414714Y-109269100D02*
X116600428Y-109269100D01*
X116600428Y-109269100D02*
X116674714Y-109231957D01*
X116674714Y-109231957D02*
X116711856Y-109194814D01*
X116711856Y-109194814D02*
X116748999Y-109120528D01*
X116748999Y-109120528D02*
X116748999Y-108934814D01*
X116748999Y-108934814D02*
X116711856Y-108860528D01*
X116711856Y-108860528D02*
X116674714Y-108823385D01*
X116674714Y-108823385D02*
X116600428Y-108786242D01*
X116600428Y-108786242D02*
X116414714Y-108786242D01*
X116414714Y-108786242D02*
X116340428Y-108823385D01*
X116340428Y-108823385D02*
X116303285Y-108860528D01*
X116971856Y-109566242D02*
X117231856Y-108786242D01*
X117231856Y-108786242D02*
X117491856Y-109566242D01*
X115783285Y-107001900D02*
X115709000Y-107039042D01*
X115709000Y-107039042D02*
X115597571Y-107039042D01*
X115597571Y-107039042D02*
X115486142Y-107001900D01*
X115486142Y-107001900D02*
X115411857Y-106927614D01*
X115411857Y-106927614D02*
X115374714Y-106853328D01*
X115374714Y-106853328D02*
X115337571Y-106704757D01*
X115337571Y-106704757D02*
X115337571Y-106593328D01*
X115337571Y-106593328D02*
X115374714Y-106444757D01*
X115374714Y-106444757D02*
X115411857Y-106370471D01*
X115411857Y-106370471D02*
X115486142Y-106296185D01*
X115486142Y-106296185D02*
X115597571Y-106259042D01*
X115597571Y-106259042D02*
X115671857Y-106259042D01*
X115671857Y-106259042D02*
X115783285Y-106296185D01*
X115783285Y-106296185D02*
X115820428Y-106333328D01*
X115820428Y-106333328D02*
X115820428Y-106593328D01*
X115820428Y-106593328D02*
X115671857Y-106593328D01*
X116154714Y-106259042D02*
X116154714Y-107039042D01*
X116154714Y-107039042D02*
X116600428Y-106259042D01*
X116600428Y-106259042D02*
X116600428Y-107039042D01*
X116971857Y-106259042D02*
X116971857Y-107039042D01*
X116971857Y-107039042D02*
X117157571Y-107039042D01*
X117157571Y-107039042D02*
X117269000Y-107001900D01*
X117269000Y-107001900D02*
X117343285Y-106927614D01*
X117343285Y-106927614D02*
X117380428Y-106853328D01*
X117380428Y-106853328D02*
X117417571Y-106704757D01*
X117417571Y-106704757D02*
X117417571Y-106593328D01*
X117417571Y-106593328D02*
X117380428Y-106444757D01*
X117380428Y-106444757D02*
X117343285Y-106370471D01*
X117343285Y-106370471D02*
X117269000Y-106296185D01*
X117269000Y-106296185D02*
X117157571Y-106259042D01*
X117157571Y-106259042D02*
X116971857Y-106259042D01*
X115337571Y-103954700D02*
X115709000Y-103954700D01*
X115263285Y-103731842D02*
X115523285Y-104511842D01*
X115523285Y-104511842D02*
X115783285Y-103731842D01*
X116377571Y-104251842D02*
X116377571Y-103731842D01*
X116043285Y-104251842D02*
X116043285Y-103843271D01*
X116043285Y-103843271D02*
X116080428Y-103768985D01*
X116080428Y-103768985D02*
X116154713Y-103731842D01*
X116154713Y-103731842D02*
X116266142Y-103731842D01*
X116266142Y-103731842D02*
X116340428Y-103768985D01*
X116340428Y-103768985D02*
X116377571Y-103806128D01*
X117083285Y-103731842D02*
X117083285Y-104511842D01*
X117083285Y-103768985D02*
X117008999Y-103731842D01*
X117008999Y-103731842D02*
X116860427Y-103731842D01*
X116860427Y-103731842D02*
X116786142Y-103768985D01*
X116786142Y-103768985D02*
X116748999Y-103806128D01*
X116748999Y-103806128D02*
X116711856Y-103880414D01*
X116711856Y-103880414D02*
X116711856Y-104103271D01*
X116711856Y-104103271D02*
X116748999Y-104177557D01*
X116748999Y-104177557D02*
X116786142Y-104214700D01*
X116786142Y-104214700D02*
X116860427Y-104251842D01*
X116860427Y-104251842D02*
X117008999Y-104251842D01*
X117008999Y-104251842D02*
X117083285Y-104214700D01*
X117922713Y-103731842D02*
X117922713Y-104511842D01*
X118294142Y-104251842D02*
X118294142Y-103731842D01*
X118294142Y-104177557D02*
X118331285Y-104214700D01*
X118331285Y-104214700D02*
X118405570Y-104251842D01*
X118405570Y-104251842D02*
X118516999Y-104251842D01*
X118516999Y-104251842D02*
X118591285Y-104214700D01*
X118591285Y-104214700D02*
X118628428Y-104140414D01*
X118628428Y-104140414D02*
X118628428Y-103731842D01*
X115931857Y-102021785D02*
X115263285Y-101018928D01*
X116191857Y-101204642D02*
X116191857Y-101984642D01*
X116191857Y-101984642D02*
X116637571Y-101204642D01*
X116637571Y-101204642D02*
X116637571Y-101984642D01*
X117009000Y-101204642D02*
X117009000Y-101984642D01*
X117009000Y-101984642D02*
X117269000Y-101427500D01*
X117269000Y-101427500D02*
X117529000Y-101984642D01*
X117529000Y-101984642D02*
X117529000Y-101204642D01*
X117900429Y-101204642D02*
X117900429Y-101984642D01*
X115337571Y-98900300D02*
X115709000Y-98900300D01*
X115263285Y-98677442D02*
X115523285Y-99457442D01*
X115523285Y-99457442D02*
X115783285Y-98677442D01*
X116451856Y-98677442D02*
X116006142Y-98677442D01*
X116228999Y-98677442D02*
X116228999Y-99457442D01*
X116228999Y-99457442D02*
X116154713Y-99346014D01*
X116154713Y-99346014D02*
X116080428Y-99271728D01*
X116080428Y-99271728D02*
X116006142Y-99234585D01*
X117157570Y-99457442D02*
X116786142Y-99457442D01*
X116786142Y-99457442D02*
X116748999Y-99086014D01*
X116748999Y-99086014D02*
X116786142Y-99123157D01*
X116786142Y-99123157D02*
X116860428Y-99160300D01*
X116860428Y-99160300D02*
X117046142Y-99160300D01*
X117046142Y-99160300D02*
X117120428Y-99123157D01*
X117120428Y-99123157D02*
X117157570Y-99086014D01*
X117157570Y-99086014D02*
X117194713Y-99011728D01*
X117194713Y-99011728D02*
X117194713Y-98826014D01*
X117194713Y-98826014D02*
X117157570Y-98751728D01*
X117157570Y-98751728D02*
X117120428Y-98714585D01*
X117120428Y-98714585D02*
X117046142Y-98677442D01*
X117046142Y-98677442D02*
X116860428Y-98677442D01*
X116860428Y-98677442D02*
X116786142Y-98714585D01*
X116786142Y-98714585D02*
X116748999Y-98751728D01*
X115374714Y-96558814D02*
X115634714Y-96558814D01*
X115746142Y-96150242D02*
X115374714Y-96150242D01*
X115374714Y-96150242D02*
X115374714Y-96930242D01*
X115374714Y-96930242D02*
X115746142Y-96930242D01*
X116006142Y-96930242D02*
X116526142Y-96150242D01*
X116526142Y-96930242D02*
X116006142Y-96150242D01*
X116823285Y-96150242D02*
X116823285Y-96930242D01*
X116823285Y-96930242D02*
X117120428Y-96930242D01*
X117120428Y-96930242D02*
X117194713Y-96893100D01*
X117194713Y-96893100D02*
X117231856Y-96855957D01*
X117231856Y-96855957D02*
X117268999Y-96781671D01*
X117268999Y-96781671D02*
X117268999Y-96670242D01*
X117268999Y-96670242D02*
X117231856Y-96595957D01*
X117231856Y-96595957D02*
X117194713Y-96558814D01*
X117194713Y-96558814D02*
X117120428Y-96521671D01*
X117120428Y-96521671D02*
X116823285Y-96521671D01*
X117640428Y-96150242D02*
X117788999Y-96150242D01*
X117788999Y-96150242D02*
X117863285Y-96187385D01*
X117863285Y-96187385D02*
X117900428Y-96224528D01*
X117900428Y-96224528D02*
X117974713Y-96335957D01*
X117974713Y-96335957D02*
X118011856Y-96484528D01*
X118011856Y-96484528D02*
X118011856Y-96781671D01*
X118011856Y-96781671D02*
X117974713Y-96855957D01*
X117974713Y-96855957D02*
X117937571Y-96893100D01*
X117937571Y-96893100D02*
X117863285Y-96930242D01*
X117863285Y-96930242D02*
X117714713Y-96930242D01*
X117714713Y-96930242D02*
X117640428Y-96893100D01*
X117640428Y-96893100D02*
X117603285Y-96855957D01*
X117603285Y-96855957D02*
X117566142Y-96781671D01*
X117566142Y-96781671D02*
X117566142Y-96595957D01*
X117566142Y-96595957D02*
X117603285Y-96521671D01*
X117603285Y-96521671D02*
X117640428Y-96484528D01*
X117640428Y-96484528D02*
X117714713Y-96447385D01*
X117714713Y-96447385D02*
X117863285Y-96447385D01*
X117863285Y-96447385D02*
X117937571Y-96484528D01*
X117937571Y-96484528D02*
X117974713Y-96521671D01*
X117974713Y-96521671D02*
X118011856Y-96595957D01*
X115374714Y-94031614D02*
X115634714Y-94031614D01*
X115746142Y-93623042D02*
X115374714Y-93623042D01*
X115374714Y-93623042D02*
X115374714Y-94403042D01*
X115374714Y-94403042D02*
X115746142Y-94403042D01*
X116006142Y-94403042D02*
X116526142Y-93623042D01*
X116526142Y-94403042D02*
X116006142Y-93623042D01*
X116823285Y-93623042D02*
X116823285Y-94403042D01*
X116823285Y-94403042D02*
X117120428Y-94403042D01*
X117120428Y-94403042D02*
X117194713Y-94365900D01*
X117194713Y-94365900D02*
X117231856Y-94328757D01*
X117231856Y-94328757D02*
X117268999Y-94254471D01*
X117268999Y-94254471D02*
X117268999Y-94143042D01*
X117268999Y-94143042D02*
X117231856Y-94068757D01*
X117231856Y-94068757D02*
X117194713Y-94031614D01*
X117194713Y-94031614D02*
X117120428Y-93994471D01*
X117120428Y-93994471D02*
X116823285Y-93994471D01*
X117714713Y-94068757D02*
X117640428Y-94105900D01*
X117640428Y-94105900D02*
X117603285Y-94143042D01*
X117603285Y-94143042D02*
X117566142Y-94217328D01*
X117566142Y-94217328D02*
X117566142Y-94254471D01*
X117566142Y-94254471D02*
X117603285Y-94328757D01*
X117603285Y-94328757D02*
X117640428Y-94365900D01*
X117640428Y-94365900D02*
X117714713Y-94403042D01*
X117714713Y-94403042D02*
X117863285Y-94403042D01*
X117863285Y-94403042D02*
X117937571Y-94365900D01*
X117937571Y-94365900D02*
X117974713Y-94328757D01*
X117974713Y-94328757D02*
X118011856Y-94254471D01*
X118011856Y-94254471D02*
X118011856Y-94217328D01*
X118011856Y-94217328D02*
X117974713Y-94143042D01*
X117974713Y-94143042D02*
X117937571Y-94105900D01*
X117937571Y-94105900D02*
X117863285Y-94068757D01*
X117863285Y-94068757D02*
X117714713Y-94068757D01*
X117714713Y-94068757D02*
X117640428Y-94031614D01*
X117640428Y-94031614D02*
X117603285Y-93994471D01*
X117603285Y-93994471D02*
X117566142Y-93920185D01*
X117566142Y-93920185D02*
X117566142Y-93771614D01*
X117566142Y-93771614D02*
X117603285Y-93697328D01*
X117603285Y-93697328D02*
X117640428Y-93660185D01*
X117640428Y-93660185D02*
X117714713Y-93623042D01*
X117714713Y-93623042D02*
X117863285Y-93623042D01*
X117863285Y-93623042D02*
X117937571Y-93660185D01*
X117937571Y-93660185D02*
X117974713Y-93697328D01*
X117974713Y-93697328D02*
X118011856Y-93771614D01*
X118011856Y-93771614D02*
X118011856Y-93920185D01*
X118011856Y-93920185D02*
X117974713Y-93994471D01*
X117974713Y-93994471D02*
X117937571Y-94031614D01*
X117937571Y-94031614D02*
X117863285Y-94068757D01*
X115374714Y-91504414D02*
X115634714Y-91504414D01*
X115746142Y-91095842D02*
X115374714Y-91095842D01*
X115374714Y-91095842D02*
X115374714Y-91875842D01*
X115374714Y-91875842D02*
X115746142Y-91875842D01*
X116006142Y-91875842D02*
X116526142Y-91095842D01*
X116526142Y-91875842D02*
X116006142Y-91095842D01*
X116823285Y-91095842D02*
X116823285Y-91875842D01*
X116823285Y-91875842D02*
X117120428Y-91875842D01*
X117120428Y-91875842D02*
X117194713Y-91838700D01*
X117194713Y-91838700D02*
X117231856Y-91801557D01*
X117231856Y-91801557D02*
X117268999Y-91727271D01*
X117268999Y-91727271D02*
X117268999Y-91615842D01*
X117268999Y-91615842D02*
X117231856Y-91541557D01*
X117231856Y-91541557D02*
X117194713Y-91504414D01*
X117194713Y-91504414D02*
X117120428Y-91467271D01*
X117120428Y-91467271D02*
X116823285Y-91467271D01*
X117528999Y-91875842D02*
X118048999Y-91875842D01*
X118048999Y-91875842D02*
X117714713Y-91095842D01*
X115374714Y-88977214D02*
X115634714Y-88977214D01*
X115746142Y-88568642D02*
X115374714Y-88568642D01*
X115374714Y-88568642D02*
X115374714Y-89348642D01*
X115374714Y-89348642D02*
X115746142Y-89348642D01*
X116006142Y-89348642D02*
X116526142Y-88568642D01*
X116526142Y-89348642D02*
X116006142Y-88568642D01*
X116823285Y-88568642D02*
X116823285Y-89348642D01*
X116823285Y-89348642D02*
X117120428Y-89348642D01*
X117120428Y-89348642D02*
X117194713Y-89311500D01*
X117194713Y-89311500D02*
X117231856Y-89274357D01*
X117231856Y-89274357D02*
X117268999Y-89200071D01*
X117268999Y-89200071D02*
X117268999Y-89088642D01*
X117268999Y-89088642D02*
X117231856Y-89014357D01*
X117231856Y-89014357D02*
X117194713Y-88977214D01*
X117194713Y-88977214D02*
X117120428Y-88940071D01*
X117120428Y-88940071D02*
X116823285Y-88940071D01*
X117937571Y-89348642D02*
X117788999Y-89348642D01*
X117788999Y-89348642D02*
X117714713Y-89311500D01*
X117714713Y-89311500D02*
X117677571Y-89274357D01*
X117677571Y-89274357D02*
X117603285Y-89162928D01*
X117603285Y-89162928D02*
X117566142Y-89014357D01*
X117566142Y-89014357D02*
X117566142Y-88717214D01*
X117566142Y-88717214D02*
X117603285Y-88642928D01*
X117603285Y-88642928D02*
X117640428Y-88605785D01*
X117640428Y-88605785D02*
X117714713Y-88568642D01*
X117714713Y-88568642D02*
X117863285Y-88568642D01*
X117863285Y-88568642D02*
X117937571Y-88605785D01*
X117937571Y-88605785D02*
X117974713Y-88642928D01*
X117974713Y-88642928D02*
X118011856Y-88717214D01*
X118011856Y-88717214D02*
X118011856Y-88902928D01*
X118011856Y-88902928D02*
X117974713Y-88977214D01*
X117974713Y-88977214D02*
X117937571Y-89014357D01*
X117937571Y-89014357D02*
X117863285Y-89051500D01*
X117863285Y-89051500D02*
X117714713Y-89051500D01*
X117714713Y-89051500D02*
X117640428Y-89014357D01*
X117640428Y-89014357D02*
X117603285Y-88977214D01*
X117603285Y-88977214D02*
X117566142Y-88902928D01*
X115374714Y-86450014D02*
X115634714Y-86450014D01*
X115746142Y-86041442D02*
X115374714Y-86041442D01*
X115374714Y-86041442D02*
X115374714Y-86821442D01*
X115374714Y-86821442D02*
X115746142Y-86821442D01*
X116006142Y-86821442D02*
X116526142Y-86041442D01*
X116526142Y-86821442D02*
X116006142Y-86041442D01*
X116823285Y-86041442D02*
X116823285Y-86821442D01*
X116823285Y-86821442D02*
X117120428Y-86821442D01*
X117120428Y-86821442D02*
X117194713Y-86784300D01*
X117194713Y-86784300D02*
X117231856Y-86747157D01*
X117231856Y-86747157D02*
X117268999Y-86672871D01*
X117268999Y-86672871D02*
X117268999Y-86561442D01*
X117268999Y-86561442D02*
X117231856Y-86487157D01*
X117231856Y-86487157D02*
X117194713Y-86450014D01*
X117194713Y-86450014D02*
X117120428Y-86412871D01*
X117120428Y-86412871D02*
X116823285Y-86412871D01*
X117974713Y-86821442D02*
X117603285Y-86821442D01*
X117603285Y-86821442D02*
X117566142Y-86450014D01*
X117566142Y-86450014D02*
X117603285Y-86487157D01*
X117603285Y-86487157D02*
X117677571Y-86524300D01*
X117677571Y-86524300D02*
X117863285Y-86524300D01*
X117863285Y-86524300D02*
X117937571Y-86487157D01*
X117937571Y-86487157D02*
X117974713Y-86450014D01*
X117974713Y-86450014D02*
X118011856Y-86375728D01*
X118011856Y-86375728D02*
X118011856Y-86190014D01*
X118011856Y-86190014D02*
X117974713Y-86115728D01*
X117974713Y-86115728D02*
X117937571Y-86078585D01*
X117937571Y-86078585D02*
X117863285Y-86041442D01*
X117863285Y-86041442D02*
X117677571Y-86041442D01*
X117677571Y-86041442D02*
X117603285Y-86078585D01*
X117603285Y-86078585D02*
X117566142Y-86115728D01*
X115597571Y-84294242D02*
X115597571Y-83737100D01*
X115597571Y-83737100D02*
X115560428Y-83625671D01*
X115560428Y-83625671D02*
X115486142Y-83551385D01*
X115486142Y-83551385D02*
X115374714Y-83514242D01*
X115374714Y-83514242D02*
X115300428Y-83514242D01*
X115969000Y-83514242D02*
X115969000Y-84294242D01*
X115969000Y-84294242D02*
X116266143Y-84294242D01*
X116266143Y-84294242D02*
X116340428Y-84257100D01*
X116340428Y-84257100D02*
X116377571Y-84219957D01*
X116377571Y-84219957D02*
X116414714Y-84145671D01*
X116414714Y-84145671D02*
X116414714Y-84034242D01*
X116414714Y-84034242D02*
X116377571Y-83959957D01*
X116377571Y-83959957D02*
X116340428Y-83922814D01*
X116340428Y-83922814D02*
X116266143Y-83885671D01*
X116266143Y-83885671D02*
X115969000Y-83885671D01*
X116711857Y-84219957D02*
X116749000Y-84257100D01*
X116749000Y-84257100D02*
X116823286Y-84294242D01*
X116823286Y-84294242D02*
X117009000Y-84294242D01*
X117009000Y-84294242D02*
X117083286Y-84257100D01*
X117083286Y-84257100D02*
X117120428Y-84219957D01*
X117120428Y-84219957D02*
X117157571Y-84145671D01*
X117157571Y-84145671D02*
X117157571Y-84071385D01*
X117157571Y-84071385D02*
X117120428Y-83959957D01*
X117120428Y-83959957D02*
X116674714Y-83514242D01*
X116674714Y-83514242D02*
X117157571Y-83514242D01*
X118517000Y-84331385D02*
X117848428Y-83328528D01*
X118925571Y-84294242D02*
X119074143Y-84294242D01*
X119074143Y-84294242D02*
X119148428Y-84257100D01*
X119148428Y-84257100D02*
X119222714Y-84182814D01*
X119222714Y-84182814D02*
X119259857Y-84034242D01*
X119259857Y-84034242D02*
X119259857Y-83774242D01*
X119259857Y-83774242D02*
X119222714Y-83625671D01*
X119222714Y-83625671D02*
X119148428Y-83551385D01*
X119148428Y-83551385D02*
X119074143Y-83514242D01*
X119074143Y-83514242D02*
X118925571Y-83514242D01*
X118925571Y-83514242D02*
X118851286Y-83551385D01*
X118851286Y-83551385D02*
X118777000Y-83625671D01*
X118777000Y-83625671D02*
X118739857Y-83774242D01*
X118739857Y-83774242D02*
X118739857Y-84034242D01*
X118739857Y-84034242D02*
X118777000Y-84182814D01*
X118777000Y-84182814D02*
X118851286Y-84257100D01*
X118851286Y-84257100D02*
X118925571Y-84294242D01*
X119594143Y-83922814D02*
X119854143Y-83922814D01*
X119965571Y-83514242D02*
X119594143Y-83514242D01*
X119594143Y-83514242D02*
X119594143Y-84294242D01*
X119594143Y-84294242D02*
X119965571Y-84294242D01*
X115597571Y-81767042D02*
X115597571Y-81209900D01*
X115597571Y-81209900D02*
X115560428Y-81098471D01*
X115560428Y-81098471D02*
X115486142Y-81024185D01*
X115486142Y-81024185D02*
X115374714Y-80987042D01*
X115374714Y-80987042D02*
X115300428Y-80987042D01*
X115969000Y-80987042D02*
X115969000Y-81767042D01*
X115969000Y-81767042D02*
X116266143Y-81767042D01*
X116266143Y-81767042D02*
X116340428Y-81729900D01*
X116340428Y-81729900D02*
X116377571Y-81692757D01*
X116377571Y-81692757D02*
X116414714Y-81618471D01*
X116414714Y-81618471D02*
X116414714Y-81507042D01*
X116414714Y-81507042D02*
X116377571Y-81432757D01*
X116377571Y-81432757D02*
X116340428Y-81395614D01*
X116340428Y-81395614D02*
X116266143Y-81358471D01*
X116266143Y-81358471D02*
X115969000Y-81358471D01*
X117157571Y-80987042D02*
X116711857Y-80987042D01*
X116934714Y-80987042D02*
X116934714Y-81767042D01*
X116934714Y-81767042D02*
X116860428Y-81655614D01*
X116860428Y-81655614D02*
X116786143Y-81581328D01*
X116786143Y-81581328D02*
X116711857Y-81544185D01*
X117959857Y-80987042D02*
X117959857Y-81767042D01*
X117959857Y-81767042D02*
X118145571Y-81767042D01*
X118145571Y-81767042D02*
X118257000Y-81729900D01*
X118257000Y-81729900D02*
X118331285Y-81655614D01*
X118331285Y-81655614D02*
X118368428Y-81581328D01*
X118368428Y-81581328D02*
X118405571Y-81432757D01*
X118405571Y-81432757D02*
X118405571Y-81321328D01*
X118405571Y-81321328D02*
X118368428Y-81172757D01*
X118368428Y-81172757D02*
X118331285Y-81098471D01*
X118331285Y-81098471D02*
X118257000Y-81024185D01*
X118257000Y-81024185D02*
X118145571Y-80987042D01*
X118145571Y-80987042D02*
X117959857Y-80987042D01*
X119148428Y-80987042D02*
X118702714Y-80987042D01*
X118925571Y-80987042D02*
X118925571Y-81767042D01*
X118925571Y-81767042D02*
X118851285Y-81655614D01*
X118851285Y-81655614D02*
X118777000Y-81581328D01*
X118777000Y-81581328D02*
X118702714Y-81544185D01*
X115597571Y-79239842D02*
X115597571Y-78682700D01*
X115597571Y-78682700D02*
X115560428Y-78571271D01*
X115560428Y-78571271D02*
X115486142Y-78496985D01*
X115486142Y-78496985D02*
X115374714Y-78459842D01*
X115374714Y-78459842D02*
X115300428Y-78459842D01*
X115969000Y-78459842D02*
X115969000Y-79239842D01*
X115969000Y-79239842D02*
X116266143Y-79239842D01*
X116266143Y-79239842D02*
X116340428Y-79202700D01*
X116340428Y-79202700D02*
X116377571Y-79165557D01*
X116377571Y-79165557D02*
X116414714Y-79091271D01*
X116414714Y-79091271D02*
X116414714Y-78979842D01*
X116414714Y-78979842D02*
X116377571Y-78905557D01*
X116377571Y-78905557D02*
X116340428Y-78868414D01*
X116340428Y-78868414D02*
X116266143Y-78831271D01*
X116266143Y-78831271D02*
X115969000Y-78831271D01*
X117157571Y-78459842D02*
X116711857Y-78459842D01*
X116934714Y-78459842D02*
X116934714Y-79239842D01*
X116934714Y-79239842D02*
X116860428Y-79128414D01*
X116860428Y-79128414D02*
X116786143Y-79054128D01*
X116786143Y-79054128D02*
X116711857Y-79016985D01*
X117959857Y-78459842D02*
X117959857Y-79239842D01*
X117959857Y-79239842D02*
X118145571Y-79239842D01*
X118145571Y-79239842D02*
X118257000Y-79202700D01*
X118257000Y-79202700D02*
X118331285Y-79128414D01*
X118331285Y-79128414D02*
X118368428Y-79054128D01*
X118368428Y-79054128D02*
X118405571Y-78905557D01*
X118405571Y-78905557D02*
X118405571Y-78794128D01*
X118405571Y-78794128D02*
X118368428Y-78645557D01*
X118368428Y-78645557D02*
X118331285Y-78571271D01*
X118331285Y-78571271D02*
X118257000Y-78496985D01*
X118257000Y-78496985D02*
X118145571Y-78459842D01*
X118145571Y-78459842D02*
X117959857Y-78459842D01*
X118665571Y-79239842D02*
X119148428Y-79239842D01*
X119148428Y-79239842D02*
X118888428Y-78942700D01*
X118888428Y-78942700D02*
X118999857Y-78942700D01*
X118999857Y-78942700D02*
X119074143Y-78905557D01*
X119074143Y-78905557D02*
X119111285Y-78868414D01*
X119111285Y-78868414D02*
X119148428Y-78794128D01*
X119148428Y-78794128D02*
X119148428Y-78608414D01*
X119148428Y-78608414D02*
X119111285Y-78534128D01*
X119111285Y-78534128D02*
X119074143Y-78496985D01*
X119074143Y-78496985D02*
X118999857Y-78459842D01*
X118999857Y-78459842D02*
X118777000Y-78459842D01*
X118777000Y-78459842D02*
X118702714Y-78496985D01*
X118702714Y-78496985D02*
X118665571Y-78534128D01*
X115931857Y-76749785D02*
X115263285Y-75746928D01*
X116191857Y-75932642D02*
X116191857Y-76712642D01*
X117009000Y-75932642D02*
X116749000Y-76304071D01*
X116563286Y-75932642D02*
X116563286Y-76712642D01*
X116563286Y-76712642D02*
X116860429Y-76712642D01*
X116860429Y-76712642D02*
X116934714Y-76675500D01*
X116934714Y-76675500D02*
X116971857Y-76638357D01*
X116971857Y-76638357D02*
X117009000Y-76564071D01*
X117009000Y-76564071D02*
X117009000Y-76452642D01*
X117009000Y-76452642D02*
X116971857Y-76378357D01*
X116971857Y-76378357D02*
X116934714Y-76341214D01*
X116934714Y-76341214D02*
X116860429Y-76304071D01*
X116860429Y-76304071D02*
X116563286Y-76304071D01*
X117863286Y-75858357D02*
X117789000Y-75895500D01*
X117789000Y-75895500D02*
X117714714Y-75969785D01*
X117714714Y-75969785D02*
X117603286Y-76081214D01*
X117603286Y-76081214D02*
X117529000Y-76118357D01*
X117529000Y-76118357D02*
X117454714Y-76118357D01*
X117491857Y-75932642D02*
X117417572Y-75969785D01*
X117417572Y-75969785D02*
X117343286Y-76044071D01*
X117343286Y-76044071D02*
X117306143Y-76192642D01*
X117306143Y-76192642D02*
X117306143Y-76452642D01*
X117306143Y-76452642D02*
X117343286Y-76601214D01*
X117343286Y-76601214D02*
X117417572Y-76675500D01*
X117417572Y-76675500D02*
X117491857Y-76712642D01*
X117491857Y-76712642D02*
X117640429Y-76712642D01*
X117640429Y-76712642D02*
X117714714Y-76675500D01*
X117714714Y-76675500D02*
X117789000Y-76601214D01*
X117789000Y-76601214D02*
X117826143Y-76452642D01*
X117826143Y-76452642D02*
X117826143Y-76192642D01*
X117826143Y-76192642D02*
X117789000Y-76044071D01*
X117789000Y-76044071D02*
X117714714Y-75969785D01*
X117714714Y-75969785D02*
X117640429Y-75932642D01*
X117640429Y-75932642D02*
X117491857Y-75932642D01*
X115597571Y-74185442D02*
X115597571Y-73628300D01*
X115597571Y-73628300D02*
X115560428Y-73516871D01*
X115560428Y-73516871D02*
X115486142Y-73442585D01*
X115486142Y-73442585D02*
X115374714Y-73405442D01*
X115374714Y-73405442D02*
X115300428Y-73405442D01*
X115969000Y-73405442D02*
X115969000Y-74185442D01*
X115969000Y-74185442D02*
X116266143Y-74185442D01*
X116266143Y-74185442D02*
X116340428Y-74148300D01*
X116340428Y-74148300D02*
X116377571Y-74111157D01*
X116377571Y-74111157D02*
X116414714Y-74036871D01*
X116414714Y-74036871D02*
X116414714Y-73925442D01*
X116414714Y-73925442D02*
X116377571Y-73851157D01*
X116377571Y-73851157D02*
X116340428Y-73814014D01*
X116340428Y-73814014D02*
X116266143Y-73776871D01*
X116266143Y-73776871D02*
X115969000Y-73776871D01*
X116711857Y-74111157D02*
X116749000Y-74148300D01*
X116749000Y-74148300D02*
X116823286Y-74185442D01*
X116823286Y-74185442D02*
X117009000Y-74185442D01*
X117009000Y-74185442D02*
X117083286Y-74148300D01*
X117083286Y-74148300D02*
X117120428Y-74111157D01*
X117120428Y-74111157D02*
X117157571Y-74036871D01*
X117157571Y-74036871D02*
X117157571Y-73962585D01*
X117157571Y-73962585D02*
X117120428Y-73851157D01*
X117120428Y-73851157D02*
X116674714Y-73405442D01*
X116674714Y-73405442D02*
X117157571Y-73405442D01*
X117959857Y-73405442D02*
X117959857Y-74185442D01*
X117959857Y-74185442D02*
X118145571Y-74185442D01*
X118145571Y-74185442D02*
X118257000Y-74148300D01*
X118257000Y-74148300D02*
X118331285Y-74074014D01*
X118331285Y-74074014D02*
X118368428Y-73999728D01*
X118368428Y-73999728D02*
X118405571Y-73851157D01*
X118405571Y-73851157D02*
X118405571Y-73739728D01*
X118405571Y-73739728D02*
X118368428Y-73591157D01*
X118368428Y-73591157D02*
X118331285Y-73516871D01*
X118331285Y-73516871D02*
X118257000Y-73442585D01*
X118257000Y-73442585D02*
X118145571Y-73405442D01*
X118145571Y-73405442D02*
X117959857Y-73405442D01*
X118702714Y-74111157D02*
X118739857Y-74148300D01*
X118739857Y-74148300D02*
X118814143Y-74185442D01*
X118814143Y-74185442D02*
X118999857Y-74185442D01*
X118999857Y-74185442D02*
X119074143Y-74148300D01*
X119074143Y-74148300D02*
X119111285Y-74111157D01*
X119111285Y-74111157D02*
X119148428Y-74036871D01*
X119148428Y-74036871D02*
X119148428Y-73962585D01*
X119148428Y-73962585D02*
X119111285Y-73851157D01*
X119111285Y-73851157D02*
X118665571Y-73405442D01*
X118665571Y-73405442D02*
X119148428Y-73405442D01*
X115597571Y-71658242D02*
X115597571Y-71101100D01*
X115597571Y-71101100D02*
X115560428Y-70989671D01*
X115560428Y-70989671D02*
X115486142Y-70915385D01*
X115486142Y-70915385D02*
X115374714Y-70878242D01*
X115374714Y-70878242D02*
X115300428Y-70878242D01*
X115969000Y-70878242D02*
X115969000Y-71658242D01*
X115969000Y-71658242D02*
X116266143Y-71658242D01*
X116266143Y-71658242D02*
X116340428Y-71621100D01*
X116340428Y-71621100D02*
X116377571Y-71583957D01*
X116377571Y-71583957D02*
X116414714Y-71509671D01*
X116414714Y-71509671D02*
X116414714Y-71398242D01*
X116414714Y-71398242D02*
X116377571Y-71323957D01*
X116377571Y-71323957D02*
X116340428Y-71286814D01*
X116340428Y-71286814D02*
X116266143Y-71249671D01*
X116266143Y-71249671D02*
X115969000Y-71249671D01*
X116711857Y-71583957D02*
X116749000Y-71621100D01*
X116749000Y-71621100D02*
X116823286Y-71658242D01*
X116823286Y-71658242D02*
X117009000Y-71658242D01*
X117009000Y-71658242D02*
X117083286Y-71621100D01*
X117083286Y-71621100D02*
X117120428Y-71583957D01*
X117120428Y-71583957D02*
X117157571Y-71509671D01*
X117157571Y-71509671D02*
X117157571Y-71435385D01*
X117157571Y-71435385D02*
X117120428Y-71323957D01*
X117120428Y-71323957D02*
X116674714Y-70878242D01*
X116674714Y-70878242D02*
X117157571Y-70878242D01*
X117959857Y-70878242D02*
X117959857Y-71658242D01*
X117959857Y-71658242D02*
X118145571Y-71658242D01*
X118145571Y-71658242D02*
X118257000Y-71621100D01*
X118257000Y-71621100D02*
X118331285Y-71546814D01*
X118331285Y-71546814D02*
X118368428Y-71472528D01*
X118368428Y-71472528D02*
X118405571Y-71323957D01*
X118405571Y-71323957D02*
X118405571Y-71212528D01*
X118405571Y-71212528D02*
X118368428Y-71063957D01*
X118368428Y-71063957D02*
X118331285Y-70989671D01*
X118331285Y-70989671D02*
X118257000Y-70915385D01*
X118257000Y-70915385D02*
X118145571Y-70878242D01*
X118145571Y-70878242D02*
X117959857Y-70878242D01*
X118665571Y-71658242D02*
X119148428Y-71658242D01*
X119148428Y-71658242D02*
X118888428Y-71361100D01*
X118888428Y-71361100D02*
X118999857Y-71361100D01*
X118999857Y-71361100D02*
X119074143Y-71323957D01*
X119074143Y-71323957D02*
X119111285Y-71286814D01*
X119111285Y-71286814D02*
X119148428Y-71212528D01*
X119148428Y-71212528D02*
X119148428Y-71026814D01*
X119148428Y-71026814D02*
X119111285Y-70952528D01*
X119111285Y-70952528D02*
X119074143Y-70915385D01*
X119074143Y-70915385D02*
X118999857Y-70878242D01*
X118999857Y-70878242D02*
X118777000Y-70878242D01*
X118777000Y-70878242D02*
X118702714Y-70915385D01*
X118702714Y-70915385D02*
X118665571Y-70952528D01*
X115597571Y-69131042D02*
X115597571Y-68573900D01*
X115597571Y-68573900D02*
X115560428Y-68462471D01*
X115560428Y-68462471D02*
X115486142Y-68388185D01*
X115486142Y-68388185D02*
X115374714Y-68351042D01*
X115374714Y-68351042D02*
X115300428Y-68351042D01*
X115969000Y-68351042D02*
X115969000Y-69131042D01*
X115969000Y-69131042D02*
X116266143Y-69131042D01*
X116266143Y-69131042D02*
X116340428Y-69093900D01*
X116340428Y-69093900D02*
X116377571Y-69056757D01*
X116377571Y-69056757D02*
X116414714Y-68982471D01*
X116414714Y-68982471D02*
X116414714Y-68871042D01*
X116414714Y-68871042D02*
X116377571Y-68796757D01*
X116377571Y-68796757D02*
X116340428Y-68759614D01*
X116340428Y-68759614D02*
X116266143Y-68722471D01*
X116266143Y-68722471D02*
X115969000Y-68722471D01*
X116711857Y-69056757D02*
X116749000Y-69093900D01*
X116749000Y-69093900D02*
X116823286Y-69131042D01*
X116823286Y-69131042D02*
X117009000Y-69131042D01*
X117009000Y-69131042D02*
X117083286Y-69093900D01*
X117083286Y-69093900D02*
X117120428Y-69056757D01*
X117120428Y-69056757D02*
X117157571Y-68982471D01*
X117157571Y-68982471D02*
X117157571Y-68908185D01*
X117157571Y-68908185D02*
X117120428Y-68796757D01*
X117120428Y-68796757D02*
X116674714Y-68351042D01*
X116674714Y-68351042D02*
X117157571Y-68351042D01*
X118517000Y-69168185D02*
X117848428Y-68165328D01*
X118925571Y-69131042D02*
X119074143Y-69131042D01*
X119074143Y-69131042D02*
X119148428Y-69093900D01*
X119148428Y-69093900D02*
X119222714Y-69019614D01*
X119222714Y-69019614D02*
X119259857Y-68871042D01*
X119259857Y-68871042D02*
X119259857Y-68611042D01*
X119259857Y-68611042D02*
X119222714Y-68462471D01*
X119222714Y-68462471D02*
X119148428Y-68388185D01*
X119148428Y-68388185D02*
X119074143Y-68351042D01*
X119074143Y-68351042D02*
X118925571Y-68351042D01*
X118925571Y-68351042D02*
X118851286Y-68388185D01*
X118851286Y-68388185D02*
X118777000Y-68462471D01*
X118777000Y-68462471D02*
X118739857Y-68611042D01*
X118739857Y-68611042D02*
X118739857Y-68871042D01*
X118739857Y-68871042D02*
X118777000Y-69019614D01*
X118777000Y-69019614D02*
X118851286Y-69093900D01*
X118851286Y-69093900D02*
X118925571Y-69131042D01*
X119594143Y-68759614D02*
X119854143Y-68759614D01*
X119965571Y-68351042D02*
X119594143Y-68351042D01*
X119594143Y-68351042D02*
X119594143Y-69131042D01*
X119594143Y-69131042D02*
X119965571Y-69131042D01*
X115597571Y-66603842D02*
X115597571Y-66046700D01*
X115597571Y-66046700D02*
X115560428Y-65935271D01*
X115560428Y-65935271D02*
X115486142Y-65860985D01*
X115486142Y-65860985D02*
X115374714Y-65823842D01*
X115374714Y-65823842D02*
X115300428Y-65823842D01*
X115969000Y-65823842D02*
X115969000Y-66603842D01*
X115969000Y-66603842D02*
X116266143Y-66603842D01*
X116266143Y-66603842D02*
X116340428Y-66566700D01*
X116340428Y-66566700D02*
X116377571Y-66529557D01*
X116377571Y-66529557D02*
X116414714Y-66455271D01*
X116414714Y-66455271D02*
X116414714Y-66343842D01*
X116414714Y-66343842D02*
X116377571Y-66269557D01*
X116377571Y-66269557D02*
X116340428Y-66232414D01*
X116340428Y-66232414D02*
X116266143Y-66195271D01*
X116266143Y-66195271D02*
X115969000Y-66195271D01*
X116711857Y-66529557D02*
X116749000Y-66566700D01*
X116749000Y-66566700D02*
X116823286Y-66603842D01*
X116823286Y-66603842D02*
X117009000Y-66603842D01*
X117009000Y-66603842D02*
X117083286Y-66566700D01*
X117083286Y-66566700D02*
X117120428Y-66529557D01*
X117120428Y-66529557D02*
X117157571Y-66455271D01*
X117157571Y-66455271D02*
X117157571Y-66380985D01*
X117157571Y-66380985D02*
X117120428Y-66269557D01*
X117120428Y-66269557D02*
X116674714Y-65823842D01*
X116674714Y-65823842D02*
X117157571Y-65823842D01*
X117959857Y-65823842D02*
X117959857Y-66603842D01*
X117959857Y-66603842D02*
X118145571Y-66603842D01*
X118145571Y-66603842D02*
X118257000Y-66566700D01*
X118257000Y-66566700D02*
X118331285Y-66492414D01*
X118331285Y-66492414D02*
X118368428Y-66418128D01*
X118368428Y-66418128D02*
X118405571Y-66269557D01*
X118405571Y-66269557D02*
X118405571Y-66158128D01*
X118405571Y-66158128D02*
X118368428Y-66009557D01*
X118368428Y-66009557D02*
X118331285Y-65935271D01*
X118331285Y-65935271D02*
X118257000Y-65860985D01*
X118257000Y-65860985D02*
X118145571Y-65823842D01*
X118145571Y-65823842D02*
X117959857Y-65823842D01*
X119074143Y-66343842D02*
X119074143Y-65823842D01*
X118888428Y-66640985D02*
X118702714Y-66083842D01*
X118702714Y-66083842D02*
X119185571Y-66083842D01*
X115597571Y-64076642D02*
X115597571Y-63519500D01*
X115597571Y-63519500D02*
X115560428Y-63408071D01*
X115560428Y-63408071D02*
X115486142Y-63333785D01*
X115486142Y-63333785D02*
X115374714Y-63296642D01*
X115374714Y-63296642D02*
X115300428Y-63296642D01*
X115969000Y-63296642D02*
X115969000Y-64076642D01*
X115969000Y-64076642D02*
X116266143Y-64076642D01*
X116266143Y-64076642D02*
X116340428Y-64039500D01*
X116340428Y-64039500D02*
X116377571Y-64002357D01*
X116377571Y-64002357D02*
X116414714Y-63928071D01*
X116414714Y-63928071D02*
X116414714Y-63816642D01*
X116414714Y-63816642D02*
X116377571Y-63742357D01*
X116377571Y-63742357D02*
X116340428Y-63705214D01*
X116340428Y-63705214D02*
X116266143Y-63668071D01*
X116266143Y-63668071D02*
X115969000Y-63668071D01*
X116711857Y-64002357D02*
X116749000Y-64039500D01*
X116749000Y-64039500D02*
X116823286Y-64076642D01*
X116823286Y-64076642D02*
X117009000Y-64076642D01*
X117009000Y-64076642D02*
X117083286Y-64039500D01*
X117083286Y-64039500D02*
X117120428Y-64002357D01*
X117120428Y-64002357D02*
X117157571Y-63928071D01*
X117157571Y-63928071D02*
X117157571Y-63853785D01*
X117157571Y-63853785D02*
X117120428Y-63742357D01*
X117120428Y-63742357D02*
X116674714Y-63296642D01*
X116674714Y-63296642D02*
X117157571Y-63296642D01*
X117959857Y-63296642D02*
X117959857Y-64076642D01*
X117959857Y-64076642D02*
X118145571Y-64076642D01*
X118145571Y-64076642D02*
X118257000Y-64039500D01*
X118257000Y-64039500D02*
X118331285Y-63965214D01*
X118331285Y-63965214D02*
X118368428Y-63890928D01*
X118368428Y-63890928D02*
X118405571Y-63742357D01*
X118405571Y-63742357D02*
X118405571Y-63630928D01*
X118405571Y-63630928D02*
X118368428Y-63482357D01*
X118368428Y-63482357D02*
X118331285Y-63408071D01*
X118331285Y-63408071D02*
X118257000Y-63333785D01*
X118257000Y-63333785D02*
X118145571Y-63296642D01*
X118145571Y-63296642D02*
X117959857Y-63296642D01*
X118888428Y-64076642D02*
X118962714Y-64076642D01*
X118962714Y-64076642D02*
X119037000Y-64039500D01*
X119037000Y-64039500D02*
X119074143Y-64002357D01*
X119074143Y-64002357D02*
X119111285Y-63928071D01*
X119111285Y-63928071D02*
X119148428Y-63779500D01*
X119148428Y-63779500D02*
X119148428Y-63593785D01*
X119148428Y-63593785D02*
X119111285Y-63445214D01*
X119111285Y-63445214D02*
X119074143Y-63370928D01*
X119074143Y-63370928D02*
X119037000Y-63333785D01*
X119037000Y-63333785D02*
X118962714Y-63296642D01*
X118962714Y-63296642D02*
X118888428Y-63296642D01*
X118888428Y-63296642D02*
X118814143Y-63333785D01*
X118814143Y-63333785D02*
X118777000Y-63370928D01*
X118777000Y-63370928D02*
X118739857Y-63445214D01*
X118739857Y-63445214D02*
X118702714Y-63593785D01*
X118702714Y-63593785D02*
X118702714Y-63779500D01*
X118702714Y-63779500D02*
X118739857Y-63928071D01*
X118739857Y-63928071D02*
X118777000Y-64002357D01*
X118777000Y-64002357D02*
X118814143Y-64039500D01*
X118814143Y-64039500D02*
X118888428Y-64076642D01*
X115597571Y-61549442D02*
X115597571Y-60992300D01*
X115597571Y-60992300D02*
X115560428Y-60880871D01*
X115560428Y-60880871D02*
X115486142Y-60806585D01*
X115486142Y-60806585D02*
X115374714Y-60769442D01*
X115374714Y-60769442D02*
X115300428Y-60769442D01*
X115969000Y-60769442D02*
X115969000Y-61549442D01*
X115969000Y-61549442D02*
X116266143Y-61549442D01*
X116266143Y-61549442D02*
X116340428Y-61512300D01*
X116340428Y-61512300D02*
X116377571Y-61475157D01*
X116377571Y-61475157D02*
X116414714Y-61400871D01*
X116414714Y-61400871D02*
X116414714Y-61289442D01*
X116414714Y-61289442D02*
X116377571Y-61215157D01*
X116377571Y-61215157D02*
X116340428Y-61178014D01*
X116340428Y-61178014D02*
X116266143Y-61140871D01*
X116266143Y-61140871D02*
X115969000Y-61140871D01*
X116711857Y-61475157D02*
X116749000Y-61512300D01*
X116749000Y-61512300D02*
X116823286Y-61549442D01*
X116823286Y-61549442D02*
X117009000Y-61549442D01*
X117009000Y-61549442D02*
X117083286Y-61512300D01*
X117083286Y-61512300D02*
X117120428Y-61475157D01*
X117120428Y-61475157D02*
X117157571Y-61400871D01*
X117157571Y-61400871D02*
X117157571Y-61326585D01*
X117157571Y-61326585D02*
X117120428Y-61215157D01*
X117120428Y-61215157D02*
X116674714Y-60769442D01*
X116674714Y-60769442D02*
X117157571Y-60769442D01*
X117959857Y-60769442D02*
X117959857Y-61549442D01*
X117959857Y-61549442D02*
X118145571Y-61549442D01*
X118145571Y-61549442D02*
X118257000Y-61512300D01*
X118257000Y-61512300D02*
X118331285Y-61438014D01*
X118331285Y-61438014D02*
X118368428Y-61363728D01*
X118368428Y-61363728D02*
X118405571Y-61215157D01*
X118405571Y-61215157D02*
X118405571Y-61103728D01*
X118405571Y-61103728D02*
X118368428Y-60955157D01*
X118368428Y-60955157D02*
X118331285Y-60880871D01*
X118331285Y-60880871D02*
X118257000Y-60806585D01*
X118257000Y-60806585D02*
X118145571Y-60769442D01*
X118145571Y-60769442D02*
X117959857Y-60769442D01*
X119148428Y-60769442D02*
X118702714Y-60769442D01*
X118925571Y-60769442D02*
X118925571Y-61549442D01*
X118925571Y-61549442D02*
X118851285Y-61438014D01*
X118851285Y-61438014D02*
X118777000Y-61363728D01*
X118777000Y-61363728D02*
X118702714Y-61326585D01*
X115263285Y-59022242D02*
X115523285Y-58242242D01*
X115523285Y-58242242D02*
X115783285Y-59022242D01*
X116043285Y-58242242D02*
X116043285Y-58762242D01*
X116043285Y-59022242D02*
X116006142Y-58985100D01*
X116006142Y-58985100D02*
X116043285Y-58947957D01*
X116043285Y-58947957D02*
X116080428Y-58985100D01*
X116080428Y-58985100D02*
X116043285Y-59022242D01*
X116043285Y-59022242D02*
X116043285Y-58947957D01*
X116749000Y-58242242D02*
X116749000Y-59022242D01*
X116749000Y-58279385D02*
X116674714Y-58242242D01*
X116674714Y-58242242D02*
X116526142Y-58242242D01*
X116526142Y-58242242D02*
X116451857Y-58279385D01*
X116451857Y-58279385D02*
X116414714Y-58316528D01*
X116414714Y-58316528D02*
X116377571Y-58390814D01*
X116377571Y-58390814D02*
X116377571Y-58613671D01*
X116377571Y-58613671D02*
X116414714Y-58687957D01*
X116414714Y-58687957D02*
X116451857Y-58725100D01*
X116451857Y-58725100D02*
X116526142Y-58762242D01*
X116526142Y-58762242D02*
X116674714Y-58762242D01*
X116674714Y-58762242D02*
X116749000Y-58725100D01*
X117736999Y-59022242D02*
X117885571Y-59022242D01*
X117885571Y-59022242D02*
X117959856Y-58985100D01*
X117959856Y-58985100D02*
X118034142Y-58910814D01*
X118034142Y-58910814D02*
X118071285Y-58762242D01*
X118071285Y-58762242D02*
X118071285Y-58502242D01*
X118071285Y-58502242D02*
X118034142Y-58353671D01*
X118034142Y-58353671D02*
X117959856Y-58279385D01*
X117959856Y-58279385D02*
X117885571Y-58242242D01*
X117885571Y-58242242D02*
X117736999Y-58242242D01*
X117736999Y-58242242D02*
X117662714Y-58279385D01*
X117662714Y-58279385D02*
X117588428Y-58353671D01*
X117588428Y-58353671D02*
X117551285Y-58502242D01*
X117551285Y-58502242D02*
X117551285Y-58762242D01*
X117551285Y-58762242D02*
X117588428Y-58910814D01*
X117588428Y-58910814D02*
X117662714Y-58985100D01*
X117662714Y-58985100D02*
X117736999Y-59022242D01*
X118739857Y-58762242D02*
X118739857Y-58242242D01*
X118405571Y-58762242D02*
X118405571Y-58353671D01*
X118405571Y-58353671D02*
X118442714Y-58279385D01*
X118442714Y-58279385D02*
X118516999Y-58242242D01*
X118516999Y-58242242D02*
X118628428Y-58242242D01*
X118628428Y-58242242D02*
X118702714Y-58279385D01*
X118702714Y-58279385D02*
X118739857Y-58316528D01*
X118999856Y-58762242D02*
X119296999Y-58762242D01*
X119111285Y-59022242D02*
X119111285Y-58353671D01*
X119111285Y-58353671D02*
X119148428Y-58279385D01*
X119148428Y-58279385D02*
X119222713Y-58242242D01*
X119222713Y-58242242D02*
X119296999Y-58242242D01*
X115337571Y-55937900D02*
X115709000Y-55937900D01*
X115263285Y-55715042D02*
X115523285Y-56495042D01*
X115523285Y-56495042D02*
X115783285Y-55715042D01*
X116377571Y-56235042D02*
X116377571Y-55715042D01*
X116043285Y-56235042D02*
X116043285Y-55826471D01*
X116043285Y-55826471D02*
X116080428Y-55752185D01*
X116080428Y-55752185D02*
X116154713Y-55715042D01*
X116154713Y-55715042D02*
X116266142Y-55715042D01*
X116266142Y-55715042D02*
X116340428Y-55752185D01*
X116340428Y-55752185D02*
X116377571Y-55789328D01*
X117083285Y-55715042D02*
X117083285Y-56495042D01*
X117083285Y-55752185D02*
X117008999Y-55715042D01*
X117008999Y-55715042D02*
X116860427Y-55715042D01*
X116860427Y-55715042D02*
X116786142Y-55752185D01*
X116786142Y-55752185D02*
X116748999Y-55789328D01*
X116748999Y-55789328D02*
X116711856Y-55863614D01*
X116711856Y-55863614D02*
X116711856Y-56086471D01*
X116711856Y-56086471D02*
X116748999Y-56160757D01*
X116748999Y-56160757D02*
X116786142Y-56197900D01*
X116786142Y-56197900D02*
X116860427Y-56235042D01*
X116860427Y-56235042D02*
X117008999Y-56235042D01*
X117008999Y-56235042D02*
X117083285Y-56197900D01*
X118071284Y-56495042D02*
X118219856Y-56495042D01*
X118219856Y-56495042D02*
X118294141Y-56457900D01*
X118294141Y-56457900D02*
X118368427Y-56383614D01*
X118368427Y-56383614D02*
X118405570Y-56235042D01*
X118405570Y-56235042D02*
X118405570Y-55975042D01*
X118405570Y-55975042D02*
X118368427Y-55826471D01*
X118368427Y-55826471D02*
X118294141Y-55752185D01*
X118294141Y-55752185D02*
X118219856Y-55715042D01*
X118219856Y-55715042D02*
X118071284Y-55715042D01*
X118071284Y-55715042D02*
X117996999Y-55752185D01*
X117996999Y-55752185D02*
X117922713Y-55826471D01*
X117922713Y-55826471D02*
X117885570Y-55975042D01*
X117885570Y-55975042D02*
X117885570Y-56235042D01*
X117885570Y-56235042D02*
X117922713Y-56383614D01*
X117922713Y-56383614D02*
X117996999Y-56457900D01*
X117996999Y-56457900D02*
X118071284Y-56495042D01*
X119074142Y-56235042D02*
X119074142Y-55715042D01*
X118739856Y-56235042D02*
X118739856Y-55826471D01*
X118739856Y-55826471D02*
X118776999Y-55752185D01*
X118776999Y-55752185D02*
X118851284Y-55715042D01*
X118851284Y-55715042D02*
X118962713Y-55715042D01*
X118962713Y-55715042D02*
X119036999Y-55752185D01*
X119036999Y-55752185D02*
X119074142Y-55789328D01*
X119334141Y-56235042D02*
X119631284Y-56235042D01*
X119445570Y-56495042D02*
X119445570Y-55826471D01*
X119445570Y-55826471D02*
X119482713Y-55752185D01*
X119482713Y-55752185D02*
X119556998Y-55715042D01*
X119556998Y-55715042D02*
X119631284Y-55715042D01*
X115374714Y-53187842D02*
X115374714Y-53967842D01*
X115374714Y-53967842D02*
X115671857Y-53967842D01*
X115671857Y-53967842D02*
X115746142Y-53930700D01*
X115746142Y-53930700D02*
X115783285Y-53893557D01*
X115783285Y-53893557D02*
X115820428Y-53819271D01*
X115820428Y-53819271D02*
X115820428Y-53707842D01*
X115820428Y-53707842D02*
X115783285Y-53633557D01*
X115783285Y-53633557D02*
X115746142Y-53596414D01*
X115746142Y-53596414D02*
X115671857Y-53559271D01*
X115671857Y-53559271D02*
X115374714Y-53559271D01*
X116117571Y-53224985D02*
X116229000Y-53187842D01*
X116229000Y-53187842D02*
X116414714Y-53187842D01*
X116414714Y-53187842D02*
X116489000Y-53224985D01*
X116489000Y-53224985D02*
X116526142Y-53262128D01*
X116526142Y-53262128D02*
X116563285Y-53336414D01*
X116563285Y-53336414D02*
X116563285Y-53410700D01*
X116563285Y-53410700D02*
X116526142Y-53484985D01*
X116526142Y-53484985D02*
X116489000Y-53522128D01*
X116489000Y-53522128D02*
X116414714Y-53559271D01*
X116414714Y-53559271D02*
X116266142Y-53596414D01*
X116266142Y-53596414D02*
X116191857Y-53633557D01*
X116191857Y-53633557D02*
X116154714Y-53670700D01*
X116154714Y-53670700D02*
X116117571Y-53744985D01*
X116117571Y-53744985D02*
X116117571Y-53819271D01*
X116117571Y-53819271D02*
X116154714Y-53893557D01*
X116154714Y-53893557D02*
X116191857Y-53930700D01*
X116191857Y-53930700D02*
X116266142Y-53967842D01*
X116266142Y-53967842D02*
X116451857Y-53967842D01*
X116451857Y-53967842D02*
X116563285Y-53930700D01*
X116897571Y-53967842D02*
X116897571Y-53336414D01*
X116897571Y-53336414D02*
X116934714Y-53262128D01*
X116934714Y-53262128D02*
X116971857Y-53224985D01*
X116971857Y-53224985D02*
X117046142Y-53187842D01*
X117046142Y-53187842D02*
X117194714Y-53187842D01*
X117194714Y-53187842D02*
X117268999Y-53224985D01*
X117268999Y-53224985D02*
X117306142Y-53262128D01*
X117306142Y-53262128D02*
X117343285Y-53336414D01*
X117343285Y-53336414D02*
X117343285Y-53967842D01*
X118071285Y-53967842D02*
X118331285Y-53187842D01*
X118331285Y-53187842D02*
X118591285Y-53967842D01*
X118851285Y-53187842D02*
X118851285Y-53967842D01*
X118851285Y-53967842D02*
X119036999Y-53967842D01*
X119036999Y-53967842D02*
X119148428Y-53930700D01*
X119148428Y-53930700D02*
X119222713Y-53856414D01*
X119222713Y-53856414D02*
X119259856Y-53782128D01*
X119259856Y-53782128D02*
X119296999Y-53633557D01*
X119296999Y-53633557D02*
X119296999Y-53522128D01*
X119296999Y-53522128D02*
X119259856Y-53373557D01*
X119259856Y-53373557D02*
X119222713Y-53299271D01*
X119222713Y-53299271D02*
X119148428Y-53224985D01*
X119148428Y-53224985D02*
X119036999Y-53187842D01*
X119036999Y-53187842D02*
X118851285Y-53187842D01*
X119631285Y-53187842D02*
X119631285Y-53967842D01*
X119631285Y-53967842D02*
X119816999Y-53967842D01*
X119816999Y-53967842D02*
X119928428Y-53930700D01*
X119928428Y-53930700D02*
X120002713Y-53856414D01*
X120002713Y-53856414D02*
X120039856Y-53782128D01*
X120039856Y-53782128D02*
X120076999Y-53633557D01*
X120076999Y-53633557D02*
X120076999Y-53522128D01*
X120076999Y-53522128D02*
X120039856Y-53373557D01*
X120039856Y-53373557D02*
X120002713Y-53299271D01*
X120002713Y-53299271D02*
X119928428Y-53224985D01*
X119928428Y-53224985D02*
X119816999Y-53187842D01*
X119816999Y-53187842D02*
X119631285Y-53187842D01*
X115820428Y-50734928D02*
X115783285Y-50697785D01*
X115783285Y-50697785D02*
X115671857Y-50660642D01*
X115671857Y-50660642D02*
X115597571Y-50660642D01*
X115597571Y-50660642D02*
X115486142Y-50697785D01*
X115486142Y-50697785D02*
X115411857Y-50772071D01*
X115411857Y-50772071D02*
X115374714Y-50846357D01*
X115374714Y-50846357D02*
X115337571Y-50994928D01*
X115337571Y-50994928D02*
X115337571Y-51106357D01*
X115337571Y-51106357D02*
X115374714Y-51254928D01*
X115374714Y-51254928D02*
X115411857Y-51329214D01*
X115411857Y-51329214D02*
X115486142Y-51403500D01*
X115486142Y-51403500D02*
X115597571Y-51440642D01*
X115597571Y-51440642D02*
X115671857Y-51440642D01*
X115671857Y-51440642D02*
X115783285Y-51403500D01*
X115783285Y-51403500D02*
X115820428Y-51366357D01*
X116154714Y-50660642D02*
X116154714Y-51440642D01*
X116971857Y-50734928D02*
X116934714Y-50697785D01*
X116934714Y-50697785D02*
X116823286Y-50660642D01*
X116823286Y-50660642D02*
X116749000Y-50660642D01*
X116749000Y-50660642D02*
X116637571Y-50697785D01*
X116637571Y-50697785D02*
X116563286Y-50772071D01*
X116563286Y-50772071D02*
X116526143Y-50846357D01*
X116526143Y-50846357D02*
X116489000Y-50994928D01*
X116489000Y-50994928D02*
X116489000Y-51106357D01*
X116489000Y-51106357D02*
X116526143Y-51254928D01*
X116526143Y-51254928D02*
X116563286Y-51329214D01*
X116563286Y-51329214D02*
X116637571Y-51403500D01*
X116637571Y-51403500D02*
X116749000Y-51440642D01*
X116749000Y-51440642D02*
X116823286Y-51440642D01*
X116823286Y-51440642D02*
X116934714Y-51403500D01*
X116934714Y-51403500D02*
X116971857Y-51366357D01*
X118219857Y-50734928D02*
X118182714Y-50697785D01*
X118182714Y-50697785D02*
X118071286Y-50660642D01*
X118071286Y-50660642D02*
X117997000Y-50660642D01*
X117997000Y-50660642D02*
X117885571Y-50697785D01*
X117885571Y-50697785D02*
X117811286Y-50772071D01*
X117811286Y-50772071D02*
X117774143Y-50846357D01*
X117774143Y-50846357D02*
X117737000Y-50994928D01*
X117737000Y-50994928D02*
X117737000Y-51106357D01*
X117737000Y-51106357D02*
X117774143Y-51254928D01*
X117774143Y-51254928D02*
X117811286Y-51329214D01*
X117811286Y-51329214D02*
X117885571Y-51403500D01*
X117885571Y-51403500D02*
X117997000Y-51440642D01*
X117997000Y-51440642D02*
X118071286Y-51440642D01*
X118071286Y-51440642D02*
X118182714Y-51403500D01*
X118182714Y-51403500D02*
X118219857Y-51366357D01*
X118925571Y-50660642D02*
X118554143Y-50660642D01*
X118554143Y-50660642D02*
X118554143Y-51440642D01*
X119185572Y-50660642D02*
X119185572Y-51440642D01*
X119631286Y-50660642D02*
X119297000Y-51106357D01*
X119631286Y-51440642D02*
X119185572Y-50994928D01*
X103726572Y-109083385D02*
X104320858Y-109083385D01*
X104023715Y-108786242D02*
X104023715Y-109380528D01*
X105063714Y-109566242D02*
X104692286Y-109566242D01*
X104692286Y-109566242D02*
X104655143Y-109194814D01*
X104655143Y-109194814D02*
X104692286Y-109231957D01*
X104692286Y-109231957D02*
X104766572Y-109269100D01*
X104766572Y-109269100D02*
X104952286Y-109269100D01*
X104952286Y-109269100D02*
X105026572Y-109231957D01*
X105026572Y-109231957D02*
X105063714Y-109194814D01*
X105063714Y-109194814D02*
X105100857Y-109120528D01*
X105100857Y-109120528D02*
X105100857Y-108934814D01*
X105100857Y-108934814D02*
X105063714Y-108860528D01*
X105063714Y-108860528D02*
X105026572Y-108823385D01*
X105026572Y-108823385D02*
X104952286Y-108786242D01*
X104952286Y-108786242D02*
X104766572Y-108786242D01*
X104766572Y-108786242D02*
X104692286Y-108823385D01*
X104692286Y-108823385D02*
X104655143Y-108860528D01*
X105323714Y-109566242D02*
X105583714Y-108786242D01*
X105583714Y-108786242D02*
X105843714Y-109566242D01*
X104135142Y-107001900D02*
X104060857Y-107039042D01*
X104060857Y-107039042D02*
X103949428Y-107039042D01*
X103949428Y-107039042D02*
X103837999Y-107001900D01*
X103837999Y-107001900D02*
X103763714Y-106927614D01*
X103763714Y-106927614D02*
X103726571Y-106853328D01*
X103726571Y-106853328D02*
X103689428Y-106704757D01*
X103689428Y-106704757D02*
X103689428Y-106593328D01*
X103689428Y-106593328D02*
X103726571Y-106444757D01*
X103726571Y-106444757D02*
X103763714Y-106370471D01*
X103763714Y-106370471D02*
X103837999Y-106296185D01*
X103837999Y-106296185D02*
X103949428Y-106259042D01*
X103949428Y-106259042D02*
X104023714Y-106259042D01*
X104023714Y-106259042D02*
X104135142Y-106296185D01*
X104135142Y-106296185D02*
X104172285Y-106333328D01*
X104172285Y-106333328D02*
X104172285Y-106593328D01*
X104172285Y-106593328D02*
X104023714Y-106593328D01*
X104506571Y-106259042D02*
X104506571Y-107039042D01*
X104506571Y-107039042D02*
X104952285Y-106259042D01*
X104952285Y-106259042D02*
X104952285Y-107039042D01*
X105323714Y-106259042D02*
X105323714Y-107039042D01*
X105323714Y-107039042D02*
X105509428Y-107039042D01*
X105509428Y-107039042D02*
X105620857Y-107001900D01*
X105620857Y-107001900D02*
X105695142Y-106927614D01*
X105695142Y-106927614D02*
X105732285Y-106853328D01*
X105732285Y-106853328D02*
X105769428Y-106704757D01*
X105769428Y-106704757D02*
X105769428Y-106593328D01*
X105769428Y-106593328D02*
X105732285Y-106444757D01*
X105732285Y-106444757D02*
X105695142Y-106370471D01*
X105695142Y-106370471D02*
X105620857Y-106296185D01*
X105620857Y-106296185D02*
X105509428Y-106259042D01*
X105509428Y-106259042D02*
X105323714Y-106259042D01*
X104506571Y-103731842D02*
X104506571Y-104511842D01*
X104506571Y-104511842D02*
X104952285Y-103731842D01*
X104952285Y-103731842D02*
X104952285Y-104511842D01*
X105769428Y-103806128D02*
X105732285Y-103768985D01*
X105732285Y-103768985D02*
X105620857Y-103731842D01*
X105620857Y-103731842D02*
X105546571Y-103731842D01*
X105546571Y-103731842D02*
X105435142Y-103768985D01*
X105435142Y-103768985D02*
X105360857Y-103843271D01*
X105360857Y-103843271D02*
X105323714Y-103917557D01*
X105323714Y-103917557D02*
X105286571Y-104066128D01*
X105286571Y-104066128D02*
X105286571Y-104177557D01*
X105286571Y-104177557D02*
X105323714Y-104326128D01*
X105323714Y-104326128D02*
X105360857Y-104400414D01*
X105360857Y-104400414D02*
X105435142Y-104474700D01*
X105435142Y-104474700D02*
X105546571Y-104511842D01*
X105546571Y-104511842D02*
X105620857Y-104511842D01*
X105620857Y-104511842D02*
X105732285Y-104474700D01*
X105732285Y-104474700D02*
X105769428Y-104437557D01*
X103280856Y-101984642D02*
X103429428Y-101984642D01*
X103429428Y-101984642D02*
X103503713Y-101947500D01*
X103503713Y-101947500D02*
X103577999Y-101873214D01*
X103577999Y-101873214D02*
X103615142Y-101724642D01*
X103615142Y-101724642D02*
X103615142Y-101464642D01*
X103615142Y-101464642D02*
X103577999Y-101316071D01*
X103577999Y-101316071D02*
X103503713Y-101241785D01*
X103503713Y-101241785D02*
X103429428Y-101204642D01*
X103429428Y-101204642D02*
X103280856Y-101204642D01*
X103280856Y-101204642D02*
X103206571Y-101241785D01*
X103206571Y-101241785D02*
X103132285Y-101316071D01*
X103132285Y-101316071D02*
X103095142Y-101464642D01*
X103095142Y-101464642D02*
X103095142Y-101724642D01*
X103095142Y-101724642D02*
X103132285Y-101873214D01*
X103132285Y-101873214D02*
X103206571Y-101947500D01*
X103206571Y-101947500D02*
X103280856Y-101984642D01*
X103949428Y-101984642D02*
X103949428Y-101353214D01*
X103949428Y-101353214D02*
X103986571Y-101278928D01*
X103986571Y-101278928D02*
X104023714Y-101241785D01*
X104023714Y-101241785D02*
X104097999Y-101204642D01*
X104097999Y-101204642D02*
X104246571Y-101204642D01*
X104246571Y-101204642D02*
X104320856Y-101241785D01*
X104320856Y-101241785D02*
X104357999Y-101278928D01*
X104357999Y-101278928D02*
X104395142Y-101353214D01*
X104395142Y-101353214D02*
X104395142Y-101984642D01*
X104655142Y-101984642D02*
X105100857Y-101984642D01*
X104877999Y-101204642D02*
X104877999Y-101984642D01*
X105323714Y-101910357D02*
X105360857Y-101947500D01*
X105360857Y-101947500D02*
X105435143Y-101984642D01*
X105435143Y-101984642D02*
X105620857Y-101984642D01*
X105620857Y-101984642D02*
X105695143Y-101947500D01*
X105695143Y-101947500D02*
X105732285Y-101910357D01*
X105732285Y-101910357D02*
X105769428Y-101836071D01*
X105769428Y-101836071D02*
X105769428Y-101761785D01*
X105769428Y-101761785D02*
X105732285Y-101650357D01*
X105732285Y-101650357D02*
X105286571Y-101204642D01*
X105286571Y-101204642D02*
X105769428Y-101204642D01*
X103280856Y-99457442D02*
X103429428Y-99457442D01*
X103429428Y-99457442D02*
X103503713Y-99420300D01*
X103503713Y-99420300D02*
X103577999Y-99346014D01*
X103577999Y-99346014D02*
X103615142Y-99197442D01*
X103615142Y-99197442D02*
X103615142Y-98937442D01*
X103615142Y-98937442D02*
X103577999Y-98788871D01*
X103577999Y-98788871D02*
X103503713Y-98714585D01*
X103503713Y-98714585D02*
X103429428Y-98677442D01*
X103429428Y-98677442D02*
X103280856Y-98677442D01*
X103280856Y-98677442D02*
X103206571Y-98714585D01*
X103206571Y-98714585D02*
X103132285Y-98788871D01*
X103132285Y-98788871D02*
X103095142Y-98937442D01*
X103095142Y-98937442D02*
X103095142Y-99197442D01*
X103095142Y-99197442D02*
X103132285Y-99346014D01*
X103132285Y-99346014D02*
X103206571Y-99420300D01*
X103206571Y-99420300D02*
X103280856Y-99457442D01*
X103949428Y-99457442D02*
X103949428Y-98826014D01*
X103949428Y-98826014D02*
X103986571Y-98751728D01*
X103986571Y-98751728D02*
X104023714Y-98714585D01*
X104023714Y-98714585D02*
X104097999Y-98677442D01*
X104097999Y-98677442D02*
X104246571Y-98677442D01*
X104246571Y-98677442D02*
X104320856Y-98714585D01*
X104320856Y-98714585D02*
X104357999Y-98751728D01*
X104357999Y-98751728D02*
X104395142Y-98826014D01*
X104395142Y-98826014D02*
X104395142Y-99457442D01*
X104655142Y-99457442D02*
X105100857Y-99457442D01*
X104877999Y-98677442D02*
X104877999Y-99457442D01*
X105769428Y-98677442D02*
X105323714Y-98677442D01*
X105546571Y-98677442D02*
X105546571Y-99457442D01*
X105546571Y-99457442D02*
X105472285Y-99346014D01*
X105472285Y-99346014D02*
X105398000Y-99271728D01*
X105398000Y-99271728D02*
X105323714Y-99234585D01*
X103280856Y-96930242D02*
X103429428Y-96930242D01*
X103429428Y-96930242D02*
X103503713Y-96893100D01*
X103503713Y-96893100D02*
X103577999Y-96818814D01*
X103577999Y-96818814D02*
X103615142Y-96670242D01*
X103615142Y-96670242D02*
X103615142Y-96410242D01*
X103615142Y-96410242D02*
X103577999Y-96261671D01*
X103577999Y-96261671D02*
X103503713Y-96187385D01*
X103503713Y-96187385D02*
X103429428Y-96150242D01*
X103429428Y-96150242D02*
X103280856Y-96150242D01*
X103280856Y-96150242D02*
X103206571Y-96187385D01*
X103206571Y-96187385D02*
X103132285Y-96261671D01*
X103132285Y-96261671D02*
X103095142Y-96410242D01*
X103095142Y-96410242D02*
X103095142Y-96670242D01*
X103095142Y-96670242D02*
X103132285Y-96818814D01*
X103132285Y-96818814D02*
X103206571Y-96893100D01*
X103206571Y-96893100D02*
X103280856Y-96930242D01*
X103949428Y-96930242D02*
X103949428Y-96298814D01*
X103949428Y-96298814D02*
X103986571Y-96224528D01*
X103986571Y-96224528D02*
X104023714Y-96187385D01*
X104023714Y-96187385D02*
X104097999Y-96150242D01*
X104097999Y-96150242D02*
X104246571Y-96150242D01*
X104246571Y-96150242D02*
X104320856Y-96187385D01*
X104320856Y-96187385D02*
X104357999Y-96224528D01*
X104357999Y-96224528D02*
X104395142Y-96298814D01*
X104395142Y-96298814D02*
X104395142Y-96930242D01*
X104655142Y-96930242D02*
X105100857Y-96930242D01*
X104877999Y-96150242D02*
X104877999Y-96930242D01*
X105509428Y-96930242D02*
X105583714Y-96930242D01*
X105583714Y-96930242D02*
X105658000Y-96893100D01*
X105658000Y-96893100D02*
X105695143Y-96855957D01*
X105695143Y-96855957D02*
X105732285Y-96781671D01*
X105732285Y-96781671D02*
X105769428Y-96633100D01*
X105769428Y-96633100D02*
X105769428Y-96447385D01*
X105769428Y-96447385D02*
X105732285Y-96298814D01*
X105732285Y-96298814D02*
X105695143Y-96224528D01*
X105695143Y-96224528D02*
X105658000Y-96187385D01*
X105658000Y-96187385D02*
X105583714Y-96150242D01*
X105583714Y-96150242D02*
X105509428Y-96150242D01*
X105509428Y-96150242D02*
X105435143Y-96187385D01*
X105435143Y-96187385D02*
X105398000Y-96224528D01*
X105398000Y-96224528D02*
X105360857Y-96298814D01*
X105360857Y-96298814D02*
X105323714Y-96447385D01*
X105323714Y-96447385D02*
X105323714Y-96633100D01*
X105323714Y-96633100D02*
X105360857Y-96781671D01*
X105360857Y-96781671D02*
X105398000Y-96855957D01*
X105398000Y-96855957D02*
X105435143Y-96893100D01*
X105435143Y-96893100D02*
X105509428Y-96930242D01*
X103132286Y-94031614D02*
X103392286Y-94031614D01*
X103503714Y-93623042D02*
X103132286Y-93623042D01*
X103132286Y-93623042D02*
X103132286Y-94403042D01*
X103132286Y-94403042D02*
X103503714Y-94403042D01*
X103763714Y-94403042D02*
X104283714Y-93623042D01*
X104283714Y-94403042D02*
X103763714Y-93623042D01*
X104580857Y-93623042D02*
X104580857Y-94403042D01*
X104580857Y-94403042D02*
X104878000Y-94403042D01*
X104878000Y-94403042D02*
X104952285Y-94365900D01*
X104952285Y-94365900D02*
X104989428Y-94328757D01*
X104989428Y-94328757D02*
X105026571Y-94254471D01*
X105026571Y-94254471D02*
X105026571Y-94143042D01*
X105026571Y-94143042D02*
X104989428Y-94068757D01*
X104989428Y-94068757D02*
X104952285Y-94031614D01*
X104952285Y-94031614D02*
X104878000Y-93994471D01*
X104878000Y-93994471D02*
X104580857Y-93994471D01*
X105509428Y-94403042D02*
X105583714Y-94403042D01*
X105583714Y-94403042D02*
X105658000Y-94365900D01*
X105658000Y-94365900D02*
X105695143Y-94328757D01*
X105695143Y-94328757D02*
X105732285Y-94254471D01*
X105732285Y-94254471D02*
X105769428Y-94105900D01*
X105769428Y-94105900D02*
X105769428Y-93920185D01*
X105769428Y-93920185D02*
X105732285Y-93771614D01*
X105732285Y-93771614D02*
X105695143Y-93697328D01*
X105695143Y-93697328D02*
X105658000Y-93660185D01*
X105658000Y-93660185D02*
X105583714Y-93623042D01*
X105583714Y-93623042D02*
X105509428Y-93623042D01*
X105509428Y-93623042D02*
X105435143Y-93660185D01*
X105435143Y-93660185D02*
X105398000Y-93697328D01*
X105398000Y-93697328D02*
X105360857Y-93771614D01*
X105360857Y-93771614D02*
X105323714Y-93920185D01*
X105323714Y-93920185D02*
X105323714Y-94105900D01*
X105323714Y-94105900D02*
X105360857Y-94254471D01*
X105360857Y-94254471D02*
X105398000Y-94328757D01*
X105398000Y-94328757D02*
X105435143Y-94365900D01*
X105435143Y-94365900D02*
X105509428Y-94403042D01*
X103132286Y-91504414D02*
X103392286Y-91504414D01*
X103503714Y-91095842D02*
X103132286Y-91095842D01*
X103132286Y-91095842D02*
X103132286Y-91875842D01*
X103132286Y-91875842D02*
X103503714Y-91875842D01*
X103763714Y-91875842D02*
X104283714Y-91095842D01*
X104283714Y-91875842D02*
X103763714Y-91095842D01*
X104580857Y-91095842D02*
X104580857Y-91875842D01*
X104580857Y-91875842D02*
X104878000Y-91875842D01*
X104878000Y-91875842D02*
X104952285Y-91838700D01*
X104952285Y-91838700D02*
X104989428Y-91801557D01*
X104989428Y-91801557D02*
X105026571Y-91727271D01*
X105026571Y-91727271D02*
X105026571Y-91615842D01*
X105026571Y-91615842D02*
X104989428Y-91541557D01*
X104989428Y-91541557D02*
X104952285Y-91504414D01*
X104952285Y-91504414D02*
X104878000Y-91467271D01*
X104878000Y-91467271D02*
X104580857Y-91467271D01*
X105769428Y-91095842D02*
X105323714Y-91095842D01*
X105546571Y-91095842D02*
X105546571Y-91875842D01*
X105546571Y-91875842D02*
X105472285Y-91764414D01*
X105472285Y-91764414D02*
X105398000Y-91690128D01*
X105398000Y-91690128D02*
X105323714Y-91652985D01*
X103132286Y-88977214D02*
X103392286Y-88977214D01*
X103503714Y-88568642D02*
X103132286Y-88568642D01*
X103132286Y-88568642D02*
X103132286Y-89348642D01*
X103132286Y-89348642D02*
X103503714Y-89348642D01*
X103763714Y-89348642D02*
X104283714Y-88568642D01*
X104283714Y-89348642D02*
X103763714Y-88568642D01*
X104580857Y-88568642D02*
X104580857Y-89348642D01*
X104580857Y-89348642D02*
X104878000Y-89348642D01*
X104878000Y-89348642D02*
X104952285Y-89311500D01*
X104952285Y-89311500D02*
X104989428Y-89274357D01*
X104989428Y-89274357D02*
X105026571Y-89200071D01*
X105026571Y-89200071D02*
X105026571Y-89088642D01*
X105026571Y-89088642D02*
X104989428Y-89014357D01*
X104989428Y-89014357D02*
X104952285Y-88977214D01*
X104952285Y-88977214D02*
X104878000Y-88940071D01*
X104878000Y-88940071D02*
X104580857Y-88940071D01*
X105323714Y-89274357D02*
X105360857Y-89311500D01*
X105360857Y-89311500D02*
X105435143Y-89348642D01*
X105435143Y-89348642D02*
X105620857Y-89348642D01*
X105620857Y-89348642D02*
X105695143Y-89311500D01*
X105695143Y-89311500D02*
X105732285Y-89274357D01*
X105732285Y-89274357D02*
X105769428Y-89200071D01*
X105769428Y-89200071D02*
X105769428Y-89125785D01*
X105769428Y-89125785D02*
X105732285Y-89014357D01*
X105732285Y-89014357D02*
X105286571Y-88568642D01*
X105286571Y-88568642D02*
X105769428Y-88568642D01*
X103132286Y-86450014D02*
X103392286Y-86450014D01*
X103503714Y-86041442D02*
X103132286Y-86041442D01*
X103132286Y-86041442D02*
X103132286Y-86821442D01*
X103132286Y-86821442D02*
X103503714Y-86821442D01*
X103763714Y-86821442D02*
X104283714Y-86041442D01*
X104283714Y-86821442D02*
X103763714Y-86041442D01*
X104580857Y-86041442D02*
X104580857Y-86821442D01*
X104580857Y-86821442D02*
X104878000Y-86821442D01*
X104878000Y-86821442D02*
X104952285Y-86784300D01*
X104952285Y-86784300D02*
X104989428Y-86747157D01*
X104989428Y-86747157D02*
X105026571Y-86672871D01*
X105026571Y-86672871D02*
X105026571Y-86561442D01*
X105026571Y-86561442D02*
X104989428Y-86487157D01*
X104989428Y-86487157D02*
X104952285Y-86450014D01*
X104952285Y-86450014D02*
X104878000Y-86412871D01*
X104878000Y-86412871D02*
X104580857Y-86412871D01*
X105286571Y-86821442D02*
X105769428Y-86821442D01*
X105769428Y-86821442D02*
X105509428Y-86524300D01*
X105509428Y-86524300D02*
X105620857Y-86524300D01*
X105620857Y-86524300D02*
X105695143Y-86487157D01*
X105695143Y-86487157D02*
X105732285Y-86450014D01*
X105732285Y-86450014D02*
X105769428Y-86375728D01*
X105769428Y-86375728D02*
X105769428Y-86190014D01*
X105769428Y-86190014D02*
X105732285Y-86115728D01*
X105732285Y-86115728D02*
X105695143Y-86078585D01*
X105695143Y-86078585D02*
X105620857Y-86041442D01*
X105620857Y-86041442D02*
X105398000Y-86041442D01*
X105398000Y-86041442D02*
X105323714Y-86078585D01*
X105323714Y-86078585D02*
X105286571Y-86115728D01*
X103132286Y-83922814D02*
X103392286Y-83922814D01*
X103503714Y-83514242D02*
X103132286Y-83514242D01*
X103132286Y-83514242D02*
X103132286Y-84294242D01*
X103132286Y-84294242D02*
X103503714Y-84294242D01*
X103763714Y-84294242D02*
X104283714Y-83514242D01*
X104283714Y-84294242D02*
X103763714Y-83514242D01*
X104580857Y-83514242D02*
X104580857Y-84294242D01*
X104580857Y-84294242D02*
X104878000Y-84294242D01*
X104878000Y-84294242D02*
X104952285Y-84257100D01*
X104952285Y-84257100D02*
X104989428Y-84219957D01*
X104989428Y-84219957D02*
X105026571Y-84145671D01*
X105026571Y-84145671D02*
X105026571Y-84034242D01*
X105026571Y-84034242D02*
X104989428Y-83959957D01*
X104989428Y-83959957D02*
X104952285Y-83922814D01*
X104952285Y-83922814D02*
X104878000Y-83885671D01*
X104878000Y-83885671D02*
X104580857Y-83885671D01*
X105695143Y-84034242D02*
X105695143Y-83514242D01*
X105509428Y-84331385D02*
X105323714Y-83774242D01*
X105323714Y-83774242D02*
X105806571Y-83774242D01*
X101401428Y-81767042D02*
X101401428Y-81209900D01*
X101401428Y-81209900D02*
X101364285Y-81098471D01*
X101364285Y-81098471D02*
X101289999Y-81024185D01*
X101289999Y-81024185D02*
X101178571Y-80987042D01*
X101178571Y-80987042D02*
X101104285Y-80987042D01*
X101772857Y-80987042D02*
X101772857Y-81767042D01*
X101772857Y-81767042D02*
X102070000Y-81767042D01*
X102070000Y-81767042D02*
X102144285Y-81729900D01*
X102144285Y-81729900D02*
X102181428Y-81692757D01*
X102181428Y-81692757D02*
X102218571Y-81618471D01*
X102218571Y-81618471D02*
X102218571Y-81507042D01*
X102218571Y-81507042D02*
X102181428Y-81432757D01*
X102181428Y-81432757D02*
X102144285Y-81395614D01*
X102144285Y-81395614D02*
X102070000Y-81358471D01*
X102070000Y-81358471D02*
X101772857Y-81358471D01*
X102961428Y-80987042D02*
X102515714Y-80987042D01*
X102738571Y-80987042D02*
X102738571Y-81767042D01*
X102738571Y-81767042D02*
X102664285Y-81655614D01*
X102664285Y-81655614D02*
X102590000Y-81581328D01*
X102590000Y-81581328D02*
X102515714Y-81544185D01*
X104320857Y-81804185D02*
X103652285Y-80801328D01*
X104729428Y-81767042D02*
X104878000Y-81767042D01*
X104878000Y-81767042D02*
X104952285Y-81729900D01*
X104952285Y-81729900D02*
X105026571Y-81655614D01*
X105026571Y-81655614D02*
X105063714Y-81507042D01*
X105063714Y-81507042D02*
X105063714Y-81247042D01*
X105063714Y-81247042D02*
X105026571Y-81098471D01*
X105026571Y-81098471D02*
X104952285Y-81024185D01*
X104952285Y-81024185D02*
X104878000Y-80987042D01*
X104878000Y-80987042D02*
X104729428Y-80987042D01*
X104729428Y-80987042D02*
X104655143Y-81024185D01*
X104655143Y-81024185D02*
X104580857Y-81098471D01*
X104580857Y-81098471D02*
X104543714Y-81247042D01*
X104543714Y-81247042D02*
X104543714Y-81507042D01*
X104543714Y-81507042D02*
X104580857Y-81655614D01*
X104580857Y-81655614D02*
X104655143Y-81729900D01*
X104655143Y-81729900D02*
X104729428Y-81767042D01*
X105398000Y-81395614D02*
X105658000Y-81395614D01*
X105769428Y-80987042D02*
X105398000Y-80987042D01*
X105398000Y-80987042D02*
X105398000Y-81767042D01*
X105398000Y-81767042D02*
X105769428Y-81767042D01*
X102218571Y-79239842D02*
X102218571Y-78682700D01*
X102218571Y-78682700D02*
X102181428Y-78571271D01*
X102181428Y-78571271D02*
X102107142Y-78496985D01*
X102107142Y-78496985D02*
X101995714Y-78459842D01*
X101995714Y-78459842D02*
X101921428Y-78459842D01*
X102590000Y-78459842D02*
X102590000Y-79239842D01*
X102590000Y-79239842D02*
X102887143Y-79239842D01*
X102887143Y-79239842D02*
X102961428Y-79202700D01*
X102961428Y-79202700D02*
X102998571Y-79165557D01*
X102998571Y-79165557D02*
X103035714Y-79091271D01*
X103035714Y-79091271D02*
X103035714Y-78979842D01*
X103035714Y-78979842D02*
X102998571Y-78905557D01*
X102998571Y-78905557D02*
X102961428Y-78868414D01*
X102961428Y-78868414D02*
X102887143Y-78831271D01*
X102887143Y-78831271D02*
X102590000Y-78831271D01*
X103778571Y-78459842D02*
X103332857Y-78459842D01*
X103555714Y-78459842D02*
X103555714Y-79239842D01*
X103555714Y-79239842D02*
X103481428Y-79128414D01*
X103481428Y-79128414D02*
X103407143Y-79054128D01*
X103407143Y-79054128D02*
X103332857Y-79016985D01*
X104580857Y-78459842D02*
X104580857Y-79239842D01*
X104580857Y-79239842D02*
X104766571Y-79239842D01*
X104766571Y-79239842D02*
X104878000Y-79202700D01*
X104878000Y-79202700D02*
X104952285Y-79128414D01*
X104952285Y-79128414D02*
X104989428Y-79054128D01*
X104989428Y-79054128D02*
X105026571Y-78905557D01*
X105026571Y-78905557D02*
X105026571Y-78794128D01*
X105026571Y-78794128D02*
X104989428Y-78645557D01*
X104989428Y-78645557D02*
X104952285Y-78571271D01*
X104952285Y-78571271D02*
X104878000Y-78496985D01*
X104878000Y-78496985D02*
X104766571Y-78459842D01*
X104766571Y-78459842D02*
X104580857Y-78459842D01*
X105695143Y-78979842D02*
X105695143Y-78459842D01*
X105509428Y-79276985D02*
X105323714Y-78719842D01*
X105323714Y-78719842D02*
X105806571Y-78719842D01*
X102218571Y-76712642D02*
X102218571Y-76155500D01*
X102218571Y-76155500D02*
X102181428Y-76044071D01*
X102181428Y-76044071D02*
X102107142Y-75969785D01*
X102107142Y-75969785D02*
X101995714Y-75932642D01*
X101995714Y-75932642D02*
X101921428Y-75932642D01*
X102590000Y-75932642D02*
X102590000Y-76712642D01*
X102590000Y-76712642D02*
X102887143Y-76712642D01*
X102887143Y-76712642D02*
X102961428Y-76675500D01*
X102961428Y-76675500D02*
X102998571Y-76638357D01*
X102998571Y-76638357D02*
X103035714Y-76564071D01*
X103035714Y-76564071D02*
X103035714Y-76452642D01*
X103035714Y-76452642D02*
X102998571Y-76378357D01*
X102998571Y-76378357D02*
X102961428Y-76341214D01*
X102961428Y-76341214D02*
X102887143Y-76304071D01*
X102887143Y-76304071D02*
X102590000Y-76304071D01*
X103778571Y-75932642D02*
X103332857Y-75932642D01*
X103555714Y-75932642D02*
X103555714Y-76712642D01*
X103555714Y-76712642D02*
X103481428Y-76601214D01*
X103481428Y-76601214D02*
X103407143Y-76526928D01*
X103407143Y-76526928D02*
X103332857Y-76489785D01*
X104580857Y-75932642D02*
X104580857Y-76712642D01*
X104580857Y-76712642D02*
X104766571Y-76712642D01*
X104766571Y-76712642D02*
X104878000Y-76675500D01*
X104878000Y-76675500D02*
X104952285Y-76601214D01*
X104952285Y-76601214D02*
X104989428Y-76526928D01*
X104989428Y-76526928D02*
X105026571Y-76378357D01*
X105026571Y-76378357D02*
X105026571Y-76266928D01*
X105026571Y-76266928D02*
X104989428Y-76118357D01*
X104989428Y-76118357D02*
X104952285Y-76044071D01*
X104952285Y-76044071D02*
X104878000Y-75969785D01*
X104878000Y-75969785D02*
X104766571Y-75932642D01*
X104766571Y-75932642D02*
X104580857Y-75932642D01*
X105509428Y-76712642D02*
X105583714Y-76712642D01*
X105583714Y-76712642D02*
X105658000Y-76675500D01*
X105658000Y-76675500D02*
X105695143Y-76638357D01*
X105695143Y-76638357D02*
X105732285Y-76564071D01*
X105732285Y-76564071D02*
X105769428Y-76415500D01*
X105769428Y-76415500D02*
X105769428Y-76229785D01*
X105769428Y-76229785D02*
X105732285Y-76081214D01*
X105732285Y-76081214D02*
X105695143Y-76006928D01*
X105695143Y-76006928D02*
X105658000Y-75969785D01*
X105658000Y-75969785D02*
X105583714Y-75932642D01*
X105583714Y-75932642D02*
X105509428Y-75932642D01*
X105509428Y-75932642D02*
X105435143Y-75969785D01*
X105435143Y-75969785D02*
X105398000Y-76006928D01*
X105398000Y-76006928D02*
X105360857Y-76081214D01*
X105360857Y-76081214D02*
X105323714Y-76229785D01*
X105323714Y-76229785D02*
X105323714Y-76415500D01*
X105323714Y-76415500D02*
X105360857Y-76564071D01*
X105360857Y-76564071D02*
X105398000Y-76638357D01*
X105398000Y-76638357D02*
X105435143Y-76675500D01*
X105435143Y-76675500D02*
X105509428Y-76712642D01*
X101401428Y-74185442D02*
X101401428Y-73628300D01*
X101401428Y-73628300D02*
X101364285Y-73516871D01*
X101364285Y-73516871D02*
X101289999Y-73442585D01*
X101289999Y-73442585D02*
X101178571Y-73405442D01*
X101178571Y-73405442D02*
X101104285Y-73405442D01*
X101772857Y-73405442D02*
X101772857Y-74185442D01*
X101772857Y-74185442D02*
X102070000Y-74185442D01*
X102070000Y-74185442D02*
X102144285Y-74148300D01*
X102144285Y-74148300D02*
X102181428Y-74111157D01*
X102181428Y-74111157D02*
X102218571Y-74036871D01*
X102218571Y-74036871D02*
X102218571Y-73925442D01*
X102218571Y-73925442D02*
X102181428Y-73851157D01*
X102181428Y-73851157D02*
X102144285Y-73814014D01*
X102144285Y-73814014D02*
X102070000Y-73776871D01*
X102070000Y-73776871D02*
X101772857Y-73776871D01*
X102961428Y-73405442D02*
X102515714Y-73405442D01*
X102738571Y-73405442D02*
X102738571Y-74185442D01*
X102738571Y-74185442D02*
X102664285Y-74074014D01*
X102664285Y-74074014D02*
X102590000Y-73999728D01*
X102590000Y-73999728D02*
X102515714Y-73962585D01*
X104320857Y-74222585D02*
X103652285Y-73219728D01*
X104729428Y-74185442D02*
X104878000Y-74185442D01*
X104878000Y-74185442D02*
X104952285Y-74148300D01*
X104952285Y-74148300D02*
X105026571Y-74074014D01*
X105026571Y-74074014D02*
X105063714Y-73925442D01*
X105063714Y-73925442D02*
X105063714Y-73665442D01*
X105063714Y-73665442D02*
X105026571Y-73516871D01*
X105026571Y-73516871D02*
X104952285Y-73442585D01*
X104952285Y-73442585D02*
X104878000Y-73405442D01*
X104878000Y-73405442D02*
X104729428Y-73405442D01*
X104729428Y-73405442D02*
X104655143Y-73442585D01*
X104655143Y-73442585D02*
X104580857Y-73516871D01*
X104580857Y-73516871D02*
X104543714Y-73665442D01*
X104543714Y-73665442D02*
X104543714Y-73925442D01*
X104543714Y-73925442D02*
X104580857Y-74074014D01*
X104580857Y-74074014D02*
X104655143Y-74148300D01*
X104655143Y-74148300D02*
X104729428Y-74185442D01*
X105398000Y-73814014D02*
X105658000Y-73814014D01*
X105769428Y-73405442D02*
X105398000Y-73405442D01*
X105398000Y-73405442D02*
X105398000Y-74185442D01*
X105398000Y-74185442D02*
X105769428Y-74185442D01*
X102218571Y-71658242D02*
X102218571Y-71101100D01*
X102218571Y-71101100D02*
X102181428Y-70989671D01*
X102181428Y-70989671D02*
X102107142Y-70915385D01*
X102107142Y-70915385D02*
X101995714Y-70878242D01*
X101995714Y-70878242D02*
X101921428Y-70878242D01*
X102590000Y-70878242D02*
X102590000Y-71658242D01*
X102590000Y-71658242D02*
X102887143Y-71658242D01*
X102887143Y-71658242D02*
X102961428Y-71621100D01*
X102961428Y-71621100D02*
X102998571Y-71583957D01*
X102998571Y-71583957D02*
X103035714Y-71509671D01*
X103035714Y-71509671D02*
X103035714Y-71398242D01*
X103035714Y-71398242D02*
X102998571Y-71323957D01*
X102998571Y-71323957D02*
X102961428Y-71286814D01*
X102961428Y-71286814D02*
X102887143Y-71249671D01*
X102887143Y-71249671D02*
X102590000Y-71249671D01*
X103778571Y-70878242D02*
X103332857Y-70878242D01*
X103555714Y-70878242D02*
X103555714Y-71658242D01*
X103555714Y-71658242D02*
X103481428Y-71546814D01*
X103481428Y-71546814D02*
X103407143Y-71472528D01*
X103407143Y-71472528D02*
X103332857Y-71435385D01*
X104580857Y-70878242D02*
X104580857Y-71658242D01*
X104580857Y-71658242D02*
X104766571Y-71658242D01*
X104766571Y-71658242D02*
X104878000Y-71621100D01*
X104878000Y-71621100D02*
X104952285Y-71546814D01*
X104952285Y-71546814D02*
X104989428Y-71472528D01*
X104989428Y-71472528D02*
X105026571Y-71323957D01*
X105026571Y-71323957D02*
X105026571Y-71212528D01*
X105026571Y-71212528D02*
X104989428Y-71063957D01*
X104989428Y-71063957D02*
X104952285Y-70989671D01*
X104952285Y-70989671D02*
X104878000Y-70915385D01*
X104878000Y-70915385D02*
X104766571Y-70878242D01*
X104766571Y-70878242D02*
X104580857Y-70878242D01*
X105323714Y-71583957D02*
X105360857Y-71621100D01*
X105360857Y-71621100D02*
X105435143Y-71658242D01*
X105435143Y-71658242D02*
X105620857Y-71658242D01*
X105620857Y-71658242D02*
X105695143Y-71621100D01*
X105695143Y-71621100D02*
X105732285Y-71583957D01*
X105732285Y-71583957D02*
X105769428Y-71509671D01*
X105769428Y-71509671D02*
X105769428Y-71435385D01*
X105769428Y-71435385D02*
X105732285Y-71323957D01*
X105732285Y-71323957D02*
X105286571Y-70878242D01*
X105286571Y-70878242D02*
X105769428Y-70878242D01*
X102181428Y-68425328D02*
X102144285Y-68388185D01*
X102144285Y-68388185D02*
X102032857Y-68351042D01*
X102032857Y-68351042D02*
X101958571Y-68351042D01*
X101958571Y-68351042D02*
X101847142Y-68388185D01*
X101847142Y-68388185D02*
X101772857Y-68462471D01*
X101772857Y-68462471D02*
X101735714Y-68536757D01*
X101735714Y-68536757D02*
X101698571Y-68685328D01*
X101698571Y-68685328D02*
X101698571Y-68796757D01*
X101698571Y-68796757D02*
X101735714Y-68945328D01*
X101735714Y-68945328D02*
X101772857Y-69019614D01*
X101772857Y-69019614D02*
X101847142Y-69093900D01*
X101847142Y-69093900D02*
X101958571Y-69131042D01*
X101958571Y-69131042D02*
X102032857Y-69131042D01*
X102032857Y-69131042D02*
X102144285Y-69093900D01*
X102144285Y-69093900D02*
X102181428Y-69056757D01*
X102515714Y-68351042D02*
X102515714Y-69131042D01*
X102515714Y-69131042D02*
X102812857Y-69131042D01*
X102812857Y-69131042D02*
X102887142Y-69093900D01*
X102887142Y-69093900D02*
X102924285Y-69056757D01*
X102924285Y-69056757D02*
X102961428Y-68982471D01*
X102961428Y-68982471D02*
X102961428Y-68871042D01*
X102961428Y-68871042D02*
X102924285Y-68796757D01*
X102924285Y-68796757D02*
X102887142Y-68759614D01*
X102887142Y-68759614D02*
X102812857Y-68722471D01*
X102812857Y-68722471D02*
X102515714Y-68722471D01*
X103295714Y-69131042D02*
X103295714Y-68499614D01*
X103295714Y-68499614D02*
X103332857Y-68425328D01*
X103332857Y-68425328D02*
X103370000Y-68388185D01*
X103370000Y-68388185D02*
X103444285Y-68351042D01*
X103444285Y-68351042D02*
X103592857Y-68351042D01*
X103592857Y-68351042D02*
X103667142Y-68388185D01*
X103667142Y-68388185D02*
X103704285Y-68425328D01*
X103704285Y-68425328D02*
X103741428Y-68499614D01*
X103741428Y-68499614D02*
X103741428Y-69131042D01*
X104580857Y-68351042D02*
X104580857Y-69131042D01*
X104580857Y-69131042D02*
X104766571Y-69131042D01*
X104766571Y-69131042D02*
X104878000Y-69093900D01*
X104878000Y-69093900D02*
X104952285Y-69019614D01*
X104952285Y-69019614D02*
X104989428Y-68945328D01*
X104989428Y-68945328D02*
X105026571Y-68796757D01*
X105026571Y-68796757D02*
X105026571Y-68685328D01*
X105026571Y-68685328D02*
X104989428Y-68536757D01*
X104989428Y-68536757D02*
X104952285Y-68462471D01*
X104952285Y-68462471D02*
X104878000Y-68388185D01*
X104878000Y-68388185D02*
X104766571Y-68351042D01*
X104766571Y-68351042D02*
X104580857Y-68351042D01*
X105509428Y-69131042D02*
X105583714Y-69131042D01*
X105583714Y-69131042D02*
X105658000Y-69093900D01*
X105658000Y-69093900D02*
X105695143Y-69056757D01*
X105695143Y-69056757D02*
X105732285Y-68982471D01*
X105732285Y-68982471D02*
X105769428Y-68833900D01*
X105769428Y-68833900D02*
X105769428Y-68648185D01*
X105769428Y-68648185D02*
X105732285Y-68499614D01*
X105732285Y-68499614D02*
X105695143Y-68425328D01*
X105695143Y-68425328D02*
X105658000Y-68388185D01*
X105658000Y-68388185D02*
X105583714Y-68351042D01*
X105583714Y-68351042D02*
X105509428Y-68351042D01*
X105509428Y-68351042D02*
X105435143Y-68388185D01*
X105435143Y-68388185D02*
X105398000Y-68425328D01*
X105398000Y-68425328D02*
X105360857Y-68499614D01*
X105360857Y-68499614D02*
X105323714Y-68648185D01*
X105323714Y-68648185D02*
X105323714Y-68833900D01*
X105323714Y-68833900D02*
X105360857Y-68982471D01*
X105360857Y-68982471D02*
X105398000Y-69056757D01*
X105398000Y-69056757D02*
X105435143Y-69093900D01*
X105435143Y-69093900D02*
X105509428Y-69131042D01*
X102181428Y-65898128D02*
X102144285Y-65860985D01*
X102144285Y-65860985D02*
X102032857Y-65823842D01*
X102032857Y-65823842D02*
X101958571Y-65823842D01*
X101958571Y-65823842D02*
X101847142Y-65860985D01*
X101847142Y-65860985D02*
X101772857Y-65935271D01*
X101772857Y-65935271D02*
X101735714Y-66009557D01*
X101735714Y-66009557D02*
X101698571Y-66158128D01*
X101698571Y-66158128D02*
X101698571Y-66269557D01*
X101698571Y-66269557D02*
X101735714Y-66418128D01*
X101735714Y-66418128D02*
X101772857Y-66492414D01*
X101772857Y-66492414D02*
X101847142Y-66566700D01*
X101847142Y-66566700D02*
X101958571Y-66603842D01*
X101958571Y-66603842D02*
X102032857Y-66603842D01*
X102032857Y-66603842D02*
X102144285Y-66566700D01*
X102144285Y-66566700D02*
X102181428Y-66529557D01*
X102515714Y-65823842D02*
X102515714Y-66603842D01*
X102515714Y-66603842D02*
X102812857Y-66603842D01*
X102812857Y-66603842D02*
X102887142Y-66566700D01*
X102887142Y-66566700D02*
X102924285Y-66529557D01*
X102924285Y-66529557D02*
X102961428Y-66455271D01*
X102961428Y-66455271D02*
X102961428Y-66343842D01*
X102961428Y-66343842D02*
X102924285Y-66269557D01*
X102924285Y-66269557D02*
X102887142Y-66232414D01*
X102887142Y-66232414D02*
X102812857Y-66195271D01*
X102812857Y-66195271D02*
X102515714Y-66195271D01*
X103295714Y-66603842D02*
X103295714Y-65972414D01*
X103295714Y-65972414D02*
X103332857Y-65898128D01*
X103332857Y-65898128D02*
X103370000Y-65860985D01*
X103370000Y-65860985D02*
X103444285Y-65823842D01*
X103444285Y-65823842D02*
X103592857Y-65823842D01*
X103592857Y-65823842D02*
X103667142Y-65860985D01*
X103667142Y-65860985D02*
X103704285Y-65898128D01*
X103704285Y-65898128D02*
X103741428Y-65972414D01*
X103741428Y-65972414D02*
X103741428Y-66603842D01*
X104580857Y-65823842D02*
X104580857Y-66603842D01*
X104580857Y-66603842D02*
X104766571Y-66603842D01*
X104766571Y-66603842D02*
X104878000Y-66566700D01*
X104878000Y-66566700D02*
X104952285Y-66492414D01*
X104952285Y-66492414D02*
X104989428Y-66418128D01*
X104989428Y-66418128D02*
X105026571Y-66269557D01*
X105026571Y-66269557D02*
X105026571Y-66158128D01*
X105026571Y-66158128D02*
X104989428Y-66009557D01*
X104989428Y-66009557D02*
X104952285Y-65935271D01*
X104952285Y-65935271D02*
X104878000Y-65860985D01*
X104878000Y-65860985D02*
X104766571Y-65823842D01*
X104766571Y-65823842D02*
X104580857Y-65823842D01*
X105769428Y-65823842D02*
X105323714Y-65823842D01*
X105546571Y-65823842D02*
X105546571Y-66603842D01*
X105546571Y-66603842D02*
X105472285Y-66492414D01*
X105472285Y-66492414D02*
X105398000Y-66418128D01*
X105398000Y-66418128D02*
X105323714Y-66380985D01*
X102181428Y-63370928D02*
X102144285Y-63333785D01*
X102144285Y-63333785D02*
X102032857Y-63296642D01*
X102032857Y-63296642D02*
X101958571Y-63296642D01*
X101958571Y-63296642D02*
X101847142Y-63333785D01*
X101847142Y-63333785D02*
X101772857Y-63408071D01*
X101772857Y-63408071D02*
X101735714Y-63482357D01*
X101735714Y-63482357D02*
X101698571Y-63630928D01*
X101698571Y-63630928D02*
X101698571Y-63742357D01*
X101698571Y-63742357D02*
X101735714Y-63890928D01*
X101735714Y-63890928D02*
X101772857Y-63965214D01*
X101772857Y-63965214D02*
X101847142Y-64039500D01*
X101847142Y-64039500D02*
X101958571Y-64076642D01*
X101958571Y-64076642D02*
X102032857Y-64076642D01*
X102032857Y-64076642D02*
X102144285Y-64039500D01*
X102144285Y-64039500D02*
X102181428Y-64002357D01*
X102515714Y-63296642D02*
X102515714Y-64076642D01*
X102515714Y-64076642D02*
X102812857Y-64076642D01*
X102812857Y-64076642D02*
X102887142Y-64039500D01*
X102887142Y-64039500D02*
X102924285Y-64002357D01*
X102924285Y-64002357D02*
X102961428Y-63928071D01*
X102961428Y-63928071D02*
X102961428Y-63816642D01*
X102961428Y-63816642D02*
X102924285Y-63742357D01*
X102924285Y-63742357D02*
X102887142Y-63705214D01*
X102887142Y-63705214D02*
X102812857Y-63668071D01*
X102812857Y-63668071D02*
X102515714Y-63668071D01*
X103295714Y-64076642D02*
X103295714Y-63445214D01*
X103295714Y-63445214D02*
X103332857Y-63370928D01*
X103332857Y-63370928D02*
X103370000Y-63333785D01*
X103370000Y-63333785D02*
X103444285Y-63296642D01*
X103444285Y-63296642D02*
X103592857Y-63296642D01*
X103592857Y-63296642D02*
X103667142Y-63333785D01*
X103667142Y-63333785D02*
X103704285Y-63370928D01*
X103704285Y-63370928D02*
X103741428Y-63445214D01*
X103741428Y-63445214D02*
X103741428Y-64076642D01*
X104580857Y-63296642D02*
X104580857Y-64076642D01*
X104580857Y-64076642D02*
X104766571Y-64076642D01*
X104766571Y-64076642D02*
X104878000Y-64039500D01*
X104878000Y-64039500D02*
X104952285Y-63965214D01*
X104952285Y-63965214D02*
X104989428Y-63890928D01*
X104989428Y-63890928D02*
X105026571Y-63742357D01*
X105026571Y-63742357D02*
X105026571Y-63630928D01*
X105026571Y-63630928D02*
X104989428Y-63482357D01*
X104989428Y-63482357D02*
X104952285Y-63408071D01*
X104952285Y-63408071D02*
X104878000Y-63333785D01*
X104878000Y-63333785D02*
X104766571Y-63296642D01*
X104766571Y-63296642D02*
X104580857Y-63296642D01*
X105323714Y-64002357D02*
X105360857Y-64039500D01*
X105360857Y-64039500D02*
X105435143Y-64076642D01*
X105435143Y-64076642D02*
X105620857Y-64076642D01*
X105620857Y-64076642D02*
X105695143Y-64039500D01*
X105695143Y-64039500D02*
X105732285Y-64002357D01*
X105732285Y-64002357D02*
X105769428Y-63928071D01*
X105769428Y-63928071D02*
X105769428Y-63853785D01*
X105769428Y-63853785D02*
X105732285Y-63742357D01*
X105732285Y-63742357D02*
X105286571Y-63296642D01*
X105286571Y-63296642D02*
X105769428Y-63296642D01*
X102181428Y-60843728D02*
X102144285Y-60806585D01*
X102144285Y-60806585D02*
X102032857Y-60769442D01*
X102032857Y-60769442D02*
X101958571Y-60769442D01*
X101958571Y-60769442D02*
X101847142Y-60806585D01*
X101847142Y-60806585D02*
X101772857Y-60880871D01*
X101772857Y-60880871D02*
X101735714Y-60955157D01*
X101735714Y-60955157D02*
X101698571Y-61103728D01*
X101698571Y-61103728D02*
X101698571Y-61215157D01*
X101698571Y-61215157D02*
X101735714Y-61363728D01*
X101735714Y-61363728D02*
X101772857Y-61438014D01*
X101772857Y-61438014D02*
X101847142Y-61512300D01*
X101847142Y-61512300D02*
X101958571Y-61549442D01*
X101958571Y-61549442D02*
X102032857Y-61549442D01*
X102032857Y-61549442D02*
X102144285Y-61512300D01*
X102144285Y-61512300D02*
X102181428Y-61475157D01*
X102515714Y-60769442D02*
X102515714Y-61549442D01*
X102515714Y-61549442D02*
X102812857Y-61549442D01*
X102812857Y-61549442D02*
X102887142Y-61512300D01*
X102887142Y-61512300D02*
X102924285Y-61475157D01*
X102924285Y-61475157D02*
X102961428Y-61400871D01*
X102961428Y-61400871D02*
X102961428Y-61289442D01*
X102961428Y-61289442D02*
X102924285Y-61215157D01*
X102924285Y-61215157D02*
X102887142Y-61178014D01*
X102887142Y-61178014D02*
X102812857Y-61140871D01*
X102812857Y-61140871D02*
X102515714Y-61140871D01*
X103295714Y-61549442D02*
X103295714Y-60918014D01*
X103295714Y-60918014D02*
X103332857Y-60843728D01*
X103332857Y-60843728D02*
X103370000Y-60806585D01*
X103370000Y-60806585D02*
X103444285Y-60769442D01*
X103444285Y-60769442D02*
X103592857Y-60769442D01*
X103592857Y-60769442D02*
X103667142Y-60806585D01*
X103667142Y-60806585D02*
X103704285Y-60843728D01*
X103704285Y-60843728D02*
X103741428Y-60918014D01*
X103741428Y-60918014D02*
X103741428Y-61549442D01*
X104580857Y-60769442D02*
X104580857Y-61549442D01*
X104580857Y-61549442D02*
X104766571Y-61549442D01*
X104766571Y-61549442D02*
X104878000Y-61512300D01*
X104878000Y-61512300D02*
X104952285Y-61438014D01*
X104952285Y-61438014D02*
X104989428Y-61363728D01*
X104989428Y-61363728D02*
X105026571Y-61215157D01*
X105026571Y-61215157D02*
X105026571Y-61103728D01*
X105026571Y-61103728D02*
X104989428Y-60955157D01*
X104989428Y-60955157D02*
X104952285Y-60880871D01*
X104952285Y-60880871D02*
X104878000Y-60806585D01*
X104878000Y-60806585D02*
X104766571Y-60769442D01*
X104766571Y-60769442D02*
X104580857Y-60769442D01*
X105286571Y-61549442D02*
X105769428Y-61549442D01*
X105769428Y-61549442D02*
X105509428Y-61252300D01*
X105509428Y-61252300D02*
X105620857Y-61252300D01*
X105620857Y-61252300D02*
X105695143Y-61215157D01*
X105695143Y-61215157D02*
X105732285Y-61178014D01*
X105732285Y-61178014D02*
X105769428Y-61103728D01*
X105769428Y-61103728D02*
X105769428Y-60918014D01*
X105769428Y-60918014D02*
X105732285Y-60843728D01*
X105732285Y-60843728D02*
X105695143Y-60806585D01*
X105695143Y-60806585D02*
X105620857Y-60769442D01*
X105620857Y-60769442D02*
X105398000Y-60769442D01*
X105398000Y-60769442D02*
X105323714Y-60806585D01*
X105323714Y-60806585D02*
X105286571Y-60843728D01*
X102181428Y-58316528D02*
X102144285Y-58279385D01*
X102144285Y-58279385D02*
X102032857Y-58242242D01*
X102032857Y-58242242D02*
X101958571Y-58242242D01*
X101958571Y-58242242D02*
X101847142Y-58279385D01*
X101847142Y-58279385D02*
X101772857Y-58353671D01*
X101772857Y-58353671D02*
X101735714Y-58427957D01*
X101735714Y-58427957D02*
X101698571Y-58576528D01*
X101698571Y-58576528D02*
X101698571Y-58687957D01*
X101698571Y-58687957D02*
X101735714Y-58836528D01*
X101735714Y-58836528D02*
X101772857Y-58910814D01*
X101772857Y-58910814D02*
X101847142Y-58985100D01*
X101847142Y-58985100D02*
X101958571Y-59022242D01*
X101958571Y-59022242D02*
X102032857Y-59022242D01*
X102032857Y-59022242D02*
X102144285Y-58985100D01*
X102144285Y-58985100D02*
X102181428Y-58947957D01*
X102515714Y-58242242D02*
X102515714Y-59022242D01*
X102515714Y-59022242D02*
X102812857Y-59022242D01*
X102812857Y-59022242D02*
X102887142Y-58985100D01*
X102887142Y-58985100D02*
X102924285Y-58947957D01*
X102924285Y-58947957D02*
X102961428Y-58873671D01*
X102961428Y-58873671D02*
X102961428Y-58762242D01*
X102961428Y-58762242D02*
X102924285Y-58687957D01*
X102924285Y-58687957D02*
X102887142Y-58650814D01*
X102887142Y-58650814D02*
X102812857Y-58613671D01*
X102812857Y-58613671D02*
X102515714Y-58613671D01*
X103295714Y-59022242D02*
X103295714Y-58390814D01*
X103295714Y-58390814D02*
X103332857Y-58316528D01*
X103332857Y-58316528D02*
X103370000Y-58279385D01*
X103370000Y-58279385D02*
X103444285Y-58242242D01*
X103444285Y-58242242D02*
X103592857Y-58242242D01*
X103592857Y-58242242D02*
X103667142Y-58279385D01*
X103667142Y-58279385D02*
X103704285Y-58316528D01*
X103704285Y-58316528D02*
X103741428Y-58390814D01*
X103741428Y-58390814D02*
X103741428Y-59022242D01*
X104580857Y-58242242D02*
X104580857Y-59022242D01*
X104580857Y-59022242D02*
X104766571Y-59022242D01*
X104766571Y-59022242D02*
X104878000Y-58985100D01*
X104878000Y-58985100D02*
X104952285Y-58910814D01*
X104952285Y-58910814D02*
X104989428Y-58836528D01*
X104989428Y-58836528D02*
X105026571Y-58687957D01*
X105026571Y-58687957D02*
X105026571Y-58576528D01*
X105026571Y-58576528D02*
X104989428Y-58427957D01*
X104989428Y-58427957D02*
X104952285Y-58353671D01*
X104952285Y-58353671D02*
X104878000Y-58279385D01*
X104878000Y-58279385D02*
X104766571Y-58242242D01*
X104766571Y-58242242D02*
X104580857Y-58242242D01*
X105695143Y-58762242D02*
X105695143Y-58242242D01*
X105509428Y-59059385D02*
X105323714Y-58502242D01*
X105323714Y-58502242D02*
X105806571Y-58502242D01*
X102181428Y-55789328D02*
X102144285Y-55752185D01*
X102144285Y-55752185D02*
X102032857Y-55715042D01*
X102032857Y-55715042D02*
X101958571Y-55715042D01*
X101958571Y-55715042D02*
X101847142Y-55752185D01*
X101847142Y-55752185D02*
X101772857Y-55826471D01*
X101772857Y-55826471D02*
X101735714Y-55900757D01*
X101735714Y-55900757D02*
X101698571Y-56049328D01*
X101698571Y-56049328D02*
X101698571Y-56160757D01*
X101698571Y-56160757D02*
X101735714Y-56309328D01*
X101735714Y-56309328D02*
X101772857Y-56383614D01*
X101772857Y-56383614D02*
X101847142Y-56457900D01*
X101847142Y-56457900D02*
X101958571Y-56495042D01*
X101958571Y-56495042D02*
X102032857Y-56495042D01*
X102032857Y-56495042D02*
X102144285Y-56457900D01*
X102144285Y-56457900D02*
X102181428Y-56420757D01*
X102515714Y-55715042D02*
X102515714Y-56495042D01*
X102515714Y-56495042D02*
X102812857Y-56495042D01*
X102812857Y-56495042D02*
X102887142Y-56457900D01*
X102887142Y-56457900D02*
X102924285Y-56420757D01*
X102924285Y-56420757D02*
X102961428Y-56346471D01*
X102961428Y-56346471D02*
X102961428Y-56235042D01*
X102961428Y-56235042D02*
X102924285Y-56160757D01*
X102924285Y-56160757D02*
X102887142Y-56123614D01*
X102887142Y-56123614D02*
X102812857Y-56086471D01*
X102812857Y-56086471D02*
X102515714Y-56086471D01*
X103295714Y-56495042D02*
X103295714Y-55863614D01*
X103295714Y-55863614D02*
X103332857Y-55789328D01*
X103332857Y-55789328D02*
X103370000Y-55752185D01*
X103370000Y-55752185D02*
X103444285Y-55715042D01*
X103444285Y-55715042D02*
X103592857Y-55715042D01*
X103592857Y-55715042D02*
X103667142Y-55752185D01*
X103667142Y-55752185D02*
X103704285Y-55789328D01*
X103704285Y-55789328D02*
X103741428Y-55863614D01*
X103741428Y-55863614D02*
X103741428Y-56495042D01*
X104580857Y-55715042D02*
X104580857Y-56495042D01*
X104580857Y-56495042D02*
X104766571Y-56495042D01*
X104766571Y-56495042D02*
X104878000Y-56457900D01*
X104878000Y-56457900D02*
X104952285Y-56383614D01*
X104952285Y-56383614D02*
X104989428Y-56309328D01*
X104989428Y-56309328D02*
X105026571Y-56160757D01*
X105026571Y-56160757D02*
X105026571Y-56049328D01*
X105026571Y-56049328D02*
X104989428Y-55900757D01*
X104989428Y-55900757D02*
X104952285Y-55826471D01*
X104952285Y-55826471D02*
X104878000Y-55752185D01*
X104878000Y-55752185D02*
X104766571Y-55715042D01*
X104766571Y-55715042D02*
X104580857Y-55715042D01*
X105732285Y-56495042D02*
X105360857Y-56495042D01*
X105360857Y-56495042D02*
X105323714Y-56123614D01*
X105323714Y-56123614D02*
X105360857Y-56160757D01*
X105360857Y-56160757D02*
X105435143Y-56197900D01*
X105435143Y-56197900D02*
X105620857Y-56197900D01*
X105620857Y-56197900D02*
X105695143Y-56160757D01*
X105695143Y-56160757D02*
X105732285Y-56123614D01*
X105732285Y-56123614D02*
X105769428Y-56049328D01*
X105769428Y-56049328D02*
X105769428Y-55863614D01*
X105769428Y-55863614D02*
X105732285Y-55789328D01*
X105732285Y-55789328D02*
X105695143Y-55752185D01*
X105695143Y-55752185D02*
X105620857Y-55715042D01*
X105620857Y-55715042D02*
X105435143Y-55715042D01*
X105435143Y-55715042D02*
X105360857Y-55752185D01*
X105360857Y-55752185D02*
X105323714Y-55789328D01*
X102181428Y-53262128D02*
X102144285Y-53224985D01*
X102144285Y-53224985D02*
X102032857Y-53187842D01*
X102032857Y-53187842D02*
X101958571Y-53187842D01*
X101958571Y-53187842D02*
X101847142Y-53224985D01*
X101847142Y-53224985D02*
X101772857Y-53299271D01*
X101772857Y-53299271D02*
X101735714Y-53373557D01*
X101735714Y-53373557D02*
X101698571Y-53522128D01*
X101698571Y-53522128D02*
X101698571Y-53633557D01*
X101698571Y-53633557D02*
X101735714Y-53782128D01*
X101735714Y-53782128D02*
X101772857Y-53856414D01*
X101772857Y-53856414D02*
X101847142Y-53930700D01*
X101847142Y-53930700D02*
X101958571Y-53967842D01*
X101958571Y-53967842D02*
X102032857Y-53967842D01*
X102032857Y-53967842D02*
X102144285Y-53930700D01*
X102144285Y-53930700D02*
X102181428Y-53893557D01*
X102515714Y-53187842D02*
X102515714Y-53967842D01*
X102515714Y-53967842D02*
X102812857Y-53967842D01*
X102812857Y-53967842D02*
X102887142Y-53930700D01*
X102887142Y-53930700D02*
X102924285Y-53893557D01*
X102924285Y-53893557D02*
X102961428Y-53819271D01*
X102961428Y-53819271D02*
X102961428Y-53707842D01*
X102961428Y-53707842D02*
X102924285Y-53633557D01*
X102924285Y-53633557D02*
X102887142Y-53596414D01*
X102887142Y-53596414D02*
X102812857Y-53559271D01*
X102812857Y-53559271D02*
X102515714Y-53559271D01*
X103295714Y-53967842D02*
X103295714Y-53336414D01*
X103295714Y-53336414D02*
X103332857Y-53262128D01*
X103332857Y-53262128D02*
X103370000Y-53224985D01*
X103370000Y-53224985D02*
X103444285Y-53187842D01*
X103444285Y-53187842D02*
X103592857Y-53187842D01*
X103592857Y-53187842D02*
X103667142Y-53224985D01*
X103667142Y-53224985D02*
X103704285Y-53262128D01*
X103704285Y-53262128D02*
X103741428Y-53336414D01*
X103741428Y-53336414D02*
X103741428Y-53967842D01*
X104580857Y-53187842D02*
X104580857Y-53967842D01*
X104580857Y-53967842D02*
X104766571Y-53967842D01*
X104766571Y-53967842D02*
X104878000Y-53930700D01*
X104878000Y-53930700D02*
X104952285Y-53856414D01*
X104952285Y-53856414D02*
X104989428Y-53782128D01*
X104989428Y-53782128D02*
X105026571Y-53633557D01*
X105026571Y-53633557D02*
X105026571Y-53522128D01*
X105026571Y-53522128D02*
X104989428Y-53373557D01*
X104989428Y-53373557D02*
X104952285Y-53299271D01*
X104952285Y-53299271D02*
X104878000Y-53224985D01*
X104878000Y-53224985D02*
X104766571Y-53187842D01*
X104766571Y-53187842D02*
X104580857Y-53187842D01*
X105695143Y-53967842D02*
X105546571Y-53967842D01*
X105546571Y-53967842D02*
X105472285Y-53930700D01*
X105472285Y-53930700D02*
X105435143Y-53893557D01*
X105435143Y-53893557D02*
X105360857Y-53782128D01*
X105360857Y-53782128D02*
X105323714Y-53633557D01*
X105323714Y-53633557D02*
X105323714Y-53336414D01*
X105323714Y-53336414D02*
X105360857Y-53262128D01*
X105360857Y-53262128D02*
X105398000Y-53224985D01*
X105398000Y-53224985D02*
X105472285Y-53187842D01*
X105472285Y-53187842D02*
X105620857Y-53187842D01*
X105620857Y-53187842D02*
X105695143Y-53224985D01*
X105695143Y-53224985D02*
X105732285Y-53262128D01*
X105732285Y-53262128D02*
X105769428Y-53336414D01*
X105769428Y-53336414D02*
X105769428Y-53522128D01*
X105769428Y-53522128D02*
X105732285Y-53596414D01*
X105732285Y-53596414D02*
X105695143Y-53633557D01*
X105695143Y-53633557D02*
X105620857Y-53670700D01*
X105620857Y-53670700D02*
X105472285Y-53670700D01*
X105472285Y-53670700D02*
X105398000Y-53633557D01*
X105398000Y-53633557D02*
X105360857Y-53596414D01*
X105360857Y-53596414D02*
X105323714Y-53522128D01*
X102181428Y-50734928D02*
X102144285Y-50697785D01*
X102144285Y-50697785D02*
X102032857Y-50660642D01*
X102032857Y-50660642D02*
X101958571Y-50660642D01*
X101958571Y-50660642D02*
X101847142Y-50697785D01*
X101847142Y-50697785D02*
X101772857Y-50772071D01*
X101772857Y-50772071D02*
X101735714Y-50846357D01*
X101735714Y-50846357D02*
X101698571Y-50994928D01*
X101698571Y-50994928D02*
X101698571Y-51106357D01*
X101698571Y-51106357D02*
X101735714Y-51254928D01*
X101735714Y-51254928D02*
X101772857Y-51329214D01*
X101772857Y-51329214D02*
X101847142Y-51403500D01*
X101847142Y-51403500D02*
X101958571Y-51440642D01*
X101958571Y-51440642D02*
X102032857Y-51440642D01*
X102032857Y-51440642D02*
X102144285Y-51403500D01*
X102144285Y-51403500D02*
X102181428Y-51366357D01*
X102515714Y-50660642D02*
X102515714Y-51440642D01*
X102515714Y-51440642D02*
X102812857Y-51440642D01*
X102812857Y-51440642D02*
X102887142Y-51403500D01*
X102887142Y-51403500D02*
X102924285Y-51366357D01*
X102924285Y-51366357D02*
X102961428Y-51292071D01*
X102961428Y-51292071D02*
X102961428Y-51180642D01*
X102961428Y-51180642D02*
X102924285Y-51106357D01*
X102924285Y-51106357D02*
X102887142Y-51069214D01*
X102887142Y-51069214D02*
X102812857Y-51032071D01*
X102812857Y-51032071D02*
X102515714Y-51032071D01*
X103295714Y-51440642D02*
X103295714Y-50809214D01*
X103295714Y-50809214D02*
X103332857Y-50734928D01*
X103332857Y-50734928D02*
X103370000Y-50697785D01*
X103370000Y-50697785D02*
X103444285Y-50660642D01*
X103444285Y-50660642D02*
X103592857Y-50660642D01*
X103592857Y-50660642D02*
X103667142Y-50697785D01*
X103667142Y-50697785D02*
X103704285Y-50734928D01*
X103704285Y-50734928D02*
X103741428Y-50809214D01*
X103741428Y-50809214D02*
X103741428Y-51440642D01*
X104580857Y-50660642D02*
X104580857Y-51440642D01*
X104580857Y-51440642D02*
X104766571Y-51440642D01*
X104766571Y-51440642D02*
X104878000Y-51403500D01*
X104878000Y-51403500D02*
X104952285Y-51329214D01*
X104952285Y-51329214D02*
X104989428Y-51254928D01*
X104989428Y-51254928D02*
X105026571Y-51106357D01*
X105026571Y-51106357D02*
X105026571Y-50994928D01*
X105026571Y-50994928D02*
X104989428Y-50846357D01*
X104989428Y-50846357D02*
X104952285Y-50772071D01*
X104952285Y-50772071D02*
X104878000Y-50697785D01*
X104878000Y-50697785D02*
X104766571Y-50660642D01*
X104766571Y-50660642D02*
X104580857Y-50660642D01*
X105286571Y-51440642D02*
X105806571Y-51440642D01*
X105806571Y-51440642D02*
X105472285Y-50660642D01*
D12*
%TO.C,J3*%
X113617333Y-110917380D02*
X113617333Y-111631666D01*
X113617333Y-111631666D02*
X113664952Y-111774523D01*
X113664952Y-111774523D02*
X113760190Y-111869761D01*
X113760190Y-111869761D02*
X113903047Y-111917380D01*
X113903047Y-111917380D02*
X113998285Y-111917380D01*
X113236380Y-110917380D02*
X112617333Y-110917380D01*
X112617333Y-110917380D02*
X112950666Y-111298333D01*
X112950666Y-111298333D02*
X112807809Y-111298333D01*
X112807809Y-111298333D02*
X112712571Y-111345952D01*
X112712571Y-111345952D02*
X112664952Y-111393571D01*
X112664952Y-111393571D02*
X112617333Y-111488809D01*
X112617333Y-111488809D02*
X112617333Y-111726904D01*
X112617333Y-111726904D02*
X112664952Y-111822142D01*
X112664952Y-111822142D02*
X112712571Y-111869761D01*
X112712571Y-111869761D02*
X112807809Y-111917380D01*
X112807809Y-111917380D02*
X113093523Y-111917380D01*
X113093523Y-111917380D02*
X113188761Y-111869761D01*
X113188761Y-111869761D02*
X113236380Y-111822142D01*
%TO.C,J4*%
X108029333Y-110917380D02*
X108029333Y-111631666D01*
X108029333Y-111631666D02*
X108076952Y-111774523D01*
X108076952Y-111774523D02*
X108172190Y-111869761D01*
X108172190Y-111869761D02*
X108315047Y-111917380D01*
X108315047Y-111917380D02*
X108410285Y-111917380D01*
X107124571Y-111250714D02*
X107124571Y-111917380D01*
X107362666Y-110869761D02*
X107600761Y-111584047D01*
X107600761Y-111584047D02*
X106981714Y-111584047D01*
D13*
%TO.C,J3*%
X111954000Y-49470000D02*
X114614000Y-49470000D01*
X111954000Y-107950000D02*
X111954000Y-49470000D01*
X111954000Y-107950000D02*
X114614000Y-107950000D01*
X111954000Y-109220000D02*
X111954000Y-110550000D01*
X111954000Y-110550000D02*
X113284000Y-110550000D01*
X114614000Y-107950000D02*
X114614000Y-49470000D01*
%TO.C,J4*%
X106366000Y-49470000D02*
X109026000Y-49470000D01*
X106366000Y-107950000D02*
X106366000Y-49470000D01*
X106366000Y-107950000D02*
X109026000Y-107950000D01*
X106366000Y-109220000D02*
X106366000Y-110550000D01*
X106366000Y-110550000D02*
X107696000Y-110550000D01*
X109026000Y-107950000D02*
X109026000Y-49470000D01*
%TD*%
%LPC*%
D14*
%TO.C,J6*%
X110490000Y-38787000D03*
X110490000Y-45787000D03*
%TD*%
D15*
%TO.C,J1*%
X99822000Y-69850000D03*
D16*
X102362000Y-69850000D03*
X99822000Y-72390000D03*
X102362000Y-72390000D03*
X99822000Y-74930000D03*
X102362000Y-74930000D03*
X99822000Y-77470000D03*
X102362000Y-77470000D03*
X99822000Y-80010000D03*
X102362000Y-80010000D03*
X99822000Y-82550000D03*
X102362000Y-82550000D03*
X99822000Y-85090000D03*
X102362000Y-85090000D03*
X99822000Y-87630000D03*
X102362000Y-87630000D03*
%TD*%
D17*
%TO.C,J3*%
X113283999Y-109219999D03*
D18*
X113283999Y-106679999D03*
X113283999Y-104139999D03*
X113283999Y-101599999D03*
X113283999Y-99059999D03*
X113283999Y-96519999D03*
X113283999Y-93979999D03*
X113283999Y-91439999D03*
X113283999Y-88899999D03*
X113283999Y-86359999D03*
X113283999Y-83819999D03*
X113283999Y-81279999D03*
X113283999Y-78739999D03*
X113283999Y-76199999D03*
X113283999Y-73659999D03*
X113283999Y-71119999D03*
X113283999Y-68579999D03*
X113283999Y-66039999D03*
X113283999Y-63499999D03*
X113283999Y-60959999D03*
X113283999Y-58419999D03*
X113283999Y-55879999D03*
X113283999Y-53339999D03*
X113283999Y-50799999D03*
%TD*%
D17*
%TO.C,J4*%
X107695999Y-109219999D03*
D18*
X107695999Y-106679999D03*
X107695999Y-104139999D03*
X107695999Y-101599999D03*
X107695999Y-99059999D03*
X107695999Y-96519999D03*
X107695999Y-93979999D03*
X107695999Y-91439999D03*
X107695999Y-88899999D03*
X107695999Y-86359999D03*
X107695999Y-83819999D03*
X107695999Y-81279999D03*
X107695999Y-78739999D03*
X107695999Y-76199999D03*
X107695999Y-73659999D03*
X107695999Y-71119999D03*
X107695999Y-68579999D03*
X107695999Y-66039999D03*
X107695999Y-63499999D03*
X107695999Y-60959999D03*
X107695999Y-58419999D03*
X107695999Y-55879999D03*
X107695999Y-53339999D03*
X107695999Y-50799999D03*
%TD*%
M02*
