%TF.GenerationSoftware,KiCad,Pcbnew,(5.1.6)-1*%
%TF.CreationDate,2020-10-04T22:05:10+02:00*%
%TF.ProjectId,Nes Sound Expansion,4e657320-536f-4756-9e64-20457870616e,rev?*%
%TF.SameCoordinates,Original*%
%TF.FileFunction,Soldermask,Top*%
%TF.FilePolarity,Negative*%
%FSLAX46Y46*%
G04 Gerber Fmt 4.6, Leading zero omitted, Abs format (unit mm)*
G04 Created by KiCad (PCBNEW (5.1.6)-1) date 2020-10-04 22:05:10*
%MOMM*%
%LPD*%
G01*
G04 APERTURE LIST*
%ADD10C,1.800000*%
%ADD11R,1.800000X1.800000*%
%ADD12O,1.800000X1.800000*%
%ADD13O,2.200000X1.400000*%
%ADD14O,1.900000X1.900000*%
%ADD15R,1.900000X1.900000*%
G04 APERTURE END LIST*
D10*
%TO.C,C10*%
X179070000Y-66080000D03*
D11*
X179070000Y-68580000D03*
%TD*%
D10*
%TO.C,C13*%
X194310000Y-66080000D03*
D11*
X194310000Y-68580000D03*
%TD*%
D10*
%TO.C,C12*%
X190500000Y-61000000D03*
D11*
X190500000Y-63500000D03*
%TD*%
D10*
%TO.C,C11*%
X182880000Y-61000000D03*
D11*
X182880000Y-63500000D03*
%TD*%
D10*
%TO.C,C2*%
X147280000Y-119380000D03*
D11*
X144780000Y-119380000D03*
%TD*%
D12*
%TO.C,U4*%
X190500000Y-73660000D03*
X182880000Y-81280000D03*
X190500000Y-76200000D03*
X182880000Y-78740000D03*
X190500000Y-78740000D03*
X182880000Y-76200000D03*
X190500000Y-81280000D03*
D11*
X182880000Y-73660000D03*
%TD*%
D12*
%TO.C,U3*%
X190500000Y-109220000D03*
X182880000Y-116840000D03*
X190500000Y-111760000D03*
X182880000Y-114300000D03*
X190500000Y-114300000D03*
X182880000Y-111760000D03*
X190500000Y-116840000D03*
D11*
X182880000Y-109220000D03*
%TD*%
D12*
%TO.C,U2*%
X132080000Y-111760000D03*
X139700000Y-119380000D03*
X134620000Y-111760000D03*
X137160000Y-119380000D03*
X137160000Y-111760000D03*
X134620000Y-119380000D03*
X139700000Y-111760000D03*
D11*
X132080000Y-119380000D03*
%TD*%
D12*
%TO.C,R8*%
X194310000Y-57150000D03*
D10*
X194310000Y-46990000D03*
%TD*%
D12*
%TO.C,R7*%
X189230000Y-57150000D03*
D10*
X189230000Y-46990000D03*
%TD*%
D12*
%TO.C,R6*%
X184150000Y-57150000D03*
D10*
X184150000Y-46990000D03*
%TD*%
D12*
%TO.C,R5*%
X179070000Y-57150000D03*
D10*
X179070000Y-46990000D03*
%TD*%
D12*
%TO.C,R4*%
X195580000Y-95250000D03*
D10*
X195580000Y-85090000D03*
%TD*%
D12*
%TO.C,R3*%
X177800000Y-95250000D03*
D10*
X177800000Y-85090000D03*
%TD*%
D12*
%TO.C,R2*%
X190500000Y-105410000D03*
D10*
X190500000Y-95250000D03*
%TD*%
D12*
%TO.C,R1*%
X182880000Y-105410000D03*
D10*
X182880000Y-95250000D03*
%TD*%
%TO.C,C9*%
X195580000Y-81200000D03*
X195580000Y-76200000D03*
%TD*%
%TO.C,C8*%
X190500000Y-92630000D03*
X190500000Y-87630000D03*
%TD*%
%TO.C,C7*%
X177800000Y-81200000D03*
X177800000Y-76200000D03*
%TD*%
%TO.C,C6*%
X182880000Y-92630000D03*
X182880000Y-87630000D03*
%TD*%
%TO.C,C5*%
X149780000Y-114300000D03*
X144780000Y-114300000D03*
%TD*%
%TO.C,C4*%
X177800000Y-111840000D03*
X177800000Y-116840000D03*
%TD*%
%TO.C,C3*%
X195580000Y-111840000D03*
X195580000Y-116840000D03*
%TD*%
D12*
%TO.C,YM3016*%
X132080000Y-100330000D03*
X149860000Y-107950000D03*
X134620000Y-100330000D03*
X147320000Y-107950000D03*
X137160000Y-100330000D03*
X144780000Y-107950000D03*
X139700000Y-100330000D03*
X142240000Y-107950000D03*
X142240000Y-100330000D03*
X139700000Y-107950000D03*
X144780000Y-100330000D03*
X137160000Y-107950000D03*
X147320000Y-100330000D03*
X134620000Y-107950000D03*
X149860000Y-100330000D03*
D11*
X132080000Y-107950000D03*
%TD*%
D10*
%TO.C,C1*%
X162480000Y-87630000D03*
X157480000Y-87630000D03*
%TD*%
D12*
%TO.C,U1*%
X165100000Y-41910000D03*
X157480000Y-59690000D03*
X165100000Y-44450000D03*
X157480000Y-57150000D03*
X165100000Y-46990000D03*
X157480000Y-54610000D03*
X165100000Y-49530000D03*
X157480000Y-52070000D03*
X165100000Y-52070000D03*
X157480000Y-49530000D03*
X165100000Y-54610000D03*
X157480000Y-46990000D03*
X165100000Y-57150000D03*
X157480000Y-44450000D03*
X165100000Y-59690000D03*
D11*
X157480000Y-41910000D03*
%TD*%
D10*
%TO.C,X1*%
X167640000Y-74930000D03*
X167640000Y-67310000D03*
X160020000Y-67310000D03*
D11*
X160020000Y-74930000D03*
%TD*%
D13*
%TO.C,YM2608*%
X131445000Y-96170000D03*
X150495000Y-96170000D03*
X131445000Y-94390000D03*
X150495000Y-94390000D03*
X131445000Y-92610000D03*
X150495000Y-92610000D03*
X131445000Y-90830000D03*
X150495000Y-90830000D03*
X131445000Y-89050000D03*
X150495000Y-89050000D03*
X131445000Y-87270000D03*
X150495000Y-87270000D03*
X131445000Y-85490000D03*
X150495000Y-85490000D03*
X131445000Y-83710000D03*
X150495000Y-83710000D03*
X131445000Y-81930000D03*
X150495000Y-81930000D03*
X131445000Y-80150000D03*
X150495000Y-80150000D03*
X131445000Y-78370000D03*
X150495000Y-78370000D03*
X131445000Y-76590000D03*
X150495000Y-76590000D03*
X131445000Y-74810000D03*
X150495000Y-74810000D03*
X131445000Y-73030000D03*
X150495000Y-73030000D03*
X131445000Y-71250000D03*
X150495000Y-71250000D03*
X131445000Y-69470000D03*
X150495000Y-69470000D03*
X131445000Y-67690000D03*
X150495000Y-67690000D03*
X131445000Y-65910000D03*
X150495000Y-65910000D03*
X131445000Y-64130000D03*
X150495000Y-64130000D03*
X131445000Y-62350000D03*
X150495000Y-62350000D03*
X131445000Y-60570000D03*
X150495000Y-60570000D03*
X131445000Y-58790000D03*
X150495000Y-58790000D03*
X131445000Y-57010000D03*
X150495000Y-57010000D03*
X131445000Y-55230000D03*
X150495000Y-55230000D03*
X131445000Y-53450000D03*
X150495000Y-53450000D03*
X131445000Y-51670000D03*
X150495000Y-51670000D03*
X131445000Y-49890000D03*
X150495000Y-49890000D03*
X131445000Y-48110000D03*
X150495000Y-48110000D03*
X131445000Y-46330000D03*
X150495000Y-46330000D03*
X131445000Y-44550000D03*
X150495000Y-44550000D03*
X131445000Y-42770000D03*
X150495000Y-42770000D03*
X131445000Y-40990000D03*
X150495000Y-40990000D03*
%TD*%
D14*
%TO.C,J6*%
X194310000Y-41910000D03*
X191770000Y-41910000D03*
X189230000Y-41910000D03*
D15*
X186690000Y-41910000D03*
%TD*%
D14*
%TO.C,J5*%
X177800000Y-41910000D03*
X175260000Y-41910000D03*
X172720000Y-41910000D03*
D15*
X170180000Y-41910000D03*
%TD*%
D14*
%TO.C,J4*%
X121920000Y-101600000D03*
X121920000Y-99060000D03*
X121920000Y-96520000D03*
X121920000Y-93980000D03*
X121920000Y-91440000D03*
X121920000Y-88900000D03*
X121920000Y-86360000D03*
X121920000Y-83820000D03*
X121920000Y-81280000D03*
X121920000Y-78740000D03*
X121920000Y-76200000D03*
X121920000Y-73660000D03*
X121920000Y-71120000D03*
X121920000Y-68580000D03*
X121920000Y-66040000D03*
X121920000Y-63500000D03*
X121920000Y-60960000D03*
X121920000Y-58420000D03*
X121920000Y-55880000D03*
X121920000Y-53340000D03*
X121920000Y-50800000D03*
X121920000Y-48260000D03*
X121920000Y-45720000D03*
D15*
X121920000Y-43180000D03*
%TD*%
D14*
%TO.C,J3*%
X114230000Y-101560000D03*
X114230000Y-99020000D03*
X114230000Y-96480000D03*
X114230000Y-93940000D03*
X114230000Y-91400000D03*
X114230000Y-88860000D03*
X114230000Y-86320000D03*
X114230000Y-83780000D03*
X114230000Y-81240000D03*
X114230000Y-78700000D03*
X114230000Y-76160000D03*
X114230000Y-73620000D03*
X114230000Y-71080000D03*
X114230000Y-68540000D03*
X114230000Y-66000000D03*
X114230000Y-63460000D03*
X114230000Y-60920000D03*
X114230000Y-58380000D03*
X114230000Y-55840000D03*
X114230000Y-53300000D03*
X114230000Y-50760000D03*
X114230000Y-48220000D03*
X114230000Y-45680000D03*
D15*
X114230000Y-43140000D03*
%TD*%
D14*
%TO.C,J2*%
X105410000Y-101600000D03*
X105410000Y-99060000D03*
X105410000Y-96520000D03*
X105410000Y-93980000D03*
X105410000Y-91440000D03*
X105410000Y-88900000D03*
D15*
X105410000Y-86360000D03*
%TD*%
D14*
%TO.C,J1*%
X105410000Y-77470000D03*
X105410000Y-74930000D03*
X105410000Y-72390000D03*
X105410000Y-69850000D03*
X105410000Y-67310000D03*
X105410000Y-64770000D03*
D15*
X105410000Y-62230000D03*
%TD*%
D12*
%TO.C,D1*%
X163830000Y-92710000D03*
D11*
X156210000Y-92710000D03*
%TD*%
M02*
