%TF.GenerationSoftware,KiCad,Pcbnew,(5.1.6)-1*%
%TF.CreationDate,2020-10-04T22:05:10+02:00*%
%TF.ProjectId,Nes Sound Expansion,4e657320-536f-4756-9e64-20457870616e,rev?*%
%TF.SameCoordinates,Original*%
%TF.FileFunction,Copper,L1,Top*%
%TF.FilePolarity,Positive*%
%FSLAX46Y46*%
G04 Gerber Fmt 4.6, Leading zero omitted, Abs format (unit mm)*
G04 Created by KiCad (PCBNEW (5.1.6)-1) date 2020-10-04 22:05:10*
%MOMM*%
%LPD*%
G01*
G04 APERTURE LIST*
%TA.AperFunction,ComponentPad*%
%ADD10C,1.600000*%
%TD*%
%TA.AperFunction,ComponentPad*%
%ADD11R,1.600000X1.600000*%
%TD*%
%TA.AperFunction,ComponentPad*%
%ADD12O,1.600000X1.600000*%
%TD*%
%TA.AperFunction,ComponentPad*%
%ADD13O,2.000000X1.200000*%
%TD*%
%TA.AperFunction,ComponentPad*%
%ADD14O,1.700000X1.700000*%
%TD*%
%TA.AperFunction,ComponentPad*%
%ADD15R,1.700000X1.700000*%
%TD*%
%TA.AperFunction,ViaPad*%
%ADD16C,0.800000*%
%TD*%
%TA.AperFunction,Conductor*%
%ADD17C,0.500000*%
%TD*%
G04 APERTURE END LIST*
D10*
%TO.P,C10,2*%
%TO.N,Net-(C10-Pad2)*%
X179070000Y-66080000D03*
D11*
%TO.P,C10,1*%
%TO.N,Net-(C10-Pad1)*%
X179070000Y-68580000D03*
%TD*%
D10*
%TO.P,C13,2*%
%TO.N,Net-(C13-Pad2)*%
X194310000Y-66080000D03*
D11*
%TO.P,C13,1*%
%TO.N,Net-(C13-Pad1)*%
X194310000Y-68580000D03*
%TD*%
D10*
%TO.P,C12,2*%
%TO.N,Net-(C12-Pad2)*%
X190500000Y-61000000D03*
D11*
%TO.P,C12,1*%
%TO.N,Aout_YM2608*%
X190500000Y-63500000D03*
%TD*%
D10*
%TO.P,C11,2*%
%TO.N,Net-(C11-Pad2)*%
X182880000Y-61000000D03*
D11*
%TO.P,C11,1*%
%TO.N,Aout_YM2608*%
X182880000Y-63500000D03*
%TD*%
D10*
%TO.P,C2,2*%
%TO.N,GND*%
X147280000Y-119380000D03*
D11*
%TO.P,C2,1*%
%TO.N,Net-(C2-Pad1)*%
X144780000Y-119380000D03*
%TD*%
D12*
%TO.P,U4,8*%
%TO.N,+5V*%
X190500000Y-73660000D03*
%TO.P,U4,4*%
%TO.N,GND*%
X182880000Y-81280000D03*
%TO.P,U4,7*%
%TO.N,Net-(C13-Pad1)*%
X190500000Y-76200000D03*
%TO.P,U4,3*%
%TO.N,Net-(C7-Pad2)*%
X182880000Y-78740000D03*
%TO.P,U4,6*%
%TO.N,Net-(C13-Pad1)*%
X190500000Y-78740000D03*
%TO.P,U4,2*%
%TO.N,Net-(C10-Pad1)*%
X182880000Y-76200000D03*
%TO.P,U4,5*%
%TO.N,Net-(C9-Pad2)*%
X190500000Y-81280000D03*
D11*
%TO.P,U4,1*%
%TO.N,Net-(C10-Pad1)*%
X182880000Y-73660000D03*
%TD*%
D12*
%TO.P,U3,8*%
%TO.N,+5V*%
X190500000Y-109220000D03*
%TO.P,U3,4*%
%TO.N,GND*%
X182880000Y-116840000D03*
%TO.P,U3,7*%
%TO.N,Net-(R2-Pad2)*%
X190500000Y-111760000D03*
%TO.P,U3,3*%
%TO.N,Net-(C4-Pad2)*%
X182880000Y-114300000D03*
%TO.P,U3,6*%
%TO.N,Net-(R2-Pad2)*%
X190500000Y-114300000D03*
%TO.P,U3,2*%
%TO.N,Net-(R1-Pad2)*%
X182880000Y-111760000D03*
%TO.P,U3,5*%
%TO.N,Net-(C3-Pad2)*%
X190500000Y-116840000D03*
D11*
%TO.P,U3,1*%
%TO.N,Net-(R1-Pad2)*%
X182880000Y-109220000D03*
%TD*%
D12*
%TO.P,U2,8*%
%TO.N,+5V*%
X132080000Y-111760000D03*
%TO.P,U2,4*%
%TO.N,GND*%
X139700000Y-119380000D03*
%TO.P,U2,7*%
%TO.N,Net-(U2-Pad6)*%
X134620000Y-111760000D03*
%TO.P,U2,3*%
%TO.N,Net-(C2-Pad1)*%
X137160000Y-119380000D03*
%TO.P,U2,6*%
%TO.N,Net-(U2-Pad6)*%
X137160000Y-111760000D03*
%TO.P,U2,2*%
%TO.N,Net-(U2-Pad1)*%
X134620000Y-119380000D03*
%TO.P,U2,5*%
%TO.N,Net-(C5-Pad2)*%
X139700000Y-111760000D03*
D11*
%TO.P,U2,1*%
%TO.N,Net-(U2-Pad1)*%
X132080000Y-119380000D03*
%TD*%
D12*
%TO.P,R8,2*%
%TO.N,Net-(C13-Pad2)*%
X194310000Y-57150000D03*
D10*
%TO.P,R8,1*%
%TO.N,Net-(J6-Pad4)*%
X194310000Y-46990000D03*
%TD*%
D12*
%TO.P,R7,2*%
%TO.N,Net-(C12-Pad2)*%
X189230000Y-57150000D03*
D10*
%TO.P,R7,1*%
%TO.N,Net-(J6-Pad4)*%
X189230000Y-46990000D03*
%TD*%
D12*
%TO.P,R6,2*%
%TO.N,Net-(C11-Pad2)*%
X184150000Y-57150000D03*
D10*
%TO.P,R6,1*%
%TO.N,Net-(J6-Pad3)*%
X184150000Y-46990000D03*
%TD*%
D12*
%TO.P,R5,2*%
%TO.N,Net-(C10-Pad2)*%
X179070000Y-57150000D03*
D10*
%TO.P,R5,1*%
%TO.N,Net-(J6-Pad3)*%
X179070000Y-46990000D03*
%TD*%
D12*
%TO.P,R4,2*%
%TO.N,Net-(C8-Pad2)*%
X195580000Y-95250000D03*
D10*
%TO.P,R4,1*%
%TO.N,Net-(C9-Pad2)*%
X195580000Y-85090000D03*
%TD*%
D12*
%TO.P,R3,2*%
%TO.N,Net-(C6-Pad2)*%
X177800000Y-95250000D03*
D10*
%TO.P,R3,1*%
%TO.N,Net-(C7-Pad2)*%
X177800000Y-85090000D03*
%TD*%
D12*
%TO.P,R2,2*%
%TO.N,Net-(R2-Pad2)*%
X190500000Y-105410000D03*
D10*
%TO.P,R2,1*%
%TO.N,Net-(C8-Pad2)*%
X190500000Y-95250000D03*
%TD*%
D12*
%TO.P,R1,2*%
%TO.N,Net-(R1-Pad2)*%
X182880000Y-105410000D03*
D10*
%TO.P,R1,1*%
%TO.N,Net-(C6-Pad2)*%
X182880000Y-95250000D03*
%TD*%
%TO.P,C9,2*%
%TO.N,Net-(C9-Pad2)*%
X195580000Y-81200000D03*
%TO.P,C9,1*%
%TO.N,GND*%
X195580000Y-76200000D03*
%TD*%
%TO.P,C8,2*%
%TO.N,Net-(C8-Pad2)*%
X190500000Y-92630000D03*
%TO.P,C8,1*%
%TO.N,Net-(C13-Pad1)*%
X190500000Y-87630000D03*
%TD*%
%TO.P,C7,2*%
%TO.N,Net-(C7-Pad2)*%
X177800000Y-81200000D03*
%TO.P,C7,1*%
%TO.N,GND*%
X177800000Y-76200000D03*
%TD*%
%TO.P,C6,2*%
%TO.N,Net-(C6-Pad2)*%
X182880000Y-92630000D03*
%TO.P,C6,1*%
%TO.N,Net-(C10-Pad1)*%
X182880000Y-87630000D03*
%TD*%
%TO.P,C5,2*%
%TO.N,Net-(C5-Pad2)*%
X149780000Y-114300000D03*
%TO.P,C5,1*%
%TO.N,GND*%
X144780000Y-114300000D03*
%TD*%
%TO.P,C4,2*%
%TO.N,Net-(C4-Pad2)*%
X177800000Y-111840000D03*
%TO.P,C4,1*%
%TO.N,GND*%
X177800000Y-116840000D03*
%TD*%
%TO.P,C3,2*%
%TO.N,Net-(C3-Pad2)*%
X195580000Y-111840000D03*
%TO.P,C3,1*%
%TO.N,GND*%
X195580000Y-116840000D03*
%TD*%
D12*
%TO.P,YM3016,16*%
%TO.N,Net-(C2-Pad1)*%
X132080000Y-100330000D03*
%TO.P,YM3016,8*%
%TO.N,Net-(YM2608-Pad29)*%
X149860000Y-107950000D03*
%TO.P,YM3016,15*%
%TO.N,Net-(U2-Pad1)*%
X134620000Y-100330000D03*
%TO.P,YM3016,7*%
%TO.N,Net-(YM2608-Pad30)*%
X147320000Y-107950000D03*
%TO.P,YM3016,14*%
%TO.N,Net-(U2-Pad1)*%
X137160000Y-100330000D03*
%TO.P,YM3016,6*%
%TO.N,+5V*%
X144780000Y-107950000D03*
%TO.P,YM3016,13*%
%TO.N,Net-(C5-Pad2)*%
X139700000Y-100330000D03*
%TO.P,YM3016,5*%
%TO.N,Net-(YM2608-Pad64)*%
X142240000Y-107950000D03*
%TO.P,YM3016,12*%
%TO.N,Net-(U2-Pad6)*%
X142240000Y-100330000D03*
%TO.P,YM3016,4*%
%TO.N,Net-(YM2608-Pad31)*%
X139700000Y-107950000D03*
%TO.P,YM3016,11*%
%TO.N,Net-(C4-Pad2)*%
X144780000Y-100330000D03*
%TO.P,YM3016,3*%
%TO.N,+5V*%
X137160000Y-107950000D03*
%TO.P,YM3016,10*%
%TO.N,Net-(C3-Pad2)*%
X147320000Y-100330000D03*
%TO.P,YM3016,2*%
%TO.N,GND*%
X134620000Y-107950000D03*
%TO.P,YM3016,9*%
%TO.N,+5V*%
X149860000Y-100330000D03*
D11*
%TO.P,YM3016,1*%
X132080000Y-107950000D03*
%TD*%
D10*
%TO.P,C1,2*%
%TO.N,Net-(C1-Pad2)*%
X162480000Y-87630000D03*
%TO.P,C1,1*%
%TO.N,GND*%
X157480000Y-87630000D03*
%TD*%
D12*
%TO.P,U1,16*%
%TO.N,+5V*%
X165100000Y-41910000D03*
%TO.P,U1,8*%
%TO.N,GND*%
X157480000Y-59690000D03*
%TO.P,U1,15*%
%TO.N,Net-(J3-Pad5)*%
X165100000Y-44450000D03*
%TO.P,U1,7*%
%TO.N,N/C*%
X157480000Y-57150000D03*
%TO.P,U1,14*%
%TO.N,Net-(J3-Pad7)*%
X165100000Y-46990000D03*
%TO.P,U1,6*%
%TO.N,N/C*%
X157480000Y-54610000D03*
%TO.P,U1,13*%
%TO.N,Net-(J4-Pad8)*%
X165100000Y-49530000D03*
%TO.P,U1,5*%
%TO.N,N/C*%
X157480000Y-52070000D03*
%TO.P,U1,12*%
X165100000Y-52070000D03*
%TO.P,U1,4*%
X157480000Y-49530000D03*
%TO.P,U1,11*%
%TO.N,Net-(U1-Pad11)*%
X165100000Y-54610000D03*
%TO.P,U1,3*%
%TO.N,N/C*%
X157480000Y-46990000D03*
%TO.P,U1,10*%
X165100000Y-57150000D03*
%TO.P,U1,2*%
X157480000Y-44450000D03*
%TO.P,U1,9*%
X165100000Y-59690000D03*
D11*
%TO.P,U1,1*%
X157480000Y-41910000D03*
%TD*%
D10*
%TO.P,X1,4*%
%TO.N,GND*%
X167640000Y-74930000D03*
%TO.P,X1,5*%
%TO.N,Net-(X1-Pad5)*%
X167640000Y-67310000D03*
%TO.P,X1,8*%
%TO.N,+5V*%
X160020000Y-67310000D03*
D11*
%TO.P,X1,1*%
%TO.N,N/C*%
X160020000Y-74930000D03*
%TD*%
D13*
%TO.P,YM2608,32*%
%TO.N,GND*%
X131445000Y-96170000D03*
%TO.P,YM2608,33*%
%TO.N,Net-(C1-Pad2)*%
X150495000Y-96170000D03*
%TO.P,YM2608,31*%
%TO.N,Net-(YM2608-Pad31)*%
X131445000Y-94390000D03*
%TO.P,YM2608,34*%
%TO.N,N/C*%
X150495000Y-94390000D03*
%TO.P,YM2608,30*%
%TO.N,Net-(YM2608-Pad30)*%
X131445000Y-92610000D03*
%TO.P,YM2608,35*%
%TO.N,+5V*%
X150495000Y-92610000D03*
%TO.P,YM2608,29*%
%TO.N,Net-(YM2608-Pad29)*%
X131445000Y-90830000D03*
%TO.P,YM2608,36*%
%TO.N,N/C*%
X150495000Y-90830000D03*
%TO.P,YM2608,28*%
%TO.N,+5V*%
X131445000Y-89050000D03*
%TO.P,YM2608,37*%
%TO.N,N/C*%
X150495000Y-89050000D03*
%TO.P,YM2608,27*%
%TO.N,Aout_YM2608*%
X131445000Y-87270000D03*
%TO.P,YM2608,38*%
%TO.N,N/C*%
X150495000Y-87270000D03*
%TO.P,YM2608,26*%
%TO.N,GND*%
X131445000Y-85490000D03*
%TO.P,YM2608,39*%
X150495000Y-85490000D03*
%TO.P,YM2608,25*%
%TO.N,N/C*%
X131445000Y-83710000D03*
%TO.P,YM2608,40*%
X150495000Y-83710000D03*
%TO.P,YM2608,24*%
X131445000Y-81930000D03*
%TO.P,YM2608,41*%
X150495000Y-81930000D03*
%TO.P,YM2608,23*%
X131445000Y-80150000D03*
%TO.P,YM2608,42*%
X150495000Y-80150000D03*
%TO.P,YM2608,22*%
X131445000Y-78370000D03*
%TO.P,YM2608,43*%
X150495000Y-78370000D03*
%TO.P,YM2608,21*%
X131445000Y-76590000D03*
%TO.P,YM2608,44*%
X150495000Y-76590000D03*
%TO.P,YM2608,20*%
X131445000Y-74810000D03*
%TO.P,YM2608,45*%
X150495000Y-74810000D03*
%TO.P,YM2608,19*%
X131445000Y-73030000D03*
%TO.P,YM2608,46*%
X150495000Y-73030000D03*
%TO.P,YM2608,18*%
X131445000Y-71250000D03*
%TO.P,YM2608,47*%
X150495000Y-71250000D03*
%TO.P,YM2608,17*%
X131445000Y-69470000D03*
%TO.P,YM2608,48*%
X150495000Y-69470000D03*
%TO.P,YM2608,16*%
X131445000Y-67690000D03*
%TO.P,YM2608,49*%
X150495000Y-67690000D03*
%TO.P,YM2608,15*%
X131445000Y-65910000D03*
%TO.P,YM2608,50*%
X150495000Y-65910000D03*
%TO.P,YM2608,14*%
X131445000Y-64130000D03*
%TO.P,YM2608,51*%
X150495000Y-64130000D03*
%TO.P,YM2608,13*%
X131445000Y-62350000D03*
%TO.P,YM2608,52*%
X150495000Y-62350000D03*
%TO.P,YM2608,12*%
X131445000Y-60570000D03*
%TO.P,YM2608,53*%
X150495000Y-60570000D03*
%TO.P,YM2608,11*%
X131445000Y-58790000D03*
%TO.P,YM2608,54*%
X150495000Y-58790000D03*
%TO.P,YM2608,10*%
X131445000Y-57010000D03*
%TO.P,YM2608,55*%
X150495000Y-57010000D03*
%TO.P,YM2608,9*%
%TO.N,Net-(J4-Pad24)*%
X131445000Y-55230000D03*
%TO.P,YM2608,56*%
%TO.N,N/C*%
X150495000Y-55230000D03*
%TO.P,YM2608,8*%
%TO.N,Net-(J4-Pad23)*%
X131445000Y-53450000D03*
%TO.P,YM2608,57*%
%TO.N,Net-(U1-Pad11)*%
X150495000Y-53450000D03*
%TO.P,YM2608,7*%
%TO.N,Net-(J4-Pad22)*%
X131445000Y-51670000D03*
%TO.P,YM2608,58*%
%TO.N,GND*%
X150495000Y-51670000D03*
%TO.P,YM2608,6*%
%TO.N,Net-(J4-Pad21)*%
X131445000Y-49890000D03*
%TO.P,YM2608,59*%
%TO.N,+5V*%
X150495000Y-49890000D03*
%TO.P,YM2608,5*%
%TO.N,Net-(J4-Pad20)*%
X131445000Y-48110000D03*
%TO.P,YM2608,60*%
%TO.N,Net-(J3-Pad8)*%
X150495000Y-48110000D03*
%TO.P,YM2608,4*%
%TO.N,Net-(J4-Pad19)*%
X131445000Y-46330000D03*
%TO.P,YM2608,61*%
%TO.N,Net-(J4-Pad11)*%
X150495000Y-46330000D03*
%TO.P,YM2608,3*%
%TO.N,Net-(J4-Pad18)*%
X131445000Y-44550000D03*
%TO.P,YM2608,62*%
%TO.N,+5V*%
X150495000Y-44550000D03*
%TO.P,YM2608,2*%
%TO.N,Net-(J4-Pad17)*%
X131445000Y-42770000D03*
%TO.P,YM2608,63*%
%TO.N,Net-(X1-Pad5)*%
X150495000Y-42770000D03*
%TO.P,YM2608,1*%
%TO.N,GND*%
X131445000Y-40990000D03*
%TO.P,YM2608,64*%
%TO.N,Net-(YM2608-Pad64)*%
X150495000Y-40990000D03*
%TD*%
D14*
%TO.P,J6,4*%
%TO.N,Net-(J6-Pad4)*%
X194310000Y-41910000D03*
%TO.P,J6,3*%
%TO.N,Net-(J6-Pad3)*%
X191770000Y-41910000D03*
%TO.P,J6,2*%
%TO.N,N/C*%
X189230000Y-41910000D03*
D15*
%TO.P,J6,1*%
%TO.N,GND*%
X186690000Y-41910000D03*
%TD*%
D14*
%TO.P,J5,4*%
%TO.N,N/C*%
X177800000Y-41910000D03*
%TO.P,J5,3*%
X175260000Y-41910000D03*
%TO.P,J5,2*%
X172720000Y-41910000D03*
D15*
%TO.P,J5,1*%
X170180000Y-41910000D03*
%TD*%
D14*
%TO.P,J4,24*%
%TO.N,Net-(J4-Pad24)*%
X121920000Y-101600000D03*
%TO.P,J4,23*%
%TO.N,Net-(J4-Pad23)*%
X121920000Y-99060000D03*
%TO.P,J4,22*%
%TO.N,Net-(J4-Pad22)*%
X121920000Y-96520000D03*
%TO.P,J4,21*%
%TO.N,Net-(J4-Pad21)*%
X121920000Y-93980000D03*
%TO.P,J4,20*%
%TO.N,Net-(J4-Pad20)*%
X121920000Y-91440000D03*
%TO.P,J4,19*%
%TO.N,Net-(J4-Pad19)*%
X121920000Y-88900000D03*
%TO.P,J4,18*%
%TO.N,Net-(J4-Pad18)*%
X121920000Y-86360000D03*
%TO.P,J4,17*%
%TO.N,Net-(J4-Pad17)*%
X121920000Y-83820000D03*
%TO.P,J4,16*%
%TO.N,N/C*%
X121920000Y-81280000D03*
%TO.P,J4,15*%
X121920000Y-78740000D03*
%TO.P,J4,14*%
%TO.N,Net-(J1-Pad4)*%
X121920000Y-76200000D03*
%TO.P,J4,13*%
%TO.N,N/C*%
X121920000Y-73660000D03*
%TO.P,J4,12*%
%TO.N,Net-(J1-Pad2)*%
X121920000Y-71120000D03*
%TO.P,J4,11*%
%TO.N,Net-(J4-Pad11)*%
X121920000Y-68580000D03*
%TO.P,J4,10*%
%TO.N,N/C*%
X121920000Y-66040000D03*
%TO.P,J4,9*%
X121920000Y-63500000D03*
%TO.P,J4,8*%
%TO.N,Net-(J4-Pad8)*%
X121920000Y-60960000D03*
%TO.P,J4,7*%
%TO.N,N/C*%
X121920000Y-58420000D03*
%TO.P,J4,6*%
%TO.N,Net-(J1-Pad3)*%
X121920000Y-55880000D03*
%TO.P,J4,5*%
%TO.N,N/C*%
X121920000Y-53340000D03*
%TO.P,J4,4*%
X121920000Y-50800000D03*
%TO.P,J4,3*%
X121920000Y-48260000D03*
%TO.P,J4,2*%
%TO.N,GND*%
X121920000Y-45720000D03*
D15*
%TO.P,J4,1*%
%TO.N,+5V*%
X121920000Y-43180000D03*
%TD*%
D14*
%TO.P,J3,24*%
%TO.N,N/C*%
X114230000Y-101560000D03*
%TO.P,J3,23*%
X114230000Y-99020000D03*
%TO.P,J3,22*%
X114230000Y-96480000D03*
%TO.P,J3,21*%
X114230000Y-93940000D03*
%TO.P,J3,20*%
X114230000Y-91400000D03*
%TO.P,J3,19*%
%TO.N,Net-(J2-Pad4)*%
X114230000Y-88860000D03*
%TO.P,J3,18*%
%TO.N,N/C*%
X114230000Y-86320000D03*
%TO.P,J3,17*%
X114230000Y-83780000D03*
%TO.P,J3,16*%
X114230000Y-81240000D03*
%TO.P,J3,15*%
X114230000Y-78700000D03*
%TO.P,J3,14*%
%TO.N,Net-(J1-Pad4)*%
X114230000Y-76160000D03*
%TO.P,J3,13*%
%TO.N,N/C*%
X114230000Y-73620000D03*
%TO.P,J3,12*%
X114230000Y-71080000D03*
%TO.P,J3,11*%
%TO.N,Net-(J2-Pad2)*%
X114230000Y-68540000D03*
%TO.P,J3,10*%
%TO.N,N/C*%
X114230000Y-66000000D03*
%TO.P,J3,9*%
X114230000Y-63460000D03*
%TO.P,J3,8*%
%TO.N,Net-(J3-Pad8)*%
X114230000Y-60920000D03*
%TO.P,J3,7*%
%TO.N,Net-(J3-Pad7)*%
X114230000Y-58380000D03*
%TO.P,J3,6*%
%TO.N,N/C*%
X114230000Y-55840000D03*
%TO.P,J3,5*%
%TO.N,Net-(J3-Pad5)*%
X114230000Y-53300000D03*
%TO.P,J3,4*%
%TO.N,N/C*%
X114230000Y-50760000D03*
%TO.P,J3,3*%
X114230000Y-48220000D03*
%TO.P,J3,2*%
%TO.N,GND*%
X114230000Y-45680000D03*
D15*
%TO.P,J3,1*%
%TO.N,+5V*%
X114230000Y-43140000D03*
%TD*%
D14*
%TO.P,J2,7*%
%TO.N,GND*%
X105410000Y-101600000D03*
%TO.P,J2,6*%
%TO.N,N/C*%
X105410000Y-99060000D03*
%TO.P,J2,5*%
X105410000Y-96520000D03*
%TO.P,J2,4*%
%TO.N,Net-(J2-Pad4)*%
X105410000Y-93980000D03*
%TO.P,J2,3*%
%TO.N,Net-(J1-Pad3)*%
X105410000Y-91440000D03*
%TO.P,J2,2*%
%TO.N,Net-(J2-Pad2)*%
X105410000Y-88900000D03*
D15*
%TO.P,J2,1*%
%TO.N,+5V*%
X105410000Y-86360000D03*
%TD*%
D14*
%TO.P,J1,7*%
%TO.N,GND*%
X105410000Y-77470000D03*
%TO.P,J1,6*%
%TO.N,N/C*%
X105410000Y-74930000D03*
%TO.P,J1,5*%
X105410000Y-72390000D03*
%TO.P,J1,4*%
%TO.N,Net-(J1-Pad4)*%
X105410000Y-69850000D03*
%TO.P,J1,3*%
%TO.N,Net-(J1-Pad3)*%
X105410000Y-67310000D03*
%TO.P,J1,2*%
%TO.N,Net-(J1-Pad2)*%
X105410000Y-64770000D03*
D15*
%TO.P,J1,1*%
%TO.N,+5V*%
X105410000Y-62230000D03*
%TD*%
D12*
%TO.P,D1,2*%
%TO.N,Net-(C1-Pad2)*%
X163830000Y-92710000D03*
D11*
%TO.P,D1,1*%
%TO.N,+5V*%
X156210000Y-92710000D03*
%TD*%
D16*
%TO.N,Net-(J3-Pad7)*%
X115530400Y-62124500D03*
%TO.N,Net-(J4-Pad11)*%
X143759000Y-45924500D03*
%TD*%
D17*
%TO.N,Net-(C1-Pad2)*%
X163830000Y-92710000D02*
X163830000Y-91410000D01*
X163830000Y-91410000D02*
X162480000Y-90060000D01*
X162480000Y-90060000D02*
X162480000Y-87630000D01*
%TO.N,Net-(U1-Pad11)*%
X165100000Y-54610000D02*
X163800000Y-54610000D01*
X150495000Y-53450000D02*
X151995000Y-53450000D01*
X151995000Y-53450000D02*
X152104900Y-53340100D01*
X152104900Y-53340100D02*
X162530100Y-53340100D01*
X162530100Y-53340100D02*
X163800000Y-54610000D01*
%TO.N,Net-(J1-Pad4)*%
X105410000Y-69850000D02*
X106760000Y-69850000D01*
X114230000Y-76160000D02*
X112880000Y-76160000D01*
X106760000Y-69850000D02*
X106760000Y-70040000D01*
X106760000Y-70040000D02*
X112880000Y-76160000D01*
X121920000Y-76200000D02*
X120570000Y-76200000D01*
X114230000Y-76160000D02*
X120530000Y-76160000D01*
X120530000Y-76160000D02*
X120570000Y-76200000D01*
%TO.N,Net-(J2-Pad4)*%
X105410000Y-93980000D02*
X106760000Y-93980000D01*
X106760000Y-93980000D02*
X111880000Y-88860000D01*
X111880000Y-88860000D02*
X114230000Y-88860000D01*
%TO.N,Net-(J6-Pad3)*%
X179070000Y-46990000D02*
X184150000Y-46990000D01*
X191770000Y-41910000D02*
X186690000Y-46990000D01*
X186690000Y-46990000D02*
X184150000Y-46990000D01*
%TO.N,+5V*%
X123270000Y-43180000D02*
X126544700Y-39905300D01*
X126544700Y-39905300D02*
X144350300Y-39905300D01*
X144350300Y-39905300D02*
X148995000Y-44550000D01*
X165100000Y-41910000D02*
X163800000Y-41910000D01*
X163800000Y-41910000D02*
X162549600Y-43160400D01*
X162549600Y-43160400D02*
X154618400Y-43160400D01*
X154618400Y-43160400D02*
X153228800Y-44550000D01*
X153228800Y-44550000D02*
X150495000Y-44550000D01*
X180310000Y-100330000D02*
X189200000Y-109220000D01*
X149860000Y-100330000D02*
X180310000Y-100330000D01*
X190500000Y-73660000D02*
X186690100Y-77469900D01*
X186690100Y-77469900D02*
X186690100Y-93949900D01*
X186690100Y-93949900D02*
X180310000Y-100330000D01*
X190500000Y-109220000D02*
X189200000Y-109220000D01*
X156210000Y-92710000D02*
X156210000Y-91410000D01*
X160020000Y-67310000D02*
X158769700Y-68560300D01*
X158769700Y-68560300D02*
X158769700Y-88850300D01*
X158769700Y-88850300D02*
X156210000Y-91410000D01*
X150495000Y-44550000D02*
X148995000Y-44550000D01*
X121920000Y-43180000D02*
X120570000Y-43180000D01*
X114230000Y-43140000D02*
X120530000Y-43140000D01*
X120530000Y-43140000D02*
X120570000Y-43180000D01*
X121920000Y-43180000D02*
X123270000Y-43180000D01*
X144780000Y-107950000D02*
X143519800Y-109210200D01*
X143519800Y-109210200D02*
X138420200Y-109210200D01*
X138420200Y-109210200D02*
X137160000Y-107950000D01*
%TO.N,GND*%
X131445000Y-85490000D02*
X129945000Y-85490000D01*
X129945000Y-96170000D02*
X129945000Y-85490000D01*
X129945000Y-102625000D02*
X129945000Y-96170000D01*
X105410000Y-77470000D02*
X105410000Y-78820000D01*
X105410000Y-78820000D02*
X104100400Y-80129600D01*
X104100400Y-80129600D02*
X104100400Y-100290400D01*
X104100400Y-100290400D02*
X105410000Y-101600000D01*
X182880000Y-81280000D02*
X181580000Y-81280000D01*
X177800000Y-76200000D02*
X181580000Y-79980000D01*
X181580000Y-79980000D02*
X181580000Y-81280000D01*
X129945000Y-102625000D02*
X129620000Y-102950000D01*
X129620000Y-102950000D02*
X108110000Y-102950000D01*
X108110000Y-102950000D02*
X106760000Y-101600000D01*
X129945000Y-102625000D02*
X133970000Y-106650000D01*
X133970000Y-106650000D02*
X134620000Y-106650000D01*
X134620000Y-107950000D02*
X134620000Y-106650000D01*
X131445000Y-96170000D02*
X129945000Y-96170000D01*
X105410000Y-101600000D02*
X106760000Y-101600000D01*
X131445000Y-40990000D02*
X132945000Y-40990000D01*
X123270000Y-45720000D02*
X128000000Y-40990000D01*
X128000000Y-40990000D02*
X131445000Y-40990000D01*
X177800000Y-116840000D02*
X149820000Y-116840000D01*
X149820000Y-116840000D02*
X147280000Y-119380000D01*
X182880000Y-116840000D02*
X177800000Y-116840000D01*
X182880000Y-116840000D02*
X184180000Y-116840000D01*
X195580000Y-116840000D02*
X194310100Y-115570100D01*
X194310100Y-115570100D02*
X185449900Y-115570100D01*
X185449900Y-115570100D02*
X184180000Y-116840000D01*
X131445000Y-85490000D02*
X150495000Y-85490000D01*
X150495000Y-85490000D02*
X155340000Y-85490000D01*
X155340000Y-85490000D02*
X157480000Y-87630000D01*
X132945000Y-40990000D02*
X143625000Y-51670000D01*
X143625000Y-51670000D02*
X150495000Y-51670000D01*
X121920000Y-45720000D02*
X123270000Y-45720000D01*
X121321900Y-45720000D02*
X121920000Y-45720000D01*
X121321900Y-45720000D02*
X120570000Y-45720000D01*
X114230000Y-45680000D02*
X120530000Y-45680000D01*
X120530000Y-45680000D02*
X120570000Y-45720000D01*
%TO.N,Net-(YM2608-Pad31)*%
X139700000Y-107950000D02*
X139700000Y-106650000D01*
X131445000Y-94390000D02*
X132945000Y-94390000D01*
X132945000Y-94390000D02*
X135890000Y-97335000D01*
X135890000Y-97335000D02*
X135890000Y-102840000D01*
X135890000Y-102840000D02*
X139700000Y-106650000D01*
%TO.N,Net-(YM2608-Pad30)*%
X131445000Y-92610000D02*
X132945000Y-92610000D01*
X132945000Y-92610000D02*
X138430000Y-98095000D01*
X138430000Y-98095000D02*
X138430000Y-100830800D01*
X138430000Y-100830800D02*
X143729200Y-106130000D01*
X143729200Y-106130000D02*
X145500000Y-106130000D01*
X145500000Y-106130000D02*
X147320000Y-107950000D01*
%TO.N,Net-(YM2608-Pad29)*%
X131445000Y-90830000D02*
X132945000Y-90830000D01*
X132945000Y-90830000D02*
X140970000Y-98855000D01*
X140970000Y-98855000D02*
X140970000Y-100836400D01*
X140970000Y-100836400D02*
X143003600Y-102870000D01*
X143003600Y-102870000D02*
X144780000Y-102870000D01*
X144780000Y-102870000D02*
X149860000Y-107950000D01*
%TO.N,Net-(J4-Pad19)*%
X131445000Y-46330000D02*
X129945000Y-46330000D01*
X121920000Y-88900000D02*
X129945000Y-80875000D01*
X129945000Y-80875000D02*
X129945000Y-46330000D01*
%TO.N,Net-(U2-Pad6)*%
X137160000Y-111760000D02*
X134620000Y-111760000D01*
%TO.N,Net-(U2-Pad1)*%
X134030000Y-118730000D02*
X133380000Y-119380000D01*
X134620000Y-118730000D02*
X134030000Y-118730000D01*
X134620000Y-100330000D02*
X134620000Y-105399800D01*
X134620000Y-105399800D02*
X135890000Y-106669800D01*
X135890000Y-106669800D02*
X135890000Y-108462300D01*
X135890000Y-108462300D02*
X133350000Y-111002300D01*
X133350000Y-111002300D02*
X133350000Y-118050000D01*
X133350000Y-118050000D02*
X134030000Y-118730000D01*
X132080000Y-119380000D02*
X133380000Y-119380000D01*
X134620000Y-119380000D02*
X134620000Y-118730000D01*
%TO.N,Net-(C2-Pad1)*%
X144780000Y-119380000D02*
X143480000Y-119380000D01*
X137160000Y-119380000D02*
X138460000Y-118080000D01*
X138460000Y-118080000D02*
X142180000Y-118080000D01*
X142180000Y-118080000D02*
X143480000Y-119380000D01*
%TO.N,Net-(C3-Pad2)*%
X147320000Y-100330000D02*
X157480000Y-110490000D01*
X157480000Y-110490000D02*
X194230000Y-110490000D01*
X194230000Y-110490000D02*
X195580000Y-111840000D01*
%TO.N,Net-(C4-Pad2)*%
X177800000Y-111840000D02*
X180260000Y-114300000D01*
X180260000Y-114300000D02*
X182880000Y-114300000D01*
X144780000Y-100330000D02*
X156290000Y-111840000D01*
X156290000Y-111840000D02*
X177800000Y-111840000D01*
%TO.N,Net-(C5-Pad2)*%
X139700000Y-111760000D02*
X147240000Y-111760000D01*
X147240000Y-111760000D02*
X149780000Y-114300000D01*
%TO.N,Net-(C6-Pad2)*%
X182880000Y-95250000D02*
X177800000Y-95250000D01*
%TO.N,Net-(C7-Pad2)*%
X179137600Y-82537600D02*
X183404900Y-82537600D01*
X183404900Y-82537600D02*
X184169600Y-81772900D01*
X184169600Y-81772900D02*
X184169600Y-80029600D01*
X184169600Y-80029600D02*
X182880000Y-78740000D01*
X177800000Y-81200000D02*
X179137600Y-82537600D01*
X179137600Y-82537600D02*
X177800000Y-83875200D01*
X177800000Y-83875200D02*
X177800000Y-85090000D01*
%TO.N,Net-(C8-Pad2)*%
X190500000Y-95250000D02*
X195580000Y-95250000D01*
%TO.N,Net-(C13-Pad1)*%
X190500000Y-76200000D02*
X194310000Y-72390000D01*
X194310000Y-72390000D02*
X194310000Y-68580000D01*
%TO.N,Aout_YM2608*%
X131445000Y-87270000D02*
X138568400Y-87270000D01*
X138568400Y-87270000D02*
X148538700Y-97240300D01*
X148538700Y-97240300D02*
X153990100Y-97240300D01*
X153990100Y-97240300D02*
X160102200Y-91128200D01*
X160102200Y-91128200D02*
X160102200Y-88220700D01*
X160102200Y-88220700D02*
X178472900Y-69850000D01*
X178472900Y-69850000D02*
X180125700Y-69850000D01*
X180125700Y-69850000D02*
X182880000Y-67095700D01*
X182880000Y-67095700D02*
X182880000Y-63500000D01*
X182880000Y-63500000D02*
X189200000Y-63500000D01*
X190500000Y-63500000D02*
X189200000Y-63500000D01*
%TO.N,Net-(J6-Pad4)*%
X189230000Y-46990000D02*
X194310000Y-46990000D01*
%TO.N,Net-(J3-Pad7)*%
X114230000Y-58380000D02*
X115530400Y-59680400D01*
X115530400Y-59680400D02*
X115530400Y-62124500D01*
%TO.N,Net-(J3-Pad5)*%
X114230000Y-53300000D02*
X112929600Y-51999600D01*
X112929600Y-51999600D02*
X112929600Y-42072600D01*
X112929600Y-42072600D02*
X115828500Y-39173700D01*
X115828500Y-39173700D02*
X164147100Y-39173700D01*
X164147100Y-39173700D02*
X166389600Y-41416200D01*
X166389600Y-41416200D02*
X166389600Y-43160400D01*
X166389600Y-43160400D02*
X165100000Y-44450000D01*
%TO.N,Net-(J4-Pad11)*%
X150495000Y-46330000D02*
X148995000Y-46330000D01*
X143759000Y-45924500D02*
X148589500Y-45924500D01*
X148589500Y-45924500D02*
X148995000Y-46330000D01*
%TD*%
M02*
