M48
INCH,TZ
T1C0.0157
T2C0.0315
T3C0.0394
%
G90
G05
T1
X45484Y-24458
X56598Y-18081
T2
X77000Y-30000
X77000Y-31969
X70000Y-30000
X70000Y-31969
X75000Y-24016
X75000Y-25000
X72000Y-43000
X72000Y-44000
X72000Y-45000
X72000Y-46000
X75000Y-43000
X75000Y-44000
X75000Y-45000
X75000Y-46000
X70500Y-18500
X70500Y-22500
X62000Y-34500
X63969Y-34500
X72000Y-34500
X72000Y-36469
X77000Y-44031
X77000Y-46000
X57000Y-47000
X57984Y-47000
X75000Y-37500
X75000Y-41500
X70000Y-33500
X70000Y-37500
X76500Y-26016
X76500Y-27000
X72000Y-29000
X72000Y-30000
X72000Y-31000
X72000Y-32000
X75000Y-29000
X75000Y-30000
X75000Y-31000
X75000Y-32000
X77000Y-33500
X77000Y-37500
X61500Y-36500
X64500Y-36500
X63000Y-26500
X63000Y-29500
X66000Y-26500
X66000Y-29500
X70500Y-26016
X70500Y-27000
X74500Y-18500
X74500Y-22500
X75000Y-34500
X75000Y-36469
X51750Y-16138
X51750Y-16839
X51750Y-17539
X51750Y-18240
X51750Y-18941
X51750Y-19642
X51750Y-20343
X51750Y-21043
X51750Y-21744
X51750Y-22445
X51750Y-23146
X51750Y-23846
X51750Y-24547
X51750Y-25248
X51750Y-25949
X51750Y-26650
X51750Y-27350
X51750Y-28051
X51750Y-28752
X51750Y-29453
X51750Y-30154
X51750Y-30854
X51750Y-31555
X51750Y-32256
X51750Y-32957
X51750Y-33657
X51750Y-34358
X51750Y-35059
X51750Y-35760
X51750Y-36461
X51750Y-37161
X51750Y-37862
X59250Y-16138
X59250Y-16839
X59250Y-17539
X59250Y-18240
X59250Y-18941
X59250Y-19642
X59250Y-20343
X59250Y-21043
X59250Y-21744
X59250Y-22445
X59250Y-23146
X59250Y-23846
X59250Y-24547
X59250Y-25248
X59250Y-25949
X59250Y-26650
X59250Y-27350
X59250Y-28051
X59250Y-28752
X59250Y-29453
X59250Y-30154
X59250Y-30854
X59250Y-31555
X59250Y-32256
X59250Y-32957
X59250Y-33657
X59250Y-34358
X59250Y-35059
X59250Y-35760
X59250Y-36461
X59250Y-37161
X59250Y-37862
X72500Y-18500
X72500Y-22500
X76500Y-18500
X76500Y-22500
X57000Y-45000
X58969Y-45000
X62000Y-16500
X62000Y-17500
X62000Y-18500
X62000Y-19500
X62000Y-20500
X62000Y-21500
X62000Y-22500
X62000Y-23500
X65000Y-16500
X65000Y-17500
X65000Y-18500
X65000Y-19500
X65000Y-20500
X65000Y-21500
X65000Y-22500
X65000Y-23500
X72000Y-24016
X72000Y-25000
X70000Y-44031
X70000Y-46000
X72000Y-37500
X72000Y-41500
X52000Y-39500
X52000Y-42500
X53000Y-39500
X53000Y-42500
X54000Y-39500
X54000Y-42500
X55000Y-39500
X55000Y-42500
X56000Y-39500
X56000Y-42500
X57000Y-39500
X57000Y-42500
X58000Y-39500
X58000Y-42500
X59000Y-39500
X59000Y-42500
X52000Y-44000
X52000Y-47000
X53000Y-44000
X53000Y-47000
X54000Y-44000
X54000Y-47000
X55000Y-44000
X55000Y-47000
T3
X44972Y-16984
X44972Y-17984
X44972Y-18984
X44972Y-19984
X44972Y-20984
X44972Y-21984
X44972Y-22984
X44972Y-23984
X44972Y-24984
X44972Y-25984
X44972Y-26984
X44972Y-27984
X44972Y-28984
X44972Y-29984
X44972Y-30984
X44972Y-31984
X44972Y-32984
X44972Y-33984
X44972Y-34984
X44972Y-35984
X44972Y-36984
X44972Y-37984
X44972Y-38984
X44972Y-39984
X73500Y-16500
X74500Y-16500
X75500Y-16500
X76500Y-16500
X41500Y-34000
X41500Y-35000
X41500Y-36000
X41500Y-37000
X41500Y-38000
X41500Y-39000
X41500Y-40000
X41500Y-24500
X41500Y-25500
X41500Y-26500
X41500Y-27500
X41500Y-28500
X41500Y-29500
X41500Y-30500
X67000Y-16500
X68000Y-16500
X69000Y-16500
X70000Y-16500
X48000Y-17000
X48000Y-18000
X48000Y-19000
X48000Y-20000
X48000Y-21000
X48000Y-22000
X48000Y-23000
X48000Y-24000
X48000Y-25000
X48000Y-26000
X48000Y-27000
X48000Y-28000
X48000Y-29000
X48000Y-30000
X48000Y-31000
X48000Y-32000
X48000Y-33000
X48000Y-34000
X48000Y-35000
X48000Y-36000
X48000Y-37000
X48000Y-38000
X48000Y-39000
X48000Y-40000
T0
M30
