%FSLAX45Y45*%
G04 Gerber Fmt 4.5, Leading zero omitted, Abs format (unit mm)*
G04 Created by KiCad (PCBNEW (5.1.6)-1) date 2020-10-04 22:02:04*
%MOMM*%
%LPD*%
G01*
G04 APERTURE LIST*
%TA.AperFunction,Profile*%
%ADD10C,0.050000*%
%TD*%
%ADD11C,0.200000*%
%ADD12C,0.300000*%
G04 APERTURE END LIST*
D10*
X19939000Y-3683000D02*
X10033000Y-3683000D01*
X19939000Y-12573000D02*
X19939000Y-3683000D01*
X10033000Y-12573000D02*
X19939000Y-12573000D01*
X10033000Y-3683000D02*
X10033000Y-12573000D01*
D11*
D12*
X10316928Y-13041214D02*
X10316928Y-12741214D01*
X10388357Y-12741214D01*
X10431214Y-12755500D01*
X10459786Y-12784071D01*
X10474071Y-12812643D01*
X10488357Y-12869786D01*
X10488357Y-12912643D01*
X10474071Y-12969786D01*
X10459786Y-12998357D01*
X10431214Y-13026929D01*
X10388357Y-13041214D01*
X10316928Y-13041214D01*
X10616928Y-13041214D02*
X10616928Y-12841214D01*
X10616928Y-12898357D02*
X10631214Y-12869786D01*
X10645500Y-12855500D01*
X10674071Y-12841214D01*
X10702643Y-12841214D01*
X10802643Y-13041214D02*
X10802643Y-12841214D01*
X10802643Y-12741214D02*
X10788357Y-12755500D01*
X10802643Y-12769786D01*
X10816928Y-12755500D01*
X10802643Y-12741214D01*
X10802643Y-12769786D01*
X10988357Y-13041214D02*
X10959786Y-13026929D01*
X10945500Y-12998357D01*
X10945500Y-12741214D01*
X11145500Y-13041214D02*
X11116928Y-13026929D01*
X11102643Y-12998357D01*
X11102643Y-12741214D01*
X11488357Y-13041214D02*
X11488357Y-12741214D01*
X11588357Y-12955500D01*
X11688357Y-12741214D01*
X11688357Y-13041214D01*
X11959786Y-13041214D02*
X11959786Y-12884071D01*
X11945500Y-12855500D01*
X11916928Y-12841214D01*
X11859786Y-12841214D01*
X11831214Y-12855500D01*
X11959786Y-13026929D02*
X11931214Y-13041214D01*
X11859786Y-13041214D01*
X11831214Y-13026929D01*
X11816928Y-12998357D01*
X11816928Y-12969786D01*
X11831214Y-12941214D01*
X11859786Y-12926929D01*
X11931214Y-12926929D01*
X11959786Y-12912643D01*
X12102643Y-12841214D02*
X12102643Y-13141214D01*
X12102643Y-12855500D02*
X12131214Y-12841214D01*
X12188357Y-12841214D01*
X12216928Y-12855500D01*
X12231214Y-12869786D01*
X12245500Y-12898357D01*
X12245500Y-12984071D01*
X12231214Y-13012643D01*
X12216928Y-13026929D01*
X12188357Y-13041214D01*
X12131214Y-13041214D01*
X12102643Y-13026929D01*
X12374071Y-13012643D02*
X12388357Y-13026929D01*
X12374071Y-13041214D01*
X12359786Y-13026929D01*
X12374071Y-13012643D01*
X12374071Y-13041214D01*
X12374071Y-12855500D02*
X12388357Y-12869786D01*
X12374071Y-12884071D01*
X12359786Y-12869786D01*
X12374071Y-12855500D01*
X12374071Y-12884071D01*
M02*
