%TF.GenerationSoftware,KiCad,Pcbnew,(5.1.10)-1*%
%TF.CreationDate,2021-05-31T22:30:43+02:00*%
%TF.ProjectId,Nes Sound Expansion,4e657320-536f-4756-9e64-20457870616e,rev?*%
%TF.SameCoordinates,Original*%
%TF.FileFunction,Copper,L2,Bot*%
%TF.FilePolarity,Positive*%
%FSLAX46Y46*%
G04 Gerber Fmt 4.6, Leading zero omitted, Abs format (unit mm)*
G04 Created by KiCad (PCBNEW (5.1.10)-1) date 2021-05-31 22:30:43*
%MOMM*%
%LPD*%
G01*
G04 APERTURE LIST*
%TA.AperFunction,ComponentPad*%
%ADD10O,1.700000X1.700000*%
%TD*%
%TA.AperFunction,ComponentPad*%
%ADD11R,1.700000X1.700000*%
%TD*%
%TA.AperFunction,Conductor*%
%ADD12C,0.500000*%
%TD*%
%TA.AperFunction,Conductor*%
%ADD13C,0.250000*%
%TD*%
G04 APERTURE END LIST*
D10*
%TO.P,J3,24*%
%TO.N,N/C*%
X108839000Y-50546000D03*
%TO.P,J3,23*%
X108839000Y-53086000D03*
%TO.P,J3,22*%
X108839000Y-55626000D03*
%TO.P,J3,21*%
X108839000Y-58166000D03*
%TO.P,J3,20*%
X108839000Y-60706000D03*
%TO.P,J3,19*%
X108839000Y-63246000D03*
%TO.P,J3,18*%
X108839000Y-65786000D03*
%TO.P,J3,17*%
X108839000Y-68326000D03*
%TO.P,J3,16*%
X108839000Y-70866000D03*
%TO.P,J3,15*%
X108839000Y-73406000D03*
%TO.P,J3,14*%
X108839000Y-75946000D03*
%TO.P,J3,13*%
X108839000Y-78486000D03*
%TO.P,J3,12*%
X108839000Y-81026000D03*
%TO.P,J3,11*%
X108839000Y-83566000D03*
%TO.P,J3,10*%
X108839000Y-86106000D03*
%TO.P,J3,9*%
%TO.N,Net-(J3-Pad9)*%
X108839000Y-88646000D03*
%TO.P,J3,8*%
%TO.N,N/C*%
X108839000Y-91186000D03*
%TO.P,J3,7*%
X108839000Y-93726000D03*
%TO.P,J3,6*%
%TO.N,Net-(J3-Pad6)*%
X108839000Y-96266000D03*
%TO.P,J3,5*%
%TO.N,N/C*%
X108839000Y-98806000D03*
%TO.P,J3,4*%
X108839000Y-101346000D03*
%TO.P,J3,3*%
%TO.N,AudIn*%
X108839000Y-103886000D03*
%TO.P,J3,2*%
%TO.N,GND*%
X108839000Y-106426000D03*
D11*
%TO.P,J3,1*%
%TO.N,Net-(J3-Pad1)*%
X108839000Y-108966000D03*
%TD*%
D10*
%TO.P,J4,24*%
%TO.N,N/C*%
X103759000Y-50546000D03*
%TO.P,J4,23*%
X103759000Y-53086000D03*
%TO.P,J4,22*%
X103759000Y-55626000D03*
%TO.P,J4,21*%
X103759000Y-58166000D03*
%TO.P,J4,20*%
X103759000Y-60706000D03*
%TO.P,J4,19*%
X103759000Y-63246000D03*
%TO.P,J4,18*%
X103759000Y-65786000D03*
%TO.P,J4,17*%
X103759000Y-68326000D03*
%TO.P,J4,16*%
X103759000Y-70866000D03*
%TO.P,J4,15*%
X103759000Y-73406000D03*
%TO.P,J4,14*%
X103759000Y-75946000D03*
%TO.P,J4,13*%
X103759000Y-78486000D03*
%TO.P,J4,12*%
X103759000Y-81026000D03*
%TO.P,J4,11*%
X103759000Y-83566000D03*
%TO.P,J4,10*%
X103759000Y-86106000D03*
%TO.P,J4,9*%
%TO.N,Net-(J4-Pad9)*%
X103759000Y-88646000D03*
%TO.P,J4,8*%
%TO.N,N/C*%
X103759000Y-91186000D03*
%TO.P,J4,7*%
X103759000Y-93726000D03*
%TO.P,J4,6*%
X103759000Y-96266000D03*
%TO.P,J4,5*%
X103759000Y-98806000D03*
%TO.P,J4,4*%
X103759000Y-101346000D03*
%TO.P,J4,3*%
X103759000Y-103886000D03*
%TO.P,J4,2*%
%TO.N,GND*%
X103759000Y-106426000D03*
D11*
%TO.P,J4,1*%
%TO.N,Net-(J3-Pad1)*%
X103759000Y-108966000D03*
%TD*%
D12*
%TO.N,GND*%
X108839000Y-106426000D02*
X103759000Y-106426000D01*
D13*
%TO.N,Net-(J3-Pad1)*%
X108839000Y-108966000D02*
X103759000Y-108966000D01*
%TD*%
M02*
