%TF.GenerationSoftware,KiCad,Pcbnew,(5.1.10)-1*%
%TF.CreationDate,2021-06-12T16:41:28+02:00*%
%TF.ProjectId,Nes Sound Expansion,4e657320-536f-4756-9e64-20457870616e,rev?*%
%TF.SameCoordinates,Original*%
%TF.FileFunction,Paste,Top*%
%TF.FilePolarity,Positive*%
%FSLAX46Y46*%
G04 Gerber Fmt 4.6, Leading zero omitted, Abs format (unit mm)*
G04 Created by KiCad (PCBNEW (5.1.10)-1) date 2021-06-12 16:41:28*
%MOMM*%
%LPD*%
G01*
G04 APERTURE LIST*
G04 APERTURE END LIST*
%TO.C,R2*%
G36*
G01*
X113914500Y-92906002D02*
X113914500Y-92005998D01*
G75*
G02*
X114164498Y-91756000I249998J0D01*
G01*
X114689502Y-91756000D01*
G75*
G02*
X114939500Y-92005998I0J-249998D01*
G01*
X114939500Y-92906002D01*
G75*
G02*
X114689502Y-93156000I-249998J0D01*
G01*
X114164498Y-93156000D01*
G75*
G02*
X113914500Y-92906002I0J249998D01*
G01*
G37*
G36*
G01*
X112089500Y-92906002D02*
X112089500Y-92005998D01*
G75*
G02*
X112339498Y-91756000I249998J0D01*
G01*
X112864502Y-91756000D01*
G75*
G02*
X113114500Y-92005998I0J-249998D01*
G01*
X113114500Y-92906002D01*
G75*
G02*
X112864502Y-93156000I-249998J0D01*
G01*
X112339498Y-93156000D01*
G75*
G02*
X112089500Y-92906002I0J249998D01*
G01*
G37*
%TD*%
%TO.C,R3*%
G36*
G01*
X113914500Y-96716002D02*
X113914500Y-95815998D01*
G75*
G02*
X114164498Y-95566000I249998J0D01*
G01*
X114689502Y-95566000D01*
G75*
G02*
X114939500Y-95815998I0J-249998D01*
G01*
X114939500Y-96716002D01*
G75*
G02*
X114689502Y-96966000I-249998J0D01*
G01*
X114164498Y-96966000D01*
G75*
G02*
X113914500Y-96716002I0J249998D01*
G01*
G37*
G36*
G01*
X112089500Y-96716002D02*
X112089500Y-95815998D01*
G75*
G02*
X112339498Y-95566000I249998J0D01*
G01*
X112864502Y-95566000D01*
G75*
G02*
X113114500Y-95815998I0J-249998D01*
G01*
X113114500Y-96716002D01*
G75*
G02*
X112864502Y-96966000I-249998J0D01*
G01*
X112339498Y-96966000D01*
G75*
G02*
X112089500Y-96716002I0J249998D01*
G01*
G37*
%TD*%
%TO.C,R1*%
G36*
G01*
X113914500Y-89096002D02*
X113914500Y-88195998D01*
G75*
G02*
X114164498Y-87946000I249998J0D01*
G01*
X114689502Y-87946000D01*
G75*
G02*
X114939500Y-88195998I0J-249998D01*
G01*
X114939500Y-89096002D01*
G75*
G02*
X114689502Y-89346000I-249998J0D01*
G01*
X114164498Y-89346000D01*
G75*
G02*
X113914500Y-89096002I0J249998D01*
G01*
G37*
G36*
G01*
X112089500Y-89096002D02*
X112089500Y-88195998D01*
G75*
G02*
X112339498Y-87946000I249998J0D01*
G01*
X112864502Y-87946000D01*
G75*
G02*
X113114500Y-88195998I0J-249998D01*
G01*
X113114500Y-89096002D01*
G75*
G02*
X112864502Y-89346000I-249998J0D01*
G01*
X112339498Y-89346000D01*
G75*
G02*
X112089500Y-89096002I0J249998D01*
G01*
G37*
%TD*%
M02*
