%TF.GenerationSoftware,KiCad,Pcbnew,(5.1.10)-1*%
%TF.CreationDate,2021-06-12T16:41:28+02:00*%
%TF.ProjectId,Nes Sound Expansion,4e657320-536f-4756-9e64-20457870616e,rev?*%
%TF.SameCoordinates,Original*%
%TF.FileFunction,Soldermask,Bot*%
%TF.FilePolarity,Negative*%
%FSLAX46Y46*%
G04 Gerber Fmt 4.6, Leading zero omitted, Abs format (unit mm)*
G04 Created by KiCad (PCBNEW (5.1.10)-1) date 2021-06-12 16:41:28*
%MOMM*%
%LPD*%
G01*
G04 APERTURE LIST*
%ADD10O,1.700000X1.700000*%
%ADD11R,1.700000X1.700000*%
G04 APERTURE END LIST*
D10*
%TO.C,J3*%
X108966000Y-50546000D03*
X108966000Y-53086000D03*
X108966000Y-55626000D03*
X108966000Y-58166000D03*
X108966000Y-60706000D03*
X108966000Y-63246000D03*
X108966000Y-65786000D03*
X108966000Y-68326000D03*
X108966000Y-70866000D03*
X108966000Y-73406000D03*
X108966000Y-75946000D03*
X108966000Y-78486000D03*
X108966000Y-81026000D03*
X108966000Y-83566000D03*
X108966000Y-86106000D03*
X108966000Y-88646000D03*
X108966000Y-91186000D03*
X108966000Y-93726000D03*
X108966000Y-96266000D03*
X108966000Y-98806000D03*
X108966000Y-101346000D03*
X108966000Y-103886000D03*
X108966000Y-106426000D03*
D11*
X108966000Y-108966000D03*
%TD*%
D10*
%TO.C,J4*%
X103632000Y-50546000D03*
X103632000Y-53086000D03*
X103632000Y-55626000D03*
X103632000Y-58166000D03*
X103632000Y-60706000D03*
X103632000Y-63246000D03*
X103632000Y-65786000D03*
X103632000Y-68326000D03*
X103632000Y-70866000D03*
X103632000Y-73406000D03*
X103632000Y-75946000D03*
X103632000Y-78486000D03*
X103632000Y-81026000D03*
X103632000Y-83566000D03*
X103632000Y-86106000D03*
X103632000Y-88646000D03*
X103632000Y-91186000D03*
X103632000Y-93726000D03*
X103632000Y-96266000D03*
X103632000Y-98806000D03*
X103632000Y-101346000D03*
X103632000Y-103886000D03*
X103632000Y-106426000D03*
D11*
X103632000Y-108966000D03*
%TD*%
M02*
