%TF.GenerationSoftware,KiCad,Pcbnew,(5.1.10)-1*%
%TF.CreationDate,2021-06-12T16:41:28+02:00*%
%TF.ProjectId,Nes Sound Expansion,4e657320-536f-4756-9e64-20457870616e,rev?*%
%TF.SameCoordinates,Original*%
%TF.FileFunction,Copper,L1,Top*%
%TF.FilePolarity,Positive*%
%FSLAX46Y46*%
G04 Gerber Fmt 4.6, Leading zero omitted, Abs format (unit mm)*
G04 Created by KiCad (PCBNEW (5.1.10)-1) date 2021-06-12 16:41:28*
%MOMM*%
%LPD*%
G01*
G04 APERTURE LIST*
%TA.AperFunction,ComponentPad*%
%ADD10O,1.700000X1.700000*%
%TD*%
%TA.AperFunction,ComponentPad*%
%ADD11R,1.700000X1.700000*%
%TD*%
%TA.AperFunction,Conductor*%
%ADD12C,0.250000*%
%TD*%
G04 APERTURE END LIST*
%TO.P,R2,2*%
%TO.N,AudIn*%
%TA.AperFunction,SMDPad,CuDef*%
G36*
G01*
X113914500Y-92906002D02*
X113914500Y-92005998D01*
G75*
G02*
X114164498Y-91756000I249998J0D01*
G01*
X114689502Y-91756000D01*
G75*
G02*
X114939500Y-92005998I0J-249998D01*
G01*
X114939500Y-92906002D01*
G75*
G02*
X114689502Y-93156000I-249998J0D01*
G01*
X114164498Y-93156000D01*
G75*
G02*
X113914500Y-92906002I0J249998D01*
G01*
G37*
%TD.AperFunction*%
%TO.P,R2,1*%
%TO.N,Net-(J4-Pad9)*%
%TA.AperFunction,SMDPad,CuDef*%
G36*
G01*
X112089500Y-92906002D02*
X112089500Y-92005998D01*
G75*
G02*
X112339498Y-91756000I249998J0D01*
G01*
X112864502Y-91756000D01*
G75*
G02*
X113114500Y-92005998I0J-249998D01*
G01*
X113114500Y-92906002D01*
G75*
G02*
X112864502Y-93156000I-249998J0D01*
G01*
X112339498Y-93156000D01*
G75*
G02*
X112089500Y-92906002I0J249998D01*
G01*
G37*
%TD.AperFunction*%
%TD*%
%TO.P,R3,2*%
%TO.N,AudIn*%
%TA.AperFunction,SMDPad,CuDef*%
G36*
G01*
X113914500Y-96716002D02*
X113914500Y-95815998D01*
G75*
G02*
X114164498Y-95566000I249998J0D01*
G01*
X114689502Y-95566000D01*
G75*
G02*
X114939500Y-95815998I0J-249998D01*
G01*
X114939500Y-96716002D01*
G75*
G02*
X114689502Y-96966000I-249998J0D01*
G01*
X114164498Y-96966000D01*
G75*
G02*
X113914500Y-96716002I0J249998D01*
G01*
G37*
%TD.AperFunction*%
%TO.P,R3,1*%
%TO.N,Net-(J3-Pad6)*%
%TA.AperFunction,SMDPad,CuDef*%
G36*
G01*
X112089500Y-96716002D02*
X112089500Y-95815998D01*
G75*
G02*
X112339498Y-95566000I249998J0D01*
G01*
X112864502Y-95566000D01*
G75*
G02*
X113114500Y-95815998I0J-249998D01*
G01*
X113114500Y-96716002D01*
G75*
G02*
X112864502Y-96966000I-249998J0D01*
G01*
X112339498Y-96966000D01*
G75*
G02*
X112089500Y-96716002I0J249998D01*
G01*
G37*
%TD.AperFunction*%
%TD*%
%TO.P,R1,2*%
%TO.N,AudIn*%
%TA.AperFunction,SMDPad,CuDef*%
G36*
G01*
X113914500Y-89096002D02*
X113914500Y-88195998D01*
G75*
G02*
X114164498Y-87946000I249998J0D01*
G01*
X114689502Y-87946000D01*
G75*
G02*
X114939500Y-88195998I0J-249998D01*
G01*
X114939500Y-89096002D01*
G75*
G02*
X114689502Y-89346000I-249998J0D01*
G01*
X114164498Y-89346000D01*
G75*
G02*
X113914500Y-89096002I0J249998D01*
G01*
G37*
%TD.AperFunction*%
%TO.P,R1,1*%
%TO.N,Net-(J3-Pad9)*%
%TA.AperFunction,SMDPad,CuDef*%
G36*
G01*
X112089500Y-89096002D02*
X112089500Y-88195998D01*
G75*
G02*
X112339498Y-87946000I249998J0D01*
G01*
X112864502Y-87946000D01*
G75*
G02*
X113114500Y-88195998I0J-249998D01*
G01*
X113114500Y-89096002D01*
G75*
G02*
X112864502Y-89346000I-249998J0D01*
G01*
X112339498Y-89346000D01*
G75*
G02*
X112089500Y-89096002I0J249998D01*
G01*
G37*
%TD.AperFunction*%
%TD*%
D10*
%TO.P,J3,24*%
%TO.N,N/C*%
X108966000Y-50546000D03*
%TO.P,J3,23*%
X108966000Y-53086000D03*
%TO.P,J3,22*%
X108966000Y-55626000D03*
%TO.P,J3,21*%
X108966000Y-58166000D03*
%TO.P,J3,20*%
X108966000Y-60706000D03*
%TO.P,J3,19*%
X108966000Y-63246000D03*
%TO.P,J3,18*%
X108966000Y-65786000D03*
%TO.P,J3,17*%
X108966000Y-68326000D03*
%TO.P,J3,16*%
X108966000Y-70866000D03*
%TO.P,J3,15*%
X108966000Y-73406000D03*
%TO.P,J3,14*%
X108966000Y-75946000D03*
%TO.P,J3,13*%
X108966000Y-78486000D03*
%TO.P,J3,12*%
X108966000Y-81026000D03*
%TO.P,J3,11*%
X108966000Y-83566000D03*
%TO.P,J3,10*%
X108966000Y-86106000D03*
%TO.P,J3,9*%
%TO.N,Net-(J3-Pad9)*%
X108966000Y-88646000D03*
%TO.P,J3,8*%
%TO.N,N/C*%
X108966000Y-91186000D03*
%TO.P,J3,7*%
X108966000Y-93726000D03*
%TO.P,J3,6*%
%TO.N,Net-(J3-Pad6)*%
X108966000Y-96266000D03*
%TO.P,J3,5*%
%TO.N,N/C*%
X108966000Y-98806000D03*
%TO.P,J3,4*%
X108966000Y-101346000D03*
%TO.P,J3,3*%
%TO.N,AudIn*%
X108966000Y-103886000D03*
%TO.P,J3,2*%
%TO.N,GND*%
X108966000Y-106426000D03*
D11*
%TO.P,J3,1*%
%TO.N,Net-(J3-Pad1)*%
X108966000Y-108966000D03*
%TD*%
D10*
%TO.P,J4,24*%
%TO.N,N/C*%
X103632000Y-50546000D03*
%TO.P,J4,23*%
X103632000Y-53086000D03*
%TO.P,J4,22*%
X103632000Y-55626000D03*
%TO.P,J4,21*%
X103632000Y-58166000D03*
%TO.P,J4,20*%
X103632000Y-60706000D03*
%TO.P,J4,19*%
X103632000Y-63246000D03*
%TO.P,J4,18*%
X103632000Y-65786000D03*
%TO.P,J4,17*%
X103632000Y-68326000D03*
%TO.P,J4,16*%
X103632000Y-70866000D03*
%TO.P,J4,15*%
X103632000Y-73406000D03*
%TO.P,J4,14*%
X103632000Y-75946000D03*
%TO.P,J4,13*%
X103632000Y-78486000D03*
%TO.P,J4,12*%
X103632000Y-81026000D03*
%TO.P,J4,11*%
X103632000Y-83566000D03*
%TO.P,J4,10*%
X103632000Y-86106000D03*
%TO.P,J4,9*%
%TO.N,Net-(J4-Pad9)*%
X103632000Y-88646000D03*
%TO.P,J4,8*%
%TO.N,N/C*%
X103632000Y-91186000D03*
%TO.P,J4,7*%
X103632000Y-93726000D03*
%TO.P,J4,6*%
X103632000Y-96266000D03*
%TO.P,J4,5*%
X103632000Y-98806000D03*
%TO.P,J4,4*%
X103632000Y-101346000D03*
%TO.P,J4,3*%
X103632000Y-103886000D03*
%TO.P,J4,2*%
%TO.N,GND*%
X103632000Y-106426000D03*
D11*
%TO.P,J4,1*%
%TO.N,Net-(J3-Pad1)*%
X103632000Y-108966000D03*
%TD*%
D12*
%TO.N,Net-(J3-Pad9)*%
X112602000Y-88646000D02*
X108839000Y-88646000D01*
%TO.N,Net-(J3-Pad6)*%
X112602000Y-96266000D02*
X108839000Y-96266000D01*
%TO.N,Net-(J4-Pad9)*%
X113745000Y-92329000D02*
X113712999Y-92361001D01*
X107569000Y-92456000D02*
X103759000Y-88646000D01*
X112602000Y-92456000D02*
X107569000Y-92456000D01*
%TO.N,AudIn*%
X114427000Y-96266000D02*
X114427000Y-92329000D01*
X114427000Y-88646000D02*
X114427000Y-92329000D01*
X114427000Y-98298000D02*
X108839000Y-103886000D01*
X114427000Y-96266000D02*
X114427000Y-98298000D01*
%TD*%
M02*
