%TF.GenerationSoftware,KiCad,Pcbnew,(5.1.10)-1*%
%TF.CreationDate,2021-05-31T22:30:43+02:00*%
%TF.ProjectId,Nes Sound Expansion,4e657320-536f-4756-9e64-20457870616e,rev?*%
%TF.SameCoordinates,Original*%
%TF.FileFunction,Soldermask,Bot*%
%TF.FilePolarity,Negative*%
%FSLAX46Y46*%
G04 Gerber Fmt 4.6, Leading zero omitted, Abs format (unit mm)*
G04 Created by KiCad (PCBNEW (5.1.10)-1) date 2021-05-31 22:30:43*
%MOMM*%
%LPD*%
G01*
G04 APERTURE LIST*
%ADD10O,1.700000X1.700000*%
%ADD11R,1.700000X1.700000*%
G04 APERTURE END LIST*
D10*
%TO.C,J3*%
X108839000Y-50546000D03*
X108839000Y-53086000D03*
X108839000Y-55626000D03*
X108839000Y-58166000D03*
X108839000Y-60706000D03*
X108839000Y-63246000D03*
X108839000Y-65786000D03*
X108839000Y-68326000D03*
X108839000Y-70866000D03*
X108839000Y-73406000D03*
X108839000Y-75946000D03*
X108839000Y-78486000D03*
X108839000Y-81026000D03*
X108839000Y-83566000D03*
X108839000Y-86106000D03*
X108839000Y-88646000D03*
X108839000Y-91186000D03*
X108839000Y-93726000D03*
X108839000Y-96266000D03*
X108839000Y-98806000D03*
X108839000Y-101346000D03*
X108839000Y-103886000D03*
X108839000Y-106426000D03*
D11*
X108839000Y-108966000D03*
%TD*%
D10*
%TO.C,J4*%
X103759000Y-50546000D03*
X103759000Y-53086000D03*
X103759000Y-55626000D03*
X103759000Y-58166000D03*
X103759000Y-60706000D03*
X103759000Y-63246000D03*
X103759000Y-65786000D03*
X103759000Y-68326000D03*
X103759000Y-70866000D03*
X103759000Y-73406000D03*
X103759000Y-75946000D03*
X103759000Y-78486000D03*
X103759000Y-81026000D03*
X103759000Y-83566000D03*
X103759000Y-86106000D03*
X103759000Y-88646000D03*
X103759000Y-91186000D03*
X103759000Y-93726000D03*
X103759000Y-96266000D03*
X103759000Y-98806000D03*
X103759000Y-101346000D03*
X103759000Y-103886000D03*
X103759000Y-106426000D03*
D11*
X103759000Y-108966000D03*
%TD*%
M02*
