%TF.GenerationSoftware,KiCad,Pcbnew,(5.1.10)-1*%
%TF.CreationDate,2021-06-12T16:41:28+02:00*%
%TF.ProjectId,Nes Sound Expansion,4e657320-536f-4756-9e64-20457870616e,rev?*%
%TF.SameCoordinates,Original*%
%TF.FileFunction,Legend,Bot*%
%TF.FilePolarity,Positive*%
%FSLAX46Y46*%
G04 Gerber Fmt 4.6, Leading zero omitted, Abs format (unit mm)*
G04 Created by KiCad (PCBNEW (5.1.10)-1) date 2021-06-12 16:41:28*
%MOMM*%
%LPD*%
G01*
G04 APERTURE LIST*
%ADD10C,0.100000*%
%ADD11C,0.300000*%
%ADD12C,0.120000*%
%ADD13C,0.150000*%
G04 APERTURE END LIST*
D10*
X111248714Y-108910285D02*
X111843000Y-108910285D01*
X111545857Y-108613142D02*
X111545857Y-109207428D01*
X112585857Y-109393142D02*
X112214428Y-109393142D01*
X112177285Y-109021714D01*
X112214428Y-109058857D01*
X112288714Y-109096000D01*
X112474428Y-109096000D01*
X112548714Y-109058857D01*
X112585857Y-109021714D01*
X112623000Y-108947428D01*
X112623000Y-108761714D01*
X112585857Y-108687428D01*
X112548714Y-108650285D01*
X112474428Y-108613142D01*
X112288714Y-108613142D01*
X112214428Y-108650285D01*
X112177285Y-108687428D01*
X112845857Y-109393142D02*
X113105857Y-108613142D01*
X113365857Y-109393142D01*
X111657285Y-106816000D02*
X111583000Y-106853142D01*
X111471571Y-106853142D01*
X111360142Y-106816000D01*
X111285857Y-106741714D01*
X111248714Y-106667428D01*
X111211571Y-106518857D01*
X111211571Y-106407428D01*
X111248714Y-106258857D01*
X111285857Y-106184571D01*
X111360142Y-106110285D01*
X111471571Y-106073142D01*
X111545857Y-106073142D01*
X111657285Y-106110285D01*
X111694428Y-106147428D01*
X111694428Y-106407428D01*
X111545857Y-106407428D01*
X112028714Y-106073142D02*
X112028714Y-106853142D01*
X112474428Y-106073142D01*
X112474428Y-106853142D01*
X112845857Y-106073142D02*
X112845857Y-106853142D01*
X113031571Y-106853142D01*
X113143000Y-106816000D01*
X113217285Y-106741714D01*
X113254428Y-106667428D01*
X113291571Y-106518857D01*
X113291571Y-106407428D01*
X113254428Y-106258857D01*
X113217285Y-106184571D01*
X113143000Y-106110285D01*
X113031571Y-106073142D01*
X112845857Y-106073142D01*
X111211571Y-103756000D02*
X111583000Y-103756000D01*
X111137285Y-103533142D02*
X111397285Y-104313142D01*
X111657285Y-103533142D01*
X112251571Y-104053142D02*
X112251571Y-103533142D01*
X111917285Y-104053142D02*
X111917285Y-103644571D01*
X111954428Y-103570285D01*
X112028714Y-103533142D01*
X112140142Y-103533142D01*
X112214428Y-103570285D01*
X112251571Y-103607428D01*
X112957285Y-103533142D02*
X112957285Y-104313142D01*
X112957285Y-103570285D02*
X112883000Y-103533142D01*
X112734428Y-103533142D01*
X112660142Y-103570285D01*
X112623000Y-103607428D01*
X112585857Y-103681714D01*
X112585857Y-103904571D01*
X112623000Y-103978857D01*
X112660142Y-104016000D01*
X112734428Y-104053142D01*
X112883000Y-104053142D01*
X112957285Y-104016000D01*
X113923000Y-103533142D02*
X113923000Y-104313142D01*
X114294428Y-104053142D02*
X114294428Y-103533142D01*
X114294428Y-103978857D02*
X114331571Y-104016000D01*
X114405857Y-104053142D01*
X114517285Y-104053142D01*
X114591571Y-104016000D01*
X114628714Y-103941714D01*
X114628714Y-103533142D01*
X111805857Y-101810285D02*
X111137285Y-100807428D01*
X112065857Y-100993142D02*
X112065857Y-101773142D01*
X112511571Y-100993142D01*
X112511571Y-101773142D01*
X112883000Y-100993142D02*
X112883000Y-101773142D01*
X113143000Y-101216000D01*
X113403000Y-101773142D01*
X113403000Y-100993142D01*
X113774428Y-100993142D02*
X113774428Y-101773142D01*
X111211571Y-98676000D02*
X111583000Y-98676000D01*
X111137285Y-98453142D02*
X111397285Y-99233142D01*
X111657285Y-98453142D01*
X112325857Y-98453142D02*
X111880142Y-98453142D01*
X112103000Y-98453142D02*
X112103000Y-99233142D01*
X112028714Y-99121714D01*
X111954428Y-99047428D01*
X111880142Y-99010285D01*
X113031571Y-99233142D02*
X112660142Y-99233142D01*
X112623000Y-98861714D01*
X112660142Y-98898857D01*
X112734428Y-98936000D01*
X112920142Y-98936000D01*
X112994428Y-98898857D01*
X113031571Y-98861714D01*
X113068714Y-98787428D01*
X113068714Y-98601714D01*
X113031571Y-98527428D01*
X112994428Y-98490285D01*
X112920142Y-98453142D01*
X112734428Y-98453142D01*
X112660142Y-98490285D01*
X112623000Y-98527428D01*
X111248714Y-96321714D02*
X111508714Y-96321714D01*
X111620142Y-95913142D02*
X111248714Y-95913142D01*
X111248714Y-96693142D01*
X111620142Y-96693142D01*
X111880142Y-96693142D02*
X112400142Y-95913142D01*
X112400142Y-96693142D02*
X111880142Y-95913142D01*
X112697285Y-95913142D02*
X112697285Y-96693142D01*
X112994428Y-96693142D01*
X113068714Y-96656000D01*
X113105857Y-96618857D01*
X113143000Y-96544571D01*
X113143000Y-96433142D01*
X113105857Y-96358857D01*
X113068714Y-96321714D01*
X112994428Y-96284571D01*
X112697285Y-96284571D01*
X113514428Y-95913142D02*
X113663000Y-95913142D01*
X113737285Y-95950285D01*
X113774428Y-95987428D01*
X113848714Y-96098857D01*
X113885857Y-96247428D01*
X113885857Y-96544571D01*
X113848714Y-96618857D01*
X113811571Y-96656000D01*
X113737285Y-96693142D01*
X113588714Y-96693142D01*
X113514428Y-96656000D01*
X113477285Y-96618857D01*
X113440142Y-96544571D01*
X113440142Y-96358857D01*
X113477285Y-96284571D01*
X113514428Y-96247428D01*
X113588714Y-96210285D01*
X113737285Y-96210285D01*
X113811571Y-96247428D01*
X113848714Y-96284571D01*
X113885857Y-96358857D01*
X111248714Y-93781714D02*
X111508714Y-93781714D01*
X111620142Y-93373142D02*
X111248714Y-93373142D01*
X111248714Y-94153142D01*
X111620142Y-94153142D01*
X111880142Y-94153142D02*
X112400142Y-93373142D01*
X112400142Y-94153142D02*
X111880142Y-93373142D01*
X112697285Y-93373142D02*
X112697285Y-94153142D01*
X112994428Y-94153142D01*
X113068714Y-94116000D01*
X113105857Y-94078857D01*
X113143000Y-94004571D01*
X113143000Y-93893142D01*
X113105857Y-93818857D01*
X113068714Y-93781714D01*
X112994428Y-93744571D01*
X112697285Y-93744571D01*
X113588714Y-93818857D02*
X113514428Y-93856000D01*
X113477285Y-93893142D01*
X113440142Y-93967428D01*
X113440142Y-94004571D01*
X113477285Y-94078857D01*
X113514428Y-94116000D01*
X113588714Y-94153142D01*
X113737285Y-94153142D01*
X113811571Y-94116000D01*
X113848714Y-94078857D01*
X113885857Y-94004571D01*
X113885857Y-93967428D01*
X113848714Y-93893142D01*
X113811571Y-93856000D01*
X113737285Y-93818857D01*
X113588714Y-93818857D01*
X113514428Y-93781714D01*
X113477285Y-93744571D01*
X113440142Y-93670285D01*
X113440142Y-93521714D01*
X113477285Y-93447428D01*
X113514428Y-93410285D01*
X113588714Y-93373142D01*
X113737285Y-93373142D01*
X113811571Y-93410285D01*
X113848714Y-93447428D01*
X113885857Y-93521714D01*
X113885857Y-93670285D01*
X113848714Y-93744571D01*
X113811571Y-93781714D01*
X113737285Y-93818857D01*
X111248714Y-91241714D02*
X111508714Y-91241714D01*
X111620142Y-90833142D02*
X111248714Y-90833142D01*
X111248714Y-91613142D01*
X111620142Y-91613142D01*
X111880142Y-91613142D02*
X112400142Y-90833142D01*
X112400142Y-91613142D02*
X111880142Y-90833142D01*
X112697285Y-90833142D02*
X112697285Y-91613142D01*
X112994428Y-91613142D01*
X113068714Y-91576000D01*
X113105857Y-91538857D01*
X113143000Y-91464571D01*
X113143000Y-91353142D01*
X113105857Y-91278857D01*
X113068714Y-91241714D01*
X112994428Y-91204571D01*
X112697285Y-91204571D01*
X113403000Y-91613142D02*
X113923000Y-91613142D01*
X113588714Y-90833142D01*
X111248714Y-88701714D02*
X111508714Y-88701714D01*
X111620142Y-88293142D02*
X111248714Y-88293142D01*
X111248714Y-89073142D01*
X111620142Y-89073142D01*
X111880142Y-89073142D02*
X112400142Y-88293142D01*
X112400142Y-89073142D02*
X111880142Y-88293142D01*
X112697285Y-88293142D02*
X112697285Y-89073142D01*
X112994428Y-89073142D01*
X113068714Y-89036000D01*
X113105857Y-88998857D01*
X113143000Y-88924571D01*
X113143000Y-88813142D01*
X113105857Y-88738857D01*
X113068714Y-88701714D01*
X112994428Y-88664571D01*
X112697285Y-88664571D01*
X113811571Y-89073142D02*
X113663000Y-89073142D01*
X113588714Y-89036000D01*
X113551571Y-88998857D01*
X113477285Y-88887428D01*
X113440142Y-88738857D01*
X113440142Y-88441714D01*
X113477285Y-88367428D01*
X113514428Y-88330285D01*
X113588714Y-88293142D01*
X113737285Y-88293142D01*
X113811571Y-88330285D01*
X113848714Y-88367428D01*
X113885857Y-88441714D01*
X113885857Y-88627428D01*
X113848714Y-88701714D01*
X113811571Y-88738857D01*
X113737285Y-88776000D01*
X113588714Y-88776000D01*
X113514428Y-88738857D01*
X113477285Y-88701714D01*
X113440142Y-88627428D01*
X111248714Y-86161714D02*
X111508714Y-86161714D01*
X111620142Y-85753142D02*
X111248714Y-85753142D01*
X111248714Y-86533142D01*
X111620142Y-86533142D01*
X111880142Y-86533142D02*
X112400142Y-85753142D01*
X112400142Y-86533142D02*
X111880142Y-85753142D01*
X112697285Y-85753142D02*
X112697285Y-86533142D01*
X112994428Y-86533142D01*
X113068714Y-86496000D01*
X113105857Y-86458857D01*
X113143000Y-86384571D01*
X113143000Y-86273142D01*
X113105857Y-86198857D01*
X113068714Y-86161714D01*
X112994428Y-86124571D01*
X112697285Y-86124571D01*
X113848714Y-86533142D02*
X113477285Y-86533142D01*
X113440142Y-86161714D01*
X113477285Y-86198857D01*
X113551571Y-86236000D01*
X113737285Y-86236000D01*
X113811571Y-86198857D01*
X113848714Y-86161714D01*
X113885857Y-86087428D01*
X113885857Y-85901714D01*
X113848714Y-85827428D01*
X113811571Y-85790285D01*
X113737285Y-85753142D01*
X113551571Y-85753142D01*
X113477285Y-85790285D01*
X113440142Y-85827428D01*
X111471571Y-83993142D02*
X111471571Y-83436000D01*
X111434428Y-83324571D01*
X111360142Y-83250285D01*
X111248714Y-83213142D01*
X111174428Y-83213142D01*
X111843000Y-83213142D02*
X111843000Y-83993142D01*
X112140142Y-83993142D01*
X112214428Y-83956000D01*
X112251571Y-83918857D01*
X112288714Y-83844571D01*
X112288714Y-83733142D01*
X112251571Y-83658857D01*
X112214428Y-83621714D01*
X112140142Y-83584571D01*
X111843000Y-83584571D01*
X112585857Y-83918857D02*
X112623000Y-83956000D01*
X112697285Y-83993142D01*
X112883000Y-83993142D01*
X112957285Y-83956000D01*
X112994428Y-83918857D01*
X113031571Y-83844571D01*
X113031571Y-83770285D01*
X112994428Y-83658857D01*
X112548714Y-83213142D01*
X113031571Y-83213142D01*
X114517285Y-84030285D02*
X113848714Y-83027428D01*
X114925857Y-83993142D02*
X115074428Y-83993142D01*
X115148714Y-83956000D01*
X115223000Y-83881714D01*
X115260142Y-83733142D01*
X115260142Y-83473142D01*
X115223000Y-83324571D01*
X115148714Y-83250285D01*
X115074428Y-83213142D01*
X114925857Y-83213142D01*
X114851571Y-83250285D01*
X114777285Y-83324571D01*
X114740142Y-83473142D01*
X114740142Y-83733142D01*
X114777285Y-83881714D01*
X114851571Y-83956000D01*
X114925857Y-83993142D01*
X115594428Y-83621714D02*
X115854428Y-83621714D01*
X115965857Y-83213142D02*
X115594428Y-83213142D01*
X115594428Y-83993142D01*
X115965857Y-83993142D01*
X111471571Y-81453142D02*
X111471571Y-80896000D01*
X111434428Y-80784571D01*
X111360142Y-80710285D01*
X111248714Y-80673142D01*
X111174428Y-80673142D01*
X111843000Y-80673142D02*
X111843000Y-81453142D01*
X112140142Y-81453142D01*
X112214428Y-81416000D01*
X112251571Y-81378857D01*
X112288714Y-81304571D01*
X112288714Y-81193142D01*
X112251571Y-81118857D01*
X112214428Y-81081714D01*
X112140142Y-81044571D01*
X111843000Y-81044571D01*
X113031571Y-80673142D02*
X112585857Y-80673142D01*
X112808714Y-80673142D02*
X112808714Y-81453142D01*
X112734428Y-81341714D01*
X112660142Y-81267428D01*
X112585857Y-81230285D01*
X113960142Y-80673142D02*
X113960142Y-81453142D01*
X114145857Y-81453142D01*
X114257285Y-81416000D01*
X114331571Y-81341714D01*
X114368714Y-81267428D01*
X114405857Y-81118857D01*
X114405857Y-81007428D01*
X114368714Y-80858857D01*
X114331571Y-80784571D01*
X114257285Y-80710285D01*
X114145857Y-80673142D01*
X113960142Y-80673142D01*
X115148714Y-80673142D02*
X114703000Y-80673142D01*
X114925857Y-80673142D02*
X114925857Y-81453142D01*
X114851571Y-81341714D01*
X114777285Y-81267428D01*
X114703000Y-81230285D01*
X111471571Y-78913142D02*
X111471571Y-78356000D01*
X111434428Y-78244571D01*
X111360142Y-78170285D01*
X111248714Y-78133142D01*
X111174428Y-78133142D01*
X111843000Y-78133142D02*
X111843000Y-78913142D01*
X112140142Y-78913142D01*
X112214428Y-78876000D01*
X112251571Y-78838857D01*
X112288714Y-78764571D01*
X112288714Y-78653142D01*
X112251571Y-78578857D01*
X112214428Y-78541714D01*
X112140142Y-78504571D01*
X111843000Y-78504571D01*
X113031571Y-78133142D02*
X112585857Y-78133142D01*
X112808714Y-78133142D02*
X112808714Y-78913142D01*
X112734428Y-78801714D01*
X112660142Y-78727428D01*
X112585857Y-78690285D01*
X113960142Y-78133142D02*
X113960142Y-78913142D01*
X114145857Y-78913142D01*
X114257285Y-78876000D01*
X114331571Y-78801714D01*
X114368714Y-78727428D01*
X114405857Y-78578857D01*
X114405857Y-78467428D01*
X114368714Y-78318857D01*
X114331571Y-78244571D01*
X114257285Y-78170285D01*
X114145857Y-78133142D01*
X113960142Y-78133142D01*
X114665857Y-78913142D02*
X115148714Y-78913142D01*
X114888714Y-78616000D01*
X115000142Y-78616000D01*
X115074428Y-78578857D01*
X115111571Y-78541714D01*
X115148714Y-78467428D01*
X115148714Y-78281714D01*
X115111571Y-78207428D01*
X115074428Y-78170285D01*
X115000142Y-78133142D01*
X114777285Y-78133142D01*
X114703000Y-78170285D01*
X114665857Y-78207428D01*
X111805857Y-76410285D02*
X111137285Y-75407428D01*
X112065857Y-75593142D02*
X112065857Y-76373142D01*
X112883000Y-75593142D02*
X112623000Y-75964571D01*
X112437285Y-75593142D02*
X112437285Y-76373142D01*
X112734428Y-76373142D01*
X112808714Y-76336000D01*
X112845857Y-76298857D01*
X112883000Y-76224571D01*
X112883000Y-76113142D01*
X112845857Y-76038857D01*
X112808714Y-76001714D01*
X112734428Y-75964571D01*
X112437285Y-75964571D01*
X113737285Y-75518857D02*
X113663000Y-75556000D01*
X113588714Y-75630285D01*
X113477285Y-75741714D01*
X113403000Y-75778857D01*
X113328714Y-75778857D01*
X113365857Y-75593142D02*
X113291571Y-75630285D01*
X113217285Y-75704571D01*
X113180142Y-75853142D01*
X113180142Y-76113142D01*
X113217285Y-76261714D01*
X113291571Y-76336000D01*
X113365857Y-76373142D01*
X113514428Y-76373142D01*
X113588714Y-76336000D01*
X113663000Y-76261714D01*
X113700142Y-76113142D01*
X113700142Y-75853142D01*
X113663000Y-75704571D01*
X113588714Y-75630285D01*
X113514428Y-75593142D01*
X113365857Y-75593142D01*
X111471571Y-73833142D02*
X111471571Y-73276000D01*
X111434428Y-73164571D01*
X111360142Y-73090285D01*
X111248714Y-73053142D01*
X111174428Y-73053142D01*
X111843000Y-73053142D02*
X111843000Y-73833142D01*
X112140142Y-73833142D01*
X112214428Y-73796000D01*
X112251571Y-73758857D01*
X112288714Y-73684571D01*
X112288714Y-73573142D01*
X112251571Y-73498857D01*
X112214428Y-73461714D01*
X112140142Y-73424571D01*
X111843000Y-73424571D01*
X112585857Y-73758857D02*
X112623000Y-73796000D01*
X112697285Y-73833142D01*
X112883000Y-73833142D01*
X112957285Y-73796000D01*
X112994428Y-73758857D01*
X113031571Y-73684571D01*
X113031571Y-73610285D01*
X112994428Y-73498857D01*
X112548714Y-73053142D01*
X113031571Y-73053142D01*
X113960142Y-73053142D02*
X113960142Y-73833142D01*
X114145857Y-73833142D01*
X114257285Y-73796000D01*
X114331571Y-73721714D01*
X114368714Y-73647428D01*
X114405857Y-73498857D01*
X114405857Y-73387428D01*
X114368714Y-73238857D01*
X114331571Y-73164571D01*
X114257285Y-73090285D01*
X114145857Y-73053142D01*
X113960142Y-73053142D01*
X114703000Y-73758857D02*
X114740142Y-73796000D01*
X114814428Y-73833142D01*
X115000142Y-73833142D01*
X115074428Y-73796000D01*
X115111571Y-73758857D01*
X115148714Y-73684571D01*
X115148714Y-73610285D01*
X115111571Y-73498857D01*
X114665857Y-73053142D01*
X115148714Y-73053142D01*
X111471571Y-71293142D02*
X111471571Y-70736000D01*
X111434428Y-70624571D01*
X111360142Y-70550285D01*
X111248714Y-70513142D01*
X111174428Y-70513142D01*
X111843000Y-70513142D02*
X111843000Y-71293142D01*
X112140142Y-71293142D01*
X112214428Y-71256000D01*
X112251571Y-71218857D01*
X112288714Y-71144571D01*
X112288714Y-71033142D01*
X112251571Y-70958857D01*
X112214428Y-70921714D01*
X112140142Y-70884571D01*
X111843000Y-70884571D01*
X112585857Y-71218857D02*
X112623000Y-71256000D01*
X112697285Y-71293142D01*
X112883000Y-71293142D01*
X112957285Y-71256000D01*
X112994428Y-71218857D01*
X113031571Y-71144571D01*
X113031571Y-71070285D01*
X112994428Y-70958857D01*
X112548714Y-70513142D01*
X113031571Y-70513142D01*
X113960142Y-70513142D02*
X113960142Y-71293142D01*
X114145857Y-71293142D01*
X114257285Y-71256000D01*
X114331571Y-71181714D01*
X114368714Y-71107428D01*
X114405857Y-70958857D01*
X114405857Y-70847428D01*
X114368714Y-70698857D01*
X114331571Y-70624571D01*
X114257285Y-70550285D01*
X114145857Y-70513142D01*
X113960142Y-70513142D01*
X114665857Y-71293142D02*
X115148714Y-71293142D01*
X114888714Y-70996000D01*
X115000142Y-70996000D01*
X115074428Y-70958857D01*
X115111571Y-70921714D01*
X115148714Y-70847428D01*
X115148714Y-70661714D01*
X115111571Y-70587428D01*
X115074428Y-70550285D01*
X115000142Y-70513142D01*
X114777285Y-70513142D01*
X114703000Y-70550285D01*
X114665857Y-70587428D01*
X111471571Y-68753142D02*
X111471571Y-68196000D01*
X111434428Y-68084571D01*
X111360142Y-68010285D01*
X111248714Y-67973142D01*
X111174428Y-67973142D01*
X111843000Y-67973142D02*
X111843000Y-68753142D01*
X112140142Y-68753142D01*
X112214428Y-68716000D01*
X112251571Y-68678857D01*
X112288714Y-68604571D01*
X112288714Y-68493142D01*
X112251571Y-68418857D01*
X112214428Y-68381714D01*
X112140142Y-68344571D01*
X111843000Y-68344571D01*
X112585857Y-68678857D02*
X112623000Y-68716000D01*
X112697285Y-68753142D01*
X112883000Y-68753142D01*
X112957285Y-68716000D01*
X112994428Y-68678857D01*
X113031571Y-68604571D01*
X113031571Y-68530285D01*
X112994428Y-68418857D01*
X112548714Y-67973142D01*
X113031571Y-67973142D01*
X114517285Y-68790285D02*
X113848714Y-67787428D01*
X114925857Y-68753142D02*
X115074428Y-68753142D01*
X115148714Y-68716000D01*
X115223000Y-68641714D01*
X115260142Y-68493142D01*
X115260142Y-68233142D01*
X115223000Y-68084571D01*
X115148714Y-68010285D01*
X115074428Y-67973142D01*
X114925857Y-67973142D01*
X114851571Y-68010285D01*
X114777285Y-68084571D01*
X114740142Y-68233142D01*
X114740142Y-68493142D01*
X114777285Y-68641714D01*
X114851571Y-68716000D01*
X114925857Y-68753142D01*
X115594428Y-68381714D02*
X115854428Y-68381714D01*
X115965857Y-67973142D02*
X115594428Y-67973142D01*
X115594428Y-68753142D01*
X115965857Y-68753142D01*
X111471571Y-66213142D02*
X111471571Y-65656000D01*
X111434428Y-65544571D01*
X111360142Y-65470285D01*
X111248714Y-65433142D01*
X111174428Y-65433142D01*
X111843000Y-65433142D02*
X111843000Y-66213142D01*
X112140142Y-66213142D01*
X112214428Y-66176000D01*
X112251571Y-66138857D01*
X112288714Y-66064571D01*
X112288714Y-65953142D01*
X112251571Y-65878857D01*
X112214428Y-65841714D01*
X112140142Y-65804571D01*
X111843000Y-65804571D01*
X112585857Y-66138857D02*
X112623000Y-66176000D01*
X112697285Y-66213142D01*
X112883000Y-66213142D01*
X112957285Y-66176000D01*
X112994428Y-66138857D01*
X113031571Y-66064571D01*
X113031571Y-65990285D01*
X112994428Y-65878857D01*
X112548714Y-65433142D01*
X113031571Y-65433142D01*
X113960142Y-65433142D02*
X113960142Y-66213142D01*
X114145857Y-66213142D01*
X114257285Y-66176000D01*
X114331571Y-66101714D01*
X114368714Y-66027428D01*
X114405857Y-65878857D01*
X114405857Y-65767428D01*
X114368714Y-65618857D01*
X114331571Y-65544571D01*
X114257285Y-65470285D01*
X114145857Y-65433142D01*
X113960142Y-65433142D01*
X115074428Y-65953142D02*
X115074428Y-65433142D01*
X114888714Y-66250285D02*
X114703000Y-65693142D01*
X115185857Y-65693142D01*
X111471571Y-63673142D02*
X111471571Y-63116000D01*
X111434428Y-63004571D01*
X111360142Y-62930285D01*
X111248714Y-62893142D01*
X111174428Y-62893142D01*
X111843000Y-62893142D02*
X111843000Y-63673142D01*
X112140142Y-63673142D01*
X112214428Y-63636000D01*
X112251571Y-63598857D01*
X112288714Y-63524571D01*
X112288714Y-63413142D01*
X112251571Y-63338857D01*
X112214428Y-63301714D01*
X112140142Y-63264571D01*
X111843000Y-63264571D01*
X112585857Y-63598857D02*
X112623000Y-63636000D01*
X112697285Y-63673142D01*
X112883000Y-63673142D01*
X112957285Y-63636000D01*
X112994428Y-63598857D01*
X113031571Y-63524571D01*
X113031571Y-63450285D01*
X112994428Y-63338857D01*
X112548714Y-62893142D01*
X113031571Y-62893142D01*
X113960142Y-62893142D02*
X113960142Y-63673142D01*
X114145857Y-63673142D01*
X114257285Y-63636000D01*
X114331571Y-63561714D01*
X114368714Y-63487428D01*
X114405857Y-63338857D01*
X114405857Y-63227428D01*
X114368714Y-63078857D01*
X114331571Y-63004571D01*
X114257285Y-62930285D01*
X114145857Y-62893142D01*
X113960142Y-62893142D01*
X114888714Y-63673142D02*
X114963000Y-63673142D01*
X115037285Y-63636000D01*
X115074428Y-63598857D01*
X115111571Y-63524571D01*
X115148714Y-63376000D01*
X115148714Y-63190285D01*
X115111571Y-63041714D01*
X115074428Y-62967428D01*
X115037285Y-62930285D01*
X114963000Y-62893142D01*
X114888714Y-62893142D01*
X114814428Y-62930285D01*
X114777285Y-62967428D01*
X114740142Y-63041714D01*
X114703000Y-63190285D01*
X114703000Y-63376000D01*
X114740142Y-63524571D01*
X114777285Y-63598857D01*
X114814428Y-63636000D01*
X114888714Y-63673142D01*
X111471571Y-61133142D02*
X111471571Y-60576000D01*
X111434428Y-60464571D01*
X111360142Y-60390285D01*
X111248714Y-60353142D01*
X111174428Y-60353142D01*
X111843000Y-60353142D02*
X111843000Y-61133142D01*
X112140142Y-61133142D01*
X112214428Y-61096000D01*
X112251571Y-61058857D01*
X112288714Y-60984571D01*
X112288714Y-60873142D01*
X112251571Y-60798857D01*
X112214428Y-60761714D01*
X112140142Y-60724571D01*
X111843000Y-60724571D01*
X112585857Y-61058857D02*
X112623000Y-61096000D01*
X112697285Y-61133142D01*
X112883000Y-61133142D01*
X112957285Y-61096000D01*
X112994428Y-61058857D01*
X113031571Y-60984571D01*
X113031571Y-60910285D01*
X112994428Y-60798857D01*
X112548714Y-60353142D01*
X113031571Y-60353142D01*
X113960142Y-60353142D02*
X113960142Y-61133142D01*
X114145857Y-61133142D01*
X114257285Y-61096000D01*
X114331571Y-61021714D01*
X114368714Y-60947428D01*
X114405857Y-60798857D01*
X114405857Y-60687428D01*
X114368714Y-60538857D01*
X114331571Y-60464571D01*
X114257285Y-60390285D01*
X114145857Y-60353142D01*
X113960142Y-60353142D01*
X115148714Y-60353142D02*
X114703000Y-60353142D01*
X114925857Y-60353142D02*
X114925857Y-61133142D01*
X114851571Y-61021714D01*
X114777285Y-60947428D01*
X114703000Y-60910285D01*
X111137285Y-58593142D02*
X111397285Y-57813142D01*
X111657285Y-58593142D01*
X111917285Y-57813142D02*
X111917285Y-58333142D01*
X111917285Y-58593142D02*
X111880142Y-58556000D01*
X111917285Y-58518857D01*
X111954428Y-58556000D01*
X111917285Y-58593142D01*
X111917285Y-58518857D01*
X112623000Y-57813142D02*
X112623000Y-58593142D01*
X112623000Y-57850285D02*
X112548714Y-57813142D01*
X112400142Y-57813142D01*
X112325857Y-57850285D01*
X112288714Y-57887428D01*
X112251571Y-57961714D01*
X112251571Y-58184571D01*
X112288714Y-58258857D01*
X112325857Y-58296000D01*
X112400142Y-58333142D01*
X112548714Y-58333142D01*
X112623000Y-58296000D01*
X113737285Y-58593142D02*
X113885857Y-58593142D01*
X113960142Y-58556000D01*
X114034428Y-58481714D01*
X114071571Y-58333142D01*
X114071571Y-58073142D01*
X114034428Y-57924571D01*
X113960142Y-57850285D01*
X113885857Y-57813142D01*
X113737285Y-57813142D01*
X113663000Y-57850285D01*
X113588714Y-57924571D01*
X113551571Y-58073142D01*
X113551571Y-58333142D01*
X113588714Y-58481714D01*
X113663000Y-58556000D01*
X113737285Y-58593142D01*
X114740142Y-58333142D02*
X114740142Y-57813142D01*
X114405857Y-58333142D02*
X114405857Y-57924571D01*
X114443000Y-57850285D01*
X114517285Y-57813142D01*
X114628714Y-57813142D01*
X114703000Y-57850285D01*
X114740142Y-57887428D01*
X115000142Y-58333142D02*
X115297285Y-58333142D01*
X115111571Y-58593142D02*
X115111571Y-57924571D01*
X115148714Y-57850285D01*
X115223000Y-57813142D01*
X115297285Y-57813142D01*
X111211571Y-55496000D02*
X111583000Y-55496000D01*
X111137285Y-55273142D02*
X111397285Y-56053142D01*
X111657285Y-55273142D01*
X112251571Y-55793142D02*
X112251571Y-55273142D01*
X111917285Y-55793142D02*
X111917285Y-55384571D01*
X111954428Y-55310285D01*
X112028714Y-55273142D01*
X112140142Y-55273142D01*
X112214428Y-55310285D01*
X112251571Y-55347428D01*
X112957285Y-55273142D02*
X112957285Y-56053142D01*
X112957285Y-55310285D02*
X112883000Y-55273142D01*
X112734428Y-55273142D01*
X112660142Y-55310285D01*
X112623000Y-55347428D01*
X112585857Y-55421714D01*
X112585857Y-55644571D01*
X112623000Y-55718857D01*
X112660142Y-55756000D01*
X112734428Y-55793142D01*
X112883000Y-55793142D01*
X112957285Y-55756000D01*
X114071571Y-56053142D02*
X114220142Y-56053142D01*
X114294428Y-56016000D01*
X114368714Y-55941714D01*
X114405857Y-55793142D01*
X114405857Y-55533142D01*
X114368714Y-55384571D01*
X114294428Y-55310285D01*
X114220142Y-55273142D01*
X114071571Y-55273142D01*
X113997285Y-55310285D01*
X113923000Y-55384571D01*
X113885857Y-55533142D01*
X113885857Y-55793142D01*
X113923000Y-55941714D01*
X113997285Y-56016000D01*
X114071571Y-56053142D01*
X115074428Y-55793142D02*
X115074428Y-55273142D01*
X114740142Y-55793142D02*
X114740142Y-55384571D01*
X114777285Y-55310285D01*
X114851571Y-55273142D01*
X114963000Y-55273142D01*
X115037285Y-55310285D01*
X115074428Y-55347428D01*
X115334428Y-55793142D02*
X115631571Y-55793142D01*
X115445857Y-56053142D02*
X115445857Y-55384571D01*
X115483000Y-55310285D01*
X115557285Y-55273142D01*
X115631571Y-55273142D01*
X111248714Y-52733142D02*
X111248714Y-53513142D01*
X111545857Y-53513142D01*
X111620142Y-53476000D01*
X111657285Y-53438857D01*
X111694428Y-53364571D01*
X111694428Y-53253142D01*
X111657285Y-53178857D01*
X111620142Y-53141714D01*
X111545857Y-53104571D01*
X111248714Y-53104571D01*
X111991571Y-52770285D02*
X112103000Y-52733142D01*
X112288714Y-52733142D01*
X112363000Y-52770285D01*
X112400142Y-52807428D01*
X112437285Y-52881714D01*
X112437285Y-52956000D01*
X112400142Y-53030285D01*
X112363000Y-53067428D01*
X112288714Y-53104571D01*
X112140142Y-53141714D01*
X112065857Y-53178857D01*
X112028714Y-53216000D01*
X111991571Y-53290285D01*
X111991571Y-53364571D01*
X112028714Y-53438857D01*
X112065857Y-53476000D01*
X112140142Y-53513142D01*
X112325857Y-53513142D01*
X112437285Y-53476000D01*
X112771571Y-53513142D02*
X112771571Y-52881714D01*
X112808714Y-52807428D01*
X112845857Y-52770285D01*
X112920142Y-52733142D01*
X113068714Y-52733142D01*
X113143000Y-52770285D01*
X113180142Y-52807428D01*
X113217285Y-52881714D01*
X113217285Y-53513142D01*
X114071571Y-53513142D02*
X114331571Y-52733142D01*
X114591571Y-53513142D01*
X114851571Y-52733142D02*
X114851571Y-53513142D01*
X115037285Y-53513142D01*
X115148714Y-53476000D01*
X115223000Y-53401714D01*
X115260142Y-53327428D01*
X115297285Y-53178857D01*
X115297285Y-53067428D01*
X115260142Y-52918857D01*
X115223000Y-52844571D01*
X115148714Y-52770285D01*
X115037285Y-52733142D01*
X114851571Y-52733142D01*
X115631571Y-52733142D02*
X115631571Y-53513142D01*
X115817285Y-53513142D01*
X115928714Y-53476000D01*
X116003000Y-53401714D01*
X116040142Y-53327428D01*
X116077285Y-53178857D01*
X116077285Y-53067428D01*
X116040142Y-52918857D01*
X116003000Y-52844571D01*
X115928714Y-52770285D01*
X115817285Y-52733142D01*
X115631571Y-52733142D01*
X111694428Y-50267428D02*
X111657285Y-50230285D01*
X111545857Y-50193142D01*
X111471571Y-50193142D01*
X111360142Y-50230285D01*
X111285857Y-50304571D01*
X111248714Y-50378857D01*
X111211571Y-50527428D01*
X111211571Y-50638857D01*
X111248714Y-50787428D01*
X111285857Y-50861714D01*
X111360142Y-50936000D01*
X111471571Y-50973142D01*
X111545857Y-50973142D01*
X111657285Y-50936000D01*
X111694428Y-50898857D01*
X112028714Y-50193142D02*
X112028714Y-50973142D01*
X112845857Y-50267428D02*
X112808714Y-50230285D01*
X112697285Y-50193142D01*
X112623000Y-50193142D01*
X112511571Y-50230285D01*
X112437285Y-50304571D01*
X112400142Y-50378857D01*
X112363000Y-50527428D01*
X112363000Y-50638857D01*
X112400142Y-50787428D01*
X112437285Y-50861714D01*
X112511571Y-50936000D01*
X112623000Y-50973142D01*
X112697285Y-50973142D01*
X112808714Y-50936000D01*
X112845857Y-50898857D01*
X114220142Y-50267428D02*
X114183000Y-50230285D01*
X114071571Y-50193142D01*
X113997285Y-50193142D01*
X113885857Y-50230285D01*
X113811571Y-50304571D01*
X113774428Y-50378857D01*
X113737285Y-50527428D01*
X113737285Y-50638857D01*
X113774428Y-50787428D01*
X113811571Y-50861714D01*
X113885857Y-50936000D01*
X113997285Y-50973142D01*
X114071571Y-50973142D01*
X114183000Y-50936000D01*
X114220142Y-50898857D01*
X114925857Y-50193142D02*
X114554428Y-50193142D01*
X114554428Y-50973142D01*
X115185857Y-50193142D02*
X115185857Y-50973142D01*
X115631571Y-50193142D02*
X115297285Y-50638857D01*
X115631571Y-50973142D02*
X115185857Y-50527428D01*
X99470571Y-108910285D02*
X100064857Y-108910285D01*
X99767714Y-108613142D02*
X99767714Y-109207428D01*
X100807714Y-109393142D02*
X100436285Y-109393142D01*
X100399142Y-109021714D01*
X100436285Y-109058857D01*
X100510571Y-109096000D01*
X100696285Y-109096000D01*
X100770571Y-109058857D01*
X100807714Y-109021714D01*
X100844857Y-108947428D01*
X100844857Y-108761714D01*
X100807714Y-108687428D01*
X100770571Y-108650285D01*
X100696285Y-108613142D01*
X100510571Y-108613142D01*
X100436285Y-108650285D01*
X100399142Y-108687428D01*
X101067714Y-109393142D02*
X101327714Y-108613142D01*
X101587714Y-109393142D01*
X99879142Y-106816000D02*
X99804857Y-106853142D01*
X99693428Y-106853142D01*
X99582000Y-106816000D01*
X99507714Y-106741714D01*
X99470571Y-106667428D01*
X99433428Y-106518857D01*
X99433428Y-106407428D01*
X99470571Y-106258857D01*
X99507714Y-106184571D01*
X99582000Y-106110285D01*
X99693428Y-106073142D01*
X99767714Y-106073142D01*
X99879142Y-106110285D01*
X99916285Y-106147428D01*
X99916285Y-106407428D01*
X99767714Y-106407428D01*
X100250571Y-106073142D02*
X100250571Y-106853142D01*
X100696285Y-106073142D01*
X100696285Y-106853142D01*
X101067714Y-106073142D02*
X101067714Y-106853142D01*
X101253428Y-106853142D01*
X101364857Y-106816000D01*
X101439142Y-106741714D01*
X101476285Y-106667428D01*
X101513428Y-106518857D01*
X101513428Y-106407428D01*
X101476285Y-106258857D01*
X101439142Y-106184571D01*
X101364857Y-106110285D01*
X101253428Y-106073142D01*
X101067714Y-106073142D01*
X100250571Y-103533142D02*
X100250571Y-104313142D01*
X100696285Y-103533142D01*
X100696285Y-104313142D01*
X101513428Y-103607428D02*
X101476285Y-103570285D01*
X101364857Y-103533142D01*
X101290571Y-103533142D01*
X101179142Y-103570285D01*
X101104857Y-103644571D01*
X101067714Y-103718857D01*
X101030571Y-103867428D01*
X101030571Y-103978857D01*
X101067714Y-104127428D01*
X101104857Y-104201714D01*
X101179142Y-104276000D01*
X101290571Y-104313142D01*
X101364857Y-104313142D01*
X101476285Y-104276000D01*
X101513428Y-104238857D01*
X99024857Y-101773142D02*
X99173428Y-101773142D01*
X99247714Y-101736000D01*
X99322000Y-101661714D01*
X99359142Y-101513142D01*
X99359142Y-101253142D01*
X99322000Y-101104571D01*
X99247714Y-101030285D01*
X99173428Y-100993142D01*
X99024857Y-100993142D01*
X98950571Y-101030285D01*
X98876285Y-101104571D01*
X98839142Y-101253142D01*
X98839142Y-101513142D01*
X98876285Y-101661714D01*
X98950571Y-101736000D01*
X99024857Y-101773142D01*
X99693428Y-101773142D02*
X99693428Y-101141714D01*
X99730571Y-101067428D01*
X99767714Y-101030285D01*
X99842000Y-100993142D01*
X99990571Y-100993142D01*
X100064857Y-101030285D01*
X100102000Y-101067428D01*
X100139142Y-101141714D01*
X100139142Y-101773142D01*
X100399142Y-101773142D02*
X100844857Y-101773142D01*
X100622000Y-100993142D02*
X100622000Y-101773142D01*
X101067714Y-101698857D02*
X101104857Y-101736000D01*
X101179142Y-101773142D01*
X101364857Y-101773142D01*
X101439142Y-101736000D01*
X101476285Y-101698857D01*
X101513428Y-101624571D01*
X101513428Y-101550285D01*
X101476285Y-101438857D01*
X101030571Y-100993142D01*
X101513428Y-100993142D01*
X99024857Y-99233142D02*
X99173428Y-99233142D01*
X99247714Y-99196000D01*
X99322000Y-99121714D01*
X99359142Y-98973142D01*
X99359142Y-98713142D01*
X99322000Y-98564571D01*
X99247714Y-98490285D01*
X99173428Y-98453142D01*
X99024857Y-98453142D01*
X98950571Y-98490285D01*
X98876285Y-98564571D01*
X98839142Y-98713142D01*
X98839142Y-98973142D01*
X98876285Y-99121714D01*
X98950571Y-99196000D01*
X99024857Y-99233142D01*
X99693428Y-99233142D02*
X99693428Y-98601714D01*
X99730571Y-98527428D01*
X99767714Y-98490285D01*
X99842000Y-98453142D01*
X99990571Y-98453142D01*
X100064857Y-98490285D01*
X100102000Y-98527428D01*
X100139142Y-98601714D01*
X100139142Y-99233142D01*
X100399142Y-99233142D02*
X100844857Y-99233142D01*
X100622000Y-98453142D02*
X100622000Y-99233142D01*
X101513428Y-98453142D02*
X101067714Y-98453142D01*
X101290571Y-98453142D02*
X101290571Y-99233142D01*
X101216285Y-99121714D01*
X101142000Y-99047428D01*
X101067714Y-99010285D01*
X99024857Y-96693142D02*
X99173428Y-96693142D01*
X99247714Y-96656000D01*
X99322000Y-96581714D01*
X99359142Y-96433142D01*
X99359142Y-96173142D01*
X99322000Y-96024571D01*
X99247714Y-95950285D01*
X99173428Y-95913142D01*
X99024857Y-95913142D01*
X98950571Y-95950285D01*
X98876285Y-96024571D01*
X98839142Y-96173142D01*
X98839142Y-96433142D01*
X98876285Y-96581714D01*
X98950571Y-96656000D01*
X99024857Y-96693142D01*
X99693428Y-96693142D02*
X99693428Y-96061714D01*
X99730571Y-95987428D01*
X99767714Y-95950285D01*
X99842000Y-95913142D01*
X99990571Y-95913142D01*
X100064857Y-95950285D01*
X100102000Y-95987428D01*
X100139142Y-96061714D01*
X100139142Y-96693142D01*
X100399142Y-96693142D02*
X100844857Y-96693142D01*
X100622000Y-95913142D02*
X100622000Y-96693142D01*
X101253428Y-96693142D02*
X101327714Y-96693142D01*
X101402000Y-96656000D01*
X101439142Y-96618857D01*
X101476285Y-96544571D01*
X101513428Y-96396000D01*
X101513428Y-96210285D01*
X101476285Y-96061714D01*
X101439142Y-95987428D01*
X101402000Y-95950285D01*
X101327714Y-95913142D01*
X101253428Y-95913142D01*
X101179142Y-95950285D01*
X101142000Y-95987428D01*
X101104857Y-96061714D01*
X101067714Y-96210285D01*
X101067714Y-96396000D01*
X101104857Y-96544571D01*
X101142000Y-96618857D01*
X101179142Y-96656000D01*
X101253428Y-96693142D01*
X98876285Y-93781714D02*
X99136285Y-93781714D01*
X99247714Y-93373142D02*
X98876285Y-93373142D01*
X98876285Y-94153142D01*
X99247714Y-94153142D01*
X99507714Y-94153142D02*
X100027714Y-93373142D01*
X100027714Y-94153142D02*
X99507714Y-93373142D01*
X100324857Y-93373142D02*
X100324857Y-94153142D01*
X100622000Y-94153142D01*
X100696285Y-94116000D01*
X100733428Y-94078857D01*
X100770571Y-94004571D01*
X100770571Y-93893142D01*
X100733428Y-93818857D01*
X100696285Y-93781714D01*
X100622000Y-93744571D01*
X100324857Y-93744571D01*
X101253428Y-94153142D02*
X101327714Y-94153142D01*
X101402000Y-94116000D01*
X101439142Y-94078857D01*
X101476285Y-94004571D01*
X101513428Y-93856000D01*
X101513428Y-93670285D01*
X101476285Y-93521714D01*
X101439142Y-93447428D01*
X101402000Y-93410285D01*
X101327714Y-93373142D01*
X101253428Y-93373142D01*
X101179142Y-93410285D01*
X101142000Y-93447428D01*
X101104857Y-93521714D01*
X101067714Y-93670285D01*
X101067714Y-93856000D01*
X101104857Y-94004571D01*
X101142000Y-94078857D01*
X101179142Y-94116000D01*
X101253428Y-94153142D01*
X98876285Y-91241714D02*
X99136285Y-91241714D01*
X99247714Y-90833142D02*
X98876285Y-90833142D01*
X98876285Y-91613142D01*
X99247714Y-91613142D01*
X99507714Y-91613142D02*
X100027714Y-90833142D01*
X100027714Y-91613142D02*
X99507714Y-90833142D01*
X100324857Y-90833142D02*
X100324857Y-91613142D01*
X100622000Y-91613142D01*
X100696285Y-91576000D01*
X100733428Y-91538857D01*
X100770571Y-91464571D01*
X100770571Y-91353142D01*
X100733428Y-91278857D01*
X100696285Y-91241714D01*
X100622000Y-91204571D01*
X100324857Y-91204571D01*
X101513428Y-90833142D02*
X101067714Y-90833142D01*
X101290571Y-90833142D02*
X101290571Y-91613142D01*
X101216285Y-91501714D01*
X101142000Y-91427428D01*
X101067714Y-91390285D01*
X98876285Y-88701714D02*
X99136285Y-88701714D01*
X99247714Y-88293142D02*
X98876285Y-88293142D01*
X98876285Y-89073142D01*
X99247714Y-89073142D01*
X99507714Y-89073142D02*
X100027714Y-88293142D01*
X100027714Y-89073142D02*
X99507714Y-88293142D01*
X100324857Y-88293142D02*
X100324857Y-89073142D01*
X100622000Y-89073142D01*
X100696285Y-89036000D01*
X100733428Y-88998857D01*
X100770571Y-88924571D01*
X100770571Y-88813142D01*
X100733428Y-88738857D01*
X100696285Y-88701714D01*
X100622000Y-88664571D01*
X100324857Y-88664571D01*
X101067714Y-88998857D02*
X101104857Y-89036000D01*
X101179142Y-89073142D01*
X101364857Y-89073142D01*
X101439142Y-89036000D01*
X101476285Y-88998857D01*
X101513428Y-88924571D01*
X101513428Y-88850285D01*
X101476285Y-88738857D01*
X101030571Y-88293142D01*
X101513428Y-88293142D01*
X98876285Y-86161714D02*
X99136285Y-86161714D01*
X99247714Y-85753142D02*
X98876285Y-85753142D01*
X98876285Y-86533142D01*
X99247714Y-86533142D01*
X99507714Y-86533142D02*
X100027714Y-85753142D01*
X100027714Y-86533142D02*
X99507714Y-85753142D01*
X100324857Y-85753142D02*
X100324857Y-86533142D01*
X100622000Y-86533142D01*
X100696285Y-86496000D01*
X100733428Y-86458857D01*
X100770571Y-86384571D01*
X100770571Y-86273142D01*
X100733428Y-86198857D01*
X100696285Y-86161714D01*
X100622000Y-86124571D01*
X100324857Y-86124571D01*
X101030571Y-86533142D02*
X101513428Y-86533142D01*
X101253428Y-86236000D01*
X101364857Y-86236000D01*
X101439142Y-86198857D01*
X101476285Y-86161714D01*
X101513428Y-86087428D01*
X101513428Y-85901714D01*
X101476285Y-85827428D01*
X101439142Y-85790285D01*
X101364857Y-85753142D01*
X101142000Y-85753142D01*
X101067714Y-85790285D01*
X101030571Y-85827428D01*
X98876285Y-83621714D02*
X99136285Y-83621714D01*
X99247714Y-83213142D02*
X98876285Y-83213142D01*
X98876285Y-83993142D01*
X99247714Y-83993142D01*
X99507714Y-83993142D02*
X100027714Y-83213142D01*
X100027714Y-83993142D02*
X99507714Y-83213142D01*
X100324857Y-83213142D02*
X100324857Y-83993142D01*
X100622000Y-83993142D01*
X100696285Y-83956000D01*
X100733428Y-83918857D01*
X100770571Y-83844571D01*
X100770571Y-83733142D01*
X100733428Y-83658857D01*
X100696285Y-83621714D01*
X100622000Y-83584571D01*
X100324857Y-83584571D01*
X101439142Y-83733142D02*
X101439142Y-83213142D01*
X101253428Y-84030285D02*
X101067714Y-83473142D01*
X101550571Y-83473142D01*
X97019142Y-81453142D02*
X97019142Y-80896000D01*
X96982000Y-80784571D01*
X96907714Y-80710285D01*
X96796285Y-80673142D01*
X96722000Y-80673142D01*
X97390571Y-80673142D02*
X97390571Y-81453142D01*
X97687714Y-81453142D01*
X97762000Y-81416000D01*
X97799142Y-81378857D01*
X97836285Y-81304571D01*
X97836285Y-81193142D01*
X97799142Y-81118857D01*
X97762000Y-81081714D01*
X97687714Y-81044571D01*
X97390571Y-81044571D01*
X98579142Y-80673142D02*
X98133428Y-80673142D01*
X98356285Y-80673142D02*
X98356285Y-81453142D01*
X98282000Y-81341714D01*
X98207714Y-81267428D01*
X98133428Y-81230285D01*
X100064857Y-81490285D02*
X99396285Y-80487428D01*
X100473428Y-81453142D02*
X100622000Y-81453142D01*
X100696285Y-81416000D01*
X100770571Y-81341714D01*
X100807714Y-81193142D01*
X100807714Y-80933142D01*
X100770571Y-80784571D01*
X100696285Y-80710285D01*
X100622000Y-80673142D01*
X100473428Y-80673142D01*
X100399142Y-80710285D01*
X100324857Y-80784571D01*
X100287714Y-80933142D01*
X100287714Y-81193142D01*
X100324857Y-81341714D01*
X100399142Y-81416000D01*
X100473428Y-81453142D01*
X101142000Y-81081714D02*
X101402000Y-81081714D01*
X101513428Y-80673142D02*
X101142000Y-80673142D01*
X101142000Y-81453142D01*
X101513428Y-81453142D01*
X97836285Y-78913142D02*
X97836285Y-78356000D01*
X97799142Y-78244571D01*
X97724857Y-78170285D01*
X97613428Y-78133142D01*
X97539142Y-78133142D01*
X98207714Y-78133142D02*
X98207714Y-78913142D01*
X98504857Y-78913142D01*
X98579142Y-78876000D01*
X98616285Y-78838857D01*
X98653428Y-78764571D01*
X98653428Y-78653142D01*
X98616285Y-78578857D01*
X98579142Y-78541714D01*
X98504857Y-78504571D01*
X98207714Y-78504571D01*
X99396285Y-78133142D02*
X98950571Y-78133142D01*
X99173428Y-78133142D02*
X99173428Y-78913142D01*
X99099142Y-78801714D01*
X99024857Y-78727428D01*
X98950571Y-78690285D01*
X100324857Y-78133142D02*
X100324857Y-78913142D01*
X100510571Y-78913142D01*
X100622000Y-78876000D01*
X100696285Y-78801714D01*
X100733428Y-78727428D01*
X100770571Y-78578857D01*
X100770571Y-78467428D01*
X100733428Y-78318857D01*
X100696285Y-78244571D01*
X100622000Y-78170285D01*
X100510571Y-78133142D01*
X100324857Y-78133142D01*
X101439142Y-78653142D02*
X101439142Y-78133142D01*
X101253428Y-78950285D02*
X101067714Y-78393142D01*
X101550571Y-78393142D01*
X97836285Y-76373142D02*
X97836285Y-75816000D01*
X97799142Y-75704571D01*
X97724857Y-75630285D01*
X97613428Y-75593142D01*
X97539142Y-75593142D01*
X98207714Y-75593142D02*
X98207714Y-76373142D01*
X98504857Y-76373142D01*
X98579142Y-76336000D01*
X98616285Y-76298857D01*
X98653428Y-76224571D01*
X98653428Y-76113142D01*
X98616285Y-76038857D01*
X98579142Y-76001714D01*
X98504857Y-75964571D01*
X98207714Y-75964571D01*
X99396285Y-75593142D02*
X98950571Y-75593142D01*
X99173428Y-75593142D02*
X99173428Y-76373142D01*
X99099142Y-76261714D01*
X99024857Y-76187428D01*
X98950571Y-76150285D01*
X100324857Y-75593142D02*
X100324857Y-76373142D01*
X100510571Y-76373142D01*
X100622000Y-76336000D01*
X100696285Y-76261714D01*
X100733428Y-76187428D01*
X100770571Y-76038857D01*
X100770571Y-75927428D01*
X100733428Y-75778857D01*
X100696285Y-75704571D01*
X100622000Y-75630285D01*
X100510571Y-75593142D01*
X100324857Y-75593142D01*
X101253428Y-76373142D02*
X101327714Y-76373142D01*
X101402000Y-76336000D01*
X101439142Y-76298857D01*
X101476285Y-76224571D01*
X101513428Y-76076000D01*
X101513428Y-75890285D01*
X101476285Y-75741714D01*
X101439142Y-75667428D01*
X101402000Y-75630285D01*
X101327714Y-75593142D01*
X101253428Y-75593142D01*
X101179142Y-75630285D01*
X101142000Y-75667428D01*
X101104857Y-75741714D01*
X101067714Y-75890285D01*
X101067714Y-76076000D01*
X101104857Y-76224571D01*
X101142000Y-76298857D01*
X101179142Y-76336000D01*
X101253428Y-76373142D01*
X97019142Y-73833142D02*
X97019142Y-73276000D01*
X96982000Y-73164571D01*
X96907714Y-73090285D01*
X96796285Y-73053142D01*
X96722000Y-73053142D01*
X97390571Y-73053142D02*
X97390571Y-73833142D01*
X97687714Y-73833142D01*
X97762000Y-73796000D01*
X97799142Y-73758857D01*
X97836285Y-73684571D01*
X97836285Y-73573142D01*
X97799142Y-73498857D01*
X97762000Y-73461714D01*
X97687714Y-73424571D01*
X97390571Y-73424571D01*
X98579142Y-73053142D02*
X98133428Y-73053142D01*
X98356285Y-73053142D02*
X98356285Y-73833142D01*
X98282000Y-73721714D01*
X98207714Y-73647428D01*
X98133428Y-73610285D01*
X100064857Y-73870285D02*
X99396285Y-72867428D01*
X100473428Y-73833142D02*
X100622000Y-73833142D01*
X100696285Y-73796000D01*
X100770571Y-73721714D01*
X100807714Y-73573142D01*
X100807714Y-73313142D01*
X100770571Y-73164571D01*
X100696285Y-73090285D01*
X100622000Y-73053142D01*
X100473428Y-73053142D01*
X100399142Y-73090285D01*
X100324857Y-73164571D01*
X100287714Y-73313142D01*
X100287714Y-73573142D01*
X100324857Y-73721714D01*
X100399142Y-73796000D01*
X100473428Y-73833142D01*
X101142000Y-73461714D02*
X101402000Y-73461714D01*
X101513428Y-73053142D02*
X101142000Y-73053142D01*
X101142000Y-73833142D01*
X101513428Y-73833142D01*
X97836285Y-71293142D02*
X97836285Y-70736000D01*
X97799142Y-70624571D01*
X97724857Y-70550285D01*
X97613428Y-70513142D01*
X97539142Y-70513142D01*
X98207714Y-70513142D02*
X98207714Y-71293142D01*
X98504857Y-71293142D01*
X98579142Y-71256000D01*
X98616285Y-71218857D01*
X98653428Y-71144571D01*
X98653428Y-71033142D01*
X98616285Y-70958857D01*
X98579142Y-70921714D01*
X98504857Y-70884571D01*
X98207714Y-70884571D01*
X99396285Y-70513142D02*
X98950571Y-70513142D01*
X99173428Y-70513142D02*
X99173428Y-71293142D01*
X99099142Y-71181714D01*
X99024857Y-71107428D01*
X98950571Y-71070285D01*
X100324857Y-70513142D02*
X100324857Y-71293142D01*
X100510571Y-71293142D01*
X100622000Y-71256000D01*
X100696285Y-71181714D01*
X100733428Y-71107428D01*
X100770571Y-70958857D01*
X100770571Y-70847428D01*
X100733428Y-70698857D01*
X100696285Y-70624571D01*
X100622000Y-70550285D01*
X100510571Y-70513142D01*
X100324857Y-70513142D01*
X101067714Y-71218857D02*
X101104857Y-71256000D01*
X101179142Y-71293142D01*
X101364857Y-71293142D01*
X101439142Y-71256000D01*
X101476285Y-71218857D01*
X101513428Y-71144571D01*
X101513428Y-71070285D01*
X101476285Y-70958857D01*
X101030571Y-70513142D01*
X101513428Y-70513142D01*
X97799142Y-68047428D02*
X97762000Y-68010285D01*
X97650571Y-67973142D01*
X97576285Y-67973142D01*
X97464857Y-68010285D01*
X97390571Y-68084571D01*
X97353428Y-68158857D01*
X97316285Y-68307428D01*
X97316285Y-68418857D01*
X97353428Y-68567428D01*
X97390571Y-68641714D01*
X97464857Y-68716000D01*
X97576285Y-68753142D01*
X97650571Y-68753142D01*
X97762000Y-68716000D01*
X97799142Y-68678857D01*
X98133428Y-67973142D02*
X98133428Y-68753142D01*
X98430571Y-68753142D01*
X98504857Y-68716000D01*
X98542000Y-68678857D01*
X98579142Y-68604571D01*
X98579142Y-68493142D01*
X98542000Y-68418857D01*
X98504857Y-68381714D01*
X98430571Y-68344571D01*
X98133428Y-68344571D01*
X98913428Y-68753142D02*
X98913428Y-68121714D01*
X98950571Y-68047428D01*
X98987714Y-68010285D01*
X99062000Y-67973142D01*
X99210571Y-67973142D01*
X99284857Y-68010285D01*
X99322000Y-68047428D01*
X99359142Y-68121714D01*
X99359142Y-68753142D01*
X100324857Y-67973142D02*
X100324857Y-68753142D01*
X100510571Y-68753142D01*
X100622000Y-68716000D01*
X100696285Y-68641714D01*
X100733428Y-68567428D01*
X100770571Y-68418857D01*
X100770571Y-68307428D01*
X100733428Y-68158857D01*
X100696285Y-68084571D01*
X100622000Y-68010285D01*
X100510571Y-67973142D01*
X100324857Y-67973142D01*
X101253428Y-68753142D02*
X101327714Y-68753142D01*
X101402000Y-68716000D01*
X101439142Y-68678857D01*
X101476285Y-68604571D01*
X101513428Y-68456000D01*
X101513428Y-68270285D01*
X101476285Y-68121714D01*
X101439142Y-68047428D01*
X101402000Y-68010285D01*
X101327714Y-67973142D01*
X101253428Y-67973142D01*
X101179142Y-68010285D01*
X101142000Y-68047428D01*
X101104857Y-68121714D01*
X101067714Y-68270285D01*
X101067714Y-68456000D01*
X101104857Y-68604571D01*
X101142000Y-68678857D01*
X101179142Y-68716000D01*
X101253428Y-68753142D01*
X97799142Y-65507428D02*
X97762000Y-65470285D01*
X97650571Y-65433142D01*
X97576285Y-65433142D01*
X97464857Y-65470285D01*
X97390571Y-65544571D01*
X97353428Y-65618857D01*
X97316285Y-65767428D01*
X97316285Y-65878857D01*
X97353428Y-66027428D01*
X97390571Y-66101714D01*
X97464857Y-66176000D01*
X97576285Y-66213142D01*
X97650571Y-66213142D01*
X97762000Y-66176000D01*
X97799142Y-66138857D01*
X98133428Y-65433142D02*
X98133428Y-66213142D01*
X98430571Y-66213142D01*
X98504857Y-66176000D01*
X98542000Y-66138857D01*
X98579142Y-66064571D01*
X98579142Y-65953142D01*
X98542000Y-65878857D01*
X98504857Y-65841714D01*
X98430571Y-65804571D01*
X98133428Y-65804571D01*
X98913428Y-66213142D02*
X98913428Y-65581714D01*
X98950571Y-65507428D01*
X98987714Y-65470285D01*
X99062000Y-65433142D01*
X99210571Y-65433142D01*
X99284857Y-65470285D01*
X99322000Y-65507428D01*
X99359142Y-65581714D01*
X99359142Y-66213142D01*
X100324857Y-65433142D02*
X100324857Y-66213142D01*
X100510571Y-66213142D01*
X100622000Y-66176000D01*
X100696285Y-66101714D01*
X100733428Y-66027428D01*
X100770571Y-65878857D01*
X100770571Y-65767428D01*
X100733428Y-65618857D01*
X100696285Y-65544571D01*
X100622000Y-65470285D01*
X100510571Y-65433142D01*
X100324857Y-65433142D01*
X101513428Y-65433142D02*
X101067714Y-65433142D01*
X101290571Y-65433142D02*
X101290571Y-66213142D01*
X101216285Y-66101714D01*
X101142000Y-66027428D01*
X101067714Y-65990285D01*
X97799142Y-62967428D02*
X97762000Y-62930285D01*
X97650571Y-62893142D01*
X97576285Y-62893142D01*
X97464857Y-62930285D01*
X97390571Y-63004571D01*
X97353428Y-63078857D01*
X97316285Y-63227428D01*
X97316285Y-63338857D01*
X97353428Y-63487428D01*
X97390571Y-63561714D01*
X97464857Y-63636000D01*
X97576285Y-63673142D01*
X97650571Y-63673142D01*
X97762000Y-63636000D01*
X97799142Y-63598857D01*
X98133428Y-62893142D02*
X98133428Y-63673142D01*
X98430571Y-63673142D01*
X98504857Y-63636000D01*
X98542000Y-63598857D01*
X98579142Y-63524571D01*
X98579142Y-63413142D01*
X98542000Y-63338857D01*
X98504857Y-63301714D01*
X98430571Y-63264571D01*
X98133428Y-63264571D01*
X98913428Y-63673142D02*
X98913428Y-63041714D01*
X98950571Y-62967428D01*
X98987714Y-62930285D01*
X99062000Y-62893142D01*
X99210571Y-62893142D01*
X99284857Y-62930285D01*
X99322000Y-62967428D01*
X99359142Y-63041714D01*
X99359142Y-63673142D01*
X100324857Y-62893142D02*
X100324857Y-63673142D01*
X100510571Y-63673142D01*
X100622000Y-63636000D01*
X100696285Y-63561714D01*
X100733428Y-63487428D01*
X100770571Y-63338857D01*
X100770571Y-63227428D01*
X100733428Y-63078857D01*
X100696285Y-63004571D01*
X100622000Y-62930285D01*
X100510571Y-62893142D01*
X100324857Y-62893142D01*
X101067714Y-63598857D02*
X101104857Y-63636000D01*
X101179142Y-63673142D01*
X101364857Y-63673142D01*
X101439142Y-63636000D01*
X101476285Y-63598857D01*
X101513428Y-63524571D01*
X101513428Y-63450285D01*
X101476285Y-63338857D01*
X101030571Y-62893142D01*
X101513428Y-62893142D01*
X97799142Y-60427428D02*
X97762000Y-60390285D01*
X97650571Y-60353142D01*
X97576285Y-60353142D01*
X97464857Y-60390285D01*
X97390571Y-60464571D01*
X97353428Y-60538857D01*
X97316285Y-60687428D01*
X97316285Y-60798857D01*
X97353428Y-60947428D01*
X97390571Y-61021714D01*
X97464857Y-61096000D01*
X97576285Y-61133142D01*
X97650571Y-61133142D01*
X97762000Y-61096000D01*
X97799142Y-61058857D01*
X98133428Y-60353142D02*
X98133428Y-61133142D01*
X98430571Y-61133142D01*
X98504857Y-61096000D01*
X98542000Y-61058857D01*
X98579142Y-60984571D01*
X98579142Y-60873142D01*
X98542000Y-60798857D01*
X98504857Y-60761714D01*
X98430571Y-60724571D01*
X98133428Y-60724571D01*
X98913428Y-61133142D02*
X98913428Y-60501714D01*
X98950571Y-60427428D01*
X98987714Y-60390285D01*
X99062000Y-60353142D01*
X99210571Y-60353142D01*
X99284857Y-60390285D01*
X99322000Y-60427428D01*
X99359142Y-60501714D01*
X99359142Y-61133142D01*
X100324857Y-60353142D02*
X100324857Y-61133142D01*
X100510571Y-61133142D01*
X100622000Y-61096000D01*
X100696285Y-61021714D01*
X100733428Y-60947428D01*
X100770571Y-60798857D01*
X100770571Y-60687428D01*
X100733428Y-60538857D01*
X100696285Y-60464571D01*
X100622000Y-60390285D01*
X100510571Y-60353142D01*
X100324857Y-60353142D01*
X101030571Y-61133142D02*
X101513428Y-61133142D01*
X101253428Y-60836000D01*
X101364857Y-60836000D01*
X101439142Y-60798857D01*
X101476285Y-60761714D01*
X101513428Y-60687428D01*
X101513428Y-60501714D01*
X101476285Y-60427428D01*
X101439142Y-60390285D01*
X101364857Y-60353142D01*
X101142000Y-60353142D01*
X101067714Y-60390285D01*
X101030571Y-60427428D01*
X97799142Y-57887428D02*
X97762000Y-57850285D01*
X97650571Y-57813142D01*
X97576285Y-57813142D01*
X97464857Y-57850285D01*
X97390571Y-57924571D01*
X97353428Y-57998857D01*
X97316285Y-58147428D01*
X97316285Y-58258857D01*
X97353428Y-58407428D01*
X97390571Y-58481714D01*
X97464857Y-58556000D01*
X97576285Y-58593142D01*
X97650571Y-58593142D01*
X97762000Y-58556000D01*
X97799142Y-58518857D01*
X98133428Y-57813142D02*
X98133428Y-58593142D01*
X98430571Y-58593142D01*
X98504857Y-58556000D01*
X98542000Y-58518857D01*
X98579142Y-58444571D01*
X98579142Y-58333142D01*
X98542000Y-58258857D01*
X98504857Y-58221714D01*
X98430571Y-58184571D01*
X98133428Y-58184571D01*
X98913428Y-58593142D02*
X98913428Y-57961714D01*
X98950571Y-57887428D01*
X98987714Y-57850285D01*
X99062000Y-57813142D01*
X99210571Y-57813142D01*
X99284857Y-57850285D01*
X99322000Y-57887428D01*
X99359142Y-57961714D01*
X99359142Y-58593142D01*
X100324857Y-57813142D02*
X100324857Y-58593142D01*
X100510571Y-58593142D01*
X100622000Y-58556000D01*
X100696285Y-58481714D01*
X100733428Y-58407428D01*
X100770571Y-58258857D01*
X100770571Y-58147428D01*
X100733428Y-57998857D01*
X100696285Y-57924571D01*
X100622000Y-57850285D01*
X100510571Y-57813142D01*
X100324857Y-57813142D01*
X101439142Y-58333142D02*
X101439142Y-57813142D01*
X101253428Y-58630285D02*
X101067714Y-58073142D01*
X101550571Y-58073142D01*
X97799142Y-55347428D02*
X97762000Y-55310285D01*
X97650571Y-55273142D01*
X97576285Y-55273142D01*
X97464857Y-55310285D01*
X97390571Y-55384571D01*
X97353428Y-55458857D01*
X97316285Y-55607428D01*
X97316285Y-55718857D01*
X97353428Y-55867428D01*
X97390571Y-55941714D01*
X97464857Y-56016000D01*
X97576285Y-56053142D01*
X97650571Y-56053142D01*
X97762000Y-56016000D01*
X97799142Y-55978857D01*
X98133428Y-55273142D02*
X98133428Y-56053142D01*
X98430571Y-56053142D01*
X98504857Y-56016000D01*
X98542000Y-55978857D01*
X98579142Y-55904571D01*
X98579142Y-55793142D01*
X98542000Y-55718857D01*
X98504857Y-55681714D01*
X98430571Y-55644571D01*
X98133428Y-55644571D01*
X98913428Y-56053142D02*
X98913428Y-55421714D01*
X98950571Y-55347428D01*
X98987714Y-55310285D01*
X99062000Y-55273142D01*
X99210571Y-55273142D01*
X99284857Y-55310285D01*
X99322000Y-55347428D01*
X99359142Y-55421714D01*
X99359142Y-56053142D01*
X100324857Y-55273142D02*
X100324857Y-56053142D01*
X100510571Y-56053142D01*
X100622000Y-56016000D01*
X100696285Y-55941714D01*
X100733428Y-55867428D01*
X100770571Y-55718857D01*
X100770571Y-55607428D01*
X100733428Y-55458857D01*
X100696285Y-55384571D01*
X100622000Y-55310285D01*
X100510571Y-55273142D01*
X100324857Y-55273142D01*
X101476285Y-56053142D02*
X101104857Y-56053142D01*
X101067714Y-55681714D01*
X101104857Y-55718857D01*
X101179142Y-55756000D01*
X101364857Y-55756000D01*
X101439142Y-55718857D01*
X101476285Y-55681714D01*
X101513428Y-55607428D01*
X101513428Y-55421714D01*
X101476285Y-55347428D01*
X101439142Y-55310285D01*
X101364857Y-55273142D01*
X101179142Y-55273142D01*
X101104857Y-55310285D01*
X101067714Y-55347428D01*
X97799142Y-52807428D02*
X97762000Y-52770285D01*
X97650571Y-52733142D01*
X97576285Y-52733142D01*
X97464857Y-52770285D01*
X97390571Y-52844571D01*
X97353428Y-52918857D01*
X97316285Y-53067428D01*
X97316285Y-53178857D01*
X97353428Y-53327428D01*
X97390571Y-53401714D01*
X97464857Y-53476000D01*
X97576285Y-53513142D01*
X97650571Y-53513142D01*
X97762000Y-53476000D01*
X97799142Y-53438857D01*
X98133428Y-52733142D02*
X98133428Y-53513142D01*
X98430571Y-53513142D01*
X98504857Y-53476000D01*
X98542000Y-53438857D01*
X98579142Y-53364571D01*
X98579142Y-53253142D01*
X98542000Y-53178857D01*
X98504857Y-53141714D01*
X98430571Y-53104571D01*
X98133428Y-53104571D01*
X98913428Y-53513142D02*
X98913428Y-52881714D01*
X98950571Y-52807428D01*
X98987714Y-52770285D01*
X99062000Y-52733142D01*
X99210571Y-52733142D01*
X99284857Y-52770285D01*
X99322000Y-52807428D01*
X99359142Y-52881714D01*
X99359142Y-53513142D01*
X100324857Y-52733142D02*
X100324857Y-53513142D01*
X100510571Y-53513142D01*
X100622000Y-53476000D01*
X100696285Y-53401714D01*
X100733428Y-53327428D01*
X100770571Y-53178857D01*
X100770571Y-53067428D01*
X100733428Y-52918857D01*
X100696285Y-52844571D01*
X100622000Y-52770285D01*
X100510571Y-52733142D01*
X100324857Y-52733142D01*
X101439142Y-53513142D02*
X101290571Y-53513142D01*
X101216285Y-53476000D01*
X101179142Y-53438857D01*
X101104857Y-53327428D01*
X101067714Y-53178857D01*
X101067714Y-52881714D01*
X101104857Y-52807428D01*
X101142000Y-52770285D01*
X101216285Y-52733142D01*
X101364857Y-52733142D01*
X101439142Y-52770285D01*
X101476285Y-52807428D01*
X101513428Y-52881714D01*
X101513428Y-53067428D01*
X101476285Y-53141714D01*
X101439142Y-53178857D01*
X101364857Y-53216000D01*
X101216285Y-53216000D01*
X101142000Y-53178857D01*
X101104857Y-53141714D01*
X101067714Y-53067428D01*
X97799142Y-50267428D02*
X97762000Y-50230285D01*
X97650571Y-50193142D01*
X97576285Y-50193142D01*
X97464857Y-50230285D01*
X97390571Y-50304571D01*
X97353428Y-50378857D01*
X97316285Y-50527428D01*
X97316285Y-50638857D01*
X97353428Y-50787428D01*
X97390571Y-50861714D01*
X97464857Y-50936000D01*
X97576285Y-50973142D01*
X97650571Y-50973142D01*
X97762000Y-50936000D01*
X97799142Y-50898857D01*
X98133428Y-50193142D02*
X98133428Y-50973142D01*
X98430571Y-50973142D01*
X98504857Y-50936000D01*
X98542000Y-50898857D01*
X98579142Y-50824571D01*
X98579142Y-50713142D01*
X98542000Y-50638857D01*
X98504857Y-50601714D01*
X98430571Y-50564571D01*
X98133428Y-50564571D01*
X98913428Y-50973142D02*
X98913428Y-50341714D01*
X98950571Y-50267428D01*
X98987714Y-50230285D01*
X99062000Y-50193142D01*
X99210571Y-50193142D01*
X99284857Y-50230285D01*
X99322000Y-50267428D01*
X99359142Y-50341714D01*
X99359142Y-50973142D01*
X100324857Y-50193142D02*
X100324857Y-50973142D01*
X100510571Y-50973142D01*
X100622000Y-50936000D01*
X100696285Y-50861714D01*
X100733428Y-50787428D01*
X100770571Y-50638857D01*
X100770571Y-50527428D01*
X100733428Y-50378857D01*
X100696285Y-50304571D01*
X100622000Y-50230285D01*
X100510571Y-50193142D01*
X100324857Y-50193142D01*
X101030571Y-50973142D02*
X101550571Y-50973142D01*
X101216285Y-50193142D01*
D11*
X105620428Y-84414571D02*
X107120428Y-84414571D01*
X105620428Y-83557428D01*
X107120428Y-83557428D01*
X106406142Y-82843142D02*
X106406142Y-82343142D01*
X105620428Y-82128857D02*
X105620428Y-82843142D01*
X107120428Y-82843142D01*
X107120428Y-82128857D01*
X105691857Y-81557428D02*
X105620428Y-81343142D01*
X105620428Y-80986000D01*
X105691857Y-80843142D01*
X105763285Y-80771714D01*
X105906142Y-80700285D01*
X106049000Y-80700285D01*
X106191857Y-80771714D01*
X106263285Y-80843142D01*
X106334714Y-80986000D01*
X106406142Y-81271714D01*
X106477571Y-81414571D01*
X106549000Y-81486000D01*
X106691857Y-81557428D01*
X106834714Y-81557428D01*
X106977571Y-81486000D01*
X107049000Y-81414571D01*
X107120428Y-81271714D01*
X107120428Y-80914571D01*
X107049000Y-80700285D01*
X105691857Y-78986000D02*
X105620428Y-78771714D01*
X105620428Y-78414571D01*
X105691857Y-78271714D01*
X105763285Y-78200285D01*
X105906142Y-78128857D01*
X106049000Y-78128857D01*
X106191857Y-78200285D01*
X106263285Y-78271714D01*
X106334714Y-78414571D01*
X106406142Y-78700285D01*
X106477571Y-78843142D01*
X106549000Y-78914571D01*
X106691857Y-78986000D01*
X106834714Y-78986000D01*
X106977571Y-78914571D01*
X107049000Y-78843142D01*
X107120428Y-78700285D01*
X107120428Y-78343142D01*
X107049000Y-78128857D01*
X106406142Y-76986000D02*
X106406142Y-77486000D01*
X105620428Y-77486000D02*
X107120428Y-77486000D01*
X107120428Y-76771714D01*
X106406142Y-76200285D02*
X106406142Y-75700285D01*
X105620428Y-75486000D02*
X105620428Y-76200285D01*
X107120428Y-76200285D01*
X107120428Y-75486000D01*
X106049000Y-74914571D02*
X106049000Y-74200285D01*
X105620428Y-75057428D02*
X107120428Y-74557428D01*
X105620428Y-74057428D01*
X105620428Y-73557428D02*
X107120428Y-73557428D01*
X106049000Y-73057428D01*
X107120428Y-72557428D01*
X105620428Y-72557428D01*
D12*
%TO.C,J3*%
X107636000Y-49216000D02*
X110296000Y-49216000D01*
X107636000Y-107696000D02*
X107636000Y-49216000D01*
X110296000Y-107696000D02*
X110296000Y-49216000D01*
X107636000Y-107696000D02*
X110296000Y-107696000D01*
X107636000Y-108966000D02*
X107636000Y-110296000D01*
X107636000Y-110296000D02*
X108966000Y-110296000D01*
%TO.C,J4*%
X102302000Y-49216000D02*
X104962000Y-49216000D01*
X102302000Y-107696000D02*
X102302000Y-49216000D01*
X104962000Y-107696000D02*
X104962000Y-49216000D01*
X102302000Y-107696000D02*
X104962000Y-107696000D01*
X102302000Y-108966000D02*
X102302000Y-110296000D01*
X102302000Y-110296000D02*
X103632000Y-110296000D01*
%TO.C,J3*%
D13*
X109299333Y-110748380D02*
X109299333Y-111462666D01*
X109346952Y-111605523D01*
X109442190Y-111700761D01*
X109585047Y-111748380D01*
X109680285Y-111748380D01*
X108918380Y-110748380D02*
X108299333Y-110748380D01*
X108632666Y-111129333D01*
X108489809Y-111129333D01*
X108394571Y-111176952D01*
X108346952Y-111224571D01*
X108299333Y-111319809D01*
X108299333Y-111557904D01*
X108346952Y-111653142D01*
X108394571Y-111700761D01*
X108489809Y-111748380D01*
X108775523Y-111748380D01*
X108870761Y-111700761D01*
X108918380Y-111653142D01*
%TO.C,J4*%
X103965333Y-110748380D02*
X103965333Y-111462666D01*
X104012952Y-111605523D01*
X104108190Y-111700761D01*
X104251047Y-111748380D01*
X104346285Y-111748380D01*
X103060571Y-111081714D02*
X103060571Y-111748380D01*
X103298666Y-110700761D02*
X103536761Y-111415047D01*
X102917714Y-111415047D01*
%TD*%
M02*
