M48
; DRILL file {KiCad (5.1.10)-1} date 06/12/21 16:41:30
; FORMAT={-:-/ absolute / inch / decimal}
; #@! TF.CreationDate,2021-06-12T16:41:30+02:00
; #@! TF.GenerationSoftware,Kicad,Pcbnew,(5.1.10)-1
; #@! TF.FileFunction,Plated,1,2,PTH
FMAT,2
INCH
T1C0.0394
%
G90
G05
T1
X4.08Y-1.99
X4.08Y-2.09
X4.08Y-2.19
X4.08Y-2.29
X4.08Y-2.39
X4.08Y-2.49
X4.08Y-2.59
X4.08Y-2.69
X4.08Y-2.79
X4.08Y-2.89
X4.08Y-2.99
X4.08Y-3.09
X4.08Y-3.19
X4.08Y-3.29
X4.08Y-3.39
X4.08Y-3.49
X4.08Y-3.59
X4.08Y-3.69
X4.08Y-3.79
X4.08Y-3.89
X4.08Y-3.99
X4.08Y-4.09
X4.08Y-4.19
X4.08Y-4.29
X4.29Y-1.99
X4.29Y-2.09
X4.29Y-2.19
X4.29Y-2.29
X4.29Y-2.39
X4.29Y-2.49
X4.29Y-2.59
X4.29Y-2.69
X4.29Y-2.79
X4.29Y-2.89
X4.29Y-2.99
X4.29Y-3.09
X4.29Y-3.19
X4.29Y-3.29
X4.29Y-3.39
X4.29Y-3.49
X4.29Y-3.59
X4.29Y-3.69
X4.29Y-3.79
X4.29Y-3.89
X4.29Y-3.99
X4.29Y-4.09
X4.29Y-4.19
X4.29Y-4.29
T0
M30
