%TF.GenerationSoftware,KiCad,Pcbnew,(5.1.10)-1*%
%TF.CreationDate,2021-06-12T16:48:45+02:00*%
%TF.ProjectId,Nes Sound Expansion,4e657320-536f-4756-9e64-20457870616e,rev?*%
%TF.SameCoordinates,Original*%
%TF.FileFunction,Copper,L1,Top*%
%TF.FilePolarity,Positive*%
%FSLAX46Y46*%
G04 Gerber Fmt 4.6, Leading zero omitted, Abs format (unit mm)*
G04 Created by KiCad (PCBNEW (5.1.10)-1) date 2021-06-12 16:48:45*
%MOMM*%
%LPD*%
G01*
G04 APERTURE LIST*
%TA.AperFunction,SMDPad,CuDef*%
%ADD10R,3.000000X1.000000*%
%TD*%
%TA.AperFunction,ConnectorPad*%
%ADD11R,10.000000X1.524000*%
%TD*%
%TA.AperFunction,ComponentPad*%
%ADD12O,1.700000X1.700000*%
%TD*%
%TA.AperFunction,ComponentPad*%
%ADD13R,1.700000X1.700000*%
%TD*%
%TA.AperFunction,ViaPad*%
%ADD14C,0.800000*%
%TD*%
%TA.AperFunction,Conductor*%
%ADD15C,0.500000*%
%TD*%
%TA.AperFunction,Conductor*%
%ADD16C,0.800000*%
%TD*%
%TA.AperFunction,Conductor*%
%ADD17C,0.250000*%
%TD*%
G04 APERTURE END LIST*
%TO.P,R6,2*%
%TO.N,Net-(J4-Pad16)*%
%TA.AperFunction,SMDPad,CuDef*%
G36*
G01*
X118399000Y-84524001D02*
X118399000Y-83623999D01*
G75*
G02*
X118648999Y-83374000I249999J0D01*
G01*
X119349001Y-83374000D01*
G75*
G02*
X119599000Y-83623999I0J-249999D01*
G01*
X119599000Y-84524001D01*
G75*
G02*
X119349001Y-84774000I-249999J0D01*
G01*
X118648999Y-84774000D01*
G75*
G02*
X118399000Y-84524001I0J249999D01*
G01*
G37*
%TD.AperFunction*%
%TO.P,R6,1*%
%TO.N,AudIn*%
%TA.AperFunction,SMDPad,CuDef*%
G36*
G01*
X116399000Y-84524001D02*
X116399000Y-83623999D01*
G75*
G02*
X116648999Y-83374000I249999J0D01*
G01*
X117349001Y-83374000D01*
G75*
G02*
X117599000Y-83623999I0J-249999D01*
G01*
X117599000Y-84524001D01*
G75*
G02*
X117349001Y-84774000I-249999J0D01*
G01*
X116648999Y-84774000D01*
G75*
G02*
X116399000Y-84524001I0J249999D01*
G01*
G37*
%TD.AperFunction*%
%TD*%
D10*
%TO.P,J2,1*%
%TO.N,GND*%
X117963000Y-45720000D03*
%TO.P,J2,2*%
%TO.N,+5V*%
X112923000Y-45720000D03*
%TO.P,J2,3*%
%TO.N,A11*%
X117963000Y-48260000D03*
%TO.P,J2,4*%
%TO.N,N/C*%
X112923000Y-48260000D03*
%TO.P,J2,5*%
%TO.N,A10*%
X117963000Y-50800000D03*
%TO.P,J2,6*%
%TO.N,A12*%
X112923000Y-50800000D03*
%TO.P,J2,7*%
%TO.N,A9*%
X117963000Y-53340000D03*
%TO.P,J2,8*%
%TO.N,A13*%
X112923000Y-53340000D03*
%TO.P,J2,9*%
%TO.N,A8*%
X117963000Y-55880000D03*
%TO.P,J2,10*%
%TO.N,A14*%
X112923000Y-55880000D03*
%TO.P,J2,11*%
%TO.N,A7*%
X117963000Y-58420000D03*
%TO.P,J2,12*%
%TO.N,N/C*%
X112923000Y-58420000D03*
%TO.P,J2,13*%
%TO.N,A6*%
X117963000Y-60960000D03*
%TO.P,J2,14*%
%TO.N,Addr_A1*%
X112923000Y-60960000D03*
%TO.P,J2,15*%
%TO.N,A5*%
X117963000Y-63500000D03*
%TO.P,J2,16*%
%TO.N,Addr_A13*%
X112923000Y-63500000D03*
%TO.P,J2,17*%
%TO.N,A4*%
X117963000Y-66040000D03*
%TO.P,J2,18*%
%TO.N,Addr_A14*%
X112923000Y-66040000D03*
%TO.P,J2,19*%
%TO.N,A3*%
X117963000Y-68580000D03*
%TO.P,J2,20*%
%TO.N,Addr_ROMSEL*%
X112923000Y-68580000D03*
%TO.P,J2,21*%
%TO.N,A2*%
X117963000Y-71120000D03*
%TO.P,J2,22*%
%TO.N,Addr_R-W*%
X112923000Y-71120000D03*
%TO.P,J2,23*%
%TO.N,A1*%
X117963000Y-73660000D03*
%TO.P,J2,24*%
%TO.N,N/C*%
X112923000Y-73660000D03*
%TO.P,J2,25*%
%TO.N,A0*%
X117963000Y-76200000D03*
%TO.P,J2,26*%
%TO.N,N/C*%
X112923000Y-76200000D03*
%TO.P,J2,27*%
%TO.N,R-W*%
X117963000Y-78740000D03*
%TO.P,J2,28*%
%TO.N,ROMSEL*%
X112923000Y-78740000D03*
%TO.P,J2,29*%
%TO.N,N/C*%
X117963000Y-81280000D03*
%TO.P,J2,30*%
X112923000Y-81280000D03*
%TD*%
D11*
%TO.P,J3,30*%
%TO.N,+5VA*%
X71628000Y-119380000D03*
%TO.P,J3,29*%
%TO.N,PPU_D3*%
X71628000Y-116840000D03*
%TO.P,J3,28*%
%TO.N,PPU_D2*%
X71628000Y-114300000D03*
%TO.P,J3,27*%
%TO.N,PPU_D1*%
X71628000Y-111760000D03*
%TO.P,J3,26*%
%TO.N,PPU_D0*%
X71628000Y-109220000D03*
%TO.P,J3,25*%
%TO.N,PPU_A0*%
X71628000Y-106680000D03*
%TO.P,J3,24*%
%TO.N,PPU_A1*%
X71628000Y-104140000D03*
%TO.P,J3,23*%
%TO.N,PPU_A2*%
X71628000Y-101600000D03*
%TO.P,J3,22*%
%TO.N,PPU_A3*%
X71628000Y-99060000D03*
%TO.P,J3,21*%
%TO.N,PPU_A4*%
X71628000Y-96520000D03*
%TO.P,J3,20*%
%TO.N,PPU_A5*%
X71628000Y-93980000D03*
%TO.P,J3,19*%
%TO.N,PPU_A6*%
X71628000Y-91440000D03*
%TO.P,J3,18*%
%TO.N,CIRAM_A10*%
X71628000Y-88900000D03*
%TO.P,J3,17*%
%TO.N,PPU_RD*%
X71628000Y-86360000D03*
%TO.P,J3,16*%
%TO.N,GND1*%
X71628000Y-83820000D03*
%TO.P,J3,15*%
%TO.N,IRQ*%
X71628000Y-81280000D03*
%TO.P,J3,14*%
%TO.N,R-W*%
X71628000Y-78740000D03*
%TO.P,J3,13*%
%TO.N,A0*%
X71628000Y-76200000D03*
%TO.P,J3,12*%
%TO.N,A1*%
X71628000Y-73660000D03*
%TO.P,J3,11*%
%TO.N,A2*%
X71628000Y-71120000D03*
%TO.P,J3,10*%
%TO.N,A3*%
X71628000Y-68580000D03*
%TO.P,J3,9*%
%TO.N,A4*%
X71628000Y-66040000D03*
%TO.P,J3,8*%
%TO.N,A5*%
X71628000Y-63500000D03*
%TO.P,J3,7*%
%TO.N,A6*%
X71628000Y-60960000D03*
%TO.P,J3,6*%
%TO.N,A7*%
X71628000Y-58420000D03*
%TO.P,J3,5*%
%TO.N,A8*%
X71628000Y-55880000D03*
%TO.P,J3,4*%
%TO.N,A9*%
X71628000Y-53340000D03*
%TO.P,J3,3*%
%TO.N,A10*%
X71628000Y-50800000D03*
%TO.P,J3,2*%
%TO.N,A11*%
X71628000Y-48260000D03*
%TO.P,J3,1*%
%TO.N,GND*%
X71628000Y-45720000D03*
%TD*%
%TO.P,J9,30*%
%TO.N,+5VA*%
X128270000Y-119380000D03*
%TO.P,J9,29*%
%TO.N,PPU_D3*%
X128270000Y-116840000D03*
%TO.P,J9,28*%
%TO.N,PPU_D2*%
X128270000Y-114300000D03*
%TO.P,J9,27*%
%TO.N,PPU_D1*%
X128270000Y-111760000D03*
%TO.P,J9,26*%
%TO.N,PPU_D0*%
X128270000Y-109220000D03*
%TO.P,J9,25*%
%TO.N,PPU_A0*%
X128270000Y-106680000D03*
%TO.P,J9,24*%
%TO.N,PPU_A1*%
X128270000Y-104140000D03*
%TO.P,J9,23*%
%TO.N,PPU_A2*%
X128270000Y-101600000D03*
%TO.P,J9,22*%
%TO.N,PPU_A3*%
X128270000Y-99060000D03*
%TO.P,J9,21*%
%TO.N,PPU_A4*%
X128270000Y-96520000D03*
%TO.P,J9,20*%
%TO.N,PPU_A5*%
X128270000Y-93980000D03*
%TO.P,J9,19*%
%TO.N,PPU_A6*%
X128270000Y-91440000D03*
%TO.P,J9,18*%
%TO.N,CIRAM_A10*%
X128270000Y-88900000D03*
%TO.P,J9,17*%
%TO.N,PPU_RD*%
X128270000Y-86360000D03*
%TO.P,J9,16*%
%TO.N,GND1*%
X128270000Y-83820000D03*
%TO.P,J9,15*%
%TO.N,IRQ*%
X128270000Y-81280000D03*
%TO.P,J9,14*%
%TO.N,R-W*%
X128270000Y-78740000D03*
%TO.P,J9,13*%
%TO.N,A0*%
X128270000Y-76200000D03*
%TO.P,J9,12*%
%TO.N,A1*%
X128270000Y-73660000D03*
%TO.P,J9,11*%
%TO.N,A2*%
X128270000Y-71120000D03*
%TO.P,J9,10*%
%TO.N,A3*%
X128270000Y-68580000D03*
%TO.P,J9,9*%
%TO.N,A4*%
X128270000Y-66040000D03*
%TO.P,J9,8*%
%TO.N,A5*%
X128270000Y-63500000D03*
%TO.P,J9,7*%
%TO.N,A6*%
X128270000Y-60960000D03*
%TO.P,J9,6*%
%TO.N,A7*%
X128270000Y-58420000D03*
%TO.P,J9,5*%
%TO.N,A8*%
X128270000Y-55880000D03*
%TO.P,J9,4*%
%TO.N,A9*%
X128270000Y-53340000D03*
%TO.P,J9,3*%
%TO.N,A10*%
X128270000Y-50800000D03*
%TO.P,J9,2*%
%TO.N,A11*%
X128270000Y-48260000D03*
%TO.P,J9,1*%
%TO.N,GND*%
X128270000Y-45720000D03*
%TD*%
D12*
%TO.P,J1,2*%
%TO.N,OUT1*%
X96012000Y-44069000D03*
D13*
%TO.P,J1,1*%
%TO.N,GND*%
X96012000Y-41529000D03*
%TD*%
D14*
%TO.N,+5V*%
X84074000Y-81915000D03*
X113016100Y-94596700D03*
X110657600Y-117569300D03*
X94939500Y-68663200D03*
X106558900Y-105138600D03*
X106425200Y-114368600D03*
X90605600Y-64745500D03*
X115443000Y-45720000D03*
X90678000Y-45720000D03*
X95504000Y-81915000D03*
%TO.N,GND*%
X94859600Y-94725800D03*
X104040100Y-99725500D03*
X107822800Y-118639800D03*
X93220000Y-104882600D03*
X107047200Y-65184200D03*
X107347300Y-58250200D03*
%TO.N,D6*%
X121168100Y-61574200D03*
X108067300Y-64872000D03*
X114748400Y-59905900D03*
%TO.N,D4*%
X119996100Y-62674600D03*
X106300900Y-67000900D03*
X95503300Y-64882800D03*
%TO.N,D3*%
X95525700Y-63817500D03*
X115329300Y-65023100D03*
X90503828Y-70678272D03*
X82169000Y-68834000D03*
%TO.N,D2*%
X115312400Y-72303100D03*
X96565500Y-65873400D03*
X92729814Y-75216786D03*
X80645000Y-71882000D03*
X93889990Y-70515500D03*
%TO.N,D1*%
X115866600Y-74977100D03*
X90329021Y-76823549D03*
X79248000Y-74676000D03*
%TO.N,D0*%
X120032300Y-77025400D03*
X78359000Y-77216000D03*
X92980097Y-78307031D03*
%TO.N,OUT1*%
X98776800Y-70569500D03*
X95962300Y-58372700D03*
%TO.N,A0_buf*%
X104630500Y-95704200D03*
X100375200Y-94416900D03*
X97290800Y-68987700D03*
X96577800Y-62324300D03*
%TO.N,D3_buf*%
X89655491Y-70077440D03*
X89662000Y-60071000D03*
%TO.N,D2_buf*%
X84602100Y-59732000D03*
X88910563Y-69332512D03*
%TO.N,D1_buf*%
X84789800Y-62108400D03*
X87184213Y-69267893D03*
%TO.N,D6_buf*%
X100702900Y-63276000D03*
X96655100Y-60129200D03*
%TO.N,D7_Chip*%
X106482600Y-61108000D03*
X102356700Y-95091800D03*
X102736800Y-104065300D03*
X97295751Y-71275887D03*
%TO.N,D5_Chip*%
X103127200Y-59948700D03*
X101478900Y-69639300D03*
X100426100Y-95417300D03*
X100426100Y-98276700D03*
%TO.N,D4_Chip*%
X102520400Y-63776900D03*
X93889990Y-71515900D03*
%TO.N,D3_Chip*%
X89496300Y-94974400D03*
X96746500Y-104745400D03*
%TO.N,OUT1_*%
X101409800Y-68045700D03*
X97400400Y-59113400D03*
%TO.N,A13*%
X110622000Y-52689500D03*
%TO.N,CS_Chip*%
X108242400Y-91322900D03*
X108242400Y-115411900D03*
%TO.N,A0_Chip*%
X105360100Y-99596500D03*
X105092400Y-114368600D03*
%TO.N,A1_Chip*%
X107454300Y-100924500D03*
X107321000Y-113776500D03*
%TO.N,CS_buf*%
X109591200Y-114368600D03*
X109591200Y-91313000D03*
%TO.N,Aud*%
X115306000Y-82371800D03*
X78613000Y-82550000D03*
%TO.N,A14*%
X115382800Y-55154800D03*
%TO.N,ROMSEL*%
X120691200Y-77788500D03*
X78363660Y-78961190D03*
%TO.N,AudIn*%
X78486002Y-83947000D03*
%TO.N,4016_EN*%
X114265800Y-114187100D03*
X112346400Y-105413900D03*
%TO.N,Net-(R14-Pad2)*%
X119299200Y-120979800D03*
X118048500Y-127294300D03*
%TO.N,FF_Reset*%
X108593500Y-119365200D03*
X86650100Y-95680500D03*
%TO.N,IRQ*%
X110540400Y-81568800D03*
X111067600Y-91252700D03*
X109876600Y-115374300D03*
%TO.N,A6*%
X116002100Y-59612700D03*
X77238200Y-60742990D03*
%TO.N,A7*%
X83214400Y-57363100D03*
X108417500Y-57594600D03*
%TO.N,A8*%
X113701800Y-54618500D03*
X77791100Y-55879300D03*
%TO.N,A10*%
X77709900Y-50043400D03*
X115130600Y-49792900D03*
%TO.N,A11*%
X78130000Y-47758000D03*
X115826000Y-47677000D03*
%TO.N,PPU_A8*%
X90170000Y-108585000D03*
X83312000Y-101727000D03*
%TO.N,PPU_A7*%
X120180800Y-90617500D03*
X78105000Y-93218000D03*
%TO.N,PPU_A13_*%
X115881100Y-89922000D03*
X80772000Y-93065032D03*
%TO.N,CIRAM_CE*%
X115431200Y-87120400D03*
X79756002Y-87630000D03*
%TO.N,PPU_WR*%
X115300900Y-85637900D03*
X78867004Y-85852000D03*
%TO.N,A12*%
X115070700Y-50800000D03*
%TO.N,Addr_A1*%
X108244700Y-62874000D03*
%TO.N,Addr_A13*%
X115033500Y-63614200D03*
X115822900Y-93015000D03*
X111437400Y-95373800D03*
%TO.N,Addr_A14*%
X107773500Y-69415300D03*
%TO.N,Addr_ROMSEL*%
X110289100Y-69611300D03*
%TO.N,Addr_R-W*%
X110056400Y-72133100D03*
%TO.N,A9*%
X80634100Y-53287400D03*
X115216094Y-53340006D03*
%TO.N,Net-(J4-Pad16)*%
X121031000Y-84074000D03*
%TO.N,Net-(C9-Pad2)*%
X87884000Y-80427990D03*
X83566000Y-80411210D03*
%TD*%
D15*
%TO.N,+5V*%
X110657600Y-117569300D02*
X111420300Y-116806600D01*
X111420300Y-116806600D02*
X111420300Y-100238800D01*
X111420300Y-100238800D02*
X113016100Y-98643000D01*
X113016100Y-98643000D02*
X113016100Y-94596700D01*
X90605600Y-64745500D02*
X91021800Y-64745500D01*
X91021800Y-64745500D02*
X94939500Y-68663200D01*
X106425200Y-114368600D02*
X106425200Y-114824000D01*
X106425200Y-114824000D02*
X109170500Y-117569300D01*
X109170500Y-117569300D02*
X110657600Y-117569300D01*
X106558900Y-105138600D02*
X106425200Y-105272300D01*
X106425200Y-105272300D02*
X106425200Y-114368600D01*
D16*
X112923000Y-45720000D02*
X115443000Y-45720000D01*
X90678000Y-64673100D02*
X90605600Y-64745500D01*
X90678000Y-45720000D02*
X90678000Y-64673100D01*
D15*
X84074000Y-81915000D02*
X95504000Y-81915000D01*
X95504000Y-81915000D02*
X95504000Y-81915000D01*
%TO.N,GND*%
X97532900Y-105595700D02*
X97616100Y-105512500D01*
X97616100Y-105512500D02*
X97616100Y-97482300D01*
X97616100Y-97482300D02*
X94859600Y-94725800D01*
X97532900Y-105595700D02*
X100004000Y-108066700D01*
X93220000Y-104882600D02*
X93933100Y-105595700D01*
X93933100Y-105595700D02*
X97532900Y-105595700D01*
X107047200Y-65184200D02*
X107047200Y-62505800D01*
X107047200Y-62505800D02*
X107347300Y-62205700D01*
X107347300Y-62205700D02*
X107347300Y-58250200D01*
X100004000Y-108066700D02*
X100004000Y-108066800D01*
X100004000Y-108066800D02*
X100004000Y-110821000D01*
X100004000Y-110821000D02*
X107822800Y-118639800D01*
X104040100Y-99725500D02*
X104040100Y-104030600D01*
X104040100Y-104030600D02*
X100004000Y-108066700D01*
D16*
X128270000Y-45720000D02*
X117963000Y-45720000D01*
X99102999Y-44619999D02*
X96012000Y-41529000D01*
X117963000Y-45720000D02*
X116862999Y-44619999D01*
X107347300Y-44736300D02*
X107230999Y-44619999D01*
X107347300Y-58250200D02*
X107347300Y-44736300D01*
X107230999Y-44619999D02*
X99102999Y-44619999D01*
X116862999Y-44619999D02*
X107230999Y-44619999D01*
X71628000Y-45720000D02*
X82786771Y-45720000D01*
X82786771Y-45720000D02*
X86977771Y-41529000D01*
X86977771Y-41529000D02*
X96012000Y-41529000D01*
D17*
%TO.N,D6*%
X114748400Y-61706500D02*
X114827300Y-61785400D01*
X114827300Y-61785400D02*
X120956900Y-61785400D01*
X120956900Y-61785400D02*
X121168100Y-61574200D01*
X114748400Y-59905900D02*
X114748400Y-61706500D01*
X114748400Y-61706500D02*
X114609400Y-61845500D01*
X114609400Y-61845500D02*
X111093800Y-61845500D01*
X111093800Y-61845500D02*
X108067300Y-64872000D01*
%TO.N,D4*%
X119996100Y-62674600D02*
X111270300Y-62674600D01*
X111270300Y-62674600D02*
X109313800Y-64631100D01*
X109313800Y-64631100D02*
X109313800Y-64730800D01*
X109313800Y-64730800D02*
X107043700Y-67000900D01*
X107043700Y-67000900D02*
X106300900Y-67000900D01*
X96115200Y-68151500D02*
X96115200Y-69174900D01*
X94468800Y-69855100D02*
X94404198Y-69790498D01*
X95503300Y-64882800D02*
X95503300Y-67539600D01*
X96115200Y-69174900D02*
X95435000Y-69855100D01*
X94404198Y-69790498D02*
X93541988Y-69790498D01*
X93541988Y-69790498D02*
X93164988Y-70167498D01*
X93542286Y-72241200D02*
X101060600Y-72241200D01*
X93164988Y-71863902D02*
X93542286Y-72241200D01*
X95503300Y-67539600D02*
X96115200Y-68151500D01*
X95435000Y-69855100D02*
X94468800Y-69855100D01*
X101060600Y-72241200D02*
X106300900Y-67000900D01*
X93164988Y-70167498D02*
X93164988Y-71863902D01*
%TO.N,D3*%
X92170800Y-71312400D02*
X91137956Y-71312400D01*
X91137956Y-71312400D02*
X90503828Y-70678272D01*
X85214998Y-71879998D02*
X82169000Y-68834000D01*
X90503828Y-70678272D02*
X89302102Y-71879998D01*
X89302102Y-71879998D02*
X85214998Y-71879998D01*
X94777900Y-64565300D02*
X94777900Y-67451100D01*
X95525700Y-63817500D02*
X94777900Y-64565300D01*
X95664900Y-68338100D02*
X95664900Y-68988300D01*
X93355588Y-69340487D02*
X92170800Y-70525275D01*
X94591087Y-69340487D02*
X93355588Y-69340487D01*
X94777900Y-67451100D02*
X95664900Y-68338100D01*
X93356175Y-72691500D02*
X102089800Y-72691500D01*
X102089800Y-72691500D02*
X109758200Y-65023100D01*
X94639100Y-69388500D02*
X94591087Y-69340487D01*
X92170800Y-71506125D02*
X93356175Y-72691500D01*
X95264700Y-69388500D02*
X94639100Y-69388500D01*
X95664900Y-68988300D02*
X95264700Y-69388500D01*
X109758200Y-65023100D02*
X115329300Y-65023100D01*
X92170800Y-71312400D02*
X92170800Y-71506125D01*
X92170800Y-70525275D02*
X92170800Y-71312400D01*
%TO.N,D2*%
X92728500Y-75210100D02*
X102988800Y-75210100D01*
X102988800Y-75210100D02*
X104389100Y-73809800D01*
X104389100Y-73809800D02*
X110042600Y-73809800D01*
X110042600Y-73809800D02*
X111078000Y-72774400D01*
X111078000Y-72774400D02*
X114841100Y-72774400D01*
X114841100Y-72774400D02*
X115312400Y-72303100D01*
X92728500Y-75215472D02*
X92729814Y-75216786D01*
X92728500Y-75210100D02*
X92728500Y-75215472D01*
X92728500Y-75210100D02*
X85047513Y-75210100D01*
X83279988Y-74516988D02*
X80645000Y-71882000D01*
X84354401Y-74516988D02*
X83279988Y-74516988D01*
X85047513Y-75210100D02*
X84354401Y-74516988D01*
X95411500Y-70515500D02*
X93889990Y-70515500D01*
X96565500Y-69361500D02*
X95411500Y-70515500D01*
X96565500Y-65873400D02*
X96565500Y-69361500D01*
%TO.N,D1*%
X115866600Y-74977100D02*
X108958300Y-74977100D01*
X108958300Y-74977100D02*
X107171900Y-76763500D01*
X107171900Y-76763500D02*
X86409700Y-76763500D01*
X86409700Y-76763500D02*
X90268972Y-76763500D01*
X90268972Y-76763500D02*
X90329021Y-76823549D01*
X86409700Y-76763500D02*
X81335500Y-76763500D01*
X81335500Y-76763500D02*
X79647999Y-75075999D01*
X79647999Y-75075999D02*
X79248000Y-74676000D01*
%TO.N,D0*%
X120032300Y-77025400D02*
X115893800Y-77025400D01*
X115893800Y-77025400D02*
X115004500Y-77914700D01*
X115004500Y-77914700D02*
X92710900Y-77914700D01*
X92710900Y-77914700D02*
X92478700Y-78146900D01*
X92478700Y-78146900D02*
X79289900Y-78146900D01*
X79289900Y-78146900D02*
X78359000Y-77216000D01*
X92478700Y-78146900D02*
X92638831Y-78307031D01*
X92638831Y-78307031D02*
X92980097Y-78307031D01*
%TO.N,OUT1*%
X95962300Y-58372700D02*
X95909300Y-58425700D01*
X95909300Y-58425700D02*
X95909300Y-60477400D01*
X95909300Y-60477400D02*
X98776800Y-63344900D01*
X98776800Y-63344900D02*
X98776800Y-70569500D01*
X96012000Y-58323000D02*
X95962300Y-58372700D01*
X96012000Y-44069000D02*
X96012000Y-58323000D01*
%TO.N,A0_buf*%
X96577800Y-62324300D02*
X97290800Y-63037300D01*
X97290800Y-63037300D02*
X97290800Y-68987700D01*
X104630500Y-95704200D02*
X103277500Y-94351200D01*
X103277500Y-94351200D02*
X100440900Y-94351200D01*
X100440900Y-94351200D02*
X100375200Y-94416900D01*
%TO.N,D3_buf*%
X89655491Y-70077440D02*
X89655491Y-60077509D01*
X89655491Y-60077509D02*
X89662000Y-60071000D01*
%TO.N,D2_buf*%
X84602100Y-59732000D02*
X88910563Y-64040463D01*
X88910563Y-64040463D02*
X88910563Y-69332512D01*
%TO.N,D1_buf*%
X84789800Y-66873480D02*
X87184213Y-69267893D01*
X84789800Y-62108400D02*
X84789800Y-66873480D01*
%TO.N,D6_buf*%
X100702900Y-63276000D02*
X99801900Y-63276000D01*
X99801900Y-63276000D02*
X96655100Y-60129200D01*
%TO.N,D7_Chip*%
X102736800Y-104065300D02*
X102356700Y-103685200D01*
X102356700Y-103685200D02*
X102356700Y-95091800D01*
X100399113Y-71754887D02*
X97774751Y-71754887D01*
X97774751Y-71754887D02*
X97295751Y-71275887D01*
X106082601Y-66071399D02*
X100399113Y-71754887D01*
X106082601Y-61507999D02*
X106082601Y-66071399D01*
X106482600Y-61108000D02*
X106082601Y-61507999D01*
%TO.N,D5_Chip*%
X101478900Y-69639300D02*
X103288800Y-67829400D01*
X103288800Y-67829400D02*
X103288800Y-60110300D01*
X103288800Y-60110300D02*
X103127200Y-59948700D01*
X100426100Y-98276700D02*
X100426100Y-95417300D01*
%TO.N,D4_Chip*%
X96947749Y-70550885D02*
X95982734Y-71515900D01*
X97732485Y-70550885D02*
X96947749Y-70550885D01*
X102520400Y-63776900D02*
X102520400Y-67960900D01*
X98476400Y-71294800D02*
X97732485Y-70550885D01*
X99082500Y-71294800D02*
X98476400Y-71294800D01*
X99558600Y-70818700D02*
X99082500Y-71294800D01*
X102520400Y-67960900D02*
X101710300Y-68771000D01*
X95982734Y-71515900D02*
X93889990Y-71515900D01*
X101710300Y-68771000D02*
X101298100Y-68771000D01*
X101298100Y-68771000D02*
X99558600Y-70510500D01*
X99558600Y-70510500D02*
X99558600Y-70818700D01*
%TO.N,D3_Chip*%
X96746500Y-104745400D02*
X89496300Y-97495200D01*
X89496300Y-97495200D02*
X89496300Y-94974400D01*
%TO.N,OUT1_*%
X97400400Y-59113400D02*
X97574200Y-59113400D01*
X97574200Y-59113400D02*
X101465200Y-63004400D01*
X101465200Y-63004400D02*
X101465200Y-67990300D01*
X101465200Y-67990300D02*
X101409800Y-68045700D01*
%TO.N,A13*%
X111097700Y-53340000D02*
X110622000Y-52864300D01*
X110622000Y-52864300D02*
X110622000Y-52689500D01*
X112923000Y-53340000D02*
X111097700Y-53340000D01*
%TO.N,A1*%
X128270000Y-73660000D02*
X117963000Y-73660000D01*
X78301998Y-73660000D02*
X71628000Y-73660000D01*
X81871802Y-75972800D02*
X79559002Y-73660000D01*
X103678700Y-75972800D02*
X81871802Y-75972800D01*
X105166200Y-74485300D02*
X103678700Y-75972800D01*
X115312400Y-74485300D02*
X105166200Y-74485300D01*
X79559002Y-73660000D02*
X78301998Y-73660000D01*
X116137700Y-73660000D02*
X115312400Y-74485300D01*
X117963000Y-73660000D02*
X116137700Y-73660000D01*
%TO.N,CS_Chip*%
X108242400Y-91322900D02*
X108242400Y-115411900D01*
%TO.N,A0_Chip*%
X105360100Y-99596500D02*
X105092400Y-99864200D01*
X105092400Y-99864200D02*
X105092400Y-114368600D01*
%TO.N,A1_Chip*%
X107454300Y-100924500D02*
X107454300Y-113643200D01*
X107454300Y-113643200D02*
X107321000Y-113776500D01*
%TO.N,CS_buf*%
X109591200Y-91313000D02*
X109591200Y-114368600D01*
%TO.N,Aud*%
X96247001Y-82949999D02*
X79012999Y-82949999D01*
X79012999Y-82949999D02*
X78613000Y-82550000D01*
X96825200Y-82371800D02*
X96247001Y-82949999D01*
X115306000Y-82371800D02*
X96825200Y-82371800D01*
%TO.N,A14*%
X114748300Y-55880000D02*
X115382800Y-55245500D01*
X115382800Y-55245500D02*
X115382800Y-55154800D01*
X112923000Y-55880000D02*
X114748300Y-55880000D01*
%TO.N,ROMSEL*%
X114748300Y-78740000D02*
X114816100Y-78740000D01*
X114816100Y-78740000D02*
X115767600Y-77788500D01*
X115767600Y-77788500D02*
X120691200Y-77788500D01*
X112923000Y-78740000D02*
X114748300Y-78740000D01*
X78638660Y-79236190D02*
X78363660Y-78961190D01*
X112923000Y-78740000D02*
X112426810Y-79236190D01*
X112426810Y-79236190D02*
X78638660Y-79236190D01*
%TO.N,R-W*%
X118875700Y-78740000D02*
X117963000Y-78740000D01*
X118875700Y-78740000D02*
X119788300Y-78740000D01*
X128270000Y-78740000D02*
X122944700Y-78740000D01*
X122944700Y-78740000D02*
X119788300Y-78740000D01*
X77089000Y-78740000D02*
X71628000Y-78740000D01*
X78035200Y-79686200D02*
X77089000Y-78740000D01*
X117766800Y-79686200D02*
X78035200Y-79686200D01*
X117963000Y-78740000D02*
X117963000Y-79490000D01*
X117963000Y-79490000D02*
X117766800Y-79686200D01*
%TO.N,AudIn*%
X98220658Y-83947000D02*
X78486002Y-83947000D01*
X116999000Y-84074000D02*
X104543292Y-84074000D01*
X99316762Y-82850896D02*
X98220658Y-83947000D01*
X103320188Y-82850896D02*
X99316762Y-82850896D01*
X104543292Y-84074000D02*
X103320188Y-82850896D01*
%TO.N,4016_EN*%
X112346400Y-105413900D02*
X114265800Y-107333300D01*
X114265800Y-107333300D02*
X114265800Y-114187100D01*
%TO.N,Net-(R14-Pad2)*%
X118048500Y-127294300D02*
X118048500Y-122230500D01*
X118048500Y-122230500D02*
X119299200Y-120979800D01*
%TO.N,FF_Reset*%
X86650100Y-95680500D02*
X86650100Y-99345900D01*
X86650100Y-99345900D02*
X106669400Y-119365200D01*
X106669400Y-119365200D02*
X108593500Y-119365200D01*
%TO.N,PPU_D3*%
X76953300Y-116840000D02*
X99468100Y-116840000D01*
X99468100Y-116840000D02*
X105451600Y-122823500D01*
X105451600Y-122823500D02*
X113994300Y-122823500D01*
X113994300Y-122823500D02*
X119977700Y-116840100D01*
X119977700Y-116840100D02*
X122944700Y-116840100D01*
X122944700Y-116840100D02*
X122944700Y-116840000D01*
X71628000Y-116840000D02*
X76953300Y-116840000D01*
X128270000Y-116840000D02*
X122944700Y-116840000D01*
%TO.N,PPU_D2*%
X71628000Y-114300000D02*
X97565000Y-114300000D01*
X97565000Y-114300000D02*
X105638200Y-122373200D01*
X105638200Y-122373200D02*
X113339300Y-122373200D01*
X113339300Y-122373200D02*
X121412500Y-114300000D01*
X121412500Y-114300000D02*
X122944700Y-114300000D01*
X128270000Y-114300000D02*
X122944700Y-114300000D01*
%TO.N,PPU_D1*%
X76953300Y-111760000D02*
X78040600Y-112847300D01*
X78040600Y-112847300D02*
X96749200Y-112847300D01*
X96749200Y-112847300D02*
X105824800Y-121922900D01*
X105824800Y-121922900D02*
X112781800Y-121922900D01*
X112781800Y-121922900D02*
X122944700Y-111760000D01*
X71628000Y-111760000D02*
X76953300Y-111760000D01*
X128270000Y-111760000D02*
X122944700Y-111760000D01*
%TO.N,PPU_D0*%
X76953300Y-109220000D02*
X79947200Y-112213900D01*
X79947200Y-112213900D02*
X96752700Y-112213900D01*
X96752700Y-112213900D02*
X106011400Y-121472600D01*
X106011400Y-121472600D02*
X110692100Y-121472600D01*
X110692100Y-121472600D02*
X122944700Y-109220000D01*
X128270000Y-109220000D02*
X122944700Y-109220000D01*
X71628000Y-109220000D02*
X76953300Y-109220000D01*
%TO.N,PPU_A0*%
X76953300Y-106680000D02*
X81893400Y-111620100D01*
X81893400Y-111620100D02*
X96795800Y-111620100D01*
X96795800Y-111620100D02*
X106198000Y-121022300D01*
X106198000Y-121022300D02*
X109813800Y-121022300D01*
X109813800Y-121022300D02*
X122944700Y-107891400D01*
X122944700Y-107891400D02*
X122944700Y-106680000D01*
X71628000Y-106680000D02*
X76953300Y-106680000D01*
X128270000Y-106680000D02*
X122944700Y-106680000D01*
%TO.N,PPU_A1*%
X76953300Y-104140000D02*
X83983100Y-111169800D01*
X83983100Y-111169800D02*
X96982400Y-111169800D01*
X96982400Y-111169800D02*
X106384600Y-120572000D01*
X106384600Y-120572000D02*
X109589600Y-120572000D01*
X109589600Y-120572000D02*
X118911700Y-111249900D01*
X118911700Y-111249900D02*
X118911700Y-108173000D01*
X118911700Y-108173000D02*
X122944700Y-104140000D01*
X71628000Y-104140000D02*
X76953300Y-104140000D01*
X128270000Y-104140000D02*
X122944700Y-104140000D01*
%TO.N,PPU_A2*%
X71628000Y-101600000D02*
X81913700Y-101600000D01*
X81913700Y-101600000D02*
X90631900Y-110318200D01*
X90631900Y-110318200D02*
X96767700Y-110318200D01*
X96767700Y-110318200D02*
X106571200Y-120121700D01*
X106571200Y-120121700D02*
X109377400Y-120121700D01*
X109377400Y-120121700D02*
X115216300Y-114282800D01*
X115216300Y-114282800D02*
X115216300Y-109328400D01*
X115216300Y-109328400D02*
X122944700Y-101600000D01*
X128270000Y-101600000D02*
X122944700Y-101600000D01*
%TO.N,PPU_A3*%
X104843300Y-93691500D02*
X108017800Y-90517000D01*
X71628000Y-99060000D02*
X79313468Y-99060000D01*
X84681968Y-93691500D02*
X104843300Y-93691500D01*
X79313468Y-99060000D02*
X84681968Y-93691500D01*
X123020000Y-99060000D02*
X128270000Y-99060000D01*
X114507500Y-90547500D02*
X123020000Y-99060000D01*
X114009500Y-90547500D02*
X114507500Y-90547500D01*
X108017800Y-90517000D02*
X113979000Y-90517000D01*
X113979000Y-90517000D02*
X114009500Y-90547500D01*
%TO.N,PPU_A4*%
X114196100Y-90097200D02*
X114797900Y-90097200D01*
X114165600Y-90066700D02*
X114196100Y-90097200D01*
X114797900Y-90097200D02*
X121220700Y-96520000D01*
X104333400Y-93241200D02*
X107507900Y-90066700D01*
X107507900Y-90066700D02*
X114165600Y-90066700D01*
X121220700Y-96520000D02*
X128270000Y-96520000D01*
X81217056Y-96520000D02*
X84495856Y-93241200D01*
X84495856Y-93241200D02*
X104333400Y-93241200D01*
X71628000Y-96520000D02*
X81217056Y-96520000D01*
%TO.N,PPU_A5*%
X103323300Y-92340600D02*
X106512000Y-89151900D01*
X80195976Y-92340022D02*
X81221024Y-92340022D01*
X114569300Y-89196600D02*
X117524400Y-89196600D01*
X81221024Y-92340022D02*
X81221602Y-92340600D01*
X81221602Y-92340600D02*
X103323300Y-92340600D01*
X117524400Y-89196600D02*
X122307800Y-93980000D01*
X123020000Y-93980000D02*
X128270000Y-93980000D01*
X78555998Y-93980000D02*
X80195976Y-92340022D01*
X71628000Y-93980000D02*
X78555998Y-93980000D01*
X106512000Y-89151900D02*
X114524600Y-89151900D01*
X114524600Y-89151900D02*
X114569300Y-89196600D01*
X122307800Y-93980000D02*
X123020000Y-93980000D01*
%TO.N,PPU_A6*%
X123020000Y-91440000D02*
X128270000Y-91440000D01*
X114942500Y-88296000D02*
X119876000Y-88296000D01*
X114897800Y-88251300D02*
X114942500Y-88296000D01*
X102700200Y-91440000D02*
X105888900Y-88251300D01*
X71628000Y-91440000D02*
X102700200Y-91440000D01*
X105888900Y-88251300D02*
X114897800Y-88251300D01*
X119876000Y-88296000D02*
X123020000Y-91440000D01*
%TO.N,CIRAM_A10*%
X128270000Y-87888000D02*
X128270000Y-88900000D01*
X115129100Y-87845700D02*
X128227700Y-87845700D01*
X128227700Y-87845700D02*
X128270000Y-87888000D01*
X115084400Y-87801000D02*
X115129100Y-87845700D01*
X102574588Y-90906620D02*
X105680208Y-87801000D01*
X81959618Y-90906620D02*
X102574588Y-90906620D01*
X105680208Y-87801000D02*
X115084400Y-87801000D01*
X79952998Y-88900000D02*
X81959618Y-90906620D01*
X71628000Y-88900000D02*
X79952998Y-88900000D01*
%TO.N,PPU_RD*%
X97372889Y-86704002D02*
X99875962Y-84200929D01*
X77793996Y-86360000D02*
X78137998Y-86704002D01*
X71628000Y-86360000D02*
X77793996Y-86360000D01*
X102760988Y-84200929D02*
X104923259Y-86363200D01*
X123016800Y-86363200D02*
X123020000Y-86360000D01*
X123020000Y-86360000D02*
X128270000Y-86360000D01*
X99875962Y-84200929D02*
X102760988Y-84200929D01*
X78137998Y-86704002D02*
X97372889Y-86704002D01*
X104923259Y-86363200D02*
X123016800Y-86363200D01*
%TO.N,IRQ*%
X122944700Y-81280000D02*
X122087600Y-80422900D01*
X122087600Y-80422900D02*
X111304900Y-80422900D01*
X111304900Y-80422900D02*
X110540400Y-81187400D01*
X110540400Y-81187400D02*
X110540400Y-81280000D01*
X110540400Y-81568800D02*
X110540400Y-81280000D01*
X111067600Y-91252700D02*
X110342000Y-91978300D01*
X110342000Y-91978300D02*
X110342000Y-114908900D01*
X110342000Y-114908900D02*
X109876600Y-115374300D01*
X128270000Y-81280000D02*
X122944700Y-81280000D01*
X110450399Y-81189999D02*
X110540400Y-81280000D01*
X83725999Y-81189999D02*
X110450399Y-81189999D01*
X83635998Y-81280000D02*
X83725999Y-81189999D01*
X71628000Y-81280000D02*
X83635998Y-81280000D01*
%TO.N,A0*%
X128270000Y-76200000D02*
X117963000Y-76200000D01*
X116082300Y-76200000D02*
X117963000Y-76200000D01*
X114881200Y-77401100D02*
X116082300Y-76200000D01*
X88969225Y-77562929D02*
X90608012Y-77562930D01*
X90769842Y-77401100D02*
X114881200Y-77401100D01*
X80996500Y-77313500D02*
X88719796Y-77313500D01*
X79883000Y-76200000D02*
X80996500Y-77313500D01*
X90608012Y-77562930D02*
X90769842Y-77401100D01*
X88719796Y-77313500D02*
X88969225Y-77562929D01*
X71628000Y-76200000D02*
X79883000Y-76200000D01*
%TO.N,A2*%
X128270000Y-71120000D02*
X117963000Y-71120000D01*
X103977600Y-73359500D02*
X109856000Y-73359500D01*
X93077815Y-74491785D02*
X93078730Y-74492700D01*
X109856000Y-73359500D02*
X111050700Y-72164800D01*
X114425000Y-72164800D02*
X115469800Y-71120000D01*
X84292741Y-74066977D02*
X84540800Y-74066977D01*
X116213000Y-71120000D02*
X117963000Y-71120000D01*
X71628000Y-71120000D02*
X76878000Y-71120000D01*
X77890000Y-70108000D02*
X80333765Y-70108000D01*
X76878000Y-71120000D02*
X77890000Y-70108000D01*
X84540800Y-74066977D02*
X84965608Y-74491785D01*
X84965608Y-74491785D02*
X93077815Y-74491785D01*
X93078730Y-74492700D02*
X102844400Y-74492700D01*
X102844400Y-74492700D02*
X103977600Y-73359500D01*
X111050700Y-72164800D02*
X114425000Y-72164800D01*
X80333765Y-70108000D02*
X84292741Y-74066977D01*
X115469800Y-71120000D02*
X116213000Y-71120000D01*
%TO.N,A3*%
X128270000Y-68580000D02*
X117963000Y-68580000D01*
X71628000Y-68580000D02*
X79442176Y-68580000D01*
X79442176Y-68580000D02*
X84479142Y-73616966D01*
X85152008Y-74041774D02*
X93264215Y-74041774D01*
X117484200Y-69808800D02*
X117963000Y-69330000D01*
X117963000Y-69330000D02*
X117963000Y-68580000D01*
X111117400Y-69808800D02*
X117484200Y-69808800D01*
X102649600Y-74042400D02*
X103782800Y-72909200D01*
X108017000Y-72909200D02*
X111117400Y-69808800D01*
X84479142Y-73616966D02*
X84727200Y-73616966D01*
X93264215Y-74041774D02*
X93264841Y-74042400D01*
X93264841Y-74042400D02*
X102649600Y-74042400D01*
X84727200Y-73616966D02*
X85152008Y-74041774D01*
X103782800Y-72909200D02*
X108017000Y-72909200D01*
%TO.N,A4*%
X128270000Y-66040000D02*
X117963000Y-66040000D01*
X93450952Y-73592100D02*
X102463000Y-73592100D01*
X117118900Y-67634100D02*
X117963000Y-66790000D01*
X111217400Y-67634100D02*
X117118900Y-67634100D01*
X93450615Y-73591763D02*
X93450952Y-73592100D01*
X84665542Y-73166955D02*
X84913600Y-73166955D01*
X102463000Y-73592100D02*
X103596200Y-72458900D01*
X117963000Y-66790000D02*
X117963000Y-66040000D01*
X103596200Y-72458900D02*
X106392600Y-72458900D01*
X71628000Y-66040000D02*
X77538587Y-66040000D01*
X84913600Y-73166955D02*
X85338408Y-73591763D01*
X85338408Y-73591763D02*
X93450615Y-73591763D01*
X77538587Y-66040000D02*
X84665542Y-73166955D01*
X106392600Y-72458900D02*
X111217400Y-67634100D01*
%TO.N,A5*%
X119788300Y-63500000D02*
X122944700Y-63500000D01*
X117963000Y-63500000D02*
X119788300Y-63500000D01*
X128270000Y-63500000D02*
X122944700Y-63500000D01*
X71628000Y-63500000D02*
X76953300Y-63500000D01*
X116137700Y-65325300D02*
X116137700Y-63500000D01*
X111349300Y-66865300D02*
X114597700Y-66865300D01*
X114597700Y-66865300D02*
X116137700Y-65325300D01*
X81443999Y-69309001D02*
X84851942Y-72716944D01*
X93637015Y-73141752D02*
X93637063Y-73141800D01*
X76953300Y-64521200D02*
X81443999Y-69011899D01*
X102276400Y-73141800D02*
X103409600Y-72008600D01*
X116137700Y-63500000D02*
X117963000Y-63500000D01*
X81443999Y-69011899D02*
X81443999Y-69309001D01*
X84851942Y-72716944D02*
X85100000Y-72716944D01*
X85524808Y-73141752D02*
X93637015Y-73141752D01*
X106206000Y-72008600D02*
X111349300Y-66865300D01*
X103409600Y-72008600D02*
X106206000Y-72008600D01*
X76953300Y-63500000D02*
X76953300Y-64521200D01*
X93637063Y-73141800D02*
X102276400Y-73141800D01*
X85100000Y-72716944D02*
X85524808Y-73141752D01*
%TO.N,A6*%
X128270000Y-60960000D02*
X122944700Y-60960000D01*
X122944700Y-60960000D02*
X122810300Y-60825600D01*
X122810300Y-60825600D02*
X119922700Y-60825600D01*
X119922700Y-60825600D02*
X119788300Y-60960000D01*
X117963000Y-60960000D02*
X119788300Y-60960000D01*
X116137700Y-60960000D02*
X116137700Y-59748300D01*
X116137700Y-59748300D02*
X116002100Y-59612700D01*
X117963000Y-60960000D02*
X116137700Y-60960000D01*
X77021190Y-60960000D02*
X77238200Y-60742990D01*
X71628000Y-60960000D02*
X77021190Y-60960000D01*
%TO.N,A7*%
X76953300Y-58420000D02*
X78010200Y-57363100D01*
X78010200Y-57363100D02*
X83214400Y-57363100D01*
X116137700Y-58420000D02*
X115312300Y-57594600D01*
X115312300Y-57594600D02*
X108417500Y-57594600D01*
X117963000Y-58420000D02*
X116137700Y-58420000D01*
X71628000Y-58420000D02*
X76953300Y-58420000D01*
X128270000Y-58420000D02*
X117963000Y-58420000D01*
%TO.N,A8*%
X116137700Y-55880000D02*
X116137700Y-54868100D01*
X116137700Y-54868100D02*
X115697100Y-54427500D01*
X115697100Y-54427500D02*
X113892800Y-54427500D01*
X113892800Y-54427500D02*
X113701800Y-54618500D01*
X71628000Y-55880000D02*
X76953300Y-55880000D01*
X117963000Y-55880000D02*
X116137700Y-55880000D01*
X76953300Y-55880000D02*
X76954000Y-55879300D01*
X76954000Y-55879300D02*
X77791100Y-55879300D01*
X128270000Y-55880000D02*
X117963000Y-55880000D01*
%TO.N,A10*%
X116137700Y-50800000D02*
X115130600Y-49792900D01*
X77709900Y-50043400D02*
X76953300Y-50800000D01*
X117963000Y-50800000D02*
X116137700Y-50800000D01*
X71628000Y-50800000D02*
X76953300Y-50800000D01*
X118073200Y-50800000D02*
X117963000Y-50800000D01*
X118073200Y-50800000D02*
X118183300Y-50800000D01*
X118875700Y-50800000D02*
X119788300Y-50800000D01*
X118875700Y-50800000D02*
X118183300Y-50800000D01*
X128270000Y-50800000D02*
X119788300Y-50800000D01*
%TO.N,A11*%
X117963000Y-48260000D02*
X116137700Y-48260000D01*
X71628000Y-48260000D02*
X76953300Y-48260000D01*
X78130000Y-47758000D02*
X77455300Y-47758000D01*
X77455300Y-47758000D02*
X76953300Y-48260000D01*
X116137700Y-48260000D02*
X116137700Y-47988700D01*
X116137700Y-47988700D02*
X115826000Y-47677000D01*
X128270000Y-48260000D02*
X117963000Y-48260000D01*
%TO.N,PPU_A8*%
X90170000Y-108585000D02*
X83312000Y-101727000D01*
%TO.N,PPU_A7*%
X106325400Y-88701600D02*
X103136700Y-91890300D01*
X118309600Y-88746300D02*
X114755900Y-88746300D01*
X114711200Y-88701600D02*
X106325400Y-88701600D01*
X81407424Y-91890011D02*
X79432989Y-91890011D01*
X81407713Y-91890300D02*
X81407424Y-91890011D01*
X114755900Y-88746300D02*
X114711200Y-88701600D01*
X79432989Y-91890011D02*
X78105000Y-93218000D01*
X103136700Y-91890300D02*
X81407713Y-91890300D01*
X120180800Y-90617500D02*
X118309600Y-88746300D01*
%TO.N,PPU_A13_*%
X115881100Y-89922000D02*
X115606000Y-89646900D01*
X115606000Y-89646900D02*
X114382700Y-89646900D01*
X114338000Y-89602200D02*
X107335500Y-89602200D01*
X104146800Y-92790900D02*
X81046132Y-92790900D01*
X81046132Y-92790900D02*
X80772000Y-93065032D01*
X114382700Y-89646900D02*
X114338000Y-89602200D01*
X107335500Y-89602200D02*
X104146800Y-92790900D01*
%TO.N,CIRAM_CE*%
X97083302Y-87630000D02*
X79756002Y-87630000D01*
X102574588Y-84650940D02*
X100062362Y-84650940D01*
X105044048Y-87120400D02*
X102574588Y-84650940D01*
X115431200Y-87120400D02*
X105044048Y-87120400D01*
X100062362Y-84650940D02*
X97083302Y-87630000D01*
%TO.N,PPU_WR*%
X97588480Y-85852000D02*
X78867004Y-85852000D01*
X102947388Y-83750918D02*
X99689562Y-83750918D01*
X99689562Y-83750918D02*
X97588480Y-85852000D01*
X104834370Y-85637900D02*
X102947388Y-83750918D01*
X115300900Y-85637900D02*
X104834370Y-85637900D01*
%TO.N,A12*%
X114748300Y-50800000D02*
X115070700Y-50800000D01*
X112923000Y-50800000D02*
X114748300Y-50800000D01*
%TO.N,Addr_A1*%
X108244700Y-62874000D02*
X110158700Y-60960000D01*
X110158700Y-60960000D02*
X112923000Y-60960000D01*
%TO.N,Addr_A13*%
X111437400Y-95373800D02*
X111437400Y-95098100D01*
X111437400Y-95098100D02*
X113520500Y-93015000D01*
X113520500Y-93015000D02*
X115822900Y-93015000D01*
X114748300Y-63500000D02*
X114919300Y-63500000D01*
X114919300Y-63500000D02*
X115033500Y-63614200D01*
X112923000Y-63500000D02*
X114748300Y-63500000D01*
%TO.N,Addr_A14*%
X112923000Y-66040000D02*
X111097700Y-66040000D01*
X107773500Y-69415300D02*
X111097700Y-66091100D01*
X111097700Y-66091100D02*
X111097700Y-66040000D01*
%TO.N,Addr_ROMSEL*%
X110289100Y-69611300D02*
X111097700Y-68802700D01*
X111097700Y-68802700D02*
X111097700Y-68580000D01*
X112923000Y-68580000D02*
X111097700Y-68580000D01*
%TO.N,Addr_R-W*%
X111097700Y-71120000D02*
X110084600Y-72133100D01*
X110084600Y-72133100D02*
X110056400Y-72133100D01*
X112923000Y-71120000D02*
X111097700Y-71120000D01*
%TO.N,+5VA*%
X76953300Y-119380000D02*
X101371200Y-119380000D01*
X101371200Y-119380000D02*
X105281000Y-123289800D01*
X105281000Y-123289800D02*
X114724900Y-123289800D01*
X114724900Y-123289800D02*
X118634700Y-119380000D01*
X118634700Y-119380000D02*
X122944700Y-119380000D01*
X128270000Y-119380000D02*
X122944700Y-119380000D01*
X71628000Y-119380000D02*
X76953300Y-119380000D01*
%TO.N,GND1*%
X104745780Y-84912899D02*
X103133788Y-83300907D01*
X116102602Y-85366600D02*
X115648901Y-84912899D01*
X99503162Y-83300907D02*
X97972069Y-84832000D01*
X124032000Y-83820000D02*
X122485400Y-85366600D01*
X97972069Y-84832000D02*
X77890000Y-84832000D01*
X77890000Y-84832000D02*
X76878000Y-83820000D01*
X115648901Y-84912899D02*
X104745780Y-84912899D01*
X103133788Y-83300907D02*
X99503162Y-83300907D01*
X76878000Y-83820000D02*
X71628000Y-83820000D01*
X122485400Y-85366600D02*
X116102602Y-85366600D01*
X128270000Y-83820000D02*
X124032000Y-83820000D01*
%TO.N,A9*%
X71628000Y-53340000D02*
X76953300Y-53340000D01*
X80634100Y-53287400D02*
X77005900Y-53287400D01*
X77005900Y-53287400D02*
X76953300Y-53340000D01*
X118875700Y-53340000D02*
X117963000Y-53340000D01*
X118875700Y-53340000D02*
X119788300Y-53340000D01*
X128270000Y-53340000D02*
X119788300Y-53340000D01*
X117963000Y-53340000D02*
X115216100Y-53340000D01*
X115216100Y-53340000D02*
X115216094Y-53340006D01*
%TO.N,Net-(J4-Pad16)*%
X121031000Y-84074000D02*
X118999000Y-84074000D01*
%TO.N,Net-(C9-Pad2)*%
X87884000Y-80427990D02*
X83582780Y-80427990D01*
X83582780Y-80427990D02*
X83566000Y-80411210D01*
%TD*%
M02*
