M48
; DRILL file {KiCad (5.1.8)-1} date 03/10/21 17:43:22
; FORMAT={-:-/ absolute / inch / decimal}
; #@! TF.CreationDate,2021-03-10T17:43:22+01:00
; #@! TF.GenerationSoftware,Kicad,Pcbnew,(5.1.8)-1
; #@! TF.FileFunction,Plated,1,2,PTH
FMAT,2
INCH
T1C0.0157
T2C0.0394
%
G90
G05
T1
X3.0743Y-2.05
X3.0819Y-2.25
X3.0823Y-3.1211
X3.0851Y-2.9256
X3.0858Y-1.923
X3.0864Y-3.1635
X3.0882Y-3.5836
X3.0939Y-2.1241
X3.0967Y-2.4991
X3.0976Y-2.6963
X3.0977Y-3.3929
X3.098Y-3.5059
X3.0986Y-3.6642
X3.0991Y-2.5637
X3.0997Y-3.2957
X3.1023Y-2.3832
X3.1334Y-2.7173
X3.1644Y-2.8929
X3.1671Y-3.8019
X3.1738Y-3.2264
X3.241Y-2.9994
X3.2732Y-2.7825
X3.3016Y-2.5165
X3.3224Y-2.748
X3.3478Y-2.4896
X3.3674Y-3.4984
X3.3723Y-3.1603
X3.3966Y-2.6884
X3.4179Y-3.0061
X3.4598Y-2.7132
X3.4902Y-3.2573
X3.5215Y-2.3559
X3.5232Y-2.8282
X3.5626Y-2.8272
X3.5793Y-2.9767
X3.588Y-3.5759
X3.5895Y-3.2274
X3.6224Y-3.5155
X3.6245Y-2.885
X3.6395Y-2.3873
X3.6442Y-2.8266
X3.6493Y-2.3143
X3.717Y-3.5039
X3.7362Y-2.5442
X3.746Y-3.2573
X3.7599Y-2.7517
X3.7682Y-2.5156
X3.8221Y-2.4912
X3.825Y-2.6845
X3.825Y-3.259
X3.896Y-2.7647
X3.925Y-2.5238
X3.9264Y-2.6906
X3.975Y-3.7468
X3.9756Y-2.5373
X4.0239Y-2.7157
X4.025Y-2.3143
X4.0611Y-3.5269
X4.0675Y-2.9212
X4.175Y-3.7291
X4.2034Y-2.5061
X4.2467Y-2.3453
X4.2474Y-2.5373
X4.275Y-3.4994
X4.3183Y-3.5747
X4.325Y-2.558
X4.3503Y-2.9597
X4.3511Y-2.5283
X4.3664Y-1.85
X4.3671Y-2.365
X4.3675Y-2.8404
X4.3892Y-4.2397
X4.4173Y-3.7037
X4.5336Y-2.75
X4.5336Y-2.689
X4.5473Y-2.05
X4.5541Y-2.4877
X4.5645Y-4.2397
X4.5795Y-3.6474
X4.6258Y-3.7254
X4.6683Y-3.6407
X4.6895Y-2.9066
X4.7396Y-3.2767
X4.7668Y-2.8114
X4.7892Y-3.3055
X4.7906Y-3.6294
X4.7928Y-2.552
X4.7939Y-2.7559
X4.7962Y-2.6024
X4.8035Y-3.3929
X4.8046Y-2.3873
X4.8084Y-3.4982
X4.8108Y-3.5678
X4.8116Y-2.9271
X4.8122Y-2.125
X4.8135Y-3.7687
X4.8167Y-3.1174
X4.8167Y-3.1765
X4.8179Y-1.946
X4.8259Y-2.2303
T2
X3.475Y-1.825
X3.575Y-1.825
T0
M30
