M48
; DRILL file {KiCad (5.1.10)-1} date 06/12/21 16:48:47
; FORMAT={-:-/ absolute / inch / decimal}
; #@! TF.CreationDate,2021-06-12T16:48:47+02:00
; #@! TF.GenerationSoftware,Kicad,Pcbnew,(5.1.10)-1
; #@! TF.FileFunction,Plated,1,2,PTH
FMAT,2
INCH
T1C0.0157
T2C0.0394
%
G90
G05
T1
X3.0409Y-2.3915
X3.0594Y-1.9702
X3.0626Y-2.2
X3.075Y-3.67
X3.076Y-1.8802
X3.085Y-3.04
X3.0852Y-3.1087
X3.09Y-3.305
X3.095Y-3.25
X3.105Y-3.38
X3.12Y-2.94
X3.14Y-3.45
X3.1746Y-2.0979
X3.175Y-2.83
X3.18Y-3.664
X3.235Y-2.71
X3.2762Y-2.2584
X3.28Y-4.005
X3.29Y-3.1658
X3.31Y-3.225
X3.3308Y-2.3517
X3.3382Y-2.4452
X3.4114Y-3.7669
X3.4324Y-2.7271
X3.46Y-3.1665
X3.5004Y-2.7296
X3.5235Y-3.7391
X3.5297Y-2.759
X3.53Y-2.365
X3.55Y-4.275
X3.5563Y-3.0245
X3.5631Y-2.7826
X3.5671Y-2.549
X3.57Y-1.8
X3.6508Y-2.9613
X3.6606Y-3.083
X3.6701Y-4.1292
X3.6965Y-2.7762
X3.6965Y-2.8156
X3.7346Y-3.7294
X3.7378Y-2.7033
X3.76Y-2.5544
X3.76Y-3.225
X3.7609Y-2.5125
X3.778Y-2.2981
X3.8018Y-2.5934
X3.8023Y-2.4537
X3.8053Y-2.3673
X3.8089Y-4.1238
X3.8303Y-2.7161
X3.8305Y-2.8061
X3.8347Y-2.3273
X3.8889Y-2.7783
X3.9518Y-3.7172
X3.9538Y-3.7566
X3.9538Y-3.8692
X3.9647Y-2.4912
X3.9925Y-2.679
X3.9952Y-2.7417
X4.0298Y-3.7438
X4.0362Y-2.5109
X4.0448Y-4.0971
X4.0601Y-2.3602
X4.0961Y-3.9262
X4.1193Y-3.7679
X4.1375Y-4.5027
X4.148Y-3.9211
X4.1851Y-2.6378
X4.19Y-4.5027
X4.1922Y-2.4058
X4.1952Y-4.1393
X4.2145Y-2.5663
X4.2252Y-4.4794
X4.2263Y-2.2933
X4.2305Y-3.9734
X4.2431Y-2.7329
X4.245Y-4.6709
X4.2546Y-2.554
X4.2615Y-3.5954
X4.2615Y-4.5438
X4.2616Y-2.4754
X4.2684Y-2.2675
X4.2753Y-4.6994
X4.3146Y-3.595
X4.3146Y-4.5027
X4.3259Y-4.5423
X4.3329Y-2.8399
X4.3421Y-2.7406
X4.352Y-3.2114
X4.3552Y-2.0744
X4.3566Y-4.6287
X4.3727Y-3.5926
X4.3873Y-3.7549
X4.4231Y-4.1502
X4.4495Y-3.7243
X4.4764Y-2.1503
X4.4987Y-4.4956
X4.5177Y-2.3585
X4.5289Y-2.5045
X4.5303Y-2.0
X4.5327Y-1.9604
X4.5361Y-2.1
X4.5394Y-3.3716
X4.5396Y-3.243
X4.5399Y-2.8466
X4.5405Y-2.56
X4.5426Y-2.1714
X4.5445Y-3.4299
X4.545Y-1.8
X4.56Y-3.662
X4.5601Y-1.877
X4.5617Y-2.9519
X4.5622Y-3.5402
X4.567Y-2.347
X4.6476Y-5.0116
X4.6968Y-4.763
X4.7243Y-2.4675
X4.7257Y-3.0325
X4.7315Y-3.5676
X4.7516Y-3.0625
X4.765Y-3.31
X4.7704Y-2.4242
T2
X3.78Y-1.635
X3.78Y-1.735
T0
M30
