%TF.GenerationSoftware,KiCad,Pcbnew,(5.1.10)-1*%
%TF.CreationDate,2021-06-12T16:48:45+02:00*%
%TF.ProjectId,Nes Sound Expansion,4e657320-536f-4756-9e64-20457870616e,rev?*%
%TF.SameCoordinates,Original*%
%TF.FileFunction,Paste,Top*%
%TF.FilePolarity,Positive*%
%FSLAX46Y46*%
G04 Gerber Fmt 4.6, Leading zero omitted, Abs format (unit mm)*
G04 Created by KiCad (PCBNEW (5.1.10)-1) date 2021-06-12 16:48:45*
%MOMM*%
%LPD*%
G01*
G04 APERTURE LIST*
%ADD10R,3.000000X1.000000*%
G04 APERTURE END LIST*
%TO.C,R6*%
G36*
G01*
X118399000Y-84524001D02*
X118399000Y-83623999D01*
G75*
G02*
X118648999Y-83374000I249999J0D01*
G01*
X119349001Y-83374000D01*
G75*
G02*
X119599000Y-83623999I0J-249999D01*
G01*
X119599000Y-84524001D01*
G75*
G02*
X119349001Y-84774000I-249999J0D01*
G01*
X118648999Y-84774000D01*
G75*
G02*
X118399000Y-84524001I0J249999D01*
G01*
G37*
G36*
G01*
X116399000Y-84524001D02*
X116399000Y-83623999D01*
G75*
G02*
X116648999Y-83374000I249999J0D01*
G01*
X117349001Y-83374000D01*
G75*
G02*
X117599000Y-83623999I0J-249999D01*
G01*
X117599000Y-84524001D01*
G75*
G02*
X117349001Y-84774000I-249999J0D01*
G01*
X116648999Y-84774000D01*
G75*
G02*
X116399000Y-84524001I0J249999D01*
G01*
G37*
%TD*%
D10*
%TO.C,J2*%
X117963000Y-45720000D03*
X112923000Y-45720000D03*
X117963000Y-48260000D03*
X112923000Y-48260000D03*
X117963000Y-50800000D03*
X112923000Y-50800000D03*
X117963000Y-53340000D03*
X112923000Y-53340000D03*
X117963000Y-55880000D03*
X112923000Y-55880000D03*
X117963000Y-58420000D03*
X112923000Y-58420000D03*
X117963000Y-60960000D03*
X112923000Y-60960000D03*
X117963000Y-63500000D03*
X112923000Y-63500000D03*
X117963000Y-66040000D03*
X112923000Y-66040000D03*
X117963000Y-68580000D03*
X112923000Y-68580000D03*
X117963000Y-71120000D03*
X112923000Y-71120000D03*
X117963000Y-73660000D03*
X112923000Y-73660000D03*
X117963000Y-76200000D03*
X112923000Y-76200000D03*
X117963000Y-78740000D03*
X112923000Y-78740000D03*
X117963000Y-81280000D03*
X112923000Y-81280000D03*
%TD*%
M02*
