%TF.GenerationSoftware,KiCad,Pcbnew,(5.1.10)-1*%
%TF.CreationDate,2021-06-12T16:48:45+02:00*%
%TF.ProjectId,Nes Sound Expansion,4e657320-536f-4756-9e64-20457870616e,rev?*%
%TF.SameCoordinates,Original*%
%TF.FileFunction,Legend,Top*%
%TF.FilePolarity,Positive*%
%FSLAX46Y46*%
G04 Gerber Fmt 4.6, Leading zero omitted, Abs format (unit mm)*
G04 Created by KiCad (PCBNEW (5.1.10)-1) date 2021-06-12 16:48:45*
%MOMM*%
%LPD*%
G01*
G04 APERTURE LIST*
%ADD10C,0.300000*%
%ADD11C,0.150000*%
%ADD12C,0.120000*%
G04 APERTURE END LIST*
D10*
X79823857Y-46253571D02*
X78966714Y-46253571D01*
X79395285Y-46253571D02*
X79395285Y-44753571D01*
X79252428Y-44967857D01*
X79109571Y-45110714D01*
X78966714Y-45182142D01*
X78966714Y-47446428D02*
X79038142Y-47375000D01*
X79181000Y-47303571D01*
X79538142Y-47303571D01*
X79681000Y-47375000D01*
X79752428Y-47446428D01*
X79823857Y-47589285D01*
X79823857Y-47732142D01*
X79752428Y-47946428D01*
X78895285Y-48803571D01*
X79823857Y-48803571D01*
X78895285Y-49853571D02*
X79823857Y-49853571D01*
X79323857Y-50425000D01*
X79538142Y-50425000D01*
X79681000Y-50496428D01*
X79752428Y-50567857D01*
X79823857Y-50710714D01*
X79823857Y-51067857D01*
X79752428Y-51210714D01*
X79681000Y-51282142D01*
X79538142Y-51353571D01*
X79109571Y-51353571D01*
X78966714Y-51282142D01*
X78895285Y-51210714D01*
X79681000Y-52903571D02*
X79681000Y-53903571D01*
X79323857Y-52332142D02*
X78966714Y-53403571D01*
X79895285Y-53403571D01*
X79752428Y-54953571D02*
X79038142Y-54953571D01*
X78966714Y-55667857D01*
X79038142Y-55596428D01*
X79181000Y-55525000D01*
X79538142Y-55525000D01*
X79681000Y-55596428D01*
X79752428Y-55667857D01*
X79823857Y-55810714D01*
X79823857Y-56167857D01*
X79752428Y-56310714D01*
X79681000Y-56382142D01*
X79538142Y-56453571D01*
X79181000Y-56453571D01*
X79038142Y-56382142D01*
X78966714Y-56310714D01*
X79681000Y-57503571D02*
X79395285Y-57503571D01*
X79252428Y-57575000D01*
X79181000Y-57646428D01*
X79038142Y-57860714D01*
X78966714Y-58146428D01*
X78966714Y-58717857D01*
X79038142Y-58860714D01*
X79109571Y-58932142D01*
X79252428Y-59003571D01*
X79538142Y-59003571D01*
X79681000Y-58932142D01*
X79752428Y-58860714D01*
X79823857Y-58717857D01*
X79823857Y-58360714D01*
X79752428Y-58217857D01*
X79681000Y-58146428D01*
X79538142Y-58075000D01*
X79252428Y-58075000D01*
X79109571Y-58146428D01*
X79038142Y-58217857D01*
X78966714Y-58360714D01*
X78895285Y-60053571D02*
X79895285Y-60053571D01*
X79252428Y-61553571D01*
X79252428Y-63246428D02*
X79109571Y-63175000D01*
X79038142Y-63103571D01*
X78966714Y-62960714D01*
X78966714Y-62889285D01*
X79038142Y-62746428D01*
X79109571Y-62675000D01*
X79252428Y-62603571D01*
X79538142Y-62603571D01*
X79681000Y-62675000D01*
X79752428Y-62746428D01*
X79823857Y-62889285D01*
X79823857Y-62960714D01*
X79752428Y-63103571D01*
X79681000Y-63175000D01*
X79538142Y-63246428D01*
X79252428Y-63246428D01*
X79109571Y-63317857D01*
X79038142Y-63389285D01*
X78966714Y-63532142D01*
X78966714Y-63817857D01*
X79038142Y-63960714D01*
X79109571Y-64032142D01*
X79252428Y-64103571D01*
X79538142Y-64103571D01*
X79681000Y-64032142D01*
X79752428Y-63960714D01*
X79823857Y-63817857D01*
X79823857Y-63532142D01*
X79752428Y-63389285D01*
X79681000Y-63317857D01*
X79538142Y-63246428D01*
X79109571Y-66653571D02*
X79395285Y-66653571D01*
X79538142Y-66582142D01*
X79609571Y-66510714D01*
X79752428Y-66296428D01*
X79823857Y-66010714D01*
X79823857Y-65439285D01*
X79752428Y-65296428D01*
X79681000Y-65225000D01*
X79538142Y-65153571D01*
X79252428Y-65153571D01*
X79109571Y-65225000D01*
X79038142Y-65296428D01*
X78966714Y-65439285D01*
X78966714Y-65796428D01*
X79038142Y-65939285D01*
X79109571Y-66010714D01*
X79252428Y-66082142D01*
X79538142Y-66082142D01*
X79681000Y-66010714D01*
X79752428Y-65939285D01*
X79823857Y-65796428D01*
X79823857Y-69203571D02*
X78966714Y-69203571D01*
X79395285Y-69203571D02*
X79395285Y-67703571D01*
X79252428Y-67917857D01*
X79109571Y-68060714D01*
X78966714Y-68132142D01*
X80752428Y-67703571D02*
X80895285Y-67703571D01*
X81038142Y-67775000D01*
X81109571Y-67846428D01*
X81181000Y-67989285D01*
X81252428Y-68275000D01*
X81252428Y-68632142D01*
X81181000Y-68917857D01*
X81109571Y-69060714D01*
X81038142Y-69132142D01*
X80895285Y-69203571D01*
X80752428Y-69203571D01*
X80609571Y-69132142D01*
X80538142Y-69060714D01*
X80466714Y-68917857D01*
X80395285Y-68632142D01*
X80395285Y-68275000D01*
X80466714Y-67989285D01*
X80538142Y-67846428D01*
X80609571Y-67775000D01*
X80752428Y-67703571D01*
X79823857Y-71753571D02*
X78966714Y-71753571D01*
X79395285Y-71753571D02*
X79395285Y-70253571D01*
X79252428Y-70467857D01*
X79109571Y-70610714D01*
X78966714Y-70682142D01*
X81252428Y-71753571D02*
X80395285Y-71753571D01*
X80823857Y-71753571D02*
X80823857Y-70253571D01*
X80681000Y-70467857D01*
X80538142Y-70610714D01*
X80395285Y-70682142D01*
X79823857Y-74303571D02*
X78966714Y-74303571D01*
X79395285Y-74303571D02*
X79395285Y-72803571D01*
X79252428Y-73017857D01*
X79109571Y-73160714D01*
X78966714Y-73232142D01*
X80395285Y-72946428D02*
X80466714Y-72875000D01*
X80609571Y-72803571D01*
X80966714Y-72803571D01*
X81109571Y-72875000D01*
X81181000Y-72946428D01*
X81252428Y-73089285D01*
X81252428Y-73232142D01*
X81181000Y-73446428D01*
X80323857Y-74303571D01*
X81252428Y-74303571D01*
X79823857Y-76853571D02*
X78966714Y-76853571D01*
X79395285Y-76853571D02*
X79395285Y-75353571D01*
X79252428Y-75567857D01*
X79109571Y-75710714D01*
X78966714Y-75782142D01*
X80323857Y-75353571D02*
X81252428Y-75353571D01*
X80752428Y-75925000D01*
X80966714Y-75925000D01*
X81109571Y-75996428D01*
X81181000Y-76067857D01*
X81252428Y-76210714D01*
X81252428Y-76567857D01*
X81181000Y-76710714D01*
X81109571Y-76782142D01*
X80966714Y-76853571D01*
X80538142Y-76853571D01*
X80395285Y-76782142D01*
X80323857Y-76710714D01*
X79823857Y-79403571D02*
X78966714Y-79403571D01*
X79395285Y-79403571D02*
X79395285Y-77903571D01*
X79252428Y-78117857D01*
X79109571Y-78260714D01*
X78966714Y-78332142D01*
X81109571Y-78403571D02*
X81109571Y-79403571D01*
X80752428Y-77832142D02*
X80395285Y-78903571D01*
X81323857Y-78903571D01*
X79823857Y-81953571D02*
X78966714Y-81953571D01*
X79395285Y-81953571D02*
X79395285Y-80453571D01*
X79252428Y-80667857D01*
X79109571Y-80810714D01*
X78966714Y-80882142D01*
X81181000Y-80453571D02*
X80466714Y-80453571D01*
X80395285Y-81167857D01*
X80466714Y-81096428D01*
X80609571Y-81025000D01*
X80966714Y-81025000D01*
X81109571Y-81096428D01*
X81181000Y-81167857D01*
X81252428Y-81310714D01*
X81252428Y-81667857D01*
X81181000Y-81810714D01*
X81109571Y-81882142D01*
X80966714Y-81953571D01*
X80609571Y-81953571D01*
X80466714Y-81882142D01*
X80395285Y-81810714D01*
X79823857Y-84503571D02*
X78966714Y-84503571D01*
X79395285Y-84503571D02*
X79395285Y-83003571D01*
X79252428Y-83217857D01*
X79109571Y-83360714D01*
X78966714Y-83432142D01*
X81109571Y-83003571D02*
X80823857Y-83003571D01*
X80681000Y-83075000D01*
X80609571Y-83146428D01*
X80466714Y-83360714D01*
X80395285Y-83646428D01*
X80395285Y-84217857D01*
X80466714Y-84360714D01*
X80538142Y-84432142D01*
X80681000Y-84503571D01*
X80966714Y-84503571D01*
X81109571Y-84432142D01*
X81181000Y-84360714D01*
X81252428Y-84217857D01*
X81252428Y-83860714D01*
X81181000Y-83717857D01*
X81109571Y-83646428D01*
X80966714Y-83575000D01*
X80681000Y-83575000D01*
X80538142Y-83646428D01*
X80466714Y-83717857D01*
X80395285Y-83860714D01*
X79823857Y-87053571D02*
X78966714Y-87053571D01*
X79395285Y-87053571D02*
X79395285Y-85553571D01*
X79252428Y-85767857D01*
X79109571Y-85910714D01*
X78966714Y-85982142D01*
X80323857Y-85553571D02*
X81323857Y-85553571D01*
X80681000Y-87053571D01*
X79823857Y-89603571D02*
X78966714Y-89603571D01*
X79395285Y-89603571D02*
X79395285Y-88103571D01*
X79252428Y-88317857D01*
X79109571Y-88460714D01*
X78966714Y-88532142D01*
X80681000Y-88746428D02*
X80538142Y-88675000D01*
X80466714Y-88603571D01*
X80395285Y-88460714D01*
X80395285Y-88389285D01*
X80466714Y-88246428D01*
X80538142Y-88175000D01*
X80681000Y-88103571D01*
X80966714Y-88103571D01*
X81109571Y-88175000D01*
X81181000Y-88246428D01*
X81252428Y-88389285D01*
X81252428Y-88460714D01*
X81181000Y-88603571D01*
X81109571Y-88675000D01*
X80966714Y-88746428D01*
X80681000Y-88746428D01*
X80538142Y-88817857D01*
X80466714Y-88889285D01*
X80395285Y-89032142D01*
X80395285Y-89317857D01*
X80466714Y-89460714D01*
X80538142Y-89532142D01*
X80681000Y-89603571D01*
X80966714Y-89603571D01*
X81109571Y-89532142D01*
X81181000Y-89460714D01*
X81252428Y-89317857D01*
X81252428Y-89032142D01*
X81181000Y-88889285D01*
X81109571Y-88817857D01*
X80966714Y-88746428D01*
X79823857Y-92153571D02*
X78966714Y-92153571D01*
X79395285Y-92153571D02*
X79395285Y-90653571D01*
X79252428Y-90867857D01*
X79109571Y-91010714D01*
X78966714Y-91082142D01*
X80538142Y-92153571D02*
X80823857Y-92153571D01*
X80966714Y-92082142D01*
X81038142Y-92010714D01*
X81181000Y-91796428D01*
X81252428Y-91510714D01*
X81252428Y-90939285D01*
X81181000Y-90796428D01*
X81109571Y-90725000D01*
X80966714Y-90653571D01*
X80681000Y-90653571D01*
X80538142Y-90725000D01*
X80466714Y-90796428D01*
X80395285Y-90939285D01*
X80395285Y-91296428D01*
X80466714Y-91439285D01*
X80538142Y-91510714D01*
X80681000Y-91582142D01*
X80966714Y-91582142D01*
X81109571Y-91510714D01*
X81181000Y-91439285D01*
X81252428Y-91296428D01*
X78966714Y-93346428D02*
X79038142Y-93275000D01*
X79181000Y-93203571D01*
X79538142Y-93203571D01*
X79681000Y-93275000D01*
X79752428Y-93346428D01*
X79823857Y-93489285D01*
X79823857Y-93632142D01*
X79752428Y-93846428D01*
X78895285Y-94703571D01*
X79823857Y-94703571D01*
X80752428Y-93203571D02*
X80895285Y-93203571D01*
X81038142Y-93275000D01*
X81109571Y-93346428D01*
X81181000Y-93489285D01*
X81252428Y-93775000D01*
X81252428Y-94132142D01*
X81181000Y-94417857D01*
X81109571Y-94560714D01*
X81038142Y-94632142D01*
X80895285Y-94703571D01*
X80752428Y-94703571D01*
X80609571Y-94632142D01*
X80538142Y-94560714D01*
X80466714Y-94417857D01*
X80395285Y-94132142D01*
X80395285Y-93775000D01*
X80466714Y-93489285D01*
X80538142Y-93346428D01*
X80609571Y-93275000D01*
X80752428Y-93203571D01*
X78966714Y-95896428D02*
X79038142Y-95825000D01*
X79181000Y-95753571D01*
X79538142Y-95753571D01*
X79681000Y-95825000D01*
X79752428Y-95896428D01*
X79823857Y-96039285D01*
X79823857Y-96182142D01*
X79752428Y-96396428D01*
X78895285Y-97253571D01*
X79823857Y-97253571D01*
X81252428Y-97253571D02*
X80395285Y-97253571D01*
X80823857Y-97253571D02*
X80823857Y-95753571D01*
X80681000Y-95967857D01*
X80538142Y-96110714D01*
X80395285Y-96182142D01*
X78966714Y-98446428D02*
X79038142Y-98375000D01*
X79181000Y-98303571D01*
X79538142Y-98303571D01*
X79681000Y-98375000D01*
X79752428Y-98446428D01*
X79823857Y-98589285D01*
X79823857Y-98732142D01*
X79752428Y-98946428D01*
X78895285Y-99803571D01*
X79823857Y-99803571D01*
X80395285Y-98446428D02*
X80466714Y-98375000D01*
X80609571Y-98303571D01*
X80966714Y-98303571D01*
X81109571Y-98375000D01*
X81181000Y-98446428D01*
X81252428Y-98589285D01*
X81252428Y-98732142D01*
X81181000Y-98946428D01*
X80323857Y-99803571D01*
X81252428Y-99803571D01*
X78966714Y-100996428D02*
X79038142Y-100925000D01*
X79181000Y-100853571D01*
X79538142Y-100853571D01*
X79681000Y-100925000D01*
X79752428Y-100996428D01*
X79823857Y-101139285D01*
X79823857Y-101282142D01*
X79752428Y-101496428D01*
X78895285Y-102353571D01*
X79823857Y-102353571D01*
X80323857Y-100853571D02*
X81252428Y-100853571D01*
X80752428Y-101425000D01*
X80966714Y-101425000D01*
X81109571Y-101496428D01*
X81181000Y-101567857D01*
X81252428Y-101710714D01*
X81252428Y-102067857D01*
X81181000Y-102210714D01*
X81109571Y-102282142D01*
X80966714Y-102353571D01*
X80538142Y-102353571D01*
X80395285Y-102282142D01*
X80323857Y-102210714D01*
X78966714Y-103546428D02*
X79038142Y-103475000D01*
X79181000Y-103403571D01*
X79538142Y-103403571D01*
X79681000Y-103475000D01*
X79752428Y-103546428D01*
X79823857Y-103689285D01*
X79823857Y-103832142D01*
X79752428Y-104046428D01*
X78895285Y-104903571D01*
X79823857Y-104903571D01*
X81109571Y-103903571D02*
X81109571Y-104903571D01*
X80752428Y-103332142D02*
X80395285Y-104403571D01*
X81323857Y-104403571D01*
X78966714Y-106096428D02*
X79038142Y-106025000D01*
X79181000Y-105953571D01*
X79538142Y-105953571D01*
X79681000Y-106025000D01*
X79752428Y-106096428D01*
X79823857Y-106239285D01*
X79823857Y-106382142D01*
X79752428Y-106596428D01*
X78895285Y-107453571D01*
X79823857Y-107453571D01*
X81181000Y-105953571D02*
X80466714Y-105953571D01*
X80395285Y-106667857D01*
X80466714Y-106596428D01*
X80609571Y-106525000D01*
X80966714Y-106525000D01*
X81109571Y-106596428D01*
X81181000Y-106667857D01*
X81252428Y-106810714D01*
X81252428Y-107167857D01*
X81181000Y-107310714D01*
X81109571Y-107382142D01*
X80966714Y-107453571D01*
X80609571Y-107453571D01*
X80466714Y-107382142D01*
X80395285Y-107310714D01*
X78966714Y-108646428D02*
X79038142Y-108575000D01*
X79181000Y-108503571D01*
X79538142Y-108503571D01*
X79681000Y-108575000D01*
X79752428Y-108646428D01*
X79823857Y-108789285D01*
X79823857Y-108932142D01*
X79752428Y-109146428D01*
X78895285Y-110003571D01*
X79823857Y-110003571D01*
X81109571Y-108503571D02*
X80823857Y-108503571D01*
X80681000Y-108575000D01*
X80609571Y-108646428D01*
X80466714Y-108860714D01*
X80395285Y-109146428D01*
X80395285Y-109717857D01*
X80466714Y-109860714D01*
X80538142Y-109932142D01*
X80681000Y-110003571D01*
X80966714Y-110003571D01*
X81109571Y-109932142D01*
X81181000Y-109860714D01*
X81252428Y-109717857D01*
X81252428Y-109360714D01*
X81181000Y-109217857D01*
X81109571Y-109146428D01*
X80966714Y-109075000D01*
X80681000Y-109075000D01*
X80538142Y-109146428D01*
X80466714Y-109217857D01*
X80395285Y-109360714D01*
X78966714Y-111196428D02*
X79038142Y-111125000D01*
X79181000Y-111053571D01*
X79538142Y-111053571D01*
X79681000Y-111125000D01*
X79752428Y-111196428D01*
X79823857Y-111339285D01*
X79823857Y-111482142D01*
X79752428Y-111696428D01*
X78895285Y-112553571D01*
X79823857Y-112553571D01*
X80323857Y-111053571D02*
X81323857Y-111053571D01*
X80681000Y-112553571D01*
X78966714Y-113746428D02*
X79038142Y-113675000D01*
X79181000Y-113603571D01*
X79538142Y-113603571D01*
X79681000Y-113675000D01*
X79752428Y-113746428D01*
X79823857Y-113889285D01*
X79823857Y-114032142D01*
X79752428Y-114246428D01*
X78895285Y-115103571D01*
X79823857Y-115103571D01*
X80681000Y-114246428D02*
X80538142Y-114175000D01*
X80466714Y-114103571D01*
X80395285Y-113960714D01*
X80395285Y-113889285D01*
X80466714Y-113746428D01*
X80538142Y-113675000D01*
X80681000Y-113603571D01*
X80966714Y-113603571D01*
X81109571Y-113675000D01*
X81181000Y-113746428D01*
X81252428Y-113889285D01*
X81252428Y-113960714D01*
X81181000Y-114103571D01*
X81109571Y-114175000D01*
X80966714Y-114246428D01*
X80681000Y-114246428D01*
X80538142Y-114317857D01*
X80466714Y-114389285D01*
X80395285Y-114532142D01*
X80395285Y-114817857D01*
X80466714Y-114960714D01*
X80538142Y-115032142D01*
X80681000Y-115103571D01*
X80966714Y-115103571D01*
X81109571Y-115032142D01*
X81181000Y-114960714D01*
X81252428Y-114817857D01*
X81252428Y-114532142D01*
X81181000Y-114389285D01*
X81109571Y-114317857D01*
X80966714Y-114246428D01*
X78966714Y-116296428D02*
X79038142Y-116225000D01*
X79181000Y-116153571D01*
X79538142Y-116153571D01*
X79681000Y-116225000D01*
X79752428Y-116296428D01*
X79823857Y-116439285D01*
X79823857Y-116582142D01*
X79752428Y-116796428D01*
X78895285Y-117653571D01*
X79823857Y-117653571D01*
X80538142Y-117653571D02*
X80823857Y-117653571D01*
X80966714Y-117582142D01*
X81038142Y-117510714D01*
X81181000Y-117296428D01*
X81252428Y-117010714D01*
X81252428Y-116439285D01*
X81181000Y-116296428D01*
X81109571Y-116225000D01*
X80966714Y-116153571D01*
X80681000Y-116153571D01*
X80538142Y-116225000D01*
X80466714Y-116296428D01*
X80395285Y-116439285D01*
X80395285Y-116796428D01*
X80466714Y-116939285D01*
X80538142Y-117010714D01*
X80681000Y-117082142D01*
X80966714Y-117082142D01*
X81109571Y-117010714D01*
X81181000Y-116939285D01*
X81252428Y-116796428D01*
X78895285Y-118703571D02*
X79823857Y-118703571D01*
X79323857Y-119275000D01*
X79538142Y-119275000D01*
X79681000Y-119346428D01*
X79752428Y-119417857D01*
X79823857Y-119560714D01*
X79823857Y-119917857D01*
X79752428Y-120060714D01*
X79681000Y-120132142D01*
X79538142Y-120203571D01*
X79109571Y-120203571D01*
X78966714Y-120132142D01*
X78895285Y-120060714D01*
X80752428Y-118703571D02*
X80895285Y-118703571D01*
X81038142Y-118775000D01*
X81109571Y-118846428D01*
X81181000Y-118989285D01*
X81252428Y-119275000D01*
X81252428Y-119632142D01*
X81181000Y-119917857D01*
X81109571Y-120060714D01*
X81038142Y-120132142D01*
X80895285Y-120203571D01*
X80752428Y-120203571D01*
X80609571Y-120132142D01*
X80538142Y-120060714D01*
X80466714Y-119917857D01*
X80395285Y-119632142D01*
X80395285Y-119275000D01*
X80466714Y-118989285D01*
X80538142Y-118846428D01*
X80609571Y-118775000D01*
X80752428Y-118703571D01*
D11*
X104013000Y-45085000D02*
X104013000Y-79375000D01*
X105507404Y-45280000D02*
X105412166Y-45244285D01*
X105269309Y-45244285D01*
X105126452Y-45280000D01*
X105031214Y-45351428D01*
X104983595Y-45422857D01*
X104935976Y-45565714D01*
X104935976Y-45672857D01*
X104983595Y-45815714D01*
X105031214Y-45887142D01*
X105126452Y-45958571D01*
X105269309Y-45994285D01*
X105364547Y-45994285D01*
X105507404Y-45958571D01*
X105555023Y-45922857D01*
X105555023Y-45672857D01*
X105364547Y-45672857D01*
X105983595Y-45994285D02*
X105983595Y-45244285D01*
X106555023Y-45994285D01*
X106555023Y-45244285D01*
X107031214Y-45994285D02*
X107031214Y-45244285D01*
X107269309Y-45244285D01*
X107412166Y-45280000D01*
X107507404Y-45351428D01*
X107555023Y-45422857D01*
X107602642Y-45565714D01*
X107602642Y-45672857D01*
X107555023Y-45815714D01*
X107507404Y-45887142D01*
X107412166Y-45958571D01*
X107269309Y-45994285D01*
X107031214Y-45994285D01*
X104935976Y-48330000D02*
X105412166Y-48330000D01*
X104840738Y-48544285D02*
X105174071Y-47794285D01*
X105507404Y-48544285D01*
X106364547Y-48544285D02*
X105793119Y-48544285D01*
X106078833Y-48544285D02*
X106078833Y-47794285D01*
X105983595Y-47901428D01*
X105888357Y-47972857D01*
X105793119Y-48008571D01*
X107316928Y-48544285D02*
X106745500Y-48544285D01*
X107031214Y-48544285D02*
X107031214Y-47794285D01*
X106935976Y-47901428D01*
X106840738Y-47972857D01*
X106745500Y-48008571D01*
X104935976Y-50880000D02*
X105412166Y-50880000D01*
X104840738Y-51094285D02*
X105174071Y-50344285D01*
X105507404Y-51094285D01*
X106364547Y-51094285D02*
X105793119Y-51094285D01*
X106078833Y-51094285D02*
X106078833Y-50344285D01*
X105983595Y-50451428D01*
X105888357Y-50522857D01*
X105793119Y-50558571D01*
X106983595Y-50344285D02*
X107078833Y-50344285D01*
X107174071Y-50380000D01*
X107221690Y-50415714D01*
X107269309Y-50487142D01*
X107316928Y-50630000D01*
X107316928Y-50808571D01*
X107269309Y-50951428D01*
X107221690Y-51022857D01*
X107174071Y-51058571D01*
X107078833Y-51094285D01*
X106983595Y-51094285D01*
X106888357Y-51058571D01*
X106840738Y-51022857D01*
X106793119Y-50951428D01*
X106745500Y-50808571D01*
X106745500Y-50630000D01*
X106793119Y-50487142D01*
X106840738Y-50415714D01*
X106888357Y-50380000D01*
X106983595Y-50344285D01*
X104935976Y-53430000D02*
X105412166Y-53430000D01*
X104840738Y-53644285D02*
X105174071Y-52894285D01*
X105507404Y-53644285D01*
X105888357Y-53644285D02*
X106078833Y-53644285D01*
X106174071Y-53608571D01*
X106221690Y-53572857D01*
X106316928Y-53465714D01*
X106364547Y-53322857D01*
X106364547Y-53037142D01*
X106316928Y-52965714D01*
X106269309Y-52930000D01*
X106174071Y-52894285D01*
X105983595Y-52894285D01*
X105888357Y-52930000D01*
X105840738Y-52965714D01*
X105793119Y-53037142D01*
X105793119Y-53215714D01*
X105840738Y-53287142D01*
X105888357Y-53322857D01*
X105983595Y-53358571D01*
X106174071Y-53358571D01*
X106269309Y-53322857D01*
X106316928Y-53287142D01*
X106364547Y-53215714D01*
X104935976Y-55980000D02*
X105412166Y-55980000D01*
X104840738Y-56194285D02*
X105174071Y-55444285D01*
X105507404Y-56194285D01*
X105983595Y-55765714D02*
X105888357Y-55730000D01*
X105840738Y-55694285D01*
X105793119Y-55622857D01*
X105793119Y-55587142D01*
X105840738Y-55515714D01*
X105888357Y-55480000D01*
X105983595Y-55444285D01*
X106174071Y-55444285D01*
X106269309Y-55480000D01*
X106316928Y-55515714D01*
X106364547Y-55587142D01*
X106364547Y-55622857D01*
X106316928Y-55694285D01*
X106269309Y-55730000D01*
X106174071Y-55765714D01*
X105983595Y-55765714D01*
X105888357Y-55801428D01*
X105840738Y-55837142D01*
X105793119Y-55908571D01*
X105793119Y-56051428D01*
X105840738Y-56122857D01*
X105888357Y-56158571D01*
X105983595Y-56194285D01*
X106174071Y-56194285D01*
X106269309Y-56158571D01*
X106316928Y-56122857D01*
X106364547Y-56051428D01*
X106364547Y-55908571D01*
X106316928Y-55837142D01*
X106269309Y-55801428D01*
X106174071Y-55765714D01*
X104935976Y-58530000D02*
X105412166Y-58530000D01*
X104840738Y-58744285D02*
X105174071Y-57994285D01*
X105507404Y-58744285D01*
X105745500Y-57994285D02*
X106412166Y-57994285D01*
X105983595Y-58744285D01*
X104935976Y-61080000D02*
X105412166Y-61080000D01*
X104840738Y-61294285D02*
X105174071Y-60544285D01*
X105507404Y-61294285D01*
X106269309Y-60544285D02*
X106078833Y-60544285D01*
X105983595Y-60580000D01*
X105935976Y-60615714D01*
X105840738Y-60722857D01*
X105793119Y-60865714D01*
X105793119Y-61151428D01*
X105840738Y-61222857D01*
X105888357Y-61258571D01*
X105983595Y-61294285D01*
X106174071Y-61294285D01*
X106269309Y-61258571D01*
X106316928Y-61222857D01*
X106364547Y-61151428D01*
X106364547Y-60972857D01*
X106316928Y-60901428D01*
X106269309Y-60865714D01*
X106174071Y-60830000D01*
X105983595Y-60830000D01*
X105888357Y-60865714D01*
X105840738Y-60901428D01*
X105793119Y-60972857D01*
X104935976Y-63630000D02*
X105412166Y-63630000D01*
X104840738Y-63844285D02*
X105174071Y-63094285D01*
X105507404Y-63844285D01*
X106316928Y-63094285D02*
X105840738Y-63094285D01*
X105793119Y-63451428D01*
X105840738Y-63415714D01*
X105935976Y-63380000D01*
X106174071Y-63380000D01*
X106269309Y-63415714D01*
X106316928Y-63451428D01*
X106364547Y-63522857D01*
X106364547Y-63701428D01*
X106316928Y-63772857D01*
X106269309Y-63808571D01*
X106174071Y-63844285D01*
X105935976Y-63844285D01*
X105840738Y-63808571D01*
X105793119Y-63772857D01*
X104935976Y-66180000D02*
X105412166Y-66180000D01*
X104840738Y-66394285D02*
X105174071Y-65644285D01*
X105507404Y-66394285D01*
X106269309Y-65894285D02*
X106269309Y-66394285D01*
X106031214Y-65608571D02*
X105793119Y-66144285D01*
X106412166Y-66144285D01*
X104935976Y-68730000D02*
X105412166Y-68730000D01*
X104840738Y-68944285D02*
X105174071Y-68194285D01*
X105507404Y-68944285D01*
X105745500Y-68194285D02*
X106364547Y-68194285D01*
X106031214Y-68480000D01*
X106174071Y-68480000D01*
X106269309Y-68515714D01*
X106316928Y-68551428D01*
X106364547Y-68622857D01*
X106364547Y-68801428D01*
X106316928Y-68872857D01*
X106269309Y-68908571D01*
X106174071Y-68944285D01*
X105888357Y-68944285D01*
X105793119Y-68908571D01*
X105745500Y-68872857D01*
X104935976Y-71280000D02*
X105412166Y-71280000D01*
X104840738Y-71494285D02*
X105174071Y-70744285D01*
X105507404Y-71494285D01*
X105793119Y-70815714D02*
X105840738Y-70780000D01*
X105935976Y-70744285D01*
X106174071Y-70744285D01*
X106269309Y-70780000D01*
X106316928Y-70815714D01*
X106364547Y-70887142D01*
X106364547Y-70958571D01*
X106316928Y-71065714D01*
X105745500Y-71494285D01*
X106364547Y-71494285D01*
X104935976Y-73830000D02*
X105412166Y-73830000D01*
X104840738Y-74044285D02*
X105174071Y-73294285D01*
X105507404Y-74044285D01*
X106364547Y-74044285D02*
X105793119Y-74044285D01*
X106078833Y-74044285D02*
X106078833Y-73294285D01*
X105983595Y-73401428D01*
X105888357Y-73472857D01*
X105793119Y-73508571D01*
X104935976Y-76380000D02*
X105412166Y-76380000D01*
X104840738Y-76594285D02*
X105174071Y-75844285D01*
X105507404Y-76594285D01*
X106031214Y-75844285D02*
X106126452Y-75844285D01*
X106221690Y-75880000D01*
X106269309Y-75915714D01*
X106316928Y-75987142D01*
X106364547Y-76130000D01*
X106364547Y-76308571D01*
X106316928Y-76451428D01*
X106269309Y-76522857D01*
X106221690Y-76558571D01*
X106126452Y-76594285D01*
X106031214Y-76594285D01*
X105935976Y-76558571D01*
X105888357Y-76522857D01*
X105840738Y-76451428D01*
X105793119Y-76308571D01*
X105793119Y-76130000D01*
X105840738Y-75987142D01*
X105888357Y-75915714D01*
X105935976Y-75880000D01*
X106031214Y-75844285D01*
X105555023Y-79144285D02*
X105221690Y-78787142D01*
X104983595Y-79144285D02*
X104983595Y-78394285D01*
X105364547Y-78394285D01*
X105459785Y-78430000D01*
X105507404Y-78465714D01*
X105555023Y-78537142D01*
X105555023Y-78644285D01*
X105507404Y-78715714D01*
X105459785Y-78751428D01*
X105364547Y-78787142D01*
X104983595Y-78787142D01*
X106697880Y-78358571D02*
X105840738Y-79322857D01*
X106935976Y-78394285D02*
X107174071Y-79144285D01*
X107364547Y-78608571D01*
X107555023Y-79144285D01*
X107793119Y-78394285D01*
X102185261Y-45244285D02*
X101709071Y-45244285D01*
X101661452Y-45601428D01*
X101709071Y-45565714D01*
X101804309Y-45530000D01*
X102042404Y-45530000D01*
X102137642Y-45565714D01*
X102185261Y-45601428D01*
X102232880Y-45672857D01*
X102232880Y-45851428D01*
X102185261Y-45922857D01*
X102137642Y-45958571D01*
X102042404Y-45994285D01*
X101804309Y-45994285D01*
X101709071Y-45958571D01*
X101661452Y-45922857D01*
X102518595Y-45244285D02*
X102851928Y-45994285D01*
X103185261Y-45244285D01*
X100709071Y-50880000D02*
X101185261Y-50880000D01*
X100613833Y-51094285D02*
X100947166Y-50344285D01*
X101280500Y-51094285D01*
X102137642Y-51094285D02*
X101566214Y-51094285D01*
X101851928Y-51094285D02*
X101851928Y-50344285D01*
X101756690Y-50451428D01*
X101661452Y-50522857D01*
X101566214Y-50558571D01*
X102518595Y-50415714D02*
X102566214Y-50380000D01*
X102661452Y-50344285D01*
X102899547Y-50344285D01*
X102994785Y-50380000D01*
X103042404Y-50415714D01*
X103090023Y-50487142D01*
X103090023Y-50558571D01*
X103042404Y-50665714D01*
X102470976Y-51094285D01*
X103090023Y-51094285D01*
X100709071Y-53430000D02*
X101185261Y-53430000D01*
X100613833Y-53644285D02*
X100947166Y-52894285D01*
X101280500Y-53644285D01*
X102137642Y-53644285D02*
X101566214Y-53644285D01*
X101851928Y-53644285D02*
X101851928Y-52894285D01*
X101756690Y-53001428D01*
X101661452Y-53072857D01*
X101566214Y-53108571D01*
X102470976Y-52894285D02*
X103090023Y-52894285D01*
X102756690Y-53180000D01*
X102899547Y-53180000D01*
X102994785Y-53215714D01*
X103042404Y-53251428D01*
X103090023Y-53322857D01*
X103090023Y-53501428D01*
X103042404Y-53572857D01*
X102994785Y-53608571D01*
X102899547Y-53644285D01*
X102613833Y-53644285D01*
X102518595Y-53608571D01*
X102470976Y-53572857D01*
X100709071Y-55980000D02*
X101185261Y-55980000D01*
X100613833Y-56194285D02*
X100947166Y-55444285D01*
X101280500Y-56194285D01*
X102137642Y-56194285D02*
X101566214Y-56194285D01*
X101851928Y-56194285D02*
X101851928Y-55444285D01*
X101756690Y-55551428D01*
X101661452Y-55622857D01*
X101566214Y-55658571D01*
X102994785Y-55694285D02*
X102994785Y-56194285D01*
X102756690Y-55408571D02*
X102518595Y-55944285D01*
X103137642Y-55944285D01*
X97090023Y-60901428D02*
X97423357Y-60901428D01*
X97566214Y-61294285D02*
X97090023Y-61294285D01*
X97090023Y-60544285D01*
X97566214Y-60544285D01*
X97994785Y-61294285D02*
X97994785Y-60544285D01*
X98375738Y-60544285D01*
X98470976Y-60580000D01*
X98518595Y-60615714D01*
X98566214Y-60687142D01*
X98566214Y-60794285D01*
X98518595Y-60865714D01*
X98470976Y-60901428D01*
X98375738Y-60937142D01*
X97994785Y-60937142D01*
X98947166Y-61258571D02*
X99090023Y-61294285D01*
X99328119Y-61294285D01*
X99423357Y-61258571D01*
X99470976Y-61222857D01*
X99518595Y-61151428D01*
X99518595Y-61080000D01*
X99470976Y-61008571D01*
X99423357Y-60972857D01*
X99328119Y-60937142D01*
X99137642Y-60901428D01*
X99042404Y-60865714D01*
X98994785Y-60830000D01*
X98947166Y-60758571D01*
X98947166Y-60687142D01*
X98994785Y-60615714D01*
X99042404Y-60580000D01*
X99137642Y-60544285D01*
X99375738Y-60544285D01*
X99518595Y-60580000D01*
X100470976Y-60580000D02*
X100375738Y-60544285D01*
X100232880Y-60544285D01*
X100090023Y-60580000D01*
X99994785Y-60651428D01*
X99947166Y-60722857D01*
X99899547Y-60865714D01*
X99899547Y-60972857D01*
X99947166Y-61115714D01*
X99994785Y-61187142D01*
X100090023Y-61258571D01*
X100232880Y-61294285D01*
X100328119Y-61294285D01*
X100470976Y-61258571D01*
X100518595Y-61222857D01*
X100518595Y-60972857D01*
X100328119Y-60972857D01*
X101661452Y-61080000D02*
X102137642Y-61080000D01*
X101566214Y-61294285D02*
X101899547Y-60544285D01*
X102232880Y-61294285D01*
X103090023Y-61294285D02*
X102518595Y-61294285D01*
X102804309Y-61294285D02*
X102804309Y-60544285D01*
X102709071Y-60651428D01*
X102613833Y-60722857D01*
X102518595Y-60758571D01*
X97090023Y-63451428D02*
X97423357Y-63451428D01*
X97566214Y-63844285D02*
X97090023Y-63844285D01*
X97090023Y-63094285D01*
X97566214Y-63094285D01*
X97994785Y-63844285D02*
X97994785Y-63094285D01*
X98375738Y-63094285D01*
X98470976Y-63130000D01*
X98518595Y-63165714D01*
X98566214Y-63237142D01*
X98566214Y-63344285D01*
X98518595Y-63415714D01*
X98470976Y-63451428D01*
X98375738Y-63487142D01*
X97994785Y-63487142D01*
X98947166Y-63808571D02*
X99090023Y-63844285D01*
X99328119Y-63844285D01*
X99423357Y-63808571D01*
X99470976Y-63772857D01*
X99518595Y-63701428D01*
X99518595Y-63630000D01*
X99470976Y-63558571D01*
X99423357Y-63522857D01*
X99328119Y-63487142D01*
X99137642Y-63451428D01*
X99042404Y-63415714D01*
X98994785Y-63380000D01*
X98947166Y-63308571D01*
X98947166Y-63237142D01*
X98994785Y-63165714D01*
X99042404Y-63130000D01*
X99137642Y-63094285D01*
X99375738Y-63094285D01*
X99518595Y-63130000D01*
X100470976Y-63130000D02*
X100375738Y-63094285D01*
X100232880Y-63094285D01*
X100090023Y-63130000D01*
X99994785Y-63201428D01*
X99947166Y-63272857D01*
X99899547Y-63415714D01*
X99899547Y-63522857D01*
X99947166Y-63665714D01*
X99994785Y-63737142D01*
X100090023Y-63808571D01*
X100232880Y-63844285D01*
X100328119Y-63844285D01*
X100470976Y-63808571D01*
X100518595Y-63772857D01*
X100518595Y-63522857D01*
X100328119Y-63522857D01*
X101661452Y-63630000D02*
X102137642Y-63630000D01*
X101566214Y-63844285D02*
X101899547Y-63094285D01*
X102232880Y-63844285D01*
X102756690Y-63094285D02*
X102851928Y-63094285D01*
X102947166Y-63130000D01*
X102994785Y-63165714D01*
X103042404Y-63237142D01*
X103090023Y-63380000D01*
X103090023Y-63558571D01*
X103042404Y-63701428D01*
X102994785Y-63772857D01*
X102947166Y-63808571D01*
X102851928Y-63844285D01*
X102756690Y-63844285D01*
X102661452Y-63808571D01*
X102613833Y-63772857D01*
X102566214Y-63701428D01*
X102518595Y-63558571D01*
X102518595Y-63380000D01*
X102566214Y-63237142D01*
X102613833Y-63165714D01*
X102661452Y-63130000D01*
X102756690Y-63094285D01*
X92423357Y-66001428D02*
X92756690Y-66001428D01*
X92899547Y-66394285D02*
X92423357Y-66394285D01*
X92423357Y-65644285D01*
X92899547Y-65644285D01*
X93328119Y-66394285D02*
X93328119Y-65644285D01*
X93709071Y-65644285D01*
X93804309Y-65680000D01*
X93851928Y-65715714D01*
X93899547Y-65787142D01*
X93899547Y-65894285D01*
X93851928Y-65965714D01*
X93804309Y-66001428D01*
X93709071Y-66037142D01*
X93328119Y-66037142D01*
X94280500Y-66358571D02*
X94423357Y-66394285D01*
X94661452Y-66394285D01*
X94756690Y-66358571D01*
X94804309Y-66322857D01*
X94851928Y-66251428D01*
X94851928Y-66180000D01*
X94804309Y-66108571D01*
X94756690Y-66072857D01*
X94661452Y-66037142D01*
X94470976Y-66001428D01*
X94375738Y-65965714D01*
X94328119Y-65930000D01*
X94280500Y-65858571D01*
X94280500Y-65787142D01*
X94328119Y-65715714D01*
X94375738Y-65680000D01*
X94470976Y-65644285D01*
X94709071Y-65644285D01*
X94851928Y-65680000D01*
X95804309Y-65680000D02*
X95709071Y-65644285D01*
X95566214Y-65644285D01*
X95423357Y-65680000D01*
X95328119Y-65751428D01*
X95280500Y-65822857D01*
X95232880Y-65965714D01*
X95232880Y-66072857D01*
X95280500Y-66215714D01*
X95328119Y-66287142D01*
X95423357Y-66358571D01*
X95566214Y-66394285D01*
X95661452Y-66394285D01*
X95804309Y-66358571D01*
X95851928Y-66322857D01*
X95851928Y-66072857D01*
X95661452Y-66072857D01*
X97613833Y-66322857D02*
X97566214Y-66358571D01*
X97423357Y-66394285D01*
X97328119Y-66394285D01*
X97185261Y-66358571D01*
X97090023Y-66287142D01*
X97042404Y-66215714D01*
X96994785Y-66072857D01*
X96994785Y-65965714D01*
X97042404Y-65822857D01*
X97090023Y-65751428D01*
X97185261Y-65680000D01*
X97328119Y-65644285D01*
X97423357Y-65644285D01*
X97566214Y-65680000D01*
X97613833Y-65715714D01*
X98042404Y-66001428D02*
X98375738Y-66001428D01*
X98518595Y-66394285D02*
X98042404Y-66394285D01*
X98042404Y-65644285D01*
X98518595Y-65644285D01*
X99470976Y-66394285D02*
X98899547Y-66394285D01*
X99185261Y-66394285D02*
X99185261Y-65644285D01*
X99090023Y-65751428D01*
X98994785Y-65822857D01*
X98899547Y-65858571D01*
X100947166Y-66680000D02*
X100899547Y-66644285D01*
X100804309Y-66537142D01*
X100756690Y-66465714D01*
X100709071Y-66358571D01*
X100661452Y-66180000D01*
X100661452Y-66037142D01*
X100709071Y-65858571D01*
X100756690Y-65751428D01*
X100804309Y-65680000D01*
X100899547Y-65572857D01*
X100947166Y-65537142D01*
X101328119Y-66394285D02*
X101328119Y-65644285D01*
X101328119Y-66001428D02*
X101899547Y-66001428D01*
X101899547Y-66394285D02*
X101899547Y-65644285D01*
X102375738Y-66394285D02*
X102375738Y-65644285D01*
X102756690Y-66680000D02*
X102804309Y-66644285D01*
X102899547Y-66537142D01*
X102947166Y-66465714D01*
X102994785Y-66358571D01*
X103042404Y-66180000D01*
X103042404Y-66037142D01*
X102994785Y-65858571D01*
X102947166Y-65751428D01*
X102899547Y-65680000D01*
X102804309Y-65572857D01*
X102756690Y-65537142D01*
X92090023Y-68551428D02*
X92423357Y-68551428D01*
X92566214Y-68944285D02*
X92090023Y-68944285D01*
X92090023Y-68194285D01*
X92566214Y-68194285D01*
X92994785Y-68944285D02*
X92994785Y-68194285D01*
X93375738Y-68194285D01*
X93470976Y-68230000D01*
X93518595Y-68265714D01*
X93566214Y-68337142D01*
X93566214Y-68444285D01*
X93518595Y-68515714D01*
X93470976Y-68551428D01*
X93375738Y-68587142D01*
X92994785Y-68587142D01*
X93947166Y-68908571D02*
X94090023Y-68944285D01*
X94328119Y-68944285D01*
X94423357Y-68908571D01*
X94470976Y-68872857D01*
X94518595Y-68801428D01*
X94518595Y-68730000D01*
X94470976Y-68658571D01*
X94423357Y-68622857D01*
X94328119Y-68587142D01*
X94137642Y-68551428D01*
X94042404Y-68515714D01*
X93994785Y-68480000D01*
X93947166Y-68408571D01*
X93947166Y-68337142D01*
X93994785Y-68265714D01*
X94042404Y-68230000D01*
X94137642Y-68194285D01*
X94375738Y-68194285D01*
X94518595Y-68230000D01*
X95470976Y-68230000D02*
X95375738Y-68194285D01*
X95232880Y-68194285D01*
X95090023Y-68230000D01*
X94994785Y-68301428D01*
X94947166Y-68372857D01*
X94899547Y-68515714D01*
X94899547Y-68622857D01*
X94947166Y-68765714D01*
X94994785Y-68837142D01*
X95090023Y-68908571D01*
X95232880Y-68944285D01*
X95328119Y-68944285D01*
X95470976Y-68908571D01*
X95518595Y-68872857D01*
X95518595Y-68622857D01*
X95328119Y-68622857D01*
X97280500Y-68872857D02*
X97232880Y-68908571D01*
X97090023Y-68944285D01*
X96994785Y-68944285D01*
X96851928Y-68908571D01*
X96756690Y-68837142D01*
X96709071Y-68765714D01*
X96661452Y-68622857D01*
X96661452Y-68515714D01*
X96709071Y-68372857D01*
X96756690Y-68301428D01*
X96851928Y-68230000D01*
X96994785Y-68194285D01*
X97090023Y-68194285D01*
X97232880Y-68230000D01*
X97280500Y-68265714D01*
X97709071Y-68551428D02*
X98042404Y-68551428D01*
X98185261Y-68944285D02*
X97709071Y-68944285D01*
X97709071Y-68194285D01*
X98185261Y-68194285D01*
X98566214Y-68265714D02*
X98613833Y-68230000D01*
X98709071Y-68194285D01*
X98947166Y-68194285D01*
X99042404Y-68230000D01*
X99090023Y-68265714D01*
X99137642Y-68337142D01*
X99137642Y-68408571D01*
X99090023Y-68515714D01*
X98518595Y-68944285D01*
X99137642Y-68944285D01*
X100613833Y-69230000D02*
X100566214Y-69194285D01*
X100470976Y-69087142D01*
X100423357Y-69015714D01*
X100375738Y-68908571D01*
X100328119Y-68730000D01*
X100328119Y-68587142D01*
X100375738Y-68408571D01*
X100423357Y-68301428D01*
X100470976Y-68230000D01*
X100566214Y-68122857D01*
X100613833Y-68087142D01*
X101470976Y-68944285D02*
X100994785Y-68944285D01*
X100994785Y-68194285D01*
X101994785Y-68194285D02*
X102185261Y-68194285D01*
X102280500Y-68230000D01*
X102375738Y-68301428D01*
X102423357Y-68444285D01*
X102423357Y-68694285D01*
X102375738Y-68837142D01*
X102280500Y-68908571D01*
X102185261Y-68944285D01*
X101994785Y-68944285D01*
X101899547Y-68908571D01*
X101804309Y-68837142D01*
X101756690Y-68694285D01*
X101756690Y-68444285D01*
X101804309Y-68301428D01*
X101899547Y-68230000D01*
X101994785Y-68194285D01*
X102756690Y-69230000D02*
X102804309Y-69194285D01*
X102899547Y-69087142D01*
X102947166Y-69015714D01*
X102994785Y-68908571D01*
X103042404Y-68730000D01*
X103042404Y-68587142D01*
X102994785Y-68408571D01*
X102947166Y-68301428D01*
X102899547Y-68230000D01*
X102804309Y-68122857D01*
X102756690Y-68087142D01*
X92090023Y-71101428D02*
X92423357Y-71101428D01*
X92566214Y-71494285D02*
X92090023Y-71494285D01*
X92090023Y-70744285D01*
X92566214Y-70744285D01*
X92994785Y-71494285D02*
X92994785Y-70744285D01*
X93375738Y-70744285D01*
X93470976Y-70780000D01*
X93518595Y-70815714D01*
X93566214Y-70887142D01*
X93566214Y-70994285D01*
X93518595Y-71065714D01*
X93470976Y-71101428D01*
X93375738Y-71137142D01*
X92994785Y-71137142D01*
X93947166Y-71458571D02*
X94090023Y-71494285D01*
X94328119Y-71494285D01*
X94423357Y-71458571D01*
X94470976Y-71422857D01*
X94518595Y-71351428D01*
X94518595Y-71280000D01*
X94470976Y-71208571D01*
X94423357Y-71172857D01*
X94328119Y-71137142D01*
X94137642Y-71101428D01*
X94042404Y-71065714D01*
X93994785Y-71030000D01*
X93947166Y-70958571D01*
X93947166Y-70887142D01*
X93994785Y-70815714D01*
X94042404Y-70780000D01*
X94137642Y-70744285D01*
X94375738Y-70744285D01*
X94518595Y-70780000D01*
X95470976Y-70780000D02*
X95375738Y-70744285D01*
X95232880Y-70744285D01*
X95090023Y-70780000D01*
X94994785Y-70851428D01*
X94947166Y-70922857D01*
X94899547Y-71065714D01*
X94899547Y-71172857D01*
X94947166Y-71315714D01*
X94994785Y-71387142D01*
X95090023Y-71458571D01*
X95232880Y-71494285D01*
X95328119Y-71494285D01*
X95470976Y-71458571D01*
X95518595Y-71422857D01*
X95518595Y-71172857D01*
X95328119Y-71172857D01*
X97280500Y-71422857D02*
X97232880Y-71458571D01*
X97090023Y-71494285D01*
X96994785Y-71494285D01*
X96851928Y-71458571D01*
X96756690Y-71387142D01*
X96709071Y-71315714D01*
X96661452Y-71172857D01*
X96661452Y-71065714D01*
X96709071Y-70922857D01*
X96756690Y-70851428D01*
X96851928Y-70780000D01*
X96994785Y-70744285D01*
X97090023Y-70744285D01*
X97232880Y-70780000D01*
X97280500Y-70815714D01*
X97709071Y-71101428D02*
X98042404Y-71101428D01*
X98185261Y-71494285D02*
X97709071Y-71494285D01*
X97709071Y-70744285D01*
X98185261Y-70744285D01*
X98518595Y-70744285D02*
X99137642Y-70744285D01*
X98804309Y-71030000D01*
X98947166Y-71030000D01*
X99042404Y-71065714D01*
X99090023Y-71101428D01*
X99137642Y-71172857D01*
X99137642Y-71351428D01*
X99090023Y-71422857D01*
X99042404Y-71458571D01*
X98947166Y-71494285D01*
X98661452Y-71494285D01*
X98566214Y-71458571D01*
X98518595Y-71422857D01*
X100613833Y-71780000D02*
X100566214Y-71744285D01*
X100470976Y-71637142D01*
X100423357Y-71565714D01*
X100375738Y-71458571D01*
X100328119Y-71280000D01*
X100328119Y-71137142D01*
X100375738Y-70958571D01*
X100423357Y-70851428D01*
X100470976Y-70780000D01*
X100566214Y-70672857D01*
X100613833Y-70637142D01*
X101470976Y-71494285D02*
X100994785Y-71494285D01*
X100994785Y-70744285D01*
X101994785Y-70744285D02*
X102185261Y-70744285D01*
X102280500Y-70780000D01*
X102375738Y-70851428D01*
X102423357Y-70994285D01*
X102423357Y-71244285D01*
X102375738Y-71387142D01*
X102280500Y-71458571D01*
X102185261Y-71494285D01*
X101994785Y-71494285D01*
X101899547Y-71458571D01*
X101804309Y-71387142D01*
X101756690Y-71244285D01*
X101756690Y-70994285D01*
X101804309Y-70851428D01*
X101899547Y-70780000D01*
X101994785Y-70744285D01*
X102756690Y-71780000D02*
X102804309Y-71744285D01*
X102899547Y-71637142D01*
X102947166Y-71565714D01*
X102994785Y-71458571D01*
X103042404Y-71280000D01*
X103042404Y-71137142D01*
X102994785Y-70958571D01*
X102947166Y-70851428D01*
X102899547Y-70780000D01*
X102804309Y-70672857D01*
X102756690Y-70637142D01*
X98232880Y-79144285D02*
X97899547Y-78787142D01*
X97661452Y-79144285D02*
X97661452Y-78394285D01*
X98042404Y-78394285D01*
X98137642Y-78430000D01*
X98185261Y-78465714D01*
X98232880Y-78537142D01*
X98232880Y-78644285D01*
X98185261Y-78715714D01*
X98137642Y-78751428D01*
X98042404Y-78787142D01*
X97661452Y-78787142D01*
X98851928Y-78394285D02*
X99042404Y-78394285D01*
X99137642Y-78430000D01*
X99232880Y-78501428D01*
X99280500Y-78644285D01*
X99280500Y-78894285D01*
X99232880Y-79037142D01*
X99137642Y-79108571D01*
X99042404Y-79144285D01*
X98851928Y-79144285D01*
X98756690Y-79108571D01*
X98661452Y-79037142D01*
X98613833Y-78894285D01*
X98613833Y-78644285D01*
X98661452Y-78501428D01*
X98756690Y-78430000D01*
X98851928Y-78394285D01*
X99709071Y-79144285D02*
X99709071Y-78394285D01*
X100042404Y-78930000D01*
X100375738Y-78394285D01*
X100375738Y-79144285D01*
X100804309Y-79108571D02*
X100947166Y-79144285D01*
X101185261Y-79144285D01*
X101280500Y-79108571D01*
X101328119Y-79072857D01*
X101375738Y-79001428D01*
X101375738Y-78930000D01*
X101328119Y-78858571D01*
X101280500Y-78822857D01*
X101185261Y-78787142D01*
X100994785Y-78751428D01*
X100899547Y-78715714D01*
X100851928Y-78680000D01*
X100804309Y-78608571D01*
X100804309Y-78537142D01*
X100851928Y-78465714D01*
X100899547Y-78430000D01*
X100994785Y-78394285D01*
X101232880Y-78394285D01*
X101375738Y-78430000D01*
X101804309Y-78751428D02*
X102137642Y-78751428D01*
X102280500Y-79144285D02*
X101804309Y-79144285D01*
X101804309Y-78394285D01*
X102280500Y-78394285D01*
X103185261Y-79144285D02*
X102709071Y-79144285D01*
X102709071Y-78394285D01*
D10*
X105061714Y-36463857D02*
X104561714Y-36463857D01*
X104561714Y-37249571D02*
X104561714Y-35749571D01*
X105276000Y-35749571D01*
X106490285Y-37249571D02*
X106490285Y-36463857D01*
X106418857Y-36321000D01*
X106276000Y-36249571D01*
X105990285Y-36249571D01*
X105847428Y-36321000D01*
X106490285Y-37178142D02*
X106347428Y-37249571D01*
X105990285Y-37249571D01*
X105847428Y-37178142D01*
X105776000Y-37035285D01*
X105776000Y-36892428D01*
X105847428Y-36749571D01*
X105990285Y-36678142D01*
X106347428Y-36678142D01*
X106490285Y-36606714D01*
X107204571Y-37249571D02*
X107204571Y-36249571D01*
X107204571Y-36392428D02*
X107276000Y-36321000D01*
X107418857Y-36249571D01*
X107633142Y-36249571D01*
X107776000Y-36321000D01*
X107847428Y-36463857D01*
X107847428Y-37249571D01*
X107847428Y-36463857D02*
X107918857Y-36321000D01*
X108061714Y-36249571D01*
X108276000Y-36249571D01*
X108418857Y-36321000D01*
X108490285Y-36463857D01*
X108490285Y-37249571D01*
X109204571Y-37249571D02*
X109204571Y-36249571D01*
X109204571Y-35749571D02*
X109133142Y-35821000D01*
X109204571Y-35892428D01*
X109276000Y-35821000D01*
X109204571Y-35749571D01*
X109204571Y-35892428D01*
X110561714Y-37178142D02*
X110418857Y-37249571D01*
X110133142Y-37249571D01*
X109990285Y-37178142D01*
X109918857Y-37106714D01*
X109847428Y-36963857D01*
X109847428Y-36535285D01*
X109918857Y-36392428D01*
X109990285Y-36321000D01*
X110133142Y-36249571D01*
X110418857Y-36249571D01*
X110561714Y-36321000D01*
X111418857Y-37249571D02*
X111276000Y-37178142D01*
X111204571Y-37106714D01*
X111133142Y-36963857D01*
X111133142Y-36535285D01*
X111204571Y-36392428D01*
X111276000Y-36321000D01*
X111418857Y-36249571D01*
X111633142Y-36249571D01*
X111776000Y-36321000D01*
X111847428Y-36392428D01*
X111918857Y-36535285D01*
X111918857Y-36963857D01*
X111847428Y-37106714D01*
X111776000Y-37178142D01*
X111633142Y-37249571D01*
X111418857Y-37249571D01*
X112561714Y-37249571D02*
X112561714Y-36249571D01*
X112561714Y-36392428D02*
X112633142Y-36321000D01*
X112776000Y-36249571D01*
X112990285Y-36249571D01*
X113133142Y-36321000D01*
X113204571Y-36463857D01*
X113204571Y-37249571D01*
X113204571Y-36463857D02*
X113276000Y-36321000D01*
X113418857Y-36249571D01*
X113633142Y-36249571D01*
X113776000Y-36321000D01*
X113847428Y-36463857D01*
X113847428Y-37249571D01*
X115704571Y-36463857D02*
X116204571Y-36463857D01*
X116418857Y-37249571D02*
X115704571Y-37249571D01*
X115704571Y-35749571D01*
X116418857Y-35749571D01*
X117061714Y-37249571D02*
X117061714Y-35749571D01*
X117633142Y-35749571D01*
X117776000Y-35821000D01*
X117847428Y-35892428D01*
X117918857Y-36035285D01*
X117918857Y-36249571D01*
X117847428Y-36392428D01*
X117776000Y-36463857D01*
X117633142Y-36535285D01*
X117061714Y-36535285D01*
X118490285Y-37178142D02*
X118704571Y-37249571D01*
X119061714Y-37249571D01*
X119204571Y-37178142D01*
X119276000Y-37106714D01*
X119347428Y-36963857D01*
X119347428Y-36821000D01*
X119276000Y-36678142D01*
X119204571Y-36606714D01*
X119061714Y-36535285D01*
X118776000Y-36463857D01*
X118633142Y-36392428D01*
X118561714Y-36321000D01*
X118490285Y-36178142D01*
X118490285Y-36035285D01*
X118561714Y-35892428D01*
X118633142Y-35821000D01*
X118776000Y-35749571D01*
X119133142Y-35749571D01*
X119347428Y-35821000D01*
X119990285Y-37249571D02*
X119990285Y-35749571D01*
X120490285Y-36821000D01*
X120990285Y-35749571D01*
X120990285Y-37249571D01*
X110918857Y-39799571D02*
X110418857Y-39085285D01*
X110061714Y-39799571D02*
X110061714Y-38299571D01*
X110633142Y-38299571D01*
X110776000Y-38371000D01*
X110847428Y-38442428D01*
X110918857Y-38585285D01*
X110918857Y-38799571D01*
X110847428Y-38942428D01*
X110776000Y-39013857D01*
X110633142Y-39085285D01*
X110061714Y-39085285D01*
X111561714Y-39013857D02*
X112061714Y-39013857D01*
X112276000Y-39799571D02*
X111561714Y-39799571D01*
X111561714Y-38299571D01*
X112276000Y-38299571D01*
X112704571Y-38299571D02*
X113204571Y-39799571D01*
X113704571Y-38299571D01*
X114204571Y-39656714D02*
X114276000Y-39728142D01*
X114204571Y-39799571D01*
X114133142Y-39728142D01*
X114204571Y-39656714D01*
X114204571Y-39799571D01*
X114847428Y-39371000D02*
X115561714Y-39371000D01*
X114704571Y-39799571D02*
X115204571Y-38299571D01*
X115704571Y-39799571D01*
D12*
%TO.C,R6*%
X117771936Y-84809000D02*
X118226064Y-84809000D01*
X117771936Y-83339000D02*
X118226064Y-83339000D01*
%TO.C,J2*%
X118043000Y-44960000D02*
X119403000Y-44960000D01*
X112843000Y-82040000D02*
X112843000Y-82610000D01*
X112843000Y-79500000D02*
X112843000Y-80520000D01*
X112843000Y-76960000D02*
X112843000Y-77980000D01*
X112843000Y-74420000D02*
X112843000Y-75440000D01*
X112843000Y-71880000D02*
X112843000Y-72900000D01*
X112843000Y-69340000D02*
X112843000Y-70360000D01*
X112843000Y-66800000D02*
X112843000Y-67820000D01*
X112843000Y-64260000D02*
X112843000Y-65280000D01*
X112843000Y-61720000D02*
X112843000Y-62740000D01*
X112843000Y-59180000D02*
X112843000Y-60200000D01*
X112843000Y-56640000D02*
X112843000Y-57660000D01*
X112843000Y-54100000D02*
X112843000Y-55120000D01*
X112843000Y-51560000D02*
X112843000Y-52580000D01*
X112843000Y-49020000D02*
X112843000Y-50040000D01*
X112843000Y-46480000D02*
X112843000Y-47500000D01*
X112843000Y-44390000D02*
X112843000Y-44960000D01*
X112843000Y-82610000D02*
X118043000Y-82610000D01*
X118043000Y-82040000D02*
X118043000Y-82610000D01*
X118043000Y-79500000D02*
X118043000Y-80520000D01*
X118043000Y-76960000D02*
X118043000Y-77980000D01*
X118043000Y-74420000D02*
X118043000Y-75440000D01*
X118043000Y-71880000D02*
X118043000Y-72900000D01*
X118043000Y-69340000D02*
X118043000Y-70360000D01*
X118043000Y-66800000D02*
X118043000Y-67820000D01*
X118043000Y-64260000D02*
X118043000Y-65280000D01*
X118043000Y-61720000D02*
X118043000Y-62740000D01*
X118043000Y-59180000D02*
X118043000Y-60200000D01*
X118043000Y-56640000D02*
X118043000Y-57660000D01*
X118043000Y-54100000D02*
X118043000Y-55120000D01*
X118043000Y-51560000D02*
X118043000Y-52580000D01*
X118043000Y-49020000D02*
X118043000Y-50040000D01*
X118043000Y-46480000D02*
X118043000Y-47500000D01*
X118043000Y-44390000D02*
X118043000Y-44960000D01*
X112843000Y-44390000D02*
X118043000Y-44390000D01*
%TO.C,R6*%
D11*
X117832333Y-82876380D02*
X117499000Y-82400190D01*
X117260904Y-82876380D02*
X117260904Y-81876380D01*
X117641857Y-81876380D01*
X117737095Y-81924000D01*
X117784714Y-81971619D01*
X117832333Y-82066857D01*
X117832333Y-82209714D01*
X117784714Y-82304952D01*
X117737095Y-82352571D01*
X117641857Y-82400190D01*
X117260904Y-82400190D01*
X118689476Y-81876380D02*
X118499000Y-81876380D01*
X118403761Y-81924000D01*
X118356142Y-81971619D01*
X118260904Y-82114476D01*
X118213285Y-82304952D01*
X118213285Y-82685904D01*
X118260904Y-82781142D01*
X118308523Y-82828761D01*
X118403761Y-82876380D01*
X118594238Y-82876380D01*
X118689476Y-82828761D01*
X118737095Y-82781142D01*
X118784714Y-82685904D01*
X118784714Y-82447809D01*
X118737095Y-82352571D01*
X118689476Y-82304952D01*
X118594238Y-82257333D01*
X118403761Y-82257333D01*
X118308523Y-82304952D01*
X118260904Y-82352571D01*
X118213285Y-82447809D01*
%TO.C,J2*%
X115109666Y-42402380D02*
X115109666Y-43116666D01*
X115062047Y-43259523D01*
X114966809Y-43354761D01*
X114823952Y-43402380D01*
X114728714Y-43402380D01*
X115538238Y-42497619D02*
X115585857Y-42450000D01*
X115681095Y-42402380D01*
X115919190Y-42402380D01*
X116014428Y-42450000D01*
X116062047Y-42497619D01*
X116109666Y-42592857D01*
X116109666Y-42688095D01*
X116062047Y-42830952D01*
X115490619Y-43402380D01*
X116109666Y-43402380D01*
%TO.C,J3*%
X77176380Y-55959333D02*
X77890666Y-55959333D01*
X78033523Y-56006952D01*
X78128761Y-56102190D01*
X78176380Y-56245047D01*
X78176380Y-56340285D01*
X77176380Y-55578380D02*
X77176380Y-54959333D01*
X77557333Y-55292666D01*
X77557333Y-55149809D01*
X77604952Y-55054571D01*
X77652571Y-55006952D01*
X77747809Y-54959333D01*
X77985904Y-54959333D01*
X78081142Y-55006952D01*
X78128761Y-55054571D01*
X78176380Y-55149809D01*
X78176380Y-55435523D01*
X78128761Y-55530761D01*
X78081142Y-55578380D01*
%TO.C,J9*%
X121626380Y-58245333D02*
X122340666Y-58245333D01*
X122483523Y-58292952D01*
X122578761Y-58388190D01*
X122626380Y-58531047D01*
X122626380Y-58626285D01*
X122626380Y-57721523D02*
X122626380Y-57531047D01*
X122578761Y-57435809D01*
X122531142Y-57388190D01*
X122388285Y-57292952D01*
X122197809Y-57245333D01*
X121816857Y-57245333D01*
X121721619Y-57292952D01*
X121674000Y-57340571D01*
X121626380Y-57435809D01*
X121626380Y-57626285D01*
X121674000Y-57721523D01*
X121721619Y-57769142D01*
X121816857Y-57816761D01*
X122054952Y-57816761D01*
X122150190Y-57769142D01*
X122197809Y-57721523D01*
X122245428Y-57626285D01*
X122245428Y-57435809D01*
X122197809Y-57340571D01*
X122150190Y-57292952D01*
X122054952Y-57245333D01*
%TD*%
M02*
