%TF.GenerationSoftware,KiCad,Pcbnew,(5.1.10)-1*%
%TF.CreationDate,2021-06-12T16:48:45+02:00*%
%TF.ProjectId,Nes Sound Expansion,4e657320-536f-4756-9e64-20457870616e,rev?*%
%TF.SameCoordinates,Original*%
%TF.FileFunction,Copper,L2,Bot*%
%TF.FilePolarity,Positive*%
%FSLAX46Y46*%
G04 Gerber Fmt 4.6, Leading zero omitted, Abs format (unit mm)*
G04 Created by KiCad (PCBNEW (5.1.10)-1) date 2021-06-12 16:48:45*
%MOMM*%
%LPD*%
G01*
G04 APERTURE LIST*
%TA.AperFunction,SMDPad,CuDef*%
%ADD10R,0.650000X1.060000*%
%TD*%
%TA.AperFunction,ConnectorPad*%
%ADD11R,10.000000X1.524000*%
%TD*%
%TA.AperFunction,SMDPad,CuDef*%
%ADD12R,1.980000X3.000000*%
%TD*%
%TA.AperFunction,ComponentPad*%
%ADD13O,1.700000X1.700000*%
%TD*%
%TA.AperFunction,ComponentPad*%
%ADD14R,1.700000X1.700000*%
%TD*%
%TA.AperFunction,ViaPad*%
%ADD15C,0.800000*%
%TD*%
%TA.AperFunction,Conductor*%
%ADD16C,0.250000*%
%TD*%
%TA.AperFunction,Conductor*%
%ADD17C,0.500000*%
%TD*%
%TA.AperFunction,Conductor*%
%ADD18C,0.800000*%
%TD*%
G04 APERTURE END LIST*
%TO.P,R9,2*%
%TO.N,Net-(C9-Pad1)*%
%TA.AperFunction,SMDPad,CuDef*%
G36*
G01*
X82712000Y-84016001D02*
X82712000Y-83115999D01*
G75*
G02*
X82961999Y-82866000I249999J0D01*
G01*
X83662001Y-82866000D01*
G75*
G02*
X83912000Y-83115999I0J-249999D01*
G01*
X83912000Y-84016001D01*
G75*
G02*
X83662001Y-84266000I-249999J0D01*
G01*
X82961999Y-84266000D01*
G75*
G02*
X82712000Y-84016001I0J249999D01*
G01*
G37*
%TD.AperFunction*%
%TO.P,R9,1*%
%TO.N,AudIn*%
%TA.AperFunction,SMDPad,CuDef*%
G36*
G01*
X80712000Y-84016001D02*
X80712000Y-83115999D01*
G75*
G02*
X80961999Y-82866000I249999J0D01*
G01*
X81662001Y-82866000D01*
G75*
G02*
X81912000Y-83115999I0J-249999D01*
G01*
X81912000Y-84016001D01*
G75*
G02*
X81662001Y-84266000I-249999J0D01*
G01*
X80961999Y-84266000D01*
G75*
G02*
X80712000Y-84016001I0J249999D01*
G01*
G37*
%TD.AperFunction*%
%TD*%
D10*
%TO.P,U3,5*%
%TO.N,+5V*%
X84582000Y-80432000D03*
%TO.P,U3,4*%
%TO.N,Net-(C9-Pad2)*%
X86482000Y-80432000D03*
%TO.P,U3,3*%
%TO.N,Net-(R3-Pad1)*%
X86482000Y-78232000D03*
%TO.P,U3,2*%
%TO.N,GND*%
X85532000Y-78232000D03*
%TO.P,U3,1*%
%TO.N,Net-(C6-Pad2)*%
X84582000Y-78232000D03*
%TD*%
%TO.P,R7,2*%
%TO.N,Net-(C9-Pad2)*%
%TA.AperFunction,SMDPad,CuDef*%
G36*
G01*
X81591999Y-76981000D02*
X82492001Y-76981000D01*
G75*
G02*
X82742000Y-77230999I0J-249999D01*
G01*
X82742000Y-77931001D01*
G75*
G02*
X82492001Y-78181000I-249999J0D01*
G01*
X81591999Y-78181000D01*
G75*
G02*
X81342000Y-77931001I0J249999D01*
G01*
X81342000Y-77230999D01*
G75*
G02*
X81591999Y-76981000I249999J0D01*
G01*
G37*
%TD.AperFunction*%
%TO.P,R7,1*%
%TO.N,Net-(R3-Pad1)*%
%TA.AperFunction,SMDPad,CuDef*%
G36*
G01*
X81591999Y-74981000D02*
X82492001Y-74981000D01*
G75*
G02*
X82742000Y-75230999I0J-249999D01*
G01*
X82742000Y-75931001D01*
G75*
G02*
X82492001Y-76181000I-249999J0D01*
G01*
X81591999Y-76181000D01*
G75*
G02*
X81342000Y-75931001I0J249999D01*
G01*
X81342000Y-75230999D01*
G75*
G02*
X81591999Y-74981000I249999J0D01*
G01*
G37*
%TD.AperFunction*%
%TD*%
%TO.P,R3,2*%
%TO.N,Net-(C8-Pad1)*%
%TA.AperFunction,SMDPad,CuDef*%
G36*
G01*
X83474000Y-74110001D02*
X83474000Y-73209999D01*
G75*
G02*
X83723999Y-72960000I249999J0D01*
G01*
X84424001Y-72960000D01*
G75*
G02*
X84674000Y-73209999I0J-249999D01*
G01*
X84674000Y-74110001D01*
G75*
G02*
X84424001Y-74360000I-249999J0D01*
G01*
X83723999Y-74360000D01*
G75*
G02*
X83474000Y-74110001I0J249999D01*
G01*
G37*
%TD.AperFunction*%
%TO.P,R3,1*%
%TO.N,Net-(R3-Pad1)*%
%TA.AperFunction,SMDPad,CuDef*%
G36*
G01*
X81474000Y-74110001D02*
X81474000Y-73209999D01*
G75*
G02*
X81723999Y-72960000I249999J0D01*
G01*
X82424001Y-72960000D01*
G75*
G02*
X82674000Y-73209999I0J-249999D01*
G01*
X82674000Y-74110001D01*
G75*
G02*
X82424001Y-74360000I-249999J0D01*
G01*
X81723999Y-74360000D01*
G75*
G02*
X81474000Y-74110001I0J249999D01*
G01*
G37*
%TD.AperFunction*%
%TD*%
%TO.P,R2,2*%
%TO.N,GND*%
%TA.AperFunction,SMDPad,CuDef*%
G36*
G01*
X87030000Y-86683001D02*
X87030000Y-85782999D01*
G75*
G02*
X87279999Y-85533000I249999J0D01*
G01*
X87980001Y-85533000D01*
G75*
G02*
X88230000Y-85782999I0J-249999D01*
G01*
X88230000Y-86683001D01*
G75*
G02*
X87980001Y-86933000I-249999J0D01*
G01*
X87279999Y-86933000D01*
G75*
G02*
X87030000Y-86683001I0J249999D01*
G01*
G37*
%TD.AperFunction*%
%TO.P,R2,1*%
%TO.N,Net-(C6-Pad2)*%
%TA.AperFunction,SMDPad,CuDef*%
G36*
G01*
X85030000Y-86683001D02*
X85030000Y-85782999D01*
G75*
G02*
X85279999Y-85533000I249999J0D01*
G01*
X85980001Y-85533000D01*
G75*
G02*
X86230000Y-85782999I0J-249999D01*
G01*
X86230000Y-86683001D01*
G75*
G02*
X85980001Y-86933000I-249999J0D01*
G01*
X85279999Y-86933000D01*
G75*
G02*
X85030000Y-86683001I0J249999D01*
G01*
G37*
%TD.AperFunction*%
%TD*%
%TO.P,R1,2*%
%TO.N,Net-(C6-Pad2)*%
%TA.AperFunction,SMDPad,CuDef*%
G36*
G01*
X86230000Y-83115999D02*
X86230000Y-84016001D01*
G75*
G02*
X85980001Y-84266000I-249999J0D01*
G01*
X85279999Y-84266000D01*
G75*
G02*
X85030000Y-84016001I0J249999D01*
G01*
X85030000Y-83115999D01*
G75*
G02*
X85279999Y-82866000I249999J0D01*
G01*
X85980001Y-82866000D01*
G75*
G02*
X86230000Y-83115999I0J-249999D01*
G01*
G37*
%TD.AperFunction*%
%TO.P,R1,1*%
%TO.N,+5V*%
%TA.AperFunction,SMDPad,CuDef*%
G36*
G01*
X88230000Y-83115999D02*
X88230000Y-84016001D01*
G75*
G02*
X87980001Y-84266000I-249999J0D01*
G01*
X87279999Y-84266000D01*
G75*
G02*
X87030000Y-84016001I0J249999D01*
G01*
X87030000Y-83115999D01*
G75*
G02*
X87279999Y-82866000I249999J0D01*
G01*
X87980001Y-82866000D01*
G75*
G02*
X88230000Y-83115999I0J-249999D01*
G01*
G37*
%TD.AperFunction*%
%TD*%
%TO.P,C9,2*%
%TO.N,Net-(C9-Pad2)*%
%TA.AperFunction,SMDPad,CuDef*%
G36*
G01*
X82600250Y-80054000D02*
X81737750Y-80054000D01*
G75*
G02*
X81529000Y-79845250I0J208750D01*
G01*
X81529000Y-79427750D01*
G75*
G02*
X81737750Y-79219000I208750J0D01*
G01*
X82600250Y-79219000D01*
G75*
G02*
X82809000Y-79427750I0J-208750D01*
G01*
X82809000Y-79845250D01*
G75*
G02*
X82600250Y-80054000I-208750J0D01*
G01*
G37*
%TD.AperFunction*%
%TO.P,C9,1*%
%TO.N,Net-(C9-Pad1)*%
%TA.AperFunction,SMDPad,CuDef*%
G36*
G01*
X82600250Y-81309000D02*
X81737750Y-81309000D01*
G75*
G02*
X81529000Y-81100250I0J208750D01*
G01*
X81529000Y-80682750D01*
G75*
G02*
X81737750Y-80474000I208750J0D01*
G01*
X82600250Y-80474000D01*
G75*
G02*
X82809000Y-80682750I0J-208750D01*
G01*
X82809000Y-81100250D01*
G75*
G02*
X82600250Y-81309000I-208750J0D01*
G01*
G37*
%TD.AperFunction*%
%TD*%
%TO.P,C8,2*%
%TO.N,GND*%
%TA.AperFunction,SMDPad,CuDef*%
G36*
G01*
X86182750Y-74878500D02*
X87045250Y-74878500D01*
G75*
G02*
X87254000Y-75087250I0J-208750D01*
G01*
X87254000Y-75504750D01*
G75*
G02*
X87045250Y-75713500I-208750J0D01*
G01*
X86182750Y-75713500D01*
G75*
G02*
X85974000Y-75504750I0J208750D01*
G01*
X85974000Y-75087250D01*
G75*
G02*
X86182750Y-74878500I208750J0D01*
G01*
G37*
%TD.AperFunction*%
%TO.P,C8,1*%
%TO.N,Net-(C8-Pad1)*%
%TA.AperFunction,SMDPad,CuDef*%
G36*
G01*
X86182750Y-73623500D02*
X87045250Y-73623500D01*
G75*
G02*
X87254000Y-73832250I0J-208750D01*
G01*
X87254000Y-74249750D01*
G75*
G02*
X87045250Y-74458500I-208750J0D01*
G01*
X86182750Y-74458500D01*
G75*
G02*
X85974000Y-74249750I0J208750D01*
G01*
X85974000Y-73832250D01*
G75*
G02*
X86182750Y-73623500I208750J0D01*
G01*
G37*
%TD.AperFunction*%
%TD*%
%TO.P,C7,2*%
%TO.N,Net-(C6-Pad2)*%
%TA.AperFunction,SMDPad,CuDef*%
G36*
G01*
X84633500Y-88214750D02*
X84633500Y-89077250D01*
G75*
G02*
X84424750Y-89286000I-208750J0D01*
G01*
X84007250Y-89286000D01*
G75*
G02*
X83798500Y-89077250I0J208750D01*
G01*
X83798500Y-88214750D01*
G75*
G02*
X84007250Y-88006000I208750J0D01*
G01*
X84424750Y-88006000D01*
G75*
G02*
X84633500Y-88214750I0J-208750D01*
G01*
G37*
%TD.AperFunction*%
%TO.P,C7,1*%
%TO.N,GND*%
%TA.AperFunction,SMDPad,CuDef*%
G36*
G01*
X85888500Y-88214750D02*
X85888500Y-89077250D01*
G75*
G02*
X85679750Y-89286000I-208750J0D01*
G01*
X85262250Y-89286000D01*
G75*
G02*
X85053500Y-89077250I0J208750D01*
G01*
X85053500Y-88214750D01*
G75*
G02*
X85262250Y-88006000I208750J0D01*
G01*
X85679750Y-88006000D01*
G75*
G02*
X85888500Y-88214750I0J-208750D01*
G01*
G37*
%TD.AperFunction*%
%TD*%
%TO.P,R4,1*%
%TO.N,+5V*%
%TA.AperFunction,SMDPad,CuDef*%
G36*
G01*
X102270000Y-103193001D02*
X102270000Y-102292999D01*
G75*
G02*
X102519999Y-102043000I249999J0D01*
G01*
X103220001Y-102043000D01*
G75*
G02*
X103470000Y-102292999I0J-249999D01*
G01*
X103470000Y-103193001D01*
G75*
G02*
X103220001Y-103443000I-249999J0D01*
G01*
X102519999Y-103443000D01*
G75*
G02*
X102270000Y-103193001I0J249999D01*
G01*
G37*
%TD.AperFunction*%
%TO.P,R4,2*%
%TO.N,Net-(C1-Pad2)*%
%TA.AperFunction,SMDPad,CuDef*%
G36*
G01*
X104270000Y-103193001D02*
X104270000Y-102292999D01*
G75*
G02*
X104519999Y-102043000I249999J0D01*
G01*
X105220001Y-102043000D01*
G75*
G02*
X105470000Y-102292999I0J-249999D01*
G01*
X105470000Y-103193001D01*
G75*
G02*
X105220001Y-103443000I-249999J0D01*
G01*
X104519999Y-103443000D01*
G75*
G02*
X104270000Y-103193001I0J249999D01*
G01*
G37*
%TD.AperFunction*%
%TD*%
D11*
%TO.P,J8,30*%
%TO.N,PPU_D4*%
X71628000Y-119380000D03*
%TO.P,J8,29*%
%TO.N,PPU_D5*%
X71628000Y-116840000D03*
%TO.P,J8,28*%
%TO.N,PPU_D6*%
X71628000Y-114300000D03*
%TO.P,J8,27*%
%TO.N,PPU_D7*%
X71628000Y-111760000D03*
%TO.P,J8,26*%
%TO.N,PPU_A13*%
X71628000Y-109220000D03*
%TO.P,J8,25*%
%TO.N,PPU_A12*%
X71628000Y-106680000D03*
%TO.P,J8,24*%
%TO.N,PPU_A11*%
X71628000Y-104140000D03*
%TO.P,J8,23*%
%TO.N,PPU_A10*%
X71628000Y-101600000D03*
%TO.P,J8,22*%
%TO.N,PPU_A9*%
X71628000Y-99060000D03*
%TO.P,J8,21*%
%TO.N,PPU_A8*%
X71628000Y-96520000D03*
%TO.P,J8,20*%
%TO.N,PPU_A7*%
X71628000Y-93980000D03*
%TO.P,J8,19*%
%TO.N,PPU_A13_*%
X71628000Y-91440000D03*
%TO.P,J8,18*%
%TO.N,CIRAM_CE*%
X71628000Y-88900000D03*
%TO.P,J8,17*%
%TO.N,PPU_WR*%
X71628000Y-86360000D03*
%TO.P,J8,16*%
%TO.N,AudIn*%
X71628000Y-83820000D03*
%TO.P,J8,15*%
%TO.N,Aud*%
X71628000Y-81280000D03*
%TO.P,J8,14*%
%TO.N,ROMSEL*%
X71628000Y-78740000D03*
%TO.P,J8,13*%
%TO.N,D0*%
X71628000Y-76200000D03*
%TO.P,J8,12*%
%TO.N,D1*%
X71628000Y-73660000D03*
%TO.P,J8,11*%
%TO.N,D2*%
X71628000Y-71120000D03*
%TO.P,J8,10*%
%TO.N,D3*%
X71628000Y-68580000D03*
%TO.P,J8,9*%
%TO.N,D4*%
X71628000Y-66040000D03*
%TO.P,J8,8*%
%TO.N,D5*%
X71628000Y-63500000D03*
%TO.P,J8,7*%
%TO.N,D6*%
X71628000Y-60960000D03*
%TO.P,J8,6*%
%TO.N,D7*%
X71628000Y-58420000D03*
%TO.P,J8,5*%
%TO.N,A14*%
X71628000Y-55880000D03*
%TO.P,J8,4*%
%TO.N,A13*%
X71628000Y-53340000D03*
%TO.P,J8,3*%
%TO.N,A12*%
X71628000Y-50800000D03*
%TO.P,J8,2*%
%TO.N,M2*%
X71628000Y-48260000D03*
%TO.P,J8,1*%
%TO.N,+5V*%
X71628000Y-45720000D03*
%TD*%
%TO.P,J4,30*%
%TO.N,PPU_D4*%
X128270000Y-119380000D03*
%TO.P,J4,29*%
%TO.N,PPU_D5*%
X128270000Y-116840000D03*
%TO.P,J4,28*%
%TO.N,PPU_D6*%
X128270000Y-114300000D03*
%TO.P,J4,27*%
%TO.N,PPU_D7*%
X128270000Y-111760000D03*
%TO.P,J4,26*%
%TO.N,PPU_A13*%
X128270000Y-109220000D03*
%TO.P,J4,25*%
%TO.N,PPU_A12*%
X128270000Y-106680000D03*
%TO.P,J4,24*%
%TO.N,PPU_A11*%
X128270000Y-104140000D03*
%TO.P,J4,23*%
%TO.N,PPU_A10*%
X128270000Y-101600000D03*
%TO.P,J4,22*%
%TO.N,PPU_A9*%
X128270000Y-99060000D03*
%TO.P,J4,21*%
%TO.N,PPU_A8*%
X128270000Y-96520000D03*
%TO.P,J4,20*%
%TO.N,PPU_A7*%
X128270000Y-93980000D03*
%TO.P,J4,19*%
%TO.N,PPU_A13_*%
X128270000Y-91440000D03*
%TO.P,J4,18*%
%TO.N,CIRAM_CE*%
X128270000Y-88900000D03*
%TO.P,J4,17*%
%TO.N,PPU_WR*%
X128270000Y-86360000D03*
%TO.P,J4,16*%
%TO.N,Net-(J4-Pad16)*%
X128270000Y-83820000D03*
%TO.P,J4,15*%
%TO.N,Aud*%
X128270000Y-81280000D03*
%TO.P,J4,14*%
%TO.N,ROMSEL*%
X128270000Y-78740000D03*
%TO.P,J4,13*%
%TO.N,D0*%
X128270000Y-76200000D03*
%TO.P,J4,12*%
%TO.N,D1*%
X128270000Y-73660000D03*
%TO.P,J4,11*%
%TO.N,D2*%
X128270000Y-71120000D03*
%TO.P,J4,10*%
%TO.N,D3*%
X128270000Y-68580000D03*
%TO.P,J4,9*%
%TO.N,D4*%
X128270000Y-66040000D03*
%TO.P,J4,8*%
%TO.N,D5*%
X128270000Y-63500000D03*
%TO.P,J4,7*%
%TO.N,D6*%
X128270000Y-60960000D03*
%TO.P,J4,6*%
%TO.N,D7*%
X128270000Y-58420000D03*
%TO.P,J4,5*%
%TO.N,A14*%
X128270000Y-55880000D03*
%TO.P,J4,4*%
%TO.N,A13*%
X128270000Y-53340000D03*
%TO.P,J4,3*%
%TO.N,A12*%
X128270000Y-50800000D03*
%TO.P,J4,2*%
%TO.N,M2*%
X128270000Y-48260000D03*
%TO.P,J4,1*%
%TO.N,+5V*%
X128270000Y-45720000D03*
%TD*%
%TO.P,C1,1*%
%TO.N,GND*%
%TA.AperFunction,SMDPad,CuDef*%
G36*
G01*
X109115000Y-102438750D02*
X109115000Y-103301250D01*
G75*
G02*
X108906250Y-103510000I-208750J0D01*
G01*
X108488750Y-103510000D01*
G75*
G02*
X108280000Y-103301250I0J208750D01*
G01*
X108280000Y-102438750D01*
G75*
G02*
X108488750Y-102230000I208750J0D01*
G01*
X108906250Y-102230000D01*
G75*
G02*
X109115000Y-102438750I0J-208750D01*
G01*
G37*
%TD.AperFunction*%
%TO.P,C1,2*%
%TO.N,Net-(C1-Pad2)*%
%TA.AperFunction,SMDPad,CuDef*%
G36*
G01*
X107860000Y-102438750D02*
X107860000Y-103301250D01*
G75*
G02*
X107651250Y-103510000I-208750J0D01*
G01*
X107233750Y-103510000D01*
G75*
G02*
X107025000Y-103301250I0J208750D01*
G01*
X107025000Y-102438750D01*
G75*
G02*
X107233750Y-102230000I208750J0D01*
G01*
X107651250Y-102230000D01*
G75*
G02*
X107860000Y-102438750I0J-208750D01*
G01*
G37*
%TD.AperFunction*%
%TD*%
%TO.P,C3,1*%
%TO.N,GND*%
%TA.AperFunction,SMDPad,CuDef*%
G36*
G01*
X104597750Y-124296000D02*
X105460250Y-124296000D01*
G75*
G02*
X105669000Y-124504750I0J-208750D01*
G01*
X105669000Y-124922250D01*
G75*
G02*
X105460250Y-125131000I-208750J0D01*
G01*
X104597750Y-125131000D01*
G75*
G02*
X104389000Y-124922250I0J208750D01*
G01*
X104389000Y-124504750D01*
G75*
G02*
X104597750Y-124296000I208750J0D01*
G01*
G37*
%TD.AperFunction*%
%TO.P,C3,2*%
%TO.N,Net-(C3-Pad2)*%
%TA.AperFunction,SMDPad,CuDef*%
G36*
G01*
X104597750Y-125551000D02*
X105460250Y-125551000D01*
G75*
G02*
X105669000Y-125759750I0J-208750D01*
G01*
X105669000Y-126177250D01*
G75*
G02*
X105460250Y-126386000I-208750J0D01*
G01*
X104597750Y-126386000D01*
G75*
G02*
X104389000Y-126177250I0J208750D01*
G01*
X104389000Y-125759750D01*
G75*
G02*
X104597750Y-125551000I208750J0D01*
G01*
G37*
%TD.AperFunction*%
%TD*%
%TO.P,C5,1*%
%TO.N,GND*%
%TA.AperFunction,SMDPad,CuDef*%
G36*
G01*
X111231000Y-121462250D02*
X111231000Y-120599750D01*
G75*
G02*
X111439750Y-120391000I208750J0D01*
G01*
X111857250Y-120391000D01*
G75*
G02*
X112066000Y-120599750I0J-208750D01*
G01*
X112066000Y-121462250D01*
G75*
G02*
X111857250Y-121671000I-208750J0D01*
G01*
X111439750Y-121671000D01*
G75*
G02*
X111231000Y-121462250I0J208750D01*
G01*
G37*
%TD.AperFunction*%
%TO.P,C5,2*%
%TO.N,Net-(C5-Pad2)*%
%TA.AperFunction,SMDPad,CuDef*%
G36*
G01*
X112486000Y-121462250D02*
X112486000Y-120599750D01*
G75*
G02*
X112694750Y-120391000I208750J0D01*
G01*
X113112250Y-120391000D01*
G75*
G02*
X113321000Y-120599750I0J-208750D01*
G01*
X113321000Y-121462250D01*
G75*
G02*
X113112250Y-121671000I-208750J0D01*
G01*
X112694750Y-121671000D01*
G75*
G02*
X112486000Y-121462250I0J208750D01*
G01*
G37*
%TD.AperFunction*%
%TD*%
%TO.P,R5,1*%
%TO.N,Net-(BU9480F1-Pad4)*%
%TA.AperFunction,SMDPad,CuDef*%
G36*
G01*
X88588001Y-107534000D02*
X87687999Y-107534000D01*
G75*
G02*
X87438000Y-107284001I0J249999D01*
G01*
X87438000Y-106583999D01*
G75*
G02*
X87687999Y-106334000I249999J0D01*
G01*
X88588001Y-106334000D01*
G75*
G02*
X88838000Y-106583999I0J-249999D01*
G01*
X88838000Y-107284001D01*
G75*
G02*
X88588001Y-107534000I-249999J0D01*
G01*
G37*
%TD.AperFunction*%
%TO.P,R5,2*%
%TO.N,Net-(C6-Pad1)*%
%TA.AperFunction,SMDPad,CuDef*%
G36*
G01*
X88588001Y-105534000D02*
X87687999Y-105534000D01*
G75*
G02*
X87438000Y-105284001I0J249999D01*
G01*
X87438000Y-104583999D01*
G75*
G02*
X87687999Y-104334000I249999J0D01*
G01*
X88588001Y-104334000D01*
G75*
G02*
X88838000Y-104583999I0J-249999D01*
G01*
X88838000Y-105284001D01*
G75*
G02*
X88588001Y-105534000I-249999J0D01*
G01*
G37*
%TD.AperFunction*%
%TD*%
%TO.P,R8,1*%
%TO.N,Net-(C6-Pad1)*%
%TA.AperFunction,SMDPad,CuDef*%
G36*
G01*
X85147999Y-104334000D02*
X86048001Y-104334000D01*
G75*
G02*
X86298000Y-104583999I0J-249999D01*
G01*
X86298000Y-105284001D01*
G75*
G02*
X86048001Y-105534000I-249999J0D01*
G01*
X85147999Y-105534000D01*
G75*
G02*
X84898000Y-105284001I0J249999D01*
G01*
X84898000Y-104583999D01*
G75*
G02*
X85147999Y-104334000I249999J0D01*
G01*
G37*
%TD.AperFunction*%
%TO.P,R8,2*%
%TO.N,Net-(BU9480F1-Pad1)*%
%TA.AperFunction,SMDPad,CuDef*%
G36*
G01*
X85147999Y-106334000D02*
X86048001Y-106334000D01*
G75*
G02*
X86298000Y-106583999I0J-249999D01*
G01*
X86298000Y-107284001D01*
G75*
G02*
X86048001Y-107534000I-249999J0D01*
G01*
X85147999Y-107534000D01*
G75*
G02*
X84898000Y-107284001I0J249999D01*
G01*
X84898000Y-106583999D01*
G75*
G02*
X85147999Y-106334000I249999J0D01*
G01*
G37*
%TD.AperFunction*%
%TD*%
%TO.P,C4,1*%
%TO.N,GND*%
%TA.AperFunction,SMDPad,CuDef*%
G36*
G01*
X107137750Y-124296000D02*
X108000250Y-124296000D01*
G75*
G02*
X108209000Y-124504750I0J-208750D01*
G01*
X108209000Y-124922250D01*
G75*
G02*
X108000250Y-125131000I-208750J0D01*
G01*
X107137750Y-125131000D01*
G75*
G02*
X106929000Y-124922250I0J208750D01*
G01*
X106929000Y-124504750D01*
G75*
G02*
X107137750Y-124296000I208750J0D01*
G01*
G37*
%TD.AperFunction*%
%TO.P,C4,2*%
%TO.N,Net-(C4-Pad2)*%
%TA.AperFunction,SMDPad,CuDef*%
G36*
G01*
X107137750Y-125551000D02*
X108000250Y-125551000D01*
G75*
G02*
X108209000Y-125759750I0J-208750D01*
G01*
X108209000Y-126177250D01*
G75*
G02*
X108000250Y-126386000I-208750J0D01*
G01*
X107137750Y-126386000D01*
G75*
G02*
X106929000Y-126177250I0J208750D01*
G01*
X106929000Y-125759750D01*
G75*
G02*
X107137750Y-125551000I208750J0D01*
G01*
G37*
%TD.AperFunction*%
%TD*%
%TO.P,C2,1*%
%TO.N,Net-(BU9480F1-Pad2)*%
%TA.AperFunction,SMDPad,CuDef*%
G36*
G01*
X88362000Y-101896000D02*
X88362000Y-100796000D01*
G75*
G02*
X88612000Y-100546000I250000J0D01*
G01*
X90712000Y-100546000D01*
G75*
G02*
X90962000Y-100796000I0J-250000D01*
G01*
X90962000Y-101896000D01*
G75*
G02*
X90712000Y-102146000I-250000J0D01*
G01*
X88612000Y-102146000D01*
G75*
G02*
X88362000Y-101896000I0J250000D01*
G01*
G37*
%TD.AperFunction*%
%TO.P,C2,2*%
%TO.N,GND*%
%TA.AperFunction,SMDPad,CuDef*%
G36*
G01*
X91962000Y-101896000D02*
X91962000Y-100796000D01*
G75*
G02*
X92212000Y-100546000I250000J0D01*
G01*
X94312000Y-100546000D01*
G75*
G02*
X94562000Y-100796000I0J-250000D01*
G01*
X94562000Y-101896000D01*
G75*
G02*
X94312000Y-102146000I-250000J0D01*
G01*
X92212000Y-102146000D01*
G75*
G02*
X91962000Y-101896000I0J250000D01*
G01*
G37*
%TD.AperFunction*%
%TD*%
%TO.P,BU9480F1,1*%
%TO.N,Net-(BU9480F1-Pad1)*%
%TA.AperFunction,SMDPad,CuDef*%
G36*
G01*
X84813000Y-109138000D02*
X85113000Y-109138000D01*
G75*
G02*
X85263000Y-109288000I0J-150000D01*
G01*
X85263000Y-110588000D01*
G75*
G02*
X85113000Y-110738000I-150000J0D01*
G01*
X84813000Y-110738000D01*
G75*
G02*
X84663000Y-110588000I0J150000D01*
G01*
X84663000Y-109288000D01*
G75*
G02*
X84813000Y-109138000I150000J0D01*
G01*
G37*
%TD.AperFunction*%
%TO.P,BU9480F1,2*%
%TO.N,Net-(BU9480F1-Pad2)*%
%TA.AperFunction,SMDPad,CuDef*%
G36*
G01*
X86083000Y-109138000D02*
X86383000Y-109138000D01*
G75*
G02*
X86533000Y-109288000I0J-150000D01*
G01*
X86533000Y-110588000D01*
G75*
G02*
X86383000Y-110738000I-150000J0D01*
G01*
X86083000Y-110738000D01*
G75*
G02*
X85933000Y-110588000I0J150000D01*
G01*
X85933000Y-109288000D01*
G75*
G02*
X86083000Y-109138000I150000J0D01*
G01*
G37*
%TD.AperFunction*%
%TO.P,BU9480F1,3*%
%TO.N,GND*%
%TA.AperFunction,SMDPad,CuDef*%
G36*
G01*
X87353000Y-109138000D02*
X87653000Y-109138000D01*
G75*
G02*
X87803000Y-109288000I0J-150000D01*
G01*
X87803000Y-110588000D01*
G75*
G02*
X87653000Y-110738000I-150000J0D01*
G01*
X87353000Y-110738000D01*
G75*
G02*
X87203000Y-110588000I0J150000D01*
G01*
X87203000Y-109288000D01*
G75*
G02*
X87353000Y-109138000I150000J0D01*
G01*
G37*
%TD.AperFunction*%
%TO.P,BU9480F1,4*%
%TO.N,Net-(BU9480F1-Pad4)*%
%TA.AperFunction,SMDPad,CuDef*%
G36*
G01*
X88623000Y-109138000D02*
X88923000Y-109138000D01*
G75*
G02*
X89073000Y-109288000I0J-150000D01*
G01*
X89073000Y-110588000D01*
G75*
G02*
X88923000Y-110738000I-150000J0D01*
G01*
X88623000Y-110738000D01*
G75*
G02*
X88473000Y-110588000I0J150000D01*
G01*
X88473000Y-109288000D01*
G75*
G02*
X88623000Y-109138000I150000J0D01*
G01*
G37*
%TD.AperFunction*%
%TO.P,BU9480F1,5*%
%TO.N,Net-(BU9480F1-Pad5)*%
%TA.AperFunction,SMDPad,CuDef*%
G36*
G01*
X88623000Y-116338000D02*
X88923000Y-116338000D01*
G75*
G02*
X89073000Y-116488000I0J-150000D01*
G01*
X89073000Y-117788000D01*
G75*
G02*
X88923000Y-117938000I-150000J0D01*
G01*
X88623000Y-117938000D01*
G75*
G02*
X88473000Y-117788000I0J150000D01*
G01*
X88473000Y-116488000D01*
G75*
G02*
X88623000Y-116338000I150000J0D01*
G01*
G37*
%TD.AperFunction*%
%TO.P,BU9480F1,6*%
%TO.N,Net-(BU9480F1-Pad6)*%
%TA.AperFunction,SMDPad,CuDef*%
G36*
G01*
X87353000Y-116338000D02*
X87653000Y-116338000D01*
G75*
G02*
X87803000Y-116488000I0J-150000D01*
G01*
X87803000Y-117788000D01*
G75*
G02*
X87653000Y-117938000I-150000J0D01*
G01*
X87353000Y-117938000D01*
G75*
G02*
X87203000Y-117788000I0J150000D01*
G01*
X87203000Y-116488000D01*
G75*
G02*
X87353000Y-116338000I150000J0D01*
G01*
G37*
%TD.AperFunction*%
%TO.P,BU9480F1,7*%
%TO.N,Net-(BU9480F1-Pad7)*%
%TA.AperFunction,SMDPad,CuDef*%
G36*
G01*
X86083000Y-116338000D02*
X86383000Y-116338000D01*
G75*
G02*
X86533000Y-116488000I0J-150000D01*
G01*
X86533000Y-117788000D01*
G75*
G02*
X86383000Y-117938000I-150000J0D01*
G01*
X86083000Y-117938000D01*
G75*
G02*
X85933000Y-117788000I0J150000D01*
G01*
X85933000Y-116488000D01*
G75*
G02*
X86083000Y-116338000I150000J0D01*
G01*
G37*
%TD.AperFunction*%
%TO.P,BU9480F1,8*%
%TO.N,+5V*%
%TA.AperFunction,SMDPad,CuDef*%
G36*
G01*
X84813000Y-116338000D02*
X85113000Y-116338000D01*
G75*
G02*
X85263000Y-116488000I0J-150000D01*
G01*
X85263000Y-117788000D01*
G75*
G02*
X85113000Y-117938000I-150000J0D01*
G01*
X84813000Y-117938000D01*
G75*
G02*
X84663000Y-117788000I0J150000D01*
G01*
X84663000Y-116488000D01*
G75*
G02*
X84813000Y-116338000I150000J0D01*
G01*
G37*
%TD.AperFunction*%
%TD*%
%TO.P,U2,1*%
%TO.N,Net-(C4-Pad2)*%
%TA.AperFunction,SMDPad,CuDef*%
G36*
G01*
X119657000Y-129942000D02*
X119357000Y-129942000D01*
G75*
G02*
X119207000Y-129792000I0J150000D01*
G01*
X119207000Y-128142000D01*
G75*
G02*
X119357000Y-127992000I150000J0D01*
G01*
X119657000Y-127992000D01*
G75*
G02*
X119807000Y-128142000I0J-150000D01*
G01*
X119807000Y-129792000D01*
G75*
G02*
X119657000Y-129942000I-150000J0D01*
G01*
G37*
%TD.AperFunction*%
%TO.P,U2,2*%
%TA.AperFunction,SMDPad,CuDef*%
G36*
G01*
X118387000Y-129942000D02*
X118087000Y-129942000D01*
G75*
G02*
X117937000Y-129792000I0J150000D01*
G01*
X117937000Y-128142000D01*
G75*
G02*
X118087000Y-127992000I150000J0D01*
G01*
X118387000Y-127992000D01*
G75*
G02*
X118537000Y-128142000I0J-150000D01*
G01*
X118537000Y-129792000D01*
G75*
G02*
X118387000Y-129942000I-150000J0D01*
G01*
G37*
%TD.AperFunction*%
%TO.P,U2,3*%
%TO.N,Net-(R14-Pad2)*%
%TA.AperFunction,SMDPad,CuDef*%
G36*
G01*
X117117000Y-129942000D02*
X116817000Y-129942000D01*
G75*
G02*
X116667000Y-129792000I0J150000D01*
G01*
X116667000Y-128142000D01*
G75*
G02*
X116817000Y-127992000I150000J0D01*
G01*
X117117000Y-127992000D01*
G75*
G02*
X117267000Y-128142000I0J-150000D01*
G01*
X117267000Y-129792000D01*
G75*
G02*
X117117000Y-129942000I-150000J0D01*
G01*
G37*
%TD.AperFunction*%
%TO.P,U2,4*%
%TO.N,Net-(C3-Pad2)*%
%TA.AperFunction,SMDPad,CuDef*%
G36*
G01*
X115847000Y-129942000D02*
X115547000Y-129942000D01*
G75*
G02*
X115397000Y-129792000I0J150000D01*
G01*
X115397000Y-128142000D01*
G75*
G02*
X115547000Y-127992000I150000J0D01*
G01*
X115847000Y-127992000D01*
G75*
G02*
X115997000Y-128142000I0J-150000D01*
G01*
X115997000Y-129792000D01*
G75*
G02*
X115847000Y-129942000I-150000J0D01*
G01*
G37*
%TD.AperFunction*%
%TO.P,U2,5*%
%TO.N,Net-(R14-Pad2)*%
%TA.AperFunction,SMDPad,CuDef*%
G36*
G01*
X114577000Y-129942000D02*
X114277000Y-129942000D01*
G75*
G02*
X114127000Y-129792000I0J150000D01*
G01*
X114127000Y-128142000D01*
G75*
G02*
X114277000Y-127992000I150000J0D01*
G01*
X114577000Y-127992000D01*
G75*
G02*
X114727000Y-128142000I0J-150000D01*
G01*
X114727000Y-129792000D01*
G75*
G02*
X114577000Y-129942000I-150000J0D01*
G01*
G37*
%TD.AperFunction*%
%TO.P,U2,6*%
%TO.N,CS_buf*%
%TA.AperFunction,SMDPad,CuDef*%
G36*
G01*
X113307000Y-129942000D02*
X113007000Y-129942000D01*
G75*
G02*
X112857000Y-129792000I0J150000D01*
G01*
X112857000Y-128142000D01*
G75*
G02*
X113007000Y-127992000I150000J0D01*
G01*
X113307000Y-127992000D01*
G75*
G02*
X113457000Y-128142000I0J-150000D01*
G01*
X113457000Y-129792000D01*
G75*
G02*
X113307000Y-129942000I-150000J0D01*
G01*
G37*
%TD.AperFunction*%
%TO.P,U2,7*%
%TO.N,GND*%
%TA.AperFunction,SMDPad,CuDef*%
G36*
G01*
X112037000Y-129942000D02*
X111737000Y-129942000D01*
G75*
G02*
X111587000Y-129792000I0J150000D01*
G01*
X111587000Y-128142000D01*
G75*
G02*
X111737000Y-127992000I150000J0D01*
G01*
X112037000Y-127992000D01*
G75*
G02*
X112187000Y-128142000I0J-150000D01*
G01*
X112187000Y-129792000D01*
G75*
G02*
X112037000Y-129942000I-150000J0D01*
G01*
G37*
%TD.AperFunction*%
%TO.P,U2,8*%
%TO.N,FF_Reset*%
%TA.AperFunction,SMDPad,CuDef*%
G36*
G01*
X112037000Y-124992000D02*
X111737000Y-124992000D01*
G75*
G02*
X111587000Y-124842000I0J150000D01*
G01*
X111587000Y-123192000D01*
G75*
G02*
X111737000Y-123042000I150000J0D01*
G01*
X112037000Y-123042000D01*
G75*
G02*
X112187000Y-123192000I0J-150000D01*
G01*
X112187000Y-124842000D01*
G75*
G02*
X112037000Y-124992000I-150000J0D01*
G01*
G37*
%TD.AperFunction*%
%TO.P,U2,9*%
%TO.N,Net-(U2-Pad10)*%
%TA.AperFunction,SMDPad,CuDef*%
G36*
G01*
X113307000Y-124992000D02*
X113007000Y-124992000D01*
G75*
G02*
X112857000Y-124842000I0J150000D01*
G01*
X112857000Y-123192000D01*
G75*
G02*
X113007000Y-123042000I150000J0D01*
G01*
X113307000Y-123042000D01*
G75*
G02*
X113457000Y-123192000I0J-150000D01*
G01*
X113457000Y-124842000D01*
G75*
G02*
X113307000Y-124992000I-150000J0D01*
G01*
G37*
%TD.AperFunction*%
%TO.P,U2,10*%
%TA.AperFunction,SMDPad,CuDef*%
G36*
G01*
X114577000Y-124992000D02*
X114277000Y-124992000D01*
G75*
G02*
X114127000Y-124842000I0J150000D01*
G01*
X114127000Y-123192000D01*
G75*
G02*
X114277000Y-123042000I150000J0D01*
G01*
X114577000Y-123042000D01*
G75*
G02*
X114727000Y-123192000I0J-150000D01*
G01*
X114727000Y-124842000D01*
G75*
G02*
X114577000Y-124992000I-150000J0D01*
G01*
G37*
%TD.AperFunction*%
%TO.P,U2,11*%
%TA.AperFunction,SMDPad,CuDef*%
G36*
G01*
X115847000Y-124992000D02*
X115547000Y-124992000D01*
G75*
G02*
X115397000Y-124842000I0J150000D01*
G01*
X115397000Y-123192000D01*
G75*
G02*
X115547000Y-123042000I150000J0D01*
G01*
X115847000Y-123042000D01*
G75*
G02*
X115997000Y-123192000I0J-150000D01*
G01*
X115997000Y-124842000D01*
G75*
G02*
X115847000Y-124992000I-150000J0D01*
G01*
G37*
%TD.AperFunction*%
%TO.P,U2,12*%
%TO.N,Net-(C5-Pad2)*%
%TA.AperFunction,SMDPad,CuDef*%
G36*
G01*
X117117000Y-124992000D02*
X116817000Y-124992000D01*
G75*
G02*
X116667000Y-124842000I0J150000D01*
G01*
X116667000Y-123192000D01*
G75*
G02*
X116817000Y-123042000I150000J0D01*
G01*
X117117000Y-123042000D01*
G75*
G02*
X117267000Y-123192000I0J-150000D01*
G01*
X117267000Y-124842000D01*
G75*
G02*
X117117000Y-124992000I-150000J0D01*
G01*
G37*
%TD.AperFunction*%
%TO.P,U2,13*%
%TA.AperFunction,SMDPad,CuDef*%
G36*
G01*
X118387000Y-124992000D02*
X118087000Y-124992000D01*
G75*
G02*
X117937000Y-124842000I0J150000D01*
G01*
X117937000Y-123192000D01*
G75*
G02*
X118087000Y-123042000I150000J0D01*
G01*
X118387000Y-123042000D01*
G75*
G02*
X118537000Y-123192000I0J-150000D01*
G01*
X118537000Y-124842000D01*
G75*
G02*
X118387000Y-124992000I-150000J0D01*
G01*
G37*
%TD.AperFunction*%
%TO.P,U2,14*%
%TO.N,+5V*%
%TA.AperFunction,SMDPad,CuDef*%
G36*
G01*
X119657000Y-124992000D02*
X119357000Y-124992000D01*
G75*
G02*
X119207000Y-124842000I0J150000D01*
G01*
X119207000Y-123192000D01*
G75*
G02*
X119357000Y-123042000I150000J0D01*
G01*
X119657000Y-123042000D01*
G75*
G02*
X119807000Y-123192000I0J-150000D01*
G01*
X119807000Y-124842000D01*
G75*
G02*
X119657000Y-124992000I-150000J0D01*
G01*
G37*
%TD.AperFunction*%
%TD*%
%TO.P,U10,1*%
%TO.N,4016_EN*%
%TA.AperFunction,SMDPad,CuDef*%
G36*
G01*
X113561000Y-98827000D02*
X113261000Y-98827000D01*
G75*
G02*
X113111000Y-98677000I0J150000D01*
G01*
X113111000Y-97027000D01*
G75*
G02*
X113261000Y-96877000I150000J0D01*
G01*
X113561000Y-96877000D01*
G75*
G02*
X113711000Y-97027000I0J-150000D01*
G01*
X113711000Y-98677000D01*
G75*
G02*
X113561000Y-98827000I-150000J0D01*
G01*
G37*
%TD.AperFunction*%
%TO.P,U10,2*%
%TO.N,Addr_A1*%
%TA.AperFunction,SMDPad,CuDef*%
G36*
G01*
X112291000Y-98827000D02*
X111991000Y-98827000D01*
G75*
G02*
X111841000Y-98677000I0J150000D01*
G01*
X111841000Y-97027000D01*
G75*
G02*
X111991000Y-96877000I150000J0D01*
G01*
X112291000Y-96877000D01*
G75*
G02*
X112441000Y-97027000I0J-150000D01*
G01*
X112441000Y-98677000D01*
G75*
G02*
X112291000Y-98827000I-150000J0D01*
G01*
G37*
%TD.AperFunction*%
%TO.P,U10,3*%
%TO.N,A1_buf*%
%TA.AperFunction,SMDPad,CuDef*%
G36*
G01*
X111021000Y-98827000D02*
X110721000Y-98827000D01*
G75*
G02*
X110571000Y-98677000I0J150000D01*
G01*
X110571000Y-97027000D01*
G75*
G02*
X110721000Y-96877000I150000J0D01*
G01*
X111021000Y-96877000D01*
G75*
G02*
X111171000Y-97027000I0J-150000D01*
G01*
X111171000Y-98677000D01*
G75*
G02*
X111021000Y-98827000I-150000J0D01*
G01*
G37*
%TD.AperFunction*%
%TO.P,U10,4*%
%TO.N,A1_Chip*%
%TA.AperFunction,SMDPad,CuDef*%
G36*
G01*
X109751000Y-98827000D02*
X109451000Y-98827000D01*
G75*
G02*
X109301000Y-98677000I0J150000D01*
G01*
X109301000Y-97027000D01*
G75*
G02*
X109451000Y-96877000I150000J0D01*
G01*
X109751000Y-96877000D01*
G75*
G02*
X109901000Y-97027000I0J-150000D01*
G01*
X109901000Y-98677000D01*
G75*
G02*
X109751000Y-98827000I-150000J0D01*
G01*
G37*
%TD.AperFunction*%
%TO.P,U10,5*%
%TO.N,Addr_A13*%
%TA.AperFunction,SMDPad,CuDef*%
G36*
G01*
X108481000Y-98827000D02*
X108181000Y-98827000D01*
G75*
G02*
X108031000Y-98677000I0J150000D01*
G01*
X108031000Y-97027000D01*
G75*
G02*
X108181000Y-96877000I150000J0D01*
G01*
X108481000Y-96877000D01*
G75*
G02*
X108631000Y-97027000I0J-150000D01*
G01*
X108631000Y-98677000D01*
G75*
G02*
X108481000Y-98827000I-150000J0D01*
G01*
G37*
%TD.AperFunction*%
%TO.P,U10,6*%
%TO.N,A0_buf*%
%TA.AperFunction,SMDPad,CuDef*%
G36*
G01*
X107211000Y-98827000D02*
X106911000Y-98827000D01*
G75*
G02*
X106761000Y-98677000I0J150000D01*
G01*
X106761000Y-97027000D01*
G75*
G02*
X106911000Y-96877000I150000J0D01*
G01*
X107211000Y-96877000D01*
G75*
G02*
X107361000Y-97027000I0J-150000D01*
G01*
X107361000Y-98677000D01*
G75*
G02*
X107211000Y-98827000I-150000J0D01*
G01*
G37*
%TD.AperFunction*%
%TO.P,U10,7*%
%TO.N,A0_Chip*%
%TA.AperFunction,SMDPad,CuDef*%
G36*
G01*
X105941000Y-98827000D02*
X105641000Y-98827000D01*
G75*
G02*
X105491000Y-98677000I0J150000D01*
G01*
X105491000Y-97027000D01*
G75*
G02*
X105641000Y-96877000I150000J0D01*
G01*
X105941000Y-96877000D01*
G75*
G02*
X106091000Y-97027000I0J-150000D01*
G01*
X106091000Y-98677000D01*
G75*
G02*
X105941000Y-98827000I-150000J0D01*
G01*
G37*
%TD.AperFunction*%
%TO.P,U10,8*%
%TO.N,GND*%
%TA.AperFunction,SMDPad,CuDef*%
G36*
G01*
X104671000Y-98827000D02*
X104371000Y-98827000D01*
G75*
G02*
X104221000Y-98677000I0J150000D01*
G01*
X104221000Y-97027000D01*
G75*
G02*
X104371000Y-96877000I150000J0D01*
G01*
X104671000Y-96877000D01*
G75*
G02*
X104821000Y-97027000I0J-150000D01*
G01*
X104821000Y-98677000D01*
G75*
G02*
X104671000Y-98827000I-150000J0D01*
G01*
G37*
%TD.AperFunction*%
%TO.P,U10,9*%
%TO.N,N/C*%
%TA.AperFunction,SMDPad,CuDef*%
G36*
G01*
X104671000Y-93877000D02*
X104371000Y-93877000D01*
G75*
G02*
X104221000Y-93727000I0J150000D01*
G01*
X104221000Y-92077000D01*
G75*
G02*
X104371000Y-91927000I150000J0D01*
G01*
X104671000Y-91927000D01*
G75*
G02*
X104821000Y-92077000I0J-150000D01*
G01*
X104821000Y-93727000D01*
G75*
G02*
X104671000Y-93877000I-150000J0D01*
G01*
G37*
%TD.AperFunction*%
%TO.P,U10,10*%
%TA.AperFunction,SMDPad,CuDef*%
G36*
G01*
X105941000Y-93877000D02*
X105641000Y-93877000D01*
G75*
G02*
X105491000Y-93727000I0J150000D01*
G01*
X105491000Y-92077000D01*
G75*
G02*
X105641000Y-91927000I150000J0D01*
G01*
X105941000Y-91927000D01*
G75*
G02*
X106091000Y-92077000I0J-150000D01*
G01*
X106091000Y-93727000D01*
G75*
G02*
X105941000Y-93877000I-150000J0D01*
G01*
G37*
%TD.AperFunction*%
%TO.P,U10,11*%
%TA.AperFunction,SMDPad,CuDef*%
G36*
G01*
X107211000Y-93877000D02*
X106911000Y-93877000D01*
G75*
G02*
X106761000Y-93727000I0J150000D01*
G01*
X106761000Y-92077000D01*
G75*
G02*
X106911000Y-91927000I150000J0D01*
G01*
X107211000Y-91927000D01*
G75*
G02*
X107361000Y-92077000I0J-150000D01*
G01*
X107361000Y-93727000D01*
G75*
G02*
X107211000Y-93877000I-150000J0D01*
G01*
G37*
%TD.AperFunction*%
%TO.P,U10,12*%
%TO.N,CS_Chip*%
%TA.AperFunction,SMDPad,CuDef*%
G36*
G01*
X108481000Y-93877000D02*
X108181000Y-93877000D01*
G75*
G02*
X108031000Y-93727000I0J150000D01*
G01*
X108031000Y-92077000D01*
G75*
G02*
X108181000Y-91927000I150000J0D01*
G01*
X108481000Y-91927000D01*
G75*
G02*
X108631000Y-92077000I0J-150000D01*
G01*
X108631000Y-93727000D01*
G75*
G02*
X108481000Y-93877000I-150000J0D01*
G01*
G37*
%TD.AperFunction*%
%TO.P,U10,13*%
%TO.N,CS_buf*%
%TA.AperFunction,SMDPad,CuDef*%
G36*
G01*
X109751000Y-93877000D02*
X109451000Y-93877000D01*
G75*
G02*
X109301000Y-93727000I0J150000D01*
G01*
X109301000Y-92077000D01*
G75*
G02*
X109451000Y-91927000I150000J0D01*
G01*
X109751000Y-91927000D01*
G75*
G02*
X109901000Y-92077000I0J-150000D01*
G01*
X109901000Y-93727000D01*
G75*
G02*
X109751000Y-93877000I-150000J0D01*
G01*
G37*
%TD.AperFunction*%
%TO.P,U10,14*%
%TO.N,CS_*%
%TA.AperFunction,SMDPad,CuDef*%
G36*
G01*
X111021000Y-93877000D02*
X110721000Y-93877000D01*
G75*
G02*
X110571000Y-93727000I0J150000D01*
G01*
X110571000Y-92077000D01*
G75*
G02*
X110721000Y-91927000I150000J0D01*
G01*
X111021000Y-91927000D01*
G75*
G02*
X111171000Y-92077000I0J-150000D01*
G01*
X111171000Y-93727000D01*
G75*
G02*
X111021000Y-93877000I-150000J0D01*
G01*
G37*
%TD.AperFunction*%
%TO.P,U10,15*%
%TO.N,GND*%
%TA.AperFunction,SMDPad,CuDef*%
G36*
G01*
X112291000Y-93877000D02*
X111991000Y-93877000D01*
G75*
G02*
X111841000Y-93727000I0J150000D01*
G01*
X111841000Y-92077000D01*
G75*
G02*
X111991000Y-91927000I150000J0D01*
G01*
X112291000Y-91927000D01*
G75*
G02*
X112441000Y-92077000I0J-150000D01*
G01*
X112441000Y-93727000D01*
G75*
G02*
X112291000Y-93877000I-150000J0D01*
G01*
G37*
%TD.AperFunction*%
%TO.P,U10,16*%
%TO.N,+5V*%
%TA.AperFunction,SMDPad,CuDef*%
G36*
G01*
X113561000Y-93877000D02*
X113261000Y-93877000D01*
G75*
G02*
X113111000Y-93727000I0J150000D01*
G01*
X113111000Y-92077000D01*
G75*
G02*
X113261000Y-91927000I150000J0D01*
G01*
X113561000Y-91927000D01*
G75*
G02*
X113711000Y-92077000I0J-150000D01*
G01*
X113711000Y-93727000D01*
G75*
G02*
X113561000Y-93877000I-150000J0D01*
G01*
G37*
%TD.AperFunction*%
%TD*%
%TO.P,U1,1*%
%TO.N,GND*%
%TA.AperFunction,SMDPad,CuDef*%
G36*
G01*
X108100000Y-78634000D02*
X107800000Y-78634000D01*
G75*
G02*
X107650000Y-78484000I0J150000D01*
G01*
X107650000Y-76834000D01*
G75*
G02*
X107800000Y-76684000I150000J0D01*
G01*
X108100000Y-76684000D01*
G75*
G02*
X108250000Y-76834000I0J-150000D01*
G01*
X108250000Y-78484000D01*
G75*
G02*
X108100000Y-78634000I-150000J0D01*
G01*
G37*
%TD.AperFunction*%
%TO.P,U1,2*%
%TO.N,OUT1*%
%TA.AperFunction,SMDPad,CuDef*%
G36*
G01*
X106830000Y-78634000D02*
X106530000Y-78634000D01*
G75*
G02*
X106380000Y-78484000I0J150000D01*
G01*
X106380000Y-76834000D01*
G75*
G02*
X106530000Y-76684000I150000J0D01*
G01*
X106830000Y-76684000D01*
G75*
G02*
X106980000Y-76834000I0J-150000D01*
G01*
X106980000Y-78484000D01*
G75*
G02*
X106830000Y-78634000I-150000J0D01*
G01*
G37*
%TD.AperFunction*%
%TO.P,U1,3*%
%TA.AperFunction,SMDPad,CuDef*%
G36*
G01*
X105560000Y-78634000D02*
X105260000Y-78634000D01*
G75*
G02*
X105110000Y-78484000I0J150000D01*
G01*
X105110000Y-76834000D01*
G75*
G02*
X105260000Y-76684000I150000J0D01*
G01*
X105560000Y-76684000D01*
G75*
G02*
X105710000Y-76834000I0J-150000D01*
G01*
X105710000Y-78484000D01*
G75*
G02*
X105560000Y-78634000I-150000J0D01*
G01*
G37*
%TD.AperFunction*%
%TO.P,U1,4*%
%TO.N,N/C*%
%TA.AperFunction,SMDPad,CuDef*%
G36*
G01*
X104290000Y-78634000D02*
X103990000Y-78634000D01*
G75*
G02*
X103840000Y-78484000I0J150000D01*
G01*
X103840000Y-76834000D01*
G75*
G02*
X103990000Y-76684000I150000J0D01*
G01*
X104290000Y-76684000D01*
G75*
G02*
X104440000Y-76834000I0J-150000D01*
G01*
X104440000Y-78484000D01*
G75*
G02*
X104290000Y-78634000I-150000J0D01*
G01*
G37*
%TD.AperFunction*%
%TO.P,U1,5*%
%TA.AperFunction,SMDPad,CuDef*%
G36*
G01*
X103020000Y-78634000D02*
X102720000Y-78634000D01*
G75*
G02*
X102570000Y-78484000I0J150000D01*
G01*
X102570000Y-76834000D01*
G75*
G02*
X102720000Y-76684000I150000J0D01*
G01*
X103020000Y-76684000D01*
G75*
G02*
X103170000Y-76834000I0J-150000D01*
G01*
X103170000Y-78484000D01*
G75*
G02*
X103020000Y-78634000I-150000J0D01*
G01*
G37*
%TD.AperFunction*%
%TO.P,U1,6*%
%TA.AperFunction,SMDPad,CuDef*%
G36*
G01*
X101750000Y-78634000D02*
X101450000Y-78634000D01*
G75*
G02*
X101300000Y-78484000I0J150000D01*
G01*
X101300000Y-76834000D01*
G75*
G02*
X101450000Y-76684000I150000J0D01*
G01*
X101750000Y-76684000D01*
G75*
G02*
X101900000Y-76834000I0J-150000D01*
G01*
X101900000Y-78484000D01*
G75*
G02*
X101750000Y-78634000I-150000J0D01*
G01*
G37*
%TD.AperFunction*%
%TO.P,U1,7*%
%TO.N,OUT1_*%
%TA.AperFunction,SMDPad,CuDef*%
G36*
G01*
X100480000Y-78634000D02*
X100180000Y-78634000D01*
G75*
G02*
X100030000Y-78484000I0J150000D01*
G01*
X100030000Y-76834000D01*
G75*
G02*
X100180000Y-76684000I150000J0D01*
G01*
X100480000Y-76684000D01*
G75*
G02*
X100630000Y-76834000I0J-150000D01*
G01*
X100630000Y-78484000D01*
G75*
G02*
X100480000Y-78634000I-150000J0D01*
G01*
G37*
%TD.AperFunction*%
%TO.P,U1,8*%
%TO.N,GND*%
%TA.AperFunction,SMDPad,CuDef*%
G36*
G01*
X99210000Y-78634000D02*
X98910000Y-78634000D01*
G75*
G02*
X98760000Y-78484000I0J150000D01*
G01*
X98760000Y-76834000D01*
G75*
G02*
X98910000Y-76684000I150000J0D01*
G01*
X99210000Y-76684000D01*
G75*
G02*
X99360000Y-76834000I0J-150000D01*
G01*
X99360000Y-78484000D01*
G75*
G02*
X99210000Y-78634000I-150000J0D01*
G01*
G37*
%TD.AperFunction*%
%TO.P,U1,9*%
%TO.N,N/C*%
%TA.AperFunction,SMDPad,CuDef*%
G36*
G01*
X99210000Y-73684000D02*
X98910000Y-73684000D01*
G75*
G02*
X98760000Y-73534000I0J150000D01*
G01*
X98760000Y-71884000D01*
G75*
G02*
X98910000Y-71734000I150000J0D01*
G01*
X99210000Y-71734000D01*
G75*
G02*
X99360000Y-71884000I0J-150000D01*
G01*
X99360000Y-73534000D01*
G75*
G02*
X99210000Y-73684000I-150000J0D01*
G01*
G37*
%TD.AperFunction*%
%TO.P,U1,10*%
%TA.AperFunction,SMDPad,CuDef*%
G36*
G01*
X100480000Y-73684000D02*
X100180000Y-73684000D01*
G75*
G02*
X100030000Y-73534000I0J150000D01*
G01*
X100030000Y-71884000D01*
G75*
G02*
X100180000Y-71734000I150000J0D01*
G01*
X100480000Y-71734000D01*
G75*
G02*
X100630000Y-71884000I0J-150000D01*
G01*
X100630000Y-73534000D01*
G75*
G02*
X100480000Y-73684000I-150000J0D01*
G01*
G37*
%TD.AperFunction*%
%TO.P,U1,11*%
%TO.N,CS_*%
%TA.AperFunction,SMDPad,CuDef*%
G36*
G01*
X101750000Y-73684000D02*
X101450000Y-73684000D01*
G75*
G02*
X101300000Y-73534000I0J150000D01*
G01*
X101300000Y-71884000D01*
G75*
G02*
X101450000Y-71734000I150000J0D01*
G01*
X101750000Y-71734000D01*
G75*
G02*
X101900000Y-71884000I0J-150000D01*
G01*
X101900000Y-73534000D01*
G75*
G02*
X101750000Y-73684000I-150000J0D01*
G01*
G37*
%TD.AperFunction*%
%TO.P,U1,12*%
%TO.N,N/C*%
%TA.AperFunction,SMDPad,CuDef*%
G36*
G01*
X103020000Y-73684000D02*
X102720000Y-73684000D01*
G75*
G02*
X102570000Y-73534000I0J150000D01*
G01*
X102570000Y-71884000D01*
G75*
G02*
X102720000Y-71734000I150000J0D01*
G01*
X103020000Y-71734000D01*
G75*
G02*
X103170000Y-71884000I0J-150000D01*
G01*
X103170000Y-73534000D01*
G75*
G02*
X103020000Y-73684000I-150000J0D01*
G01*
G37*
%TD.AperFunction*%
%TO.P,U1,13*%
%TO.N,Addr_R-W*%
%TA.AperFunction,SMDPad,CuDef*%
G36*
G01*
X104290000Y-73684000D02*
X103990000Y-73684000D01*
G75*
G02*
X103840000Y-73534000I0J150000D01*
G01*
X103840000Y-71884000D01*
G75*
G02*
X103990000Y-71734000I150000J0D01*
G01*
X104290000Y-71734000D01*
G75*
G02*
X104440000Y-71884000I0J-150000D01*
G01*
X104440000Y-73534000D01*
G75*
G02*
X104290000Y-73684000I-150000J0D01*
G01*
G37*
%TD.AperFunction*%
%TO.P,U1,14*%
%TO.N,Addr_A14*%
%TA.AperFunction,SMDPad,CuDef*%
G36*
G01*
X105560000Y-73684000D02*
X105260000Y-73684000D01*
G75*
G02*
X105110000Y-73534000I0J150000D01*
G01*
X105110000Y-71884000D01*
G75*
G02*
X105260000Y-71734000I150000J0D01*
G01*
X105560000Y-71734000D01*
G75*
G02*
X105710000Y-71884000I0J-150000D01*
G01*
X105710000Y-73534000D01*
G75*
G02*
X105560000Y-73684000I-150000J0D01*
G01*
G37*
%TD.AperFunction*%
%TO.P,U1,15*%
%TO.N,Addr_ROMSEL*%
%TA.AperFunction,SMDPad,CuDef*%
G36*
G01*
X106830000Y-73684000D02*
X106530000Y-73684000D01*
G75*
G02*
X106380000Y-73534000I0J150000D01*
G01*
X106380000Y-71884000D01*
G75*
G02*
X106530000Y-71734000I150000J0D01*
G01*
X106830000Y-71734000D01*
G75*
G02*
X106980000Y-71884000I0J-150000D01*
G01*
X106980000Y-73534000D01*
G75*
G02*
X106830000Y-73684000I-150000J0D01*
G01*
G37*
%TD.AperFunction*%
%TO.P,U1,16*%
%TO.N,+5V*%
%TA.AperFunction,SMDPad,CuDef*%
G36*
G01*
X108100000Y-73684000D02*
X107800000Y-73684000D01*
G75*
G02*
X107650000Y-73534000I0J150000D01*
G01*
X107650000Y-71884000D01*
G75*
G02*
X107800000Y-71734000I150000J0D01*
G01*
X108100000Y-71734000D01*
G75*
G02*
X108250000Y-71884000I0J-150000D01*
G01*
X108250000Y-73534000D01*
G75*
G02*
X108100000Y-73684000I-150000J0D01*
G01*
G37*
%TD.AperFunction*%
%TD*%
%TO.P,U9,1*%
%TO.N,4016_EN*%
%TA.AperFunction,SMDPad,CuDef*%
G36*
G01*
X95781000Y-98319000D02*
X95481000Y-98319000D01*
G75*
G02*
X95331000Y-98169000I0J150000D01*
G01*
X95331000Y-96519000D01*
G75*
G02*
X95481000Y-96369000I150000J0D01*
G01*
X95781000Y-96369000D01*
G75*
G02*
X95931000Y-96519000I0J-150000D01*
G01*
X95931000Y-98169000D01*
G75*
G02*
X95781000Y-98319000I-150000J0D01*
G01*
G37*
%TD.AperFunction*%
%TO.P,U9,2*%
%TO.N,D0*%
%TA.AperFunction,SMDPad,CuDef*%
G36*
G01*
X94511000Y-98319000D02*
X94211000Y-98319000D01*
G75*
G02*
X94061000Y-98169000I0J150000D01*
G01*
X94061000Y-96519000D01*
G75*
G02*
X94211000Y-96369000I150000J0D01*
G01*
X94511000Y-96369000D01*
G75*
G02*
X94661000Y-96519000I0J-150000D01*
G01*
X94661000Y-98169000D01*
G75*
G02*
X94511000Y-98319000I-150000J0D01*
G01*
G37*
%TD.AperFunction*%
%TO.P,U9,3*%
%TO.N,D0_buf*%
%TA.AperFunction,SMDPad,CuDef*%
G36*
G01*
X93241000Y-98319000D02*
X92941000Y-98319000D01*
G75*
G02*
X92791000Y-98169000I0J150000D01*
G01*
X92791000Y-96519000D01*
G75*
G02*
X92941000Y-96369000I150000J0D01*
G01*
X93241000Y-96369000D01*
G75*
G02*
X93391000Y-96519000I0J-150000D01*
G01*
X93391000Y-98169000D01*
G75*
G02*
X93241000Y-98319000I-150000J0D01*
G01*
G37*
%TD.AperFunction*%
%TO.P,U9,4*%
%TO.N,D0_Chip*%
%TA.AperFunction,SMDPad,CuDef*%
G36*
G01*
X91971000Y-98319000D02*
X91671000Y-98319000D01*
G75*
G02*
X91521000Y-98169000I0J150000D01*
G01*
X91521000Y-96519000D01*
G75*
G02*
X91671000Y-96369000I150000J0D01*
G01*
X91971000Y-96369000D01*
G75*
G02*
X92121000Y-96519000I0J-150000D01*
G01*
X92121000Y-98169000D01*
G75*
G02*
X91971000Y-98319000I-150000J0D01*
G01*
G37*
%TD.AperFunction*%
%TO.P,U9,5*%
%TO.N,D1*%
%TA.AperFunction,SMDPad,CuDef*%
G36*
G01*
X90701000Y-98319000D02*
X90401000Y-98319000D01*
G75*
G02*
X90251000Y-98169000I0J150000D01*
G01*
X90251000Y-96519000D01*
G75*
G02*
X90401000Y-96369000I150000J0D01*
G01*
X90701000Y-96369000D01*
G75*
G02*
X90851000Y-96519000I0J-150000D01*
G01*
X90851000Y-98169000D01*
G75*
G02*
X90701000Y-98319000I-150000J0D01*
G01*
G37*
%TD.AperFunction*%
%TO.P,U9,6*%
%TO.N,D1_buf*%
%TA.AperFunction,SMDPad,CuDef*%
G36*
G01*
X89431000Y-98319000D02*
X89131000Y-98319000D01*
G75*
G02*
X88981000Y-98169000I0J150000D01*
G01*
X88981000Y-96519000D01*
G75*
G02*
X89131000Y-96369000I150000J0D01*
G01*
X89431000Y-96369000D01*
G75*
G02*
X89581000Y-96519000I0J-150000D01*
G01*
X89581000Y-98169000D01*
G75*
G02*
X89431000Y-98319000I-150000J0D01*
G01*
G37*
%TD.AperFunction*%
%TO.P,U9,7*%
%TO.N,D1_Chip*%
%TA.AperFunction,SMDPad,CuDef*%
G36*
G01*
X88161000Y-98319000D02*
X87861000Y-98319000D01*
G75*
G02*
X87711000Y-98169000I0J150000D01*
G01*
X87711000Y-96519000D01*
G75*
G02*
X87861000Y-96369000I150000J0D01*
G01*
X88161000Y-96369000D01*
G75*
G02*
X88311000Y-96519000I0J-150000D01*
G01*
X88311000Y-98169000D01*
G75*
G02*
X88161000Y-98319000I-150000J0D01*
G01*
G37*
%TD.AperFunction*%
%TO.P,U9,8*%
%TO.N,GND*%
%TA.AperFunction,SMDPad,CuDef*%
G36*
G01*
X86891000Y-98319000D02*
X86591000Y-98319000D01*
G75*
G02*
X86441000Y-98169000I0J150000D01*
G01*
X86441000Y-96519000D01*
G75*
G02*
X86591000Y-96369000I150000J0D01*
G01*
X86891000Y-96369000D01*
G75*
G02*
X87041000Y-96519000I0J-150000D01*
G01*
X87041000Y-98169000D01*
G75*
G02*
X86891000Y-98319000I-150000J0D01*
G01*
G37*
%TD.AperFunction*%
%TO.P,U9,9*%
%TO.N,D3_Chip*%
%TA.AperFunction,SMDPad,CuDef*%
G36*
G01*
X86891000Y-93369000D02*
X86591000Y-93369000D01*
G75*
G02*
X86441000Y-93219000I0J150000D01*
G01*
X86441000Y-91569000D01*
G75*
G02*
X86591000Y-91419000I150000J0D01*
G01*
X86891000Y-91419000D01*
G75*
G02*
X87041000Y-91569000I0J-150000D01*
G01*
X87041000Y-93219000D01*
G75*
G02*
X86891000Y-93369000I-150000J0D01*
G01*
G37*
%TD.AperFunction*%
%TO.P,U9,10*%
%TO.N,D3_buf*%
%TA.AperFunction,SMDPad,CuDef*%
G36*
G01*
X88161000Y-93369000D02*
X87861000Y-93369000D01*
G75*
G02*
X87711000Y-93219000I0J150000D01*
G01*
X87711000Y-91569000D01*
G75*
G02*
X87861000Y-91419000I150000J0D01*
G01*
X88161000Y-91419000D01*
G75*
G02*
X88311000Y-91569000I0J-150000D01*
G01*
X88311000Y-93219000D01*
G75*
G02*
X88161000Y-93369000I-150000J0D01*
G01*
G37*
%TD.AperFunction*%
%TO.P,U9,11*%
%TO.N,D3*%
%TA.AperFunction,SMDPad,CuDef*%
G36*
G01*
X89431000Y-93369000D02*
X89131000Y-93369000D01*
G75*
G02*
X88981000Y-93219000I0J150000D01*
G01*
X88981000Y-91569000D01*
G75*
G02*
X89131000Y-91419000I150000J0D01*
G01*
X89431000Y-91419000D01*
G75*
G02*
X89581000Y-91569000I0J-150000D01*
G01*
X89581000Y-93219000D01*
G75*
G02*
X89431000Y-93369000I-150000J0D01*
G01*
G37*
%TD.AperFunction*%
%TO.P,U9,12*%
%TO.N,D2_Chip*%
%TA.AperFunction,SMDPad,CuDef*%
G36*
G01*
X90701000Y-93369000D02*
X90401000Y-93369000D01*
G75*
G02*
X90251000Y-93219000I0J150000D01*
G01*
X90251000Y-91569000D01*
G75*
G02*
X90401000Y-91419000I150000J0D01*
G01*
X90701000Y-91419000D01*
G75*
G02*
X90851000Y-91569000I0J-150000D01*
G01*
X90851000Y-93219000D01*
G75*
G02*
X90701000Y-93369000I-150000J0D01*
G01*
G37*
%TD.AperFunction*%
%TO.P,U9,13*%
%TO.N,D2_buf*%
%TA.AperFunction,SMDPad,CuDef*%
G36*
G01*
X91971000Y-93369000D02*
X91671000Y-93369000D01*
G75*
G02*
X91521000Y-93219000I0J150000D01*
G01*
X91521000Y-91569000D01*
G75*
G02*
X91671000Y-91419000I150000J0D01*
G01*
X91971000Y-91419000D01*
G75*
G02*
X92121000Y-91569000I0J-150000D01*
G01*
X92121000Y-93219000D01*
G75*
G02*
X91971000Y-93369000I-150000J0D01*
G01*
G37*
%TD.AperFunction*%
%TO.P,U9,14*%
%TO.N,D2*%
%TA.AperFunction,SMDPad,CuDef*%
G36*
G01*
X93241000Y-93369000D02*
X92941000Y-93369000D01*
G75*
G02*
X92791000Y-93219000I0J150000D01*
G01*
X92791000Y-91569000D01*
G75*
G02*
X92941000Y-91419000I150000J0D01*
G01*
X93241000Y-91419000D01*
G75*
G02*
X93391000Y-91569000I0J-150000D01*
G01*
X93391000Y-93219000D01*
G75*
G02*
X93241000Y-93369000I-150000J0D01*
G01*
G37*
%TD.AperFunction*%
%TO.P,U9,15*%
%TO.N,GND*%
%TA.AperFunction,SMDPad,CuDef*%
G36*
G01*
X94511000Y-93369000D02*
X94211000Y-93369000D01*
G75*
G02*
X94061000Y-93219000I0J150000D01*
G01*
X94061000Y-91569000D01*
G75*
G02*
X94211000Y-91419000I150000J0D01*
G01*
X94511000Y-91419000D01*
G75*
G02*
X94661000Y-91569000I0J-150000D01*
G01*
X94661000Y-93219000D01*
G75*
G02*
X94511000Y-93369000I-150000J0D01*
G01*
G37*
%TD.AperFunction*%
%TO.P,U9,16*%
%TO.N,+5V*%
%TA.AperFunction,SMDPad,CuDef*%
G36*
G01*
X95781000Y-93369000D02*
X95481000Y-93369000D01*
G75*
G02*
X95331000Y-93219000I0J150000D01*
G01*
X95331000Y-91569000D01*
G75*
G02*
X95481000Y-91419000I150000J0D01*
G01*
X95781000Y-91419000D01*
G75*
G02*
X95931000Y-91569000I0J-150000D01*
G01*
X95931000Y-93219000D01*
G75*
G02*
X95781000Y-93369000I-150000J0D01*
G01*
G37*
%TD.AperFunction*%
%TD*%
%TO.P,U8,1*%
%TO.N,4016_EN*%
%TA.AperFunction,SMDPad,CuDef*%
G36*
G01*
X103738000Y-67460000D02*
X103738000Y-67160000D01*
G75*
G02*
X103888000Y-67010000I150000J0D01*
G01*
X105538000Y-67010000D01*
G75*
G02*
X105688000Y-67160000I0J-150000D01*
G01*
X105688000Y-67460000D01*
G75*
G02*
X105538000Y-67610000I-150000J0D01*
G01*
X103888000Y-67610000D01*
G75*
G02*
X103738000Y-67460000I0J150000D01*
G01*
G37*
%TD.AperFunction*%
%TO.P,U8,2*%
%TO.N,D4*%
%TA.AperFunction,SMDPad,CuDef*%
G36*
G01*
X103738000Y-66190000D02*
X103738000Y-65890000D01*
G75*
G02*
X103888000Y-65740000I150000J0D01*
G01*
X105538000Y-65740000D01*
G75*
G02*
X105688000Y-65890000I0J-150000D01*
G01*
X105688000Y-66190000D01*
G75*
G02*
X105538000Y-66340000I-150000J0D01*
G01*
X103888000Y-66340000D01*
G75*
G02*
X103738000Y-66190000I0J150000D01*
G01*
G37*
%TD.AperFunction*%
%TO.P,U8,3*%
%TO.N,D4_buf*%
%TA.AperFunction,SMDPad,CuDef*%
G36*
G01*
X103738000Y-64920000D02*
X103738000Y-64620000D01*
G75*
G02*
X103888000Y-64470000I150000J0D01*
G01*
X105538000Y-64470000D01*
G75*
G02*
X105688000Y-64620000I0J-150000D01*
G01*
X105688000Y-64920000D01*
G75*
G02*
X105538000Y-65070000I-150000J0D01*
G01*
X103888000Y-65070000D01*
G75*
G02*
X103738000Y-64920000I0J150000D01*
G01*
G37*
%TD.AperFunction*%
%TO.P,U8,4*%
%TO.N,D4_Chip*%
%TA.AperFunction,SMDPad,CuDef*%
G36*
G01*
X103738000Y-63650000D02*
X103738000Y-63350000D01*
G75*
G02*
X103888000Y-63200000I150000J0D01*
G01*
X105538000Y-63200000D01*
G75*
G02*
X105688000Y-63350000I0J-150000D01*
G01*
X105688000Y-63650000D01*
G75*
G02*
X105538000Y-63800000I-150000J0D01*
G01*
X103888000Y-63800000D01*
G75*
G02*
X103738000Y-63650000I0J150000D01*
G01*
G37*
%TD.AperFunction*%
%TO.P,U8,5*%
%TO.N,D5*%
%TA.AperFunction,SMDPad,CuDef*%
G36*
G01*
X103738000Y-62380000D02*
X103738000Y-62080000D01*
G75*
G02*
X103888000Y-61930000I150000J0D01*
G01*
X105538000Y-61930000D01*
G75*
G02*
X105688000Y-62080000I0J-150000D01*
G01*
X105688000Y-62380000D01*
G75*
G02*
X105538000Y-62530000I-150000J0D01*
G01*
X103888000Y-62530000D01*
G75*
G02*
X103738000Y-62380000I0J150000D01*
G01*
G37*
%TD.AperFunction*%
%TO.P,U8,6*%
%TO.N,D5_buf*%
%TA.AperFunction,SMDPad,CuDef*%
G36*
G01*
X103738000Y-61110000D02*
X103738000Y-60810000D01*
G75*
G02*
X103888000Y-60660000I150000J0D01*
G01*
X105538000Y-60660000D01*
G75*
G02*
X105688000Y-60810000I0J-150000D01*
G01*
X105688000Y-61110000D01*
G75*
G02*
X105538000Y-61260000I-150000J0D01*
G01*
X103888000Y-61260000D01*
G75*
G02*
X103738000Y-61110000I0J150000D01*
G01*
G37*
%TD.AperFunction*%
%TO.P,U8,7*%
%TO.N,D5_Chip*%
%TA.AperFunction,SMDPad,CuDef*%
G36*
G01*
X103738000Y-59840000D02*
X103738000Y-59540000D01*
G75*
G02*
X103888000Y-59390000I150000J0D01*
G01*
X105538000Y-59390000D01*
G75*
G02*
X105688000Y-59540000I0J-150000D01*
G01*
X105688000Y-59840000D01*
G75*
G02*
X105538000Y-59990000I-150000J0D01*
G01*
X103888000Y-59990000D01*
G75*
G02*
X103738000Y-59840000I0J150000D01*
G01*
G37*
%TD.AperFunction*%
%TO.P,U8,8*%
%TO.N,GND*%
%TA.AperFunction,SMDPad,CuDef*%
G36*
G01*
X103738000Y-58570000D02*
X103738000Y-58270000D01*
G75*
G02*
X103888000Y-58120000I150000J0D01*
G01*
X105538000Y-58120000D01*
G75*
G02*
X105688000Y-58270000I0J-150000D01*
G01*
X105688000Y-58570000D01*
G75*
G02*
X105538000Y-58720000I-150000J0D01*
G01*
X103888000Y-58720000D01*
G75*
G02*
X103738000Y-58570000I0J150000D01*
G01*
G37*
%TD.AperFunction*%
%TO.P,U8,9*%
%TO.N,D7_Chip*%
%TA.AperFunction,SMDPad,CuDef*%
G36*
G01*
X108688000Y-58570000D02*
X108688000Y-58270000D01*
G75*
G02*
X108838000Y-58120000I150000J0D01*
G01*
X110488000Y-58120000D01*
G75*
G02*
X110638000Y-58270000I0J-150000D01*
G01*
X110638000Y-58570000D01*
G75*
G02*
X110488000Y-58720000I-150000J0D01*
G01*
X108838000Y-58720000D01*
G75*
G02*
X108688000Y-58570000I0J150000D01*
G01*
G37*
%TD.AperFunction*%
%TO.P,U8,10*%
%TO.N,D7_buf*%
%TA.AperFunction,SMDPad,CuDef*%
G36*
G01*
X108688000Y-59840000D02*
X108688000Y-59540000D01*
G75*
G02*
X108838000Y-59390000I150000J0D01*
G01*
X110488000Y-59390000D01*
G75*
G02*
X110638000Y-59540000I0J-150000D01*
G01*
X110638000Y-59840000D01*
G75*
G02*
X110488000Y-59990000I-150000J0D01*
G01*
X108838000Y-59990000D01*
G75*
G02*
X108688000Y-59840000I0J150000D01*
G01*
G37*
%TD.AperFunction*%
%TO.P,U8,11*%
%TO.N,D7*%
%TA.AperFunction,SMDPad,CuDef*%
G36*
G01*
X108688000Y-61110000D02*
X108688000Y-60810000D01*
G75*
G02*
X108838000Y-60660000I150000J0D01*
G01*
X110488000Y-60660000D01*
G75*
G02*
X110638000Y-60810000I0J-150000D01*
G01*
X110638000Y-61110000D01*
G75*
G02*
X110488000Y-61260000I-150000J0D01*
G01*
X108838000Y-61260000D01*
G75*
G02*
X108688000Y-61110000I0J150000D01*
G01*
G37*
%TD.AperFunction*%
%TO.P,U8,12*%
%TO.N,D6_Chip*%
%TA.AperFunction,SMDPad,CuDef*%
G36*
G01*
X108688000Y-62380000D02*
X108688000Y-62080000D01*
G75*
G02*
X108838000Y-61930000I150000J0D01*
G01*
X110488000Y-61930000D01*
G75*
G02*
X110638000Y-62080000I0J-150000D01*
G01*
X110638000Y-62380000D01*
G75*
G02*
X110488000Y-62530000I-150000J0D01*
G01*
X108838000Y-62530000D01*
G75*
G02*
X108688000Y-62380000I0J150000D01*
G01*
G37*
%TD.AperFunction*%
%TO.P,U8,13*%
%TO.N,D6_buf*%
%TA.AperFunction,SMDPad,CuDef*%
G36*
G01*
X108688000Y-63650000D02*
X108688000Y-63350000D01*
G75*
G02*
X108838000Y-63200000I150000J0D01*
G01*
X110488000Y-63200000D01*
G75*
G02*
X110638000Y-63350000I0J-150000D01*
G01*
X110638000Y-63650000D01*
G75*
G02*
X110488000Y-63800000I-150000J0D01*
G01*
X108838000Y-63800000D01*
G75*
G02*
X108688000Y-63650000I0J150000D01*
G01*
G37*
%TD.AperFunction*%
%TO.P,U8,14*%
%TO.N,D6*%
%TA.AperFunction,SMDPad,CuDef*%
G36*
G01*
X108688000Y-64920000D02*
X108688000Y-64620000D01*
G75*
G02*
X108838000Y-64470000I150000J0D01*
G01*
X110488000Y-64470000D01*
G75*
G02*
X110638000Y-64620000I0J-150000D01*
G01*
X110638000Y-64920000D01*
G75*
G02*
X110488000Y-65070000I-150000J0D01*
G01*
X108838000Y-65070000D01*
G75*
G02*
X108688000Y-64920000I0J150000D01*
G01*
G37*
%TD.AperFunction*%
%TO.P,U8,15*%
%TO.N,GND*%
%TA.AperFunction,SMDPad,CuDef*%
G36*
G01*
X108688000Y-66190000D02*
X108688000Y-65890000D01*
G75*
G02*
X108838000Y-65740000I150000J0D01*
G01*
X110488000Y-65740000D01*
G75*
G02*
X110638000Y-65890000I0J-150000D01*
G01*
X110638000Y-66190000D01*
G75*
G02*
X110488000Y-66340000I-150000J0D01*
G01*
X108838000Y-66340000D01*
G75*
G02*
X108688000Y-66190000I0J150000D01*
G01*
G37*
%TD.AperFunction*%
%TO.P,U8,16*%
%TO.N,+5V*%
%TA.AperFunction,SMDPad,CuDef*%
G36*
G01*
X108688000Y-67460000D02*
X108688000Y-67160000D01*
G75*
G02*
X108838000Y-67010000I150000J0D01*
G01*
X110488000Y-67010000D01*
G75*
G02*
X110638000Y-67160000I0J-150000D01*
G01*
X110638000Y-67460000D01*
G75*
G02*
X110488000Y-67610000I-150000J0D01*
G01*
X108838000Y-67610000D01*
G75*
G02*
X108688000Y-67460000I0J150000D01*
G01*
G37*
%TD.AperFunction*%
%TD*%
%TO.P,U7,1*%
%TO.N,FF_Reset*%
%TA.AperFunction,SMDPad,CuDef*%
G36*
G01*
X81894000Y-67460000D02*
X81894000Y-67160000D01*
G75*
G02*
X82044000Y-67010000I150000J0D01*
G01*
X83694000Y-67010000D01*
G75*
G02*
X83844000Y-67160000I0J-150000D01*
G01*
X83844000Y-67460000D01*
G75*
G02*
X83694000Y-67610000I-150000J0D01*
G01*
X82044000Y-67610000D01*
G75*
G02*
X81894000Y-67460000I0J150000D01*
G01*
G37*
%TD.AperFunction*%
%TO.P,U7,2*%
%TO.N,D0_buf*%
%TA.AperFunction,SMDPad,CuDef*%
G36*
G01*
X81894000Y-66190000D02*
X81894000Y-65890000D01*
G75*
G02*
X82044000Y-65740000I150000J0D01*
G01*
X83694000Y-65740000D01*
G75*
G02*
X83844000Y-65890000I0J-150000D01*
G01*
X83844000Y-66190000D01*
G75*
G02*
X83694000Y-66340000I-150000J0D01*
G01*
X82044000Y-66340000D01*
G75*
G02*
X81894000Y-66190000I0J150000D01*
G01*
G37*
%TD.AperFunction*%
%TO.P,U7,3*%
%TO.N,D4*%
%TA.AperFunction,SMDPad,CuDef*%
G36*
G01*
X81894000Y-64920000D02*
X81894000Y-64620000D01*
G75*
G02*
X82044000Y-64470000I150000J0D01*
G01*
X83694000Y-64470000D01*
G75*
G02*
X83844000Y-64620000I0J-150000D01*
G01*
X83844000Y-64920000D01*
G75*
G02*
X83694000Y-65070000I-150000J0D01*
G01*
X82044000Y-65070000D01*
G75*
G02*
X81894000Y-64920000I0J150000D01*
G01*
G37*
%TD.AperFunction*%
%TO.P,U7,4*%
%TO.N,D5*%
%TA.AperFunction,SMDPad,CuDef*%
G36*
G01*
X81894000Y-63650000D02*
X81894000Y-63350000D01*
G75*
G02*
X82044000Y-63200000I150000J0D01*
G01*
X83694000Y-63200000D01*
G75*
G02*
X83844000Y-63350000I0J-150000D01*
G01*
X83844000Y-63650000D01*
G75*
G02*
X83694000Y-63800000I-150000J0D01*
G01*
X82044000Y-63800000D01*
G75*
G02*
X81894000Y-63650000I0J150000D01*
G01*
G37*
%TD.AperFunction*%
%TO.P,U7,5*%
%TO.N,D1_buf*%
%TA.AperFunction,SMDPad,CuDef*%
G36*
G01*
X81894000Y-62380000D02*
X81894000Y-62080000D01*
G75*
G02*
X82044000Y-61930000I150000J0D01*
G01*
X83694000Y-61930000D01*
G75*
G02*
X83844000Y-62080000I0J-150000D01*
G01*
X83844000Y-62380000D01*
G75*
G02*
X83694000Y-62530000I-150000J0D01*
G01*
X82044000Y-62530000D01*
G75*
G02*
X81894000Y-62380000I0J150000D01*
G01*
G37*
%TD.AperFunction*%
%TO.P,U7,6*%
%TO.N,D6*%
%TA.AperFunction,SMDPad,CuDef*%
G36*
G01*
X81894000Y-61110000D02*
X81894000Y-60810000D01*
G75*
G02*
X82044000Y-60660000I150000J0D01*
G01*
X83694000Y-60660000D01*
G75*
G02*
X83844000Y-60810000I0J-150000D01*
G01*
X83844000Y-61110000D01*
G75*
G02*
X83694000Y-61260000I-150000J0D01*
G01*
X82044000Y-61260000D01*
G75*
G02*
X81894000Y-61110000I0J150000D01*
G01*
G37*
%TD.AperFunction*%
%TO.P,U7,7*%
%TO.N,D2_buf*%
%TA.AperFunction,SMDPad,CuDef*%
G36*
G01*
X81894000Y-59840000D02*
X81894000Y-59540000D01*
G75*
G02*
X82044000Y-59390000I150000J0D01*
G01*
X83694000Y-59390000D01*
G75*
G02*
X83844000Y-59540000I0J-150000D01*
G01*
X83844000Y-59840000D01*
G75*
G02*
X83694000Y-59990000I-150000J0D01*
G01*
X82044000Y-59990000D01*
G75*
G02*
X81894000Y-59840000I0J150000D01*
G01*
G37*
%TD.AperFunction*%
%TO.P,U7,8*%
%TO.N,GND*%
%TA.AperFunction,SMDPad,CuDef*%
G36*
G01*
X81894000Y-58570000D02*
X81894000Y-58270000D01*
G75*
G02*
X82044000Y-58120000I150000J0D01*
G01*
X83694000Y-58120000D01*
G75*
G02*
X83844000Y-58270000I0J-150000D01*
G01*
X83844000Y-58570000D01*
G75*
G02*
X83694000Y-58720000I-150000J0D01*
G01*
X82044000Y-58720000D01*
G75*
G02*
X81894000Y-58570000I0J150000D01*
G01*
G37*
%TD.AperFunction*%
%TO.P,U7,9*%
%TO.N,OUT1_*%
%TA.AperFunction,SMDPad,CuDef*%
G36*
G01*
X86844000Y-58570000D02*
X86844000Y-58270000D01*
G75*
G02*
X86994000Y-58120000I150000J0D01*
G01*
X88644000Y-58120000D01*
G75*
G02*
X88794000Y-58270000I0J-150000D01*
G01*
X88794000Y-58570000D01*
G75*
G02*
X88644000Y-58720000I-150000J0D01*
G01*
X86994000Y-58720000D01*
G75*
G02*
X86844000Y-58570000I0J150000D01*
G01*
G37*
%TD.AperFunction*%
%TO.P,U7,10*%
%TO.N,D3_buf*%
%TA.AperFunction,SMDPad,CuDef*%
G36*
G01*
X86844000Y-59840000D02*
X86844000Y-59540000D01*
G75*
G02*
X86994000Y-59390000I150000J0D01*
G01*
X88644000Y-59390000D01*
G75*
G02*
X88794000Y-59540000I0J-150000D01*
G01*
X88794000Y-59840000D01*
G75*
G02*
X88644000Y-59990000I-150000J0D01*
G01*
X86994000Y-59990000D01*
G75*
G02*
X86844000Y-59840000I0J150000D01*
G01*
G37*
%TD.AperFunction*%
%TO.P,U7,11*%
%TO.N,D7*%
%TA.AperFunction,SMDPad,CuDef*%
G36*
G01*
X86844000Y-61110000D02*
X86844000Y-60810000D01*
G75*
G02*
X86994000Y-60660000I150000J0D01*
G01*
X88644000Y-60660000D01*
G75*
G02*
X88794000Y-60810000I0J-150000D01*
G01*
X88794000Y-61110000D01*
G75*
G02*
X88644000Y-61260000I-150000J0D01*
G01*
X86994000Y-61260000D01*
G75*
G02*
X86844000Y-61110000I0J150000D01*
G01*
G37*
%TD.AperFunction*%
%TO.P,U7,12*%
%TO.N,N/C*%
%TA.AperFunction,SMDPad,CuDef*%
G36*
G01*
X86844000Y-62380000D02*
X86844000Y-62080000D01*
G75*
G02*
X86994000Y-61930000I150000J0D01*
G01*
X88644000Y-61930000D01*
G75*
G02*
X88794000Y-62080000I0J-150000D01*
G01*
X88794000Y-62380000D01*
G75*
G02*
X88644000Y-62530000I-150000J0D01*
G01*
X86994000Y-62530000D01*
G75*
G02*
X86844000Y-62380000I0J150000D01*
G01*
G37*
%TD.AperFunction*%
%TO.P,U7,13*%
%TA.AperFunction,SMDPad,CuDef*%
G36*
G01*
X86844000Y-63650000D02*
X86844000Y-63350000D01*
G75*
G02*
X86994000Y-63200000I150000J0D01*
G01*
X88644000Y-63200000D01*
G75*
G02*
X88794000Y-63350000I0J-150000D01*
G01*
X88794000Y-63650000D01*
G75*
G02*
X88644000Y-63800000I-150000J0D01*
G01*
X86994000Y-63800000D01*
G75*
G02*
X86844000Y-63650000I0J150000D01*
G01*
G37*
%TD.AperFunction*%
%TO.P,U7,14*%
%TO.N,+5V*%
%TA.AperFunction,SMDPad,CuDef*%
G36*
G01*
X86844000Y-64920000D02*
X86844000Y-64620000D01*
G75*
G02*
X86994000Y-64470000I150000J0D01*
G01*
X88644000Y-64470000D01*
G75*
G02*
X88794000Y-64620000I0J-150000D01*
G01*
X88794000Y-64920000D01*
G75*
G02*
X88644000Y-65070000I-150000J0D01*
G01*
X86994000Y-65070000D01*
G75*
G02*
X86844000Y-64920000I0J150000D01*
G01*
G37*
%TD.AperFunction*%
%TO.P,U7,15*%
%TO.N,4016_EN*%
%TA.AperFunction,SMDPad,CuDef*%
G36*
G01*
X86844000Y-66190000D02*
X86844000Y-65890000D01*
G75*
G02*
X86994000Y-65740000I150000J0D01*
G01*
X88644000Y-65740000D01*
G75*
G02*
X88794000Y-65890000I0J-150000D01*
G01*
X88794000Y-66190000D01*
G75*
G02*
X88644000Y-66340000I-150000J0D01*
G01*
X86994000Y-66340000D01*
G75*
G02*
X86844000Y-66190000I0J150000D01*
G01*
G37*
%TD.AperFunction*%
%TO.P,U7,16*%
%TO.N,+5V*%
%TA.AperFunction,SMDPad,CuDef*%
G36*
G01*
X86844000Y-67460000D02*
X86844000Y-67160000D01*
G75*
G02*
X86994000Y-67010000I150000J0D01*
G01*
X88644000Y-67010000D01*
G75*
G02*
X88794000Y-67160000I0J-150000D01*
G01*
X88794000Y-67460000D01*
G75*
G02*
X88644000Y-67610000I-150000J0D01*
G01*
X86994000Y-67610000D01*
G75*
G02*
X86844000Y-67460000I0J150000D01*
G01*
G37*
%TD.AperFunction*%
%TD*%
%TO.P,U6,1*%
%TO.N,FF_Reset*%
%TA.AperFunction,SMDPad,CuDef*%
G36*
G01*
X92943000Y-67460000D02*
X92943000Y-67160000D01*
G75*
G02*
X93093000Y-67010000I150000J0D01*
G01*
X94743000Y-67010000D01*
G75*
G02*
X94893000Y-67160000I0J-150000D01*
G01*
X94893000Y-67460000D01*
G75*
G02*
X94743000Y-67610000I-150000J0D01*
G01*
X93093000Y-67610000D01*
G75*
G02*
X92943000Y-67460000I0J150000D01*
G01*
G37*
%TD.AperFunction*%
%TO.P,U6,2*%
%TO.N,D4_buf*%
%TA.AperFunction,SMDPad,CuDef*%
G36*
G01*
X92943000Y-66190000D02*
X92943000Y-65890000D01*
G75*
G02*
X93093000Y-65740000I150000J0D01*
G01*
X94743000Y-65740000D01*
G75*
G02*
X94893000Y-65890000I0J-150000D01*
G01*
X94893000Y-66190000D01*
G75*
G02*
X94743000Y-66340000I-150000J0D01*
G01*
X93093000Y-66340000D01*
G75*
G02*
X92943000Y-66190000I0J150000D01*
G01*
G37*
%TD.AperFunction*%
%TO.P,U6,3*%
%TO.N,D4*%
%TA.AperFunction,SMDPad,CuDef*%
G36*
G01*
X92943000Y-64920000D02*
X92943000Y-64620000D01*
G75*
G02*
X93093000Y-64470000I150000J0D01*
G01*
X94743000Y-64470000D01*
G75*
G02*
X94893000Y-64620000I0J-150000D01*
G01*
X94893000Y-64920000D01*
G75*
G02*
X94743000Y-65070000I-150000J0D01*
G01*
X93093000Y-65070000D01*
G75*
G02*
X92943000Y-64920000I0J150000D01*
G01*
G37*
%TD.AperFunction*%
%TO.P,U6,4*%
%TO.N,D5*%
%TA.AperFunction,SMDPad,CuDef*%
G36*
G01*
X92943000Y-63650000D02*
X92943000Y-63350000D01*
G75*
G02*
X93093000Y-63200000I150000J0D01*
G01*
X94743000Y-63200000D01*
G75*
G02*
X94893000Y-63350000I0J-150000D01*
G01*
X94893000Y-63650000D01*
G75*
G02*
X94743000Y-63800000I-150000J0D01*
G01*
X93093000Y-63800000D01*
G75*
G02*
X92943000Y-63650000I0J150000D01*
G01*
G37*
%TD.AperFunction*%
%TO.P,U6,5*%
%TO.N,D5_buf*%
%TA.AperFunction,SMDPad,CuDef*%
G36*
G01*
X92943000Y-62380000D02*
X92943000Y-62080000D01*
G75*
G02*
X93093000Y-61930000I150000J0D01*
G01*
X94743000Y-61930000D01*
G75*
G02*
X94893000Y-62080000I0J-150000D01*
G01*
X94893000Y-62380000D01*
G75*
G02*
X94743000Y-62530000I-150000J0D01*
G01*
X93093000Y-62530000D01*
G75*
G02*
X92943000Y-62380000I0J150000D01*
G01*
G37*
%TD.AperFunction*%
%TO.P,U6,6*%
%TO.N,D6*%
%TA.AperFunction,SMDPad,CuDef*%
G36*
G01*
X92943000Y-61110000D02*
X92943000Y-60810000D01*
G75*
G02*
X93093000Y-60660000I150000J0D01*
G01*
X94743000Y-60660000D01*
G75*
G02*
X94893000Y-60810000I0J-150000D01*
G01*
X94893000Y-61110000D01*
G75*
G02*
X94743000Y-61260000I-150000J0D01*
G01*
X93093000Y-61260000D01*
G75*
G02*
X92943000Y-61110000I0J150000D01*
G01*
G37*
%TD.AperFunction*%
%TO.P,U6,7*%
%TO.N,D6_buf*%
%TA.AperFunction,SMDPad,CuDef*%
G36*
G01*
X92943000Y-59840000D02*
X92943000Y-59540000D01*
G75*
G02*
X93093000Y-59390000I150000J0D01*
G01*
X94743000Y-59390000D01*
G75*
G02*
X94893000Y-59540000I0J-150000D01*
G01*
X94893000Y-59840000D01*
G75*
G02*
X94743000Y-59990000I-150000J0D01*
G01*
X93093000Y-59990000D01*
G75*
G02*
X92943000Y-59840000I0J150000D01*
G01*
G37*
%TD.AperFunction*%
%TO.P,U6,8*%
%TO.N,GND*%
%TA.AperFunction,SMDPad,CuDef*%
G36*
G01*
X92943000Y-58570000D02*
X92943000Y-58270000D01*
G75*
G02*
X93093000Y-58120000I150000J0D01*
G01*
X94743000Y-58120000D01*
G75*
G02*
X94893000Y-58270000I0J-150000D01*
G01*
X94893000Y-58570000D01*
G75*
G02*
X94743000Y-58720000I-150000J0D01*
G01*
X93093000Y-58720000D01*
G75*
G02*
X92943000Y-58570000I0J150000D01*
G01*
G37*
%TD.AperFunction*%
%TO.P,U6,9*%
%TO.N,OUT1*%
%TA.AperFunction,SMDPad,CuDef*%
G36*
G01*
X97893000Y-58570000D02*
X97893000Y-58270000D01*
G75*
G02*
X98043000Y-58120000I150000J0D01*
G01*
X99693000Y-58120000D01*
G75*
G02*
X99843000Y-58270000I0J-150000D01*
G01*
X99843000Y-58570000D01*
G75*
G02*
X99693000Y-58720000I-150000J0D01*
G01*
X98043000Y-58720000D01*
G75*
G02*
X97893000Y-58570000I0J150000D01*
G01*
G37*
%TD.AperFunction*%
%TO.P,U6,10*%
%TO.N,D7_buf*%
%TA.AperFunction,SMDPad,CuDef*%
G36*
G01*
X97893000Y-59840000D02*
X97893000Y-59540000D01*
G75*
G02*
X98043000Y-59390000I150000J0D01*
G01*
X99693000Y-59390000D01*
G75*
G02*
X99843000Y-59540000I0J-150000D01*
G01*
X99843000Y-59840000D01*
G75*
G02*
X99693000Y-59990000I-150000J0D01*
G01*
X98043000Y-59990000D01*
G75*
G02*
X97893000Y-59840000I0J150000D01*
G01*
G37*
%TD.AperFunction*%
%TO.P,U6,11*%
%TO.N,D7*%
%TA.AperFunction,SMDPad,CuDef*%
G36*
G01*
X97893000Y-61110000D02*
X97893000Y-60810000D01*
G75*
G02*
X98043000Y-60660000I150000J0D01*
G01*
X99693000Y-60660000D01*
G75*
G02*
X99843000Y-60810000I0J-150000D01*
G01*
X99843000Y-61110000D01*
G75*
G02*
X99693000Y-61260000I-150000J0D01*
G01*
X98043000Y-61260000D01*
G75*
G02*
X97893000Y-61110000I0J150000D01*
G01*
G37*
%TD.AperFunction*%
%TO.P,U6,12*%
%TO.N,A0_buf*%
%TA.AperFunction,SMDPad,CuDef*%
G36*
G01*
X97893000Y-62380000D02*
X97893000Y-62080000D01*
G75*
G02*
X98043000Y-61930000I150000J0D01*
G01*
X99693000Y-61930000D01*
G75*
G02*
X99843000Y-62080000I0J-150000D01*
G01*
X99843000Y-62380000D01*
G75*
G02*
X99693000Y-62530000I-150000J0D01*
G01*
X98043000Y-62530000D01*
G75*
G02*
X97893000Y-62380000I0J150000D01*
G01*
G37*
%TD.AperFunction*%
%TO.P,U6,13*%
%TO.N,D3*%
%TA.AperFunction,SMDPad,CuDef*%
G36*
G01*
X97893000Y-63650000D02*
X97893000Y-63350000D01*
G75*
G02*
X98043000Y-63200000I150000J0D01*
G01*
X99693000Y-63200000D01*
G75*
G02*
X99843000Y-63350000I0J-150000D01*
G01*
X99843000Y-63650000D01*
G75*
G02*
X99693000Y-63800000I-150000J0D01*
G01*
X98043000Y-63800000D01*
G75*
G02*
X97893000Y-63650000I0J150000D01*
G01*
G37*
%TD.AperFunction*%
%TO.P,U6,14*%
%TO.N,D2*%
%TA.AperFunction,SMDPad,CuDef*%
G36*
G01*
X97893000Y-64920000D02*
X97893000Y-64620000D01*
G75*
G02*
X98043000Y-64470000I150000J0D01*
G01*
X99693000Y-64470000D01*
G75*
G02*
X99843000Y-64620000I0J-150000D01*
G01*
X99843000Y-64920000D01*
G75*
G02*
X99693000Y-65070000I-150000J0D01*
G01*
X98043000Y-65070000D01*
G75*
G02*
X97893000Y-64920000I0J150000D01*
G01*
G37*
%TD.AperFunction*%
%TO.P,U6,15*%
%TO.N,A1_buf*%
%TA.AperFunction,SMDPad,CuDef*%
G36*
G01*
X97893000Y-66190000D02*
X97893000Y-65890000D01*
G75*
G02*
X98043000Y-65740000I150000J0D01*
G01*
X99693000Y-65740000D01*
G75*
G02*
X99843000Y-65890000I0J-150000D01*
G01*
X99843000Y-66190000D01*
G75*
G02*
X99693000Y-66340000I-150000J0D01*
G01*
X98043000Y-66340000D01*
G75*
G02*
X97893000Y-66190000I0J150000D01*
G01*
G37*
%TD.AperFunction*%
%TO.P,U6,16*%
%TO.N,+5V*%
%TA.AperFunction,SMDPad,CuDef*%
G36*
G01*
X97893000Y-67460000D02*
X97893000Y-67160000D01*
G75*
G02*
X98043000Y-67010000I150000J0D01*
G01*
X99693000Y-67010000D01*
G75*
G02*
X99843000Y-67160000I0J-150000D01*
G01*
X99843000Y-67460000D01*
G75*
G02*
X99693000Y-67610000I-150000J0D01*
G01*
X98043000Y-67610000D01*
G75*
G02*
X97893000Y-67460000I0J150000D01*
G01*
G37*
%TD.AperFunction*%
%TD*%
%TO.P,C6,1*%
%TO.N,Net-(C6-Pad1)*%
%TA.AperFunction,SMDPad,CuDef*%
G36*
G01*
X85775250Y-102525000D02*
X84912750Y-102525000D01*
G75*
G02*
X84704000Y-102316250I0J208750D01*
G01*
X84704000Y-101898750D01*
G75*
G02*
X84912750Y-101690000I208750J0D01*
G01*
X85775250Y-101690000D01*
G75*
G02*
X85984000Y-101898750I0J-208750D01*
G01*
X85984000Y-102316250D01*
G75*
G02*
X85775250Y-102525000I-208750J0D01*
G01*
G37*
%TD.AperFunction*%
%TO.P,C6,2*%
%TO.N,Net-(C6-Pad2)*%
%TA.AperFunction,SMDPad,CuDef*%
G36*
G01*
X85775250Y-101270000D02*
X84912750Y-101270000D01*
G75*
G02*
X84704000Y-101061250I0J208750D01*
G01*
X84704000Y-100643750D01*
G75*
G02*
X84912750Y-100435000I208750J0D01*
G01*
X85775250Y-100435000D01*
G75*
G02*
X85984000Y-100643750I0J-208750D01*
G01*
X85984000Y-101061250D01*
G75*
G02*
X85775250Y-101270000I-208750J0D01*
G01*
G37*
%TD.AperFunction*%
%TD*%
%TO.P,YMF288,8*%
%TO.N,D6_Chip*%
%TA.AperFunction,SMDPad,CuDef*%
G36*
G01*
X101958000Y-105577000D02*
X102258000Y-105577000D01*
G75*
G02*
X102408000Y-105727000I0J-150000D01*
G01*
X102408000Y-107477000D01*
G75*
G02*
X102258000Y-107627000I-150000J0D01*
G01*
X101958000Y-107627000D01*
G75*
G02*
X101808000Y-107477000I0J150000D01*
G01*
X101808000Y-105727000D01*
G75*
G02*
X101958000Y-105577000I150000J0D01*
G01*
G37*
%TD.AperFunction*%
%TO.P,YMF288,9*%
%TO.N,D7_Chip*%
%TA.AperFunction,SMDPad,CuDef*%
G36*
G01*
X103228000Y-105577000D02*
X103528000Y-105577000D01*
G75*
G02*
X103678000Y-105727000I0J-150000D01*
G01*
X103678000Y-107477000D01*
G75*
G02*
X103528000Y-107627000I-150000J0D01*
G01*
X103228000Y-107627000D01*
G75*
G02*
X103078000Y-107477000I0J150000D01*
G01*
X103078000Y-105727000D01*
G75*
G02*
X103228000Y-105577000I150000J0D01*
G01*
G37*
%TD.AperFunction*%
%TO.P,YMF288,3*%
%TO.N,D1_Chip*%
%TA.AperFunction,SMDPad,CuDef*%
G36*
G01*
X95608000Y-105577000D02*
X95908000Y-105577000D01*
G75*
G02*
X96058000Y-105727000I0J-150000D01*
G01*
X96058000Y-107477000D01*
G75*
G02*
X95908000Y-107627000I-150000J0D01*
G01*
X95608000Y-107627000D01*
G75*
G02*
X95458000Y-107477000I0J150000D01*
G01*
X95458000Y-105727000D01*
G75*
G02*
X95608000Y-105577000I150000J0D01*
G01*
G37*
%TD.AperFunction*%
%TO.P,YMF288,6*%
%TO.N,D4_Chip*%
%TA.AperFunction,SMDPad,CuDef*%
G36*
G01*
X99418000Y-105577000D02*
X99718000Y-105577000D01*
G75*
G02*
X99868000Y-105727000I0J-150000D01*
G01*
X99868000Y-107477000D01*
G75*
G02*
X99718000Y-107627000I-150000J0D01*
G01*
X99418000Y-107627000D01*
G75*
G02*
X99268000Y-107477000I0J150000D01*
G01*
X99268000Y-105727000D01*
G75*
G02*
X99418000Y-105577000I150000J0D01*
G01*
G37*
%TD.AperFunction*%
%TO.P,YMF288,11*%
%TO.N,Net-(C1-Pad2)*%
%TA.AperFunction,SMDPad,CuDef*%
G36*
G01*
X105768000Y-105577000D02*
X106068000Y-105577000D01*
G75*
G02*
X106218000Y-105727000I0J-150000D01*
G01*
X106218000Y-107477000D01*
G75*
G02*
X106068000Y-107627000I-150000J0D01*
G01*
X105768000Y-107627000D01*
G75*
G02*
X105618000Y-107477000I0J150000D01*
G01*
X105618000Y-105727000D01*
G75*
G02*
X105768000Y-105577000I150000J0D01*
G01*
G37*
%TD.AperFunction*%
%TO.P,YMF288,5*%
%TO.N,D3_Chip*%
%TA.AperFunction,SMDPad,CuDef*%
G36*
G01*
X98148000Y-105577000D02*
X98448000Y-105577000D01*
G75*
G02*
X98598000Y-105727000I0J-150000D01*
G01*
X98598000Y-107477000D01*
G75*
G02*
X98448000Y-107627000I-150000J0D01*
G01*
X98148000Y-107627000D01*
G75*
G02*
X97998000Y-107477000I0J150000D01*
G01*
X97998000Y-105727000D01*
G75*
G02*
X98148000Y-105577000I150000J0D01*
G01*
G37*
%TD.AperFunction*%
%TO.P,YMF288,4*%
%TO.N,D2_Chip*%
%TA.AperFunction,SMDPad,CuDef*%
G36*
G01*
X96878000Y-105577000D02*
X97178000Y-105577000D01*
G75*
G02*
X97328000Y-105727000I0J-150000D01*
G01*
X97328000Y-107477000D01*
G75*
G02*
X97178000Y-107627000I-150000J0D01*
G01*
X96878000Y-107627000D01*
G75*
G02*
X96728000Y-107477000I0J150000D01*
G01*
X96728000Y-105727000D01*
G75*
G02*
X96878000Y-105577000I150000J0D01*
G01*
G37*
%TD.AperFunction*%
%TO.P,YMF288,2*%
%TO.N,D0_Chip*%
%TA.AperFunction,SMDPad,CuDef*%
G36*
G01*
X94338000Y-105577000D02*
X94638000Y-105577000D01*
G75*
G02*
X94788000Y-105727000I0J-150000D01*
G01*
X94788000Y-107477000D01*
G75*
G02*
X94638000Y-107627000I-150000J0D01*
G01*
X94338000Y-107627000D01*
G75*
G02*
X94188000Y-107477000I0J150000D01*
G01*
X94188000Y-105727000D01*
G75*
G02*
X94338000Y-105577000I150000J0D01*
G01*
G37*
%TD.AperFunction*%
%TO.P,YMF288,10*%
%TO.N,N/C*%
%TA.AperFunction,SMDPad,CuDef*%
G36*
G01*
X104498000Y-105577000D02*
X104798000Y-105577000D01*
G75*
G02*
X104948000Y-105727000I0J-150000D01*
G01*
X104948000Y-107477000D01*
G75*
G02*
X104798000Y-107627000I-150000J0D01*
G01*
X104498000Y-107627000D01*
G75*
G02*
X104348000Y-107477000I0J150000D01*
G01*
X104348000Y-105727000D01*
G75*
G02*
X104498000Y-105577000I150000J0D01*
G01*
G37*
%TD.AperFunction*%
%TO.P,YMF288,1*%
%TO.N,GND*%
%TA.AperFunction,SMDPad,CuDef*%
G36*
G01*
X93068000Y-105577000D02*
X93368000Y-105577000D01*
G75*
G02*
X93518000Y-105727000I0J-150000D01*
G01*
X93518000Y-107477000D01*
G75*
G02*
X93368000Y-107627000I-150000J0D01*
G01*
X93068000Y-107627000D01*
G75*
G02*
X92918000Y-107477000I0J150000D01*
G01*
X92918000Y-105727000D01*
G75*
G02*
X93068000Y-105577000I150000J0D01*
G01*
G37*
%TD.AperFunction*%
%TO.P,YMF288,7*%
%TO.N,D5_Chip*%
%TA.AperFunction,SMDPad,CuDef*%
G36*
G01*
X100688000Y-105577000D02*
X100988000Y-105577000D01*
G75*
G02*
X101138000Y-105727000I0J-150000D01*
G01*
X101138000Y-107477000D01*
G75*
G02*
X100988000Y-107627000I-150000J0D01*
G01*
X100688000Y-107627000D01*
G75*
G02*
X100538000Y-107477000I0J150000D01*
G01*
X100538000Y-105727000D01*
G75*
G02*
X100688000Y-105577000I150000J0D01*
G01*
G37*
%TD.AperFunction*%
%TO.P,YMF288,12*%
%TO.N,+5V*%
%TA.AperFunction,SMDPad,CuDef*%
G36*
G01*
X107038000Y-105577000D02*
X107338000Y-105577000D01*
G75*
G02*
X107488000Y-105727000I0J-150000D01*
G01*
X107488000Y-107477000D01*
G75*
G02*
X107338000Y-107627000I-150000J0D01*
G01*
X107038000Y-107627000D01*
G75*
G02*
X106888000Y-107477000I0J150000D01*
G01*
X106888000Y-105727000D01*
G75*
G02*
X107038000Y-105577000I150000J0D01*
G01*
G37*
%TD.AperFunction*%
%TO.P,YMF288,21*%
%TO.N,A1_Chip*%
%TA.AperFunction,SMDPad,CuDef*%
G36*
G01*
X101958000Y-116147000D02*
X102258000Y-116147000D01*
G75*
G02*
X102408000Y-116297000I0J-150000D01*
G01*
X102408000Y-118047000D01*
G75*
G02*
X102258000Y-118197000I-150000J0D01*
G01*
X101958000Y-118197000D01*
G75*
G02*
X101808000Y-118047000I0J150000D01*
G01*
X101808000Y-116297000D01*
G75*
G02*
X101958000Y-116147000I150000J0D01*
G01*
G37*
%TD.AperFunction*%
%TO.P,YMF288,13*%
%TO.N,N/C*%
%TA.AperFunction,SMDPad,CuDef*%
G36*
G01*
X108308000Y-105577000D02*
X108608000Y-105577000D01*
G75*
G02*
X108758000Y-105727000I0J-150000D01*
G01*
X108758000Y-107477000D01*
G75*
G02*
X108608000Y-107627000I-150000J0D01*
G01*
X108308000Y-107627000D01*
G75*
G02*
X108158000Y-107477000I0J150000D01*
G01*
X108158000Y-105727000D01*
G75*
G02*
X108308000Y-105577000I150000J0D01*
G01*
G37*
%TD.AperFunction*%
%TO.P,YMF288,19*%
%TO.N,+5V*%
%TA.AperFunction,SMDPad,CuDef*%
G36*
G01*
X104498000Y-116147000D02*
X104798000Y-116147000D01*
G75*
G02*
X104948000Y-116297000I0J-150000D01*
G01*
X104948000Y-118047000D01*
G75*
G02*
X104798000Y-118197000I-150000J0D01*
G01*
X104498000Y-118197000D01*
G75*
G02*
X104348000Y-118047000I0J150000D01*
G01*
X104348000Y-116297000D01*
G75*
G02*
X104498000Y-116147000I150000J0D01*
G01*
G37*
%TD.AperFunction*%
%TO.P,YMF288,14*%
%TO.N,GND*%
%TA.AperFunction,SMDPad,CuDef*%
G36*
G01*
X109578000Y-105577000D02*
X109878000Y-105577000D01*
G75*
G02*
X110028000Y-105727000I0J-150000D01*
G01*
X110028000Y-107477000D01*
G75*
G02*
X109878000Y-107627000I-150000J0D01*
G01*
X109578000Y-107627000D01*
G75*
G02*
X109428000Y-107477000I0J150000D01*
G01*
X109428000Y-105727000D01*
G75*
G02*
X109578000Y-105577000I150000J0D01*
G01*
G37*
%TD.AperFunction*%
%TO.P,YMF288,18*%
%TA.AperFunction,SMDPad,CuDef*%
G36*
G01*
X105768000Y-116147000D02*
X106068000Y-116147000D01*
G75*
G02*
X106218000Y-116297000I0J-150000D01*
G01*
X106218000Y-118047000D01*
G75*
G02*
X106068000Y-118197000I-150000J0D01*
G01*
X105768000Y-118197000D01*
G75*
G02*
X105618000Y-118047000I0J150000D01*
G01*
X105618000Y-116297000D01*
G75*
G02*
X105768000Y-116147000I150000J0D01*
G01*
G37*
%TD.AperFunction*%
%TO.P,YMF288,24*%
%TO.N,Net-(BU9480F1-Pad6)*%
%TA.AperFunction,SMDPad,CuDef*%
G36*
G01*
X98148000Y-116147000D02*
X98448000Y-116147000D01*
G75*
G02*
X98598000Y-116297000I0J-150000D01*
G01*
X98598000Y-118047000D01*
G75*
G02*
X98448000Y-118197000I-150000J0D01*
G01*
X98148000Y-118197000D01*
G75*
G02*
X97998000Y-118047000I0J150000D01*
G01*
X97998000Y-116297000D01*
G75*
G02*
X98148000Y-116147000I150000J0D01*
G01*
G37*
%TD.AperFunction*%
%TO.P,YMF288,23*%
%TO.N,Net-(BU9480F1-Pad7)*%
%TA.AperFunction,SMDPad,CuDef*%
G36*
G01*
X99418000Y-116147000D02*
X99718000Y-116147000D01*
G75*
G02*
X99868000Y-116297000I0J-150000D01*
G01*
X99868000Y-118047000D01*
G75*
G02*
X99718000Y-118197000I-150000J0D01*
G01*
X99418000Y-118197000D01*
G75*
G02*
X99268000Y-118047000I0J150000D01*
G01*
X99268000Y-116297000D01*
G75*
G02*
X99418000Y-116147000I150000J0D01*
G01*
G37*
%TD.AperFunction*%
%TO.P,YMF288,22*%
%TO.N,+5V*%
%TA.AperFunction,SMDPad,CuDef*%
G36*
G01*
X100688000Y-116147000D02*
X100988000Y-116147000D01*
G75*
G02*
X101138000Y-116297000I0J-150000D01*
G01*
X101138000Y-118047000D01*
G75*
G02*
X100988000Y-118197000I-150000J0D01*
G01*
X100688000Y-118197000D01*
G75*
G02*
X100538000Y-118047000I0J150000D01*
G01*
X100538000Y-116297000D01*
G75*
G02*
X100688000Y-116147000I150000J0D01*
G01*
G37*
%TD.AperFunction*%
%TO.P,YMF288,16*%
%TO.N,GND*%
%TA.AperFunction,SMDPad,CuDef*%
G36*
G01*
X108308000Y-116147000D02*
X108608000Y-116147000D01*
G75*
G02*
X108758000Y-116297000I0J-150000D01*
G01*
X108758000Y-118047000D01*
G75*
G02*
X108608000Y-118197000I-150000J0D01*
G01*
X108308000Y-118197000D01*
G75*
G02*
X108158000Y-118047000I0J150000D01*
G01*
X108158000Y-116297000D01*
G75*
G02*
X108308000Y-116147000I150000J0D01*
G01*
G37*
%TD.AperFunction*%
%TO.P,YMF288,20*%
%TO.N,A0_Chip*%
%TA.AperFunction,SMDPad,CuDef*%
G36*
G01*
X103228000Y-116147000D02*
X103528000Y-116147000D01*
G75*
G02*
X103678000Y-116297000I0J-150000D01*
G01*
X103678000Y-118047000D01*
G75*
G02*
X103528000Y-118197000I-150000J0D01*
G01*
X103228000Y-118197000D01*
G75*
G02*
X103078000Y-118047000I0J150000D01*
G01*
X103078000Y-116297000D01*
G75*
G02*
X103228000Y-116147000I150000J0D01*
G01*
G37*
%TD.AperFunction*%
%TO.P,YMF288,28*%
%TO.N,Net-(X1-Pad3)*%
%TA.AperFunction,SMDPad,CuDef*%
G36*
G01*
X93068000Y-116147000D02*
X93368000Y-116147000D01*
G75*
G02*
X93518000Y-116297000I0J-150000D01*
G01*
X93518000Y-118047000D01*
G75*
G02*
X93368000Y-118197000I-150000J0D01*
G01*
X93068000Y-118197000D01*
G75*
G02*
X92918000Y-118047000I0J150000D01*
G01*
X92918000Y-116297000D01*
G75*
G02*
X93068000Y-116147000I150000J0D01*
G01*
G37*
%TD.AperFunction*%
%TO.P,YMF288,15*%
%TO.N,IRQ*%
%TA.AperFunction,SMDPad,CuDef*%
G36*
G01*
X109578000Y-116147000D02*
X109878000Y-116147000D01*
G75*
G02*
X110028000Y-116297000I0J-150000D01*
G01*
X110028000Y-118047000D01*
G75*
G02*
X109878000Y-118197000I-150000J0D01*
G01*
X109578000Y-118197000D01*
G75*
G02*
X109428000Y-118047000I0J150000D01*
G01*
X109428000Y-116297000D01*
G75*
G02*
X109578000Y-116147000I150000J0D01*
G01*
G37*
%TD.AperFunction*%
%TO.P,YMF288,17*%
%TO.N,CS_Chip*%
%TA.AperFunction,SMDPad,CuDef*%
G36*
G01*
X107038000Y-116147000D02*
X107338000Y-116147000D01*
G75*
G02*
X107488000Y-116297000I0J-150000D01*
G01*
X107488000Y-118047000D01*
G75*
G02*
X107338000Y-118197000I-150000J0D01*
G01*
X107038000Y-118197000D01*
G75*
G02*
X106888000Y-118047000I0J150000D01*
G01*
X106888000Y-116297000D01*
G75*
G02*
X107038000Y-116147000I150000J0D01*
G01*
G37*
%TD.AperFunction*%
%TO.P,YMF288,25*%
%TO.N,N/C*%
%TA.AperFunction,SMDPad,CuDef*%
G36*
G01*
X96878000Y-116147000D02*
X97178000Y-116147000D01*
G75*
G02*
X97328000Y-116297000I0J-150000D01*
G01*
X97328000Y-118047000D01*
G75*
G02*
X97178000Y-118197000I-150000J0D01*
G01*
X96878000Y-118197000D01*
G75*
G02*
X96728000Y-118047000I0J150000D01*
G01*
X96728000Y-116297000D01*
G75*
G02*
X96878000Y-116147000I150000J0D01*
G01*
G37*
%TD.AperFunction*%
%TO.P,YMF288,26*%
%TO.N,Net-(BU9480F1-Pad5)*%
%TA.AperFunction,SMDPad,CuDef*%
G36*
G01*
X95608000Y-116147000D02*
X95908000Y-116147000D01*
G75*
G02*
X96058000Y-116297000I0J-150000D01*
G01*
X96058000Y-118047000D01*
G75*
G02*
X95908000Y-118197000I-150000J0D01*
G01*
X95608000Y-118197000D01*
G75*
G02*
X95458000Y-118047000I0J150000D01*
G01*
X95458000Y-116297000D01*
G75*
G02*
X95608000Y-116147000I150000J0D01*
G01*
G37*
%TD.AperFunction*%
%TO.P,YMF288,27*%
%TO.N,+5V*%
%TA.AperFunction,SMDPad,CuDef*%
G36*
G01*
X94338000Y-116147000D02*
X94638000Y-116147000D01*
G75*
G02*
X94788000Y-116297000I0J-150000D01*
G01*
X94788000Y-118047000D01*
G75*
G02*
X94638000Y-118197000I-150000J0D01*
G01*
X94338000Y-118197000D01*
G75*
G02*
X94188000Y-118047000I0J150000D01*
G01*
X94188000Y-116297000D01*
G75*
G02*
X94338000Y-116147000I150000J0D01*
G01*
G37*
%TD.AperFunction*%
%TD*%
D12*
%TO.P,X1,1*%
%TO.N,N/C*%
X93943000Y-127568000D03*
%TO.P,X1,2*%
%TO.N,GND*%
X88683000Y-127568000D03*
%TO.P,X1,3*%
%TO.N,Net-(X1-Pad3)*%
X88683000Y-122368000D03*
%TO.P,X1,4*%
%TO.N,+5V*%
X93943000Y-122368000D03*
%TD*%
%TO.P,R14,1*%
%TO.N,Net-(C5-Pad2)*%
%TA.AperFunction,SMDPad,CuDef*%
G36*
G01*
X118694000Y-120580999D02*
X118694000Y-121481001D01*
G75*
G02*
X118444001Y-121731000I-249999J0D01*
G01*
X117743999Y-121731000D01*
G75*
G02*
X117494000Y-121481001I0J249999D01*
G01*
X117494000Y-120580999D01*
G75*
G02*
X117743999Y-120331000I249999J0D01*
G01*
X118444001Y-120331000D01*
G75*
G02*
X118694000Y-120580999I0J-249999D01*
G01*
G37*
%TD.AperFunction*%
%TO.P,R14,2*%
%TO.N,Net-(R14-Pad2)*%
%TA.AperFunction,SMDPad,CuDef*%
G36*
G01*
X116694000Y-120580999D02*
X116694000Y-121481001D01*
G75*
G02*
X116444001Y-121731000I-249999J0D01*
G01*
X115743999Y-121731000D01*
G75*
G02*
X115494000Y-121481001I0J249999D01*
G01*
X115494000Y-120580999D01*
G75*
G02*
X115743999Y-120331000I249999J0D01*
G01*
X116444001Y-120331000D01*
G75*
G02*
X116694000Y-120580999I0J-249999D01*
G01*
G37*
%TD.AperFunction*%
%TD*%
%TO.P,R13,1*%
%TO.N,Net-(C4-Pad2)*%
%TA.AperFunction,SMDPad,CuDef*%
G36*
G01*
X107118999Y-127289000D02*
X108019001Y-127289000D01*
G75*
G02*
X108269000Y-127538999I0J-249999D01*
G01*
X108269000Y-128239001D01*
G75*
G02*
X108019001Y-128489000I-249999J0D01*
G01*
X107118999Y-128489000D01*
G75*
G02*
X106869000Y-128239001I0J249999D01*
G01*
X106869000Y-127538999D01*
G75*
G02*
X107118999Y-127289000I249999J0D01*
G01*
G37*
%TD.AperFunction*%
%TO.P,R13,2*%
%TO.N,4016_EN*%
%TA.AperFunction,SMDPad,CuDef*%
G36*
G01*
X107118999Y-129289000D02*
X108019001Y-129289000D01*
G75*
G02*
X108269000Y-129538999I0J-249999D01*
G01*
X108269000Y-130239001D01*
G75*
G02*
X108019001Y-130489000I-249999J0D01*
G01*
X107118999Y-130489000D01*
G75*
G02*
X106869000Y-130239001I0J249999D01*
G01*
X106869000Y-129538999D01*
G75*
G02*
X107118999Y-129289000I249999J0D01*
G01*
G37*
%TD.AperFunction*%
%TD*%
%TO.P,R12,1*%
%TO.N,Net-(C3-Pad2)*%
%TA.AperFunction,SMDPad,CuDef*%
G36*
G01*
X104578999Y-127289000D02*
X105479001Y-127289000D01*
G75*
G02*
X105729000Y-127538999I0J-249999D01*
G01*
X105729000Y-128239001D01*
G75*
G02*
X105479001Y-128489000I-249999J0D01*
G01*
X104578999Y-128489000D01*
G75*
G02*
X104329000Y-128239001I0J249999D01*
G01*
X104329000Y-127538999D01*
G75*
G02*
X104578999Y-127289000I249999J0D01*
G01*
G37*
%TD.AperFunction*%
%TO.P,R12,2*%
%TO.N,4016_EN*%
%TA.AperFunction,SMDPad,CuDef*%
G36*
G01*
X104578999Y-129289000D02*
X105479001Y-129289000D01*
G75*
G02*
X105729000Y-129538999I0J-249999D01*
G01*
X105729000Y-130239001D01*
G75*
G02*
X105479001Y-130489000I-249999J0D01*
G01*
X104578999Y-130489000D01*
G75*
G02*
X104329000Y-130239001I0J249999D01*
G01*
X104329000Y-129538999D01*
G75*
G02*
X104578999Y-129289000I249999J0D01*
G01*
G37*
%TD.AperFunction*%
%TD*%
D13*
%TO.P,J1,2*%
%TO.N,OUT1*%
X96012000Y-44069000D03*
D14*
%TO.P,J1,1*%
%TO.N,GND*%
X96012000Y-41529000D03*
%TD*%
D15*
%TO.N,+5V*%
X84074000Y-81915000D03*
X113016100Y-94596700D03*
X110657600Y-117569300D03*
X94939500Y-68663200D03*
X106558900Y-105138600D03*
X106425200Y-114368600D03*
X90605600Y-64745500D03*
X115443000Y-45720000D03*
X90678000Y-45720000D03*
X95504000Y-81915000D03*
%TO.N,GND*%
X94859600Y-94725800D03*
X104040100Y-99725500D03*
X107822800Y-118639800D03*
X93220000Y-104882600D03*
X107047200Y-65184200D03*
X107347300Y-58250200D03*
%TO.N,D6*%
X121168100Y-61574200D03*
X108067300Y-64872000D03*
X114748400Y-59905900D03*
%TO.N,D4*%
X119996100Y-62674600D03*
X106300900Y-67000900D03*
X95503300Y-64882800D03*
%TO.N,D3*%
X95525700Y-63817500D03*
X115329300Y-65023100D03*
X90503828Y-70678272D03*
X82169000Y-68834000D03*
%TO.N,D2*%
X115312400Y-72303100D03*
X96565500Y-65873400D03*
X92729814Y-75216786D03*
X80645000Y-71882000D03*
X93889990Y-70515500D03*
%TO.N,D1*%
X115866600Y-74977100D03*
X90329021Y-76823549D03*
X79248000Y-74676000D03*
%TO.N,D0*%
X120032300Y-77025400D03*
X78359000Y-77216000D03*
X92980097Y-78307031D03*
%TO.N,OUT1*%
X98776800Y-70569500D03*
X95962300Y-58372700D03*
%TO.N,A0_buf*%
X104630500Y-95704200D03*
X100375200Y-94416900D03*
X97290800Y-68987700D03*
X96577800Y-62324300D03*
%TO.N,D3_buf*%
X89655491Y-70077440D03*
X89662000Y-60071000D03*
%TO.N,D2_buf*%
X84602100Y-59732000D03*
X88910563Y-69332512D03*
%TO.N,D1_buf*%
X84789800Y-62108400D03*
X87184213Y-69267893D03*
%TO.N,D6_buf*%
X100702900Y-63276000D03*
X96655100Y-60129200D03*
%TO.N,D7_Chip*%
X106482600Y-61108000D03*
X102356700Y-95091800D03*
X102736800Y-104065300D03*
X97295751Y-71275887D03*
%TO.N,D5_Chip*%
X103127200Y-59948700D03*
X101478900Y-69639300D03*
X100426100Y-95417300D03*
X100426100Y-98276700D03*
%TO.N,D4_Chip*%
X102520400Y-63776900D03*
X93889990Y-71515900D03*
%TO.N,D3_Chip*%
X89496300Y-94974400D03*
X96746500Y-104745400D03*
%TO.N,OUT1_*%
X101409800Y-68045700D03*
X97400400Y-59113400D03*
%TO.N,A13*%
X110622000Y-52689500D03*
%TO.N,CS_Chip*%
X108242400Y-91322900D03*
X108242400Y-115411900D03*
%TO.N,A0_Chip*%
X105360100Y-99596500D03*
X105092400Y-114368600D03*
%TO.N,A1_Chip*%
X107454300Y-100924500D03*
X107321000Y-113776500D03*
%TO.N,CS_buf*%
X109591200Y-114368600D03*
X109591200Y-91313000D03*
%TO.N,Aud*%
X115306000Y-82371800D03*
X78613000Y-82550000D03*
%TO.N,A14*%
X115382800Y-55154800D03*
%TO.N,ROMSEL*%
X120691200Y-77788500D03*
X78363660Y-78961190D03*
%TO.N,AudIn*%
X78486002Y-83947000D03*
%TO.N,4016_EN*%
X114265800Y-114187100D03*
X112346400Y-105413900D03*
%TO.N,Net-(R14-Pad2)*%
X119299200Y-120979800D03*
X118048500Y-127294300D03*
%TO.N,FF_Reset*%
X108593500Y-119365200D03*
X86650100Y-95680500D03*
%TO.N,IRQ*%
X110540400Y-81568800D03*
X111067600Y-91252700D03*
X109876600Y-115374300D03*
%TO.N,A6*%
X116002100Y-59612700D03*
X77238200Y-60742990D03*
%TO.N,A7*%
X83214400Y-57363100D03*
X108417500Y-57594600D03*
%TO.N,A8*%
X113701800Y-54618500D03*
X77791100Y-55879300D03*
%TO.N,A10*%
X77709900Y-50043400D03*
X115130600Y-49792900D03*
%TO.N,A11*%
X78130000Y-47758000D03*
X115826000Y-47677000D03*
%TO.N,PPU_A8*%
X90170000Y-108585000D03*
X83312000Y-101727000D03*
%TO.N,PPU_A7*%
X120180800Y-90617500D03*
X78105000Y-93218000D03*
%TO.N,PPU_A13_*%
X115881100Y-89922000D03*
X80772000Y-93065032D03*
%TO.N,CIRAM_CE*%
X115431200Y-87120400D03*
X79756002Y-87630000D03*
%TO.N,PPU_WR*%
X115300900Y-85637900D03*
X78867004Y-85852000D03*
%TO.N,A12*%
X115070700Y-50800000D03*
%TO.N,Addr_A1*%
X108244700Y-62874000D03*
%TO.N,Addr_A13*%
X115033500Y-63614200D03*
X115822900Y-93015000D03*
X111437400Y-95373800D03*
%TO.N,Addr_A14*%
X107773500Y-69415300D03*
%TO.N,Addr_ROMSEL*%
X110289100Y-69611300D03*
%TO.N,Addr_R-W*%
X110056400Y-72133100D03*
%TO.N,A9*%
X80634100Y-53287400D03*
X115216094Y-53340006D03*
%TO.N,Net-(J4-Pad16)*%
X121031000Y-84074000D03*
%TO.N,Net-(C9-Pad2)*%
X87884000Y-80427990D03*
X83566000Y-80411210D03*
%TD*%
D16*
%TO.N,Net-(C1-Pad2)*%
X105918000Y-106602000D02*
X105918000Y-107033600D01*
X105918000Y-107033600D02*
X106843800Y-107959400D01*
X106843800Y-107959400D02*
X107578200Y-107959400D01*
X107578200Y-107959400D02*
X107823000Y-107714600D01*
X107823000Y-107714600D02*
X107823000Y-103250500D01*
X107823000Y-103250500D02*
X107442500Y-102870000D01*
X107442500Y-102870000D02*
X104997000Y-102870000D01*
X104997000Y-102870000D02*
X104870000Y-102743000D01*
D17*
%TO.N,+5V*%
X108623800Y-68292700D02*
X102859400Y-68292700D01*
X102859400Y-68292700D02*
X101762100Y-67195400D01*
X101762100Y-67195400D02*
X101057600Y-67195400D01*
X101057600Y-67195400D02*
X100943000Y-67310000D01*
X100943000Y-67310000D02*
X98868000Y-67310000D01*
X113016100Y-94596700D02*
X113016100Y-93296900D01*
X113016100Y-93296900D02*
X113411000Y-92902000D01*
X95646000Y-69369700D02*
X94939500Y-68663200D01*
X98868000Y-67310000D02*
X97705700Y-67310000D01*
X97705700Y-67310000D02*
X95646000Y-69369700D01*
X95646000Y-69369700D02*
X95503500Y-69512200D01*
X95503500Y-69512200D02*
X95503500Y-86708000D01*
X95503500Y-86708000D02*
X95631000Y-86835500D01*
X95631000Y-86835500D02*
X95631000Y-92394000D01*
X102870000Y-102743000D02*
X102870000Y-98843700D01*
X102870000Y-98843700D02*
X100397900Y-96371600D01*
X100397900Y-96371600D02*
X99608600Y-96371600D01*
X99608600Y-96371600D02*
X95631000Y-92394000D01*
X106558900Y-105138600D02*
X106178200Y-104757900D01*
X106178200Y-104757900D02*
X104884900Y-104757900D01*
X104884900Y-104757900D02*
X102870000Y-102743000D01*
X93943000Y-121567900D02*
X91192500Y-124318400D01*
X91192500Y-124318400D02*
X87502800Y-124318400D01*
X87502800Y-124318400D02*
X84963000Y-121778600D01*
X84963000Y-121778600D02*
X84963000Y-117138000D01*
X93943000Y-121567900D02*
X93943000Y-120417700D01*
X93943000Y-122368000D02*
X93943000Y-121567900D01*
X94488000Y-118676900D02*
X99939800Y-118676900D01*
X99939800Y-118676900D02*
X100838000Y-117778700D01*
X94488000Y-117172000D02*
X94488000Y-118676900D01*
X93943000Y-120417700D02*
X94488000Y-119872700D01*
X94488000Y-119872700D02*
X94488000Y-118676900D01*
X119507000Y-124017000D02*
X119507000Y-123447000D01*
X119507000Y-123447000D02*
X118446700Y-122386700D01*
X118446700Y-122386700D02*
X115612100Y-122386700D01*
X115612100Y-122386700D02*
X114693500Y-121468100D01*
X114693500Y-121468100D02*
X114693500Y-120549600D01*
X114693500Y-120549600D02*
X111713200Y-117569300D01*
X111713200Y-117569300D02*
X110657600Y-117569300D01*
X100838000Y-117778700D02*
X101714400Y-118655100D01*
X101714400Y-118655100D02*
X103833700Y-118655100D01*
X103833700Y-118655100D02*
X104648000Y-117840800D01*
X104648000Y-117840800D02*
X104648000Y-117172000D01*
X107188000Y-106602000D02*
X107188000Y-105767700D01*
X107188000Y-105767700D02*
X106558900Y-105138600D01*
X104648000Y-117172000D02*
X104648000Y-115897100D01*
X104648000Y-115897100D02*
X105326200Y-115218900D01*
X105326200Y-115218900D02*
X105574900Y-115218900D01*
X105574900Y-115218900D02*
X106425200Y-114368600D01*
X100838000Y-117778700D02*
X100838000Y-117172000D01*
X90605600Y-64745500D02*
X87843500Y-64745500D01*
X87843500Y-64745500D02*
X87819000Y-64770000D01*
X87819000Y-64770000D02*
X87234400Y-64770000D01*
X87234400Y-64770000D02*
X86392800Y-65611600D01*
X86392800Y-65611600D02*
X86392800Y-66469400D01*
X86392800Y-66469400D02*
X87233400Y-67310000D01*
X87233400Y-67310000D02*
X87819000Y-67310000D01*
X109663000Y-67310000D02*
X108680300Y-68292700D01*
X108680300Y-68292700D02*
X108623800Y-68292700D01*
X107950000Y-72709000D02*
X107950000Y-70441400D01*
X107950000Y-70441400D02*
X108623800Y-69767600D01*
X108623800Y-69767600D02*
X108623800Y-68292700D01*
D18*
X71628000Y-45720000D02*
X90678000Y-45720000D01*
X115443000Y-45720000D02*
X128270000Y-45720000D01*
X90678000Y-45720000D02*
X115443000Y-45720000D01*
D17*
X84982011Y-81862011D02*
X84582000Y-81462000D01*
X84582000Y-81462000D02*
X84582000Y-80432000D01*
X86626012Y-81862012D02*
X84982011Y-81862011D01*
X87630000Y-82866000D02*
X86626012Y-81862012D01*
X87630000Y-83566000D02*
X87630000Y-82866000D01*
X84527000Y-81462000D02*
X84582000Y-81462000D01*
X84074000Y-81915000D02*
X84527000Y-81462000D01*
%TO.N,GND*%
X94859600Y-94725800D02*
X94361000Y-94227200D01*
X94361000Y-94227200D02*
X94361000Y-92394000D01*
X107893700Y-124713500D02*
X107569000Y-124713500D01*
X111887000Y-128967000D02*
X111887000Y-128706800D01*
X111887000Y-128706800D02*
X107893700Y-124713500D01*
X107893700Y-124713500D02*
X109039300Y-123567900D01*
X109039300Y-123567900D02*
X109039300Y-121031000D01*
X109039300Y-121031000D02*
X111648500Y-121031000D01*
X107708200Y-118696100D02*
X107708200Y-119699900D01*
X107708200Y-119699900D02*
X109039300Y-121031000D01*
X107708200Y-118696100D02*
X107766500Y-118696100D01*
X107766500Y-118696100D02*
X107822800Y-118639800D01*
X105918000Y-117172000D02*
X105918000Y-117779800D01*
X105918000Y-117779800D02*
X106834300Y-118696100D01*
X106834300Y-118696100D02*
X107708200Y-118696100D01*
X107328500Y-76465300D02*
X107950000Y-77086900D01*
X107950000Y-77086900D02*
X107950000Y-77659000D01*
X99060000Y-77659000D02*
X99060000Y-77035000D01*
X99060000Y-77035000D02*
X99905800Y-76189200D01*
X99905800Y-76189200D02*
X107052300Y-76189200D01*
X107052300Y-76189200D02*
X107328500Y-76465300D01*
X109663000Y-66040000D02*
X110246400Y-66040000D01*
X110246400Y-66040000D02*
X111142700Y-66936300D01*
X111142700Y-66936300D02*
X111142700Y-72651100D01*
X111142700Y-72651100D02*
X107328500Y-76465300D01*
X108697500Y-102870000D02*
X109728000Y-103900500D01*
X109728000Y-103900500D02*
X109728000Y-106602000D01*
X104509800Y-99725500D02*
X104509800Y-99948700D01*
X104509800Y-99948700D02*
X106335900Y-101774800D01*
X106335900Y-101774800D02*
X107934400Y-101774800D01*
X107934400Y-101774800D02*
X108697500Y-102537900D01*
X108697500Y-102537900D02*
X108697500Y-102870000D01*
X112141000Y-92902000D02*
X112141000Y-93498300D01*
X112141000Y-93498300D02*
X111289400Y-94349900D01*
X111289400Y-94349900D02*
X104746300Y-94349900D01*
X104746300Y-94349900D02*
X103737300Y-95358900D01*
X103737300Y-95358900D02*
X103737300Y-97068300D01*
X103737300Y-97068300D02*
X104521000Y-97852000D01*
X107950000Y-77659000D02*
X112141000Y-81850000D01*
X112141000Y-81850000D02*
X112141000Y-92902000D01*
X104521000Y-97852000D02*
X104509800Y-97863200D01*
X104509800Y-97863200D02*
X104509800Y-99725500D01*
X104509800Y-99725500D02*
X104040100Y-99725500D01*
X107822800Y-118639800D02*
X108458000Y-118004600D01*
X108458000Y-118004600D02*
X108458000Y-117172000D01*
X104713000Y-58420000D02*
X103815400Y-57522400D01*
X103815400Y-57522400D02*
X95610100Y-57522400D01*
X95610100Y-57522400D02*
X94712500Y-58420000D01*
X94712500Y-58420000D02*
X93918000Y-58420000D01*
X93220000Y-104882600D02*
X93220000Y-101388000D01*
X93220000Y-101388000D02*
X93262000Y-101346000D01*
X93218000Y-106602000D02*
X93218000Y-104884600D01*
X93218000Y-104884600D02*
X93220000Y-104882600D01*
X105029000Y-124713500D02*
X107569000Y-124713500D01*
X107047200Y-65184200D02*
X107903000Y-66040000D01*
X107903000Y-66040000D02*
X109663000Y-66040000D01*
X82869000Y-58420000D02*
X83360100Y-58420000D01*
X83360100Y-58420000D02*
X84112900Y-57667200D01*
X84112900Y-57667200D02*
X93165200Y-57667200D01*
X93165200Y-57667200D02*
X93918000Y-58420000D01*
X93218000Y-106602000D02*
X90459900Y-106602000D01*
X90459900Y-106602000D02*
X87503000Y-109558900D01*
X87503000Y-109558900D02*
X87503000Y-109938000D01*
X88683000Y-125617700D02*
X97333800Y-125617700D01*
X97333800Y-125617700D02*
X100019900Y-122931600D01*
X100019900Y-122931600D02*
X103247100Y-122931600D01*
X103247100Y-122931600D02*
X105029000Y-124713500D01*
X93262000Y-101346000D02*
X91676700Y-99760700D01*
X91676700Y-99760700D02*
X88532300Y-99760700D01*
X88532300Y-99760700D02*
X86741000Y-97969400D01*
X86741000Y-97969400D02*
X86741000Y-97344000D01*
X104713000Y-58420000D02*
X107177500Y-58420000D01*
X107177500Y-58420000D02*
X107347300Y-58250200D01*
X88683000Y-127568000D02*
X88683000Y-125617700D01*
X87167001Y-79212001D02*
X85796999Y-79212001D01*
X87257001Y-79122001D02*
X87167001Y-79212001D01*
X87257001Y-75939001D02*
X87257001Y-79122001D01*
X86614000Y-75296000D02*
X87257001Y-75939001D01*
X85532000Y-78947002D02*
X85532000Y-78232000D01*
X85796999Y-79212001D02*
X85532000Y-78947002D01*
X87630000Y-86487000D02*
X85471000Y-88646000D01*
X87630000Y-86233000D02*
X87630000Y-86487000D01*
X84640961Y-95243961D02*
X86741000Y-97344000D01*
X84640961Y-90761266D02*
X84640961Y-95243961D01*
X85471000Y-89931227D02*
X84640961Y-90761266D01*
X85471000Y-88646000D02*
X85471000Y-89931227D01*
X88122192Y-79212001D02*
X85796999Y-79212001D01*
X88793191Y-79883000D02*
X88122192Y-79212001D01*
X88793191Y-82302813D02*
X88793191Y-79883000D01*
X89130020Y-82639642D02*
X88793191Y-82302813D01*
X89130020Y-84732980D02*
X89130020Y-82639642D01*
X87630000Y-86233000D02*
X89130020Y-84732980D01*
D16*
%TO.N,D7*%
X111514300Y-60631200D02*
X111514300Y-58584300D01*
X111514300Y-58584300D02*
X110024500Y-57094500D01*
X110024500Y-57094500D02*
X109194300Y-57094500D01*
X109194300Y-57094500D02*
X108596600Y-56496800D01*
X108596600Y-56496800D02*
X95185100Y-56496800D01*
X95185100Y-56496800D02*
X95133500Y-56548400D01*
X95133500Y-56548400D02*
X82954100Y-56548400D01*
X82954100Y-56548400D02*
X81555800Y-57946700D01*
X81555800Y-57946700D02*
X81555800Y-60090900D01*
X81555800Y-60090900D02*
X81789900Y-60325000D01*
X81789900Y-60325000D02*
X84079600Y-60325000D01*
X84079600Y-60325000D02*
X84217000Y-60462400D01*
X84217000Y-60462400D02*
X87321400Y-60462400D01*
X87321400Y-60462400D02*
X87819000Y-60960000D01*
X109663000Y-60960000D02*
X111185500Y-60960000D01*
X111185500Y-60960000D02*
X111514300Y-60631200D01*
X111514300Y-60631200D02*
X116066000Y-60631200D01*
X116066000Y-60631200D02*
X116789500Y-59907700D01*
X116789500Y-59907700D02*
X116789500Y-59276200D01*
X109663000Y-60960000D02*
X107825100Y-60960000D01*
X107825100Y-60960000D02*
X106951800Y-61833300D01*
X106951800Y-61833300D02*
X106182200Y-61833300D01*
X106182200Y-61833300D02*
X105934800Y-61585900D01*
X105934800Y-61585900D02*
X99493900Y-61585900D01*
X99493900Y-61585900D02*
X98868000Y-60960000D01*
X128270000Y-58420000D02*
X122944700Y-58420000D01*
X116789500Y-59276200D02*
X122088500Y-59276200D01*
X122088500Y-59276200D02*
X122944700Y-58420000D01*
X80175800Y-55197500D02*
X76953300Y-58420000D01*
X94573700Y-55197500D02*
X80175800Y-55197500D01*
X94625300Y-55145900D02*
X94573700Y-55197500D01*
X109381400Y-55145900D02*
X94625300Y-55145900D01*
X109593700Y-55358200D02*
X109381400Y-55145900D01*
X112871500Y-55358200D02*
X109593700Y-55358200D01*
X76953300Y-58420000D02*
X71628000Y-58420000D01*
X116789500Y-59276200D02*
X112871500Y-55358200D01*
%TO.N,D6*%
X81105500Y-60509700D02*
X81555800Y-60960000D01*
X81555800Y-60960000D02*
X82869000Y-60960000D01*
X114748400Y-59905900D02*
X111339300Y-56496800D01*
X111339300Y-56496800D02*
X109458500Y-56496800D01*
X109458500Y-56496800D02*
X109008200Y-56046500D01*
X109008200Y-56046500D02*
X94998500Y-56046500D01*
X94998500Y-56046500D02*
X94946900Y-56098100D01*
X94946900Y-56098100D02*
X82767500Y-56098100D01*
X82767500Y-56098100D02*
X81105500Y-57760100D01*
X81105500Y-57760100D02*
X81105500Y-60509700D01*
X128270000Y-60960000D02*
X122944700Y-60960000D01*
X121168100Y-61574200D02*
X122330500Y-61574200D01*
X122330500Y-61574200D02*
X122944700Y-60960000D01*
X108067300Y-64872000D02*
X109561000Y-64872000D01*
X109561000Y-64872000D02*
X109663000Y-64770000D01*
X84888300Y-60960000D02*
X82869000Y-60960000D01*
X85532300Y-61604000D02*
X84888300Y-60960000D01*
X88959800Y-61604000D02*
X85532300Y-61604000D01*
X89000693Y-61644893D02*
X88959800Y-61604000D01*
X90003493Y-61644893D02*
X89000693Y-61644893D01*
X90688386Y-60960000D02*
X90003493Y-61644893D01*
X93918000Y-60960000D02*
X90688386Y-60960000D01*
X80147200Y-61468000D02*
X81105500Y-60509700D01*
X71628000Y-60960000D02*
X72136000Y-61468000D01*
X72136000Y-61468000D02*
X80147200Y-61468000D01*
%TO.N,D5*%
X93918000Y-63500000D02*
X93283000Y-62865000D01*
X93283000Y-62865000D02*
X83504000Y-62865000D01*
X83504000Y-62865000D02*
X82869000Y-63500000D01*
X104713000Y-62273900D02*
X100679300Y-62273900D01*
X100679300Y-62273900D02*
X100088200Y-62865000D01*
X100088200Y-62865000D02*
X97336700Y-62865000D01*
X97336700Y-62865000D02*
X97109500Y-63092200D01*
X97109500Y-63092200D02*
X94325800Y-63092200D01*
X94325800Y-63092200D02*
X93918000Y-63500000D01*
X104713000Y-62273900D02*
X104756900Y-62317800D01*
X104756900Y-62317800D02*
X107412000Y-62317800D01*
X107412000Y-62317800D02*
X108134800Y-61595000D01*
X108134800Y-61595000D02*
X120163200Y-61595000D01*
X120163200Y-61595000D02*
X122068200Y-63500000D01*
X122068200Y-63500000D02*
X122944700Y-63500000D01*
X104713000Y-62230000D02*
X104713000Y-62273900D01*
X128270000Y-63500000D02*
X122944700Y-63500000D01*
X71628000Y-63500000D02*
X76953300Y-63500000D01*
X82869000Y-63500000D02*
X76953300Y-63500000D01*
%TO.N,D4*%
X93918000Y-64770000D02*
X93366900Y-64770000D01*
X93366900Y-64770000D02*
X92583800Y-63986900D01*
X92583800Y-63986900D02*
X89884200Y-63986900D01*
X89884200Y-63986900D02*
X89736100Y-64135000D01*
X89736100Y-64135000D02*
X83504000Y-64135000D01*
X83504000Y-64135000D02*
X82869000Y-64770000D01*
X95503300Y-64882800D02*
X95390500Y-64770000D01*
X95390500Y-64770000D02*
X93918000Y-64770000D01*
X122944700Y-66040000D02*
X122944700Y-65623200D01*
X122944700Y-65623200D02*
X119996100Y-62674600D01*
X71628000Y-66040000D02*
X76953300Y-66040000D01*
X82869000Y-64770000D02*
X78223300Y-64770000D01*
X78223300Y-64770000D02*
X76953300Y-66040000D01*
X128270000Y-66040000D02*
X122944700Y-66040000D01*
X104713000Y-66040000D02*
X105340000Y-66040000D01*
X105340000Y-66040000D02*
X106300900Y-67000900D01*
%TO.N,D3*%
X98868000Y-63500000D02*
X98735900Y-63632100D01*
X98735900Y-63632100D02*
X95711100Y-63632100D01*
X95711100Y-63632100D02*
X95525700Y-63817500D01*
X128270000Y-68580000D02*
X118886200Y-68580000D01*
X118886200Y-68580000D02*
X115329300Y-65023100D01*
X71628000Y-68580000D02*
X81915000Y-68580000D01*
X81915000Y-68580000D02*
X82169000Y-68834000D01*
X91954045Y-76102747D02*
X90954044Y-75102746D01*
X90954044Y-75102746D02*
X90954044Y-71128488D01*
X91954045Y-77544351D02*
X91954045Y-76102747D01*
X90954044Y-71128488D02*
X90503828Y-70678272D01*
X91805076Y-77693320D02*
X91954045Y-77544351D01*
X91805076Y-81319455D02*
X91805076Y-77693320D01*
X89281000Y-91419000D02*
X91494065Y-89205935D01*
X91494065Y-89205935D02*
X91494065Y-86576310D01*
X89281000Y-92394000D02*
X89281000Y-91419000D01*
X91955085Y-86115290D02*
X91955085Y-81469464D01*
X91494065Y-86576310D02*
X91955085Y-86115290D01*
X91955085Y-81469464D02*
X91805076Y-81319455D01*
%TO.N,D2*%
X98868000Y-64770000D02*
X97668900Y-64770000D01*
X97668900Y-64770000D02*
X96565500Y-65873400D01*
X128270000Y-71120000D02*
X122944700Y-71120000D01*
X115312400Y-72303100D02*
X121761600Y-72303100D01*
X121761600Y-72303100D02*
X122944700Y-71120000D01*
X93226500Y-75218100D02*
X92731128Y-75218100D01*
X92731128Y-75218100D02*
X92729814Y-75216786D01*
X79883000Y-71120000D02*
X80645000Y-71882000D01*
X71628000Y-71120000D02*
X79883000Y-71120000D01*
X93705099Y-86274509D02*
X93705099Y-75696699D01*
X93091000Y-86888608D02*
X93705099Y-86274509D01*
X93091000Y-92394000D02*
X93091000Y-86888608D01*
X93705099Y-75696699D02*
X93226500Y-75218100D01*
X93164989Y-75156589D02*
X93164989Y-70674816D01*
X93324305Y-70515500D02*
X93889990Y-70515500D01*
X93164989Y-70674816D02*
X93324305Y-70515500D01*
X93226500Y-75218100D02*
X93164989Y-75156589D01*
%TO.N,D1*%
X122944700Y-73660000D02*
X121627600Y-74977100D01*
X121627600Y-74977100D02*
X115866600Y-74977100D01*
X128270000Y-73660000D02*
X122944700Y-73660000D01*
X78232000Y-73660000D02*
X79248000Y-74676000D01*
X71628000Y-73660000D02*
X78232000Y-73660000D01*
X90551000Y-97344000D02*
X90551000Y-96369000D01*
X90551000Y-96369000D02*
X89881700Y-95699700D01*
X89195900Y-95699700D02*
X88151000Y-94654800D01*
X88151000Y-94654800D02*
X87333812Y-94654799D01*
X90144032Y-86017110D02*
X90605052Y-85556090D01*
X90605052Y-82028664D02*
X90455043Y-81878655D01*
X90455043Y-81878655D02*
X90455043Y-76949571D01*
X89881700Y-95699700D02*
X89195900Y-95699700D01*
X90605052Y-85556090D02*
X90605052Y-82028664D01*
X90455043Y-76949571D02*
X90329021Y-76823549D01*
X86115993Y-93436980D02*
X86115993Y-91372240D01*
X86115993Y-91372240D02*
X90144032Y-87344203D01*
X90144032Y-87344203D02*
X90144032Y-86017110D01*
X87333812Y-94654799D02*
X86115993Y-93436980D01*
%TO.N,D0*%
X122944700Y-76200000D02*
X122119300Y-77025400D01*
X122119300Y-77025400D02*
X120032300Y-77025400D01*
X128270000Y-76200000D02*
X122944700Y-76200000D01*
X77343000Y-76200000D02*
X78359000Y-77216000D01*
X71628000Y-76200000D02*
X77343000Y-76200000D01*
X94361000Y-96045800D02*
X92456000Y-94140800D01*
X92456000Y-86887197D02*
X92980097Y-86363100D01*
X92456000Y-94140800D02*
X92456000Y-86887197D01*
X92980097Y-86363100D02*
X92980097Y-78307031D01*
X94361000Y-97344000D02*
X94361000Y-96045800D01*
%TO.N,OUT1*%
X98868000Y-58420000D02*
X98820700Y-58372700D01*
X98820700Y-58372700D02*
X95962300Y-58372700D01*
X105410000Y-77659000D02*
X106680000Y-77659000D01*
X98527500Y-79493100D02*
X104550900Y-79493100D01*
X98776800Y-70569500D02*
X98776800Y-71345432D01*
X98434990Y-71687242D02*
X98434990Y-75945900D01*
X104550900Y-79493100D02*
X105410000Y-78634000D01*
X105410000Y-78634000D02*
X105410000Y-77659000D01*
X97963490Y-78929090D02*
X98527500Y-79493100D01*
X98776800Y-71345432D02*
X98434990Y-71687242D01*
X97963490Y-76417400D02*
X97963490Y-78929090D01*
X98434990Y-75945900D02*
X97963490Y-76417400D01*
%TO.N,A0_buf*%
X98868000Y-62230000D02*
X96672100Y-62230000D01*
X96672100Y-62230000D02*
X96577800Y-62324300D01*
X107061000Y-97852000D02*
X107061000Y-97401100D01*
X107061000Y-97401100D02*
X105364100Y-95704200D01*
X105364100Y-95704200D02*
X104630500Y-95704200D01*
X96206400Y-70655823D02*
X96206400Y-70072100D01*
X96120738Y-70741485D02*
X96206400Y-70655823D01*
X96206400Y-71895951D02*
X96120738Y-71810289D01*
X96206400Y-75628846D02*
X96206400Y-71895951D01*
X96266000Y-90307700D02*
X96266000Y-79776754D01*
X96163446Y-79674200D02*
X96163446Y-75671800D01*
X96120738Y-71810289D02*
X96120738Y-70741485D01*
X96163446Y-75671800D02*
X96206400Y-75628846D01*
X96206400Y-70072100D02*
X97290800Y-68987700D01*
X100375200Y-94416900D02*
X96266000Y-90307700D01*
X96266000Y-79776754D02*
X96163446Y-79674200D01*
%TO.N,A1_buf*%
X98868000Y-66040000D02*
X99503000Y-65405000D01*
X99503000Y-65405000D02*
X105727800Y-65405000D01*
X105727800Y-65405000D02*
X106997800Y-64135000D01*
X106997800Y-64135000D02*
X110699700Y-64135000D01*
X110699700Y-64135000D02*
X112716400Y-66151700D01*
X112716400Y-66151700D02*
X112716400Y-90157300D01*
X112716400Y-90157300D02*
X114085900Y-91526800D01*
X114085900Y-91526800D02*
X114085900Y-94585000D01*
X114085900Y-94585000D02*
X112284000Y-96386900D01*
X112284000Y-96386900D02*
X111899500Y-96386900D01*
X111899500Y-96386900D02*
X110871000Y-97415400D01*
X110871000Y-97415400D02*
X110871000Y-97852000D01*
%TO.N,D3_buf*%
X91505074Y-81655864D02*
X91355065Y-81505855D01*
X88011000Y-91419000D02*
X91044054Y-88385946D01*
X89655491Y-70855258D02*
X89655491Y-70077440D01*
X90504033Y-71703800D02*
X89655491Y-70855258D01*
X91044054Y-88385946D02*
X91044054Y-86389910D01*
X91505074Y-85928890D02*
X91505074Y-81655864D01*
X91355065Y-81505855D02*
X91355065Y-77506920D01*
X91044054Y-86389910D02*
X91505074Y-85928890D01*
X90504033Y-75289146D02*
X90504033Y-71703800D01*
X88011000Y-92394000D02*
X88011000Y-91419000D01*
X91504034Y-76289147D02*
X90504033Y-75289146D01*
X91504034Y-77357951D02*
X91504034Y-76289147D01*
X91355065Y-77506920D02*
X91504034Y-77357951D01*
X89281000Y-59690000D02*
X89662000Y-60071000D01*
X87819000Y-59690000D02*
X89281000Y-59690000D01*
%TO.N,D2_buf*%
X82869000Y-59690000D02*
X84560100Y-59690000D01*
X84560100Y-59690000D02*
X84602100Y-59732000D01*
X92405096Y-86301690D02*
X92405096Y-81283064D01*
X91944076Y-92270924D02*
X91944076Y-86762710D01*
X91944076Y-86762710D02*
X92405096Y-86301690D01*
X92404056Y-77730751D02*
X92404056Y-75916347D01*
X91821000Y-92394000D02*
X91944076Y-92270924D01*
X92255087Y-77879720D02*
X92404056Y-77730751D01*
X91954045Y-71055485D02*
X90231072Y-69332512D01*
X90231072Y-69332512D02*
X88910563Y-69332512D01*
X91954045Y-75466337D02*
X91954045Y-71055485D01*
X92405096Y-81283064D02*
X92255087Y-81133055D01*
X92404056Y-75916347D02*
X91954045Y-75466337D01*
X92255087Y-81133055D02*
X92255087Y-77879720D01*
%TO.N,D1_buf*%
X82869000Y-62230000D02*
X82990600Y-62108400D01*
X82990600Y-62108400D02*
X84789800Y-62108400D01*
X85665982Y-91185841D02*
X89694021Y-87157803D01*
X90155041Y-82215064D02*
X90005032Y-82065055D01*
X90005032Y-82065055D02*
X90005032Y-77548301D01*
X87184213Y-69833578D02*
X87184213Y-69267893D01*
X89694021Y-87157803D02*
X89694021Y-85830710D01*
X87147411Y-95104809D02*
X85665982Y-93623380D01*
X89281000Y-96523609D02*
X87862203Y-95104810D01*
X89694021Y-85830710D02*
X90155041Y-85369690D01*
X89604011Y-72253376D02*
X87184213Y-69833578D01*
X89281000Y-97344000D02*
X89281000Y-96523609D01*
X85665982Y-93623380D02*
X85665982Y-91185841D01*
X90155041Y-85369690D02*
X90155041Y-82215064D01*
X87862203Y-95104810D02*
X87147411Y-95104809D01*
X90005032Y-77548301D02*
X89604011Y-77147281D01*
X89604011Y-77147281D02*
X89604011Y-72253376D01*
%TO.N,D0_buf*%
X86768712Y-68542891D02*
X87532215Y-68542891D01*
X87532215Y-68542891D02*
X87909215Y-68919891D01*
X91055063Y-81842264D02*
X91055063Y-85742490D01*
X87385990Y-91372242D02*
X87385990Y-93423090D01*
X91054023Y-77167229D02*
X90905054Y-77316198D01*
X90905054Y-77316198D02*
X90905054Y-81692255D01*
X87909215Y-69745393D02*
X90054022Y-71890200D01*
X90594043Y-88164189D02*
X87385990Y-91372242D01*
X87385990Y-93423090D02*
X87717000Y-93754100D01*
X91054023Y-76475547D02*
X91054023Y-77167229D01*
X90054022Y-75475546D02*
X91054023Y-76475547D01*
X90905054Y-81692255D02*
X91055063Y-81842264D01*
X90054022Y-71890200D02*
X90054022Y-75475546D01*
X84265821Y-66040000D02*
X86768712Y-68542891D01*
X87909215Y-68919891D02*
X87909215Y-69745393D01*
X93091000Y-96369000D02*
X93091000Y-97344000D01*
X87717000Y-93754100D02*
X90476100Y-93754100D01*
X82869000Y-66040000D02*
X84265821Y-66040000D01*
X90594043Y-86203510D02*
X90594043Y-88164189D01*
X90476100Y-93754100D02*
X93091000Y-96369000D01*
X91055063Y-85742490D02*
X90594043Y-86203510D01*
%TO.N,D7_buf*%
X98868000Y-59690000D02*
X99496900Y-59061100D01*
X99496900Y-59061100D02*
X109034100Y-59061100D01*
X109034100Y-59061100D02*
X109663000Y-59690000D01*
%TO.N,D6_buf*%
X93918000Y-59690000D02*
X96215900Y-59690000D01*
X96215900Y-59690000D02*
X96655100Y-60129200D01*
X100702900Y-63276000D02*
X101113900Y-62865000D01*
X101113900Y-62865000D02*
X105759400Y-62865000D01*
X105759400Y-62865000D02*
X106579000Y-63684600D01*
X106579000Y-63684600D02*
X109478400Y-63684600D01*
X109478400Y-63684600D02*
X109663000Y-63500000D01*
%TO.N,D5_buf*%
X93918000Y-62230000D02*
X95623700Y-62230000D01*
X95623700Y-62230000D02*
X97537700Y-60316000D01*
X97537700Y-60316000D02*
X102289600Y-60316000D01*
X102289600Y-60316000D02*
X102933600Y-60960000D01*
X102933600Y-60960000D02*
X104713000Y-60960000D01*
%TO.N,D4_buf*%
X93918000Y-66040000D02*
X95371900Y-66040000D01*
X95371900Y-66040000D02*
X97276900Y-64135000D01*
X97276900Y-64135000D02*
X101634200Y-64135000D01*
X101634200Y-64135000D02*
X102269200Y-64770000D01*
X102269200Y-64770000D02*
X104713000Y-64770000D01*
%TO.N,D6_Chip*%
X109663000Y-62230000D02*
X110731700Y-62230000D01*
X110731700Y-62230000D02*
X114122600Y-65620900D01*
X114122600Y-65620900D02*
X114122600Y-89826100D01*
X114122600Y-89826100D02*
X115076100Y-90779600D01*
X115076100Y-90779600D02*
X115076100Y-103751700D01*
X115076100Y-103751700D02*
X109921100Y-108906700D01*
X109921100Y-108906700D02*
X103317500Y-108906700D01*
X103317500Y-108906700D02*
X102108000Y-107697200D01*
X102108000Y-107697200D02*
X102108000Y-106602000D01*
%TO.N,D7_Chip*%
X103378000Y-106602000D02*
X103378000Y-104706500D01*
X103378000Y-104706500D02*
X102736800Y-104065300D01*
X106482600Y-61108000D02*
X107265600Y-60325000D01*
X107265600Y-60325000D02*
X110691400Y-60325000D01*
X110691400Y-60325000D02*
X111019300Y-59997100D01*
X111019300Y-59997100D02*
X111019300Y-59370100D01*
X111019300Y-59370100D02*
X110069200Y-58420000D01*
X110069200Y-58420000D02*
X109663000Y-58420000D01*
X97295751Y-75812317D02*
X97295751Y-71275887D01*
X97063468Y-79301400D02*
X97063468Y-76044600D01*
X97166022Y-79403954D02*
X97063468Y-79301400D01*
X97166022Y-88586122D02*
X97166022Y-79403954D01*
X102356700Y-93776800D02*
X97166022Y-88586122D01*
X97063468Y-76044600D02*
X97295751Y-75812317D01*
X102356700Y-95091800D02*
X102356700Y-93776800D01*
%TO.N,D5_Chip*%
X100838000Y-106602000D02*
X100838000Y-98688600D01*
X100838000Y-98688600D02*
X100426100Y-98276700D01*
X104713000Y-59690000D02*
X104454300Y-59948700D01*
X104454300Y-59948700D02*
X103127200Y-59948700D01*
X101078901Y-69239301D02*
X101478900Y-69639300D01*
X96656411Y-71709551D02*
X96570749Y-71623889D01*
X96613457Y-75858200D02*
X96656411Y-75815246D01*
X96716011Y-79590354D02*
X96613457Y-79487800D01*
X96570749Y-71623889D02*
X96570749Y-70947338D01*
X96716011Y-88816311D02*
X96716011Y-79590354D01*
X101138200Y-93238500D02*
X96716011Y-88816311D01*
X101138200Y-94705200D02*
X101138200Y-93238500D01*
X100426100Y-95417300D02*
X101138200Y-94705200D01*
X96613457Y-79487800D02*
X96613457Y-75858200D01*
X96656411Y-75815246D02*
X96656411Y-71709551D01*
X96570749Y-70947338D02*
X98278786Y-69239301D01*
X98278786Y-69239301D02*
X101078901Y-69239301D01*
%TO.N,D4_Chip*%
X104713000Y-63500000D02*
X102797300Y-63500000D01*
X102797300Y-63500000D02*
X102520400Y-63776900D01*
X95005000Y-95930400D02*
X93726200Y-94651600D01*
X94164989Y-86451030D02*
X94164989Y-71790899D01*
X94164989Y-71790899D02*
X93889990Y-71515900D01*
X99568000Y-103139700D02*
X95005000Y-98576700D01*
X93726200Y-94651600D02*
X93726200Y-86889819D01*
X93726200Y-86889819D02*
X94164989Y-86451030D01*
X95005000Y-98576700D02*
X95005000Y-95930400D01*
X99568000Y-106602000D02*
X99568000Y-103139700D01*
%TO.N,D2_Chip*%
X90551000Y-92394000D02*
X90551000Y-93156700D01*
X90551000Y-93156700D02*
X93716900Y-96322600D01*
X93716900Y-96322600D02*
X93716900Y-98408400D01*
X93716900Y-98408400D02*
X94335600Y-99027100D01*
X94335600Y-99027100D02*
X94683200Y-99027100D01*
X94683200Y-99027100D02*
X96021200Y-100365100D01*
X96021200Y-100365100D02*
X96021200Y-105045800D01*
X96021200Y-105045800D02*
X97028000Y-106052600D01*
X97028000Y-106052600D02*
X97028000Y-106602000D01*
%TO.N,D3_Chip*%
X98298000Y-106602000D02*
X98298000Y-106166000D01*
X98298000Y-106166000D02*
X96877400Y-104745400D01*
X96877400Y-104745400D02*
X96746500Y-104745400D01*
X89496300Y-94974400D02*
X88726400Y-94204500D01*
X86741000Y-93425576D02*
X86741000Y-92394000D01*
X88726400Y-94204500D02*
X87519924Y-94204500D01*
X87519924Y-94204500D02*
X86741000Y-93425576D01*
%TO.N,D1_Chip*%
X95758000Y-106602000D02*
X95758000Y-107038400D01*
X95758000Y-107038400D02*
X94824400Y-107972000D01*
X94824400Y-107972000D02*
X94120700Y-107972000D01*
X94120700Y-107972000D02*
X93853000Y-107704300D01*
X93853000Y-107704300D02*
X93853000Y-105275400D01*
X93853000Y-105275400D02*
X93945300Y-105183100D01*
X93945300Y-105183100D02*
X93945300Y-104107800D01*
X93945300Y-104107800D02*
X94925400Y-103127700D01*
X94925400Y-103127700D02*
X94925400Y-100543100D01*
X94925400Y-100543100D02*
X94601900Y-100219600D01*
X94601900Y-100219600D02*
X93524000Y-100219600D01*
X93524000Y-100219600D02*
X92374100Y-99069700D01*
X92374100Y-99069700D02*
X89331100Y-99069700D01*
X89331100Y-99069700D02*
X88011000Y-97749600D01*
X88011000Y-97749600D02*
X88011000Y-97344000D01*
%TO.N,D0_Chip*%
X94488000Y-106602000D02*
X94488000Y-104577800D01*
X94488000Y-104577800D02*
X95376900Y-103688900D01*
X95376900Y-103688900D02*
X95376900Y-100357700D01*
X95376900Y-100357700D02*
X94496600Y-99477400D01*
X94496600Y-99477400D02*
X93542800Y-99477400D01*
X93542800Y-99477400D02*
X91821000Y-97755600D01*
X91821000Y-97755600D02*
X91821000Y-97344000D01*
%TO.N,OUT1_*%
X87819000Y-58420000D02*
X88445000Y-59046000D01*
X88445000Y-59046000D02*
X95410100Y-59046000D01*
X95410100Y-59046000D02*
X95477500Y-59113400D01*
X95477500Y-59113400D02*
X97400400Y-59113400D01*
X101409800Y-68045700D02*
X102235000Y-68870900D01*
X102235000Y-68870900D02*
X102235000Y-73785800D01*
X102235000Y-73785800D02*
X102010800Y-74010000D01*
X102010800Y-74010000D02*
X101007300Y-74010000D01*
X101007300Y-74010000D02*
X98413500Y-76603800D01*
X98413500Y-76603800D02*
X98413500Y-78742200D01*
X98413500Y-78742200D02*
X98672600Y-79001300D01*
X98672600Y-79001300D02*
X99424100Y-79001300D01*
X99424100Y-79001300D02*
X100330000Y-78095400D01*
X100330000Y-78095400D02*
X100330000Y-77659000D01*
%TO.N,Net-(BU9480F1-Pad4)*%
X88773000Y-109938000D02*
X88773000Y-110154300D01*
X88773000Y-110154300D02*
X87850500Y-111076800D01*
X87850500Y-111076800D02*
X87113600Y-111076800D01*
X87113600Y-111076800D02*
X86868000Y-110831200D01*
X86868000Y-110831200D02*
X86868000Y-108204000D01*
X86868000Y-108204000D02*
X88138000Y-106934000D01*
%TO.N,Net-(BU9480F1-Pad2)*%
X86233000Y-109938000D02*
X86233000Y-110738000D01*
X84616242Y-111063010D02*
X84337990Y-110784758D01*
X84311400Y-106570400D02*
X84947800Y-105934000D01*
X84311400Y-110215170D02*
X84311400Y-106570400D01*
X86233000Y-110738000D02*
X85907990Y-111063010D01*
X84947800Y-105934000D02*
X88810400Y-105934000D01*
X84337990Y-110784758D02*
X84337990Y-110241760D01*
X89662000Y-105082400D02*
X89662000Y-101346000D01*
X85907990Y-111063010D02*
X84616242Y-111063010D01*
X84337990Y-110241760D02*
X84311400Y-110215170D01*
X88810400Y-105934000D02*
X89662000Y-105082400D01*
%TO.N,Net-(BU9480F1-Pad1)*%
X84963000Y-109938000D02*
X84963000Y-107569000D01*
X84963000Y-107569000D02*
X85598000Y-106934000D01*
%TO.N,Net-(BU9480F1-Pad7)*%
X86233000Y-117138000D02*
X86233000Y-116915800D01*
X86233000Y-116915800D02*
X87893700Y-115255100D01*
X87893700Y-115255100D02*
X91475300Y-115255100D01*
X91475300Y-115255100D02*
X91836000Y-114894400D01*
X91836000Y-114894400D02*
X97804300Y-114894400D01*
X97804300Y-114894400D02*
X99568000Y-116658100D01*
X99568000Y-116658100D02*
X99568000Y-117172000D01*
%TO.N,Net-(BU9480F1-Pad6)*%
X87503000Y-117138000D02*
X87503000Y-116889400D01*
X87503000Y-116889400D02*
X88687000Y-115705400D01*
X88687000Y-115705400D02*
X91661900Y-115705400D01*
X91661900Y-115705400D02*
X92022600Y-115344700D01*
X92022600Y-115344700D02*
X96970800Y-115344700D01*
X96970800Y-115344700D02*
X98298000Y-116671900D01*
X98298000Y-116671900D02*
X98298000Y-117172000D01*
%TO.N,Net-(BU9480F1-Pad5)*%
X95758000Y-117172000D02*
X95758000Y-116665300D01*
X95758000Y-116665300D02*
X94887800Y-115795100D01*
X94887800Y-115795100D02*
X92679900Y-115795100D01*
X92679900Y-115795100D02*
X91337000Y-117138000D01*
X91337000Y-117138000D02*
X88773000Y-117138000D01*
%TO.N,A13*%
X110622000Y-52689500D02*
X110494600Y-52562100D01*
X110494600Y-52562100D02*
X77731200Y-52562100D01*
X77731200Y-52562100D02*
X76953300Y-53340000D01*
X71628000Y-53340000D02*
X76953300Y-53340000D01*
X121793000Y-53340000D02*
X128270000Y-53340000D01*
X111021999Y-52289501D02*
X120742501Y-52289501D01*
X120742501Y-52289501D02*
X121793000Y-53340000D01*
X110622000Y-52689500D02*
X111021999Y-52289501D01*
%TO.N,CS_*%
X98039022Y-71446799D02*
X97984979Y-71500842D01*
X110316500Y-92347500D02*
X110871000Y-92902000D01*
X101009300Y-81705300D02*
X110316500Y-91012500D01*
X99652100Y-69786100D02*
X98470700Y-69786100D01*
X97513479Y-79115979D02*
X100102800Y-81705300D01*
X100102800Y-81705300D02*
X101009300Y-81705300D01*
X97513479Y-76231000D02*
X97513479Y-79115979D01*
X97984979Y-75759500D02*
X97513479Y-76231000D01*
X97984979Y-71500842D02*
X97984979Y-75759500D01*
X98039022Y-70217778D02*
X98039022Y-71446799D01*
X101600000Y-71734000D02*
X99652100Y-69786100D01*
X98470700Y-69786100D02*
X98039022Y-70217778D01*
X110316500Y-91012500D02*
X110316500Y-92347500D01*
X101600000Y-72709000D02*
X101600000Y-71734000D01*
%TO.N,CS_Chip*%
X107188000Y-117172000D02*
X107188000Y-116466300D01*
X107188000Y-116466300D02*
X108242400Y-115411900D01*
X108331000Y-92902000D02*
X108242400Y-92813400D01*
X108242400Y-92813400D02*
X108242400Y-91322900D01*
%TO.N,A0_Chip*%
X103378000Y-117172000D02*
X103378000Y-116083000D01*
X103378000Y-116083000D02*
X105092400Y-114368600D01*
X105360100Y-99596500D02*
X105791000Y-99165600D01*
X105791000Y-99165600D02*
X105791000Y-97852000D01*
%TO.N,A1_Chip*%
X102108000Y-117172000D02*
X102108000Y-116299800D01*
X102108000Y-116299800D02*
X104764600Y-113643200D01*
X104764600Y-113643200D02*
X107187700Y-113643200D01*
X107187700Y-113643200D02*
X107321000Y-113776500D01*
X109601000Y-97852000D02*
X109601000Y-98777800D01*
X109601000Y-98777800D02*
X107454300Y-100924500D01*
%TO.N,CS_buf*%
X113157000Y-128967000D02*
X113157000Y-128433500D01*
X113157000Y-128433500D02*
X115041300Y-126549200D01*
X115041300Y-126549200D02*
X119282500Y-126549200D01*
X119282500Y-126549200D02*
X120590800Y-125240900D01*
X120590800Y-125240900D02*
X120590800Y-121236300D01*
X120590800Y-121236300D02*
X117232900Y-117878400D01*
X117232900Y-117878400D02*
X113825000Y-117878400D01*
X113825000Y-117878400D02*
X110315200Y-114368600D01*
X110315200Y-114368600D02*
X109591200Y-114368600D01*
X109601000Y-92902000D02*
X109591200Y-92892200D01*
X109591200Y-92892200D02*
X109591200Y-91313000D01*
%TO.N,Aud*%
X122944700Y-81280000D02*
X122150100Y-80485400D01*
X122150100Y-80485400D02*
X117192400Y-80485400D01*
X117192400Y-80485400D02*
X115306000Y-82371800D01*
X128270000Y-81280000D02*
X122944700Y-81280000D01*
X71628000Y-81280000D02*
X77343000Y-81280000D01*
X77343000Y-81280000D02*
X78613000Y-82550000D01*
%TO.N,A14*%
X76953300Y-55880000D02*
X76953300Y-55691400D01*
X76953300Y-55691400D02*
X78632000Y-54012700D01*
X78632000Y-54012700D02*
X110100000Y-54012700D01*
X110100000Y-54012700D02*
X110227300Y-53885400D01*
X110227300Y-53885400D02*
X114113400Y-53885400D01*
X114113400Y-53885400D02*
X115382800Y-55154800D01*
X71628000Y-55880000D02*
X76953300Y-55880000D01*
X122944700Y-55880000D02*
X122219500Y-55154800D01*
X122219500Y-55154800D02*
X115382800Y-55154800D01*
X128270000Y-55880000D02*
X122944700Y-55880000D01*
%TO.N,ROMSEL*%
X122944700Y-78740000D02*
X121993200Y-77788500D01*
X121993200Y-77788500D02*
X120691200Y-77788500D01*
X128270000Y-78740000D02*
X122944700Y-78740000D01*
X78142470Y-78740000D02*
X78363660Y-78961190D01*
X71628000Y-78740000D02*
X78142470Y-78740000D01*
%TO.N,Net-(X1-Pad3)*%
X88683000Y-122368000D02*
X88683000Y-120542700D01*
X88683000Y-120542700D02*
X89847300Y-120542700D01*
X89847300Y-120542700D02*
X93218000Y-117172000D01*
%TO.N,AudIn*%
X78359002Y-83820000D02*
X78486002Y-83947000D01*
X71628000Y-83820000D02*
X78359002Y-83820000D01*
X78867002Y-83566000D02*
X78486002Y-83947000D01*
X80677000Y-83566000D02*
X78867002Y-83566000D01*
%TO.N,Net-(U2-Pad10)*%
X114427000Y-124017000D02*
X113157000Y-124017000D01*
X115697000Y-124017000D02*
X114427000Y-124017000D01*
%TO.N,4016_EN*%
X104713000Y-67310000D02*
X102690400Y-67310000D01*
X102690400Y-67310000D02*
X102000500Y-66620100D01*
X102000500Y-66620100D02*
X100819200Y-66620100D01*
X100819200Y-66620100D02*
X100771200Y-66668100D01*
X100771200Y-66668100D02*
X95556800Y-66668100D01*
X95556800Y-66668100D02*
X95272400Y-66952500D01*
X112346400Y-105413900D02*
X112346400Y-105699700D01*
X112346400Y-105699700D02*
X109608100Y-108438000D01*
X109608100Y-108438000D02*
X103516100Y-108438000D01*
X103516100Y-108438000D02*
X102743000Y-107664900D01*
X102743000Y-107664900D02*
X102743000Y-105221400D01*
X102743000Y-105221400D02*
X101904700Y-104383100D01*
X101904700Y-104383100D02*
X101904700Y-98729500D01*
X101904700Y-98729500D02*
X100519200Y-97344000D01*
X100519200Y-97344000D02*
X95631000Y-97344000D01*
X87819000Y-66040000D02*
X88445000Y-66666000D01*
X88445000Y-66666000D02*
X94985900Y-66666000D01*
X94985900Y-66666000D02*
X95272400Y-66952500D01*
X112346400Y-105413900D02*
X113411000Y-104349300D01*
X113411000Y-104349300D02*
X113411000Y-97852000D01*
X107569000Y-129889000D02*
X108880700Y-131200700D01*
X108880700Y-131200700D02*
X118952100Y-131200700D01*
X118952100Y-131200700D02*
X121097700Y-129055100D01*
X121097700Y-129055100D02*
X121097700Y-121019000D01*
X121097700Y-121019000D02*
X114265800Y-114187100D01*
X107569000Y-129889000D02*
X105029000Y-129889000D01*
X95631000Y-94097400D02*
X95631000Y-97344000D01*
X94996000Y-93462400D02*
X95631000Y-94097400D01*
X94615000Y-70021200D02*
X94615000Y-88591600D01*
X94179900Y-69586100D02*
X94615000Y-70021200D01*
X95272400Y-67603100D02*
X94937700Y-67937800D01*
X95272400Y-66952500D02*
X95272400Y-67603100D01*
X94179900Y-68377700D02*
X94179900Y-69586100D01*
X94996000Y-88972600D02*
X94996000Y-93462400D01*
X94619800Y-67937800D02*
X94179900Y-68377700D01*
X94615000Y-88591600D02*
X94996000Y-88972600D01*
X94937700Y-67937800D02*
X94619800Y-67937800D01*
%TO.N,Net-(C5-Pad2)*%
X116967000Y-124017000D02*
X116967000Y-124399000D01*
X116967000Y-124399000D02*
X115998400Y-125367600D01*
X115998400Y-125367600D02*
X111558900Y-125367600D01*
X111558900Y-125367600D02*
X111250000Y-125058700D01*
X111250000Y-125058700D02*
X111250000Y-122987500D01*
X111250000Y-122987500D02*
X112903500Y-121334000D01*
X112903500Y-121334000D02*
X112903500Y-121031000D01*
X118237000Y-124017000D02*
X116967000Y-124017000D01*
X118094000Y-121031000D02*
X118203300Y-121031000D01*
X118203300Y-121031000D02*
X120133200Y-122960900D01*
X120133200Y-122960900D02*
X120133200Y-125045900D01*
X120133200Y-125045900D02*
X119826100Y-125353000D01*
X119826100Y-125353000D02*
X119135500Y-125353000D01*
X119135500Y-125353000D02*
X118237000Y-124454500D01*
X118237000Y-124454500D02*
X118237000Y-124017000D01*
%TO.N,Net-(C3-Pad2)*%
X105029000Y-127889000D02*
X105029000Y-125968500D01*
X115697000Y-128967000D02*
X115697000Y-130061900D01*
X115697000Y-130061900D02*
X115009500Y-130749400D01*
X115009500Y-130749400D02*
X110786800Y-130749400D01*
X110786800Y-130749400D02*
X108926400Y-128889000D01*
X108926400Y-128889000D02*
X106029000Y-128889000D01*
X106029000Y-128889000D02*
X105029000Y-127889000D01*
%TO.N,Net-(C4-Pad2)*%
X107569000Y-127889000D02*
X107569000Y-125968500D01*
X118237000Y-128967000D02*
X118237000Y-129404500D01*
X118237000Y-129404500D02*
X117368300Y-130273200D01*
X117368300Y-130273200D02*
X116585100Y-130273200D01*
X116585100Y-130273200D02*
X116332000Y-130020100D01*
X116332000Y-130020100D02*
X116332000Y-127928200D01*
X116332000Y-127928200D02*
X116056500Y-127652700D01*
X116056500Y-127652700D02*
X115296100Y-127652700D01*
X115296100Y-127652700D02*
X115062100Y-127886700D01*
X115062100Y-127886700D02*
X115062100Y-130039300D01*
X115062100Y-130039300D02*
X114833100Y-130268300D01*
X114833100Y-130268300D02*
X111235600Y-130268300D01*
X111235600Y-130268300D02*
X108856300Y-127889000D01*
X108856300Y-127889000D02*
X107569000Y-127889000D01*
X118237000Y-128967000D02*
X119507000Y-128967000D01*
%TO.N,Net-(R14-Pad2)*%
X116967000Y-127852700D02*
X116967000Y-128967000D01*
X114427000Y-128967000D02*
X114427000Y-127873300D01*
X114427000Y-127873300D02*
X115116100Y-127184200D01*
X115116100Y-127184200D02*
X116298500Y-127184200D01*
X116298500Y-127184200D02*
X116967000Y-127852700D01*
X118048500Y-127294300D02*
X117525400Y-127294300D01*
X117525400Y-127294300D02*
X116967000Y-127852700D01*
X116094000Y-121031000D02*
X117155100Y-119969900D01*
X117155100Y-119969900D02*
X118681600Y-119969900D01*
X118681600Y-119969900D02*
X119299200Y-120587500D01*
X119299200Y-120587500D02*
X119299200Y-120979800D01*
%TO.N,FF_Reset*%
X111887000Y-124017000D02*
X111887000Y-123476500D01*
X111887000Y-123476500D02*
X113655900Y-121707600D01*
X113655900Y-121707600D02*
X113655900Y-120325700D01*
X113655900Y-120325700D02*
X112695400Y-119365200D01*
X112695400Y-119365200D02*
X108593500Y-119365200D01*
X84267332Y-65405100D02*
X81810700Y-65405100D01*
X86797242Y-67935010D02*
X84267332Y-65405100D01*
X81545900Y-66961900D02*
X81894000Y-67310000D01*
X81894000Y-67310000D02*
X82869000Y-67310000D01*
X93292990Y-67935010D02*
X86797242Y-67935010D01*
X93918000Y-67310000D02*
X93292990Y-67935010D01*
X81810700Y-65405100D02*
X81545900Y-65669900D01*
X81545900Y-65669900D02*
X81545900Y-66961900D01*
X89244010Y-86971403D02*
X85215971Y-90999442D01*
X85215971Y-90999442D02*
X85215971Y-94246371D01*
X89555021Y-82251455D02*
X89705030Y-82401464D01*
X89154000Y-77333680D02*
X89555021Y-77734701D01*
X89244010Y-85644310D02*
X89244010Y-86971403D01*
X89154000Y-73595000D02*
X89154000Y-77333680D01*
X89555021Y-77734701D02*
X89555021Y-82251455D01*
X85215971Y-94246371D02*
X86650100Y-95680500D01*
X89705030Y-82401464D02*
X89705030Y-85183290D01*
X82869000Y-67310000D02*
X89154000Y-73595000D01*
X89705030Y-85183290D02*
X89244010Y-85644310D01*
%TO.N,IRQ*%
X109728000Y-117172000D02*
X109728000Y-115522900D01*
X109728000Y-115522900D02*
X109876600Y-115374300D01*
X111067600Y-91252700D02*
X111067600Y-82096000D01*
X111067600Y-82096000D02*
X110540400Y-81568800D01*
%TO.N,A6*%
X94811900Y-55596200D02*
X94760300Y-55647800D01*
X116002100Y-59612700D02*
X112435900Y-56046500D01*
X82333390Y-55647800D02*
X77238200Y-60742990D01*
X112435900Y-56046500D02*
X109645100Y-56046500D01*
X109645100Y-56046500D02*
X109194800Y-55596200D01*
X109194800Y-55596200D02*
X94811900Y-55596200D01*
X94760300Y-55647800D02*
X82333390Y-55647800D01*
%TO.N,A7*%
X108417500Y-57594600D02*
X107770000Y-56947100D01*
X107770000Y-56947100D02*
X95371700Y-56947100D01*
X95371700Y-56947100D02*
X95320000Y-56998800D01*
X95320000Y-56998800D02*
X83578700Y-56998800D01*
X83578700Y-56998800D02*
X83214400Y-57363100D01*
%TO.N,A8*%
X77791100Y-55879300D02*
X79051900Y-54618500D01*
X79051900Y-54618500D02*
X113701800Y-54618500D01*
%TO.N,A10*%
X77709900Y-50043400D02*
X114880100Y-50043400D01*
X114880100Y-50043400D02*
X115130600Y-49792900D01*
%TO.N,A11*%
X115826000Y-47677000D02*
X115745000Y-47758000D01*
X115745000Y-47758000D02*
X78130000Y-47758000D01*
%TO.N,PPU_D4*%
X71628000Y-119380000D02*
X81265400Y-119380000D01*
X81265400Y-119380000D02*
X86828600Y-124943200D01*
X86828600Y-124943200D02*
X97194600Y-124943200D01*
X97194600Y-124943200D02*
X102713100Y-119424700D01*
X102713100Y-119424700D02*
X104158700Y-119424700D01*
X104158700Y-119424700D02*
X105283000Y-118300400D01*
X105283000Y-118300400D02*
X105283000Y-116102500D01*
X105283000Y-116102500D02*
X105591300Y-115794200D01*
X105591300Y-115794200D02*
X106604200Y-115794200D01*
X106604200Y-115794200D02*
X108919500Y-113478900D01*
X108919500Y-113478900D02*
X112424100Y-113478900D01*
X112424100Y-113478900D02*
X112441200Y-113461800D01*
X112441200Y-113461800D02*
X117026500Y-113461800D01*
X117026500Y-113461800D02*
X122944700Y-119380000D01*
X128270000Y-119380000D02*
X122944700Y-119380000D01*
%TO.N,PPU_D5*%
X71628000Y-116840000D02*
X83415500Y-116840000D01*
X83415500Y-116840000D02*
X85450800Y-114804700D01*
X85450800Y-114804700D02*
X91160400Y-114804700D01*
X91160400Y-114804700D02*
X92936500Y-113028600D01*
X92936500Y-113028600D02*
X112237500Y-113028600D01*
X112237500Y-113028600D02*
X112254600Y-113011500D01*
X112254600Y-113011500D02*
X117578700Y-113011500D01*
X117578700Y-113011500D02*
X121407200Y-116840000D01*
X121407200Y-116840000D02*
X128270000Y-116840000D01*
%TO.N,PPU_D6*%
X71628000Y-114300000D02*
X76953300Y-114300000D01*
X128270000Y-114300000D02*
X122944700Y-114300000D01*
X122944700Y-114300000D02*
X121205800Y-112561100D01*
X121205800Y-112561100D02*
X112068100Y-112561100D01*
X112068100Y-112561100D02*
X112050900Y-112578300D01*
X112050900Y-112578300D02*
X92420200Y-112578300D01*
X92420200Y-112578300D02*
X90686500Y-114312000D01*
X90686500Y-114312000D02*
X76965300Y-114312000D01*
X76965300Y-114312000D02*
X76953300Y-114300000D01*
%TO.N,PPU_D7*%
X122944700Y-111760000D02*
X112163000Y-111760000D01*
X112163000Y-111760000D02*
X111795000Y-112128000D01*
X111795000Y-112128000D02*
X91453300Y-112128000D01*
X91453300Y-112128000D02*
X89719700Y-113861600D01*
X89719700Y-113861600D02*
X81602500Y-113861600D01*
X81602500Y-113861600D02*
X79500900Y-111760000D01*
X79500900Y-111760000D02*
X71628000Y-111760000D01*
X128270000Y-111760000D02*
X122944700Y-111760000D01*
%TO.N,PPU_A13*%
X122944700Y-109220000D02*
X114066100Y-109220000D01*
X114066100Y-109220000D02*
X111608400Y-111677700D01*
X111608400Y-111677700D02*
X91266600Y-111677700D01*
X91266600Y-111677700D02*
X89533100Y-113411200D01*
X89533100Y-113411200D02*
X83470500Y-113411200D01*
X83470500Y-113411200D02*
X79279300Y-109220000D01*
X79279300Y-109220000D02*
X71628000Y-109220000D01*
X128270000Y-109220000D02*
X122944700Y-109220000D01*
%TO.N,PPU_A12*%
X128270000Y-106680000D02*
X115969200Y-106680000D01*
X115969200Y-106680000D02*
X111421800Y-111227400D01*
X111421800Y-111227400D02*
X90916300Y-111227400D01*
X90916300Y-111227400D02*
X89182800Y-112960900D01*
X89182800Y-112960900D02*
X83917900Y-112960900D01*
X83917900Y-112960900D02*
X77637000Y-106680000D01*
X77637000Y-106680000D02*
X71628000Y-106680000D01*
%TO.N,PPU_A11*%
X76953300Y-104140000D02*
X71628000Y-104140000D01*
X77216000Y-104140000D02*
X76953300Y-104140000D01*
X82960971Y-110773957D02*
X82960979Y-110478092D01*
X82987960Y-111343958D02*
X82987960Y-110800948D01*
X84057042Y-112413042D02*
X82987960Y-111343958D01*
X84600041Y-112413042D02*
X84057042Y-112413042D01*
X90729700Y-110777100D02*
X88996200Y-112510600D01*
X122944700Y-104140100D02*
X117872200Y-104140100D01*
X85586600Y-112510600D02*
X85534120Y-112458121D01*
X82987960Y-110800948D02*
X82960971Y-110773957D01*
X128270000Y-104140000D02*
X122944700Y-104140000D01*
X85534120Y-112458121D02*
X84645120Y-112458121D01*
X82960979Y-109884979D02*
X77216000Y-104140000D01*
X117872200Y-104140100D02*
X111235200Y-110777100D01*
X122944700Y-104140000D02*
X122944700Y-104140100D01*
X84645120Y-112458121D02*
X84600041Y-112413042D01*
X88996200Y-112510600D02*
X85586600Y-112510600D01*
X82960979Y-110478092D02*
X82960979Y-109884979D01*
X111235200Y-110777100D02*
X90729700Y-110777100D01*
%TO.N,PPU_A10*%
X83410987Y-108132987D02*
X83410987Y-110587572D01*
X76878000Y-101600000D02*
X83410987Y-108132987D01*
X83410987Y-110587572D02*
X83437969Y-110614556D01*
X83437970Y-111157559D02*
X84243442Y-111963031D01*
X84786441Y-111963031D02*
X84831520Y-112008110D01*
X83437969Y-110614556D02*
X83437970Y-111157559D01*
X85772710Y-112060300D02*
X88809600Y-112060300D01*
X85720521Y-112008110D02*
X85772710Y-112060300D01*
X84831520Y-112008110D02*
X85720521Y-112008110D01*
X90543100Y-110326800D02*
X111048600Y-110326800D01*
X119775400Y-101600000D02*
X123020000Y-101600000D01*
X111048600Y-110326800D02*
X119775400Y-101600000D01*
X123020000Y-101600000D02*
X128270000Y-101600000D01*
X71628000Y-101600000D02*
X76878000Y-101600000D01*
X84243442Y-111963031D02*
X84786441Y-111963031D01*
X88809600Y-112060300D02*
X90543100Y-110326800D01*
%TO.N,PPU_A9*%
X83887979Y-110428160D02*
X83861000Y-110401180D01*
X76878000Y-99060000D02*
X71628000Y-99060000D01*
X84972841Y-111513021D02*
X84429842Y-111513021D01*
X88674900Y-111558100D02*
X85017920Y-111558100D01*
X121360100Y-99060000D02*
X110600900Y-109819200D01*
X128270000Y-99060000D02*
X121360100Y-99060000D01*
X83861000Y-110401180D02*
X83861000Y-106043000D01*
X83887979Y-110971158D02*
X83887979Y-110428160D01*
X84429842Y-111513021D02*
X83887979Y-110971158D01*
X110600900Y-109819200D02*
X90413800Y-109819200D01*
X90413800Y-109819200D02*
X88674900Y-111558100D01*
X85017920Y-111558100D02*
X84972841Y-111513021D01*
X83861000Y-106043000D02*
X76878000Y-99060000D01*
%TO.N,PPU_A8*%
X122944700Y-96520000D02*
X110105600Y-109359100D01*
X90944100Y-109359100D02*
X90170000Y-108585000D01*
X128270000Y-96520000D02*
X122944700Y-96520000D01*
X110105600Y-109359100D02*
X90944100Y-109359100D01*
X78105000Y-96520000D02*
X83312000Y-101727000D01*
X71628000Y-96520000D02*
X78105000Y-96520000D01*
%TO.N,PPU_A7*%
X122944700Y-93980000D02*
X122944700Y-93381400D01*
X122944700Y-93381400D02*
X120180800Y-90617500D01*
X128270000Y-93980000D02*
X122944700Y-93980000D01*
X71628000Y-93980000D02*
X77343000Y-93980000D01*
X77343000Y-93980000D02*
X78105000Y-93218000D01*
%TO.N,PPU_A13_*%
X122944700Y-91440000D02*
X121382000Y-89877300D01*
X121382000Y-89877300D02*
X115925800Y-89877300D01*
X115925800Y-89877300D02*
X115881100Y-89922000D01*
X128270000Y-91440000D02*
X122944700Y-91440000D01*
X71628000Y-91440000D02*
X79146968Y-91440000D01*
X79146968Y-91440000D02*
X80772000Y-93065032D01*
%TO.N,CIRAM_CE*%
X122944700Y-88900000D02*
X121165100Y-87120400D01*
X121165100Y-87120400D02*
X115431200Y-87120400D01*
X128270000Y-88900000D02*
X122944700Y-88900000D01*
X71628000Y-88900000D02*
X78486002Y-88900000D01*
X78486002Y-88900000D02*
X79756002Y-87630000D01*
%TO.N,PPU_WR*%
X122944700Y-86360000D02*
X122222600Y-85637900D01*
X122222600Y-85637900D02*
X115300900Y-85637900D01*
X128270000Y-86360000D02*
X122944700Y-86360000D01*
X78359004Y-86360000D02*
X78867004Y-85852000D01*
X71628000Y-86360000D02*
X78359004Y-86360000D01*
%TO.N,A12*%
X71628000Y-50800000D02*
X76953300Y-50800000D01*
X115070700Y-50800000D02*
X76953300Y-50800000D01*
X128270000Y-50800000D02*
X115070700Y-50800000D01*
%TO.N,M2*%
X71628000Y-48260000D02*
X76953300Y-48260000D01*
X128270000Y-48260000D02*
X122944700Y-48260000D01*
X122944700Y-48260000D02*
X122697600Y-48507100D01*
X122697600Y-48507100D02*
X77200400Y-48507100D01*
X77200400Y-48507100D02*
X76953300Y-48260000D01*
%TO.N,Net-(C6-Pad1)*%
X85344000Y-102107500D02*
X85344000Y-104680000D01*
X85344000Y-104680000D02*
X85598000Y-104934000D01*
X85598000Y-104934000D02*
X88138000Y-104934000D01*
%TO.N,Addr_A1*%
X112141000Y-97852000D02*
X112141000Y-97166700D01*
X112141000Y-97166700D02*
X112141100Y-97166700D01*
X112141100Y-97166700D02*
X114585100Y-94722700D01*
X114585100Y-94722700D02*
X114585100Y-91389100D01*
X114585100Y-91389100D02*
X113672300Y-90476300D01*
X113672300Y-90476300D02*
X113672300Y-65807500D01*
X113672300Y-65807500D02*
X110738800Y-62874000D01*
X110738800Y-62874000D02*
X108244700Y-62874000D01*
%TO.N,Addr_A13*%
X115822900Y-93015000D02*
X115822900Y-90889500D01*
X115822900Y-90889500D02*
X114572900Y-89639500D01*
X114572900Y-89639500D02*
X114572900Y-64074800D01*
X114572900Y-64074800D02*
X115033500Y-63614200D01*
X108331000Y-97852000D02*
X108331000Y-97469700D01*
X108331000Y-97469700D02*
X110426900Y-95373800D01*
X110426900Y-95373800D02*
X111437400Y-95373800D01*
%TO.N,Addr_A14*%
X105410000Y-72709000D02*
X105410000Y-71778800D01*
X105410000Y-71778800D02*
X107773500Y-69415300D01*
%TO.N,Addr_ROMSEL*%
X106680000Y-72709000D02*
X106680000Y-73140700D01*
X106680000Y-73140700D02*
X107573400Y-74034100D01*
X107573400Y-74034100D02*
X108286200Y-74034100D01*
X108286200Y-74034100D02*
X108576000Y-73744300D01*
X108576000Y-73744300D02*
X108576000Y-71324400D01*
X108576000Y-71324400D02*
X110289100Y-69611300D01*
%TO.N,Addr_R-W*%
X104140000Y-72709000D02*
X104140000Y-73101900D01*
X104140000Y-73101900D02*
X105546700Y-74508600D01*
X105546700Y-74508600D02*
X108451000Y-74508600D01*
X108451000Y-74508600D02*
X110056400Y-72903200D01*
X110056400Y-72903200D02*
X110056400Y-72133100D01*
%TO.N,A9*%
X80634100Y-53287400D02*
X81199785Y-53287400D01*
X81199785Y-53287400D02*
X81329436Y-53417051D01*
X81329436Y-53417051D02*
X115139049Y-53417051D01*
X115139049Y-53417051D02*
X115216094Y-53340006D01*
%TO.N,Net-(J4-Pad16)*%
X128270000Y-83820000D02*
X121539000Y-83820000D01*
X121285000Y-84074000D02*
X121539000Y-83820000D01*
X121031000Y-84074000D02*
X121285000Y-84074000D01*
%TO.N,Net-(C6-Pad2)*%
X85630000Y-83566000D02*
X85630000Y-86233000D01*
X84216000Y-87647000D02*
X84216000Y-88646000D01*
X85630000Y-86233000D02*
X84216000Y-87647000D01*
X83798500Y-99307000D02*
X85344000Y-100852500D01*
X83798500Y-89063500D02*
X83798500Y-99307000D01*
X84216000Y-88646000D02*
X83798500Y-89063500D01*
X84881999Y-78531999D02*
X84582000Y-78232000D01*
X85232001Y-79460189D02*
X84881999Y-79110187D01*
X85232001Y-80660001D02*
X85232001Y-79460189D01*
X85859001Y-81287001D02*
X85232001Y-80660001D01*
X86964191Y-81287001D02*
X85859001Y-81287001D01*
X88555010Y-82877820D02*
X86964191Y-81287001D01*
X88555010Y-84254180D02*
X88555010Y-82877820D01*
X88218180Y-84591010D02*
X88555010Y-84254180D01*
X86655010Y-84591010D02*
X88218180Y-84591010D01*
X85630000Y-83566000D02*
X86655010Y-84591010D01*
X84881999Y-79110187D02*
X84881999Y-78531999D01*
%TO.N,Net-(C8-Pad1)*%
X86233000Y-73660000D02*
X86614000Y-74041000D01*
X84074000Y-73660000D02*
X86233000Y-73660000D01*
%TO.N,Net-(C9-Pad2)*%
X82042000Y-79509500D02*
X82169000Y-79636500D01*
X82042000Y-77581000D02*
X82042000Y-79509500D01*
X86482000Y-80432000D02*
X87879990Y-80432000D01*
X87879990Y-80432000D02*
X87884000Y-80427990D01*
X82791290Y-79636500D02*
X83566000Y-80411210D01*
X82169000Y-79636500D02*
X82791290Y-79636500D01*
%TO.N,Net-(R3-Pad1)*%
X82074000Y-75549000D02*
X82042000Y-75581000D01*
X82074000Y-73660000D02*
X82074000Y-75549000D01*
X86482000Y-77452000D02*
X86482000Y-78232000D01*
X84611000Y-75581000D02*
X86482000Y-77452000D01*
X82042000Y-75581000D02*
X84611000Y-75581000D01*
%TO.N,Net-(C9-Pad1)*%
X83312000Y-82034500D02*
X82169000Y-80891500D01*
X83312000Y-83566000D02*
X83312000Y-82034500D01*
%TD*%
M02*
