%TF.GenerationSoftware,KiCad,Pcbnew,(5.1.10)-1*%
%TF.CreationDate,2021-06-12T16:48:45+02:00*%
%TF.ProjectId,Nes Sound Expansion,4e657320-536f-4756-9e64-20457870616e,rev?*%
%TF.SameCoordinates,Original*%
%TF.FileFunction,Profile,NP*%
%FSLAX46Y46*%
G04 Gerber Fmt 4.6, Leading zero omitted, Abs format (unit mm)*
G04 Created by KiCad (PCBNEW (5.1.10)-1) date 2021-06-12 16:48:45*
%MOMM*%
%LPD*%
G01*
G04 APERTURE LIST*
%TA.AperFunction,Profile*%
%ADD10C,0.050000*%
%TD*%
G04 APERTURE END LIST*
D10*
X67564000Y-43403440D02*
X66387980Y-44577000D01*
X67564000Y-121666000D02*
X66421000Y-120523000D01*
X123444000Y-43815000D02*
X123444000Y-33020000D01*
X133350000Y-43815000D02*
X123444000Y-43815000D01*
X123444000Y-33020000D02*
X102588340Y-33020000D01*
X96239030Y-32936410D02*
X86556290Y-32936410D01*
X102588340Y-33020000D02*
X102582980Y-41498440D01*
X123571000Y-131953000D02*
X123571000Y-121285000D01*
X86556290Y-127541480D02*
X86556290Y-131986020D01*
X102429610Y-85000950D02*
X100207340Y-85000950D01*
X102582980Y-41498440D02*
X100360480Y-41498440D01*
X86556290Y-32936410D02*
X86556290Y-37380950D01*
X100207340Y-85000950D02*
X100207340Y-90556610D01*
X77508480Y-121668360D02*
X77500480Y-127540940D01*
X77500480Y-37370940D02*
X77500480Y-43403440D01*
X100366070Y-37539680D02*
X96239030Y-37539680D01*
X100360480Y-123413440D02*
X102582980Y-123413440D01*
X77500480Y-43403440D02*
X67564000Y-43403440D01*
X100360480Y-41498440D02*
X100366070Y-37539680D01*
X96239030Y-37539680D02*
X96239030Y-32936410D01*
X102588340Y-131953000D02*
X123571000Y-131953000D01*
X86556290Y-37380950D02*
X77500480Y-37370940D01*
X100207340Y-90556610D02*
X102429610Y-90556610D01*
X77500480Y-127540940D02*
X86556290Y-127541480D01*
X102429610Y-90556610D02*
X102429610Y-85000950D01*
X102582980Y-123413440D02*
X102588340Y-131953000D01*
X86556290Y-131986020D02*
X96239030Y-131986020D01*
X66387980Y-44577000D02*
X66421000Y-120523000D01*
X100366070Y-127382750D02*
X100360480Y-123413440D01*
X96239030Y-131986020D02*
X96239030Y-127382750D01*
X67564000Y-121666000D02*
X77508480Y-121668360D01*
X96239030Y-127382750D02*
X100366070Y-127382750D01*
X123571000Y-121285000D02*
X133350000Y-121285000D01*
X133350000Y-121285000D02*
X133350000Y-43815000D01*
M02*
