%TF.GenerationSoftware,KiCad,Pcbnew,(5.1.10)-1*%
%TF.CreationDate,2021-06-12T16:48:45+02:00*%
%TF.ProjectId,Nes Sound Expansion,4e657320-536f-4756-9e64-20457870616e,rev?*%
%TF.SameCoordinates,Original*%
%TF.FileFunction,Legend,Bot*%
%TF.FilePolarity,Positive*%
%FSLAX46Y46*%
G04 Gerber Fmt 4.6, Leading zero omitted, Abs format (unit mm)*
G04 Created by KiCad (PCBNEW (5.1.10)-1) date 2021-06-12 16:48:45*
%MOMM*%
%LPD*%
G01*
G04 APERTURE LIST*
%ADD10C,0.300000*%
%ADD11C,0.010000*%
%ADD12C,0.120000*%
%ADD13C,0.150000*%
G04 APERTURE END LIST*
D10*
X81323857Y-44753571D02*
X80395285Y-44753571D01*
X80895285Y-45325000D01*
X80681000Y-45325000D01*
X80538142Y-45396428D01*
X80466714Y-45467857D01*
X80395285Y-45610714D01*
X80395285Y-45967857D01*
X80466714Y-46110714D01*
X80538142Y-46182142D01*
X80681000Y-46253571D01*
X81109571Y-46253571D01*
X81252428Y-46182142D01*
X81323857Y-46110714D01*
X78966714Y-46253571D02*
X79823857Y-46253571D01*
X79395285Y-46253571D02*
X79395285Y-44753571D01*
X79538142Y-44967857D01*
X79681000Y-45110714D01*
X79823857Y-45182142D01*
X81323857Y-47303571D02*
X80395285Y-47303571D01*
X80895285Y-47875000D01*
X80681000Y-47875000D01*
X80538142Y-47946428D01*
X80466714Y-48017857D01*
X80395285Y-48160714D01*
X80395285Y-48517857D01*
X80466714Y-48660714D01*
X80538142Y-48732142D01*
X80681000Y-48803571D01*
X81109571Y-48803571D01*
X81252428Y-48732142D01*
X81323857Y-48660714D01*
X79823857Y-47446428D02*
X79752428Y-47375000D01*
X79609571Y-47303571D01*
X79252428Y-47303571D01*
X79109571Y-47375000D01*
X79038142Y-47446428D01*
X78966714Y-47589285D01*
X78966714Y-47732142D01*
X79038142Y-47946428D01*
X79895285Y-48803571D01*
X78966714Y-48803571D01*
X81323857Y-49853571D02*
X80395285Y-49853571D01*
X80895285Y-50425000D01*
X80681000Y-50425000D01*
X80538142Y-50496428D01*
X80466714Y-50567857D01*
X80395285Y-50710714D01*
X80395285Y-51067857D01*
X80466714Y-51210714D01*
X80538142Y-51282142D01*
X80681000Y-51353571D01*
X81109571Y-51353571D01*
X81252428Y-51282142D01*
X81323857Y-51210714D01*
X79895285Y-49853571D02*
X78966714Y-49853571D01*
X79466714Y-50425000D01*
X79252428Y-50425000D01*
X79109571Y-50496428D01*
X79038142Y-50567857D01*
X78966714Y-50710714D01*
X78966714Y-51067857D01*
X79038142Y-51210714D01*
X79109571Y-51282142D01*
X79252428Y-51353571D01*
X79681000Y-51353571D01*
X79823857Y-51282142D01*
X79895285Y-51210714D01*
X81323857Y-52403571D02*
X80395285Y-52403571D01*
X80895285Y-52975000D01*
X80681000Y-52975000D01*
X80538142Y-53046428D01*
X80466714Y-53117857D01*
X80395285Y-53260714D01*
X80395285Y-53617857D01*
X80466714Y-53760714D01*
X80538142Y-53832142D01*
X80681000Y-53903571D01*
X81109571Y-53903571D01*
X81252428Y-53832142D01*
X81323857Y-53760714D01*
X79109571Y-52903571D02*
X79109571Y-53903571D01*
X79466714Y-52332142D02*
X79823857Y-53403571D01*
X78895285Y-53403571D01*
X81323857Y-54953571D02*
X80395285Y-54953571D01*
X80895285Y-55525000D01*
X80681000Y-55525000D01*
X80538142Y-55596428D01*
X80466714Y-55667857D01*
X80395285Y-55810714D01*
X80395285Y-56167857D01*
X80466714Y-56310714D01*
X80538142Y-56382142D01*
X80681000Y-56453571D01*
X81109571Y-56453571D01*
X81252428Y-56382142D01*
X81323857Y-56310714D01*
X79038142Y-54953571D02*
X79752428Y-54953571D01*
X79823857Y-55667857D01*
X79752428Y-55596428D01*
X79609571Y-55525000D01*
X79252428Y-55525000D01*
X79109571Y-55596428D01*
X79038142Y-55667857D01*
X78966714Y-55810714D01*
X78966714Y-56167857D01*
X79038142Y-56310714D01*
X79109571Y-56382142D01*
X79252428Y-56453571D01*
X79609571Y-56453571D01*
X79752428Y-56382142D01*
X79823857Y-56310714D01*
X81323857Y-57503571D02*
X80395285Y-57503571D01*
X80895285Y-58075000D01*
X80681000Y-58075000D01*
X80538142Y-58146428D01*
X80466714Y-58217857D01*
X80395285Y-58360714D01*
X80395285Y-58717857D01*
X80466714Y-58860714D01*
X80538142Y-58932142D01*
X80681000Y-59003571D01*
X81109571Y-59003571D01*
X81252428Y-58932142D01*
X81323857Y-58860714D01*
X79109571Y-57503571D02*
X79395285Y-57503571D01*
X79538142Y-57575000D01*
X79609571Y-57646428D01*
X79752428Y-57860714D01*
X79823857Y-58146428D01*
X79823857Y-58717857D01*
X79752428Y-58860714D01*
X79681000Y-58932142D01*
X79538142Y-59003571D01*
X79252428Y-59003571D01*
X79109571Y-58932142D01*
X79038142Y-58860714D01*
X78966714Y-58717857D01*
X78966714Y-58360714D01*
X79038142Y-58217857D01*
X79109571Y-58146428D01*
X79252428Y-58075000D01*
X79538142Y-58075000D01*
X79681000Y-58146428D01*
X79752428Y-58217857D01*
X79823857Y-58360714D01*
X81323857Y-60053571D02*
X80395285Y-60053571D01*
X80895285Y-60625000D01*
X80681000Y-60625000D01*
X80538142Y-60696428D01*
X80466714Y-60767857D01*
X80395285Y-60910714D01*
X80395285Y-61267857D01*
X80466714Y-61410714D01*
X80538142Y-61482142D01*
X80681000Y-61553571D01*
X81109571Y-61553571D01*
X81252428Y-61482142D01*
X81323857Y-61410714D01*
X79895285Y-60053571D02*
X78895285Y-60053571D01*
X79538142Y-61553571D01*
X81323857Y-62603571D02*
X80395285Y-62603571D01*
X80895285Y-63175000D01*
X80681000Y-63175000D01*
X80538142Y-63246428D01*
X80466714Y-63317857D01*
X80395285Y-63460714D01*
X80395285Y-63817857D01*
X80466714Y-63960714D01*
X80538142Y-64032142D01*
X80681000Y-64103571D01*
X81109571Y-64103571D01*
X81252428Y-64032142D01*
X81323857Y-63960714D01*
X79538142Y-63246428D02*
X79681000Y-63175000D01*
X79752428Y-63103571D01*
X79823857Y-62960714D01*
X79823857Y-62889285D01*
X79752428Y-62746428D01*
X79681000Y-62675000D01*
X79538142Y-62603571D01*
X79252428Y-62603571D01*
X79109571Y-62675000D01*
X79038142Y-62746428D01*
X78966714Y-62889285D01*
X78966714Y-62960714D01*
X79038142Y-63103571D01*
X79109571Y-63175000D01*
X79252428Y-63246428D01*
X79538142Y-63246428D01*
X79681000Y-63317857D01*
X79752428Y-63389285D01*
X79823857Y-63532142D01*
X79823857Y-63817857D01*
X79752428Y-63960714D01*
X79681000Y-64032142D01*
X79538142Y-64103571D01*
X79252428Y-64103571D01*
X79109571Y-64032142D01*
X79038142Y-63960714D01*
X78966714Y-63817857D01*
X78966714Y-63532142D01*
X79038142Y-63389285D01*
X79109571Y-63317857D01*
X79252428Y-63246428D01*
X81323857Y-65153571D02*
X80395285Y-65153571D01*
X80895285Y-65725000D01*
X80681000Y-65725000D01*
X80538142Y-65796428D01*
X80466714Y-65867857D01*
X80395285Y-66010714D01*
X80395285Y-66367857D01*
X80466714Y-66510714D01*
X80538142Y-66582142D01*
X80681000Y-66653571D01*
X81109571Y-66653571D01*
X81252428Y-66582142D01*
X81323857Y-66510714D01*
X79681000Y-66653571D02*
X79395285Y-66653571D01*
X79252428Y-66582142D01*
X79181000Y-66510714D01*
X79038142Y-66296428D01*
X78966714Y-66010714D01*
X78966714Y-65439285D01*
X79038142Y-65296428D01*
X79109571Y-65225000D01*
X79252428Y-65153571D01*
X79538142Y-65153571D01*
X79681000Y-65225000D01*
X79752428Y-65296428D01*
X79823857Y-65439285D01*
X79823857Y-65796428D01*
X79752428Y-65939285D01*
X79681000Y-66010714D01*
X79538142Y-66082142D01*
X79252428Y-66082142D01*
X79109571Y-66010714D01*
X79038142Y-65939285D01*
X78966714Y-65796428D01*
X80538142Y-68203571D02*
X80538142Y-69203571D01*
X80895285Y-67632142D02*
X81252428Y-68703571D01*
X80323857Y-68703571D01*
X79466714Y-67703571D02*
X79323857Y-67703571D01*
X79181000Y-67775000D01*
X79109571Y-67846428D01*
X79038142Y-67989285D01*
X78966714Y-68275000D01*
X78966714Y-68632142D01*
X79038142Y-68917857D01*
X79109571Y-69060714D01*
X79181000Y-69132142D01*
X79323857Y-69203571D01*
X79466714Y-69203571D01*
X79609571Y-69132142D01*
X79681000Y-69060714D01*
X79752428Y-68917857D01*
X79823857Y-68632142D01*
X79823857Y-68275000D01*
X79752428Y-67989285D01*
X79681000Y-67846428D01*
X79609571Y-67775000D01*
X79466714Y-67703571D01*
X80538142Y-70753571D02*
X80538142Y-71753571D01*
X80895285Y-70182142D02*
X81252428Y-71253571D01*
X80323857Y-71253571D01*
X78966714Y-71753571D02*
X79823857Y-71753571D01*
X79395285Y-71753571D02*
X79395285Y-70253571D01*
X79538142Y-70467857D01*
X79681000Y-70610714D01*
X79823857Y-70682142D01*
X80538142Y-73303571D02*
X80538142Y-74303571D01*
X80895285Y-72732142D02*
X81252428Y-73803571D01*
X80323857Y-73803571D01*
X79823857Y-72946428D02*
X79752428Y-72875000D01*
X79609571Y-72803571D01*
X79252428Y-72803571D01*
X79109571Y-72875000D01*
X79038142Y-72946428D01*
X78966714Y-73089285D01*
X78966714Y-73232142D01*
X79038142Y-73446428D01*
X79895285Y-74303571D01*
X78966714Y-74303571D01*
X80538142Y-75853571D02*
X80538142Y-76853571D01*
X80895285Y-75282142D02*
X81252428Y-76353571D01*
X80323857Y-76353571D01*
X79895285Y-75353571D02*
X78966714Y-75353571D01*
X79466714Y-75925000D01*
X79252428Y-75925000D01*
X79109571Y-75996428D01*
X79038142Y-76067857D01*
X78966714Y-76210714D01*
X78966714Y-76567857D01*
X79038142Y-76710714D01*
X79109571Y-76782142D01*
X79252428Y-76853571D01*
X79681000Y-76853571D01*
X79823857Y-76782142D01*
X79895285Y-76710714D01*
X80538142Y-78403571D02*
X80538142Y-79403571D01*
X80895285Y-77832142D02*
X81252428Y-78903571D01*
X80323857Y-78903571D01*
X79109571Y-78403571D02*
X79109571Y-79403571D01*
X79466714Y-77832142D02*
X79823857Y-78903571D01*
X78895285Y-78903571D01*
X80538142Y-80953571D02*
X80538142Y-81953571D01*
X80895285Y-80382142D02*
X81252428Y-81453571D01*
X80323857Y-81453571D01*
X79038142Y-80453571D02*
X79752428Y-80453571D01*
X79823857Y-81167857D01*
X79752428Y-81096428D01*
X79609571Y-81025000D01*
X79252428Y-81025000D01*
X79109571Y-81096428D01*
X79038142Y-81167857D01*
X78966714Y-81310714D01*
X78966714Y-81667857D01*
X79038142Y-81810714D01*
X79109571Y-81882142D01*
X79252428Y-81953571D01*
X79609571Y-81953571D01*
X79752428Y-81882142D01*
X79823857Y-81810714D01*
X80538142Y-83503571D02*
X80538142Y-84503571D01*
X80895285Y-82932142D02*
X81252428Y-84003571D01*
X80323857Y-84003571D01*
X79109571Y-83003571D02*
X79395285Y-83003571D01*
X79538142Y-83075000D01*
X79609571Y-83146428D01*
X79752428Y-83360714D01*
X79823857Y-83646428D01*
X79823857Y-84217857D01*
X79752428Y-84360714D01*
X79681000Y-84432142D01*
X79538142Y-84503571D01*
X79252428Y-84503571D01*
X79109571Y-84432142D01*
X79038142Y-84360714D01*
X78966714Y-84217857D01*
X78966714Y-83860714D01*
X79038142Y-83717857D01*
X79109571Y-83646428D01*
X79252428Y-83575000D01*
X79538142Y-83575000D01*
X79681000Y-83646428D01*
X79752428Y-83717857D01*
X79823857Y-83860714D01*
X80538142Y-86053571D02*
X80538142Y-87053571D01*
X80895285Y-85482142D02*
X81252428Y-86553571D01*
X80323857Y-86553571D01*
X79895285Y-85553571D02*
X78895285Y-85553571D01*
X79538142Y-87053571D01*
X80538142Y-88603571D02*
X80538142Y-89603571D01*
X80895285Y-88032142D02*
X81252428Y-89103571D01*
X80323857Y-89103571D01*
X79538142Y-88746428D02*
X79681000Y-88675000D01*
X79752428Y-88603571D01*
X79823857Y-88460714D01*
X79823857Y-88389285D01*
X79752428Y-88246428D01*
X79681000Y-88175000D01*
X79538142Y-88103571D01*
X79252428Y-88103571D01*
X79109571Y-88175000D01*
X79038142Y-88246428D01*
X78966714Y-88389285D01*
X78966714Y-88460714D01*
X79038142Y-88603571D01*
X79109571Y-88675000D01*
X79252428Y-88746428D01*
X79538142Y-88746428D01*
X79681000Y-88817857D01*
X79752428Y-88889285D01*
X79823857Y-89032142D01*
X79823857Y-89317857D01*
X79752428Y-89460714D01*
X79681000Y-89532142D01*
X79538142Y-89603571D01*
X79252428Y-89603571D01*
X79109571Y-89532142D01*
X79038142Y-89460714D01*
X78966714Y-89317857D01*
X78966714Y-89032142D01*
X79038142Y-88889285D01*
X79109571Y-88817857D01*
X79252428Y-88746428D01*
X80538142Y-91153571D02*
X80538142Y-92153571D01*
X80895285Y-90582142D02*
X81252428Y-91653571D01*
X80323857Y-91653571D01*
X79681000Y-92153571D02*
X79395285Y-92153571D01*
X79252428Y-92082142D01*
X79181000Y-92010714D01*
X79038142Y-91796428D01*
X78966714Y-91510714D01*
X78966714Y-90939285D01*
X79038142Y-90796428D01*
X79109571Y-90725000D01*
X79252428Y-90653571D01*
X79538142Y-90653571D01*
X79681000Y-90725000D01*
X79752428Y-90796428D01*
X79823857Y-90939285D01*
X79823857Y-91296428D01*
X79752428Y-91439285D01*
X79681000Y-91510714D01*
X79538142Y-91582142D01*
X79252428Y-91582142D01*
X79109571Y-91510714D01*
X79038142Y-91439285D01*
X78966714Y-91296428D01*
X80466714Y-93203571D02*
X81181000Y-93203571D01*
X81252428Y-93917857D01*
X81181000Y-93846428D01*
X81038142Y-93775000D01*
X80681000Y-93775000D01*
X80538142Y-93846428D01*
X80466714Y-93917857D01*
X80395285Y-94060714D01*
X80395285Y-94417857D01*
X80466714Y-94560714D01*
X80538142Y-94632142D01*
X80681000Y-94703571D01*
X81038142Y-94703571D01*
X81181000Y-94632142D01*
X81252428Y-94560714D01*
X79466714Y-93203571D02*
X79323857Y-93203571D01*
X79181000Y-93275000D01*
X79109571Y-93346428D01*
X79038142Y-93489285D01*
X78966714Y-93775000D01*
X78966714Y-94132142D01*
X79038142Y-94417857D01*
X79109571Y-94560714D01*
X79181000Y-94632142D01*
X79323857Y-94703571D01*
X79466714Y-94703571D01*
X79609571Y-94632142D01*
X79681000Y-94560714D01*
X79752428Y-94417857D01*
X79823857Y-94132142D01*
X79823857Y-93775000D01*
X79752428Y-93489285D01*
X79681000Y-93346428D01*
X79609571Y-93275000D01*
X79466714Y-93203571D01*
X80466714Y-95753571D02*
X81181000Y-95753571D01*
X81252428Y-96467857D01*
X81181000Y-96396428D01*
X81038142Y-96325000D01*
X80681000Y-96325000D01*
X80538142Y-96396428D01*
X80466714Y-96467857D01*
X80395285Y-96610714D01*
X80395285Y-96967857D01*
X80466714Y-97110714D01*
X80538142Y-97182142D01*
X80681000Y-97253571D01*
X81038142Y-97253571D01*
X81181000Y-97182142D01*
X81252428Y-97110714D01*
X78966714Y-97253571D02*
X79823857Y-97253571D01*
X79395285Y-97253571D02*
X79395285Y-95753571D01*
X79538142Y-95967857D01*
X79681000Y-96110714D01*
X79823857Y-96182142D01*
X80466714Y-98303571D02*
X81181000Y-98303571D01*
X81252428Y-99017857D01*
X81181000Y-98946428D01*
X81038142Y-98875000D01*
X80681000Y-98875000D01*
X80538142Y-98946428D01*
X80466714Y-99017857D01*
X80395285Y-99160714D01*
X80395285Y-99517857D01*
X80466714Y-99660714D01*
X80538142Y-99732142D01*
X80681000Y-99803571D01*
X81038142Y-99803571D01*
X81181000Y-99732142D01*
X81252428Y-99660714D01*
X79823857Y-98446428D02*
X79752428Y-98375000D01*
X79609571Y-98303571D01*
X79252428Y-98303571D01*
X79109571Y-98375000D01*
X79038142Y-98446428D01*
X78966714Y-98589285D01*
X78966714Y-98732142D01*
X79038142Y-98946428D01*
X79895285Y-99803571D01*
X78966714Y-99803571D01*
X80466714Y-100853571D02*
X81181000Y-100853571D01*
X81252428Y-101567857D01*
X81181000Y-101496428D01*
X81038142Y-101425000D01*
X80681000Y-101425000D01*
X80538142Y-101496428D01*
X80466714Y-101567857D01*
X80395285Y-101710714D01*
X80395285Y-102067857D01*
X80466714Y-102210714D01*
X80538142Y-102282142D01*
X80681000Y-102353571D01*
X81038142Y-102353571D01*
X81181000Y-102282142D01*
X81252428Y-102210714D01*
X79895285Y-100853571D02*
X78966714Y-100853571D01*
X79466714Y-101425000D01*
X79252428Y-101425000D01*
X79109571Y-101496428D01*
X79038142Y-101567857D01*
X78966714Y-101710714D01*
X78966714Y-102067857D01*
X79038142Y-102210714D01*
X79109571Y-102282142D01*
X79252428Y-102353571D01*
X79681000Y-102353571D01*
X79823857Y-102282142D01*
X79895285Y-102210714D01*
X80466714Y-103403571D02*
X81181000Y-103403571D01*
X81252428Y-104117857D01*
X81181000Y-104046428D01*
X81038142Y-103975000D01*
X80681000Y-103975000D01*
X80538142Y-104046428D01*
X80466714Y-104117857D01*
X80395285Y-104260714D01*
X80395285Y-104617857D01*
X80466714Y-104760714D01*
X80538142Y-104832142D01*
X80681000Y-104903571D01*
X81038142Y-104903571D01*
X81181000Y-104832142D01*
X81252428Y-104760714D01*
X79109571Y-103903571D02*
X79109571Y-104903571D01*
X79466714Y-103332142D02*
X79823857Y-104403571D01*
X78895285Y-104403571D01*
X80466714Y-105953571D02*
X81181000Y-105953571D01*
X81252428Y-106667857D01*
X81181000Y-106596428D01*
X81038142Y-106525000D01*
X80681000Y-106525000D01*
X80538142Y-106596428D01*
X80466714Y-106667857D01*
X80395285Y-106810714D01*
X80395285Y-107167857D01*
X80466714Y-107310714D01*
X80538142Y-107382142D01*
X80681000Y-107453571D01*
X81038142Y-107453571D01*
X81181000Y-107382142D01*
X81252428Y-107310714D01*
X79038142Y-105953571D02*
X79752428Y-105953571D01*
X79823857Y-106667857D01*
X79752428Y-106596428D01*
X79609571Y-106525000D01*
X79252428Y-106525000D01*
X79109571Y-106596428D01*
X79038142Y-106667857D01*
X78966714Y-106810714D01*
X78966714Y-107167857D01*
X79038142Y-107310714D01*
X79109571Y-107382142D01*
X79252428Y-107453571D01*
X79609571Y-107453571D01*
X79752428Y-107382142D01*
X79823857Y-107310714D01*
X80466714Y-108503571D02*
X81181000Y-108503571D01*
X81252428Y-109217857D01*
X81181000Y-109146428D01*
X81038142Y-109075000D01*
X80681000Y-109075000D01*
X80538142Y-109146428D01*
X80466714Y-109217857D01*
X80395285Y-109360714D01*
X80395285Y-109717857D01*
X80466714Y-109860714D01*
X80538142Y-109932142D01*
X80681000Y-110003571D01*
X81038142Y-110003571D01*
X81181000Y-109932142D01*
X81252428Y-109860714D01*
X79109571Y-108503571D02*
X79395285Y-108503571D01*
X79538142Y-108575000D01*
X79609571Y-108646428D01*
X79752428Y-108860714D01*
X79823857Y-109146428D01*
X79823857Y-109717857D01*
X79752428Y-109860714D01*
X79681000Y-109932142D01*
X79538142Y-110003571D01*
X79252428Y-110003571D01*
X79109571Y-109932142D01*
X79038142Y-109860714D01*
X78966714Y-109717857D01*
X78966714Y-109360714D01*
X79038142Y-109217857D01*
X79109571Y-109146428D01*
X79252428Y-109075000D01*
X79538142Y-109075000D01*
X79681000Y-109146428D01*
X79752428Y-109217857D01*
X79823857Y-109360714D01*
X80466714Y-111053571D02*
X81181000Y-111053571D01*
X81252428Y-111767857D01*
X81181000Y-111696428D01*
X81038142Y-111625000D01*
X80681000Y-111625000D01*
X80538142Y-111696428D01*
X80466714Y-111767857D01*
X80395285Y-111910714D01*
X80395285Y-112267857D01*
X80466714Y-112410714D01*
X80538142Y-112482142D01*
X80681000Y-112553571D01*
X81038142Y-112553571D01*
X81181000Y-112482142D01*
X81252428Y-112410714D01*
X79895285Y-111053571D02*
X78895285Y-111053571D01*
X79538142Y-112553571D01*
X80466714Y-113603571D02*
X81181000Y-113603571D01*
X81252428Y-114317857D01*
X81181000Y-114246428D01*
X81038142Y-114175000D01*
X80681000Y-114175000D01*
X80538142Y-114246428D01*
X80466714Y-114317857D01*
X80395285Y-114460714D01*
X80395285Y-114817857D01*
X80466714Y-114960714D01*
X80538142Y-115032142D01*
X80681000Y-115103571D01*
X81038142Y-115103571D01*
X81181000Y-115032142D01*
X81252428Y-114960714D01*
X79538142Y-114246428D02*
X79681000Y-114175000D01*
X79752428Y-114103571D01*
X79823857Y-113960714D01*
X79823857Y-113889285D01*
X79752428Y-113746428D01*
X79681000Y-113675000D01*
X79538142Y-113603571D01*
X79252428Y-113603571D01*
X79109571Y-113675000D01*
X79038142Y-113746428D01*
X78966714Y-113889285D01*
X78966714Y-113960714D01*
X79038142Y-114103571D01*
X79109571Y-114175000D01*
X79252428Y-114246428D01*
X79538142Y-114246428D01*
X79681000Y-114317857D01*
X79752428Y-114389285D01*
X79823857Y-114532142D01*
X79823857Y-114817857D01*
X79752428Y-114960714D01*
X79681000Y-115032142D01*
X79538142Y-115103571D01*
X79252428Y-115103571D01*
X79109571Y-115032142D01*
X79038142Y-114960714D01*
X78966714Y-114817857D01*
X78966714Y-114532142D01*
X79038142Y-114389285D01*
X79109571Y-114317857D01*
X79252428Y-114246428D01*
X80466714Y-116153571D02*
X81181000Y-116153571D01*
X81252428Y-116867857D01*
X81181000Y-116796428D01*
X81038142Y-116725000D01*
X80681000Y-116725000D01*
X80538142Y-116796428D01*
X80466714Y-116867857D01*
X80395285Y-117010714D01*
X80395285Y-117367857D01*
X80466714Y-117510714D01*
X80538142Y-117582142D01*
X80681000Y-117653571D01*
X81038142Y-117653571D01*
X81181000Y-117582142D01*
X81252428Y-117510714D01*
X79681000Y-117653571D02*
X79395285Y-117653571D01*
X79252428Y-117582142D01*
X79181000Y-117510714D01*
X79038142Y-117296428D01*
X78966714Y-117010714D01*
X78966714Y-116439285D01*
X79038142Y-116296428D01*
X79109571Y-116225000D01*
X79252428Y-116153571D01*
X79538142Y-116153571D01*
X79681000Y-116225000D01*
X79752428Y-116296428D01*
X79823857Y-116439285D01*
X79823857Y-116796428D01*
X79752428Y-116939285D01*
X79681000Y-117010714D01*
X79538142Y-117082142D01*
X79252428Y-117082142D01*
X79109571Y-117010714D01*
X79038142Y-116939285D01*
X78966714Y-116796428D01*
X80538142Y-118703571D02*
X80823857Y-118703571D01*
X80966714Y-118775000D01*
X81038142Y-118846428D01*
X81181000Y-119060714D01*
X81252428Y-119346428D01*
X81252428Y-119917857D01*
X81181000Y-120060714D01*
X81109571Y-120132142D01*
X80966714Y-120203571D01*
X80681000Y-120203571D01*
X80538142Y-120132142D01*
X80466714Y-120060714D01*
X80395285Y-119917857D01*
X80395285Y-119560714D01*
X80466714Y-119417857D01*
X80538142Y-119346428D01*
X80681000Y-119275000D01*
X80966714Y-119275000D01*
X81109571Y-119346428D01*
X81181000Y-119417857D01*
X81252428Y-119560714D01*
X79466714Y-118703571D02*
X79323857Y-118703571D01*
X79181000Y-118775000D01*
X79109571Y-118846428D01*
X79038142Y-118989285D01*
X78966714Y-119275000D01*
X78966714Y-119632142D01*
X79038142Y-119917857D01*
X79109571Y-120060714D01*
X79181000Y-120132142D01*
X79323857Y-120203571D01*
X79466714Y-120203571D01*
X79609571Y-120132142D01*
X79681000Y-120060714D01*
X79752428Y-119917857D01*
X79823857Y-119632142D01*
X79823857Y-119275000D01*
X79752428Y-118989285D01*
X79681000Y-118846428D01*
X79609571Y-118775000D01*
X79466714Y-118703571D01*
D11*
%TO.C,G\u002A\u002A\u002A*%
G36*
X113155460Y-39175902D02*
G01*
X113193941Y-39174924D01*
X113421382Y-39168916D01*
X113478154Y-38611300D01*
X113493568Y-38462471D01*
X113507995Y-38328011D01*
X113520794Y-38213508D01*
X113531325Y-38124549D01*
X113538948Y-38066719D01*
X113542956Y-38045654D01*
X113554851Y-38061374D01*
X113584712Y-38109720D01*
X113629979Y-38186292D01*
X113688093Y-38286691D01*
X113756496Y-38406518D01*
X113832627Y-38541374D01*
X113867318Y-38603271D01*
X114183650Y-39168916D01*
X114413707Y-39174950D01*
X114514933Y-39176993D01*
X114580577Y-39176179D01*
X114617342Y-39171639D01*
X114631933Y-39162500D01*
X114631054Y-39147891D01*
X114630632Y-39146761D01*
X114619255Y-39112668D01*
X114617500Y-39103685D01*
X114598872Y-39097815D01*
X114553116Y-39094903D01*
X114543904Y-39094833D01*
X114479262Y-39083502D01*
X114439351Y-39047208D01*
X114424979Y-39011487D01*
X114403916Y-38941300D01*
X114377769Y-38843695D01*
X114348145Y-38725719D01*
X114316651Y-38594418D01*
X114284893Y-38456840D01*
X114254479Y-38320031D01*
X114227016Y-38191038D01*
X114204109Y-38076909D01*
X114187367Y-37984690D01*
X114178396Y-37921428D01*
X114177516Y-37898916D01*
X114188103Y-37853840D01*
X114217506Y-37834178D01*
X114252375Y-37828784D01*
X114302561Y-37816870D01*
X114320586Y-37790191D01*
X114321166Y-37781159D01*
X114318629Y-37764729D01*
X114306630Y-37753387D01*
X114278587Y-37746196D01*
X114227920Y-37742220D01*
X114148047Y-37740523D01*
X114033152Y-37740166D01*
X113917314Y-37740668D01*
X113837746Y-37742664D01*
X113788388Y-37746892D01*
X113763183Y-37754088D01*
X113756074Y-37764991D01*
X113757985Y-37773648D01*
X113769192Y-37807390D01*
X113770833Y-37815981D01*
X113789410Y-37821942D01*
X113834820Y-37824792D01*
X113841636Y-37824833D01*
X113904826Y-37836508D01*
X113946268Y-37862214D01*
X113957672Y-37889285D01*
X113976445Y-37950300D01*
X114001036Y-38038837D01*
X114029893Y-38148476D01*
X114061463Y-38272794D01*
X114094195Y-38405370D01*
X114126538Y-38539784D01*
X114156939Y-38669613D01*
X114183846Y-38788435D01*
X114205708Y-38889830D01*
X114220973Y-38967377D01*
X114228089Y-39014653D01*
X114227554Y-39026168D01*
X114215975Y-39010062D01*
X114186264Y-38961078D01*
X114140808Y-38883366D01*
X114081995Y-38781075D01*
X114012214Y-38658354D01*
X113933852Y-38519353D01*
X113862570Y-38392018D01*
X113761367Y-38211615D01*
X113678177Y-38065612D01*
X113611146Y-37951027D01*
X113558419Y-37864877D01*
X113518142Y-37804181D01*
X113488459Y-37765958D01*
X113467517Y-37747225D01*
X113459671Y-37744224D01*
X113417469Y-37753540D01*
X113404091Y-37775974D01*
X113399377Y-37806281D01*
X113391259Y-37873031D01*
X113380356Y-37970527D01*
X113367286Y-38093068D01*
X113352666Y-38234958D01*
X113337115Y-38390497D01*
X113333943Y-38422791D01*
X113318350Y-38578053D01*
X113303485Y-38718697D01*
X113289962Y-38839475D01*
X113278394Y-38935134D01*
X113269398Y-39000424D01*
X113263587Y-39030095D01*
X113262723Y-39031333D01*
X113254037Y-39011656D01*
X113238425Y-38956924D01*
X113217301Y-38873587D01*
X113192080Y-38768094D01*
X113164174Y-38646895D01*
X113134997Y-38516438D01*
X113105962Y-38383173D01*
X113078483Y-38253549D01*
X113053974Y-38134016D01*
X113033847Y-38031023D01*
X113019517Y-37951020D01*
X113012396Y-37900455D01*
X113012055Y-37887600D01*
X113024879Y-37851264D01*
X113058294Y-37834106D01*
X113096511Y-37828983D01*
X113147095Y-37821056D01*
X113165066Y-37804345D01*
X113162834Y-37781358D01*
X113155094Y-37763896D01*
X113137840Y-37752193D01*
X113103763Y-37745113D01*
X113045557Y-37741517D01*
X112955913Y-37740267D01*
X112898266Y-37740166D01*
X112790700Y-37740763D01*
X112719077Y-37743144D01*
X112677017Y-37748195D01*
X112658139Y-37756804D01*
X112656064Y-37769856D01*
X112657318Y-37773648D01*
X112668525Y-37807390D01*
X112670166Y-37815981D01*
X112688744Y-37821942D01*
X112734153Y-37824792D01*
X112740969Y-37824833D01*
X112806008Y-37837239D01*
X112846501Y-37863208D01*
X112861707Y-37895432D01*
X112883450Y-37962283D01*
X112910133Y-38056848D01*
X112940159Y-38172209D01*
X112971932Y-38301450D01*
X113003854Y-38437656D01*
X113034330Y-38573909D01*
X113061762Y-38703295D01*
X113084555Y-38818897D01*
X113101110Y-38913799D01*
X113109832Y-38981084D01*
X113110532Y-39006892D01*
X113102195Y-39058825D01*
X113080729Y-39082261D01*
X113035291Y-39090883D01*
X112985305Y-39102633D01*
X112967189Y-39129103D01*
X112966500Y-39139224D01*
X112969124Y-39157574D01*
X112981930Y-39169255D01*
X113012321Y-39175429D01*
X113067697Y-39177258D01*
X113155460Y-39175902D01*
G37*
X113155460Y-39175902D02*
X113193941Y-39174924D01*
X113421382Y-39168916D01*
X113478154Y-38611300D01*
X113493568Y-38462471D01*
X113507995Y-38328011D01*
X113520794Y-38213508D01*
X113531325Y-38124549D01*
X113538948Y-38066719D01*
X113542956Y-38045654D01*
X113554851Y-38061374D01*
X113584712Y-38109720D01*
X113629979Y-38186292D01*
X113688093Y-38286691D01*
X113756496Y-38406518D01*
X113832627Y-38541374D01*
X113867318Y-38603271D01*
X114183650Y-39168916D01*
X114413707Y-39174950D01*
X114514933Y-39176993D01*
X114580577Y-39176179D01*
X114617342Y-39171639D01*
X114631933Y-39162500D01*
X114631054Y-39147891D01*
X114630632Y-39146761D01*
X114619255Y-39112668D01*
X114617500Y-39103685D01*
X114598872Y-39097815D01*
X114553116Y-39094903D01*
X114543904Y-39094833D01*
X114479262Y-39083502D01*
X114439351Y-39047208D01*
X114424979Y-39011487D01*
X114403916Y-38941300D01*
X114377769Y-38843695D01*
X114348145Y-38725719D01*
X114316651Y-38594418D01*
X114284893Y-38456840D01*
X114254479Y-38320031D01*
X114227016Y-38191038D01*
X114204109Y-38076909D01*
X114187367Y-37984690D01*
X114178396Y-37921428D01*
X114177516Y-37898916D01*
X114188103Y-37853840D01*
X114217506Y-37834178D01*
X114252375Y-37828784D01*
X114302561Y-37816870D01*
X114320586Y-37790191D01*
X114321166Y-37781159D01*
X114318629Y-37764729D01*
X114306630Y-37753387D01*
X114278587Y-37746196D01*
X114227920Y-37742220D01*
X114148047Y-37740523D01*
X114033152Y-37740166D01*
X113917314Y-37740668D01*
X113837746Y-37742664D01*
X113788388Y-37746892D01*
X113763183Y-37754088D01*
X113756074Y-37764991D01*
X113757985Y-37773648D01*
X113769192Y-37807390D01*
X113770833Y-37815981D01*
X113789410Y-37821942D01*
X113834820Y-37824792D01*
X113841636Y-37824833D01*
X113904826Y-37836508D01*
X113946268Y-37862214D01*
X113957672Y-37889285D01*
X113976445Y-37950300D01*
X114001036Y-38038837D01*
X114029893Y-38148476D01*
X114061463Y-38272794D01*
X114094195Y-38405370D01*
X114126538Y-38539784D01*
X114156939Y-38669613D01*
X114183846Y-38788435D01*
X114205708Y-38889830D01*
X114220973Y-38967377D01*
X114228089Y-39014653D01*
X114227554Y-39026168D01*
X114215975Y-39010062D01*
X114186264Y-38961078D01*
X114140808Y-38883366D01*
X114081995Y-38781075D01*
X114012214Y-38658354D01*
X113933852Y-38519353D01*
X113862570Y-38392018D01*
X113761367Y-38211615D01*
X113678177Y-38065612D01*
X113611146Y-37951027D01*
X113558419Y-37864877D01*
X113518142Y-37804181D01*
X113488459Y-37765958D01*
X113467517Y-37747225D01*
X113459671Y-37744224D01*
X113417469Y-37753540D01*
X113404091Y-37775974D01*
X113399377Y-37806281D01*
X113391259Y-37873031D01*
X113380356Y-37970527D01*
X113367286Y-38093068D01*
X113352666Y-38234958D01*
X113337115Y-38390497D01*
X113333943Y-38422791D01*
X113318350Y-38578053D01*
X113303485Y-38718697D01*
X113289962Y-38839475D01*
X113278394Y-38935134D01*
X113269398Y-39000424D01*
X113263587Y-39030095D01*
X113262723Y-39031333D01*
X113254037Y-39011656D01*
X113238425Y-38956924D01*
X113217301Y-38873587D01*
X113192080Y-38768094D01*
X113164174Y-38646895D01*
X113134997Y-38516438D01*
X113105962Y-38383173D01*
X113078483Y-38253549D01*
X113053974Y-38134016D01*
X113033847Y-38031023D01*
X113019517Y-37951020D01*
X113012396Y-37900455D01*
X113012055Y-37887600D01*
X113024879Y-37851264D01*
X113058294Y-37834106D01*
X113096511Y-37828983D01*
X113147095Y-37821056D01*
X113165066Y-37804345D01*
X113162834Y-37781358D01*
X113155094Y-37763896D01*
X113137840Y-37752193D01*
X113103763Y-37745113D01*
X113045557Y-37741517D01*
X112955913Y-37740267D01*
X112898266Y-37740166D01*
X112790700Y-37740763D01*
X112719077Y-37743144D01*
X112677017Y-37748195D01*
X112658139Y-37756804D01*
X112656064Y-37769856D01*
X112657318Y-37773648D01*
X112668525Y-37807390D01*
X112670166Y-37815981D01*
X112688744Y-37821942D01*
X112734153Y-37824792D01*
X112740969Y-37824833D01*
X112806008Y-37837239D01*
X112846501Y-37863208D01*
X112861707Y-37895432D01*
X112883450Y-37962283D01*
X112910133Y-38056848D01*
X112940159Y-38172209D01*
X112971932Y-38301450D01*
X113003854Y-38437656D01*
X113034330Y-38573909D01*
X113061762Y-38703295D01*
X113084555Y-38818897D01*
X113101110Y-38913799D01*
X113109832Y-38981084D01*
X113110532Y-39006892D01*
X113102195Y-39058825D01*
X113080729Y-39082261D01*
X113035291Y-39090883D01*
X112985305Y-39102633D01*
X112967189Y-39129103D01*
X112966500Y-39139224D01*
X112969124Y-39157574D01*
X112981930Y-39169255D01*
X113012321Y-39175429D01*
X113067697Y-39177258D01*
X113155460Y-39175902D01*
G36*
X110846646Y-39177022D02*
G01*
X110991573Y-39168983D01*
X111104449Y-39153630D01*
X111190318Y-39129329D01*
X111254225Y-39094444D01*
X111301213Y-39047341D01*
X111336329Y-38986386D01*
X111348138Y-38957870D01*
X111371463Y-38840719D01*
X111357757Y-38720504D01*
X111310696Y-38605781D01*
X111233956Y-38505105D01*
X111131214Y-38427028D01*
X111116652Y-38419246D01*
X111066203Y-38396016D01*
X111015258Y-38380007D01*
X110953423Y-38369461D01*
X110870303Y-38362621D01*
X110755504Y-38357729D01*
X110752149Y-38357617D01*
X110640385Y-38353078D01*
X110564200Y-38347518D01*
X110516838Y-38339858D01*
X110491544Y-38329020D01*
X110481697Y-38314424D01*
X110472998Y-38279479D01*
X110457587Y-38214377D01*
X110438082Y-38130254D01*
X110427098Y-38082280D01*
X110405064Y-37974916D01*
X110397666Y-37901665D01*
X110406468Y-37856375D01*
X110433036Y-37832892D01*
X110478935Y-37825066D01*
X110492591Y-37824833D01*
X110537900Y-37817536D01*
X110553138Y-37790791D01*
X110553500Y-37782500D01*
X110551250Y-37765546D01*
X110540105Y-37753844D01*
X110513465Y-37746425D01*
X110464735Y-37742319D01*
X110387316Y-37740556D01*
X110274612Y-37740167D01*
X110265485Y-37740166D01*
X110149648Y-37740668D01*
X110070079Y-37742664D01*
X110020721Y-37746892D01*
X109995517Y-37754088D01*
X109988407Y-37764991D01*
X109990318Y-37773648D01*
X110001525Y-37807390D01*
X110003166Y-37815981D01*
X110021373Y-37822580D01*
X110057474Y-37824833D01*
X110137304Y-37840366D01*
X110190847Y-37888541D01*
X110212276Y-37935796D01*
X110230126Y-37998697D01*
X110253130Y-38090094D01*
X110279777Y-38202883D01*
X110308555Y-38329962D01*
X110335922Y-38454957D01*
X110509136Y-38454957D01*
X110729308Y-38463107D01*
X110831176Y-38467824D01*
X110901265Y-38474544D01*
X110950130Y-38485588D01*
X110988323Y-38503278D01*
X111023678Y-38527850D01*
X111107430Y-38616962D01*
X111155583Y-38727877D01*
X111167333Y-38827823D01*
X111159965Y-38903044D01*
X111131937Y-38961518D01*
X111105613Y-38993958D01*
X111075266Y-39026288D01*
X111047381Y-39046539D01*
X111011394Y-39057538D01*
X110956743Y-39062108D01*
X110872866Y-39063074D01*
X110847127Y-39063083D01*
X110650360Y-39063083D01*
X110595356Y-38819666D01*
X110572066Y-38717303D01*
X110550712Y-38624721D01*
X110533841Y-38552880D01*
X110524744Y-38515603D01*
X110509136Y-38454957D01*
X110335922Y-38454957D01*
X110337953Y-38464229D01*
X110366460Y-38598579D01*
X110392564Y-38725910D01*
X110414753Y-38839120D01*
X110431515Y-38931106D01*
X110441340Y-38994764D01*
X110443168Y-39020750D01*
X110432565Y-39065828D01*
X110403147Y-39085491D01*
X110368291Y-39090883D01*
X110318105Y-39102796D01*
X110300080Y-39129475D01*
X110299500Y-39138508D01*
X110301637Y-39153358D01*
X110311957Y-39164111D01*
X110336316Y-39171423D01*
X110380576Y-39175948D01*
X110450593Y-39178344D01*
X110552227Y-39179266D01*
X110664625Y-39179382D01*
X110846646Y-39177022D01*
G37*
X110846646Y-39177022D02*
X110991573Y-39168983D01*
X111104449Y-39153630D01*
X111190318Y-39129329D01*
X111254225Y-39094444D01*
X111301213Y-39047341D01*
X111336329Y-38986386D01*
X111348138Y-38957870D01*
X111371463Y-38840719D01*
X111357757Y-38720504D01*
X111310696Y-38605781D01*
X111233956Y-38505105D01*
X111131214Y-38427028D01*
X111116652Y-38419246D01*
X111066203Y-38396016D01*
X111015258Y-38380007D01*
X110953423Y-38369461D01*
X110870303Y-38362621D01*
X110755504Y-38357729D01*
X110752149Y-38357617D01*
X110640385Y-38353078D01*
X110564200Y-38347518D01*
X110516838Y-38339858D01*
X110491544Y-38329020D01*
X110481697Y-38314424D01*
X110472998Y-38279479D01*
X110457587Y-38214377D01*
X110438082Y-38130254D01*
X110427098Y-38082280D01*
X110405064Y-37974916D01*
X110397666Y-37901665D01*
X110406468Y-37856375D01*
X110433036Y-37832892D01*
X110478935Y-37825066D01*
X110492591Y-37824833D01*
X110537900Y-37817536D01*
X110553138Y-37790791D01*
X110553500Y-37782500D01*
X110551250Y-37765546D01*
X110540105Y-37753844D01*
X110513465Y-37746425D01*
X110464735Y-37742319D01*
X110387316Y-37740556D01*
X110274612Y-37740167D01*
X110265485Y-37740166D01*
X110149648Y-37740668D01*
X110070079Y-37742664D01*
X110020721Y-37746892D01*
X109995517Y-37754088D01*
X109988407Y-37764991D01*
X109990318Y-37773648D01*
X110001525Y-37807390D01*
X110003166Y-37815981D01*
X110021373Y-37822580D01*
X110057474Y-37824833D01*
X110137304Y-37840366D01*
X110190847Y-37888541D01*
X110212276Y-37935796D01*
X110230126Y-37998697D01*
X110253130Y-38090094D01*
X110279777Y-38202883D01*
X110308555Y-38329962D01*
X110335922Y-38454957D01*
X110509136Y-38454957D01*
X110729308Y-38463107D01*
X110831176Y-38467824D01*
X110901265Y-38474544D01*
X110950130Y-38485588D01*
X110988323Y-38503278D01*
X111023678Y-38527850D01*
X111107430Y-38616962D01*
X111155583Y-38727877D01*
X111167333Y-38827823D01*
X111159965Y-38903044D01*
X111131937Y-38961518D01*
X111105613Y-38993958D01*
X111075266Y-39026288D01*
X111047381Y-39046539D01*
X111011394Y-39057538D01*
X110956743Y-39062108D01*
X110872866Y-39063074D01*
X110847127Y-39063083D01*
X110650360Y-39063083D01*
X110595356Y-38819666D01*
X110572066Y-38717303D01*
X110550712Y-38624721D01*
X110533841Y-38552880D01*
X110524744Y-38515603D01*
X110509136Y-38454957D01*
X110335922Y-38454957D01*
X110337953Y-38464229D01*
X110366460Y-38598579D01*
X110392564Y-38725910D01*
X110414753Y-38839120D01*
X110431515Y-38931106D01*
X110441340Y-38994764D01*
X110443168Y-39020750D01*
X110432565Y-39065828D01*
X110403147Y-39085491D01*
X110368291Y-39090883D01*
X110318105Y-39102796D01*
X110300080Y-39129475D01*
X110299500Y-39138508D01*
X110301637Y-39153358D01*
X110311957Y-39164111D01*
X110336316Y-39171423D01*
X110380576Y-39175948D01*
X110450593Y-39178344D01*
X110552227Y-39179266D01*
X110664625Y-39179382D01*
X110846646Y-39177022D01*
G36*
X109163143Y-39176688D02*
G01*
X109308285Y-39175378D01*
X109383403Y-39174578D01*
X109906640Y-39168916D01*
X109962377Y-38989000D01*
X109989619Y-38893916D01*
X110000684Y-38831692D01*
X109995203Y-38795914D01*
X109972806Y-38780170D01*
X109950213Y-38777657D01*
X109929013Y-38794633D01*
X109898060Y-38838393D01*
X109878408Y-38872719D01*
X109831332Y-38947812D01*
X109777402Y-39000768D01*
X109708576Y-39035095D01*
X109616812Y-39054305D01*
X109494068Y-39061907D01*
X109443638Y-39062471D01*
X109211166Y-39063083D01*
X109153069Y-38809083D01*
X109130688Y-38710344D01*
X109112140Y-38626822D01*
X109099294Y-38567054D01*
X109094017Y-38539576D01*
X109093986Y-38539208D01*
X109112053Y-38528971D01*
X109159844Y-38524718D01*
X109225243Y-38525965D01*
X109296139Y-38532229D01*
X109360416Y-38543027D01*
X109389333Y-38550986D01*
X109444457Y-38579878D01*
X109487698Y-38630409D01*
X109513287Y-38676791D01*
X109556871Y-38747734D01*
X109596366Y-38776607D01*
X109603245Y-38777333D01*
X109636463Y-38773485D01*
X109643333Y-38768627D01*
X109638846Y-38745741D01*
X109626677Y-38690326D01*
X109608766Y-38611076D01*
X109590250Y-38530502D01*
X109567614Y-38432597D01*
X109547637Y-38346053D01*
X109532793Y-38281600D01*
X109526347Y-38253458D01*
X109500950Y-38213662D01*
X109473596Y-38205833D01*
X109445982Y-38213192D01*
X109433893Y-38242644D01*
X109431666Y-38289300D01*
X109421484Y-38358143D01*
X109387443Y-38403639D01*
X109324296Y-38429260D01*
X109226801Y-38438480D01*
X109206133Y-38438666D01*
X109130687Y-38436422D01*
X109087679Y-38428002D01*
X109067373Y-38410876D01*
X109063602Y-38401625D01*
X109045011Y-38332927D01*
X109024303Y-38246097D01*
X109003371Y-38150561D01*
X108984107Y-38055743D01*
X108968404Y-37971066D01*
X108958155Y-37905957D01*
X108955252Y-37869840D01*
X108956070Y-37866109D01*
X108982672Y-37856245D01*
X109041460Y-37849838D01*
X109122434Y-37846838D01*
X109215591Y-37847196D01*
X109310931Y-37850860D01*
X109398452Y-37857782D01*
X109468153Y-37867910D01*
X109471886Y-37868691D01*
X109603987Y-37918199D01*
X109722178Y-38005200D01*
X109817814Y-38120815D01*
X109858801Y-38182245D01*
X109885137Y-38214204D01*
X109905237Y-38222720D01*
X109927516Y-38213819D01*
X109938313Y-38207118D01*
X109948765Y-38192535D01*
X109947186Y-38164513D01*
X109931612Y-38116620D01*
X109900079Y-38042427D01*
X109864229Y-37964484D01*
X109759750Y-37741085D01*
X109148943Y-37740626D01*
X108971427Y-37740681D01*
X108831908Y-37741305D01*
X108726053Y-37742737D01*
X108649526Y-37745215D01*
X108597994Y-37748980D01*
X108567121Y-37754271D01*
X108552574Y-37761326D01*
X108550017Y-37770387D01*
X108550985Y-37773648D01*
X108562192Y-37807390D01*
X108563833Y-37815981D01*
X108582460Y-37821851D01*
X108628217Y-37824764D01*
X108637428Y-37824833D01*
X108701899Y-37836089D01*
X108742767Y-37873279D01*
X108755774Y-37906470D01*
X108775847Y-37974136D01*
X108801361Y-38069320D01*
X108830689Y-38185066D01*
X108862207Y-38314417D01*
X108894290Y-38450415D01*
X108925314Y-38586105D01*
X108953652Y-38714529D01*
X108977681Y-38828731D01*
X108995775Y-38921754D01*
X109006309Y-38986641D01*
X109008333Y-39010193D01*
X108994594Y-39062955D01*
X108950681Y-39089781D01*
X108900768Y-39094833D01*
X108866686Y-39110586D01*
X108860166Y-39137536D01*
X108861437Y-39150741D01*
X108868526Y-39160829D01*
X108886343Y-39168148D01*
X108919802Y-39173046D01*
X108973813Y-39175870D01*
X109053290Y-39176968D01*
X109163143Y-39176688D01*
G37*
X109163143Y-39176688D02*
X109308285Y-39175378D01*
X109383403Y-39174578D01*
X109906640Y-39168916D01*
X109962377Y-38989000D01*
X109989619Y-38893916D01*
X110000684Y-38831692D01*
X109995203Y-38795914D01*
X109972806Y-38780170D01*
X109950213Y-38777657D01*
X109929013Y-38794633D01*
X109898060Y-38838393D01*
X109878408Y-38872719D01*
X109831332Y-38947812D01*
X109777402Y-39000768D01*
X109708576Y-39035095D01*
X109616812Y-39054305D01*
X109494068Y-39061907D01*
X109443638Y-39062471D01*
X109211166Y-39063083D01*
X109153069Y-38809083D01*
X109130688Y-38710344D01*
X109112140Y-38626822D01*
X109099294Y-38567054D01*
X109094017Y-38539576D01*
X109093986Y-38539208D01*
X109112053Y-38528971D01*
X109159844Y-38524718D01*
X109225243Y-38525965D01*
X109296139Y-38532229D01*
X109360416Y-38543027D01*
X109389333Y-38550986D01*
X109444457Y-38579878D01*
X109487698Y-38630409D01*
X109513287Y-38676791D01*
X109556871Y-38747734D01*
X109596366Y-38776607D01*
X109603245Y-38777333D01*
X109636463Y-38773485D01*
X109643333Y-38768627D01*
X109638846Y-38745741D01*
X109626677Y-38690326D01*
X109608766Y-38611076D01*
X109590250Y-38530502D01*
X109567614Y-38432597D01*
X109547637Y-38346053D01*
X109532793Y-38281600D01*
X109526347Y-38253458D01*
X109500950Y-38213662D01*
X109473596Y-38205833D01*
X109445982Y-38213192D01*
X109433893Y-38242644D01*
X109431666Y-38289300D01*
X109421484Y-38358143D01*
X109387443Y-38403639D01*
X109324296Y-38429260D01*
X109226801Y-38438480D01*
X109206133Y-38438666D01*
X109130687Y-38436422D01*
X109087679Y-38428002D01*
X109067373Y-38410876D01*
X109063602Y-38401625D01*
X109045011Y-38332927D01*
X109024303Y-38246097D01*
X109003371Y-38150561D01*
X108984107Y-38055743D01*
X108968404Y-37971066D01*
X108958155Y-37905957D01*
X108955252Y-37869840D01*
X108956070Y-37866109D01*
X108982672Y-37856245D01*
X109041460Y-37849838D01*
X109122434Y-37846838D01*
X109215591Y-37847196D01*
X109310931Y-37850860D01*
X109398452Y-37857782D01*
X109468153Y-37867910D01*
X109471886Y-37868691D01*
X109603987Y-37918199D01*
X109722178Y-38005200D01*
X109817814Y-38120815D01*
X109858801Y-38182245D01*
X109885137Y-38214204D01*
X109905237Y-38222720D01*
X109927516Y-38213819D01*
X109938313Y-38207118D01*
X109948765Y-38192535D01*
X109947186Y-38164513D01*
X109931612Y-38116620D01*
X109900079Y-38042427D01*
X109864229Y-37964484D01*
X109759750Y-37741085D01*
X109148943Y-37740626D01*
X108971427Y-37740681D01*
X108831908Y-37741305D01*
X108726053Y-37742737D01*
X108649526Y-37745215D01*
X108597994Y-37748980D01*
X108567121Y-37754271D01*
X108552574Y-37761326D01*
X108550017Y-37770387D01*
X108550985Y-37773648D01*
X108562192Y-37807390D01*
X108563833Y-37815981D01*
X108582460Y-37821851D01*
X108628217Y-37824764D01*
X108637428Y-37824833D01*
X108701899Y-37836089D01*
X108742767Y-37873279D01*
X108755774Y-37906470D01*
X108775847Y-37974136D01*
X108801361Y-38069320D01*
X108830689Y-38185066D01*
X108862207Y-38314417D01*
X108894290Y-38450415D01*
X108925314Y-38586105D01*
X108953652Y-38714529D01*
X108977681Y-38828731D01*
X108995775Y-38921754D01*
X109006309Y-38986641D01*
X109008333Y-39010193D01*
X108994594Y-39062955D01*
X108950681Y-39089781D01*
X108900768Y-39094833D01*
X108866686Y-39110586D01*
X108860166Y-39137536D01*
X108861437Y-39150741D01*
X108868526Y-39160829D01*
X108886343Y-39168148D01*
X108919802Y-39173046D01*
X108973813Y-39175870D01*
X109053290Y-39176968D01*
X109163143Y-39176688D01*
G36*
X112205970Y-39185673D02*
G01*
X112277724Y-39175020D01*
X112341711Y-39153348D01*
X112391813Y-39129305D01*
X112452388Y-39099473D01*
X112495626Y-39080924D01*
X112510654Y-39077535D01*
X112523594Y-39099318D01*
X112541044Y-39131875D01*
X112575095Y-39168447D01*
X112607411Y-39179500D01*
X112625975Y-39176547D01*
X112638015Y-39162709D01*
X112644932Y-39130513D01*
X112648122Y-39072488D01*
X112648984Y-38981163D01*
X112649000Y-38957250D01*
X112648631Y-38858340D01*
X112646422Y-38794226D01*
X112640715Y-38757368D01*
X112629853Y-38740228D01*
X112612181Y-38735268D01*
X112600156Y-38735000D01*
X112561432Y-38746948D01*
X112529052Y-38788450D01*
X112514198Y-38819122D01*
X112461447Y-38902095D01*
X112383914Y-38981224D01*
X112295909Y-39043825D01*
X112227049Y-39073633D01*
X112108014Y-39092504D01*
X111994665Y-39084843D01*
X111894038Y-39053861D01*
X111813169Y-39002765D01*
X111759093Y-38934764D01*
X111738845Y-38853069D01*
X111738833Y-38850954D01*
X111754826Y-38777256D01*
X111804766Y-38713006D01*
X111891594Y-38655442D01*
X111995265Y-38610207D01*
X112166828Y-38542418D01*
X112301218Y-38480831D01*
X112402597Y-38422514D01*
X112475129Y-38364536D01*
X112522978Y-38303967D01*
X112550305Y-38237874D01*
X112555232Y-38215956D01*
X112553940Y-38114925D01*
X112517503Y-38011126D01*
X112451533Y-37913233D01*
X112361642Y-37829921D01*
X112271541Y-37777458D01*
X112158311Y-37742871D01*
X112026331Y-37726734D01*
X111893637Y-37729828D01*
X111778267Y-37752933D01*
X111770140Y-37755736D01*
X111693628Y-37787854D01*
X111622221Y-37825269D01*
X111597333Y-37841253D01*
X111530801Y-37888628D01*
X111484924Y-37814397D01*
X111448598Y-37767649D01*
X111414147Y-37741904D01*
X111405962Y-37740166D01*
X111388744Y-37746174D01*
X111380898Y-37769983D01*
X111381235Y-37820275D01*
X111386372Y-37883041D01*
X111393783Y-37981249D01*
X111398748Y-38084720D01*
X111400016Y-38147625D01*
X111401500Y-38216317D01*
X111408421Y-38252774D01*
X111424810Y-38267074D01*
X111448693Y-38269333D01*
X111481481Y-38261532D01*
X111503994Y-38231340D01*
X111522638Y-38174298D01*
X111566354Y-38076254D01*
X111638844Y-37980723D01*
X111728088Y-37901547D01*
X111791750Y-37864323D01*
X111907287Y-37831738D01*
X112035219Y-37827819D01*
X112157043Y-37852351D01*
X112197734Y-37869015D01*
X112293307Y-37929219D01*
X112350605Y-38000854D01*
X112373174Y-38088757D01*
X112373833Y-38109446D01*
X112368831Y-38166052D01*
X112350751Y-38214489D01*
X112314982Y-38258135D01*
X112256911Y-38300365D01*
X112171927Y-38344554D01*
X112055419Y-38394079D01*
X111908166Y-38450320D01*
X111779978Y-38508340D01*
X111684418Y-38574218D01*
X111671797Y-38586070D01*
X111602206Y-38679589D01*
X111572343Y-38778675D01*
X111580922Y-38878404D01*
X111626658Y-38973853D01*
X111708264Y-39060099D01*
X111812916Y-39126583D01*
X111886316Y-39160231D01*
X111949707Y-39179324D01*
X112020935Y-39187619D01*
X112109250Y-39188936D01*
X112205970Y-39185673D01*
G37*
X112205970Y-39185673D02*
X112277724Y-39175020D01*
X112341711Y-39153348D01*
X112391813Y-39129305D01*
X112452388Y-39099473D01*
X112495626Y-39080924D01*
X112510654Y-39077535D01*
X112523594Y-39099318D01*
X112541044Y-39131875D01*
X112575095Y-39168447D01*
X112607411Y-39179500D01*
X112625975Y-39176547D01*
X112638015Y-39162709D01*
X112644932Y-39130513D01*
X112648122Y-39072488D01*
X112648984Y-38981163D01*
X112649000Y-38957250D01*
X112648631Y-38858340D01*
X112646422Y-38794226D01*
X112640715Y-38757368D01*
X112629853Y-38740228D01*
X112612181Y-38735268D01*
X112600156Y-38735000D01*
X112561432Y-38746948D01*
X112529052Y-38788450D01*
X112514198Y-38819122D01*
X112461447Y-38902095D01*
X112383914Y-38981224D01*
X112295909Y-39043825D01*
X112227049Y-39073633D01*
X112108014Y-39092504D01*
X111994665Y-39084843D01*
X111894038Y-39053861D01*
X111813169Y-39002765D01*
X111759093Y-38934764D01*
X111738845Y-38853069D01*
X111738833Y-38850954D01*
X111754826Y-38777256D01*
X111804766Y-38713006D01*
X111891594Y-38655442D01*
X111995265Y-38610207D01*
X112166828Y-38542418D01*
X112301218Y-38480831D01*
X112402597Y-38422514D01*
X112475129Y-38364536D01*
X112522978Y-38303967D01*
X112550305Y-38237874D01*
X112555232Y-38215956D01*
X112553940Y-38114925D01*
X112517503Y-38011126D01*
X112451533Y-37913233D01*
X112361642Y-37829921D01*
X112271541Y-37777458D01*
X112158311Y-37742871D01*
X112026331Y-37726734D01*
X111893637Y-37729828D01*
X111778267Y-37752933D01*
X111770140Y-37755736D01*
X111693628Y-37787854D01*
X111622221Y-37825269D01*
X111597333Y-37841253D01*
X111530801Y-37888628D01*
X111484924Y-37814397D01*
X111448598Y-37767649D01*
X111414147Y-37741904D01*
X111405962Y-37740166D01*
X111388744Y-37746174D01*
X111380898Y-37769983D01*
X111381235Y-37820275D01*
X111386372Y-37883041D01*
X111393783Y-37981249D01*
X111398748Y-38084720D01*
X111400016Y-38147625D01*
X111401500Y-38216317D01*
X111408421Y-38252774D01*
X111424810Y-38267074D01*
X111448693Y-38269333D01*
X111481481Y-38261532D01*
X111503994Y-38231340D01*
X111522638Y-38174298D01*
X111566354Y-38076254D01*
X111638844Y-37980723D01*
X111728088Y-37901547D01*
X111791750Y-37864323D01*
X111907287Y-37831738D01*
X112035219Y-37827819D01*
X112157043Y-37852351D01*
X112197734Y-37869015D01*
X112293307Y-37929219D01*
X112350605Y-38000854D01*
X112373174Y-38088757D01*
X112373833Y-38109446D01*
X112368831Y-38166052D01*
X112350751Y-38214489D01*
X112314982Y-38258135D01*
X112256911Y-38300365D01*
X112171927Y-38344554D01*
X112055419Y-38394079D01*
X111908166Y-38450320D01*
X111779978Y-38508340D01*
X111684418Y-38574218D01*
X111671797Y-38586070D01*
X111602206Y-38679589D01*
X111572343Y-38778675D01*
X111580922Y-38878404D01*
X111626658Y-38973853D01*
X111708264Y-39060099D01*
X111812916Y-39126583D01*
X111886316Y-39160231D01*
X111949707Y-39179324D01*
X112020935Y-39187619D01*
X112109250Y-39188936D01*
X112205970Y-39185673D01*
G36*
X115383971Y-38883747D02*
G01*
X115397485Y-38833443D01*
X115416667Y-38753205D01*
X115440295Y-38648839D01*
X115467146Y-38526153D01*
X115495997Y-38390953D01*
X115525628Y-38249046D01*
X115554816Y-38106241D01*
X115582338Y-37968343D01*
X115606972Y-37841161D01*
X115627497Y-37730500D01*
X115642689Y-37642169D01*
X115645583Y-37623784D01*
X115658557Y-37539151D01*
X115689038Y-37597326D01*
X115696818Y-37613135D01*
X115704609Y-37626181D01*
X115716168Y-37636591D01*
X115735256Y-37644492D01*
X115765631Y-37650010D01*
X115811054Y-37653274D01*
X115875284Y-37654408D01*
X115962080Y-37653541D01*
X116075202Y-37650800D01*
X116218410Y-37646311D01*
X116395462Y-37640200D01*
X116610118Y-37632596D01*
X116670666Y-37630456D01*
X116879556Y-37622486D01*
X117048878Y-37614748D01*
X117178335Y-37607322D01*
X117267626Y-37600284D01*
X117316453Y-37593712D01*
X117324518Y-37587684D01*
X117291520Y-37582277D01*
X117217161Y-37577569D01*
X117101142Y-37573637D01*
X116943164Y-37570560D01*
X116903500Y-37570015D01*
X116744382Y-37567431D01*
X116567316Y-37563673D01*
X116389645Y-37559165D01*
X116228715Y-37554325D01*
X116163069Y-37552030D01*
X115814222Y-37539083D01*
X115718990Y-37370180D01*
X115623757Y-37201277D01*
X115502428Y-37698263D01*
X115468298Y-37840238D01*
X115437814Y-37971203D01*
X115412403Y-38084685D01*
X115393492Y-38174209D01*
X115382509Y-38233302D01*
X115380299Y-38252209D01*
X115376586Y-38298995D01*
X115366694Y-38312974D01*
X115349859Y-38292599D01*
X115325315Y-38236323D01*
X115292296Y-38142599D01*
X115250037Y-38009881D01*
X115233358Y-37955371D01*
X115161559Y-37720782D01*
X115095192Y-37507746D01*
X115035062Y-37318646D01*
X114981973Y-37155869D01*
X114936732Y-37021799D01*
X114900142Y-36918822D01*
X114873009Y-36849324D01*
X114856138Y-36815688D01*
X114850333Y-36820302D01*
X114850333Y-36820309D01*
X114846451Y-36845226D01*
X114836212Y-36900332D01*
X114821721Y-36974339D01*
X114819717Y-36984351D01*
X114804881Y-37061778D01*
X114785396Y-37168462D01*
X114763504Y-37291888D01*
X114741444Y-37419544D01*
X114735258Y-37456024D01*
X114709556Y-37609777D01*
X114690016Y-37725410D01*
X114674927Y-37806394D01*
X114662575Y-37856205D01*
X114651249Y-37878315D01*
X114639235Y-37876198D01*
X114624822Y-37853327D01*
X114606297Y-37813175D01*
X114583808Y-37763219D01*
X114546364Y-37686885D01*
X114511352Y-37623202D01*
X114485484Y-37584249D01*
X114482581Y-37581057D01*
X114474281Y-37576647D01*
X114457306Y-37572662D01*
X114429649Y-37569080D01*
X114389305Y-37565882D01*
X114334270Y-37563047D01*
X114262538Y-37560553D01*
X114172103Y-37558379D01*
X114060962Y-37556505D01*
X113927107Y-37554911D01*
X113768535Y-37553574D01*
X113583241Y-37552475D01*
X113369218Y-37551592D01*
X113124462Y-37550904D01*
X112846967Y-37550391D01*
X112534729Y-37550032D01*
X112185741Y-37549805D01*
X111798000Y-37549691D01*
X111465178Y-37549666D01*
X108479166Y-37549666D01*
X108479166Y-37655500D01*
X114378775Y-37655500D01*
X114455804Y-37824012D01*
X114490307Y-37900425D01*
X114516821Y-37960924D01*
X114531307Y-37996212D01*
X114532833Y-38001284D01*
X114541326Y-38027412D01*
X114563761Y-38079323D01*
X114595571Y-38147731D01*
X114632190Y-38223354D01*
X114669049Y-38296907D01*
X114701584Y-38359105D01*
X114725226Y-38400665D01*
X114735200Y-38412688D01*
X114741786Y-38388720D01*
X114751858Y-38331343D01*
X114764034Y-38249202D01*
X114776700Y-38152835D01*
X114798393Y-37987440D01*
X114820650Y-37834856D01*
X114842627Y-37699470D01*
X114863483Y-37585669D01*
X114882374Y-37497840D01*
X114898459Y-37440369D01*
X114910895Y-37417644D01*
X114916701Y-37423829D01*
X114926625Y-37455821D01*
X114947455Y-37523193D01*
X114977625Y-37620870D01*
X115015568Y-37743778D01*
X115059718Y-37886842D01*
X115108507Y-38044988D01*
X115148325Y-38174083D01*
X115199354Y-38339028D01*
X115246850Y-38491566D01*
X115289282Y-38626858D01*
X115325119Y-38740061D01*
X115352832Y-38826337D01*
X115370888Y-38880843D01*
X115377346Y-38898309D01*
X115383971Y-38883747D01*
G37*
X115383971Y-38883747D02*
X115397485Y-38833443D01*
X115416667Y-38753205D01*
X115440295Y-38648839D01*
X115467146Y-38526153D01*
X115495997Y-38390953D01*
X115525628Y-38249046D01*
X115554816Y-38106241D01*
X115582338Y-37968343D01*
X115606972Y-37841161D01*
X115627497Y-37730500D01*
X115642689Y-37642169D01*
X115645583Y-37623784D01*
X115658557Y-37539151D01*
X115689038Y-37597326D01*
X115696818Y-37613135D01*
X115704609Y-37626181D01*
X115716168Y-37636591D01*
X115735256Y-37644492D01*
X115765631Y-37650010D01*
X115811054Y-37653274D01*
X115875284Y-37654408D01*
X115962080Y-37653541D01*
X116075202Y-37650800D01*
X116218410Y-37646311D01*
X116395462Y-37640200D01*
X116610118Y-37632596D01*
X116670666Y-37630456D01*
X116879556Y-37622486D01*
X117048878Y-37614748D01*
X117178335Y-37607322D01*
X117267626Y-37600284D01*
X117316453Y-37593712D01*
X117324518Y-37587684D01*
X117291520Y-37582277D01*
X117217161Y-37577569D01*
X117101142Y-37573637D01*
X116943164Y-37570560D01*
X116903500Y-37570015D01*
X116744382Y-37567431D01*
X116567316Y-37563673D01*
X116389645Y-37559165D01*
X116228715Y-37554325D01*
X116163069Y-37552030D01*
X115814222Y-37539083D01*
X115718990Y-37370180D01*
X115623757Y-37201277D01*
X115502428Y-37698263D01*
X115468298Y-37840238D01*
X115437814Y-37971203D01*
X115412403Y-38084685D01*
X115393492Y-38174209D01*
X115382509Y-38233302D01*
X115380299Y-38252209D01*
X115376586Y-38298995D01*
X115366694Y-38312974D01*
X115349859Y-38292599D01*
X115325315Y-38236323D01*
X115292296Y-38142599D01*
X115250037Y-38009881D01*
X115233358Y-37955371D01*
X115161559Y-37720782D01*
X115095192Y-37507746D01*
X115035062Y-37318646D01*
X114981973Y-37155869D01*
X114936732Y-37021799D01*
X114900142Y-36918822D01*
X114873009Y-36849324D01*
X114856138Y-36815688D01*
X114850333Y-36820302D01*
X114850333Y-36820309D01*
X114846451Y-36845226D01*
X114836212Y-36900332D01*
X114821721Y-36974339D01*
X114819717Y-36984351D01*
X114804881Y-37061778D01*
X114785396Y-37168462D01*
X114763504Y-37291888D01*
X114741444Y-37419544D01*
X114735258Y-37456024D01*
X114709556Y-37609777D01*
X114690016Y-37725410D01*
X114674927Y-37806394D01*
X114662575Y-37856205D01*
X114651249Y-37878315D01*
X114639235Y-37876198D01*
X114624822Y-37853327D01*
X114606297Y-37813175D01*
X114583808Y-37763219D01*
X114546364Y-37686885D01*
X114511352Y-37623202D01*
X114485484Y-37584249D01*
X114482581Y-37581057D01*
X114474281Y-37576647D01*
X114457306Y-37572662D01*
X114429649Y-37569080D01*
X114389305Y-37565882D01*
X114334270Y-37563047D01*
X114262538Y-37560553D01*
X114172103Y-37558379D01*
X114060962Y-37556505D01*
X113927107Y-37554911D01*
X113768535Y-37553574D01*
X113583241Y-37552475D01*
X113369218Y-37551592D01*
X113124462Y-37550904D01*
X112846967Y-37550391D01*
X112534729Y-37550032D01*
X112185741Y-37549805D01*
X111798000Y-37549691D01*
X111465178Y-37549666D01*
X108479166Y-37549666D01*
X108479166Y-37655500D01*
X114378775Y-37655500D01*
X114455804Y-37824012D01*
X114490307Y-37900425D01*
X114516821Y-37960924D01*
X114531307Y-37996212D01*
X114532833Y-38001284D01*
X114541326Y-38027412D01*
X114563761Y-38079323D01*
X114595571Y-38147731D01*
X114632190Y-38223354D01*
X114669049Y-38296907D01*
X114701584Y-38359105D01*
X114725226Y-38400665D01*
X114735200Y-38412688D01*
X114741786Y-38388720D01*
X114751858Y-38331343D01*
X114764034Y-38249202D01*
X114776700Y-38152835D01*
X114798393Y-37987440D01*
X114820650Y-37834856D01*
X114842627Y-37699470D01*
X114863483Y-37585669D01*
X114882374Y-37497840D01*
X114898459Y-37440369D01*
X114910895Y-37417644D01*
X114916701Y-37423829D01*
X114926625Y-37455821D01*
X114947455Y-37523193D01*
X114977625Y-37620870D01*
X115015568Y-37743778D01*
X115059718Y-37886842D01*
X115108507Y-38044988D01*
X115148325Y-38174083D01*
X115199354Y-38339028D01*
X115246850Y-38491566D01*
X115289282Y-38626858D01*
X115325119Y-38740061D01*
X115352832Y-38826337D01*
X115370888Y-38880843D01*
X115377346Y-38898309D01*
X115383971Y-38883747D01*
D12*
%TO.C,R9*%
X82084936Y-84301000D02*
X82539064Y-84301000D01*
X82084936Y-82831000D02*
X82539064Y-82831000D01*
%TO.C,U3*%
X87142000Y-78432000D02*
X87142000Y-80232000D01*
X83922000Y-80232000D02*
X83922000Y-77782000D01*
%TO.C,R7*%
X81307000Y-76353936D02*
X81307000Y-76808064D01*
X82777000Y-76353936D02*
X82777000Y-76808064D01*
%TO.C,R3*%
X82846936Y-74395000D02*
X83301064Y-74395000D01*
X82846936Y-72925000D02*
X83301064Y-72925000D01*
%TO.C,R2*%
X86402936Y-86968000D02*
X86857064Y-86968000D01*
X86402936Y-85498000D02*
X86857064Y-85498000D01*
%TO.C,R1*%
X86857064Y-82831000D02*
X86402936Y-82831000D01*
X86857064Y-84301000D02*
X86402936Y-84301000D01*
%TO.C,C9*%
X82789000Y-80365969D02*
X82789000Y-80162031D01*
X81549000Y-80365969D02*
X81549000Y-80162031D01*
%TO.C,C8*%
X85994000Y-74566531D02*
X85994000Y-74770469D01*
X87234000Y-74566531D02*
X87234000Y-74770469D01*
%TO.C,C7*%
X84945469Y-88026000D02*
X84741531Y-88026000D01*
X84945469Y-89266000D02*
X84741531Y-89266000D01*
%TO.C,R4*%
X103642936Y-102008000D02*
X104097064Y-102008000D01*
X103642936Y-103478000D02*
X104097064Y-103478000D01*
%TO.C,C1*%
X108171969Y-102250000D02*
X107968031Y-102250000D01*
X108171969Y-103490000D02*
X107968031Y-103490000D01*
%TO.C,C3*%
X104409000Y-125239031D02*
X104409000Y-125442969D01*
X105649000Y-125239031D02*
X105649000Y-125442969D01*
%TO.C,C5*%
X112174031Y-121651000D02*
X112377969Y-121651000D01*
X112174031Y-120411000D02*
X112377969Y-120411000D01*
%TO.C,R5*%
X88873000Y-106161064D02*
X88873000Y-105706936D01*
X87403000Y-106161064D02*
X87403000Y-105706936D01*
%TO.C,R8*%
X84863000Y-105706936D02*
X84863000Y-106161064D01*
X86333000Y-105706936D02*
X86333000Y-106161064D01*
%TO.C,C4*%
X106949000Y-125239031D02*
X106949000Y-125442969D01*
X108189000Y-125239031D02*
X108189000Y-125442969D01*
%TO.C,C2*%
X93722000Y-99086000D02*
X93722000Y-100286000D01*
X93722000Y-103606000D02*
X93722000Y-102406000D01*
X90266437Y-103606000D02*
X93722000Y-103606000D01*
X90266437Y-99086000D02*
X93722000Y-99086000D01*
X89202000Y-100150437D02*
X89202000Y-100286000D01*
X89202000Y-102541563D02*
X89202000Y-102406000D01*
X89202000Y-102541563D02*
X90266437Y-103606000D01*
X89202000Y-100150437D02*
X90266437Y-99086000D01*
X88462000Y-102906000D02*
X88962000Y-102906000D01*
X88712000Y-103156000D02*
X88712000Y-102656000D01*
%TO.C,BU9480F1*%
X89615500Y-113538000D02*
X89615500Y-116285500D01*
X89615500Y-116285500D02*
X89333000Y-116285500D01*
X89615500Y-113538000D02*
X89615500Y-110790500D01*
X89615500Y-110790500D02*
X89333000Y-110790500D01*
X84120500Y-113538000D02*
X84120500Y-116285500D01*
X84120500Y-116285500D02*
X84403000Y-116285500D01*
X84120500Y-113538000D02*
X84120500Y-110790500D01*
X84120500Y-110790500D02*
X84403000Y-110790500D01*
X84403000Y-110790500D02*
X84403000Y-109138000D01*
%TO.C,U2*%
X111262000Y-126492000D02*
X111262000Y-124542000D01*
X111262000Y-126492000D02*
X111262000Y-128442000D01*
X120132000Y-126492000D02*
X120132000Y-124542000D01*
X120132000Y-126492000D02*
X120132000Y-129942000D01*
%TO.C,U10*%
X103906000Y-95377000D02*
X103906000Y-93427000D01*
X103906000Y-95377000D02*
X103906000Y-97327000D01*
X114026000Y-95377000D02*
X114026000Y-93427000D01*
X114026000Y-95377000D02*
X114026000Y-98827000D01*
%TO.C,U1*%
X98445000Y-75184000D02*
X98445000Y-73234000D01*
X98445000Y-75184000D02*
X98445000Y-77134000D01*
X108565000Y-75184000D02*
X108565000Y-73234000D01*
X108565000Y-75184000D02*
X108565000Y-78634000D01*
%TO.C,U9*%
X86126000Y-94869000D02*
X86126000Y-92919000D01*
X86126000Y-94869000D02*
X86126000Y-96819000D01*
X96246000Y-94869000D02*
X96246000Y-92919000D01*
X96246000Y-94869000D02*
X96246000Y-98319000D01*
%TO.C,U8*%
X107188000Y-57805000D02*
X109138000Y-57805000D01*
X107188000Y-57805000D02*
X105238000Y-57805000D01*
X107188000Y-67925000D02*
X109138000Y-67925000D01*
X107188000Y-67925000D02*
X103738000Y-67925000D01*
%TO.C,U7*%
X85344000Y-57805000D02*
X87294000Y-57805000D01*
X85344000Y-57805000D02*
X83394000Y-57805000D01*
X85344000Y-67925000D02*
X87294000Y-67925000D01*
X85344000Y-67925000D02*
X81894000Y-67925000D01*
%TO.C,U6*%
X96393000Y-57805000D02*
X98343000Y-57805000D01*
X96393000Y-57805000D02*
X94443000Y-57805000D01*
X96393000Y-67925000D02*
X98343000Y-67925000D01*
X96393000Y-67925000D02*
X92943000Y-67925000D01*
%TO.C,C6*%
X84724000Y-101581969D02*
X84724000Y-101378031D01*
X85964000Y-101581969D02*
X85964000Y-101378031D01*
%TO.C,YMF288*%
X110533000Y-115747000D02*
X110288000Y-115747000D01*
X92413000Y-111887000D02*
X92413000Y-108027000D01*
X110533000Y-108027000D02*
X110288000Y-108027000D01*
X92413000Y-108027000D02*
X92658000Y-108027000D01*
X110533000Y-111887000D02*
X110533000Y-115747000D01*
X92658000Y-108027000D02*
X92658000Y-106212000D01*
X110533000Y-111887000D02*
X110533000Y-108027000D01*
X92413000Y-111887000D02*
X92413000Y-115747000D01*
X92413000Y-115747000D02*
X92658000Y-115747000D01*
%TO.C,X1*%
X95253000Y-125868000D02*
X95013000Y-125868000D01*
X95013000Y-125868000D02*
X95013000Y-124068000D01*
X87613000Y-124068000D02*
X87613000Y-125868000D01*
X92753000Y-122268000D02*
X89873000Y-122268000D01*
X89873000Y-127668000D02*
X92753000Y-127668000D01*
X92753000Y-127668000D02*
X92753000Y-129268000D01*
%TO.C,R14*%
X117321064Y-120296000D02*
X116866936Y-120296000D01*
X117321064Y-121766000D02*
X116866936Y-121766000D01*
%TO.C,R13*%
X106834000Y-128661936D02*
X106834000Y-129116064D01*
X108304000Y-128661936D02*
X108304000Y-129116064D01*
%TO.C,R12*%
X104294000Y-128661936D02*
X104294000Y-129116064D01*
X105764000Y-128661936D02*
X105764000Y-129116064D01*
%TO.C,J1*%
X97342000Y-45399000D02*
X94682000Y-45399000D01*
X97342000Y-42799000D02*
X97342000Y-45399000D01*
X94682000Y-42799000D02*
X94682000Y-45399000D01*
X97342000Y-42799000D02*
X94682000Y-42799000D01*
X97342000Y-41529000D02*
X97342000Y-40199000D01*
X97342000Y-40199000D02*
X96012000Y-40199000D01*
%TO.C,R9*%
D13*
X82478666Y-85668380D02*
X82812000Y-85192190D01*
X83050095Y-85668380D02*
X83050095Y-84668380D01*
X82669142Y-84668380D01*
X82573904Y-84716000D01*
X82526285Y-84763619D01*
X82478666Y-84858857D01*
X82478666Y-85001714D01*
X82526285Y-85096952D01*
X82573904Y-85144571D01*
X82669142Y-85192190D01*
X83050095Y-85192190D01*
X82002476Y-85668380D02*
X81812000Y-85668380D01*
X81716761Y-85620761D01*
X81669142Y-85573142D01*
X81573904Y-85430285D01*
X81526285Y-85239809D01*
X81526285Y-84858857D01*
X81573904Y-84763619D01*
X81621523Y-84716000D01*
X81716761Y-84668380D01*
X81907238Y-84668380D01*
X82002476Y-84716000D01*
X82050095Y-84763619D01*
X82097714Y-84858857D01*
X82097714Y-85096952D01*
X82050095Y-85192190D01*
X82002476Y-85239809D01*
X81907238Y-85287428D01*
X81716761Y-85287428D01*
X81621523Y-85239809D01*
X81573904Y-85192190D01*
X81526285Y-85096952D01*
%TO.C,U3*%
X82084380Y-78570095D02*
X82893904Y-78570095D01*
X82989142Y-78617714D01*
X83036761Y-78665333D01*
X83084380Y-78760571D01*
X83084380Y-78951047D01*
X83036761Y-79046285D01*
X82989142Y-79093904D01*
X82893904Y-79141523D01*
X82084380Y-79141523D01*
X82084380Y-79522476D02*
X82084380Y-80141523D01*
X82465333Y-79808190D01*
X82465333Y-79951047D01*
X82512952Y-80046285D01*
X82560571Y-80093904D01*
X82655809Y-80141523D01*
X82893904Y-80141523D01*
X82989142Y-80093904D01*
X83036761Y-80046285D01*
X83084380Y-79951047D01*
X83084380Y-79665333D01*
X83036761Y-79570095D01*
X82989142Y-79522476D01*
%TO.C,R7*%
X80844380Y-76414333D02*
X80368190Y-76081000D01*
X80844380Y-75842904D02*
X79844380Y-75842904D01*
X79844380Y-76223857D01*
X79892000Y-76319095D01*
X79939619Y-76366714D01*
X80034857Y-76414333D01*
X80177714Y-76414333D01*
X80272952Y-76366714D01*
X80320571Y-76319095D01*
X80368190Y-76223857D01*
X80368190Y-75842904D01*
X79844380Y-76747666D02*
X79844380Y-77414333D01*
X80844380Y-76985761D01*
%TO.C,R3*%
X83240666Y-75762380D02*
X83574000Y-75286190D01*
X83812095Y-75762380D02*
X83812095Y-74762380D01*
X83431142Y-74762380D01*
X83335904Y-74810000D01*
X83288285Y-74857619D01*
X83240666Y-74952857D01*
X83240666Y-75095714D01*
X83288285Y-75190952D01*
X83335904Y-75238571D01*
X83431142Y-75286190D01*
X83812095Y-75286190D01*
X82907333Y-74762380D02*
X82288285Y-74762380D01*
X82621619Y-75143333D01*
X82478761Y-75143333D01*
X82383523Y-75190952D01*
X82335904Y-75238571D01*
X82288285Y-75333809D01*
X82288285Y-75571904D01*
X82335904Y-75667142D01*
X82383523Y-75714761D01*
X82478761Y-75762380D01*
X82764476Y-75762380D01*
X82859714Y-75714761D01*
X82907333Y-75667142D01*
%TO.C,R2*%
X86796666Y-88335380D02*
X87130000Y-87859190D01*
X87368095Y-88335380D02*
X87368095Y-87335380D01*
X86987142Y-87335380D01*
X86891904Y-87383000D01*
X86844285Y-87430619D01*
X86796666Y-87525857D01*
X86796666Y-87668714D01*
X86844285Y-87763952D01*
X86891904Y-87811571D01*
X86987142Y-87859190D01*
X87368095Y-87859190D01*
X86415714Y-87430619D02*
X86368095Y-87383000D01*
X86272857Y-87335380D01*
X86034761Y-87335380D01*
X85939523Y-87383000D01*
X85891904Y-87430619D01*
X85844285Y-87525857D01*
X85844285Y-87621095D01*
X85891904Y-87763952D01*
X86463333Y-88335380D01*
X85844285Y-88335380D01*
%TO.C,R1*%
X86796666Y-82368380D02*
X87130000Y-81892190D01*
X87368095Y-82368380D02*
X87368095Y-81368380D01*
X86987142Y-81368380D01*
X86891904Y-81416000D01*
X86844285Y-81463619D01*
X86796666Y-81558857D01*
X86796666Y-81701714D01*
X86844285Y-81796952D01*
X86891904Y-81844571D01*
X86987142Y-81892190D01*
X87368095Y-81892190D01*
X85844285Y-82368380D02*
X86415714Y-82368380D01*
X86130000Y-82368380D02*
X86130000Y-81368380D01*
X86225238Y-81511238D01*
X86320476Y-81606476D01*
X86415714Y-81654095D01*
%TO.C,C9*%
X84016142Y-80097333D02*
X84063761Y-80049714D01*
X84111380Y-79906857D01*
X84111380Y-79811619D01*
X84063761Y-79668761D01*
X83968523Y-79573523D01*
X83873285Y-79525904D01*
X83682809Y-79478285D01*
X83539952Y-79478285D01*
X83349476Y-79525904D01*
X83254238Y-79573523D01*
X83159000Y-79668761D01*
X83111380Y-79811619D01*
X83111380Y-79906857D01*
X83159000Y-80049714D01*
X83206619Y-80097333D01*
X84111380Y-80573523D02*
X84111380Y-80764000D01*
X84063761Y-80859238D01*
X84016142Y-80906857D01*
X83873285Y-81002095D01*
X83682809Y-81049714D01*
X83301857Y-81049714D01*
X83206619Y-81002095D01*
X83159000Y-80954476D01*
X83111380Y-80859238D01*
X83111380Y-80668761D01*
X83159000Y-80573523D01*
X83206619Y-80525904D01*
X83301857Y-80478285D01*
X83539952Y-80478285D01*
X83635190Y-80525904D01*
X83682809Y-80573523D01*
X83730428Y-80668761D01*
X83730428Y-80859238D01*
X83682809Y-80954476D01*
X83635190Y-81002095D01*
X83539952Y-81049714D01*
%TO.C,C8*%
X85481142Y-74501833D02*
X85528761Y-74454214D01*
X85576380Y-74311357D01*
X85576380Y-74216119D01*
X85528761Y-74073261D01*
X85433523Y-73978023D01*
X85338285Y-73930404D01*
X85147809Y-73882785D01*
X85004952Y-73882785D01*
X84814476Y-73930404D01*
X84719238Y-73978023D01*
X84624000Y-74073261D01*
X84576380Y-74216119D01*
X84576380Y-74311357D01*
X84624000Y-74454214D01*
X84671619Y-74501833D01*
X85004952Y-75073261D02*
X84957333Y-74978023D01*
X84909714Y-74930404D01*
X84814476Y-74882785D01*
X84766857Y-74882785D01*
X84671619Y-74930404D01*
X84624000Y-74978023D01*
X84576380Y-75073261D01*
X84576380Y-75263738D01*
X84624000Y-75358976D01*
X84671619Y-75406595D01*
X84766857Y-75454214D01*
X84814476Y-75454214D01*
X84909714Y-75406595D01*
X84957333Y-75358976D01*
X85004952Y-75263738D01*
X85004952Y-75073261D01*
X85052571Y-74978023D01*
X85100190Y-74930404D01*
X85195428Y-74882785D01*
X85385904Y-74882785D01*
X85481142Y-74930404D01*
X85528761Y-74978023D01*
X85576380Y-75073261D01*
X85576380Y-75263738D01*
X85528761Y-75358976D01*
X85481142Y-75406595D01*
X85385904Y-75454214D01*
X85195428Y-75454214D01*
X85100190Y-75406595D01*
X85052571Y-75358976D01*
X85004952Y-75263738D01*
%TO.C,C7*%
X85010166Y-87513142D02*
X85057785Y-87560761D01*
X85200642Y-87608380D01*
X85295880Y-87608380D01*
X85438738Y-87560761D01*
X85533976Y-87465523D01*
X85581595Y-87370285D01*
X85629214Y-87179809D01*
X85629214Y-87036952D01*
X85581595Y-86846476D01*
X85533976Y-86751238D01*
X85438738Y-86656000D01*
X85295880Y-86608380D01*
X85200642Y-86608380D01*
X85057785Y-86656000D01*
X85010166Y-86703619D01*
X84676833Y-86608380D02*
X84010166Y-86608380D01*
X84438738Y-87608380D01*
%TO.C,R4*%
X104036666Y-104845380D02*
X104370000Y-104369190D01*
X104608095Y-104845380D02*
X104608095Y-103845380D01*
X104227142Y-103845380D01*
X104131904Y-103893000D01*
X104084285Y-103940619D01*
X104036666Y-104035857D01*
X104036666Y-104178714D01*
X104084285Y-104273952D01*
X104131904Y-104321571D01*
X104227142Y-104369190D01*
X104608095Y-104369190D01*
X103179523Y-104178714D02*
X103179523Y-104845380D01*
X103417619Y-103797761D02*
X103655714Y-104512047D01*
X103036666Y-104512047D01*
%TO.C,J8*%
X77176380Y-56435666D02*
X77890666Y-56435666D01*
X78033523Y-56388047D01*
X78128761Y-56292809D01*
X78176380Y-56149952D01*
X78176380Y-56054714D01*
X77604952Y-57054714D02*
X77557333Y-56959476D01*
X77509714Y-56911857D01*
X77414476Y-56864238D01*
X77366857Y-56864238D01*
X77271619Y-56911857D01*
X77224000Y-56959476D01*
X77176380Y-57054714D01*
X77176380Y-57245190D01*
X77224000Y-57340428D01*
X77271619Y-57388047D01*
X77366857Y-57435666D01*
X77414476Y-57435666D01*
X77509714Y-57388047D01*
X77557333Y-57340428D01*
X77604952Y-57245190D01*
X77604952Y-57054714D01*
X77652571Y-56959476D01*
X77700190Y-56911857D01*
X77795428Y-56864238D01*
X77985904Y-56864238D01*
X78081142Y-56911857D01*
X78128761Y-56959476D01*
X78176380Y-57054714D01*
X78176380Y-57245190D01*
X78128761Y-57340428D01*
X78081142Y-57388047D01*
X77985904Y-57435666D01*
X77795428Y-57435666D01*
X77700190Y-57388047D01*
X77652571Y-57340428D01*
X77604952Y-57245190D01*
%TO.C,J4*%
X121626380Y-57578666D02*
X122340666Y-57578666D01*
X122483523Y-57531047D01*
X122578761Y-57435809D01*
X122626380Y-57292952D01*
X122626380Y-57197714D01*
X121959714Y-58483428D02*
X122626380Y-58483428D01*
X121578761Y-58245333D02*
X122293047Y-58007238D01*
X122293047Y-58626285D01*
%TO.C,C1*%
X108236666Y-101737142D02*
X108284285Y-101784761D01*
X108427142Y-101832380D01*
X108522380Y-101832380D01*
X108665238Y-101784761D01*
X108760476Y-101689523D01*
X108808095Y-101594285D01*
X108855714Y-101403809D01*
X108855714Y-101260952D01*
X108808095Y-101070476D01*
X108760476Y-100975238D01*
X108665238Y-100880000D01*
X108522380Y-100832380D01*
X108427142Y-100832380D01*
X108284285Y-100880000D01*
X108236666Y-100927619D01*
X107284285Y-101832380D02*
X107855714Y-101832380D01*
X107570000Y-101832380D02*
X107570000Y-100832380D01*
X107665238Y-100975238D01*
X107760476Y-101070476D01*
X107855714Y-101118095D01*
%TO.C,C3*%
X103896142Y-125174333D02*
X103943761Y-125126714D01*
X103991380Y-124983857D01*
X103991380Y-124888619D01*
X103943761Y-124745761D01*
X103848523Y-124650523D01*
X103753285Y-124602904D01*
X103562809Y-124555285D01*
X103419952Y-124555285D01*
X103229476Y-124602904D01*
X103134238Y-124650523D01*
X103039000Y-124745761D01*
X102991380Y-124888619D01*
X102991380Y-124983857D01*
X103039000Y-125126714D01*
X103086619Y-125174333D01*
X102991380Y-125507666D02*
X102991380Y-126126714D01*
X103372333Y-125793380D01*
X103372333Y-125936238D01*
X103419952Y-126031476D01*
X103467571Y-126079095D01*
X103562809Y-126126714D01*
X103800904Y-126126714D01*
X103896142Y-126079095D01*
X103943761Y-126031476D01*
X103991380Y-125936238D01*
X103991380Y-125650523D01*
X103943761Y-125555285D01*
X103896142Y-125507666D01*
%TO.C,C5*%
X112442666Y-122878142D02*
X112490285Y-122925761D01*
X112633142Y-122973380D01*
X112728380Y-122973380D01*
X112871238Y-122925761D01*
X112966476Y-122830523D01*
X113014095Y-122735285D01*
X113061714Y-122544809D01*
X113061714Y-122401952D01*
X113014095Y-122211476D01*
X112966476Y-122116238D01*
X112871238Y-122021000D01*
X112728380Y-121973380D01*
X112633142Y-121973380D01*
X112490285Y-122021000D01*
X112442666Y-122068619D01*
X111537904Y-121973380D02*
X112014095Y-121973380D01*
X112061714Y-122449571D01*
X112014095Y-122401952D01*
X111918857Y-122354333D01*
X111680761Y-122354333D01*
X111585523Y-122401952D01*
X111537904Y-122449571D01*
X111490285Y-122544809D01*
X111490285Y-122782904D01*
X111537904Y-122878142D01*
X111585523Y-122925761D01*
X111680761Y-122973380D01*
X111918857Y-122973380D01*
X112014095Y-122925761D01*
X112061714Y-122878142D01*
%TO.C,R5*%
X90240380Y-105767333D02*
X89764190Y-105434000D01*
X90240380Y-105195904D02*
X89240380Y-105195904D01*
X89240380Y-105576857D01*
X89288000Y-105672095D01*
X89335619Y-105719714D01*
X89430857Y-105767333D01*
X89573714Y-105767333D01*
X89668952Y-105719714D01*
X89716571Y-105672095D01*
X89764190Y-105576857D01*
X89764190Y-105195904D01*
X89240380Y-106672095D02*
X89240380Y-106195904D01*
X89716571Y-106148285D01*
X89668952Y-106195904D01*
X89621333Y-106291142D01*
X89621333Y-106529238D01*
X89668952Y-106624476D01*
X89716571Y-106672095D01*
X89811809Y-106719714D01*
X90049904Y-106719714D01*
X90145142Y-106672095D01*
X90192761Y-106624476D01*
X90240380Y-106529238D01*
X90240380Y-106291142D01*
X90192761Y-106195904D01*
X90145142Y-106148285D01*
%TO.C,R8*%
X84400380Y-105767333D02*
X83924190Y-105434000D01*
X84400380Y-105195904D02*
X83400380Y-105195904D01*
X83400380Y-105576857D01*
X83448000Y-105672095D01*
X83495619Y-105719714D01*
X83590857Y-105767333D01*
X83733714Y-105767333D01*
X83828952Y-105719714D01*
X83876571Y-105672095D01*
X83924190Y-105576857D01*
X83924190Y-105195904D01*
X83828952Y-106338761D02*
X83781333Y-106243523D01*
X83733714Y-106195904D01*
X83638476Y-106148285D01*
X83590857Y-106148285D01*
X83495619Y-106195904D01*
X83448000Y-106243523D01*
X83400380Y-106338761D01*
X83400380Y-106529238D01*
X83448000Y-106624476D01*
X83495619Y-106672095D01*
X83590857Y-106719714D01*
X83638476Y-106719714D01*
X83733714Y-106672095D01*
X83781333Y-106624476D01*
X83828952Y-106529238D01*
X83828952Y-106338761D01*
X83876571Y-106243523D01*
X83924190Y-106195904D01*
X84019428Y-106148285D01*
X84209904Y-106148285D01*
X84305142Y-106195904D01*
X84352761Y-106243523D01*
X84400380Y-106338761D01*
X84400380Y-106529238D01*
X84352761Y-106624476D01*
X84305142Y-106672095D01*
X84209904Y-106719714D01*
X84019428Y-106719714D01*
X83924190Y-106672095D01*
X83876571Y-106624476D01*
X83828952Y-106529238D01*
%TO.C,C4*%
X106436142Y-125174333D02*
X106483761Y-125126714D01*
X106531380Y-124983857D01*
X106531380Y-124888619D01*
X106483761Y-124745761D01*
X106388523Y-124650523D01*
X106293285Y-124602904D01*
X106102809Y-124555285D01*
X105959952Y-124555285D01*
X105769476Y-124602904D01*
X105674238Y-124650523D01*
X105579000Y-124745761D01*
X105531380Y-124888619D01*
X105531380Y-124983857D01*
X105579000Y-125126714D01*
X105626619Y-125174333D01*
X105864714Y-126031476D02*
X106531380Y-126031476D01*
X105483761Y-125793380D02*
X106198047Y-125555285D01*
X106198047Y-126174333D01*
%TO.C,C2*%
X91628666Y-104903142D02*
X91676285Y-104950761D01*
X91819142Y-104998380D01*
X91914380Y-104998380D01*
X92057238Y-104950761D01*
X92152476Y-104855523D01*
X92200095Y-104760285D01*
X92247714Y-104569809D01*
X92247714Y-104426952D01*
X92200095Y-104236476D01*
X92152476Y-104141238D01*
X92057238Y-104046000D01*
X91914380Y-103998380D01*
X91819142Y-103998380D01*
X91676285Y-104046000D01*
X91628666Y-104093619D01*
X91247714Y-104093619D02*
X91200095Y-104046000D01*
X91104857Y-103998380D01*
X90866761Y-103998380D01*
X90771523Y-104046000D01*
X90723904Y-104093619D01*
X90676285Y-104188857D01*
X90676285Y-104284095D01*
X90723904Y-104426952D01*
X91295333Y-104998380D01*
X90676285Y-104998380D01*
%TO.C,BU9480F1*%
X83206571Y-110276095D02*
X83254190Y-110418952D01*
X83301809Y-110466571D01*
X83397047Y-110514190D01*
X83539904Y-110514190D01*
X83635142Y-110466571D01*
X83682761Y-110418952D01*
X83730380Y-110323714D01*
X83730380Y-109942761D01*
X82730380Y-109942761D01*
X82730380Y-110276095D01*
X82778000Y-110371333D01*
X82825619Y-110418952D01*
X82920857Y-110466571D01*
X83016095Y-110466571D01*
X83111333Y-110418952D01*
X83158952Y-110371333D01*
X83206571Y-110276095D01*
X83206571Y-109942761D01*
X82730380Y-110942761D02*
X83539904Y-110942761D01*
X83635142Y-110990380D01*
X83682761Y-111038000D01*
X83730380Y-111133238D01*
X83730380Y-111323714D01*
X83682761Y-111418952D01*
X83635142Y-111466571D01*
X83539904Y-111514190D01*
X82730380Y-111514190D01*
X83730380Y-112038000D02*
X83730380Y-112228476D01*
X83682761Y-112323714D01*
X83635142Y-112371333D01*
X83492285Y-112466571D01*
X83301809Y-112514190D01*
X82920857Y-112514190D01*
X82825619Y-112466571D01*
X82778000Y-112418952D01*
X82730380Y-112323714D01*
X82730380Y-112133238D01*
X82778000Y-112038000D01*
X82825619Y-111990380D01*
X82920857Y-111942761D01*
X83158952Y-111942761D01*
X83254190Y-111990380D01*
X83301809Y-112038000D01*
X83349428Y-112133238D01*
X83349428Y-112323714D01*
X83301809Y-112418952D01*
X83254190Y-112466571D01*
X83158952Y-112514190D01*
X83063714Y-113371333D02*
X83730380Y-113371333D01*
X82682761Y-113133238D02*
X83397047Y-112895142D01*
X83397047Y-113514190D01*
X83158952Y-114038000D02*
X83111333Y-113942761D01*
X83063714Y-113895142D01*
X82968476Y-113847523D01*
X82920857Y-113847523D01*
X82825619Y-113895142D01*
X82778000Y-113942761D01*
X82730380Y-114038000D01*
X82730380Y-114228476D01*
X82778000Y-114323714D01*
X82825619Y-114371333D01*
X82920857Y-114418952D01*
X82968476Y-114418952D01*
X83063714Y-114371333D01*
X83111333Y-114323714D01*
X83158952Y-114228476D01*
X83158952Y-114038000D01*
X83206571Y-113942761D01*
X83254190Y-113895142D01*
X83349428Y-113847523D01*
X83539904Y-113847523D01*
X83635142Y-113895142D01*
X83682761Y-113942761D01*
X83730380Y-114038000D01*
X83730380Y-114228476D01*
X83682761Y-114323714D01*
X83635142Y-114371333D01*
X83539904Y-114418952D01*
X83349428Y-114418952D01*
X83254190Y-114371333D01*
X83206571Y-114323714D01*
X83158952Y-114228476D01*
X82730380Y-115038000D02*
X82730380Y-115133238D01*
X82778000Y-115228476D01*
X82825619Y-115276095D01*
X82920857Y-115323714D01*
X83111333Y-115371333D01*
X83349428Y-115371333D01*
X83539904Y-115323714D01*
X83635142Y-115276095D01*
X83682761Y-115228476D01*
X83730380Y-115133238D01*
X83730380Y-115038000D01*
X83682761Y-114942761D01*
X83635142Y-114895142D01*
X83539904Y-114847523D01*
X83349428Y-114799904D01*
X83111333Y-114799904D01*
X82920857Y-114847523D01*
X82825619Y-114895142D01*
X82778000Y-114942761D01*
X82730380Y-115038000D01*
X83206571Y-116133238D02*
X83206571Y-115799904D01*
X83730380Y-115799904D02*
X82730380Y-115799904D01*
X82730380Y-116276095D01*
X83730380Y-117180857D02*
X83730380Y-116609428D01*
X83730380Y-116895142D02*
X82730380Y-116895142D01*
X82873238Y-116799904D01*
X82968476Y-116704666D01*
X83016095Y-116609428D01*
%TO.C,U2*%
X120429380Y-125730095D02*
X121238904Y-125730095D01*
X121334142Y-125777714D01*
X121381761Y-125825333D01*
X121429380Y-125920571D01*
X121429380Y-126111047D01*
X121381761Y-126206285D01*
X121334142Y-126253904D01*
X121238904Y-126301523D01*
X120429380Y-126301523D01*
X120524619Y-126730095D02*
X120477000Y-126777714D01*
X120429380Y-126872952D01*
X120429380Y-127111047D01*
X120477000Y-127206285D01*
X120524619Y-127253904D01*
X120619857Y-127301523D01*
X120715095Y-127301523D01*
X120857952Y-127253904D01*
X121429380Y-126682476D01*
X121429380Y-127301523D01*
X109869380Y-123372952D02*
X109869380Y-124039619D01*
X110869380Y-123611047D01*
X110202714Y-124849142D02*
X110869380Y-124849142D01*
X109821761Y-124611047D02*
X110536047Y-124372952D01*
X110536047Y-124992000D01*
X110869380Y-125849142D02*
X110869380Y-125372952D01*
X109869380Y-125372952D01*
X110821761Y-126134857D02*
X110869380Y-126277714D01*
X110869380Y-126515809D01*
X110821761Y-126611047D01*
X110774142Y-126658666D01*
X110678904Y-126706285D01*
X110583666Y-126706285D01*
X110488428Y-126658666D01*
X110440809Y-126611047D01*
X110393190Y-126515809D01*
X110345571Y-126325333D01*
X110297952Y-126230095D01*
X110250333Y-126182476D01*
X110155095Y-126134857D01*
X110059857Y-126134857D01*
X109964619Y-126182476D01*
X109917000Y-126230095D01*
X109869380Y-126325333D01*
X109869380Y-126563428D01*
X109917000Y-126706285D01*
X110869380Y-127658666D02*
X110869380Y-127087238D01*
X110869380Y-127372952D02*
X109869380Y-127372952D01*
X110012238Y-127277714D01*
X110107476Y-127182476D01*
X110155095Y-127087238D01*
X109869380Y-127992000D02*
X109869380Y-128611047D01*
X110250333Y-128277714D01*
X110250333Y-128420571D01*
X110297952Y-128515809D01*
X110345571Y-128563428D01*
X110440809Y-128611047D01*
X110678904Y-128611047D01*
X110774142Y-128563428D01*
X110821761Y-128515809D01*
X110869380Y-128420571D01*
X110869380Y-128134857D01*
X110821761Y-128039619D01*
X110774142Y-127992000D01*
X109964619Y-128992000D02*
X109917000Y-129039619D01*
X109869380Y-129134857D01*
X109869380Y-129372952D01*
X109917000Y-129468190D01*
X109964619Y-129515809D01*
X110059857Y-129563428D01*
X110155095Y-129563428D01*
X110297952Y-129515809D01*
X110869380Y-128944380D01*
X110869380Y-129563428D01*
%TO.C,U10*%
X114318380Y-94138904D02*
X115127904Y-94138904D01*
X115223142Y-94186523D01*
X115270761Y-94234142D01*
X115318380Y-94329380D01*
X115318380Y-94519857D01*
X115270761Y-94615095D01*
X115223142Y-94662714D01*
X115127904Y-94710333D01*
X114318380Y-94710333D01*
X115318380Y-95710333D02*
X115318380Y-95138904D01*
X115318380Y-95424619D02*
X114318380Y-95424619D01*
X114461238Y-95329380D01*
X114556476Y-95234142D01*
X114604095Y-95138904D01*
X114318380Y-96329380D02*
X114318380Y-96424619D01*
X114366000Y-96519857D01*
X114413619Y-96567476D01*
X114508857Y-96615095D01*
X114699333Y-96662714D01*
X114937428Y-96662714D01*
X115127904Y-96615095D01*
X115223142Y-96567476D01*
X115270761Y-96519857D01*
X115318380Y-96424619D01*
X115318380Y-96329380D01*
X115270761Y-96234142D01*
X115223142Y-96186523D01*
X115127904Y-96138904D01*
X114937428Y-96091285D01*
X114699333Y-96091285D01*
X114508857Y-96138904D01*
X114413619Y-96186523D01*
X114366000Y-96234142D01*
X114318380Y-96329380D01*
X102518380Y-92257952D02*
X102518380Y-92924619D01*
X103518380Y-92496047D01*
X102851714Y-93734142D02*
X103518380Y-93734142D01*
X102470761Y-93496047D02*
X103185047Y-93257952D01*
X103185047Y-93877000D01*
X103518380Y-94734142D02*
X103518380Y-94257952D01*
X102518380Y-94257952D01*
X103470761Y-95019857D02*
X103518380Y-95162714D01*
X103518380Y-95400809D01*
X103470761Y-95496047D01*
X103423142Y-95543666D01*
X103327904Y-95591285D01*
X103232666Y-95591285D01*
X103137428Y-95543666D01*
X103089809Y-95496047D01*
X103042190Y-95400809D01*
X102994571Y-95210333D01*
X102946952Y-95115095D01*
X102899333Y-95067476D01*
X102804095Y-95019857D01*
X102708857Y-95019857D01*
X102613619Y-95067476D01*
X102566000Y-95115095D01*
X102518380Y-95210333D01*
X102518380Y-95448428D01*
X102566000Y-95591285D01*
X102613619Y-95972238D02*
X102566000Y-96019857D01*
X102518380Y-96115095D01*
X102518380Y-96353190D01*
X102566000Y-96448428D01*
X102613619Y-96496047D01*
X102708857Y-96543666D01*
X102804095Y-96543666D01*
X102946952Y-96496047D01*
X103518380Y-95924619D01*
X103518380Y-96543666D01*
X102518380Y-97448428D02*
X102518380Y-96972238D01*
X102994571Y-96924619D01*
X102946952Y-96972238D01*
X102899333Y-97067476D01*
X102899333Y-97305571D01*
X102946952Y-97400809D01*
X102994571Y-97448428D01*
X103089809Y-97496047D01*
X103327904Y-97496047D01*
X103423142Y-97448428D01*
X103470761Y-97400809D01*
X103518380Y-97305571D01*
X103518380Y-97067476D01*
X103470761Y-96972238D01*
X103423142Y-96924619D01*
X102518380Y-97829380D02*
X102518380Y-98496047D01*
X103518380Y-98067476D01*
%TO.C,U1*%
X108857380Y-74422095D02*
X109666904Y-74422095D01*
X109762142Y-74469714D01*
X109809761Y-74517333D01*
X109857380Y-74612571D01*
X109857380Y-74803047D01*
X109809761Y-74898285D01*
X109762142Y-74945904D01*
X109666904Y-74993523D01*
X108857380Y-74993523D01*
X109857380Y-75993523D02*
X109857380Y-75422095D01*
X109857380Y-75707809D02*
X108857380Y-75707809D01*
X109000238Y-75612571D01*
X109095476Y-75517333D01*
X109143095Y-75422095D01*
X97057380Y-72064952D02*
X97057380Y-72731619D01*
X98057380Y-72303047D01*
X97390714Y-73541142D02*
X98057380Y-73541142D01*
X97009761Y-73303047D02*
X97724047Y-73064952D01*
X97724047Y-73684000D01*
X98057380Y-74541142D02*
X98057380Y-74064952D01*
X97057380Y-74064952D01*
X98009761Y-74826857D02*
X98057380Y-74969714D01*
X98057380Y-75207809D01*
X98009761Y-75303047D01*
X97962142Y-75350666D01*
X97866904Y-75398285D01*
X97771666Y-75398285D01*
X97676428Y-75350666D01*
X97628809Y-75303047D01*
X97581190Y-75207809D01*
X97533571Y-75017333D01*
X97485952Y-74922095D01*
X97438333Y-74874476D01*
X97343095Y-74826857D01*
X97247857Y-74826857D01*
X97152619Y-74874476D01*
X97105000Y-74922095D01*
X97057380Y-75017333D01*
X97057380Y-75255428D01*
X97105000Y-75398285D01*
X98057380Y-76350666D02*
X98057380Y-75779238D01*
X98057380Y-76064952D02*
X97057380Y-76064952D01*
X97200238Y-75969714D01*
X97295476Y-75874476D01*
X97343095Y-75779238D01*
X97057380Y-76684000D02*
X97057380Y-77303047D01*
X97438333Y-76969714D01*
X97438333Y-77112571D01*
X97485952Y-77207809D01*
X97533571Y-77255428D01*
X97628809Y-77303047D01*
X97866904Y-77303047D01*
X97962142Y-77255428D01*
X98009761Y-77207809D01*
X98057380Y-77112571D01*
X98057380Y-76826857D01*
X98009761Y-76731619D01*
X97962142Y-76684000D01*
X98057380Y-77779238D02*
X98057380Y-77969714D01*
X98009761Y-78064952D01*
X97962142Y-78112571D01*
X97819285Y-78207809D01*
X97628809Y-78255428D01*
X97247857Y-78255428D01*
X97152619Y-78207809D01*
X97105000Y-78160190D01*
X97057380Y-78064952D01*
X97057380Y-77874476D01*
X97105000Y-77779238D01*
X97152619Y-77731619D01*
X97247857Y-77684000D01*
X97485952Y-77684000D01*
X97581190Y-77731619D01*
X97628809Y-77779238D01*
X97676428Y-77874476D01*
X97676428Y-78064952D01*
X97628809Y-78160190D01*
X97581190Y-78207809D01*
X97485952Y-78255428D01*
%TO.C,U9*%
X95083380Y-94107095D02*
X95892904Y-94107095D01*
X95988142Y-94154714D01*
X96035761Y-94202333D01*
X96083380Y-94297571D01*
X96083380Y-94488047D01*
X96035761Y-94583285D01*
X95988142Y-94630904D01*
X95892904Y-94678523D01*
X95083380Y-94678523D01*
X96083380Y-95202333D02*
X96083380Y-95392809D01*
X96035761Y-95488047D01*
X95988142Y-95535666D01*
X95845285Y-95630904D01*
X95654809Y-95678523D01*
X95273857Y-95678523D01*
X95178619Y-95630904D01*
X95131000Y-95583285D01*
X95083380Y-95488047D01*
X95083380Y-95297571D01*
X95131000Y-95202333D01*
X95178619Y-95154714D01*
X95273857Y-95107095D01*
X95511952Y-95107095D01*
X95607190Y-95154714D01*
X95654809Y-95202333D01*
X95702428Y-95297571D01*
X95702428Y-95488047D01*
X95654809Y-95583285D01*
X95607190Y-95630904D01*
X95511952Y-95678523D01*
X84738380Y-91749952D02*
X84738380Y-92416619D01*
X85738380Y-91988047D01*
X85071714Y-93226142D02*
X85738380Y-93226142D01*
X84690761Y-92988047D02*
X85405047Y-92749952D01*
X85405047Y-93369000D01*
X85738380Y-94226142D02*
X85738380Y-93749952D01*
X84738380Y-93749952D01*
X85690761Y-94511857D02*
X85738380Y-94654714D01*
X85738380Y-94892809D01*
X85690761Y-94988047D01*
X85643142Y-95035666D01*
X85547904Y-95083285D01*
X85452666Y-95083285D01*
X85357428Y-95035666D01*
X85309809Y-94988047D01*
X85262190Y-94892809D01*
X85214571Y-94702333D01*
X85166952Y-94607095D01*
X85119333Y-94559476D01*
X85024095Y-94511857D01*
X84928857Y-94511857D01*
X84833619Y-94559476D01*
X84786000Y-94607095D01*
X84738380Y-94702333D01*
X84738380Y-94940428D01*
X84786000Y-95083285D01*
X84833619Y-95464238D02*
X84786000Y-95511857D01*
X84738380Y-95607095D01*
X84738380Y-95845190D01*
X84786000Y-95940428D01*
X84833619Y-95988047D01*
X84928857Y-96035666D01*
X85024095Y-96035666D01*
X85166952Y-95988047D01*
X85738380Y-95416619D01*
X85738380Y-96035666D01*
X84738380Y-96940428D02*
X84738380Y-96464238D01*
X85214571Y-96416619D01*
X85166952Y-96464238D01*
X85119333Y-96559476D01*
X85119333Y-96797571D01*
X85166952Y-96892809D01*
X85214571Y-96940428D01*
X85309809Y-96988047D01*
X85547904Y-96988047D01*
X85643142Y-96940428D01*
X85690761Y-96892809D01*
X85738380Y-96797571D01*
X85738380Y-96559476D01*
X85690761Y-96464238D01*
X85643142Y-96416619D01*
X84738380Y-97321380D02*
X84738380Y-97988047D01*
X85738380Y-97559476D01*
%TO.C,U8*%
X107949904Y-66762380D02*
X107949904Y-67571904D01*
X107902285Y-67667142D01*
X107854666Y-67714761D01*
X107759428Y-67762380D01*
X107568952Y-67762380D01*
X107473714Y-67714761D01*
X107426095Y-67667142D01*
X107378476Y-67571904D01*
X107378476Y-66762380D01*
X106759428Y-67190952D02*
X106854666Y-67143333D01*
X106902285Y-67095714D01*
X106949904Y-67000476D01*
X106949904Y-66952857D01*
X106902285Y-66857619D01*
X106854666Y-66810000D01*
X106759428Y-66762380D01*
X106568952Y-66762380D01*
X106473714Y-66810000D01*
X106426095Y-66857619D01*
X106378476Y-66952857D01*
X106378476Y-67000476D01*
X106426095Y-67095714D01*
X106473714Y-67143333D01*
X106568952Y-67190952D01*
X106759428Y-67190952D01*
X106854666Y-67238571D01*
X106902285Y-67286190D01*
X106949904Y-67381428D01*
X106949904Y-67571904D01*
X106902285Y-67667142D01*
X106854666Y-67714761D01*
X106759428Y-67762380D01*
X106568952Y-67762380D01*
X106473714Y-67714761D01*
X106426095Y-67667142D01*
X106378476Y-67571904D01*
X106378476Y-67381428D01*
X106426095Y-67286190D01*
X106473714Y-67238571D01*
X106568952Y-67190952D01*
X110307047Y-56417380D02*
X109640380Y-56417380D01*
X110068952Y-57417380D01*
X108830857Y-56750714D02*
X108830857Y-57417380D01*
X109068952Y-56369761D02*
X109307047Y-57084047D01*
X108688000Y-57084047D01*
X107830857Y-57417380D02*
X108307047Y-57417380D01*
X108307047Y-56417380D01*
X107545142Y-57369761D02*
X107402285Y-57417380D01*
X107164190Y-57417380D01*
X107068952Y-57369761D01*
X107021333Y-57322142D01*
X106973714Y-57226904D01*
X106973714Y-57131666D01*
X107021333Y-57036428D01*
X107068952Y-56988809D01*
X107164190Y-56941190D01*
X107354666Y-56893571D01*
X107449904Y-56845952D01*
X107497523Y-56798333D01*
X107545142Y-56703095D01*
X107545142Y-56607857D01*
X107497523Y-56512619D01*
X107449904Y-56465000D01*
X107354666Y-56417380D01*
X107116571Y-56417380D01*
X106973714Y-56465000D01*
X106592761Y-56512619D02*
X106545142Y-56465000D01*
X106449904Y-56417380D01*
X106211809Y-56417380D01*
X106116571Y-56465000D01*
X106068952Y-56512619D01*
X106021333Y-56607857D01*
X106021333Y-56703095D01*
X106068952Y-56845952D01*
X106640380Y-57417380D01*
X106021333Y-57417380D01*
X105116571Y-56417380D02*
X105592761Y-56417380D01*
X105640380Y-56893571D01*
X105592761Y-56845952D01*
X105497523Y-56798333D01*
X105259428Y-56798333D01*
X105164190Y-56845952D01*
X105116571Y-56893571D01*
X105068952Y-56988809D01*
X105068952Y-57226904D01*
X105116571Y-57322142D01*
X105164190Y-57369761D01*
X105259428Y-57417380D01*
X105497523Y-57417380D01*
X105592761Y-57369761D01*
X105640380Y-57322142D01*
X104735619Y-56417380D02*
X104068952Y-56417380D01*
X104497523Y-57417380D01*
%TO.C,U7*%
X86105904Y-68217380D02*
X86105904Y-69026904D01*
X86058285Y-69122142D01*
X86010666Y-69169761D01*
X85915428Y-69217380D01*
X85724952Y-69217380D01*
X85629714Y-69169761D01*
X85582095Y-69122142D01*
X85534476Y-69026904D01*
X85534476Y-68217380D01*
X85153523Y-68217380D02*
X84486857Y-68217380D01*
X84915428Y-69217380D01*
X88463047Y-56417380D02*
X87796380Y-56417380D01*
X88224952Y-57417380D01*
X86986857Y-56750714D02*
X86986857Y-57417380D01*
X87224952Y-56369761D02*
X87463047Y-57084047D01*
X86844000Y-57084047D01*
X85986857Y-57417380D02*
X86463047Y-57417380D01*
X86463047Y-56417380D01*
X85701142Y-57369761D02*
X85558285Y-57417380D01*
X85320190Y-57417380D01*
X85224952Y-57369761D01*
X85177333Y-57322142D01*
X85129714Y-57226904D01*
X85129714Y-57131666D01*
X85177333Y-57036428D01*
X85224952Y-56988809D01*
X85320190Y-56941190D01*
X85510666Y-56893571D01*
X85605904Y-56845952D01*
X85653523Y-56798333D01*
X85701142Y-56703095D01*
X85701142Y-56607857D01*
X85653523Y-56512619D01*
X85605904Y-56465000D01*
X85510666Y-56417380D01*
X85272571Y-56417380D01*
X85129714Y-56465000D01*
X84177333Y-57417380D02*
X84748761Y-57417380D01*
X84463047Y-57417380D02*
X84463047Y-56417380D01*
X84558285Y-56560238D01*
X84653523Y-56655476D01*
X84748761Y-56703095D01*
X83844000Y-56417380D02*
X83177333Y-56417380D01*
X83605904Y-57417380D01*
X82367809Y-56750714D02*
X82367809Y-57417380D01*
X82605904Y-56369761D02*
X82844000Y-57084047D01*
X82224952Y-57084047D01*
%TO.C,U6*%
X97154904Y-68217380D02*
X97154904Y-69026904D01*
X97107285Y-69122142D01*
X97059666Y-69169761D01*
X96964428Y-69217380D01*
X96773952Y-69217380D01*
X96678714Y-69169761D01*
X96631095Y-69122142D01*
X96583476Y-69026904D01*
X96583476Y-68217380D01*
X95678714Y-68217380D02*
X95869190Y-68217380D01*
X95964428Y-68265000D01*
X96012047Y-68312619D01*
X96107285Y-68455476D01*
X96154904Y-68645952D01*
X96154904Y-69026904D01*
X96107285Y-69122142D01*
X96059666Y-69169761D01*
X95964428Y-69217380D01*
X95773952Y-69217380D01*
X95678714Y-69169761D01*
X95631095Y-69122142D01*
X95583476Y-69026904D01*
X95583476Y-68788809D01*
X95631095Y-68693571D01*
X95678714Y-68645952D01*
X95773952Y-68598333D01*
X95964428Y-68598333D01*
X96059666Y-68645952D01*
X96107285Y-68693571D01*
X96154904Y-68788809D01*
X99512047Y-56417380D02*
X98845380Y-56417380D01*
X99273952Y-57417380D01*
X98035857Y-56750714D02*
X98035857Y-57417380D01*
X98273952Y-56369761D02*
X98512047Y-57084047D01*
X97893000Y-57084047D01*
X97035857Y-57417380D02*
X97512047Y-57417380D01*
X97512047Y-56417380D01*
X96750142Y-57369761D02*
X96607285Y-57417380D01*
X96369190Y-57417380D01*
X96273952Y-57369761D01*
X96226333Y-57322142D01*
X96178714Y-57226904D01*
X96178714Y-57131666D01*
X96226333Y-57036428D01*
X96273952Y-56988809D01*
X96369190Y-56941190D01*
X96559666Y-56893571D01*
X96654904Y-56845952D01*
X96702523Y-56798333D01*
X96750142Y-56703095D01*
X96750142Y-56607857D01*
X96702523Y-56512619D01*
X96654904Y-56465000D01*
X96559666Y-56417380D01*
X96321571Y-56417380D01*
X96178714Y-56465000D01*
X95226333Y-57417380D02*
X95797761Y-57417380D01*
X95512047Y-57417380D02*
X95512047Y-56417380D01*
X95607285Y-56560238D01*
X95702523Y-56655476D01*
X95797761Y-56703095D01*
X94893000Y-56417380D02*
X94226333Y-56417380D01*
X94654904Y-57417380D01*
X93416809Y-56750714D02*
X93416809Y-57417380D01*
X93654904Y-56369761D02*
X93893000Y-57084047D01*
X93273952Y-57084047D01*
%TO.C,C6*%
X87191142Y-101313333D02*
X87238761Y-101265714D01*
X87286380Y-101122857D01*
X87286380Y-101027619D01*
X87238761Y-100884761D01*
X87143523Y-100789523D01*
X87048285Y-100741904D01*
X86857809Y-100694285D01*
X86714952Y-100694285D01*
X86524476Y-100741904D01*
X86429238Y-100789523D01*
X86334000Y-100884761D01*
X86286380Y-101027619D01*
X86286380Y-101122857D01*
X86334000Y-101265714D01*
X86381619Y-101313333D01*
X86286380Y-102170476D02*
X86286380Y-101980000D01*
X86334000Y-101884761D01*
X86381619Y-101837142D01*
X86524476Y-101741904D01*
X86714952Y-101694285D01*
X87095904Y-101694285D01*
X87191142Y-101741904D01*
X87238761Y-101789523D01*
X87286380Y-101884761D01*
X87286380Y-102075238D01*
X87238761Y-102170476D01*
X87191142Y-102218095D01*
X87095904Y-102265714D01*
X86857809Y-102265714D01*
X86762571Y-102218095D01*
X86714952Y-102170476D01*
X86667333Y-102075238D01*
X86667333Y-101884761D01*
X86714952Y-101789523D01*
X86762571Y-101741904D01*
X86857809Y-101694285D01*
%TO.C,YMF288*%
X91289190Y-109458428D02*
X91765380Y-109458428D01*
X90765380Y-109125095D02*
X91289190Y-109458428D01*
X90765380Y-109791761D01*
X91765380Y-110125095D02*
X90765380Y-110125095D01*
X91479666Y-110458428D01*
X90765380Y-110791761D01*
X91765380Y-110791761D01*
X91241571Y-111601285D02*
X91241571Y-111267952D01*
X91765380Y-111267952D02*
X90765380Y-111267952D01*
X90765380Y-111744142D01*
X90860619Y-112077476D02*
X90813000Y-112125095D01*
X90765380Y-112220333D01*
X90765380Y-112458428D01*
X90813000Y-112553666D01*
X90860619Y-112601285D01*
X90955857Y-112648904D01*
X91051095Y-112648904D01*
X91193952Y-112601285D01*
X91765380Y-112029857D01*
X91765380Y-112648904D01*
X91193952Y-113220333D02*
X91146333Y-113125095D01*
X91098714Y-113077476D01*
X91003476Y-113029857D01*
X90955857Y-113029857D01*
X90860619Y-113077476D01*
X90813000Y-113125095D01*
X90765380Y-113220333D01*
X90765380Y-113410809D01*
X90813000Y-113506047D01*
X90860619Y-113553666D01*
X90955857Y-113601285D01*
X91003476Y-113601285D01*
X91098714Y-113553666D01*
X91146333Y-113506047D01*
X91193952Y-113410809D01*
X91193952Y-113220333D01*
X91241571Y-113125095D01*
X91289190Y-113077476D01*
X91384428Y-113029857D01*
X91574904Y-113029857D01*
X91670142Y-113077476D01*
X91717761Y-113125095D01*
X91765380Y-113220333D01*
X91765380Y-113410809D01*
X91717761Y-113506047D01*
X91670142Y-113553666D01*
X91574904Y-113601285D01*
X91384428Y-113601285D01*
X91289190Y-113553666D01*
X91241571Y-113506047D01*
X91193952Y-113410809D01*
X91193952Y-114172714D02*
X91146333Y-114077476D01*
X91098714Y-114029857D01*
X91003476Y-113982238D01*
X90955857Y-113982238D01*
X90860619Y-114029857D01*
X90813000Y-114077476D01*
X90765380Y-114172714D01*
X90765380Y-114363190D01*
X90813000Y-114458428D01*
X90860619Y-114506047D01*
X90955857Y-114553666D01*
X91003476Y-114553666D01*
X91098714Y-114506047D01*
X91146333Y-114458428D01*
X91193952Y-114363190D01*
X91193952Y-114172714D01*
X91241571Y-114077476D01*
X91289190Y-114029857D01*
X91384428Y-113982238D01*
X91574904Y-113982238D01*
X91670142Y-114029857D01*
X91717761Y-114077476D01*
X91765380Y-114172714D01*
X91765380Y-114363190D01*
X91717761Y-114458428D01*
X91670142Y-114506047D01*
X91574904Y-114553666D01*
X91384428Y-114553666D01*
X91289190Y-114506047D01*
X91241571Y-114458428D01*
X91193952Y-114363190D01*
%TO.C,X1*%
X92122523Y-119320380D02*
X91455857Y-120320380D01*
X91455857Y-119320380D02*
X92122523Y-120320380D01*
X90551095Y-120320380D02*
X91122523Y-120320380D01*
X90836809Y-120320380D02*
X90836809Y-119320380D01*
X90932047Y-119463238D01*
X91027285Y-119558476D01*
X91122523Y-119606095D01*
%TO.C,R14*%
X117736857Y-119833380D02*
X118070190Y-119357190D01*
X118308285Y-119833380D02*
X118308285Y-118833380D01*
X117927333Y-118833380D01*
X117832095Y-118881000D01*
X117784476Y-118928619D01*
X117736857Y-119023857D01*
X117736857Y-119166714D01*
X117784476Y-119261952D01*
X117832095Y-119309571D01*
X117927333Y-119357190D01*
X118308285Y-119357190D01*
X116784476Y-119833380D02*
X117355904Y-119833380D01*
X117070190Y-119833380D02*
X117070190Y-118833380D01*
X117165428Y-118976238D01*
X117260666Y-119071476D01*
X117355904Y-119119095D01*
X115927333Y-119166714D02*
X115927333Y-119833380D01*
X116165428Y-118785761D02*
X116403523Y-119500047D01*
X115784476Y-119500047D01*
%TO.C,R13*%
X106371380Y-128246142D02*
X105895190Y-127912809D01*
X106371380Y-127674714D02*
X105371380Y-127674714D01*
X105371380Y-128055666D01*
X105419000Y-128150904D01*
X105466619Y-128198523D01*
X105561857Y-128246142D01*
X105704714Y-128246142D01*
X105799952Y-128198523D01*
X105847571Y-128150904D01*
X105895190Y-128055666D01*
X105895190Y-127674714D01*
X106371380Y-129198523D02*
X106371380Y-128627095D01*
X106371380Y-128912809D02*
X105371380Y-128912809D01*
X105514238Y-128817571D01*
X105609476Y-128722333D01*
X105657095Y-128627095D01*
X105371380Y-129531857D02*
X105371380Y-130150904D01*
X105752333Y-129817571D01*
X105752333Y-129960428D01*
X105799952Y-130055666D01*
X105847571Y-130103285D01*
X105942809Y-130150904D01*
X106180904Y-130150904D01*
X106276142Y-130103285D01*
X106323761Y-130055666D01*
X106371380Y-129960428D01*
X106371380Y-129674714D01*
X106323761Y-129579476D01*
X106276142Y-129531857D01*
%TO.C,R12*%
X103831380Y-128246142D02*
X103355190Y-127912809D01*
X103831380Y-127674714D02*
X102831380Y-127674714D01*
X102831380Y-128055666D01*
X102879000Y-128150904D01*
X102926619Y-128198523D01*
X103021857Y-128246142D01*
X103164714Y-128246142D01*
X103259952Y-128198523D01*
X103307571Y-128150904D01*
X103355190Y-128055666D01*
X103355190Y-127674714D01*
X103831380Y-129198523D02*
X103831380Y-128627095D01*
X103831380Y-128912809D02*
X102831380Y-128912809D01*
X102974238Y-128817571D01*
X103069476Y-128722333D01*
X103117095Y-128627095D01*
X102926619Y-129579476D02*
X102879000Y-129627095D01*
X102831380Y-129722333D01*
X102831380Y-129960428D01*
X102879000Y-130055666D01*
X102926619Y-130103285D01*
X103021857Y-130150904D01*
X103117095Y-130150904D01*
X103259952Y-130103285D01*
X103831380Y-129531857D01*
X103831380Y-130150904D01*
%TO.C,J1*%
X96345333Y-38651380D02*
X96345333Y-39365666D01*
X96392952Y-39508523D01*
X96488190Y-39603761D01*
X96631047Y-39651380D01*
X96726285Y-39651380D01*
X95345333Y-39651380D02*
X95916761Y-39651380D01*
X95631047Y-39651380D02*
X95631047Y-38651380D01*
X95726285Y-38794238D01*
X95821523Y-38889476D01*
X95916761Y-38937095D01*
%TD*%
M02*
