%TF.GenerationSoftware,KiCad,Pcbnew,(5.1.8)-1*%
%TF.CreationDate,2021-03-10T17:43:25+01:00*%
%TF.ProjectId,Nes Sound Expansion,4e657320-536f-4756-9e64-20457870616e,rev?*%
%TF.SameCoordinates,Original*%
%TF.FileFunction,Paste,Bot*%
%TF.FilePolarity,Positive*%
%FSLAX46Y46*%
G04 Gerber Fmt 4.6, Leading zero omitted, Abs format (unit mm)*
G04 Created by KiCad (PCBNEW (5.1.8)-1) date 2021-03-10 17:43:25*
%MOMM*%
%LPD*%
G01*
G04 APERTURE LIST*
%ADD10R,1.700000X1.300000*%
%ADD11R,3.000000X1.980000*%
G04 APERTURE END LIST*
%TO.C,C1*%
G36*
G01*
X109016250Y-84252500D02*
X108153750Y-84252500D01*
G75*
G02*
X107945000Y-84043750I0J208750D01*
G01*
X107945000Y-83626250D01*
G75*
G02*
X108153750Y-83417500I208750J0D01*
G01*
X109016250Y-83417500D01*
G75*
G02*
X109225000Y-83626250I0J-208750D01*
G01*
X109225000Y-84043750D01*
G75*
G02*
X109016250Y-84252500I-208750J0D01*
G01*
G37*
G36*
G01*
X109016250Y-85507500D02*
X108153750Y-85507500D01*
G75*
G02*
X107945000Y-85298750I0J208750D01*
G01*
X107945000Y-84881250D01*
G75*
G02*
X108153750Y-84672500I208750J0D01*
G01*
X109016250Y-84672500D01*
G75*
G02*
X109225000Y-84881250I0J-208750D01*
G01*
X109225000Y-85298750D01*
G75*
G02*
X109016250Y-85507500I-208750J0D01*
G01*
G37*
%TD*%
%TO.C,C3*%
G36*
G01*
X111963750Y-109422000D02*
X112826250Y-109422000D01*
G75*
G02*
X113035000Y-109630750I0J-208750D01*
G01*
X113035000Y-110048250D01*
G75*
G02*
X112826250Y-110257000I-208750J0D01*
G01*
X111963750Y-110257000D01*
G75*
G02*
X111755000Y-110048250I0J208750D01*
G01*
X111755000Y-109630750D01*
G75*
G02*
X111963750Y-109422000I208750J0D01*
G01*
G37*
G36*
G01*
X111963750Y-108167000D02*
X112826250Y-108167000D01*
G75*
G02*
X113035000Y-108375750I0J-208750D01*
G01*
X113035000Y-108793250D01*
G75*
G02*
X112826250Y-109002000I-208750J0D01*
G01*
X111963750Y-109002000D01*
G75*
G02*
X111755000Y-108793250I0J208750D01*
G01*
X111755000Y-108375750D01*
G75*
G02*
X111963750Y-108167000I208750J0D01*
G01*
G37*
%TD*%
%TO.C,C5*%
G36*
G01*
X110693750Y-92292500D02*
X111556250Y-92292500D01*
G75*
G02*
X111765000Y-92501250I0J-208750D01*
G01*
X111765000Y-92918750D01*
G75*
G02*
X111556250Y-93127500I-208750J0D01*
G01*
X110693750Y-93127500D01*
G75*
G02*
X110485000Y-92918750I0J208750D01*
G01*
X110485000Y-92501250D01*
G75*
G02*
X110693750Y-92292500I208750J0D01*
G01*
G37*
G36*
G01*
X110693750Y-91037500D02*
X111556250Y-91037500D01*
G75*
G02*
X111765000Y-91246250I0J-208750D01*
G01*
X111765000Y-91663750D01*
G75*
G02*
X111556250Y-91872500I-208750J0D01*
G01*
X110693750Y-91872500D01*
G75*
G02*
X110485000Y-91663750I0J208750D01*
G01*
X110485000Y-91246250D01*
G75*
G02*
X110693750Y-91037500I208750J0D01*
G01*
G37*
%TD*%
%TO.C,R5*%
G36*
G01*
X87179999Y-91475000D02*
X88080001Y-91475000D01*
G75*
G02*
X88330000Y-91724999I0J-249999D01*
G01*
X88330000Y-92425001D01*
G75*
G02*
X88080001Y-92675000I-249999J0D01*
G01*
X87179999Y-92675000D01*
G75*
G02*
X86930000Y-92425001I0J249999D01*
G01*
X86930000Y-91724999D01*
G75*
G02*
X87179999Y-91475000I249999J0D01*
G01*
G37*
G36*
G01*
X87179999Y-89475000D02*
X88080001Y-89475000D01*
G75*
G02*
X88330000Y-89724999I0J-249999D01*
G01*
X88330000Y-90425001D01*
G75*
G02*
X88080001Y-90675000I-249999J0D01*
G01*
X87179999Y-90675000D01*
G75*
G02*
X86930000Y-90425001I0J249999D01*
G01*
X86930000Y-89724999D01*
G75*
G02*
X87179999Y-89475000I249999J0D01*
G01*
G37*
%TD*%
%TO.C,R8*%
G36*
G01*
X85540001Y-90675000D02*
X84639999Y-90675000D01*
G75*
G02*
X84390000Y-90425001I0J249999D01*
G01*
X84390000Y-89724999D01*
G75*
G02*
X84639999Y-89475000I249999J0D01*
G01*
X85540001Y-89475000D01*
G75*
G02*
X85790000Y-89724999I0J-249999D01*
G01*
X85790000Y-90425001D01*
G75*
G02*
X85540001Y-90675000I-249999J0D01*
G01*
G37*
G36*
G01*
X85540001Y-92675000D02*
X84639999Y-92675000D01*
G75*
G02*
X84390000Y-92425001I0J249999D01*
G01*
X84390000Y-91724999D01*
G75*
G02*
X84639999Y-91475000I249999J0D01*
G01*
X85540001Y-91475000D01*
G75*
G02*
X85790000Y-91724999I0J-249999D01*
G01*
X85790000Y-92425001D01*
G75*
G02*
X85540001Y-92675000I-249999J0D01*
G01*
G37*
%TD*%
%TO.C,C4*%
G36*
G01*
X114503750Y-109422000D02*
X115366250Y-109422000D01*
G75*
G02*
X115575000Y-109630750I0J-208750D01*
G01*
X115575000Y-110048250D01*
G75*
G02*
X115366250Y-110257000I-208750J0D01*
G01*
X114503750Y-110257000D01*
G75*
G02*
X114295000Y-110048250I0J208750D01*
G01*
X114295000Y-109630750D01*
G75*
G02*
X114503750Y-109422000I208750J0D01*
G01*
G37*
G36*
G01*
X114503750Y-108167000D02*
X115366250Y-108167000D01*
G75*
G02*
X115575000Y-108375750I0J-208750D01*
G01*
X115575000Y-108793250D01*
G75*
G02*
X115366250Y-109002000I-208750J0D01*
G01*
X114503750Y-109002000D01*
G75*
G02*
X114295000Y-108793250I0J208750D01*
G01*
X114295000Y-108375750D01*
G75*
G02*
X114503750Y-108167000I208750J0D01*
G01*
G37*
%TD*%
%TO.C,C2*%
G36*
G01*
X90035000Y-86275000D02*
X90035000Y-85175000D01*
G75*
G02*
X90285000Y-84925000I250000J0D01*
G01*
X92385000Y-84925000D01*
G75*
G02*
X92635000Y-85175000I0J-250000D01*
G01*
X92635000Y-86275000D01*
G75*
G02*
X92385000Y-86525000I-250000J0D01*
G01*
X90285000Y-86525000D01*
G75*
G02*
X90035000Y-86275000I0J250000D01*
G01*
G37*
G36*
G01*
X86435000Y-86275000D02*
X86435000Y-85175000D01*
G75*
G02*
X86685000Y-84925000I250000J0D01*
G01*
X88785000Y-84925000D01*
G75*
G02*
X89035000Y-85175000I0J-250000D01*
G01*
X89035000Y-86275000D01*
G75*
G02*
X88785000Y-86525000I-250000J0D01*
G01*
X86685000Y-86525000D01*
G75*
G02*
X86435000Y-86275000I0J250000D01*
G01*
G37*
%TD*%
%TO.C,BU9480F1*%
G36*
G01*
X84940000Y-101225000D02*
X85240000Y-101225000D01*
G75*
G02*
X85390000Y-101375000I0J-150000D01*
G01*
X85390000Y-102675000D01*
G75*
G02*
X85240000Y-102825000I-150000J0D01*
G01*
X84940000Y-102825000D01*
G75*
G02*
X84790000Y-102675000I0J150000D01*
G01*
X84790000Y-101375000D01*
G75*
G02*
X84940000Y-101225000I150000J0D01*
G01*
G37*
G36*
G01*
X86210000Y-101225000D02*
X86510000Y-101225000D01*
G75*
G02*
X86660000Y-101375000I0J-150000D01*
G01*
X86660000Y-102675000D01*
G75*
G02*
X86510000Y-102825000I-150000J0D01*
G01*
X86210000Y-102825000D01*
G75*
G02*
X86060000Y-102675000I0J150000D01*
G01*
X86060000Y-101375000D01*
G75*
G02*
X86210000Y-101225000I150000J0D01*
G01*
G37*
G36*
G01*
X87480000Y-101225000D02*
X87780000Y-101225000D01*
G75*
G02*
X87930000Y-101375000I0J-150000D01*
G01*
X87930000Y-102675000D01*
G75*
G02*
X87780000Y-102825000I-150000J0D01*
G01*
X87480000Y-102825000D01*
G75*
G02*
X87330000Y-102675000I0J150000D01*
G01*
X87330000Y-101375000D01*
G75*
G02*
X87480000Y-101225000I150000J0D01*
G01*
G37*
G36*
G01*
X88750000Y-101225000D02*
X89050000Y-101225000D01*
G75*
G02*
X89200000Y-101375000I0J-150000D01*
G01*
X89200000Y-102675000D01*
G75*
G02*
X89050000Y-102825000I-150000J0D01*
G01*
X88750000Y-102825000D01*
G75*
G02*
X88600000Y-102675000I0J150000D01*
G01*
X88600000Y-101375000D01*
G75*
G02*
X88750000Y-101225000I150000J0D01*
G01*
G37*
G36*
G01*
X88750000Y-94025000D02*
X89050000Y-94025000D01*
G75*
G02*
X89200000Y-94175000I0J-150000D01*
G01*
X89200000Y-95475000D01*
G75*
G02*
X89050000Y-95625000I-150000J0D01*
G01*
X88750000Y-95625000D01*
G75*
G02*
X88600000Y-95475000I0J150000D01*
G01*
X88600000Y-94175000D01*
G75*
G02*
X88750000Y-94025000I150000J0D01*
G01*
G37*
G36*
G01*
X87480000Y-94025000D02*
X87780000Y-94025000D01*
G75*
G02*
X87930000Y-94175000I0J-150000D01*
G01*
X87930000Y-95475000D01*
G75*
G02*
X87780000Y-95625000I-150000J0D01*
G01*
X87480000Y-95625000D01*
G75*
G02*
X87330000Y-95475000I0J150000D01*
G01*
X87330000Y-94175000D01*
G75*
G02*
X87480000Y-94025000I150000J0D01*
G01*
G37*
G36*
G01*
X86210000Y-94025000D02*
X86510000Y-94025000D01*
G75*
G02*
X86660000Y-94175000I0J-150000D01*
G01*
X86660000Y-95475000D01*
G75*
G02*
X86510000Y-95625000I-150000J0D01*
G01*
X86210000Y-95625000D01*
G75*
G02*
X86060000Y-95475000I0J150000D01*
G01*
X86060000Y-94175000D01*
G75*
G02*
X86210000Y-94025000I150000J0D01*
G01*
G37*
G36*
G01*
X84940000Y-94025000D02*
X85240000Y-94025000D01*
G75*
G02*
X85390000Y-94175000I0J-150000D01*
G01*
X85390000Y-95475000D01*
G75*
G02*
X85240000Y-95625000I-150000J0D01*
G01*
X84940000Y-95625000D01*
G75*
G02*
X84790000Y-95475000I0J150000D01*
G01*
X84790000Y-94175000D01*
G75*
G02*
X84940000Y-94025000I150000J0D01*
G01*
G37*
%TD*%
%TO.C,U2*%
G36*
G01*
X120165000Y-102005000D02*
X119865000Y-102005000D01*
G75*
G02*
X119715000Y-101855000I0J150000D01*
G01*
X119715000Y-100205000D01*
G75*
G02*
X119865000Y-100055000I150000J0D01*
G01*
X120165000Y-100055000D01*
G75*
G02*
X120315000Y-100205000I0J-150000D01*
G01*
X120315000Y-101855000D01*
G75*
G02*
X120165000Y-102005000I-150000J0D01*
G01*
G37*
G36*
G01*
X118895000Y-102005000D02*
X118595000Y-102005000D01*
G75*
G02*
X118445000Y-101855000I0J150000D01*
G01*
X118445000Y-100205000D01*
G75*
G02*
X118595000Y-100055000I150000J0D01*
G01*
X118895000Y-100055000D01*
G75*
G02*
X119045000Y-100205000I0J-150000D01*
G01*
X119045000Y-101855000D01*
G75*
G02*
X118895000Y-102005000I-150000J0D01*
G01*
G37*
G36*
G01*
X117625000Y-102005000D02*
X117325000Y-102005000D01*
G75*
G02*
X117175000Y-101855000I0J150000D01*
G01*
X117175000Y-100205000D01*
G75*
G02*
X117325000Y-100055000I150000J0D01*
G01*
X117625000Y-100055000D01*
G75*
G02*
X117775000Y-100205000I0J-150000D01*
G01*
X117775000Y-101855000D01*
G75*
G02*
X117625000Y-102005000I-150000J0D01*
G01*
G37*
G36*
G01*
X116355000Y-102005000D02*
X116055000Y-102005000D01*
G75*
G02*
X115905000Y-101855000I0J150000D01*
G01*
X115905000Y-100205000D01*
G75*
G02*
X116055000Y-100055000I150000J0D01*
G01*
X116355000Y-100055000D01*
G75*
G02*
X116505000Y-100205000I0J-150000D01*
G01*
X116505000Y-101855000D01*
G75*
G02*
X116355000Y-102005000I-150000J0D01*
G01*
G37*
G36*
G01*
X115085000Y-102005000D02*
X114785000Y-102005000D01*
G75*
G02*
X114635000Y-101855000I0J150000D01*
G01*
X114635000Y-100205000D01*
G75*
G02*
X114785000Y-100055000I150000J0D01*
G01*
X115085000Y-100055000D01*
G75*
G02*
X115235000Y-100205000I0J-150000D01*
G01*
X115235000Y-101855000D01*
G75*
G02*
X115085000Y-102005000I-150000J0D01*
G01*
G37*
G36*
G01*
X113815000Y-102005000D02*
X113515000Y-102005000D01*
G75*
G02*
X113365000Y-101855000I0J150000D01*
G01*
X113365000Y-100205000D01*
G75*
G02*
X113515000Y-100055000I150000J0D01*
G01*
X113815000Y-100055000D01*
G75*
G02*
X113965000Y-100205000I0J-150000D01*
G01*
X113965000Y-101855000D01*
G75*
G02*
X113815000Y-102005000I-150000J0D01*
G01*
G37*
G36*
G01*
X112545000Y-102005000D02*
X112245000Y-102005000D01*
G75*
G02*
X112095000Y-101855000I0J150000D01*
G01*
X112095000Y-100205000D01*
G75*
G02*
X112245000Y-100055000I150000J0D01*
G01*
X112545000Y-100055000D01*
G75*
G02*
X112695000Y-100205000I0J-150000D01*
G01*
X112695000Y-101855000D01*
G75*
G02*
X112545000Y-102005000I-150000J0D01*
G01*
G37*
G36*
G01*
X112545000Y-106955000D02*
X112245000Y-106955000D01*
G75*
G02*
X112095000Y-106805000I0J150000D01*
G01*
X112095000Y-105155000D01*
G75*
G02*
X112245000Y-105005000I150000J0D01*
G01*
X112545000Y-105005000D01*
G75*
G02*
X112695000Y-105155000I0J-150000D01*
G01*
X112695000Y-106805000D01*
G75*
G02*
X112545000Y-106955000I-150000J0D01*
G01*
G37*
G36*
G01*
X113815000Y-106955000D02*
X113515000Y-106955000D01*
G75*
G02*
X113365000Y-106805000I0J150000D01*
G01*
X113365000Y-105155000D01*
G75*
G02*
X113515000Y-105005000I150000J0D01*
G01*
X113815000Y-105005000D01*
G75*
G02*
X113965000Y-105155000I0J-150000D01*
G01*
X113965000Y-106805000D01*
G75*
G02*
X113815000Y-106955000I-150000J0D01*
G01*
G37*
G36*
G01*
X115085000Y-106955000D02*
X114785000Y-106955000D01*
G75*
G02*
X114635000Y-106805000I0J150000D01*
G01*
X114635000Y-105155000D01*
G75*
G02*
X114785000Y-105005000I150000J0D01*
G01*
X115085000Y-105005000D01*
G75*
G02*
X115235000Y-105155000I0J-150000D01*
G01*
X115235000Y-106805000D01*
G75*
G02*
X115085000Y-106955000I-150000J0D01*
G01*
G37*
G36*
G01*
X116355000Y-106955000D02*
X116055000Y-106955000D01*
G75*
G02*
X115905000Y-106805000I0J150000D01*
G01*
X115905000Y-105155000D01*
G75*
G02*
X116055000Y-105005000I150000J0D01*
G01*
X116355000Y-105005000D01*
G75*
G02*
X116505000Y-105155000I0J-150000D01*
G01*
X116505000Y-106805000D01*
G75*
G02*
X116355000Y-106955000I-150000J0D01*
G01*
G37*
G36*
G01*
X117625000Y-106955000D02*
X117325000Y-106955000D01*
G75*
G02*
X117175000Y-106805000I0J150000D01*
G01*
X117175000Y-105155000D01*
G75*
G02*
X117325000Y-105005000I150000J0D01*
G01*
X117625000Y-105005000D01*
G75*
G02*
X117775000Y-105155000I0J-150000D01*
G01*
X117775000Y-106805000D01*
G75*
G02*
X117625000Y-106955000I-150000J0D01*
G01*
G37*
G36*
G01*
X118895000Y-106955000D02*
X118595000Y-106955000D01*
G75*
G02*
X118445000Y-106805000I0J150000D01*
G01*
X118445000Y-105155000D01*
G75*
G02*
X118595000Y-105005000I150000J0D01*
G01*
X118895000Y-105005000D01*
G75*
G02*
X119045000Y-105155000I0J-150000D01*
G01*
X119045000Y-106805000D01*
G75*
G02*
X118895000Y-106955000I-150000J0D01*
G01*
G37*
G36*
G01*
X120165000Y-106955000D02*
X119865000Y-106955000D01*
G75*
G02*
X119715000Y-106805000I0J150000D01*
G01*
X119715000Y-105155000D01*
G75*
G02*
X119865000Y-105005000I150000J0D01*
G01*
X120165000Y-105005000D01*
G75*
G02*
X120315000Y-105155000I0J-150000D01*
G01*
X120315000Y-106805000D01*
G75*
G02*
X120165000Y-106955000I-150000J0D01*
G01*
G37*
%TD*%
%TO.C,U10*%
G36*
G01*
X115085000Y-62635000D02*
X114785000Y-62635000D01*
G75*
G02*
X114635000Y-62485000I0J150000D01*
G01*
X114635000Y-60835000D01*
G75*
G02*
X114785000Y-60685000I150000J0D01*
G01*
X115085000Y-60685000D01*
G75*
G02*
X115235000Y-60835000I0J-150000D01*
G01*
X115235000Y-62485000D01*
G75*
G02*
X115085000Y-62635000I-150000J0D01*
G01*
G37*
G36*
G01*
X113815000Y-62635000D02*
X113515000Y-62635000D01*
G75*
G02*
X113365000Y-62485000I0J150000D01*
G01*
X113365000Y-60835000D01*
G75*
G02*
X113515000Y-60685000I150000J0D01*
G01*
X113815000Y-60685000D01*
G75*
G02*
X113965000Y-60835000I0J-150000D01*
G01*
X113965000Y-62485000D01*
G75*
G02*
X113815000Y-62635000I-150000J0D01*
G01*
G37*
G36*
G01*
X112545000Y-62635000D02*
X112245000Y-62635000D01*
G75*
G02*
X112095000Y-62485000I0J150000D01*
G01*
X112095000Y-60835000D01*
G75*
G02*
X112245000Y-60685000I150000J0D01*
G01*
X112545000Y-60685000D01*
G75*
G02*
X112695000Y-60835000I0J-150000D01*
G01*
X112695000Y-62485000D01*
G75*
G02*
X112545000Y-62635000I-150000J0D01*
G01*
G37*
G36*
G01*
X111275000Y-62635000D02*
X110975000Y-62635000D01*
G75*
G02*
X110825000Y-62485000I0J150000D01*
G01*
X110825000Y-60835000D01*
G75*
G02*
X110975000Y-60685000I150000J0D01*
G01*
X111275000Y-60685000D01*
G75*
G02*
X111425000Y-60835000I0J-150000D01*
G01*
X111425000Y-62485000D01*
G75*
G02*
X111275000Y-62635000I-150000J0D01*
G01*
G37*
G36*
G01*
X110005000Y-62635000D02*
X109705000Y-62635000D01*
G75*
G02*
X109555000Y-62485000I0J150000D01*
G01*
X109555000Y-60835000D01*
G75*
G02*
X109705000Y-60685000I150000J0D01*
G01*
X110005000Y-60685000D01*
G75*
G02*
X110155000Y-60835000I0J-150000D01*
G01*
X110155000Y-62485000D01*
G75*
G02*
X110005000Y-62635000I-150000J0D01*
G01*
G37*
G36*
G01*
X108735000Y-62635000D02*
X108435000Y-62635000D01*
G75*
G02*
X108285000Y-62485000I0J150000D01*
G01*
X108285000Y-60835000D01*
G75*
G02*
X108435000Y-60685000I150000J0D01*
G01*
X108735000Y-60685000D01*
G75*
G02*
X108885000Y-60835000I0J-150000D01*
G01*
X108885000Y-62485000D01*
G75*
G02*
X108735000Y-62635000I-150000J0D01*
G01*
G37*
G36*
G01*
X107465000Y-62635000D02*
X107165000Y-62635000D01*
G75*
G02*
X107015000Y-62485000I0J150000D01*
G01*
X107015000Y-60835000D01*
G75*
G02*
X107165000Y-60685000I150000J0D01*
G01*
X107465000Y-60685000D01*
G75*
G02*
X107615000Y-60835000I0J-150000D01*
G01*
X107615000Y-62485000D01*
G75*
G02*
X107465000Y-62635000I-150000J0D01*
G01*
G37*
G36*
G01*
X106195000Y-62635000D02*
X105895000Y-62635000D01*
G75*
G02*
X105745000Y-62485000I0J150000D01*
G01*
X105745000Y-60835000D01*
G75*
G02*
X105895000Y-60685000I150000J0D01*
G01*
X106195000Y-60685000D01*
G75*
G02*
X106345000Y-60835000I0J-150000D01*
G01*
X106345000Y-62485000D01*
G75*
G02*
X106195000Y-62635000I-150000J0D01*
G01*
G37*
G36*
G01*
X106195000Y-67585000D02*
X105895000Y-67585000D01*
G75*
G02*
X105745000Y-67435000I0J150000D01*
G01*
X105745000Y-65785000D01*
G75*
G02*
X105895000Y-65635000I150000J0D01*
G01*
X106195000Y-65635000D01*
G75*
G02*
X106345000Y-65785000I0J-150000D01*
G01*
X106345000Y-67435000D01*
G75*
G02*
X106195000Y-67585000I-150000J0D01*
G01*
G37*
G36*
G01*
X107465000Y-67585000D02*
X107165000Y-67585000D01*
G75*
G02*
X107015000Y-67435000I0J150000D01*
G01*
X107015000Y-65785000D01*
G75*
G02*
X107165000Y-65635000I150000J0D01*
G01*
X107465000Y-65635000D01*
G75*
G02*
X107615000Y-65785000I0J-150000D01*
G01*
X107615000Y-67435000D01*
G75*
G02*
X107465000Y-67585000I-150000J0D01*
G01*
G37*
G36*
G01*
X108735000Y-67585000D02*
X108435000Y-67585000D01*
G75*
G02*
X108285000Y-67435000I0J150000D01*
G01*
X108285000Y-65785000D01*
G75*
G02*
X108435000Y-65635000I150000J0D01*
G01*
X108735000Y-65635000D01*
G75*
G02*
X108885000Y-65785000I0J-150000D01*
G01*
X108885000Y-67435000D01*
G75*
G02*
X108735000Y-67585000I-150000J0D01*
G01*
G37*
G36*
G01*
X110005000Y-67585000D02*
X109705000Y-67585000D01*
G75*
G02*
X109555000Y-67435000I0J150000D01*
G01*
X109555000Y-65785000D01*
G75*
G02*
X109705000Y-65635000I150000J0D01*
G01*
X110005000Y-65635000D01*
G75*
G02*
X110155000Y-65785000I0J-150000D01*
G01*
X110155000Y-67435000D01*
G75*
G02*
X110005000Y-67585000I-150000J0D01*
G01*
G37*
G36*
G01*
X111275000Y-67585000D02*
X110975000Y-67585000D01*
G75*
G02*
X110825000Y-67435000I0J150000D01*
G01*
X110825000Y-65785000D01*
G75*
G02*
X110975000Y-65635000I150000J0D01*
G01*
X111275000Y-65635000D01*
G75*
G02*
X111425000Y-65785000I0J-150000D01*
G01*
X111425000Y-67435000D01*
G75*
G02*
X111275000Y-67585000I-150000J0D01*
G01*
G37*
G36*
G01*
X112545000Y-67585000D02*
X112245000Y-67585000D01*
G75*
G02*
X112095000Y-67435000I0J150000D01*
G01*
X112095000Y-65785000D01*
G75*
G02*
X112245000Y-65635000I150000J0D01*
G01*
X112545000Y-65635000D01*
G75*
G02*
X112695000Y-65785000I0J-150000D01*
G01*
X112695000Y-67435000D01*
G75*
G02*
X112545000Y-67585000I-150000J0D01*
G01*
G37*
G36*
G01*
X113815000Y-67585000D02*
X113515000Y-67585000D01*
G75*
G02*
X113365000Y-67435000I0J150000D01*
G01*
X113365000Y-65785000D01*
G75*
G02*
X113515000Y-65635000I150000J0D01*
G01*
X113815000Y-65635000D01*
G75*
G02*
X113965000Y-65785000I0J-150000D01*
G01*
X113965000Y-67435000D01*
G75*
G02*
X113815000Y-67585000I-150000J0D01*
G01*
G37*
G36*
G01*
X115085000Y-67585000D02*
X114785000Y-67585000D01*
G75*
G02*
X114635000Y-67435000I0J150000D01*
G01*
X114635000Y-65785000D01*
G75*
G02*
X114785000Y-65635000I150000J0D01*
G01*
X115085000Y-65635000D01*
G75*
G02*
X115235000Y-65785000I0J-150000D01*
G01*
X115235000Y-67435000D01*
G75*
G02*
X115085000Y-67585000I-150000J0D01*
G01*
G37*
%TD*%
%TO.C,U1*%
G36*
G01*
X115085000Y-74700000D02*
X114785000Y-74700000D01*
G75*
G02*
X114635000Y-74550000I0J150000D01*
G01*
X114635000Y-72900000D01*
G75*
G02*
X114785000Y-72750000I150000J0D01*
G01*
X115085000Y-72750000D01*
G75*
G02*
X115235000Y-72900000I0J-150000D01*
G01*
X115235000Y-74550000D01*
G75*
G02*
X115085000Y-74700000I-150000J0D01*
G01*
G37*
G36*
G01*
X113815000Y-74700000D02*
X113515000Y-74700000D01*
G75*
G02*
X113365000Y-74550000I0J150000D01*
G01*
X113365000Y-72900000D01*
G75*
G02*
X113515000Y-72750000I150000J0D01*
G01*
X113815000Y-72750000D01*
G75*
G02*
X113965000Y-72900000I0J-150000D01*
G01*
X113965000Y-74550000D01*
G75*
G02*
X113815000Y-74700000I-150000J0D01*
G01*
G37*
G36*
G01*
X112545000Y-74700000D02*
X112245000Y-74700000D01*
G75*
G02*
X112095000Y-74550000I0J150000D01*
G01*
X112095000Y-72900000D01*
G75*
G02*
X112245000Y-72750000I150000J0D01*
G01*
X112545000Y-72750000D01*
G75*
G02*
X112695000Y-72900000I0J-150000D01*
G01*
X112695000Y-74550000D01*
G75*
G02*
X112545000Y-74700000I-150000J0D01*
G01*
G37*
G36*
G01*
X111275000Y-74700000D02*
X110975000Y-74700000D01*
G75*
G02*
X110825000Y-74550000I0J150000D01*
G01*
X110825000Y-72900000D01*
G75*
G02*
X110975000Y-72750000I150000J0D01*
G01*
X111275000Y-72750000D01*
G75*
G02*
X111425000Y-72900000I0J-150000D01*
G01*
X111425000Y-74550000D01*
G75*
G02*
X111275000Y-74700000I-150000J0D01*
G01*
G37*
G36*
G01*
X110005000Y-74700000D02*
X109705000Y-74700000D01*
G75*
G02*
X109555000Y-74550000I0J150000D01*
G01*
X109555000Y-72900000D01*
G75*
G02*
X109705000Y-72750000I150000J0D01*
G01*
X110005000Y-72750000D01*
G75*
G02*
X110155000Y-72900000I0J-150000D01*
G01*
X110155000Y-74550000D01*
G75*
G02*
X110005000Y-74700000I-150000J0D01*
G01*
G37*
G36*
G01*
X108735000Y-74700000D02*
X108435000Y-74700000D01*
G75*
G02*
X108285000Y-74550000I0J150000D01*
G01*
X108285000Y-72900000D01*
G75*
G02*
X108435000Y-72750000I150000J0D01*
G01*
X108735000Y-72750000D01*
G75*
G02*
X108885000Y-72900000I0J-150000D01*
G01*
X108885000Y-74550000D01*
G75*
G02*
X108735000Y-74700000I-150000J0D01*
G01*
G37*
G36*
G01*
X107465000Y-74700000D02*
X107165000Y-74700000D01*
G75*
G02*
X107015000Y-74550000I0J150000D01*
G01*
X107015000Y-72900000D01*
G75*
G02*
X107165000Y-72750000I150000J0D01*
G01*
X107465000Y-72750000D01*
G75*
G02*
X107615000Y-72900000I0J-150000D01*
G01*
X107615000Y-74550000D01*
G75*
G02*
X107465000Y-74700000I-150000J0D01*
G01*
G37*
G36*
G01*
X106195000Y-74700000D02*
X105895000Y-74700000D01*
G75*
G02*
X105745000Y-74550000I0J150000D01*
G01*
X105745000Y-72900000D01*
G75*
G02*
X105895000Y-72750000I150000J0D01*
G01*
X106195000Y-72750000D01*
G75*
G02*
X106345000Y-72900000I0J-150000D01*
G01*
X106345000Y-74550000D01*
G75*
G02*
X106195000Y-74700000I-150000J0D01*
G01*
G37*
G36*
G01*
X106195000Y-79650000D02*
X105895000Y-79650000D01*
G75*
G02*
X105745000Y-79500000I0J150000D01*
G01*
X105745000Y-77850000D01*
G75*
G02*
X105895000Y-77700000I150000J0D01*
G01*
X106195000Y-77700000D01*
G75*
G02*
X106345000Y-77850000I0J-150000D01*
G01*
X106345000Y-79500000D01*
G75*
G02*
X106195000Y-79650000I-150000J0D01*
G01*
G37*
G36*
G01*
X107465000Y-79650000D02*
X107165000Y-79650000D01*
G75*
G02*
X107015000Y-79500000I0J150000D01*
G01*
X107015000Y-77850000D01*
G75*
G02*
X107165000Y-77700000I150000J0D01*
G01*
X107465000Y-77700000D01*
G75*
G02*
X107615000Y-77850000I0J-150000D01*
G01*
X107615000Y-79500000D01*
G75*
G02*
X107465000Y-79650000I-150000J0D01*
G01*
G37*
G36*
G01*
X108735000Y-79650000D02*
X108435000Y-79650000D01*
G75*
G02*
X108285000Y-79500000I0J150000D01*
G01*
X108285000Y-77850000D01*
G75*
G02*
X108435000Y-77700000I150000J0D01*
G01*
X108735000Y-77700000D01*
G75*
G02*
X108885000Y-77850000I0J-150000D01*
G01*
X108885000Y-79500000D01*
G75*
G02*
X108735000Y-79650000I-150000J0D01*
G01*
G37*
G36*
G01*
X110005000Y-79650000D02*
X109705000Y-79650000D01*
G75*
G02*
X109555000Y-79500000I0J150000D01*
G01*
X109555000Y-77850000D01*
G75*
G02*
X109705000Y-77700000I150000J0D01*
G01*
X110005000Y-77700000D01*
G75*
G02*
X110155000Y-77850000I0J-150000D01*
G01*
X110155000Y-79500000D01*
G75*
G02*
X110005000Y-79650000I-150000J0D01*
G01*
G37*
G36*
G01*
X111275000Y-79650000D02*
X110975000Y-79650000D01*
G75*
G02*
X110825000Y-79500000I0J150000D01*
G01*
X110825000Y-77850000D01*
G75*
G02*
X110975000Y-77700000I150000J0D01*
G01*
X111275000Y-77700000D01*
G75*
G02*
X111425000Y-77850000I0J-150000D01*
G01*
X111425000Y-79500000D01*
G75*
G02*
X111275000Y-79650000I-150000J0D01*
G01*
G37*
G36*
G01*
X112545000Y-79650000D02*
X112245000Y-79650000D01*
G75*
G02*
X112095000Y-79500000I0J150000D01*
G01*
X112095000Y-77850000D01*
G75*
G02*
X112245000Y-77700000I150000J0D01*
G01*
X112545000Y-77700000D01*
G75*
G02*
X112695000Y-77850000I0J-150000D01*
G01*
X112695000Y-79500000D01*
G75*
G02*
X112545000Y-79650000I-150000J0D01*
G01*
G37*
G36*
G01*
X113815000Y-79650000D02*
X113515000Y-79650000D01*
G75*
G02*
X113365000Y-79500000I0J150000D01*
G01*
X113365000Y-77850000D01*
G75*
G02*
X113515000Y-77700000I150000J0D01*
G01*
X113815000Y-77700000D01*
G75*
G02*
X113965000Y-77850000I0J-150000D01*
G01*
X113965000Y-79500000D01*
G75*
G02*
X113815000Y-79650000I-150000J0D01*
G01*
G37*
G36*
G01*
X115085000Y-79650000D02*
X114785000Y-79650000D01*
G75*
G02*
X114635000Y-79500000I0J150000D01*
G01*
X114635000Y-77850000D01*
G75*
G02*
X114785000Y-77700000I150000J0D01*
G01*
X115085000Y-77700000D01*
G75*
G02*
X115235000Y-77850000I0J-150000D01*
G01*
X115235000Y-79500000D01*
G75*
G02*
X115085000Y-79650000I-150000J0D01*
G01*
G37*
%TD*%
%TO.C,U9*%
G36*
G01*
X81130000Y-77700000D02*
X81430000Y-77700000D01*
G75*
G02*
X81580000Y-77850000I0J-150000D01*
G01*
X81580000Y-79500000D01*
G75*
G02*
X81430000Y-79650000I-150000J0D01*
G01*
X81130000Y-79650000D01*
G75*
G02*
X80980000Y-79500000I0J150000D01*
G01*
X80980000Y-77850000D01*
G75*
G02*
X81130000Y-77700000I150000J0D01*
G01*
G37*
G36*
G01*
X82400000Y-77700000D02*
X82700000Y-77700000D01*
G75*
G02*
X82850000Y-77850000I0J-150000D01*
G01*
X82850000Y-79500000D01*
G75*
G02*
X82700000Y-79650000I-150000J0D01*
G01*
X82400000Y-79650000D01*
G75*
G02*
X82250000Y-79500000I0J150000D01*
G01*
X82250000Y-77850000D01*
G75*
G02*
X82400000Y-77700000I150000J0D01*
G01*
G37*
G36*
G01*
X83670000Y-77700000D02*
X83970000Y-77700000D01*
G75*
G02*
X84120000Y-77850000I0J-150000D01*
G01*
X84120000Y-79500000D01*
G75*
G02*
X83970000Y-79650000I-150000J0D01*
G01*
X83670000Y-79650000D01*
G75*
G02*
X83520000Y-79500000I0J150000D01*
G01*
X83520000Y-77850000D01*
G75*
G02*
X83670000Y-77700000I150000J0D01*
G01*
G37*
G36*
G01*
X84940000Y-77700000D02*
X85240000Y-77700000D01*
G75*
G02*
X85390000Y-77850000I0J-150000D01*
G01*
X85390000Y-79500000D01*
G75*
G02*
X85240000Y-79650000I-150000J0D01*
G01*
X84940000Y-79650000D01*
G75*
G02*
X84790000Y-79500000I0J150000D01*
G01*
X84790000Y-77850000D01*
G75*
G02*
X84940000Y-77700000I150000J0D01*
G01*
G37*
G36*
G01*
X86210000Y-77700000D02*
X86510000Y-77700000D01*
G75*
G02*
X86660000Y-77850000I0J-150000D01*
G01*
X86660000Y-79500000D01*
G75*
G02*
X86510000Y-79650000I-150000J0D01*
G01*
X86210000Y-79650000D01*
G75*
G02*
X86060000Y-79500000I0J150000D01*
G01*
X86060000Y-77850000D01*
G75*
G02*
X86210000Y-77700000I150000J0D01*
G01*
G37*
G36*
G01*
X87480000Y-77700000D02*
X87780000Y-77700000D01*
G75*
G02*
X87930000Y-77850000I0J-150000D01*
G01*
X87930000Y-79500000D01*
G75*
G02*
X87780000Y-79650000I-150000J0D01*
G01*
X87480000Y-79650000D01*
G75*
G02*
X87330000Y-79500000I0J150000D01*
G01*
X87330000Y-77850000D01*
G75*
G02*
X87480000Y-77700000I150000J0D01*
G01*
G37*
G36*
G01*
X88750000Y-77700000D02*
X89050000Y-77700000D01*
G75*
G02*
X89200000Y-77850000I0J-150000D01*
G01*
X89200000Y-79500000D01*
G75*
G02*
X89050000Y-79650000I-150000J0D01*
G01*
X88750000Y-79650000D01*
G75*
G02*
X88600000Y-79500000I0J150000D01*
G01*
X88600000Y-77850000D01*
G75*
G02*
X88750000Y-77700000I150000J0D01*
G01*
G37*
G36*
G01*
X90020000Y-77700000D02*
X90320000Y-77700000D01*
G75*
G02*
X90470000Y-77850000I0J-150000D01*
G01*
X90470000Y-79500000D01*
G75*
G02*
X90320000Y-79650000I-150000J0D01*
G01*
X90020000Y-79650000D01*
G75*
G02*
X89870000Y-79500000I0J150000D01*
G01*
X89870000Y-77850000D01*
G75*
G02*
X90020000Y-77700000I150000J0D01*
G01*
G37*
G36*
G01*
X90020000Y-72750000D02*
X90320000Y-72750000D01*
G75*
G02*
X90470000Y-72900000I0J-150000D01*
G01*
X90470000Y-74550000D01*
G75*
G02*
X90320000Y-74700000I-150000J0D01*
G01*
X90020000Y-74700000D01*
G75*
G02*
X89870000Y-74550000I0J150000D01*
G01*
X89870000Y-72900000D01*
G75*
G02*
X90020000Y-72750000I150000J0D01*
G01*
G37*
G36*
G01*
X88750000Y-72750000D02*
X89050000Y-72750000D01*
G75*
G02*
X89200000Y-72900000I0J-150000D01*
G01*
X89200000Y-74550000D01*
G75*
G02*
X89050000Y-74700000I-150000J0D01*
G01*
X88750000Y-74700000D01*
G75*
G02*
X88600000Y-74550000I0J150000D01*
G01*
X88600000Y-72900000D01*
G75*
G02*
X88750000Y-72750000I150000J0D01*
G01*
G37*
G36*
G01*
X87480000Y-72750000D02*
X87780000Y-72750000D01*
G75*
G02*
X87930000Y-72900000I0J-150000D01*
G01*
X87930000Y-74550000D01*
G75*
G02*
X87780000Y-74700000I-150000J0D01*
G01*
X87480000Y-74700000D01*
G75*
G02*
X87330000Y-74550000I0J150000D01*
G01*
X87330000Y-72900000D01*
G75*
G02*
X87480000Y-72750000I150000J0D01*
G01*
G37*
G36*
G01*
X86210000Y-72750000D02*
X86510000Y-72750000D01*
G75*
G02*
X86660000Y-72900000I0J-150000D01*
G01*
X86660000Y-74550000D01*
G75*
G02*
X86510000Y-74700000I-150000J0D01*
G01*
X86210000Y-74700000D01*
G75*
G02*
X86060000Y-74550000I0J150000D01*
G01*
X86060000Y-72900000D01*
G75*
G02*
X86210000Y-72750000I150000J0D01*
G01*
G37*
G36*
G01*
X84940000Y-72750000D02*
X85240000Y-72750000D01*
G75*
G02*
X85390000Y-72900000I0J-150000D01*
G01*
X85390000Y-74550000D01*
G75*
G02*
X85240000Y-74700000I-150000J0D01*
G01*
X84940000Y-74700000D01*
G75*
G02*
X84790000Y-74550000I0J150000D01*
G01*
X84790000Y-72900000D01*
G75*
G02*
X84940000Y-72750000I150000J0D01*
G01*
G37*
G36*
G01*
X83670000Y-72750000D02*
X83970000Y-72750000D01*
G75*
G02*
X84120000Y-72900000I0J-150000D01*
G01*
X84120000Y-74550000D01*
G75*
G02*
X83970000Y-74700000I-150000J0D01*
G01*
X83670000Y-74700000D01*
G75*
G02*
X83520000Y-74550000I0J150000D01*
G01*
X83520000Y-72900000D01*
G75*
G02*
X83670000Y-72750000I150000J0D01*
G01*
G37*
G36*
G01*
X82400000Y-72750000D02*
X82700000Y-72750000D01*
G75*
G02*
X82850000Y-72900000I0J-150000D01*
G01*
X82850000Y-74550000D01*
G75*
G02*
X82700000Y-74700000I-150000J0D01*
G01*
X82400000Y-74700000D01*
G75*
G02*
X82250000Y-74550000I0J150000D01*
G01*
X82250000Y-72900000D01*
G75*
G02*
X82400000Y-72750000I150000J0D01*
G01*
G37*
G36*
G01*
X81130000Y-72750000D02*
X81430000Y-72750000D01*
G75*
G02*
X81580000Y-72900000I0J-150000D01*
G01*
X81580000Y-74550000D01*
G75*
G02*
X81430000Y-74700000I-150000J0D01*
G01*
X81130000Y-74700000D01*
G75*
G02*
X80980000Y-74550000I0J150000D01*
G01*
X80980000Y-72900000D01*
G75*
G02*
X81130000Y-72750000I150000J0D01*
G01*
G37*
%TD*%
%TO.C,U8*%
G36*
G01*
X93195000Y-77065000D02*
X93495000Y-77065000D01*
G75*
G02*
X93645000Y-77215000I0J-150000D01*
G01*
X93645000Y-78865000D01*
G75*
G02*
X93495000Y-79015000I-150000J0D01*
G01*
X93195000Y-79015000D01*
G75*
G02*
X93045000Y-78865000I0J150000D01*
G01*
X93045000Y-77215000D01*
G75*
G02*
X93195000Y-77065000I150000J0D01*
G01*
G37*
G36*
G01*
X94465000Y-77065000D02*
X94765000Y-77065000D01*
G75*
G02*
X94915000Y-77215000I0J-150000D01*
G01*
X94915000Y-78865000D01*
G75*
G02*
X94765000Y-79015000I-150000J0D01*
G01*
X94465000Y-79015000D01*
G75*
G02*
X94315000Y-78865000I0J150000D01*
G01*
X94315000Y-77215000D01*
G75*
G02*
X94465000Y-77065000I150000J0D01*
G01*
G37*
G36*
G01*
X95735000Y-77065000D02*
X96035000Y-77065000D01*
G75*
G02*
X96185000Y-77215000I0J-150000D01*
G01*
X96185000Y-78865000D01*
G75*
G02*
X96035000Y-79015000I-150000J0D01*
G01*
X95735000Y-79015000D01*
G75*
G02*
X95585000Y-78865000I0J150000D01*
G01*
X95585000Y-77215000D01*
G75*
G02*
X95735000Y-77065000I150000J0D01*
G01*
G37*
G36*
G01*
X97005000Y-77065000D02*
X97305000Y-77065000D01*
G75*
G02*
X97455000Y-77215000I0J-150000D01*
G01*
X97455000Y-78865000D01*
G75*
G02*
X97305000Y-79015000I-150000J0D01*
G01*
X97005000Y-79015000D01*
G75*
G02*
X96855000Y-78865000I0J150000D01*
G01*
X96855000Y-77215000D01*
G75*
G02*
X97005000Y-77065000I150000J0D01*
G01*
G37*
G36*
G01*
X98275000Y-77065000D02*
X98575000Y-77065000D01*
G75*
G02*
X98725000Y-77215000I0J-150000D01*
G01*
X98725000Y-78865000D01*
G75*
G02*
X98575000Y-79015000I-150000J0D01*
G01*
X98275000Y-79015000D01*
G75*
G02*
X98125000Y-78865000I0J150000D01*
G01*
X98125000Y-77215000D01*
G75*
G02*
X98275000Y-77065000I150000J0D01*
G01*
G37*
G36*
G01*
X99545000Y-77065000D02*
X99845000Y-77065000D01*
G75*
G02*
X99995000Y-77215000I0J-150000D01*
G01*
X99995000Y-78865000D01*
G75*
G02*
X99845000Y-79015000I-150000J0D01*
G01*
X99545000Y-79015000D01*
G75*
G02*
X99395000Y-78865000I0J150000D01*
G01*
X99395000Y-77215000D01*
G75*
G02*
X99545000Y-77065000I150000J0D01*
G01*
G37*
G36*
G01*
X100815000Y-77065000D02*
X101115000Y-77065000D01*
G75*
G02*
X101265000Y-77215000I0J-150000D01*
G01*
X101265000Y-78865000D01*
G75*
G02*
X101115000Y-79015000I-150000J0D01*
G01*
X100815000Y-79015000D01*
G75*
G02*
X100665000Y-78865000I0J150000D01*
G01*
X100665000Y-77215000D01*
G75*
G02*
X100815000Y-77065000I150000J0D01*
G01*
G37*
G36*
G01*
X102085000Y-77065000D02*
X102385000Y-77065000D01*
G75*
G02*
X102535000Y-77215000I0J-150000D01*
G01*
X102535000Y-78865000D01*
G75*
G02*
X102385000Y-79015000I-150000J0D01*
G01*
X102085000Y-79015000D01*
G75*
G02*
X101935000Y-78865000I0J150000D01*
G01*
X101935000Y-77215000D01*
G75*
G02*
X102085000Y-77065000I150000J0D01*
G01*
G37*
G36*
G01*
X102085000Y-72115000D02*
X102385000Y-72115000D01*
G75*
G02*
X102535000Y-72265000I0J-150000D01*
G01*
X102535000Y-73915000D01*
G75*
G02*
X102385000Y-74065000I-150000J0D01*
G01*
X102085000Y-74065000D01*
G75*
G02*
X101935000Y-73915000I0J150000D01*
G01*
X101935000Y-72265000D01*
G75*
G02*
X102085000Y-72115000I150000J0D01*
G01*
G37*
G36*
G01*
X100815000Y-72115000D02*
X101115000Y-72115000D01*
G75*
G02*
X101265000Y-72265000I0J-150000D01*
G01*
X101265000Y-73915000D01*
G75*
G02*
X101115000Y-74065000I-150000J0D01*
G01*
X100815000Y-74065000D01*
G75*
G02*
X100665000Y-73915000I0J150000D01*
G01*
X100665000Y-72265000D01*
G75*
G02*
X100815000Y-72115000I150000J0D01*
G01*
G37*
G36*
G01*
X99545000Y-72115000D02*
X99845000Y-72115000D01*
G75*
G02*
X99995000Y-72265000I0J-150000D01*
G01*
X99995000Y-73915000D01*
G75*
G02*
X99845000Y-74065000I-150000J0D01*
G01*
X99545000Y-74065000D01*
G75*
G02*
X99395000Y-73915000I0J150000D01*
G01*
X99395000Y-72265000D01*
G75*
G02*
X99545000Y-72115000I150000J0D01*
G01*
G37*
G36*
G01*
X98275000Y-72115000D02*
X98575000Y-72115000D01*
G75*
G02*
X98725000Y-72265000I0J-150000D01*
G01*
X98725000Y-73915000D01*
G75*
G02*
X98575000Y-74065000I-150000J0D01*
G01*
X98275000Y-74065000D01*
G75*
G02*
X98125000Y-73915000I0J150000D01*
G01*
X98125000Y-72265000D01*
G75*
G02*
X98275000Y-72115000I150000J0D01*
G01*
G37*
G36*
G01*
X97005000Y-72115000D02*
X97305000Y-72115000D01*
G75*
G02*
X97455000Y-72265000I0J-150000D01*
G01*
X97455000Y-73915000D01*
G75*
G02*
X97305000Y-74065000I-150000J0D01*
G01*
X97005000Y-74065000D01*
G75*
G02*
X96855000Y-73915000I0J150000D01*
G01*
X96855000Y-72265000D01*
G75*
G02*
X97005000Y-72115000I150000J0D01*
G01*
G37*
G36*
G01*
X95735000Y-72115000D02*
X96035000Y-72115000D01*
G75*
G02*
X96185000Y-72265000I0J-150000D01*
G01*
X96185000Y-73915000D01*
G75*
G02*
X96035000Y-74065000I-150000J0D01*
G01*
X95735000Y-74065000D01*
G75*
G02*
X95585000Y-73915000I0J150000D01*
G01*
X95585000Y-72265000D01*
G75*
G02*
X95735000Y-72115000I150000J0D01*
G01*
G37*
G36*
G01*
X94465000Y-72115000D02*
X94765000Y-72115000D01*
G75*
G02*
X94915000Y-72265000I0J-150000D01*
G01*
X94915000Y-73915000D01*
G75*
G02*
X94765000Y-74065000I-150000J0D01*
G01*
X94465000Y-74065000D01*
G75*
G02*
X94315000Y-73915000I0J150000D01*
G01*
X94315000Y-72265000D01*
G75*
G02*
X94465000Y-72115000I150000J0D01*
G01*
G37*
G36*
G01*
X93195000Y-72115000D02*
X93495000Y-72115000D01*
G75*
G02*
X93645000Y-72265000I0J-150000D01*
G01*
X93645000Y-73915000D01*
G75*
G02*
X93495000Y-74065000I-150000J0D01*
G01*
X93195000Y-74065000D01*
G75*
G02*
X93045000Y-73915000I0J150000D01*
G01*
X93045000Y-72265000D01*
G75*
G02*
X93195000Y-72115000I150000J0D01*
G01*
G37*
%TD*%
%TO.C,U7*%
G36*
G01*
X81130000Y-65635000D02*
X81430000Y-65635000D01*
G75*
G02*
X81580000Y-65785000I0J-150000D01*
G01*
X81580000Y-67435000D01*
G75*
G02*
X81430000Y-67585000I-150000J0D01*
G01*
X81130000Y-67585000D01*
G75*
G02*
X80980000Y-67435000I0J150000D01*
G01*
X80980000Y-65785000D01*
G75*
G02*
X81130000Y-65635000I150000J0D01*
G01*
G37*
G36*
G01*
X82400000Y-65635000D02*
X82700000Y-65635000D01*
G75*
G02*
X82850000Y-65785000I0J-150000D01*
G01*
X82850000Y-67435000D01*
G75*
G02*
X82700000Y-67585000I-150000J0D01*
G01*
X82400000Y-67585000D01*
G75*
G02*
X82250000Y-67435000I0J150000D01*
G01*
X82250000Y-65785000D01*
G75*
G02*
X82400000Y-65635000I150000J0D01*
G01*
G37*
G36*
G01*
X83670000Y-65635000D02*
X83970000Y-65635000D01*
G75*
G02*
X84120000Y-65785000I0J-150000D01*
G01*
X84120000Y-67435000D01*
G75*
G02*
X83970000Y-67585000I-150000J0D01*
G01*
X83670000Y-67585000D01*
G75*
G02*
X83520000Y-67435000I0J150000D01*
G01*
X83520000Y-65785000D01*
G75*
G02*
X83670000Y-65635000I150000J0D01*
G01*
G37*
G36*
G01*
X84940000Y-65635000D02*
X85240000Y-65635000D01*
G75*
G02*
X85390000Y-65785000I0J-150000D01*
G01*
X85390000Y-67435000D01*
G75*
G02*
X85240000Y-67585000I-150000J0D01*
G01*
X84940000Y-67585000D01*
G75*
G02*
X84790000Y-67435000I0J150000D01*
G01*
X84790000Y-65785000D01*
G75*
G02*
X84940000Y-65635000I150000J0D01*
G01*
G37*
G36*
G01*
X86210000Y-65635000D02*
X86510000Y-65635000D01*
G75*
G02*
X86660000Y-65785000I0J-150000D01*
G01*
X86660000Y-67435000D01*
G75*
G02*
X86510000Y-67585000I-150000J0D01*
G01*
X86210000Y-67585000D01*
G75*
G02*
X86060000Y-67435000I0J150000D01*
G01*
X86060000Y-65785000D01*
G75*
G02*
X86210000Y-65635000I150000J0D01*
G01*
G37*
G36*
G01*
X87480000Y-65635000D02*
X87780000Y-65635000D01*
G75*
G02*
X87930000Y-65785000I0J-150000D01*
G01*
X87930000Y-67435000D01*
G75*
G02*
X87780000Y-67585000I-150000J0D01*
G01*
X87480000Y-67585000D01*
G75*
G02*
X87330000Y-67435000I0J150000D01*
G01*
X87330000Y-65785000D01*
G75*
G02*
X87480000Y-65635000I150000J0D01*
G01*
G37*
G36*
G01*
X88750000Y-65635000D02*
X89050000Y-65635000D01*
G75*
G02*
X89200000Y-65785000I0J-150000D01*
G01*
X89200000Y-67435000D01*
G75*
G02*
X89050000Y-67585000I-150000J0D01*
G01*
X88750000Y-67585000D01*
G75*
G02*
X88600000Y-67435000I0J150000D01*
G01*
X88600000Y-65785000D01*
G75*
G02*
X88750000Y-65635000I150000J0D01*
G01*
G37*
G36*
G01*
X90020000Y-65635000D02*
X90320000Y-65635000D01*
G75*
G02*
X90470000Y-65785000I0J-150000D01*
G01*
X90470000Y-67435000D01*
G75*
G02*
X90320000Y-67585000I-150000J0D01*
G01*
X90020000Y-67585000D01*
G75*
G02*
X89870000Y-67435000I0J150000D01*
G01*
X89870000Y-65785000D01*
G75*
G02*
X90020000Y-65635000I150000J0D01*
G01*
G37*
G36*
G01*
X90020000Y-60685000D02*
X90320000Y-60685000D01*
G75*
G02*
X90470000Y-60835000I0J-150000D01*
G01*
X90470000Y-62485000D01*
G75*
G02*
X90320000Y-62635000I-150000J0D01*
G01*
X90020000Y-62635000D01*
G75*
G02*
X89870000Y-62485000I0J150000D01*
G01*
X89870000Y-60835000D01*
G75*
G02*
X90020000Y-60685000I150000J0D01*
G01*
G37*
G36*
G01*
X88750000Y-60685000D02*
X89050000Y-60685000D01*
G75*
G02*
X89200000Y-60835000I0J-150000D01*
G01*
X89200000Y-62485000D01*
G75*
G02*
X89050000Y-62635000I-150000J0D01*
G01*
X88750000Y-62635000D01*
G75*
G02*
X88600000Y-62485000I0J150000D01*
G01*
X88600000Y-60835000D01*
G75*
G02*
X88750000Y-60685000I150000J0D01*
G01*
G37*
G36*
G01*
X87480000Y-60685000D02*
X87780000Y-60685000D01*
G75*
G02*
X87930000Y-60835000I0J-150000D01*
G01*
X87930000Y-62485000D01*
G75*
G02*
X87780000Y-62635000I-150000J0D01*
G01*
X87480000Y-62635000D01*
G75*
G02*
X87330000Y-62485000I0J150000D01*
G01*
X87330000Y-60835000D01*
G75*
G02*
X87480000Y-60685000I150000J0D01*
G01*
G37*
G36*
G01*
X86210000Y-60685000D02*
X86510000Y-60685000D01*
G75*
G02*
X86660000Y-60835000I0J-150000D01*
G01*
X86660000Y-62485000D01*
G75*
G02*
X86510000Y-62635000I-150000J0D01*
G01*
X86210000Y-62635000D01*
G75*
G02*
X86060000Y-62485000I0J150000D01*
G01*
X86060000Y-60835000D01*
G75*
G02*
X86210000Y-60685000I150000J0D01*
G01*
G37*
G36*
G01*
X84940000Y-60685000D02*
X85240000Y-60685000D01*
G75*
G02*
X85390000Y-60835000I0J-150000D01*
G01*
X85390000Y-62485000D01*
G75*
G02*
X85240000Y-62635000I-150000J0D01*
G01*
X84940000Y-62635000D01*
G75*
G02*
X84790000Y-62485000I0J150000D01*
G01*
X84790000Y-60835000D01*
G75*
G02*
X84940000Y-60685000I150000J0D01*
G01*
G37*
G36*
G01*
X83670000Y-60685000D02*
X83970000Y-60685000D01*
G75*
G02*
X84120000Y-60835000I0J-150000D01*
G01*
X84120000Y-62485000D01*
G75*
G02*
X83970000Y-62635000I-150000J0D01*
G01*
X83670000Y-62635000D01*
G75*
G02*
X83520000Y-62485000I0J150000D01*
G01*
X83520000Y-60835000D01*
G75*
G02*
X83670000Y-60685000I150000J0D01*
G01*
G37*
G36*
G01*
X82400000Y-60685000D02*
X82700000Y-60685000D01*
G75*
G02*
X82850000Y-60835000I0J-150000D01*
G01*
X82850000Y-62485000D01*
G75*
G02*
X82700000Y-62635000I-150000J0D01*
G01*
X82400000Y-62635000D01*
G75*
G02*
X82250000Y-62485000I0J150000D01*
G01*
X82250000Y-60835000D01*
G75*
G02*
X82400000Y-60685000I150000J0D01*
G01*
G37*
G36*
G01*
X81130000Y-60685000D02*
X81430000Y-60685000D01*
G75*
G02*
X81580000Y-60835000I0J-150000D01*
G01*
X81580000Y-62485000D01*
G75*
G02*
X81430000Y-62635000I-150000J0D01*
G01*
X81130000Y-62635000D01*
G75*
G02*
X80980000Y-62485000I0J150000D01*
G01*
X80980000Y-60835000D01*
G75*
G02*
X81130000Y-60685000I150000J0D01*
G01*
G37*
%TD*%
%TO.C,U6*%
G36*
G01*
X93195000Y-65635000D02*
X93495000Y-65635000D01*
G75*
G02*
X93645000Y-65785000I0J-150000D01*
G01*
X93645000Y-67435000D01*
G75*
G02*
X93495000Y-67585000I-150000J0D01*
G01*
X93195000Y-67585000D01*
G75*
G02*
X93045000Y-67435000I0J150000D01*
G01*
X93045000Y-65785000D01*
G75*
G02*
X93195000Y-65635000I150000J0D01*
G01*
G37*
G36*
G01*
X94465000Y-65635000D02*
X94765000Y-65635000D01*
G75*
G02*
X94915000Y-65785000I0J-150000D01*
G01*
X94915000Y-67435000D01*
G75*
G02*
X94765000Y-67585000I-150000J0D01*
G01*
X94465000Y-67585000D01*
G75*
G02*
X94315000Y-67435000I0J150000D01*
G01*
X94315000Y-65785000D01*
G75*
G02*
X94465000Y-65635000I150000J0D01*
G01*
G37*
G36*
G01*
X95735000Y-65635000D02*
X96035000Y-65635000D01*
G75*
G02*
X96185000Y-65785000I0J-150000D01*
G01*
X96185000Y-67435000D01*
G75*
G02*
X96035000Y-67585000I-150000J0D01*
G01*
X95735000Y-67585000D01*
G75*
G02*
X95585000Y-67435000I0J150000D01*
G01*
X95585000Y-65785000D01*
G75*
G02*
X95735000Y-65635000I150000J0D01*
G01*
G37*
G36*
G01*
X97005000Y-65635000D02*
X97305000Y-65635000D01*
G75*
G02*
X97455000Y-65785000I0J-150000D01*
G01*
X97455000Y-67435000D01*
G75*
G02*
X97305000Y-67585000I-150000J0D01*
G01*
X97005000Y-67585000D01*
G75*
G02*
X96855000Y-67435000I0J150000D01*
G01*
X96855000Y-65785000D01*
G75*
G02*
X97005000Y-65635000I150000J0D01*
G01*
G37*
G36*
G01*
X98275000Y-65635000D02*
X98575000Y-65635000D01*
G75*
G02*
X98725000Y-65785000I0J-150000D01*
G01*
X98725000Y-67435000D01*
G75*
G02*
X98575000Y-67585000I-150000J0D01*
G01*
X98275000Y-67585000D01*
G75*
G02*
X98125000Y-67435000I0J150000D01*
G01*
X98125000Y-65785000D01*
G75*
G02*
X98275000Y-65635000I150000J0D01*
G01*
G37*
G36*
G01*
X99545000Y-65635000D02*
X99845000Y-65635000D01*
G75*
G02*
X99995000Y-65785000I0J-150000D01*
G01*
X99995000Y-67435000D01*
G75*
G02*
X99845000Y-67585000I-150000J0D01*
G01*
X99545000Y-67585000D01*
G75*
G02*
X99395000Y-67435000I0J150000D01*
G01*
X99395000Y-65785000D01*
G75*
G02*
X99545000Y-65635000I150000J0D01*
G01*
G37*
G36*
G01*
X100815000Y-65635000D02*
X101115000Y-65635000D01*
G75*
G02*
X101265000Y-65785000I0J-150000D01*
G01*
X101265000Y-67435000D01*
G75*
G02*
X101115000Y-67585000I-150000J0D01*
G01*
X100815000Y-67585000D01*
G75*
G02*
X100665000Y-67435000I0J150000D01*
G01*
X100665000Y-65785000D01*
G75*
G02*
X100815000Y-65635000I150000J0D01*
G01*
G37*
G36*
G01*
X102085000Y-65635000D02*
X102385000Y-65635000D01*
G75*
G02*
X102535000Y-65785000I0J-150000D01*
G01*
X102535000Y-67435000D01*
G75*
G02*
X102385000Y-67585000I-150000J0D01*
G01*
X102085000Y-67585000D01*
G75*
G02*
X101935000Y-67435000I0J150000D01*
G01*
X101935000Y-65785000D01*
G75*
G02*
X102085000Y-65635000I150000J0D01*
G01*
G37*
G36*
G01*
X102085000Y-60685000D02*
X102385000Y-60685000D01*
G75*
G02*
X102535000Y-60835000I0J-150000D01*
G01*
X102535000Y-62485000D01*
G75*
G02*
X102385000Y-62635000I-150000J0D01*
G01*
X102085000Y-62635000D01*
G75*
G02*
X101935000Y-62485000I0J150000D01*
G01*
X101935000Y-60835000D01*
G75*
G02*
X102085000Y-60685000I150000J0D01*
G01*
G37*
G36*
G01*
X100815000Y-60685000D02*
X101115000Y-60685000D01*
G75*
G02*
X101265000Y-60835000I0J-150000D01*
G01*
X101265000Y-62485000D01*
G75*
G02*
X101115000Y-62635000I-150000J0D01*
G01*
X100815000Y-62635000D01*
G75*
G02*
X100665000Y-62485000I0J150000D01*
G01*
X100665000Y-60835000D01*
G75*
G02*
X100815000Y-60685000I150000J0D01*
G01*
G37*
G36*
G01*
X99545000Y-60685000D02*
X99845000Y-60685000D01*
G75*
G02*
X99995000Y-60835000I0J-150000D01*
G01*
X99995000Y-62485000D01*
G75*
G02*
X99845000Y-62635000I-150000J0D01*
G01*
X99545000Y-62635000D01*
G75*
G02*
X99395000Y-62485000I0J150000D01*
G01*
X99395000Y-60835000D01*
G75*
G02*
X99545000Y-60685000I150000J0D01*
G01*
G37*
G36*
G01*
X98275000Y-60685000D02*
X98575000Y-60685000D01*
G75*
G02*
X98725000Y-60835000I0J-150000D01*
G01*
X98725000Y-62485000D01*
G75*
G02*
X98575000Y-62635000I-150000J0D01*
G01*
X98275000Y-62635000D01*
G75*
G02*
X98125000Y-62485000I0J150000D01*
G01*
X98125000Y-60835000D01*
G75*
G02*
X98275000Y-60685000I150000J0D01*
G01*
G37*
G36*
G01*
X97005000Y-60685000D02*
X97305000Y-60685000D01*
G75*
G02*
X97455000Y-60835000I0J-150000D01*
G01*
X97455000Y-62485000D01*
G75*
G02*
X97305000Y-62635000I-150000J0D01*
G01*
X97005000Y-62635000D01*
G75*
G02*
X96855000Y-62485000I0J150000D01*
G01*
X96855000Y-60835000D01*
G75*
G02*
X97005000Y-60685000I150000J0D01*
G01*
G37*
G36*
G01*
X95735000Y-60685000D02*
X96035000Y-60685000D01*
G75*
G02*
X96185000Y-60835000I0J-150000D01*
G01*
X96185000Y-62485000D01*
G75*
G02*
X96035000Y-62635000I-150000J0D01*
G01*
X95735000Y-62635000D01*
G75*
G02*
X95585000Y-62485000I0J150000D01*
G01*
X95585000Y-60835000D01*
G75*
G02*
X95735000Y-60685000I150000J0D01*
G01*
G37*
G36*
G01*
X94465000Y-60685000D02*
X94765000Y-60685000D01*
G75*
G02*
X94915000Y-60835000I0J-150000D01*
G01*
X94915000Y-62485000D01*
G75*
G02*
X94765000Y-62635000I-150000J0D01*
G01*
X94465000Y-62635000D01*
G75*
G02*
X94315000Y-62485000I0J150000D01*
G01*
X94315000Y-60835000D01*
G75*
G02*
X94465000Y-60685000I150000J0D01*
G01*
G37*
G36*
G01*
X93195000Y-60685000D02*
X93495000Y-60685000D01*
G75*
G02*
X93645000Y-60835000I0J-150000D01*
G01*
X93645000Y-62485000D01*
G75*
G02*
X93495000Y-62635000I-150000J0D01*
G01*
X93195000Y-62635000D01*
G75*
G02*
X93045000Y-62485000I0J150000D01*
G01*
X93045000Y-60835000D01*
G75*
G02*
X93195000Y-60685000I150000J0D01*
G01*
G37*
%TD*%
%TO.C,C6*%
G36*
G01*
X85521250Y-81712500D02*
X84658750Y-81712500D01*
G75*
G02*
X84450000Y-81503750I0J208750D01*
G01*
X84450000Y-81086250D01*
G75*
G02*
X84658750Y-80877500I208750J0D01*
G01*
X85521250Y-80877500D01*
G75*
G02*
X85730000Y-81086250I0J-208750D01*
G01*
X85730000Y-81503750D01*
G75*
G02*
X85521250Y-81712500I-208750J0D01*
G01*
G37*
G36*
G01*
X85521250Y-82967500D02*
X84658750Y-82967500D01*
G75*
G02*
X84450000Y-82758750I0J208750D01*
G01*
X84450000Y-82341250D01*
G75*
G02*
X84658750Y-82132500I208750J0D01*
G01*
X85521250Y-82132500D01*
G75*
G02*
X85730000Y-82341250I0J-208750D01*
G01*
X85730000Y-82758750D01*
G75*
G02*
X85521250Y-82967500I-208750J0D01*
G01*
G37*
%TD*%
D10*
%TO.C,D1*%
X106045000Y-83975000D03*
X106045000Y-87475000D03*
%TD*%
%TO.C,YMF288*%
G36*
G01*
X93195000Y-100780000D02*
X93495000Y-100780000D01*
G75*
G02*
X93645000Y-100930000I0J-150000D01*
G01*
X93645000Y-102680000D01*
G75*
G02*
X93495000Y-102830000I-150000J0D01*
G01*
X93195000Y-102830000D01*
G75*
G02*
X93045000Y-102680000I0J150000D01*
G01*
X93045000Y-100930000D01*
G75*
G02*
X93195000Y-100780000I150000J0D01*
G01*
G37*
G36*
G01*
X94465000Y-100780000D02*
X94765000Y-100780000D01*
G75*
G02*
X94915000Y-100930000I0J-150000D01*
G01*
X94915000Y-102680000D01*
G75*
G02*
X94765000Y-102830000I-150000J0D01*
G01*
X94465000Y-102830000D01*
G75*
G02*
X94315000Y-102680000I0J150000D01*
G01*
X94315000Y-100930000D01*
G75*
G02*
X94465000Y-100780000I150000J0D01*
G01*
G37*
G36*
G01*
X95735000Y-100780000D02*
X96035000Y-100780000D01*
G75*
G02*
X96185000Y-100930000I0J-150000D01*
G01*
X96185000Y-102680000D01*
G75*
G02*
X96035000Y-102830000I-150000J0D01*
G01*
X95735000Y-102830000D01*
G75*
G02*
X95585000Y-102680000I0J150000D01*
G01*
X95585000Y-100930000D01*
G75*
G02*
X95735000Y-100780000I150000J0D01*
G01*
G37*
G36*
G01*
X105895000Y-100780000D02*
X106195000Y-100780000D01*
G75*
G02*
X106345000Y-100930000I0J-150000D01*
G01*
X106345000Y-102680000D01*
G75*
G02*
X106195000Y-102830000I-150000J0D01*
G01*
X105895000Y-102830000D01*
G75*
G02*
X105745000Y-102680000I0J150000D01*
G01*
X105745000Y-100930000D01*
G75*
G02*
X105895000Y-100780000I150000J0D01*
G01*
G37*
G36*
G01*
X108435000Y-100780000D02*
X108735000Y-100780000D01*
G75*
G02*
X108885000Y-100930000I0J-150000D01*
G01*
X108885000Y-102680000D01*
G75*
G02*
X108735000Y-102830000I-150000J0D01*
G01*
X108435000Y-102830000D01*
G75*
G02*
X108285000Y-102680000I0J150000D01*
G01*
X108285000Y-100930000D01*
G75*
G02*
X108435000Y-100780000I150000J0D01*
G01*
G37*
G36*
G01*
X91925000Y-100780000D02*
X92225000Y-100780000D01*
G75*
G02*
X92375000Y-100930000I0J-150000D01*
G01*
X92375000Y-102680000D01*
G75*
G02*
X92225000Y-102830000I-150000J0D01*
G01*
X91925000Y-102830000D01*
G75*
G02*
X91775000Y-102680000I0J150000D01*
G01*
X91775000Y-100930000D01*
G75*
G02*
X91925000Y-100780000I150000J0D01*
G01*
G37*
G36*
G01*
X102085000Y-100780000D02*
X102385000Y-100780000D01*
G75*
G02*
X102535000Y-100930000I0J-150000D01*
G01*
X102535000Y-102680000D01*
G75*
G02*
X102385000Y-102830000I-150000J0D01*
G01*
X102085000Y-102830000D01*
G75*
G02*
X101935000Y-102680000I0J150000D01*
G01*
X101935000Y-100930000D01*
G75*
G02*
X102085000Y-100780000I150000J0D01*
G01*
G37*
G36*
G01*
X107165000Y-100780000D02*
X107465000Y-100780000D01*
G75*
G02*
X107615000Y-100930000I0J-150000D01*
G01*
X107615000Y-102680000D01*
G75*
G02*
X107465000Y-102830000I-150000J0D01*
G01*
X107165000Y-102830000D01*
G75*
G02*
X107015000Y-102680000I0J150000D01*
G01*
X107015000Y-100930000D01*
G75*
G02*
X107165000Y-100780000I150000J0D01*
G01*
G37*
G36*
G01*
X99545000Y-100780000D02*
X99845000Y-100780000D01*
G75*
G02*
X99995000Y-100930000I0J-150000D01*
G01*
X99995000Y-102680000D01*
G75*
G02*
X99845000Y-102830000I-150000J0D01*
G01*
X99545000Y-102830000D01*
G75*
G02*
X99395000Y-102680000I0J150000D01*
G01*
X99395000Y-100930000D01*
G75*
G02*
X99545000Y-100780000I150000J0D01*
G01*
G37*
G36*
G01*
X98275000Y-100780000D02*
X98575000Y-100780000D01*
G75*
G02*
X98725000Y-100930000I0J-150000D01*
G01*
X98725000Y-102680000D01*
G75*
G02*
X98575000Y-102830000I-150000J0D01*
G01*
X98275000Y-102830000D01*
G75*
G02*
X98125000Y-102680000I0J150000D01*
G01*
X98125000Y-100930000D01*
G75*
G02*
X98275000Y-100780000I150000J0D01*
G01*
G37*
G36*
G01*
X97005000Y-100780000D02*
X97305000Y-100780000D01*
G75*
G02*
X97455000Y-100930000I0J-150000D01*
G01*
X97455000Y-102680000D01*
G75*
G02*
X97305000Y-102830000I-150000J0D01*
G01*
X97005000Y-102830000D01*
G75*
G02*
X96855000Y-102680000I0J150000D01*
G01*
X96855000Y-100930000D01*
G75*
G02*
X97005000Y-100780000I150000J0D01*
G01*
G37*
G36*
G01*
X104625000Y-100780000D02*
X104925000Y-100780000D01*
G75*
G02*
X105075000Y-100930000I0J-150000D01*
G01*
X105075000Y-102680000D01*
G75*
G02*
X104925000Y-102830000I-150000J0D01*
G01*
X104625000Y-102830000D01*
G75*
G02*
X104475000Y-102680000I0J150000D01*
G01*
X104475000Y-100930000D01*
G75*
G02*
X104625000Y-100780000I150000J0D01*
G01*
G37*
G36*
G01*
X108435000Y-90210000D02*
X108735000Y-90210000D01*
G75*
G02*
X108885000Y-90360000I0J-150000D01*
G01*
X108885000Y-92110000D01*
G75*
G02*
X108735000Y-92260000I-150000J0D01*
G01*
X108435000Y-92260000D01*
G75*
G02*
X108285000Y-92110000I0J150000D01*
G01*
X108285000Y-90360000D01*
G75*
G02*
X108435000Y-90210000I150000J0D01*
G01*
G37*
G36*
G01*
X103355000Y-100780000D02*
X103655000Y-100780000D01*
G75*
G02*
X103805000Y-100930000I0J-150000D01*
G01*
X103805000Y-102680000D01*
G75*
G02*
X103655000Y-102830000I-150000J0D01*
G01*
X103355000Y-102830000D01*
G75*
G02*
X103205000Y-102680000I0J150000D01*
G01*
X103205000Y-100930000D01*
G75*
G02*
X103355000Y-100780000I150000J0D01*
G01*
G37*
G36*
G01*
X107165000Y-90210000D02*
X107465000Y-90210000D01*
G75*
G02*
X107615000Y-90360000I0J-150000D01*
G01*
X107615000Y-92110000D01*
G75*
G02*
X107465000Y-92260000I-150000J0D01*
G01*
X107165000Y-92260000D01*
G75*
G02*
X107015000Y-92110000I0J150000D01*
G01*
X107015000Y-90360000D01*
G75*
G02*
X107165000Y-90210000I150000J0D01*
G01*
G37*
G36*
G01*
X100815000Y-100780000D02*
X101115000Y-100780000D01*
G75*
G02*
X101265000Y-100930000I0J-150000D01*
G01*
X101265000Y-102680000D01*
G75*
G02*
X101115000Y-102830000I-150000J0D01*
G01*
X100815000Y-102830000D01*
G75*
G02*
X100665000Y-102680000I0J150000D01*
G01*
X100665000Y-100930000D01*
G75*
G02*
X100815000Y-100780000I150000J0D01*
G01*
G37*
G36*
G01*
X105895000Y-90210000D02*
X106195000Y-90210000D01*
G75*
G02*
X106345000Y-90360000I0J-150000D01*
G01*
X106345000Y-92110000D01*
G75*
G02*
X106195000Y-92260000I-150000J0D01*
G01*
X105895000Y-92260000D01*
G75*
G02*
X105745000Y-92110000I0J150000D01*
G01*
X105745000Y-90360000D01*
G75*
G02*
X105895000Y-90210000I150000J0D01*
G01*
G37*
G36*
G01*
X99545000Y-90210000D02*
X99845000Y-90210000D01*
G75*
G02*
X99995000Y-90360000I0J-150000D01*
G01*
X99995000Y-92110000D01*
G75*
G02*
X99845000Y-92260000I-150000J0D01*
G01*
X99545000Y-92260000D01*
G75*
G02*
X99395000Y-92110000I0J150000D01*
G01*
X99395000Y-90360000D01*
G75*
G02*
X99545000Y-90210000I150000J0D01*
G01*
G37*
G36*
G01*
X91925000Y-90210000D02*
X92225000Y-90210000D01*
G75*
G02*
X92375000Y-90360000I0J-150000D01*
G01*
X92375000Y-92110000D01*
G75*
G02*
X92225000Y-92260000I-150000J0D01*
G01*
X91925000Y-92260000D01*
G75*
G02*
X91775000Y-92110000I0J150000D01*
G01*
X91775000Y-90360000D01*
G75*
G02*
X91925000Y-90210000I150000J0D01*
G01*
G37*
G36*
G01*
X103355000Y-90210000D02*
X103655000Y-90210000D01*
G75*
G02*
X103805000Y-90360000I0J-150000D01*
G01*
X103805000Y-92110000D01*
G75*
G02*
X103655000Y-92260000I-150000J0D01*
G01*
X103355000Y-92260000D01*
G75*
G02*
X103205000Y-92110000I0J150000D01*
G01*
X103205000Y-90360000D01*
G75*
G02*
X103355000Y-90210000I150000J0D01*
G01*
G37*
G36*
G01*
X93195000Y-90210000D02*
X93495000Y-90210000D01*
G75*
G02*
X93645000Y-90360000I0J-150000D01*
G01*
X93645000Y-92110000D01*
G75*
G02*
X93495000Y-92260000I-150000J0D01*
G01*
X93195000Y-92260000D01*
G75*
G02*
X93045000Y-92110000I0J150000D01*
G01*
X93045000Y-90360000D01*
G75*
G02*
X93195000Y-90210000I150000J0D01*
G01*
G37*
G36*
G01*
X95735000Y-90210000D02*
X96035000Y-90210000D01*
G75*
G02*
X96185000Y-90360000I0J-150000D01*
G01*
X96185000Y-92110000D01*
G75*
G02*
X96035000Y-92260000I-150000J0D01*
G01*
X95735000Y-92260000D01*
G75*
G02*
X95585000Y-92110000I0J150000D01*
G01*
X95585000Y-90360000D01*
G75*
G02*
X95735000Y-90210000I150000J0D01*
G01*
G37*
G36*
G01*
X97005000Y-90210000D02*
X97305000Y-90210000D01*
G75*
G02*
X97455000Y-90360000I0J-150000D01*
G01*
X97455000Y-92110000D01*
G75*
G02*
X97305000Y-92260000I-150000J0D01*
G01*
X97005000Y-92260000D01*
G75*
G02*
X96855000Y-92110000I0J150000D01*
G01*
X96855000Y-90360000D01*
G75*
G02*
X97005000Y-90210000I150000J0D01*
G01*
G37*
G36*
G01*
X104625000Y-90210000D02*
X104925000Y-90210000D01*
G75*
G02*
X105075000Y-90360000I0J-150000D01*
G01*
X105075000Y-92110000D01*
G75*
G02*
X104925000Y-92260000I-150000J0D01*
G01*
X104625000Y-92260000D01*
G75*
G02*
X104475000Y-92110000I0J150000D01*
G01*
X104475000Y-90360000D01*
G75*
G02*
X104625000Y-90210000I150000J0D01*
G01*
G37*
G36*
G01*
X98275000Y-90210000D02*
X98575000Y-90210000D01*
G75*
G02*
X98725000Y-90360000I0J-150000D01*
G01*
X98725000Y-92110000D01*
G75*
G02*
X98575000Y-92260000I-150000J0D01*
G01*
X98275000Y-92260000D01*
G75*
G02*
X98125000Y-92110000I0J150000D01*
G01*
X98125000Y-90360000D01*
G75*
G02*
X98275000Y-90210000I150000J0D01*
G01*
G37*
G36*
G01*
X94465000Y-90210000D02*
X94765000Y-90210000D01*
G75*
G02*
X94915000Y-90360000I0J-150000D01*
G01*
X94915000Y-92110000D01*
G75*
G02*
X94765000Y-92260000I-150000J0D01*
G01*
X94465000Y-92260000D01*
G75*
G02*
X94315000Y-92110000I0J150000D01*
G01*
X94315000Y-90360000D01*
G75*
G02*
X94465000Y-90210000I150000J0D01*
G01*
G37*
G36*
G01*
X102085000Y-90210000D02*
X102385000Y-90210000D01*
G75*
G02*
X102535000Y-90360000I0J-150000D01*
G01*
X102535000Y-92110000D01*
G75*
G02*
X102385000Y-92260000I-150000J0D01*
G01*
X102085000Y-92260000D01*
G75*
G02*
X101935000Y-92110000I0J150000D01*
G01*
X101935000Y-90360000D01*
G75*
G02*
X102085000Y-90210000I150000J0D01*
G01*
G37*
G36*
G01*
X100815000Y-90210000D02*
X101115000Y-90210000D01*
G75*
G02*
X101265000Y-90360000I0J-150000D01*
G01*
X101265000Y-92110000D01*
G75*
G02*
X101115000Y-92260000I-150000J0D01*
G01*
X100815000Y-92260000D01*
G75*
G02*
X100665000Y-92110000I0J150000D01*
G01*
X100665000Y-90360000D01*
G75*
G02*
X100815000Y-90210000I150000J0D01*
G01*
G37*
%TD*%
%TO.C,R3*%
G36*
G01*
X85909999Y-106080000D02*
X86810001Y-106080000D01*
G75*
G02*
X87060000Y-106329999I0J-249999D01*
G01*
X87060000Y-107030001D01*
G75*
G02*
X86810001Y-107280000I-249999J0D01*
G01*
X85909999Y-107280000D01*
G75*
G02*
X85660000Y-107030001I0J249999D01*
G01*
X85660000Y-106329999D01*
G75*
G02*
X85909999Y-106080000I249999J0D01*
G01*
G37*
G36*
G01*
X85909999Y-104080000D02*
X86810001Y-104080000D01*
G75*
G02*
X87060000Y-104329999I0J-249999D01*
G01*
X87060000Y-105030001D01*
G75*
G02*
X86810001Y-105280000I-249999J0D01*
G01*
X85909999Y-105280000D01*
G75*
G02*
X85660000Y-105030001I0J249999D01*
G01*
X85660000Y-104329999D01*
G75*
G02*
X85909999Y-104080000I249999J0D01*
G01*
G37*
%TD*%
D11*
%TO.C,X1*%
X100330000Y-105925000D03*
X100330000Y-111185000D03*
X105530000Y-111185000D03*
X105530000Y-105925000D03*
%TD*%
%TO.C,R2*%
G36*
G01*
X88449999Y-106080000D02*
X89350001Y-106080000D01*
G75*
G02*
X89600000Y-106329999I0J-249999D01*
G01*
X89600000Y-107030001D01*
G75*
G02*
X89350001Y-107280000I-249999J0D01*
G01*
X88449999Y-107280000D01*
G75*
G02*
X88200000Y-107030001I0J249999D01*
G01*
X88200000Y-106329999D01*
G75*
G02*
X88449999Y-106080000I249999J0D01*
G01*
G37*
G36*
G01*
X88449999Y-104080000D02*
X89350001Y-104080000D01*
G75*
G02*
X89600000Y-104329999I0J-249999D01*
G01*
X89600000Y-105030001D01*
G75*
G02*
X89350001Y-105280000I-249999J0D01*
G01*
X88449999Y-105280000D01*
G75*
G02*
X88200000Y-105030001I0J249999D01*
G01*
X88200000Y-104329999D01*
G75*
G02*
X88449999Y-104080000I249999J0D01*
G01*
G37*
%TD*%
%TO.C,R1*%
G36*
G01*
X90989999Y-106080000D02*
X91890001Y-106080000D01*
G75*
G02*
X92140000Y-106329999I0J-249999D01*
G01*
X92140000Y-107030001D01*
G75*
G02*
X91890001Y-107280000I-249999J0D01*
G01*
X90989999Y-107280000D01*
G75*
G02*
X90740000Y-107030001I0J249999D01*
G01*
X90740000Y-106329999D01*
G75*
G02*
X90989999Y-106080000I249999J0D01*
G01*
G37*
G36*
G01*
X90989999Y-104080000D02*
X91890001Y-104080000D01*
G75*
G02*
X92140000Y-104329999I0J-249999D01*
G01*
X92140000Y-105030001D01*
G75*
G02*
X91890001Y-105280000I-249999J0D01*
G01*
X90989999Y-105280000D01*
G75*
G02*
X90740000Y-105030001I0J249999D01*
G01*
X90740000Y-104329999D01*
G75*
G02*
X90989999Y-104080000I249999J0D01*
G01*
G37*
%TD*%
%TO.C,R14*%
G36*
G01*
X115440000Y-97339999D02*
X115440000Y-98240001D01*
G75*
G02*
X115190001Y-98490000I-249999J0D01*
G01*
X114489999Y-98490000D01*
G75*
G02*
X114240000Y-98240001I0J249999D01*
G01*
X114240000Y-97339999D01*
G75*
G02*
X114489999Y-97090000I249999J0D01*
G01*
X115190001Y-97090000D01*
G75*
G02*
X115440000Y-97339999I0J-249999D01*
G01*
G37*
G36*
G01*
X117440000Y-97339999D02*
X117440000Y-98240001D01*
G75*
G02*
X117190001Y-98490000I-249999J0D01*
G01*
X116489999Y-98490000D01*
G75*
G02*
X116240000Y-98240001I0J249999D01*
G01*
X116240000Y-97339999D01*
G75*
G02*
X116489999Y-97090000I249999J0D01*
G01*
X117190001Y-97090000D01*
G75*
G02*
X117440000Y-97339999I0J-249999D01*
G01*
G37*
%TD*%
%TO.C,R13*%
G36*
G01*
X114484999Y-113160000D02*
X115385001Y-113160000D01*
G75*
G02*
X115635000Y-113409999I0J-249999D01*
G01*
X115635000Y-114110001D01*
G75*
G02*
X115385001Y-114360000I-249999J0D01*
G01*
X114484999Y-114360000D01*
G75*
G02*
X114235000Y-114110001I0J249999D01*
G01*
X114235000Y-113409999D01*
G75*
G02*
X114484999Y-113160000I249999J0D01*
G01*
G37*
G36*
G01*
X114484999Y-111160000D02*
X115385001Y-111160000D01*
G75*
G02*
X115635000Y-111409999I0J-249999D01*
G01*
X115635000Y-112110001D01*
G75*
G02*
X115385001Y-112360000I-249999J0D01*
G01*
X114484999Y-112360000D01*
G75*
G02*
X114235000Y-112110001I0J249999D01*
G01*
X114235000Y-111409999D01*
G75*
G02*
X114484999Y-111160000I249999J0D01*
G01*
G37*
%TD*%
%TO.C,R12*%
G36*
G01*
X111944999Y-113160000D02*
X112845001Y-113160000D01*
G75*
G02*
X113095000Y-113409999I0J-249999D01*
G01*
X113095000Y-114110001D01*
G75*
G02*
X112845001Y-114360000I-249999J0D01*
G01*
X111944999Y-114360000D01*
G75*
G02*
X111695000Y-114110001I0J249999D01*
G01*
X111695000Y-113409999D01*
G75*
G02*
X111944999Y-113160000I249999J0D01*
G01*
G37*
G36*
G01*
X111944999Y-111160000D02*
X112845001Y-111160000D01*
G75*
G02*
X113095000Y-111409999I0J-249999D01*
G01*
X113095000Y-112110001D01*
G75*
G02*
X112845001Y-112360000I-249999J0D01*
G01*
X111944999Y-112360000D01*
G75*
G02*
X111695000Y-112110001I0J249999D01*
G01*
X111695000Y-111409999D01*
G75*
G02*
X111944999Y-111160000I249999J0D01*
G01*
G37*
%TD*%
M02*
