%TF.GenerationSoftware,KiCad,Pcbnew,(5.1.8)-1*%
%TF.CreationDate,2021-03-10T17:43:25+01:00*%
%TF.ProjectId,Nes Sound Expansion,4e657320-536f-4756-9e64-20457870616e,rev?*%
%TF.SameCoordinates,Original*%
%TF.FileFunction,Copper,L2,Bot*%
%TF.FilePolarity,Positive*%
%FSLAX46Y46*%
G04 Gerber Fmt 4.6, Leading zero omitted, Abs format (unit mm)*
G04 Created by KiCad (PCBNEW (5.1.8)-1) date 2021-03-10 17:43:25*
%MOMM*%
%LPD*%
G01*
G04 APERTURE LIST*
%TA.AperFunction,ConnectorPad*%
%ADD10R,10.000000X1.524000*%
%TD*%
%TA.AperFunction,SMDPad,CuDef*%
%ADD11R,1.700000X1.300000*%
%TD*%
%TA.AperFunction,SMDPad,CuDef*%
%ADD12R,3.000000X1.980000*%
%TD*%
%TA.AperFunction,ComponentPad*%
%ADD13O,1.700000X1.700000*%
%TD*%
%TA.AperFunction,ComponentPad*%
%ADD14R,1.700000X1.700000*%
%TD*%
%TA.AperFunction,ViaPad*%
%ADD15C,0.800000*%
%TD*%
%TA.AperFunction,Conductor*%
%ADD16C,0.250000*%
%TD*%
%TA.AperFunction,Conductor*%
%ADD17C,0.500000*%
%TD*%
G04 APERTURE END LIST*
D10*
%TO.P,J8,30*%
%TO.N,PPU_D4*%
X72390000Y-119380000D03*
%TO.P,J8,29*%
%TO.N,PPU_D5*%
X72390000Y-116840000D03*
%TO.P,J8,28*%
%TO.N,PPU_D6*%
X72390000Y-114300000D03*
%TO.P,J8,27*%
%TO.N,PPU_D7*%
X72390000Y-111760000D03*
%TO.P,J8,26*%
%TO.N,PPU_A13*%
X72390000Y-109220000D03*
%TO.P,J8,25*%
%TO.N,PPU_A12*%
X72390000Y-106680000D03*
%TO.P,J8,24*%
%TO.N,PPU_A11*%
X72390000Y-104140000D03*
%TO.P,J8,23*%
%TO.N,PPU_A10*%
X72390000Y-101600000D03*
%TO.P,J8,22*%
%TO.N,PPU_A9*%
X72390000Y-99060000D03*
%TO.P,J8,21*%
%TO.N,PPU_A8*%
X72390000Y-96520000D03*
%TO.P,J8,20*%
%TO.N,PPU_A7*%
X72390000Y-93980000D03*
%TO.P,J8,19*%
%TO.N,PPU_A13_*%
X72390000Y-91440000D03*
%TO.P,J8,18*%
%TO.N,CIRAM_CE*%
X72390000Y-88900000D03*
%TO.P,J8,17*%
%TO.N,PPU_WR*%
X72390000Y-86360000D03*
%TO.P,J8,16*%
%TO.N,AudIn*%
X72390000Y-83820000D03*
%TO.P,J8,15*%
%TO.N,Aud*%
X72390000Y-81280000D03*
%TO.P,J8,14*%
%TO.N,ROMSEL*%
X72390000Y-78740000D03*
%TO.P,J8,13*%
%TO.N,D0*%
X72390000Y-76200000D03*
%TO.P,J8,12*%
%TO.N,D1*%
X72390000Y-73660000D03*
%TO.P,J8,11*%
%TO.N,D2*%
X72390000Y-71120000D03*
%TO.P,J8,10*%
%TO.N,D3*%
X72390000Y-68580000D03*
%TO.P,J8,9*%
%TO.N,D4*%
X72390000Y-66040000D03*
%TO.P,J8,8*%
%TO.N,D5*%
X72390000Y-63500000D03*
%TO.P,J8,7*%
%TO.N,D6*%
X72390000Y-60960000D03*
%TO.P,J8,6*%
%TO.N,D7*%
X72390000Y-58420000D03*
%TO.P,J8,5*%
%TO.N,A14*%
X72390000Y-55880000D03*
%TO.P,J8,4*%
%TO.N,A13*%
X72390000Y-53340000D03*
%TO.P,J8,3*%
%TO.N,A12*%
X72390000Y-50800000D03*
%TO.P,J8,2*%
%TO.N,M2*%
X72390000Y-48260000D03*
%TO.P,J8,1*%
%TO.N,+5V*%
X72390000Y-45720000D03*
%TD*%
%TO.P,J4,30*%
%TO.N,PPU_D4*%
X128270000Y-119380000D03*
%TO.P,J4,29*%
%TO.N,PPU_D5*%
X128270000Y-116840000D03*
%TO.P,J4,28*%
%TO.N,PPU_D6*%
X128270000Y-114300000D03*
%TO.P,J4,27*%
%TO.N,PPU_D7*%
X128270000Y-111760000D03*
%TO.P,J4,26*%
%TO.N,PPU_A13*%
X128270000Y-109220000D03*
%TO.P,J4,25*%
%TO.N,PPU_A12*%
X128270000Y-106680000D03*
%TO.P,J4,24*%
%TO.N,PPU_A11*%
X128270000Y-104140000D03*
%TO.P,J4,23*%
%TO.N,PPU_A10*%
X128270000Y-101600000D03*
%TO.P,J4,22*%
%TO.N,PPU_A9*%
X128270000Y-99060000D03*
%TO.P,J4,21*%
%TO.N,PPU_A8*%
X128270000Y-96520000D03*
%TO.P,J4,20*%
%TO.N,PPU_A7*%
X128270000Y-93980000D03*
%TO.P,J4,19*%
%TO.N,PPU_A13_*%
X128270000Y-91440000D03*
%TO.P,J4,18*%
%TO.N,CIRAM_CE*%
X128270000Y-88900000D03*
%TO.P,J4,17*%
%TO.N,PPU_WR*%
X128270000Y-86360000D03*
%TO.P,J4,16*%
%TO.N,AudIn*%
X128270000Y-83820000D03*
%TO.P,J4,15*%
%TO.N,Aud*%
X128270000Y-81280000D03*
%TO.P,J4,14*%
%TO.N,ROMSEL*%
X128270000Y-78740000D03*
%TO.P,J4,13*%
%TO.N,D0*%
X128270000Y-76200000D03*
%TO.P,J4,12*%
%TO.N,D1*%
X128270000Y-73660000D03*
%TO.P,J4,11*%
%TO.N,D2*%
X128270000Y-71120000D03*
%TO.P,J4,10*%
%TO.N,D3*%
X128270000Y-68580000D03*
%TO.P,J4,9*%
%TO.N,D4*%
X128270000Y-66040000D03*
%TO.P,J4,8*%
%TO.N,D5*%
X128270000Y-63500000D03*
%TO.P,J4,7*%
%TO.N,D6*%
X128270000Y-60960000D03*
%TO.P,J4,6*%
%TO.N,D7*%
X128270000Y-58420000D03*
%TO.P,J4,5*%
%TO.N,A14*%
X128270000Y-55880000D03*
%TO.P,J4,4*%
%TO.N,A13*%
X128270000Y-53340000D03*
%TO.P,J4,3*%
%TO.N,A12*%
X128270000Y-50800000D03*
%TO.P,J4,2*%
%TO.N,M2*%
X128270000Y-48260000D03*
%TO.P,J4,1*%
%TO.N,+5V*%
X128270000Y-45720000D03*
%TD*%
%TO.P,C1,2*%
%TO.N,Net-(C1-Pad2)*%
%TA.AperFunction,SMDPad,CuDef*%
G36*
G01*
X109016250Y-84252500D02*
X108153750Y-84252500D01*
G75*
G02*
X107945000Y-84043750I0J208750D01*
G01*
X107945000Y-83626250D01*
G75*
G02*
X108153750Y-83417500I208750J0D01*
G01*
X109016250Y-83417500D01*
G75*
G02*
X109225000Y-83626250I0J-208750D01*
G01*
X109225000Y-84043750D01*
G75*
G02*
X109016250Y-84252500I-208750J0D01*
G01*
G37*
%TD.AperFunction*%
%TO.P,C1,1*%
%TO.N,GND*%
%TA.AperFunction,SMDPad,CuDef*%
G36*
G01*
X109016250Y-85507500D02*
X108153750Y-85507500D01*
G75*
G02*
X107945000Y-85298750I0J208750D01*
G01*
X107945000Y-84881250D01*
G75*
G02*
X108153750Y-84672500I208750J0D01*
G01*
X109016250Y-84672500D01*
G75*
G02*
X109225000Y-84881250I0J-208750D01*
G01*
X109225000Y-85298750D01*
G75*
G02*
X109016250Y-85507500I-208750J0D01*
G01*
G37*
%TD.AperFunction*%
%TD*%
%TO.P,C3,2*%
%TO.N,Net-(C3-Pad2)*%
%TA.AperFunction,SMDPad,CuDef*%
G36*
G01*
X111963750Y-109422000D02*
X112826250Y-109422000D01*
G75*
G02*
X113035000Y-109630750I0J-208750D01*
G01*
X113035000Y-110048250D01*
G75*
G02*
X112826250Y-110257000I-208750J0D01*
G01*
X111963750Y-110257000D01*
G75*
G02*
X111755000Y-110048250I0J208750D01*
G01*
X111755000Y-109630750D01*
G75*
G02*
X111963750Y-109422000I208750J0D01*
G01*
G37*
%TD.AperFunction*%
%TO.P,C3,1*%
%TO.N,GND*%
%TA.AperFunction,SMDPad,CuDef*%
G36*
G01*
X111963750Y-108167000D02*
X112826250Y-108167000D01*
G75*
G02*
X113035000Y-108375750I0J-208750D01*
G01*
X113035000Y-108793250D01*
G75*
G02*
X112826250Y-109002000I-208750J0D01*
G01*
X111963750Y-109002000D01*
G75*
G02*
X111755000Y-108793250I0J208750D01*
G01*
X111755000Y-108375750D01*
G75*
G02*
X111963750Y-108167000I208750J0D01*
G01*
G37*
%TD.AperFunction*%
%TD*%
%TO.P,C5,2*%
%TO.N,Net-(C5-Pad2)*%
%TA.AperFunction,SMDPad,CuDef*%
G36*
G01*
X110693750Y-92292500D02*
X111556250Y-92292500D01*
G75*
G02*
X111765000Y-92501250I0J-208750D01*
G01*
X111765000Y-92918750D01*
G75*
G02*
X111556250Y-93127500I-208750J0D01*
G01*
X110693750Y-93127500D01*
G75*
G02*
X110485000Y-92918750I0J208750D01*
G01*
X110485000Y-92501250D01*
G75*
G02*
X110693750Y-92292500I208750J0D01*
G01*
G37*
%TD.AperFunction*%
%TO.P,C5,1*%
%TO.N,GND*%
%TA.AperFunction,SMDPad,CuDef*%
G36*
G01*
X110693750Y-91037500D02*
X111556250Y-91037500D01*
G75*
G02*
X111765000Y-91246250I0J-208750D01*
G01*
X111765000Y-91663750D01*
G75*
G02*
X111556250Y-91872500I-208750J0D01*
G01*
X110693750Y-91872500D01*
G75*
G02*
X110485000Y-91663750I0J208750D01*
G01*
X110485000Y-91246250D01*
G75*
G02*
X110693750Y-91037500I208750J0D01*
G01*
G37*
%TD.AperFunction*%
%TD*%
%TO.P,R5,2*%
%TO.N,Net-(C6-Pad1)*%
%TA.AperFunction,SMDPad,CuDef*%
G36*
G01*
X87179999Y-91475000D02*
X88080001Y-91475000D01*
G75*
G02*
X88330000Y-91724999I0J-249999D01*
G01*
X88330000Y-92425001D01*
G75*
G02*
X88080001Y-92675000I-249999J0D01*
G01*
X87179999Y-92675000D01*
G75*
G02*
X86930000Y-92425001I0J249999D01*
G01*
X86930000Y-91724999D01*
G75*
G02*
X87179999Y-91475000I249999J0D01*
G01*
G37*
%TD.AperFunction*%
%TO.P,R5,1*%
%TO.N,Net-(BU9480F1-Pad4)*%
%TA.AperFunction,SMDPad,CuDef*%
G36*
G01*
X87179999Y-89475000D02*
X88080001Y-89475000D01*
G75*
G02*
X88330000Y-89724999I0J-249999D01*
G01*
X88330000Y-90425001D01*
G75*
G02*
X88080001Y-90675000I-249999J0D01*
G01*
X87179999Y-90675000D01*
G75*
G02*
X86930000Y-90425001I0J249999D01*
G01*
X86930000Y-89724999D01*
G75*
G02*
X87179999Y-89475000I249999J0D01*
G01*
G37*
%TD.AperFunction*%
%TD*%
%TO.P,R8,2*%
%TO.N,Net-(BU9480F1-Pad1)*%
%TA.AperFunction,SMDPad,CuDef*%
G36*
G01*
X85540001Y-90675000D02*
X84639999Y-90675000D01*
G75*
G02*
X84390000Y-90425001I0J249999D01*
G01*
X84390000Y-89724999D01*
G75*
G02*
X84639999Y-89475000I249999J0D01*
G01*
X85540001Y-89475000D01*
G75*
G02*
X85790000Y-89724999I0J-249999D01*
G01*
X85790000Y-90425001D01*
G75*
G02*
X85540001Y-90675000I-249999J0D01*
G01*
G37*
%TD.AperFunction*%
%TO.P,R8,1*%
%TO.N,Net-(C6-Pad1)*%
%TA.AperFunction,SMDPad,CuDef*%
G36*
G01*
X85540001Y-92675000D02*
X84639999Y-92675000D01*
G75*
G02*
X84390000Y-92425001I0J249999D01*
G01*
X84390000Y-91724999D01*
G75*
G02*
X84639999Y-91475000I249999J0D01*
G01*
X85540001Y-91475000D01*
G75*
G02*
X85790000Y-91724999I0J-249999D01*
G01*
X85790000Y-92425001D01*
G75*
G02*
X85540001Y-92675000I-249999J0D01*
G01*
G37*
%TD.AperFunction*%
%TD*%
%TO.P,C4,2*%
%TO.N,Net-(C4-Pad2)*%
%TA.AperFunction,SMDPad,CuDef*%
G36*
G01*
X114503750Y-109422000D02*
X115366250Y-109422000D01*
G75*
G02*
X115575000Y-109630750I0J-208750D01*
G01*
X115575000Y-110048250D01*
G75*
G02*
X115366250Y-110257000I-208750J0D01*
G01*
X114503750Y-110257000D01*
G75*
G02*
X114295000Y-110048250I0J208750D01*
G01*
X114295000Y-109630750D01*
G75*
G02*
X114503750Y-109422000I208750J0D01*
G01*
G37*
%TD.AperFunction*%
%TO.P,C4,1*%
%TO.N,GND*%
%TA.AperFunction,SMDPad,CuDef*%
G36*
G01*
X114503750Y-108167000D02*
X115366250Y-108167000D01*
G75*
G02*
X115575000Y-108375750I0J-208750D01*
G01*
X115575000Y-108793250D01*
G75*
G02*
X115366250Y-109002000I-208750J0D01*
G01*
X114503750Y-109002000D01*
G75*
G02*
X114295000Y-108793250I0J208750D01*
G01*
X114295000Y-108375750D01*
G75*
G02*
X114503750Y-108167000I208750J0D01*
G01*
G37*
%TD.AperFunction*%
%TD*%
%TO.P,C2,2*%
%TO.N,GND*%
%TA.AperFunction,SMDPad,CuDef*%
G36*
G01*
X90035000Y-86275000D02*
X90035000Y-85175000D01*
G75*
G02*
X90285000Y-84925000I250000J0D01*
G01*
X92385000Y-84925000D01*
G75*
G02*
X92635000Y-85175000I0J-250000D01*
G01*
X92635000Y-86275000D01*
G75*
G02*
X92385000Y-86525000I-250000J0D01*
G01*
X90285000Y-86525000D01*
G75*
G02*
X90035000Y-86275000I0J250000D01*
G01*
G37*
%TD.AperFunction*%
%TO.P,C2,1*%
%TO.N,Net-(BU9480F1-Pad2)*%
%TA.AperFunction,SMDPad,CuDef*%
G36*
G01*
X86435000Y-86275000D02*
X86435000Y-85175000D01*
G75*
G02*
X86685000Y-84925000I250000J0D01*
G01*
X88785000Y-84925000D01*
G75*
G02*
X89035000Y-85175000I0J-250000D01*
G01*
X89035000Y-86275000D01*
G75*
G02*
X88785000Y-86525000I-250000J0D01*
G01*
X86685000Y-86525000D01*
G75*
G02*
X86435000Y-86275000I0J250000D01*
G01*
G37*
%TD.AperFunction*%
%TD*%
%TO.P,BU9480F1,8*%
%TO.N,+5V*%
%TA.AperFunction,SMDPad,CuDef*%
G36*
G01*
X84940000Y-101225000D02*
X85240000Y-101225000D01*
G75*
G02*
X85390000Y-101375000I0J-150000D01*
G01*
X85390000Y-102675000D01*
G75*
G02*
X85240000Y-102825000I-150000J0D01*
G01*
X84940000Y-102825000D01*
G75*
G02*
X84790000Y-102675000I0J150000D01*
G01*
X84790000Y-101375000D01*
G75*
G02*
X84940000Y-101225000I150000J0D01*
G01*
G37*
%TD.AperFunction*%
%TO.P,BU9480F1,7*%
%TO.N,Net-(BU9480F1-Pad7)*%
%TA.AperFunction,SMDPad,CuDef*%
G36*
G01*
X86210000Y-101225000D02*
X86510000Y-101225000D01*
G75*
G02*
X86660000Y-101375000I0J-150000D01*
G01*
X86660000Y-102675000D01*
G75*
G02*
X86510000Y-102825000I-150000J0D01*
G01*
X86210000Y-102825000D01*
G75*
G02*
X86060000Y-102675000I0J150000D01*
G01*
X86060000Y-101375000D01*
G75*
G02*
X86210000Y-101225000I150000J0D01*
G01*
G37*
%TD.AperFunction*%
%TO.P,BU9480F1,6*%
%TO.N,Net-(BU9480F1-Pad6)*%
%TA.AperFunction,SMDPad,CuDef*%
G36*
G01*
X87480000Y-101225000D02*
X87780000Y-101225000D01*
G75*
G02*
X87930000Y-101375000I0J-150000D01*
G01*
X87930000Y-102675000D01*
G75*
G02*
X87780000Y-102825000I-150000J0D01*
G01*
X87480000Y-102825000D01*
G75*
G02*
X87330000Y-102675000I0J150000D01*
G01*
X87330000Y-101375000D01*
G75*
G02*
X87480000Y-101225000I150000J0D01*
G01*
G37*
%TD.AperFunction*%
%TO.P,BU9480F1,5*%
%TO.N,Net-(BU9480F1-Pad5)*%
%TA.AperFunction,SMDPad,CuDef*%
G36*
G01*
X88750000Y-101225000D02*
X89050000Y-101225000D01*
G75*
G02*
X89200000Y-101375000I0J-150000D01*
G01*
X89200000Y-102675000D01*
G75*
G02*
X89050000Y-102825000I-150000J0D01*
G01*
X88750000Y-102825000D01*
G75*
G02*
X88600000Y-102675000I0J150000D01*
G01*
X88600000Y-101375000D01*
G75*
G02*
X88750000Y-101225000I150000J0D01*
G01*
G37*
%TD.AperFunction*%
%TO.P,BU9480F1,4*%
%TO.N,Net-(BU9480F1-Pad4)*%
%TA.AperFunction,SMDPad,CuDef*%
G36*
G01*
X88750000Y-94025000D02*
X89050000Y-94025000D01*
G75*
G02*
X89200000Y-94175000I0J-150000D01*
G01*
X89200000Y-95475000D01*
G75*
G02*
X89050000Y-95625000I-150000J0D01*
G01*
X88750000Y-95625000D01*
G75*
G02*
X88600000Y-95475000I0J150000D01*
G01*
X88600000Y-94175000D01*
G75*
G02*
X88750000Y-94025000I150000J0D01*
G01*
G37*
%TD.AperFunction*%
%TO.P,BU9480F1,3*%
%TO.N,GND*%
%TA.AperFunction,SMDPad,CuDef*%
G36*
G01*
X87480000Y-94025000D02*
X87780000Y-94025000D01*
G75*
G02*
X87930000Y-94175000I0J-150000D01*
G01*
X87930000Y-95475000D01*
G75*
G02*
X87780000Y-95625000I-150000J0D01*
G01*
X87480000Y-95625000D01*
G75*
G02*
X87330000Y-95475000I0J150000D01*
G01*
X87330000Y-94175000D01*
G75*
G02*
X87480000Y-94025000I150000J0D01*
G01*
G37*
%TD.AperFunction*%
%TO.P,BU9480F1,2*%
%TO.N,Net-(BU9480F1-Pad2)*%
%TA.AperFunction,SMDPad,CuDef*%
G36*
G01*
X86210000Y-94025000D02*
X86510000Y-94025000D01*
G75*
G02*
X86660000Y-94175000I0J-150000D01*
G01*
X86660000Y-95475000D01*
G75*
G02*
X86510000Y-95625000I-150000J0D01*
G01*
X86210000Y-95625000D01*
G75*
G02*
X86060000Y-95475000I0J150000D01*
G01*
X86060000Y-94175000D01*
G75*
G02*
X86210000Y-94025000I150000J0D01*
G01*
G37*
%TD.AperFunction*%
%TO.P,BU9480F1,1*%
%TO.N,Net-(BU9480F1-Pad1)*%
%TA.AperFunction,SMDPad,CuDef*%
G36*
G01*
X84940000Y-94025000D02*
X85240000Y-94025000D01*
G75*
G02*
X85390000Y-94175000I0J-150000D01*
G01*
X85390000Y-95475000D01*
G75*
G02*
X85240000Y-95625000I-150000J0D01*
G01*
X84940000Y-95625000D01*
G75*
G02*
X84790000Y-95475000I0J150000D01*
G01*
X84790000Y-94175000D01*
G75*
G02*
X84940000Y-94025000I150000J0D01*
G01*
G37*
%TD.AperFunction*%
%TD*%
%TO.P,U2,14*%
%TO.N,+5V*%
%TA.AperFunction,SMDPad,CuDef*%
G36*
G01*
X120165000Y-102005000D02*
X119865000Y-102005000D01*
G75*
G02*
X119715000Y-101855000I0J150000D01*
G01*
X119715000Y-100205000D01*
G75*
G02*
X119865000Y-100055000I150000J0D01*
G01*
X120165000Y-100055000D01*
G75*
G02*
X120315000Y-100205000I0J-150000D01*
G01*
X120315000Y-101855000D01*
G75*
G02*
X120165000Y-102005000I-150000J0D01*
G01*
G37*
%TD.AperFunction*%
%TO.P,U2,13*%
%TO.N,Net-(C5-Pad2)*%
%TA.AperFunction,SMDPad,CuDef*%
G36*
G01*
X118895000Y-102005000D02*
X118595000Y-102005000D01*
G75*
G02*
X118445000Y-101855000I0J150000D01*
G01*
X118445000Y-100205000D01*
G75*
G02*
X118595000Y-100055000I150000J0D01*
G01*
X118895000Y-100055000D01*
G75*
G02*
X119045000Y-100205000I0J-150000D01*
G01*
X119045000Y-101855000D01*
G75*
G02*
X118895000Y-102005000I-150000J0D01*
G01*
G37*
%TD.AperFunction*%
%TO.P,U2,12*%
%TA.AperFunction,SMDPad,CuDef*%
G36*
G01*
X117625000Y-102005000D02*
X117325000Y-102005000D01*
G75*
G02*
X117175000Y-101855000I0J150000D01*
G01*
X117175000Y-100205000D01*
G75*
G02*
X117325000Y-100055000I150000J0D01*
G01*
X117625000Y-100055000D01*
G75*
G02*
X117775000Y-100205000I0J-150000D01*
G01*
X117775000Y-101855000D01*
G75*
G02*
X117625000Y-102005000I-150000J0D01*
G01*
G37*
%TD.AperFunction*%
%TO.P,U2,11*%
%TO.N,Net-(U2-Pad10)*%
%TA.AperFunction,SMDPad,CuDef*%
G36*
G01*
X116355000Y-102005000D02*
X116055000Y-102005000D01*
G75*
G02*
X115905000Y-101855000I0J150000D01*
G01*
X115905000Y-100205000D01*
G75*
G02*
X116055000Y-100055000I150000J0D01*
G01*
X116355000Y-100055000D01*
G75*
G02*
X116505000Y-100205000I0J-150000D01*
G01*
X116505000Y-101855000D01*
G75*
G02*
X116355000Y-102005000I-150000J0D01*
G01*
G37*
%TD.AperFunction*%
%TO.P,U2,10*%
%TA.AperFunction,SMDPad,CuDef*%
G36*
G01*
X115085000Y-102005000D02*
X114785000Y-102005000D01*
G75*
G02*
X114635000Y-101855000I0J150000D01*
G01*
X114635000Y-100205000D01*
G75*
G02*
X114785000Y-100055000I150000J0D01*
G01*
X115085000Y-100055000D01*
G75*
G02*
X115235000Y-100205000I0J-150000D01*
G01*
X115235000Y-101855000D01*
G75*
G02*
X115085000Y-102005000I-150000J0D01*
G01*
G37*
%TD.AperFunction*%
%TO.P,U2,9*%
%TA.AperFunction,SMDPad,CuDef*%
G36*
G01*
X113815000Y-102005000D02*
X113515000Y-102005000D01*
G75*
G02*
X113365000Y-101855000I0J150000D01*
G01*
X113365000Y-100205000D01*
G75*
G02*
X113515000Y-100055000I150000J0D01*
G01*
X113815000Y-100055000D01*
G75*
G02*
X113965000Y-100205000I0J-150000D01*
G01*
X113965000Y-101855000D01*
G75*
G02*
X113815000Y-102005000I-150000J0D01*
G01*
G37*
%TD.AperFunction*%
%TO.P,U2,8*%
%TO.N,FF_Reset*%
%TA.AperFunction,SMDPad,CuDef*%
G36*
G01*
X112545000Y-102005000D02*
X112245000Y-102005000D01*
G75*
G02*
X112095000Y-101855000I0J150000D01*
G01*
X112095000Y-100205000D01*
G75*
G02*
X112245000Y-100055000I150000J0D01*
G01*
X112545000Y-100055000D01*
G75*
G02*
X112695000Y-100205000I0J-150000D01*
G01*
X112695000Y-101855000D01*
G75*
G02*
X112545000Y-102005000I-150000J0D01*
G01*
G37*
%TD.AperFunction*%
%TO.P,U2,7*%
%TO.N,GND*%
%TA.AperFunction,SMDPad,CuDef*%
G36*
G01*
X112545000Y-106955000D02*
X112245000Y-106955000D01*
G75*
G02*
X112095000Y-106805000I0J150000D01*
G01*
X112095000Y-105155000D01*
G75*
G02*
X112245000Y-105005000I150000J0D01*
G01*
X112545000Y-105005000D01*
G75*
G02*
X112695000Y-105155000I0J-150000D01*
G01*
X112695000Y-106805000D01*
G75*
G02*
X112545000Y-106955000I-150000J0D01*
G01*
G37*
%TD.AperFunction*%
%TO.P,U2,6*%
%TO.N,CS_buf*%
%TA.AperFunction,SMDPad,CuDef*%
G36*
G01*
X113815000Y-106955000D02*
X113515000Y-106955000D01*
G75*
G02*
X113365000Y-106805000I0J150000D01*
G01*
X113365000Y-105155000D01*
G75*
G02*
X113515000Y-105005000I150000J0D01*
G01*
X113815000Y-105005000D01*
G75*
G02*
X113965000Y-105155000I0J-150000D01*
G01*
X113965000Y-106805000D01*
G75*
G02*
X113815000Y-106955000I-150000J0D01*
G01*
G37*
%TD.AperFunction*%
%TO.P,U2,5*%
%TO.N,Net-(R14-Pad2)*%
%TA.AperFunction,SMDPad,CuDef*%
G36*
G01*
X115085000Y-106955000D02*
X114785000Y-106955000D01*
G75*
G02*
X114635000Y-106805000I0J150000D01*
G01*
X114635000Y-105155000D01*
G75*
G02*
X114785000Y-105005000I150000J0D01*
G01*
X115085000Y-105005000D01*
G75*
G02*
X115235000Y-105155000I0J-150000D01*
G01*
X115235000Y-106805000D01*
G75*
G02*
X115085000Y-106955000I-150000J0D01*
G01*
G37*
%TD.AperFunction*%
%TO.P,U2,4*%
%TO.N,Net-(C3-Pad2)*%
%TA.AperFunction,SMDPad,CuDef*%
G36*
G01*
X116355000Y-106955000D02*
X116055000Y-106955000D01*
G75*
G02*
X115905000Y-106805000I0J150000D01*
G01*
X115905000Y-105155000D01*
G75*
G02*
X116055000Y-105005000I150000J0D01*
G01*
X116355000Y-105005000D01*
G75*
G02*
X116505000Y-105155000I0J-150000D01*
G01*
X116505000Y-106805000D01*
G75*
G02*
X116355000Y-106955000I-150000J0D01*
G01*
G37*
%TD.AperFunction*%
%TO.P,U2,3*%
%TO.N,Net-(R14-Pad2)*%
%TA.AperFunction,SMDPad,CuDef*%
G36*
G01*
X117625000Y-106955000D02*
X117325000Y-106955000D01*
G75*
G02*
X117175000Y-106805000I0J150000D01*
G01*
X117175000Y-105155000D01*
G75*
G02*
X117325000Y-105005000I150000J0D01*
G01*
X117625000Y-105005000D01*
G75*
G02*
X117775000Y-105155000I0J-150000D01*
G01*
X117775000Y-106805000D01*
G75*
G02*
X117625000Y-106955000I-150000J0D01*
G01*
G37*
%TD.AperFunction*%
%TO.P,U2,2*%
%TO.N,Net-(C4-Pad2)*%
%TA.AperFunction,SMDPad,CuDef*%
G36*
G01*
X118895000Y-106955000D02*
X118595000Y-106955000D01*
G75*
G02*
X118445000Y-106805000I0J150000D01*
G01*
X118445000Y-105155000D01*
G75*
G02*
X118595000Y-105005000I150000J0D01*
G01*
X118895000Y-105005000D01*
G75*
G02*
X119045000Y-105155000I0J-150000D01*
G01*
X119045000Y-106805000D01*
G75*
G02*
X118895000Y-106955000I-150000J0D01*
G01*
G37*
%TD.AperFunction*%
%TO.P,U2,1*%
%TA.AperFunction,SMDPad,CuDef*%
G36*
G01*
X120165000Y-106955000D02*
X119865000Y-106955000D01*
G75*
G02*
X119715000Y-106805000I0J150000D01*
G01*
X119715000Y-105155000D01*
G75*
G02*
X119865000Y-105005000I150000J0D01*
G01*
X120165000Y-105005000D01*
G75*
G02*
X120315000Y-105155000I0J-150000D01*
G01*
X120315000Y-106805000D01*
G75*
G02*
X120165000Y-106955000I-150000J0D01*
G01*
G37*
%TD.AperFunction*%
%TD*%
%TO.P,U10,16*%
%TO.N,+5V*%
%TA.AperFunction,SMDPad,CuDef*%
G36*
G01*
X115085000Y-62635000D02*
X114785000Y-62635000D01*
G75*
G02*
X114635000Y-62485000I0J150000D01*
G01*
X114635000Y-60835000D01*
G75*
G02*
X114785000Y-60685000I150000J0D01*
G01*
X115085000Y-60685000D01*
G75*
G02*
X115235000Y-60835000I0J-150000D01*
G01*
X115235000Y-62485000D01*
G75*
G02*
X115085000Y-62635000I-150000J0D01*
G01*
G37*
%TD.AperFunction*%
%TO.P,U10,15*%
%TO.N,GND*%
%TA.AperFunction,SMDPad,CuDef*%
G36*
G01*
X113815000Y-62635000D02*
X113515000Y-62635000D01*
G75*
G02*
X113365000Y-62485000I0J150000D01*
G01*
X113365000Y-60835000D01*
G75*
G02*
X113515000Y-60685000I150000J0D01*
G01*
X113815000Y-60685000D01*
G75*
G02*
X113965000Y-60835000I0J-150000D01*
G01*
X113965000Y-62485000D01*
G75*
G02*
X113815000Y-62635000I-150000J0D01*
G01*
G37*
%TD.AperFunction*%
%TO.P,U10,14*%
%TO.N,CS_*%
%TA.AperFunction,SMDPad,CuDef*%
G36*
G01*
X112545000Y-62635000D02*
X112245000Y-62635000D01*
G75*
G02*
X112095000Y-62485000I0J150000D01*
G01*
X112095000Y-60835000D01*
G75*
G02*
X112245000Y-60685000I150000J0D01*
G01*
X112545000Y-60685000D01*
G75*
G02*
X112695000Y-60835000I0J-150000D01*
G01*
X112695000Y-62485000D01*
G75*
G02*
X112545000Y-62635000I-150000J0D01*
G01*
G37*
%TD.AperFunction*%
%TO.P,U10,13*%
%TO.N,CS_buf*%
%TA.AperFunction,SMDPad,CuDef*%
G36*
G01*
X111275000Y-62635000D02*
X110975000Y-62635000D01*
G75*
G02*
X110825000Y-62485000I0J150000D01*
G01*
X110825000Y-60835000D01*
G75*
G02*
X110975000Y-60685000I150000J0D01*
G01*
X111275000Y-60685000D01*
G75*
G02*
X111425000Y-60835000I0J-150000D01*
G01*
X111425000Y-62485000D01*
G75*
G02*
X111275000Y-62635000I-150000J0D01*
G01*
G37*
%TD.AperFunction*%
%TO.P,U10,12*%
%TO.N,CS_Chip*%
%TA.AperFunction,SMDPad,CuDef*%
G36*
G01*
X110005000Y-62635000D02*
X109705000Y-62635000D01*
G75*
G02*
X109555000Y-62485000I0J150000D01*
G01*
X109555000Y-60835000D01*
G75*
G02*
X109705000Y-60685000I150000J0D01*
G01*
X110005000Y-60685000D01*
G75*
G02*
X110155000Y-60835000I0J-150000D01*
G01*
X110155000Y-62485000D01*
G75*
G02*
X110005000Y-62635000I-150000J0D01*
G01*
G37*
%TD.AperFunction*%
%TO.P,U10,11*%
%TO.N,Net-(U10-Pad11)*%
%TA.AperFunction,SMDPad,CuDef*%
G36*
G01*
X108735000Y-62635000D02*
X108435000Y-62635000D01*
G75*
G02*
X108285000Y-62485000I0J150000D01*
G01*
X108285000Y-60835000D01*
G75*
G02*
X108435000Y-60685000I150000J0D01*
G01*
X108735000Y-60685000D01*
G75*
G02*
X108885000Y-60835000I0J-150000D01*
G01*
X108885000Y-62485000D01*
G75*
G02*
X108735000Y-62635000I-150000J0D01*
G01*
G37*
%TD.AperFunction*%
%TO.P,U10,10*%
%TO.N,Net-(U10-Pad10)*%
%TA.AperFunction,SMDPad,CuDef*%
G36*
G01*
X107465000Y-62635000D02*
X107165000Y-62635000D01*
G75*
G02*
X107015000Y-62485000I0J150000D01*
G01*
X107015000Y-60835000D01*
G75*
G02*
X107165000Y-60685000I150000J0D01*
G01*
X107465000Y-60685000D01*
G75*
G02*
X107615000Y-60835000I0J-150000D01*
G01*
X107615000Y-62485000D01*
G75*
G02*
X107465000Y-62635000I-150000J0D01*
G01*
G37*
%TD.AperFunction*%
%TO.P,U10,9*%
%TO.N,Net-(U10-Pad9)*%
%TA.AperFunction,SMDPad,CuDef*%
G36*
G01*
X106195000Y-62635000D02*
X105895000Y-62635000D01*
G75*
G02*
X105745000Y-62485000I0J150000D01*
G01*
X105745000Y-60835000D01*
G75*
G02*
X105895000Y-60685000I150000J0D01*
G01*
X106195000Y-60685000D01*
G75*
G02*
X106345000Y-60835000I0J-150000D01*
G01*
X106345000Y-62485000D01*
G75*
G02*
X106195000Y-62635000I-150000J0D01*
G01*
G37*
%TD.AperFunction*%
%TO.P,U10,8*%
%TO.N,GND*%
%TA.AperFunction,SMDPad,CuDef*%
G36*
G01*
X106195000Y-67585000D02*
X105895000Y-67585000D01*
G75*
G02*
X105745000Y-67435000I0J150000D01*
G01*
X105745000Y-65785000D01*
G75*
G02*
X105895000Y-65635000I150000J0D01*
G01*
X106195000Y-65635000D01*
G75*
G02*
X106345000Y-65785000I0J-150000D01*
G01*
X106345000Y-67435000D01*
G75*
G02*
X106195000Y-67585000I-150000J0D01*
G01*
G37*
%TD.AperFunction*%
%TO.P,U10,7*%
%TO.N,A0_Chip*%
%TA.AperFunction,SMDPad,CuDef*%
G36*
G01*
X107465000Y-67585000D02*
X107165000Y-67585000D01*
G75*
G02*
X107015000Y-67435000I0J150000D01*
G01*
X107015000Y-65785000D01*
G75*
G02*
X107165000Y-65635000I150000J0D01*
G01*
X107465000Y-65635000D01*
G75*
G02*
X107615000Y-65785000I0J-150000D01*
G01*
X107615000Y-67435000D01*
G75*
G02*
X107465000Y-67585000I-150000J0D01*
G01*
G37*
%TD.AperFunction*%
%TO.P,U10,6*%
%TO.N,A0_buf*%
%TA.AperFunction,SMDPad,CuDef*%
G36*
G01*
X108735000Y-67585000D02*
X108435000Y-67585000D01*
G75*
G02*
X108285000Y-67435000I0J150000D01*
G01*
X108285000Y-65785000D01*
G75*
G02*
X108435000Y-65635000I150000J0D01*
G01*
X108735000Y-65635000D01*
G75*
G02*
X108885000Y-65785000I0J-150000D01*
G01*
X108885000Y-67435000D01*
G75*
G02*
X108735000Y-67585000I-150000J0D01*
G01*
G37*
%TD.AperFunction*%
%TO.P,U10,5*%
%TO.N,Addr_A13*%
%TA.AperFunction,SMDPad,CuDef*%
G36*
G01*
X110005000Y-67585000D02*
X109705000Y-67585000D01*
G75*
G02*
X109555000Y-67435000I0J150000D01*
G01*
X109555000Y-65785000D01*
G75*
G02*
X109705000Y-65635000I150000J0D01*
G01*
X110005000Y-65635000D01*
G75*
G02*
X110155000Y-65785000I0J-150000D01*
G01*
X110155000Y-67435000D01*
G75*
G02*
X110005000Y-67585000I-150000J0D01*
G01*
G37*
%TD.AperFunction*%
%TO.P,U10,4*%
%TO.N,A1_Chip*%
%TA.AperFunction,SMDPad,CuDef*%
G36*
G01*
X111275000Y-67585000D02*
X110975000Y-67585000D01*
G75*
G02*
X110825000Y-67435000I0J150000D01*
G01*
X110825000Y-65785000D01*
G75*
G02*
X110975000Y-65635000I150000J0D01*
G01*
X111275000Y-65635000D01*
G75*
G02*
X111425000Y-65785000I0J-150000D01*
G01*
X111425000Y-67435000D01*
G75*
G02*
X111275000Y-67585000I-150000J0D01*
G01*
G37*
%TD.AperFunction*%
%TO.P,U10,3*%
%TO.N,A1_buf*%
%TA.AperFunction,SMDPad,CuDef*%
G36*
G01*
X112545000Y-67585000D02*
X112245000Y-67585000D01*
G75*
G02*
X112095000Y-67435000I0J150000D01*
G01*
X112095000Y-65785000D01*
G75*
G02*
X112245000Y-65635000I150000J0D01*
G01*
X112545000Y-65635000D01*
G75*
G02*
X112695000Y-65785000I0J-150000D01*
G01*
X112695000Y-67435000D01*
G75*
G02*
X112545000Y-67585000I-150000J0D01*
G01*
G37*
%TD.AperFunction*%
%TO.P,U10,2*%
%TO.N,Addr_A1*%
%TA.AperFunction,SMDPad,CuDef*%
G36*
G01*
X113815000Y-67585000D02*
X113515000Y-67585000D01*
G75*
G02*
X113365000Y-67435000I0J150000D01*
G01*
X113365000Y-65785000D01*
G75*
G02*
X113515000Y-65635000I150000J0D01*
G01*
X113815000Y-65635000D01*
G75*
G02*
X113965000Y-65785000I0J-150000D01*
G01*
X113965000Y-67435000D01*
G75*
G02*
X113815000Y-67585000I-150000J0D01*
G01*
G37*
%TD.AperFunction*%
%TO.P,U10,1*%
%TO.N,4016_EN*%
%TA.AperFunction,SMDPad,CuDef*%
G36*
G01*
X115085000Y-67585000D02*
X114785000Y-67585000D01*
G75*
G02*
X114635000Y-67435000I0J150000D01*
G01*
X114635000Y-65785000D01*
G75*
G02*
X114785000Y-65635000I150000J0D01*
G01*
X115085000Y-65635000D01*
G75*
G02*
X115235000Y-65785000I0J-150000D01*
G01*
X115235000Y-67435000D01*
G75*
G02*
X115085000Y-67585000I-150000J0D01*
G01*
G37*
%TD.AperFunction*%
%TD*%
%TO.P,U1,16*%
%TO.N,+5V*%
%TA.AperFunction,SMDPad,CuDef*%
G36*
G01*
X115085000Y-74700000D02*
X114785000Y-74700000D01*
G75*
G02*
X114635000Y-74550000I0J150000D01*
G01*
X114635000Y-72900000D01*
G75*
G02*
X114785000Y-72750000I150000J0D01*
G01*
X115085000Y-72750000D01*
G75*
G02*
X115235000Y-72900000I0J-150000D01*
G01*
X115235000Y-74550000D01*
G75*
G02*
X115085000Y-74700000I-150000J0D01*
G01*
G37*
%TD.AperFunction*%
%TO.P,U1,15*%
%TO.N,Addr_ROMSEL*%
%TA.AperFunction,SMDPad,CuDef*%
G36*
G01*
X113815000Y-74700000D02*
X113515000Y-74700000D01*
G75*
G02*
X113365000Y-74550000I0J150000D01*
G01*
X113365000Y-72900000D01*
G75*
G02*
X113515000Y-72750000I150000J0D01*
G01*
X113815000Y-72750000D01*
G75*
G02*
X113965000Y-72900000I0J-150000D01*
G01*
X113965000Y-74550000D01*
G75*
G02*
X113815000Y-74700000I-150000J0D01*
G01*
G37*
%TD.AperFunction*%
%TO.P,U1,14*%
%TO.N,Addr_A14*%
%TA.AperFunction,SMDPad,CuDef*%
G36*
G01*
X112545000Y-74700000D02*
X112245000Y-74700000D01*
G75*
G02*
X112095000Y-74550000I0J150000D01*
G01*
X112095000Y-72900000D01*
G75*
G02*
X112245000Y-72750000I150000J0D01*
G01*
X112545000Y-72750000D01*
G75*
G02*
X112695000Y-72900000I0J-150000D01*
G01*
X112695000Y-74550000D01*
G75*
G02*
X112545000Y-74700000I-150000J0D01*
G01*
G37*
%TD.AperFunction*%
%TO.P,U1,13*%
%TO.N,Addr_R-W*%
%TA.AperFunction,SMDPad,CuDef*%
G36*
G01*
X111275000Y-74700000D02*
X110975000Y-74700000D01*
G75*
G02*
X110825000Y-74550000I0J150000D01*
G01*
X110825000Y-72900000D01*
G75*
G02*
X110975000Y-72750000I150000J0D01*
G01*
X111275000Y-72750000D01*
G75*
G02*
X111425000Y-72900000I0J-150000D01*
G01*
X111425000Y-74550000D01*
G75*
G02*
X111275000Y-74700000I-150000J0D01*
G01*
G37*
%TD.AperFunction*%
%TO.P,U1,12*%
%TO.N,Net-(U1-Pad12)*%
%TA.AperFunction,SMDPad,CuDef*%
G36*
G01*
X110005000Y-74700000D02*
X109705000Y-74700000D01*
G75*
G02*
X109555000Y-74550000I0J150000D01*
G01*
X109555000Y-72900000D01*
G75*
G02*
X109705000Y-72750000I150000J0D01*
G01*
X110005000Y-72750000D01*
G75*
G02*
X110155000Y-72900000I0J-150000D01*
G01*
X110155000Y-74550000D01*
G75*
G02*
X110005000Y-74700000I-150000J0D01*
G01*
G37*
%TD.AperFunction*%
%TO.P,U1,11*%
%TO.N,CS_*%
%TA.AperFunction,SMDPad,CuDef*%
G36*
G01*
X108735000Y-74700000D02*
X108435000Y-74700000D01*
G75*
G02*
X108285000Y-74550000I0J150000D01*
G01*
X108285000Y-72900000D01*
G75*
G02*
X108435000Y-72750000I150000J0D01*
G01*
X108735000Y-72750000D01*
G75*
G02*
X108885000Y-72900000I0J-150000D01*
G01*
X108885000Y-74550000D01*
G75*
G02*
X108735000Y-74700000I-150000J0D01*
G01*
G37*
%TD.AperFunction*%
%TO.P,U1,10*%
%TO.N,Net-(U1-Pad10)*%
%TA.AperFunction,SMDPad,CuDef*%
G36*
G01*
X107465000Y-74700000D02*
X107165000Y-74700000D01*
G75*
G02*
X107015000Y-74550000I0J150000D01*
G01*
X107015000Y-72900000D01*
G75*
G02*
X107165000Y-72750000I150000J0D01*
G01*
X107465000Y-72750000D01*
G75*
G02*
X107615000Y-72900000I0J-150000D01*
G01*
X107615000Y-74550000D01*
G75*
G02*
X107465000Y-74700000I-150000J0D01*
G01*
G37*
%TD.AperFunction*%
%TO.P,U1,9*%
%TO.N,Net-(U1-Pad9)*%
%TA.AperFunction,SMDPad,CuDef*%
G36*
G01*
X106195000Y-74700000D02*
X105895000Y-74700000D01*
G75*
G02*
X105745000Y-74550000I0J150000D01*
G01*
X105745000Y-72900000D01*
G75*
G02*
X105895000Y-72750000I150000J0D01*
G01*
X106195000Y-72750000D01*
G75*
G02*
X106345000Y-72900000I0J-150000D01*
G01*
X106345000Y-74550000D01*
G75*
G02*
X106195000Y-74700000I-150000J0D01*
G01*
G37*
%TD.AperFunction*%
%TO.P,U1,8*%
%TO.N,GND*%
%TA.AperFunction,SMDPad,CuDef*%
G36*
G01*
X106195000Y-79650000D02*
X105895000Y-79650000D01*
G75*
G02*
X105745000Y-79500000I0J150000D01*
G01*
X105745000Y-77850000D01*
G75*
G02*
X105895000Y-77700000I150000J0D01*
G01*
X106195000Y-77700000D01*
G75*
G02*
X106345000Y-77850000I0J-150000D01*
G01*
X106345000Y-79500000D01*
G75*
G02*
X106195000Y-79650000I-150000J0D01*
G01*
G37*
%TD.AperFunction*%
%TO.P,U1,7*%
%TO.N,OUT1_*%
%TA.AperFunction,SMDPad,CuDef*%
G36*
G01*
X107465000Y-79650000D02*
X107165000Y-79650000D01*
G75*
G02*
X107015000Y-79500000I0J150000D01*
G01*
X107015000Y-77850000D01*
G75*
G02*
X107165000Y-77700000I150000J0D01*
G01*
X107465000Y-77700000D01*
G75*
G02*
X107615000Y-77850000I0J-150000D01*
G01*
X107615000Y-79500000D01*
G75*
G02*
X107465000Y-79650000I-150000J0D01*
G01*
G37*
%TD.AperFunction*%
%TO.P,U1,6*%
%TO.N,Net-(U1-Pad6)*%
%TA.AperFunction,SMDPad,CuDef*%
G36*
G01*
X108735000Y-79650000D02*
X108435000Y-79650000D01*
G75*
G02*
X108285000Y-79500000I0J150000D01*
G01*
X108285000Y-77850000D01*
G75*
G02*
X108435000Y-77700000I150000J0D01*
G01*
X108735000Y-77700000D01*
G75*
G02*
X108885000Y-77850000I0J-150000D01*
G01*
X108885000Y-79500000D01*
G75*
G02*
X108735000Y-79650000I-150000J0D01*
G01*
G37*
%TD.AperFunction*%
%TO.P,U1,5*%
%TO.N,Net-(U1-Pad5)*%
%TA.AperFunction,SMDPad,CuDef*%
G36*
G01*
X110005000Y-79650000D02*
X109705000Y-79650000D01*
G75*
G02*
X109555000Y-79500000I0J150000D01*
G01*
X109555000Y-77850000D01*
G75*
G02*
X109705000Y-77700000I150000J0D01*
G01*
X110005000Y-77700000D01*
G75*
G02*
X110155000Y-77850000I0J-150000D01*
G01*
X110155000Y-79500000D01*
G75*
G02*
X110005000Y-79650000I-150000J0D01*
G01*
G37*
%TD.AperFunction*%
%TO.P,U1,4*%
%TO.N,Net-(U1-Pad4)*%
%TA.AperFunction,SMDPad,CuDef*%
G36*
G01*
X111275000Y-79650000D02*
X110975000Y-79650000D01*
G75*
G02*
X110825000Y-79500000I0J150000D01*
G01*
X110825000Y-77850000D01*
G75*
G02*
X110975000Y-77700000I150000J0D01*
G01*
X111275000Y-77700000D01*
G75*
G02*
X111425000Y-77850000I0J-150000D01*
G01*
X111425000Y-79500000D01*
G75*
G02*
X111275000Y-79650000I-150000J0D01*
G01*
G37*
%TD.AperFunction*%
%TO.P,U1,3*%
%TO.N,OUT1*%
%TA.AperFunction,SMDPad,CuDef*%
G36*
G01*
X112545000Y-79650000D02*
X112245000Y-79650000D01*
G75*
G02*
X112095000Y-79500000I0J150000D01*
G01*
X112095000Y-77850000D01*
G75*
G02*
X112245000Y-77700000I150000J0D01*
G01*
X112545000Y-77700000D01*
G75*
G02*
X112695000Y-77850000I0J-150000D01*
G01*
X112695000Y-79500000D01*
G75*
G02*
X112545000Y-79650000I-150000J0D01*
G01*
G37*
%TD.AperFunction*%
%TO.P,U1,2*%
%TA.AperFunction,SMDPad,CuDef*%
G36*
G01*
X113815000Y-79650000D02*
X113515000Y-79650000D01*
G75*
G02*
X113365000Y-79500000I0J150000D01*
G01*
X113365000Y-77850000D01*
G75*
G02*
X113515000Y-77700000I150000J0D01*
G01*
X113815000Y-77700000D01*
G75*
G02*
X113965000Y-77850000I0J-150000D01*
G01*
X113965000Y-79500000D01*
G75*
G02*
X113815000Y-79650000I-150000J0D01*
G01*
G37*
%TD.AperFunction*%
%TO.P,U1,1*%
%TO.N,GND*%
%TA.AperFunction,SMDPad,CuDef*%
G36*
G01*
X115085000Y-79650000D02*
X114785000Y-79650000D01*
G75*
G02*
X114635000Y-79500000I0J150000D01*
G01*
X114635000Y-77850000D01*
G75*
G02*
X114785000Y-77700000I150000J0D01*
G01*
X115085000Y-77700000D01*
G75*
G02*
X115235000Y-77850000I0J-150000D01*
G01*
X115235000Y-79500000D01*
G75*
G02*
X115085000Y-79650000I-150000J0D01*
G01*
G37*
%TD.AperFunction*%
%TD*%
%TO.P,U9,16*%
%TO.N,+5V*%
%TA.AperFunction,SMDPad,CuDef*%
G36*
G01*
X81130000Y-77700000D02*
X81430000Y-77700000D01*
G75*
G02*
X81580000Y-77850000I0J-150000D01*
G01*
X81580000Y-79500000D01*
G75*
G02*
X81430000Y-79650000I-150000J0D01*
G01*
X81130000Y-79650000D01*
G75*
G02*
X80980000Y-79500000I0J150000D01*
G01*
X80980000Y-77850000D01*
G75*
G02*
X81130000Y-77700000I150000J0D01*
G01*
G37*
%TD.AperFunction*%
%TO.P,U9,15*%
%TO.N,GND*%
%TA.AperFunction,SMDPad,CuDef*%
G36*
G01*
X82400000Y-77700000D02*
X82700000Y-77700000D01*
G75*
G02*
X82850000Y-77850000I0J-150000D01*
G01*
X82850000Y-79500000D01*
G75*
G02*
X82700000Y-79650000I-150000J0D01*
G01*
X82400000Y-79650000D01*
G75*
G02*
X82250000Y-79500000I0J150000D01*
G01*
X82250000Y-77850000D01*
G75*
G02*
X82400000Y-77700000I150000J0D01*
G01*
G37*
%TD.AperFunction*%
%TO.P,U9,14*%
%TO.N,D2*%
%TA.AperFunction,SMDPad,CuDef*%
G36*
G01*
X83670000Y-77700000D02*
X83970000Y-77700000D01*
G75*
G02*
X84120000Y-77850000I0J-150000D01*
G01*
X84120000Y-79500000D01*
G75*
G02*
X83970000Y-79650000I-150000J0D01*
G01*
X83670000Y-79650000D01*
G75*
G02*
X83520000Y-79500000I0J150000D01*
G01*
X83520000Y-77850000D01*
G75*
G02*
X83670000Y-77700000I150000J0D01*
G01*
G37*
%TD.AperFunction*%
%TO.P,U9,13*%
%TO.N,D2_buf*%
%TA.AperFunction,SMDPad,CuDef*%
G36*
G01*
X84940000Y-77700000D02*
X85240000Y-77700000D01*
G75*
G02*
X85390000Y-77850000I0J-150000D01*
G01*
X85390000Y-79500000D01*
G75*
G02*
X85240000Y-79650000I-150000J0D01*
G01*
X84940000Y-79650000D01*
G75*
G02*
X84790000Y-79500000I0J150000D01*
G01*
X84790000Y-77850000D01*
G75*
G02*
X84940000Y-77700000I150000J0D01*
G01*
G37*
%TD.AperFunction*%
%TO.P,U9,12*%
%TO.N,D2_Chip*%
%TA.AperFunction,SMDPad,CuDef*%
G36*
G01*
X86210000Y-77700000D02*
X86510000Y-77700000D01*
G75*
G02*
X86660000Y-77850000I0J-150000D01*
G01*
X86660000Y-79500000D01*
G75*
G02*
X86510000Y-79650000I-150000J0D01*
G01*
X86210000Y-79650000D01*
G75*
G02*
X86060000Y-79500000I0J150000D01*
G01*
X86060000Y-77850000D01*
G75*
G02*
X86210000Y-77700000I150000J0D01*
G01*
G37*
%TD.AperFunction*%
%TO.P,U9,11*%
%TO.N,D3*%
%TA.AperFunction,SMDPad,CuDef*%
G36*
G01*
X87480000Y-77700000D02*
X87780000Y-77700000D01*
G75*
G02*
X87930000Y-77850000I0J-150000D01*
G01*
X87930000Y-79500000D01*
G75*
G02*
X87780000Y-79650000I-150000J0D01*
G01*
X87480000Y-79650000D01*
G75*
G02*
X87330000Y-79500000I0J150000D01*
G01*
X87330000Y-77850000D01*
G75*
G02*
X87480000Y-77700000I150000J0D01*
G01*
G37*
%TD.AperFunction*%
%TO.P,U9,10*%
%TO.N,D3_buf*%
%TA.AperFunction,SMDPad,CuDef*%
G36*
G01*
X88750000Y-77700000D02*
X89050000Y-77700000D01*
G75*
G02*
X89200000Y-77850000I0J-150000D01*
G01*
X89200000Y-79500000D01*
G75*
G02*
X89050000Y-79650000I-150000J0D01*
G01*
X88750000Y-79650000D01*
G75*
G02*
X88600000Y-79500000I0J150000D01*
G01*
X88600000Y-77850000D01*
G75*
G02*
X88750000Y-77700000I150000J0D01*
G01*
G37*
%TD.AperFunction*%
%TO.P,U9,9*%
%TO.N,D3_Chip*%
%TA.AperFunction,SMDPad,CuDef*%
G36*
G01*
X90020000Y-77700000D02*
X90320000Y-77700000D01*
G75*
G02*
X90470000Y-77850000I0J-150000D01*
G01*
X90470000Y-79500000D01*
G75*
G02*
X90320000Y-79650000I-150000J0D01*
G01*
X90020000Y-79650000D01*
G75*
G02*
X89870000Y-79500000I0J150000D01*
G01*
X89870000Y-77850000D01*
G75*
G02*
X90020000Y-77700000I150000J0D01*
G01*
G37*
%TD.AperFunction*%
%TO.P,U9,8*%
%TO.N,GND*%
%TA.AperFunction,SMDPad,CuDef*%
G36*
G01*
X90020000Y-72750000D02*
X90320000Y-72750000D01*
G75*
G02*
X90470000Y-72900000I0J-150000D01*
G01*
X90470000Y-74550000D01*
G75*
G02*
X90320000Y-74700000I-150000J0D01*
G01*
X90020000Y-74700000D01*
G75*
G02*
X89870000Y-74550000I0J150000D01*
G01*
X89870000Y-72900000D01*
G75*
G02*
X90020000Y-72750000I150000J0D01*
G01*
G37*
%TD.AperFunction*%
%TO.P,U9,7*%
%TO.N,D1_Chip*%
%TA.AperFunction,SMDPad,CuDef*%
G36*
G01*
X88750000Y-72750000D02*
X89050000Y-72750000D01*
G75*
G02*
X89200000Y-72900000I0J-150000D01*
G01*
X89200000Y-74550000D01*
G75*
G02*
X89050000Y-74700000I-150000J0D01*
G01*
X88750000Y-74700000D01*
G75*
G02*
X88600000Y-74550000I0J150000D01*
G01*
X88600000Y-72900000D01*
G75*
G02*
X88750000Y-72750000I150000J0D01*
G01*
G37*
%TD.AperFunction*%
%TO.P,U9,6*%
%TO.N,D1_buf*%
%TA.AperFunction,SMDPad,CuDef*%
G36*
G01*
X87480000Y-72750000D02*
X87780000Y-72750000D01*
G75*
G02*
X87930000Y-72900000I0J-150000D01*
G01*
X87930000Y-74550000D01*
G75*
G02*
X87780000Y-74700000I-150000J0D01*
G01*
X87480000Y-74700000D01*
G75*
G02*
X87330000Y-74550000I0J150000D01*
G01*
X87330000Y-72900000D01*
G75*
G02*
X87480000Y-72750000I150000J0D01*
G01*
G37*
%TD.AperFunction*%
%TO.P,U9,5*%
%TO.N,D1*%
%TA.AperFunction,SMDPad,CuDef*%
G36*
G01*
X86210000Y-72750000D02*
X86510000Y-72750000D01*
G75*
G02*
X86660000Y-72900000I0J-150000D01*
G01*
X86660000Y-74550000D01*
G75*
G02*
X86510000Y-74700000I-150000J0D01*
G01*
X86210000Y-74700000D01*
G75*
G02*
X86060000Y-74550000I0J150000D01*
G01*
X86060000Y-72900000D01*
G75*
G02*
X86210000Y-72750000I150000J0D01*
G01*
G37*
%TD.AperFunction*%
%TO.P,U9,4*%
%TO.N,D0_Chip*%
%TA.AperFunction,SMDPad,CuDef*%
G36*
G01*
X84940000Y-72750000D02*
X85240000Y-72750000D01*
G75*
G02*
X85390000Y-72900000I0J-150000D01*
G01*
X85390000Y-74550000D01*
G75*
G02*
X85240000Y-74700000I-150000J0D01*
G01*
X84940000Y-74700000D01*
G75*
G02*
X84790000Y-74550000I0J150000D01*
G01*
X84790000Y-72900000D01*
G75*
G02*
X84940000Y-72750000I150000J0D01*
G01*
G37*
%TD.AperFunction*%
%TO.P,U9,3*%
%TO.N,D0_buf*%
%TA.AperFunction,SMDPad,CuDef*%
G36*
G01*
X83670000Y-72750000D02*
X83970000Y-72750000D01*
G75*
G02*
X84120000Y-72900000I0J-150000D01*
G01*
X84120000Y-74550000D01*
G75*
G02*
X83970000Y-74700000I-150000J0D01*
G01*
X83670000Y-74700000D01*
G75*
G02*
X83520000Y-74550000I0J150000D01*
G01*
X83520000Y-72900000D01*
G75*
G02*
X83670000Y-72750000I150000J0D01*
G01*
G37*
%TD.AperFunction*%
%TO.P,U9,2*%
%TO.N,D0*%
%TA.AperFunction,SMDPad,CuDef*%
G36*
G01*
X82400000Y-72750000D02*
X82700000Y-72750000D01*
G75*
G02*
X82850000Y-72900000I0J-150000D01*
G01*
X82850000Y-74550000D01*
G75*
G02*
X82700000Y-74700000I-150000J0D01*
G01*
X82400000Y-74700000D01*
G75*
G02*
X82250000Y-74550000I0J150000D01*
G01*
X82250000Y-72900000D01*
G75*
G02*
X82400000Y-72750000I150000J0D01*
G01*
G37*
%TD.AperFunction*%
%TO.P,U9,1*%
%TO.N,4016_EN*%
%TA.AperFunction,SMDPad,CuDef*%
G36*
G01*
X81130000Y-72750000D02*
X81430000Y-72750000D01*
G75*
G02*
X81580000Y-72900000I0J-150000D01*
G01*
X81580000Y-74550000D01*
G75*
G02*
X81430000Y-74700000I-150000J0D01*
G01*
X81130000Y-74700000D01*
G75*
G02*
X80980000Y-74550000I0J150000D01*
G01*
X80980000Y-72900000D01*
G75*
G02*
X81130000Y-72750000I150000J0D01*
G01*
G37*
%TD.AperFunction*%
%TD*%
%TO.P,U8,16*%
%TO.N,+5V*%
%TA.AperFunction,SMDPad,CuDef*%
G36*
G01*
X93195000Y-77065000D02*
X93495000Y-77065000D01*
G75*
G02*
X93645000Y-77215000I0J-150000D01*
G01*
X93645000Y-78865000D01*
G75*
G02*
X93495000Y-79015000I-150000J0D01*
G01*
X93195000Y-79015000D01*
G75*
G02*
X93045000Y-78865000I0J150000D01*
G01*
X93045000Y-77215000D01*
G75*
G02*
X93195000Y-77065000I150000J0D01*
G01*
G37*
%TD.AperFunction*%
%TO.P,U8,15*%
%TO.N,GND*%
%TA.AperFunction,SMDPad,CuDef*%
G36*
G01*
X94465000Y-77065000D02*
X94765000Y-77065000D01*
G75*
G02*
X94915000Y-77215000I0J-150000D01*
G01*
X94915000Y-78865000D01*
G75*
G02*
X94765000Y-79015000I-150000J0D01*
G01*
X94465000Y-79015000D01*
G75*
G02*
X94315000Y-78865000I0J150000D01*
G01*
X94315000Y-77215000D01*
G75*
G02*
X94465000Y-77065000I150000J0D01*
G01*
G37*
%TD.AperFunction*%
%TO.P,U8,14*%
%TO.N,D6*%
%TA.AperFunction,SMDPad,CuDef*%
G36*
G01*
X95735000Y-77065000D02*
X96035000Y-77065000D01*
G75*
G02*
X96185000Y-77215000I0J-150000D01*
G01*
X96185000Y-78865000D01*
G75*
G02*
X96035000Y-79015000I-150000J0D01*
G01*
X95735000Y-79015000D01*
G75*
G02*
X95585000Y-78865000I0J150000D01*
G01*
X95585000Y-77215000D01*
G75*
G02*
X95735000Y-77065000I150000J0D01*
G01*
G37*
%TD.AperFunction*%
%TO.P,U8,13*%
%TO.N,D6_buf*%
%TA.AperFunction,SMDPad,CuDef*%
G36*
G01*
X97005000Y-77065000D02*
X97305000Y-77065000D01*
G75*
G02*
X97455000Y-77215000I0J-150000D01*
G01*
X97455000Y-78865000D01*
G75*
G02*
X97305000Y-79015000I-150000J0D01*
G01*
X97005000Y-79015000D01*
G75*
G02*
X96855000Y-78865000I0J150000D01*
G01*
X96855000Y-77215000D01*
G75*
G02*
X97005000Y-77065000I150000J0D01*
G01*
G37*
%TD.AperFunction*%
%TO.P,U8,12*%
%TO.N,D6_Chip*%
%TA.AperFunction,SMDPad,CuDef*%
G36*
G01*
X98275000Y-77065000D02*
X98575000Y-77065000D01*
G75*
G02*
X98725000Y-77215000I0J-150000D01*
G01*
X98725000Y-78865000D01*
G75*
G02*
X98575000Y-79015000I-150000J0D01*
G01*
X98275000Y-79015000D01*
G75*
G02*
X98125000Y-78865000I0J150000D01*
G01*
X98125000Y-77215000D01*
G75*
G02*
X98275000Y-77065000I150000J0D01*
G01*
G37*
%TD.AperFunction*%
%TO.P,U8,11*%
%TO.N,D7*%
%TA.AperFunction,SMDPad,CuDef*%
G36*
G01*
X99545000Y-77065000D02*
X99845000Y-77065000D01*
G75*
G02*
X99995000Y-77215000I0J-150000D01*
G01*
X99995000Y-78865000D01*
G75*
G02*
X99845000Y-79015000I-150000J0D01*
G01*
X99545000Y-79015000D01*
G75*
G02*
X99395000Y-78865000I0J150000D01*
G01*
X99395000Y-77215000D01*
G75*
G02*
X99545000Y-77065000I150000J0D01*
G01*
G37*
%TD.AperFunction*%
%TO.P,U8,10*%
%TO.N,D7_buf*%
%TA.AperFunction,SMDPad,CuDef*%
G36*
G01*
X100815000Y-77065000D02*
X101115000Y-77065000D01*
G75*
G02*
X101265000Y-77215000I0J-150000D01*
G01*
X101265000Y-78865000D01*
G75*
G02*
X101115000Y-79015000I-150000J0D01*
G01*
X100815000Y-79015000D01*
G75*
G02*
X100665000Y-78865000I0J150000D01*
G01*
X100665000Y-77215000D01*
G75*
G02*
X100815000Y-77065000I150000J0D01*
G01*
G37*
%TD.AperFunction*%
%TO.P,U8,9*%
%TO.N,D7_Chip*%
%TA.AperFunction,SMDPad,CuDef*%
G36*
G01*
X102085000Y-77065000D02*
X102385000Y-77065000D01*
G75*
G02*
X102535000Y-77215000I0J-150000D01*
G01*
X102535000Y-78865000D01*
G75*
G02*
X102385000Y-79015000I-150000J0D01*
G01*
X102085000Y-79015000D01*
G75*
G02*
X101935000Y-78865000I0J150000D01*
G01*
X101935000Y-77215000D01*
G75*
G02*
X102085000Y-77065000I150000J0D01*
G01*
G37*
%TD.AperFunction*%
%TO.P,U8,8*%
%TO.N,GND*%
%TA.AperFunction,SMDPad,CuDef*%
G36*
G01*
X102085000Y-72115000D02*
X102385000Y-72115000D01*
G75*
G02*
X102535000Y-72265000I0J-150000D01*
G01*
X102535000Y-73915000D01*
G75*
G02*
X102385000Y-74065000I-150000J0D01*
G01*
X102085000Y-74065000D01*
G75*
G02*
X101935000Y-73915000I0J150000D01*
G01*
X101935000Y-72265000D01*
G75*
G02*
X102085000Y-72115000I150000J0D01*
G01*
G37*
%TD.AperFunction*%
%TO.P,U8,7*%
%TO.N,D5_Chip*%
%TA.AperFunction,SMDPad,CuDef*%
G36*
G01*
X100815000Y-72115000D02*
X101115000Y-72115000D01*
G75*
G02*
X101265000Y-72265000I0J-150000D01*
G01*
X101265000Y-73915000D01*
G75*
G02*
X101115000Y-74065000I-150000J0D01*
G01*
X100815000Y-74065000D01*
G75*
G02*
X100665000Y-73915000I0J150000D01*
G01*
X100665000Y-72265000D01*
G75*
G02*
X100815000Y-72115000I150000J0D01*
G01*
G37*
%TD.AperFunction*%
%TO.P,U8,6*%
%TO.N,D5_buf*%
%TA.AperFunction,SMDPad,CuDef*%
G36*
G01*
X99545000Y-72115000D02*
X99845000Y-72115000D01*
G75*
G02*
X99995000Y-72265000I0J-150000D01*
G01*
X99995000Y-73915000D01*
G75*
G02*
X99845000Y-74065000I-150000J0D01*
G01*
X99545000Y-74065000D01*
G75*
G02*
X99395000Y-73915000I0J150000D01*
G01*
X99395000Y-72265000D01*
G75*
G02*
X99545000Y-72115000I150000J0D01*
G01*
G37*
%TD.AperFunction*%
%TO.P,U8,5*%
%TO.N,D5*%
%TA.AperFunction,SMDPad,CuDef*%
G36*
G01*
X98275000Y-72115000D02*
X98575000Y-72115000D01*
G75*
G02*
X98725000Y-72265000I0J-150000D01*
G01*
X98725000Y-73915000D01*
G75*
G02*
X98575000Y-74065000I-150000J0D01*
G01*
X98275000Y-74065000D01*
G75*
G02*
X98125000Y-73915000I0J150000D01*
G01*
X98125000Y-72265000D01*
G75*
G02*
X98275000Y-72115000I150000J0D01*
G01*
G37*
%TD.AperFunction*%
%TO.P,U8,4*%
%TO.N,D4_Chip*%
%TA.AperFunction,SMDPad,CuDef*%
G36*
G01*
X97005000Y-72115000D02*
X97305000Y-72115000D01*
G75*
G02*
X97455000Y-72265000I0J-150000D01*
G01*
X97455000Y-73915000D01*
G75*
G02*
X97305000Y-74065000I-150000J0D01*
G01*
X97005000Y-74065000D01*
G75*
G02*
X96855000Y-73915000I0J150000D01*
G01*
X96855000Y-72265000D01*
G75*
G02*
X97005000Y-72115000I150000J0D01*
G01*
G37*
%TD.AperFunction*%
%TO.P,U8,3*%
%TO.N,D4_buf*%
%TA.AperFunction,SMDPad,CuDef*%
G36*
G01*
X95735000Y-72115000D02*
X96035000Y-72115000D01*
G75*
G02*
X96185000Y-72265000I0J-150000D01*
G01*
X96185000Y-73915000D01*
G75*
G02*
X96035000Y-74065000I-150000J0D01*
G01*
X95735000Y-74065000D01*
G75*
G02*
X95585000Y-73915000I0J150000D01*
G01*
X95585000Y-72265000D01*
G75*
G02*
X95735000Y-72115000I150000J0D01*
G01*
G37*
%TD.AperFunction*%
%TO.P,U8,2*%
%TO.N,D4*%
%TA.AperFunction,SMDPad,CuDef*%
G36*
G01*
X94465000Y-72115000D02*
X94765000Y-72115000D01*
G75*
G02*
X94915000Y-72265000I0J-150000D01*
G01*
X94915000Y-73915000D01*
G75*
G02*
X94765000Y-74065000I-150000J0D01*
G01*
X94465000Y-74065000D01*
G75*
G02*
X94315000Y-73915000I0J150000D01*
G01*
X94315000Y-72265000D01*
G75*
G02*
X94465000Y-72115000I150000J0D01*
G01*
G37*
%TD.AperFunction*%
%TO.P,U8,1*%
%TO.N,4016_EN*%
%TA.AperFunction,SMDPad,CuDef*%
G36*
G01*
X93195000Y-72115000D02*
X93495000Y-72115000D01*
G75*
G02*
X93645000Y-72265000I0J-150000D01*
G01*
X93645000Y-73915000D01*
G75*
G02*
X93495000Y-74065000I-150000J0D01*
G01*
X93195000Y-74065000D01*
G75*
G02*
X93045000Y-73915000I0J150000D01*
G01*
X93045000Y-72265000D01*
G75*
G02*
X93195000Y-72115000I150000J0D01*
G01*
G37*
%TD.AperFunction*%
%TD*%
%TO.P,U7,16*%
%TO.N,+5V*%
%TA.AperFunction,SMDPad,CuDef*%
G36*
G01*
X81130000Y-65635000D02*
X81430000Y-65635000D01*
G75*
G02*
X81580000Y-65785000I0J-150000D01*
G01*
X81580000Y-67435000D01*
G75*
G02*
X81430000Y-67585000I-150000J0D01*
G01*
X81130000Y-67585000D01*
G75*
G02*
X80980000Y-67435000I0J150000D01*
G01*
X80980000Y-65785000D01*
G75*
G02*
X81130000Y-65635000I150000J0D01*
G01*
G37*
%TD.AperFunction*%
%TO.P,U7,15*%
%TO.N,4016_EN*%
%TA.AperFunction,SMDPad,CuDef*%
G36*
G01*
X82400000Y-65635000D02*
X82700000Y-65635000D01*
G75*
G02*
X82850000Y-65785000I0J-150000D01*
G01*
X82850000Y-67435000D01*
G75*
G02*
X82700000Y-67585000I-150000J0D01*
G01*
X82400000Y-67585000D01*
G75*
G02*
X82250000Y-67435000I0J150000D01*
G01*
X82250000Y-65785000D01*
G75*
G02*
X82400000Y-65635000I150000J0D01*
G01*
G37*
%TD.AperFunction*%
%TO.P,U7,14*%
%TO.N,+5V*%
%TA.AperFunction,SMDPad,CuDef*%
G36*
G01*
X83670000Y-65635000D02*
X83970000Y-65635000D01*
G75*
G02*
X84120000Y-65785000I0J-150000D01*
G01*
X84120000Y-67435000D01*
G75*
G02*
X83970000Y-67585000I-150000J0D01*
G01*
X83670000Y-67585000D01*
G75*
G02*
X83520000Y-67435000I0J150000D01*
G01*
X83520000Y-65785000D01*
G75*
G02*
X83670000Y-65635000I150000J0D01*
G01*
G37*
%TD.AperFunction*%
%TO.P,U7,13*%
%TO.N,Net-(U7-Pad13)*%
%TA.AperFunction,SMDPad,CuDef*%
G36*
G01*
X84940000Y-65635000D02*
X85240000Y-65635000D01*
G75*
G02*
X85390000Y-65785000I0J-150000D01*
G01*
X85390000Y-67435000D01*
G75*
G02*
X85240000Y-67585000I-150000J0D01*
G01*
X84940000Y-67585000D01*
G75*
G02*
X84790000Y-67435000I0J150000D01*
G01*
X84790000Y-65785000D01*
G75*
G02*
X84940000Y-65635000I150000J0D01*
G01*
G37*
%TD.AperFunction*%
%TO.P,U7,12*%
%TO.N,Net-(U7-Pad12)*%
%TA.AperFunction,SMDPad,CuDef*%
G36*
G01*
X86210000Y-65635000D02*
X86510000Y-65635000D01*
G75*
G02*
X86660000Y-65785000I0J-150000D01*
G01*
X86660000Y-67435000D01*
G75*
G02*
X86510000Y-67585000I-150000J0D01*
G01*
X86210000Y-67585000D01*
G75*
G02*
X86060000Y-67435000I0J150000D01*
G01*
X86060000Y-65785000D01*
G75*
G02*
X86210000Y-65635000I150000J0D01*
G01*
G37*
%TD.AperFunction*%
%TO.P,U7,11*%
%TO.N,D7*%
%TA.AperFunction,SMDPad,CuDef*%
G36*
G01*
X87480000Y-65635000D02*
X87780000Y-65635000D01*
G75*
G02*
X87930000Y-65785000I0J-150000D01*
G01*
X87930000Y-67435000D01*
G75*
G02*
X87780000Y-67585000I-150000J0D01*
G01*
X87480000Y-67585000D01*
G75*
G02*
X87330000Y-67435000I0J150000D01*
G01*
X87330000Y-65785000D01*
G75*
G02*
X87480000Y-65635000I150000J0D01*
G01*
G37*
%TD.AperFunction*%
%TO.P,U7,10*%
%TO.N,D3_buf*%
%TA.AperFunction,SMDPad,CuDef*%
G36*
G01*
X88750000Y-65635000D02*
X89050000Y-65635000D01*
G75*
G02*
X89200000Y-65785000I0J-150000D01*
G01*
X89200000Y-67435000D01*
G75*
G02*
X89050000Y-67585000I-150000J0D01*
G01*
X88750000Y-67585000D01*
G75*
G02*
X88600000Y-67435000I0J150000D01*
G01*
X88600000Y-65785000D01*
G75*
G02*
X88750000Y-65635000I150000J0D01*
G01*
G37*
%TD.AperFunction*%
%TO.P,U7,9*%
%TO.N,OUT1_*%
%TA.AperFunction,SMDPad,CuDef*%
G36*
G01*
X90020000Y-65635000D02*
X90320000Y-65635000D01*
G75*
G02*
X90470000Y-65785000I0J-150000D01*
G01*
X90470000Y-67435000D01*
G75*
G02*
X90320000Y-67585000I-150000J0D01*
G01*
X90020000Y-67585000D01*
G75*
G02*
X89870000Y-67435000I0J150000D01*
G01*
X89870000Y-65785000D01*
G75*
G02*
X90020000Y-65635000I150000J0D01*
G01*
G37*
%TD.AperFunction*%
%TO.P,U7,8*%
%TO.N,GND*%
%TA.AperFunction,SMDPad,CuDef*%
G36*
G01*
X90020000Y-60685000D02*
X90320000Y-60685000D01*
G75*
G02*
X90470000Y-60835000I0J-150000D01*
G01*
X90470000Y-62485000D01*
G75*
G02*
X90320000Y-62635000I-150000J0D01*
G01*
X90020000Y-62635000D01*
G75*
G02*
X89870000Y-62485000I0J150000D01*
G01*
X89870000Y-60835000D01*
G75*
G02*
X90020000Y-60685000I150000J0D01*
G01*
G37*
%TD.AperFunction*%
%TO.P,U7,7*%
%TO.N,D2_buf*%
%TA.AperFunction,SMDPad,CuDef*%
G36*
G01*
X88750000Y-60685000D02*
X89050000Y-60685000D01*
G75*
G02*
X89200000Y-60835000I0J-150000D01*
G01*
X89200000Y-62485000D01*
G75*
G02*
X89050000Y-62635000I-150000J0D01*
G01*
X88750000Y-62635000D01*
G75*
G02*
X88600000Y-62485000I0J150000D01*
G01*
X88600000Y-60835000D01*
G75*
G02*
X88750000Y-60685000I150000J0D01*
G01*
G37*
%TD.AperFunction*%
%TO.P,U7,6*%
%TO.N,D6*%
%TA.AperFunction,SMDPad,CuDef*%
G36*
G01*
X87480000Y-60685000D02*
X87780000Y-60685000D01*
G75*
G02*
X87930000Y-60835000I0J-150000D01*
G01*
X87930000Y-62485000D01*
G75*
G02*
X87780000Y-62635000I-150000J0D01*
G01*
X87480000Y-62635000D01*
G75*
G02*
X87330000Y-62485000I0J150000D01*
G01*
X87330000Y-60835000D01*
G75*
G02*
X87480000Y-60685000I150000J0D01*
G01*
G37*
%TD.AperFunction*%
%TO.P,U7,5*%
%TO.N,D1_buf*%
%TA.AperFunction,SMDPad,CuDef*%
G36*
G01*
X86210000Y-60685000D02*
X86510000Y-60685000D01*
G75*
G02*
X86660000Y-60835000I0J-150000D01*
G01*
X86660000Y-62485000D01*
G75*
G02*
X86510000Y-62635000I-150000J0D01*
G01*
X86210000Y-62635000D01*
G75*
G02*
X86060000Y-62485000I0J150000D01*
G01*
X86060000Y-60835000D01*
G75*
G02*
X86210000Y-60685000I150000J0D01*
G01*
G37*
%TD.AperFunction*%
%TO.P,U7,4*%
%TO.N,D5*%
%TA.AperFunction,SMDPad,CuDef*%
G36*
G01*
X84940000Y-60685000D02*
X85240000Y-60685000D01*
G75*
G02*
X85390000Y-60835000I0J-150000D01*
G01*
X85390000Y-62485000D01*
G75*
G02*
X85240000Y-62635000I-150000J0D01*
G01*
X84940000Y-62635000D01*
G75*
G02*
X84790000Y-62485000I0J150000D01*
G01*
X84790000Y-60835000D01*
G75*
G02*
X84940000Y-60685000I150000J0D01*
G01*
G37*
%TD.AperFunction*%
%TO.P,U7,3*%
%TO.N,D4*%
%TA.AperFunction,SMDPad,CuDef*%
G36*
G01*
X83670000Y-60685000D02*
X83970000Y-60685000D01*
G75*
G02*
X84120000Y-60835000I0J-150000D01*
G01*
X84120000Y-62485000D01*
G75*
G02*
X83970000Y-62635000I-150000J0D01*
G01*
X83670000Y-62635000D01*
G75*
G02*
X83520000Y-62485000I0J150000D01*
G01*
X83520000Y-60835000D01*
G75*
G02*
X83670000Y-60685000I150000J0D01*
G01*
G37*
%TD.AperFunction*%
%TO.P,U7,2*%
%TO.N,D0_buf*%
%TA.AperFunction,SMDPad,CuDef*%
G36*
G01*
X82400000Y-60685000D02*
X82700000Y-60685000D01*
G75*
G02*
X82850000Y-60835000I0J-150000D01*
G01*
X82850000Y-62485000D01*
G75*
G02*
X82700000Y-62635000I-150000J0D01*
G01*
X82400000Y-62635000D01*
G75*
G02*
X82250000Y-62485000I0J150000D01*
G01*
X82250000Y-60835000D01*
G75*
G02*
X82400000Y-60685000I150000J0D01*
G01*
G37*
%TD.AperFunction*%
%TO.P,U7,1*%
%TO.N,FF_Reset*%
%TA.AperFunction,SMDPad,CuDef*%
G36*
G01*
X81130000Y-60685000D02*
X81430000Y-60685000D01*
G75*
G02*
X81580000Y-60835000I0J-150000D01*
G01*
X81580000Y-62485000D01*
G75*
G02*
X81430000Y-62635000I-150000J0D01*
G01*
X81130000Y-62635000D01*
G75*
G02*
X80980000Y-62485000I0J150000D01*
G01*
X80980000Y-60835000D01*
G75*
G02*
X81130000Y-60685000I150000J0D01*
G01*
G37*
%TD.AperFunction*%
%TD*%
%TO.P,U6,16*%
%TO.N,+5V*%
%TA.AperFunction,SMDPad,CuDef*%
G36*
G01*
X93195000Y-65635000D02*
X93495000Y-65635000D01*
G75*
G02*
X93645000Y-65785000I0J-150000D01*
G01*
X93645000Y-67435000D01*
G75*
G02*
X93495000Y-67585000I-150000J0D01*
G01*
X93195000Y-67585000D01*
G75*
G02*
X93045000Y-67435000I0J150000D01*
G01*
X93045000Y-65785000D01*
G75*
G02*
X93195000Y-65635000I150000J0D01*
G01*
G37*
%TD.AperFunction*%
%TO.P,U6,15*%
%TO.N,A1_buf*%
%TA.AperFunction,SMDPad,CuDef*%
G36*
G01*
X94465000Y-65635000D02*
X94765000Y-65635000D01*
G75*
G02*
X94915000Y-65785000I0J-150000D01*
G01*
X94915000Y-67435000D01*
G75*
G02*
X94765000Y-67585000I-150000J0D01*
G01*
X94465000Y-67585000D01*
G75*
G02*
X94315000Y-67435000I0J150000D01*
G01*
X94315000Y-65785000D01*
G75*
G02*
X94465000Y-65635000I150000J0D01*
G01*
G37*
%TD.AperFunction*%
%TO.P,U6,14*%
%TO.N,D2*%
%TA.AperFunction,SMDPad,CuDef*%
G36*
G01*
X95735000Y-65635000D02*
X96035000Y-65635000D01*
G75*
G02*
X96185000Y-65785000I0J-150000D01*
G01*
X96185000Y-67435000D01*
G75*
G02*
X96035000Y-67585000I-150000J0D01*
G01*
X95735000Y-67585000D01*
G75*
G02*
X95585000Y-67435000I0J150000D01*
G01*
X95585000Y-65785000D01*
G75*
G02*
X95735000Y-65635000I150000J0D01*
G01*
G37*
%TD.AperFunction*%
%TO.P,U6,13*%
%TO.N,D3*%
%TA.AperFunction,SMDPad,CuDef*%
G36*
G01*
X97005000Y-65635000D02*
X97305000Y-65635000D01*
G75*
G02*
X97455000Y-65785000I0J-150000D01*
G01*
X97455000Y-67435000D01*
G75*
G02*
X97305000Y-67585000I-150000J0D01*
G01*
X97005000Y-67585000D01*
G75*
G02*
X96855000Y-67435000I0J150000D01*
G01*
X96855000Y-65785000D01*
G75*
G02*
X97005000Y-65635000I150000J0D01*
G01*
G37*
%TD.AperFunction*%
%TO.P,U6,12*%
%TO.N,A0_buf*%
%TA.AperFunction,SMDPad,CuDef*%
G36*
G01*
X98275000Y-65635000D02*
X98575000Y-65635000D01*
G75*
G02*
X98725000Y-65785000I0J-150000D01*
G01*
X98725000Y-67435000D01*
G75*
G02*
X98575000Y-67585000I-150000J0D01*
G01*
X98275000Y-67585000D01*
G75*
G02*
X98125000Y-67435000I0J150000D01*
G01*
X98125000Y-65785000D01*
G75*
G02*
X98275000Y-65635000I150000J0D01*
G01*
G37*
%TD.AperFunction*%
%TO.P,U6,11*%
%TO.N,D7*%
%TA.AperFunction,SMDPad,CuDef*%
G36*
G01*
X99545000Y-65635000D02*
X99845000Y-65635000D01*
G75*
G02*
X99995000Y-65785000I0J-150000D01*
G01*
X99995000Y-67435000D01*
G75*
G02*
X99845000Y-67585000I-150000J0D01*
G01*
X99545000Y-67585000D01*
G75*
G02*
X99395000Y-67435000I0J150000D01*
G01*
X99395000Y-65785000D01*
G75*
G02*
X99545000Y-65635000I150000J0D01*
G01*
G37*
%TD.AperFunction*%
%TO.P,U6,10*%
%TO.N,D7_buf*%
%TA.AperFunction,SMDPad,CuDef*%
G36*
G01*
X100815000Y-65635000D02*
X101115000Y-65635000D01*
G75*
G02*
X101265000Y-65785000I0J-150000D01*
G01*
X101265000Y-67435000D01*
G75*
G02*
X101115000Y-67585000I-150000J0D01*
G01*
X100815000Y-67585000D01*
G75*
G02*
X100665000Y-67435000I0J150000D01*
G01*
X100665000Y-65785000D01*
G75*
G02*
X100815000Y-65635000I150000J0D01*
G01*
G37*
%TD.AperFunction*%
%TO.P,U6,9*%
%TO.N,OUT1*%
%TA.AperFunction,SMDPad,CuDef*%
G36*
G01*
X102085000Y-65635000D02*
X102385000Y-65635000D01*
G75*
G02*
X102535000Y-65785000I0J-150000D01*
G01*
X102535000Y-67435000D01*
G75*
G02*
X102385000Y-67585000I-150000J0D01*
G01*
X102085000Y-67585000D01*
G75*
G02*
X101935000Y-67435000I0J150000D01*
G01*
X101935000Y-65785000D01*
G75*
G02*
X102085000Y-65635000I150000J0D01*
G01*
G37*
%TD.AperFunction*%
%TO.P,U6,8*%
%TO.N,GND*%
%TA.AperFunction,SMDPad,CuDef*%
G36*
G01*
X102085000Y-60685000D02*
X102385000Y-60685000D01*
G75*
G02*
X102535000Y-60835000I0J-150000D01*
G01*
X102535000Y-62485000D01*
G75*
G02*
X102385000Y-62635000I-150000J0D01*
G01*
X102085000Y-62635000D01*
G75*
G02*
X101935000Y-62485000I0J150000D01*
G01*
X101935000Y-60835000D01*
G75*
G02*
X102085000Y-60685000I150000J0D01*
G01*
G37*
%TD.AperFunction*%
%TO.P,U6,7*%
%TO.N,D6_buf*%
%TA.AperFunction,SMDPad,CuDef*%
G36*
G01*
X100815000Y-60685000D02*
X101115000Y-60685000D01*
G75*
G02*
X101265000Y-60835000I0J-150000D01*
G01*
X101265000Y-62485000D01*
G75*
G02*
X101115000Y-62635000I-150000J0D01*
G01*
X100815000Y-62635000D01*
G75*
G02*
X100665000Y-62485000I0J150000D01*
G01*
X100665000Y-60835000D01*
G75*
G02*
X100815000Y-60685000I150000J0D01*
G01*
G37*
%TD.AperFunction*%
%TO.P,U6,6*%
%TO.N,D6*%
%TA.AperFunction,SMDPad,CuDef*%
G36*
G01*
X99545000Y-60685000D02*
X99845000Y-60685000D01*
G75*
G02*
X99995000Y-60835000I0J-150000D01*
G01*
X99995000Y-62485000D01*
G75*
G02*
X99845000Y-62635000I-150000J0D01*
G01*
X99545000Y-62635000D01*
G75*
G02*
X99395000Y-62485000I0J150000D01*
G01*
X99395000Y-60835000D01*
G75*
G02*
X99545000Y-60685000I150000J0D01*
G01*
G37*
%TD.AperFunction*%
%TO.P,U6,5*%
%TO.N,D5_buf*%
%TA.AperFunction,SMDPad,CuDef*%
G36*
G01*
X98275000Y-60685000D02*
X98575000Y-60685000D01*
G75*
G02*
X98725000Y-60835000I0J-150000D01*
G01*
X98725000Y-62485000D01*
G75*
G02*
X98575000Y-62635000I-150000J0D01*
G01*
X98275000Y-62635000D01*
G75*
G02*
X98125000Y-62485000I0J150000D01*
G01*
X98125000Y-60835000D01*
G75*
G02*
X98275000Y-60685000I150000J0D01*
G01*
G37*
%TD.AperFunction*%
%TO.P,U6,4*%
%TO.N,D5*%
%TA.AperFunction,SMDPad,CuDef*%
G36*
G01*
X97005000Y-60685000D02*
X97305000Y-60685000D01*
G75*
G02*
X97455000Y-60835000I0J-150000D01*
G01*
X97455000Y-62485000D01*
G75*
G02*
X97305000Y-62635000I-150000J0D01*
G01*
X97005000Y-62635000D01*
G75*
G02*
X96855000Y-62485000I0J150000D01*
G01*
X96855000Y-60835000D01*
G75*
G02*
X97005000Y-60685000I150000J0D01*
G01*
G37*
%TD.AperFunction*%
%TO.P,U6,3*%
%TO.N,D4*%
%TA.AperFunction,SMDPad,CuDef*%
G36*
G01*
X95735000Y-60685000D02*
X96035000Y-60685000D01*
G75*
G02*
X96185000Y-60835000I0J-150000D01*
G01*
X96185000Y-62485000D01*
G75*
G02*
X96035000Y-62635000I-150000J0D01*
G01*
X95735000Y-62635000D01*
G75*
G02*
X95585000Y-62485000I0J150000D01*
G01*
X95585000Y-60835000D01*
G75*
G02*
X95735000Y-60685000I150000J0D01*
G01*
G37*
%TD.AperFunction*%
%TO.P,U6,2*%
%TO.N,D4_buf*%
%TA.AperFunction,SMDPad,CuDef*%
G36*
G01*
X94465000Y-60685000D02*
X94765000Y-60685000D01*
G75*
G02*
X94915000Y-60835000I0J-150000D01*
G01*
X94915000Y-62485000D01*
G75*
G02*
X94765000Y-62635000I-150000J0D01*
G01*
X94465000Y-62635000D01*
G75*
G02*
X94315000Y-62485000I0J150000D01*
G01*
X94315000Y-60835000D01*
G75*
G02*
X94465000Y-60685000I150000J0D01*
G01*
G37*
%TD.AperFunction*%
%TO.P,U6,1*%
%TO.N,FF_Reset*%
%TA.AperFunction,SMDPad,CuDef*%
G36*
G01*
X93195000Y-60685000D02*
X93495000Y-60685000D01*
G75*
G02*
X93645000Y-60835000I0J-150000D01*
G01*
X93645000Y-62485000D01*
G75*
G02*
X93495000Y-62635000I-150000J0D01*
G01*
X93195000Y-62635000D01*
G75*
G02*
X93045000Y-62485000I0J150000D01*
G01*
X93045000Y-60835000D01*
G75*
G02*
X93195000Y-60685000I150000J0D01*
G01*
G37*
%TD.AperFunction*%
%TD*%
%TO.P,C6,2*%
%TO.N,Aud*%
%TA.AperFunction,SMDPad,CuDef*%
G36*
G01*
X85521250Y-81712500D02*
X84658750Y-81712500D01*
G75*
G02*
X84450000Y-81503750I0J208750D01*
G01*
X84450000Y-81086250D01*
G75*
G02*
X84658750Y-80877500I208750J0D01*
G01*
X85521250Y-80877500D01*
G75*
G02*
X85730000Y-81086250I0J-208750D01*
G01*
X85730000Y-81503750D01*
G75*
G02*
X85521250Y-81712500I-208750J0D01*
G01*
G37*
%TD.AperFunction*%
%TO.P,C6,1*%
%TO.N,Net-(C6-Pad1)*%
%TA.AperFunction,SMDPad,CuDef*%
G36*
G01*
X85521250Y-82967500D02*
X84658750Y-82967500D01*
G75*
G02*
X84450000Y-82758750I0J208750D01*
G01*
X84450000Y-82341250D01*
G75*
G02*
X84658750Y-82132500I208750J0D01*
G01*
X85521250Y-82132500D01*
G75*
G02*
X85730000Y-82341250I0J-208750D01*
G01*
X85730000Y-82758750D01*
G75*
G02*
X85521250Y-82967500I-208750J0D01*
G01*
G37*
%TD.AperFunction*%
%TD*%
D11*
%TO.P,D1,2*%
%TO.N,Net-(C1-Pad2)*%
X106045000Y-83975000D03*
%TO.P,D1,1*%
%TO.N,+5V*%
X106045000Y-87475000D03*
%TD*%
%TO.P,YMF288,27*%
%TO.N,+5V*%
%TA.AperFunction,SMDPad,CuDef*%
G36*
G01*
X93195000Y-100780000D02*
X93495000Y-100780000D01*
G75*
G02*
X93645000Y-100930000I0J-150000D01*
G01*
X93645000Y-102680000D01*
G75*
G02*
X93495000Y-102830000I-150000J0D01*
G01*
X93195000Y-102830000D01*
G75*
G02*
X93045000Y-102680000I0J150000D01*
G01*
X93045000Y-100930000D01*
G75*
G02*
X93195000Y-100780000I150000J0D01*
G01*
G37*
%TD.AperFunction*%
%TO.P,YMF288,26*%
%TO.N,Net-(R1-Pad2)*%
%TA.AperFunction,SMDPad,CuDef*%
G36*
G01*
X94465000Y-100780000D02*
X94765000Y-100780000D01*
G75*
G02*
X94915000Y-100930000I0J-150000D01*
G01*
X94915000Y-102680000D01*
G75*
G02*
X94765000Y-102830000I-150000J0D01*
G01*
X94465000Y-102830000D01*
G75*
G02*
X94315000Y-102680000I0J150000D01*
G01*
X94315000Y-100930000D01*
G75*
G02*
X94465000Y-100780000I150000J0D01*
G01*
G37*
%TD.AperFunction*%
%TO.P,YMF288,25*%
%TO.N,Net-(YMF288-Pad25)*%
%TA.AperFunction,SMDPad,CuDef*%
G36*
G01*
X95735000Y-100780000D02*
X96035000Y-100780000D01*
G75*
G02*
X96185000Y-100930000I0J-150000D01*
G01*
X96185000Y-102680000D01*
G75*
G02*
X96035000Y-102830000I-150000J0D01*
G01*
X95735000Y-102830000D01*
G75*
G02*
X95585000Y-102680000I0J150000D01*
G01*
X95585000Y-100930000D01*
G75*
G02*
X95735000Y-100780000I150000J0D01*
G01*
G37*
%TD.AperFunction*%
%TO.P,YMF288,17*%
%TO.N,CS_Chip*%
%TA.AperFunction,SMDPad,CuDef*%
G36*
G01*
X105895000Y-100780000D02*
X106195000Y-100780000D01*
G75*
G02*
X106345000Y-100930000I0J-150000D01*
G01*
X106345000Y-102680000D01*
G75*
G02*
X106195000Y-102830000I-150000J0D01*
G01*
X105895000Y-102830000D01*
G75*
G02*
X105745000Y-102680000I0J150000D01*
G01*
X105745000Y-100930000D01*
G75*
G02*
X105895000Y-100780000I150000J0D01*
G01*
G37*
%TD.AperFunction*%
%TO.P,YMF288,15*%
%TO.N,Net-(YMF288-Pad15)*%
%TA.AperFunction,SMDPad,CuDef*%
G36*
G01*
X108435000Y-100780000D02*
X108735000Y-100780000D01*
G75*
G02*
X108885000Y-100930000I0J-150000D01*
G01*
X108885000Y-102680000D01*
G75*
G02*
X108735000Y-102830000I-150000J0D01*
G01*
X108435000Y-102830000D01*
G75*
G02*
X108285000Y-102680000I0J150000D01*
G01*
X108285000Y-100930000D01*
G75*
G02*
X108435000Y-100780000I150000J0D01*
G01*
G37*
%TD.AperFunction*%
%TO.P,YMF288,28*%
%TO.N,Net-(X1-Pad3)*%
%TA.AperFunction,SMDPad,CuDef*%
G36*
G01*
X91925000Y-100780000D02*
X92225000Y-100780000D01*
G75*
G02*
X92375000Y-100930000I0J-150000D01*
G01*
X92375000Y-102680000D01*
G75*
G02*
X92225000Y-102830000I-150000J0D01*
G01*
X91925000Y-102830000D01*
G75*
G02*
X91775000Y-102680000I0J150000D01*
G01*
X91775000Y-100930000D01*
G75*
G02*
X91925000Y-100780000I150000J0D01*
G01*
G37*
%TD.AperFunction*%
%TO.P,YMF288,20*%
%TO.N,A0_Chip*%
%TA.AperFunction,SMDPad,CuDef*%
G36*
G01*
X102085000Y-100780000D02*
X102385000Y-100780000D01*
G75*
G02*
X102535000Y-100930000I0J-150000D01*
G01*
X102535000Y-102680000D01*
G75*
G02*
X102385000Y-102830000I-150000J0D01*
G01*
X102085000Y-102830000D01*
G75*
G02*
X101935000Y-102680000I0J150000D01*
G01*
X101935000Y-100930000D01*
G75*
G02*
X102085000Y-100780000I150000J0D01*
G01*
G37*
%TD.AperFunction*%
%TO.P,YMF288,16*%
%TO.N,GND*%
%TA.AperFunction,SMDPad,CuDef*%
G36*
G01*
X107165000Y-100780000D02*
X107465000Y-100780000D01*
G75*
G02*
X107615000Y-100930000I0J-150000D01*
G01*
X107615000Y-102680000D01*
G75*
G02*
X107465000Y-102830000I-150000J0D01*
G01*
X107165000Y-102830000D01*
G75*
G02*
X107015000Y-102680000I0J150000D01*
G01*
X107015000Y-100930000D01*
G75*
G02*
X107165000Y-100780000I150000J0D01*
G01*
G37*
%TD.AperFunction*%
%TO.P,YMF288,22*%
%TO.N,+5V*%
%TA.AperFunction,SMDPad,CuDef*%
G36*
G01*
X99545000Y-100780000D02*
X99845000Y-100780000D01*
G75*
G02*
X99995000Y-100930000I0J-150000D01*
G01*
X99995000Y-102680000D01*
G75*
G02*
X99845000Y-102830000I-150000J0D01*
G01*
X99545000Y-102830000D01*
G75*
G02*
X99395000Y-102680000I0J150000D01*
G01*
X99395000Y-100930000D01*
G75*
G02*
X99545000Y-100780000I150000J0D01*
G01*
G37*
%TD.AperFunction*%
%TO.P,YMF288,23*%
%TO.N,Net-(R3-Pad2)*%
%TA.AperFunction,SMDPad,CuDef*%
G36*
G01*
X98275000Y-100780000D02*
X98575000Y-100780000D01*
G75*
G02*
X98725000Y-100930000I0J-150000D01*
G01*
X98725000Y-102680000D01*
G75*
G02*
X98575000Y-102830000I-150000J0D01*
G01*
X98275000Y-102830000D01*
G75*
G02*
X98125000Y-102680000I0J150000D01*
G01*
X98125000Y-100930000D01*
G75*
G02*
X98275000Y-100780000I150000J0D01*
G01*
G37*
%TD.AperFunction*%
%TO.P,YMF288,24*%
%TO.N,Net-(R2-Pad2)*%
%TA.AperFunction,SMDPad,CuDef*%
G36*
G01*
X97005000Y-100780000D02*
X97305000Y-100780000D01*
G75*
G02*
X97455000Y-100930000I0J-150000D01*
G01*
X97455000Y-102680000D01*
G75*
G02*
X97305000Y-102830000I-150000J0D01*
G01*
X97005000Y-102830000D01*
G75*
G02*
X96855000Y-102680000I0J150000D01*
G01*
X96855000Y-100930000D01*
G75*
G02*
X97005000Y-100780000I150000J0D01*
G01*
G37*
%TD.AperFunction*%
%TO.P,YMF288,18*%
%TO.N,GND*%
%TA.AperFunction,SMDPad,CuDef*%
G36*
G01*
X104625000Y-100780000D02*
X104925000Y-100780000D01*
G75*
G02*
X105075000Y-100930000I0J-150000D01*
G01*
X105075000Y-102680000D01*
G75*
G02*
X104925000Y-102830000I-150000J0D01*
G01*
X104625000Y-102830000D01*
G75*
G02*
X104475000Y-102680000I0J150000D01*
G01*
X104475000Y-100930000D01*
G75*
G02*
X104625000Y-100780000I150000J0D01*
G01*
G37*
%TD.AperFunction*%
%TO.P,YMF288,14*%
%TA.AperFunction,SMDPad,CuDef*%
G36*
G01*
X108435000Y-90210000D02*
X108735000Y-90210000D01*
G75*
G02*
X108885000Y-90360000I0J-150000D01*
G01*
X108885000Y-92110000D01*
G75*
G02*
X108735000Y-92260000I-150000J0D01*
G01*
X108435000Y-92260000D01*
G75*
G02*
X108285000Y-92110000I0J150000D01*
G01*
X108285000Y-90360000D01*
G75*
G02*
X108435000Y-90210000I150000J0D01*
G01*
G37*
%TD.AperFunction*%
%TO.P,YMF288,19*%
%TO.N,+5V*%
%TA.AperFunction,SMDPad,CuDef*%
G36*
G01*
X103355000Y-100780000D02*
X103655000Y-100780000D01*
G75*
G02*
X103805000Y-100930000I0J-150000D01*
G01*
X103805000Y-102680000D01*
G75*
G02*
X103655000Y-102830000I-150000J0D01*
G01*
X103355000Y-102830000D01*
G75*
G02*
X103205000Y-102680000I0J150000D01*
G01*
X103205000Y-100930000D01*
G75*
G02*
X103355000Y-100780000I150000J0D01*
G01*
G37*
%TD.AperFunction*%
%TO.P,YMF288,13*%
%TO.N,Net-(YMF288-Pad13)*%
%TA.AperFunction,SMDPad,CuDef*%
G36*
G01*
X107165000Y-90210000D02*
X107465000Y-90210000D01*
G75*
G02*
X107615000Y-90360000I0J-150000D01*
G01*
X107615000Y-92110000D01*
G75*
G02*
X107465000Y-92260000I-150000J0D01*
G01*
X107165000Y-92260000D01*
G75*
G02*
X107015000Y-92110000I0J150000D01*
G01*
X107015000Y-90360000D01*
G75*
G02*
X107165000Y-90210000I150000J0D01*
G01*
G37*
%TD.AperFunction*%
%TO.P,YMF288,21*%
%TO.N,A1_Chip*%
%TA.AperFunction,SMDPad,CuDef*%
G36*
G01*
X100815000Y-100780000D02*
X101115000Y-100780000D01*
G75*
G02*
X101265000Y-100930000I0J-150000D01*
G01*
X101265000Y-102680000D01*
G75*
G02*
X101115000Y-102830000I-150000J0D01*
G01*
X100815000Y-102830000D01*
G75*
G02*
X100665000Y-102680000I0J150000D01*
G01*
X100665000Y-100930000D01*
G75*
G02*
X100815000Y-100780000I150000J0D01*
G01*
G37*
%TD.AperFunction*%
%TO.P,YMF288,12*%
%TO.N,+5V*%
%TA.AperFunction,SMDPad,CuDef*%
G36*
G01*
X105895000Y-90210000D02*
X106195000Y-90210000D01*
G75*
G02*
X106345000Y-90360000I0J-150000D01*
G01*
X106345000Y-92110000D01*
G75*
G02*
X106195000Y-92260000I-150000J0D01*
G01*
X105895000Y-92260000D01*
G75*
G02*
X105745000Y-92110000I0J150000D01*
G01*
X105745000Y-90360000D01*
G75*
G02*
X105895000Y-90210000I150000J0D01*
G01*
G37*
%TD.AperFunction*%
%TO.P,YMF288,7*%
%TO.N,D5_Chip*%
%TA.AperFunction,SMDPad,CuDef*%
G36*
G01*
X99545000Y-90210000D02*
X99845000Y-90210000D01*
G75*
G02*
X99995000Y-90360000I0J-150000D01*
G01*
X99995000Y-92110000D01*
G75*
G02*
X99845000Y-92260000I-150000J0D01*
G01*
X99545000Y-92260000D01*
G75*
G02*
X99395000Y-92110000I0J150000D01*
G01*
X99395000Y-90360000D01*
G75*
G02*
X99545000Y-90210000I150000J0D01*
G01*
G37*
%TD.AperFunction*%
%TO.P,YMF288,1*%
%TO.N,GND*%
%TA.AperFunction,SMDPad,CuDef*%
G36*
G01*
X91925000Y-90210000D02*
X92225000Y-90210000D01*
G75*
G02*
X92375000Y-90360000I0J-150000D01*
G01*
X92375000Y-92110000D01*
G75*
G02*
X92225000Y-92260000I-150000J0D01*
G01*
X91925000Y-92260000D01*
G75*
G02*
X91775000Y-92110000I0J150000D01*
G01*
X91775000Y-90360000D01*
G75*
G02*
X91925000Y-90210000I150000J0D01*
G01*
G37*
%TD.AperFunction*%
%TO.P,YMF288,10*%
%TO.N,Net-(YMF288-Pad10)*%
%TA.AperFunction,SMDPad,CuDef*%
G36*
G01*
X103355000Y-90210000D02*
X103655000Y-90210000D01*
G75*
G02*
X103805000Y-90360000I0J-150000D01*
G01*
X103805000Y-92110000D01*
G75*
G02*
X103655000Y-92260000I-150000J0D01*
G01*
X103355000Y-92260000D01*
G75*
G02*
X103205000Y-92110000I0J150000D01*
G01*
X103205000Y-90360000D01*
G75*
G02*
X103355000Y-90210000I150000J0D01*
G01*
G37*
%TD.AperFunction*%
%TO.P,YMF288,2*%
%TO.N,D0_Chip*%
%TA.AperFunction,SMDPad,CuDef*%
G36*
G01*
X93195000Y-90210000D02*
X93495000Y-90210000D01*
G75*
G02*
X93645000Y-90360000I0J-150000D01*
G01*
X93645000Y-92110000D01*
G75*
G02*
X93495000Y-92260000I-150000J0D01*
G01*
X93195000Y-92260000D01*
G75*
G02*
X93045000Y-92110000I0J150000D01*
G01*
X93045000Y-90360000D01*
G75*
G02*
X93195000Y-90210000I150000J0D01*
G01*
G37*
%TD.AperFunction*%
%TO.P,YMF288,4*%
%TO.N,D2_Chip*%
%TA.AperFunction,SMDPad,CuDef*%
G36*
G01*
X95735000Y-90210000D02*
X96035000Y-90210000D01*
G75*
G02*
X96185000Y-90360000I0J-150000D01*
G01*
X96185000Y-92110000D01*
G75*
G02*
X96035000Y-92260000I-150000J0D01*
G01*
X95735000Y-92260000D01*
G75*
G02*
X95585000Y-92110000I0J150000D01*
G01*
X95585000Y-90360000D01*
G75*
G02*
X95735000Y-90210000I150000J0D01*
G01*
G37*
%TD.AperFunction*%
%TO.P,YMF288,5*%
%TO.N,D3_Chip*%
%TA.AperFunction,SMDPad,CuDef*%
G36*
G01*
X97005000Y-90210000D02*
X97305000Y-90210000D01*
G75*
G02*
X97455000Y-90360000I0J-150000D01*
G01*
X97455000Y-92110000D01*
G75*
G02*
X97305000Y-92260000I-150000J0D01*
G01*
X97005000Y-92260000D01*
G75*
G02*
X96855000Y-92110000I0J150000D01*
G01*
X96855000Y-90360000D01*
G75*
G02*
X97005000Y-90210000I150000J0D01*
G01*
G37*
%TD.AperFunction*%
%TO.P,YMF288,11*%
%TO.N,Net-(C1-Pad2)*%
%TA.AperFunction,SMDPad,CuDef*%
G36*
G01*
X104625000Y-90210000D02*
X104925000Y-90210000D01*
G75*
G02*
X105075000Y-90360000I0J-150000D01*
G01*
X105075000Y-92110000D01*
G75*
G02*
X104925000Y-92260000I-150000J0D01*
G01*
X104625000Y-92260000D01*
G75*
G02*
X104475000Y-92110000I0J150000D01*
G01*
X104475000Y-90360000D01*
G75*
G02*
X104625000Y-90210000I150000J0D01*
G01*
G37*
%TD.AperFunction*%
%TO.P,YMF288,6*%
%TO.N,D4_Chip*%
%TA.AperFunction,SMDPad,CuDef*%
G36*
G01*
X98275000Y-90210000D02*
X98575000Y-90210000D01*
G75*
G02*
X98725000Y-90360000I0J-150000D01*
G01*
X98725000Y-92110000D01*
G75*
G02*
X98575000Y-92260000I-150000J0D01*
G01*
X98275000Y-92260000D01*
G75*
G02*
X98125000Y-92110000I0J150000D01*
G01*
X98125000Y-90360000D01*
G75*
G02*
X98275000Y-90210000I150000J0D01*
G01*
G37*
%TD.AperFunction*%
%TO.P,YMF288,3*%
%TO.N,D1_Chip*%
%TA.AperFunction,SMDPad,CuDef*%
G36*
G01*
X94465000Y-90210000D02*
X94765000Y-90210000D01*
G75*
G02*
X94915000Y-90360000I0J-150000D01*
G01*
X94915000Y-92110000D01*
G75*
G02*
X94765000Y-92260000I-150000J0D01*
G01*
X94465000Y-92260000D01*
G75*
G02*
X94315000Y-92110000I0J150000D01*
G01*
X94315000Y-90360000D01*
G75*
G02*
X94465000Y-90210000I150000J0D01*
G01*
G37*
%TD.AperFunction*%
%TO.P,YMF288,9*%
%TO.N,D7_Chip*%
%TA.AperFunction,SMDPad,CuDef*%
G36*
G01*
X102085000Y-90210000D02*
X102385000Y-90210000D01*
G75*
G02*
X102535000Y-90360000I0J-150000D01*
G01*
X102535000Y-92110000D01*
G75*
G02*
X102385000Y-92260000I-150000J0D01*
G01*
X102085000Y-92260000D01*
G75*
G02*
X101935000Y-92110000I0J150000D01*
G01*
X101935000Y-90360000D01*
G75*
G02*
X102085000Y-90210000I150000J0D01*
G01*
G37*
%TD.AperFunction*%
%TO.P,YMF288,8*%
%TO.N,D6_Chip*%
%TA.AperFunction,SMDPad,CuDef*%
G36*
G01*
X100815000Y-90210000D02*
X101115000Y-90210000D01*
G75*
G02*
X101265000Y-90360000I0J-150000D01*
G01*
X101265000Y-92110000D01*
G75*
G02*
X101115000Y-92260000I-150000J0D01*
G01*
X100815000Y-92260000D01*
G75*
G02*
X100665000Y-92110000I0J150000D01*
G01*
X100665000Y-90360000D01*
G75*
G02*
X100815000Y-90210000I150000J0D01*
G01*
G37*
%TD.AperFunction*%
%TD*%
%TO.P,R3,2*%
%TO.N,Net-(R3-Pad2)*%
%TA.AperFunction,SMDPad,CuDef*%
G36*
G01*
X85909999Y-106080000D02*
X86810001Y-106080000D01*
G75*
G02*
X87060000Y-106329999I0J-249999D01*
G01*
X87060000Y-107030001D01*
G75*
G02*
X86810001Y-107280000I-249999J0D01*
G01*
X85909999Y-107280000D01*
G75*
G02*
X85660000Y-107030001I0J249999D01*
G01*
X85660000Y-106329999D01*
G75*
G02*
X85909999Y-106080000I249999J0D01*
G01*
G37*
%TD.AperFunction*%
%TO.P,R3,1*%
%TO.N,Net-(BU9480F1-Pad7)*%
%TA.AperFunction,SMDPad,CuDef*%
G36*
G01*
X85909999Y-104080000D02*
X86810001Y-104080000D01*
G75*
G02*
X87060000Y-104329999I0J-249999D01*
G01*
X87060000Y-105030001D01*
G75*
G02*
X86810001Y-105280000I-249999J0D01*
G01*
X85909999Y-105280000D01*
G75*
G02*
X85660000Y-105030001I0J249999D01*
G01*
X85660000Y-104329999D01*
G75*
G02*
X85909999Y-104080000I249999J0D01*
G01*
G37*
%TD.AperFunction*%
%TD*%
D12*
%TO.P,X1,4*%
%TO.N,+5V*%
X100330000Y-105925000D03*
%TO.P,X1,3*%
%TO.N,Net-(X1-Pad3)*%
X100330000Y-111185000D03*
%TO.P,X1,2*%
%TO.N,GND*%
X105530000Y-111185000D03*
%TO.P,X1,1*%
%TO.N,Net-(X1-Pad1)*%
X105530000Y-105925000D03*
%TD*%
%TO.P,R2,2*%
%TO.N,Net-(R2-Pad2)*%
%TA.AperFunction,SMDPad,CuDef*%
G36*
G01*
X88449999Y-106080000D02*
X89350001Y-106080000D01*
G75*
G02*
X89600000Y-106329999I0J-249999D01*
G01*
X89600000Y-107030001D01*
G75*
G02*
X89350001Y-107280000I-249999J0D01*
G01*
X88449999Y-107280000D01*
G75*
G02*
X88200000Y-107030001I0J249999D01*
G01*
X88200000Y-106329999D01*
G75*
G02*
X88449999Y-106080000I249999J0D01*
G01*
G37*
%TD.AperFunction*%
%TO.P,R2,1*%
%TO.N,Net-(BU9480F1-Pad6)*%
%TA.AperFunction,SMDPad,CuDef*%
G36*
G01*
X88449999Y-104080000D02*
X89350001Y-104080000D01*
G75*
G02*
X89600000Y-104329999I0J-249999D01*
G01*
X89600000Y-105030001D01*
G75*
G02*
X89350001Y-105280000I-249999J0D01*
G01*
X88449999Y-105280000D01*
G75*
G02*
X88200000Y-105030001I0J249999D01*
G01*
X88200000Y-104329999D01*
G75*
G02*
X88449999Y-104080000I249999J0D01*
G01*
G37*
%TD.AperFunction*%
%TD*%
%TO.P,R1,2*%
%TO.N,Net-(R1-Pad2)*%
%TA.AperFunction,SMDPad,CuDef*%
G36*
G01*
X90989999Y-106080000D02*
X91890001Y-106080000D01*
G75*
G02*
X92140000Y-106329999I0J-249999D01*
G01*
X92140000Y-107030001D01*
G75*
G02*
X91890001Y-107280000I-249999J0D01*
G01*
X90989999Y-107280000D01*
G75*
G02*
X90740000Y-107030001I0J249999D01*
G01*
X90740000Y-106329999D01*
G75*
G02*
X90989999Y-106080000I249999J0D01*
G01*
G37*
%TD.AperFunction*%
%TO.P,R1,1*%
%TO.N,Net-(BU9480F1-Pad5)*%
%TA.AperFunction,SMDPad,CuDef*%
G36*
G01*
X90989999Y-104080000D02*
X91890001Y-104080000D01*
G75*
G02*
X92140000Y-104329999I0J-249999D01*
G01*
X92140000Y-105030001D01*
G75*
G02*
X91890001Y-105280000I-249999J0D01*
G01*
X90989999Y-105280000D01*
G75*
G02*
X90740000Y-105030001I0J249999D01*
G01*
X90740000Y-104329999D01*
G75*
G02*
X90989999Y-104080000I249999J0D01*
G01*
G37*
%TD.AperFunction*%
%TD*%
%TO.P,R14,2*%
%TO.N,Net-(R14-Pad2)*%
%TA.AperFunction,SMDPad,CuDef*%
G36*
G01*
X115440000Y-97339999D02*
X115440000Y-98240001D01*
G75*
G02*
X115190001Y-98490000I-249999J0D01*
G01*
X114489999Y-98490000D01*
G75*
G02*
X114240000Y-98240001I0J249999D01*
G01*
X114240000Y-97339999D01*
G75*
G02*
X114489999Y-97090000I249999J0D01*
G01*
X115190001Y-97090000D01*
G75*
G02*
X115440000Y-97339999I0J-249999D01*
G01*
G37*
%TD.AperFunction*%
%TO.P,R14,1*%
%TO.N,Net-(C5-Pad2)*%
%TA.AperFunction,SMDPad,CuDef*%
G36*
G01*
X117440000Y-97339999D02*
X117440000Y-98240001D01*
G75*
G02*
X117190001Y-98490000I-249999J0D01*
G01*
X116489999Y-98490000D01*
G75*
G02*
X116240000Y-98240001I0J249999D01*
G01*
X116240000Y-97339999D01*
G75*
G02*
X116489999Y-97090000I249999J0D01*
G01*
X117190001Y-97090000D01*
G75*
G02*
X117440000Y-97339999I0J-249999D01*
G01*
G37*
%TD.AperFunction*%
%TD*%
%TO.P,R13,2*%
%TO.N,4016_EN*%
%TA.AperFunction,SMDPad,CuDef*%
G36*
G01*
X114484999Y-113160000D02*
X115385001Y-113160000D01*
G75*
G02*
X115635000Y-113409999I0J-249999D01*
G01*
X115635000Y-114110001D01*
G75*
G02*
X115385001Y-114360000I-249999J0D01*
G01*
X114484999Y-114360000D01*
G75*
G02*
X114235000Y-114110001I0J249999D01*
G01*
X114235000Y-113409999D01*
G75*
G02*
X114484999Y-113160000I249999J0D01*
G01*
G37*
%TD.AperFunction*%
%TO.P,R13,1*%
%TO.N,Net-(C4-Pad2)*%
%TA.AperFunction,SMDPad,CuDef*%
G36*
G01*
X114484999Y-111160000D02*
X115385001Y-111160000D01*
G75*
G02*
X115635000Y-111409999I0J-249999D01*
G01*
X115635000Y-112110001D01*
G75*
G02*
X115385001Y-112360000I-249999J0D01*
G01*
X114484999Y-112360000D01*
G75*
G02*
X114235000Y-112110001I0J249999D01*
G01*
X114235000Y-111409999D01*
G75*
G02*
X114484999Y-111160000I249999J0D01*
G01*
G37*
%TD.AperFunction*%
%TD*%
%TO.P,R12,2*%
%TO.N,4016_EN*%
%TA.AperFunction,SMDPad,CuDef*%
G36*
G01*
X111944999Y-113160000D02*
X112845001Y-113160000D01*
G75*
G02*
X113095000Y-113409999I0J-249999D01*
G01*
X113095000Y-114110001D01*
G75*
G02*
X112845001Y-114360000I-249999J0D01*
G01*
X111944999Y-114360000D01*
G75*
G02*
X111695000Y-114110001I0J249999D01*
G01*
X111695000Y-113409999D01*
G75*
G02*
X111944999Y-113160000I249999J0D01*
G01*
G37*
%TD.AperFunction*%
%TO.P,R12,1*%
%TO.N,Net-(C3-Pad2)*%
%TA.AperFunction,SMDPad,CuDef*%
G36*
G01*
X111944999Y-111160000D02*
X112845001Y-111160000D01*
G75*
G02*
X113095000Y-111409999I0J-249999D01*
G01*
X113095000Y-112110001D01*
G75*
G02*
X112845001Y-112360000I-249999J0D01*
G01*
X111944999Y-112360000D01*
G75*
G02*
X111695000Y-112110001I0J249999D01*
G01*
X111695000Y-111409999D01*
G75*
G02*
X111944999Y-111160000I249999J0D01*
G01*
G37*
%TD.AperFunction*%
%TD*%
D13*
%TO.P,J1,2*%
%TO.N,OUT1*%
X90805000Y-46355000D03*
D14*
%TO.P,J1,1*%
%TO.N,GND*%
X88265000Y-46355000D03*
%TD*%
D15*
%TO.N,+5V*%
X110906600Y-46990000D03*
X90913800Y-75608800D03*
X80375500Y-73480100D03*
X82321100Y-76184500D03*
%TO.N,GND*%
X110924200Y-60070700D03*
X91136300Y-90827500D03*
X94411300Y-88998200D03*
X115937100Y-107688500D03*
X111486400Y-107688500D03*
X92693100Y-58784300D03*
X103152000Y-89582000D03*
X109684900Y-90797600D03*
X108585000Y-88885600D03*
X102235000Y-58784300D03*
%TO.N,D7*%
X99695000Y-64104300D03*
X106765300Y-63654000D03*
X79589400Y-69018800D03*
X87879200Y-68914100D03*
X99731200Y-68342300D03*
%TO.N,D6*%
X78798600Y-60534300D03*
X122036900Y-60636500D03*
X92442600Y-60636500D03*
X92063000Y-73279400D03*
X89489200Y-71836200D03*
%TO.N,D5*%
X121737300Y-64821300D03*
X78655700Y-63477100D03*
X85034800Y-63235900D03*
X97082500Y-63277600D03*
%TO.N,D4*%
X78717600Y-65117700D03*
X95713500Y-63896600D03*
X83860000Y-63920000D03*
X121824700Y-66100200D03*
%TO.N,D3*%
X121764800Y-69999600D03*
X97154700Y-68187300D03*
X78678100Y-68484900D03*
X86273600Y-68285200D03*
%TO.N,D2*%
X84388800Y-69800300D03*
X121075800Y-71408500D03*
X95501200Y-69893700D03*
%TO.N,D1*%
X78360400Y-74310900D03*
X86814700Y-76355100D03*
X122213600Y-74347500D03*
%TO.N,D0*%
X80613600Y-81951000D03*
X120386200Y-83228400D03*
%TO.N,A0_buf*%
X107884900Y-64447200D03*
X100979100Y-64447200D03*
%TO.N,A1_buf*%
X110518400Y-64219500D03*
X94898300Y-64621900D03*
%TO.N,D6_buf*%
X98958500Y-70223200D03*
X102206000Y-68978900D03*
%TO.N,D2_Chip*%
X88651200Y-82736200D03*
X95148700Y-82736200D03*
%TO.N,D3_Chip*%
X91172400Y-81975800D03*
X97156100Y-82778100D03*
%TO.N,D0_Chip*%
X85532200Y-88860200D03*
X92010000Y-89293400D03*
%TO.N,OUT1_*%
X103314600Y-74199500D03*
X90489600Y-71810900D03*
%TO.N,A13*%
X122229700Y-53975000D03*
X78585300Y-53952000D03*
%TO.N,CS_Chip*%
X116320500Y-92644200D03*
X106045000Y-94718200D03*
%TO.N,A1_Chip*%
X117496200Y-94624000D03*
X100965000Y-95168500D03*
%TO.N,Aud*%
X78395700Y-80353300D03*
X85657500Y-80270600D03*
X122344700Y-80683200D03*
%TO.N,A14*%
X122576800Y-56650700D03*
X78281000Y-57150000D03*
%TO.N,ROMSEL*%
X78289800Y-79276600D03*
X122344700Y-79181200D03*
%TO.N,AudIn*%
X78733400Y-83712000D03*
X121645100Y-83960400D03*
%TO.N,4016_EN*%
X83138900Y-70676300D03*
X119113500Y-73826800D03*
X110496900Y-75175600D03*
X92563500Y-71796600D03*
%TO.N,FF_Reset*%
X89446100Y-59839900D03*
X107867300Y-59569900D03*
X118575700Y-92472900D03*
X112200000Y-94074200D03*
%TO.N,PPU_A8*%
X80443800Y-96568600D03*
X122263900Y-95725400D03*
%TO.N,PPU_A7*%
X78703600Y-93071700D03*
X121680200Y-92186700D03*
%TO.N,PPU_A13_*%
X78440300Y-91022800D03*
X122194300Y-90621900D03*
%TO.N,CIRAM_CE*%
X78689400Y-89049000D03*
X122133500Y-88853600D03*
%TO.N,PPU_WR*%
X78680800Y-86180600D03*
X122008300Y-86180600D03*
%TO.N,A12*%
X115500900Y-52070000D03*
X78086800Y-52070000D03*
%TO.N,M2*%
X78380400Y-48845100D03*
X122375500Y-49428000D03*
%TO.N,Addr_A1*%
X115673600Y-63188600D03*
%TO.N,Addr_A13*%
X109855000Y-64974300D03*
%TO.N,Addr_A14*%
X115153500Y-68300700D03*
%TO.N,Addr_ROMSEL*%
X115153200Y-69850000D03*
%TO.N,Addr_R-W*%
X110934800Y-72146700D03*
%TD*%
D16*
%TO.N,Net-(C1-Pad2)*%
X106045000Y-84273300D02*
X108146700Y-84273300D01*
X108146700Y-84273300D02*
X108585000Y-83835000D01*
X106045000Y-84273300D02*
X106045000Y-84950300D01*
X106045000Y-83975000D02*
X106045000Y-84273300D01*
X104775000Y-91235000D02*
X104775000Y-86220300D01*
X104775000Y-86220300D02*
X106045000Y-84950300D01*
D17*
%TO.N,+5V*%
X90913800Y-75608800D02*
X91212700Y-75309900D01*
X91212700Y-75309900D02*
X91212700Y-72290400D01*
X91212700Y-72290400D02*
X91669700Y-71833400D01*
X91669700Y-71833400D02*
X91669700Y-68285300D01*
X91669700Y-68285300D02*
X93345000Y-66610000D01*
X99695000Y-104239100D02*
X101746100Y-104239100D01*
X101746100Y-104239100D02*
X103505000Y-102480200D01*
X103505000Y-102480200D02*
X103505000Y-101805000D01*
X99695000Y-104239100D02*
X99695000Y-105290000D01*
X99695000Y-105290000D02*
X100330000Y-105925000D01*
X99695000Y-101805000D02*
X99695000Y-104239100D01*
X82149300Y-65176000D02*
X82942600Y-65176000D01*
X82942600Y-65176000D02*
X83820000Y-66053400D01*
X83820000Y-66053400D02*
X83820000Y-66610000D01*
X81280000Y-66610000D02*
X81280000Y-66045300D01*
X81280000Y-66045300D02*
X82149300Y-65176000D01*
X80529000Y-48328700D02*
X80529000Y-63555700D01*
X80529000Y-63555700D02*
X82149300Y-65176000D01*
X110906600Y-46990000D02*
X108971200Y-45054600D01*
X108971200Y-45054600D02*
X83803100Y-45054600D01*
X83803100Y-45054600D02*
X80529000Y-48328700D01*
X80529000Y-48328700D02*
X77920300Y-45720000D01*
X80375500Y-73480100D02*
X80467900Y-73387700D01*
X80467900Y-73387700D02*
X80467900Y-67422100D01*
X80467900Y-67422100D02*
X81280000Y-66610000D01*
X81280000Y-78675000D02*
X81280000Y-77225600D01*
X81280000Y-77225600D02*
X82321100Y-76184500D01*
X122739700Y-45720000D02*
X121469700Y-46990000D01*
X121469700Y-46990000D02*
X110906600Y-46990000D01*
X130810000Y-45720000D02*
X122739700Y-45720000D01*
X85967100Y-100719200D02*
X81699400Y-96451500D01*
X81699400Y-96451500D02*
X81699400Y-79094400D01*
X81699400Y-79094400D02*
X81280000Y-78675000D01*
X111010500Y-89747500D02*
X113954600Y-92691600D01*
X113954600Y-92691600D02*
X113954600Y-92996400D01*
X113954600Y-92996400D02*
X120015000Y-99056800D01*
X120015000Y-99056800D02*
X120015000Y-101030000D01*
X114935000Y-73725000D02*
X114935000Y-73315400D01*
X114935000Y-73315400D02*
X116523900Y-71726500D01*
X116523900Y-71726500D02*
X116523900Y-62836300D01*
X116523900Y-62836300D02*
X115347600Y-61660000D01*
X115347600Y-61660000D02*
X114935000Y-61660000D01*
X103505000Y-101805000D02*
X103505000Y-95565100D01*
X103505000Y-95565100D02*
X106045000Y-93025100D01*
X106045000Y-93025100D02*
X106045000Y-91235000D01*
X114935000Y-73725000D02*
X115729700Y-74519700D01*
X115729700Y-74519700D02*
X115729700Y-85028300D01*
X115729700Y-85028300D02*
X111010500Y-89747500D01*
X106915000Y-89747500D02*
X111010500Y-89747500D01*
X106045000Y-91235000D02*
X106045000Y-90617500D01*
X106045000Y-90617500D02*
X106915000Y-89747500D01*
X106915000Y-89747500D02*
X106915000Y-89445300D01*
X106915000Y-89445300D02*
X106045000Y-88575300D01*
X69850000Y-45720000D02*
X77920300Y-45720000D01*
X90913800Y-75608800D02*
X93345000Y-78040000D01*
X91321700Y-100719200D02*
X91321700Y-102983600D01*
X91321700Y-102983600D02*
X91636900Y-103298800D01*
X91636900Y-103298800D02*
X92468300Y-103298800D01*
X92468300Y-103298800D02*
X93345000Y-102422100D01*
X93345000Y-102422100D02*
X93345000Y-101805000D01*
X99695000Y-101805000D02*
X99695000Y-100554100D01*
X99695000Y-100554100D02*
X98984800Y-99843900D01*
X98984800Y-99843900D02*
X92154900Y-99843900D01*
X92154900Y-99843900D02*
X91321700Y-100677100D01*
X91321700Y-100677100D02*
X91321700Y-100719200D01*
X85967100Y-100719200D02*
X91321700Y-100719200D01*
X85967100Y-100719200D02*
X85090000Y-101596300D01*
X85090000Y-101596300D02*
X85090000Y-102025000D01*
X106045000Y-87475000D02*
X106045000Y-88575300D01*
%TO.N,GND*%
X110924200Y-60070700D02*
X112700400Y-60070700D01*
X112700400Y-60070700D02*
X113665000Y-61035300D01*
X113665000Y-61035300D02*
X113665000Y-61660000D01*
X92693100Y-58784300D02*
X90170000Y-61307400D01*
X90170000Y-61307400D02*
X90170000Y-61660000D01*
X106045000Y-66610000D02*
X102235000Y-70420000D01*
X102235000Y-70420000D02*
X102235000Y-73090000D01*
X102235000Y-61660000D02*
X102235000Y-58784300D01*
X102235000Y-73090000D02*
X102235000Y-74322400D01*
X102235000Y-74322400D02*
X103152000Y-75239400D01*
X103152000Y-75239400D02*
X103152000Y-78675000D01*
X92978900Y-79521300D02*
X90058300Y-76600700D01*
X90058300Y-76600700D02*
X90058300Y-73836700D01*
X90058300Y-73836700D02*
X90170000Y-73725000D01*
X94615000Y-78040000D02*
X94615000Y-78595600D01*
X94615000Y-78595600D02*
X93689300Y-79521300D01*
X93689300Y-79521300D02*
X92978900Y-79521300D01*
X91335000Y-85725000D02*
X92978900Y-84081100D01*
X92978900Y-84081100D02*
X92978900Y-79521300D01*
X94411300Y-88998200D02*
X91335000Y-85921900D01*
X91335000Y-85921900D02*
X91335000Y-85725000D01*
X91136300Y-90827500D02*
X91493800Y-90827500D01*
X91493800Y-90827500D02*
X91901300Y-91235000D01*
X91901300Y-91235000D02*
X92075000Y-91235000D01*
X87630000Y-95265300D02*
X88459500Y-96094800D01*
X88459500Y-96094800D02*
X89316500Y-96094800D01*
X89316500Y-96094800D02*
X91901300Y-93510000D01*
X91901300Y-93510000D02*
X91901300Y-91235000D01*
X107315000Y-103286900D02*
X105579500Y-103286900D01*
X105579500Y-103286900D02*
X104775000Y-102482400D01*
X104775000Y-102482400D02*
X104775000Y-101805000D01*
X107762000Y-108953000D02*
X107762000Y-103733900D01*
X107762000Y-103733900D02*
X107315000Y-103286900D01*
X107315000Y-103286900D02*
X107315000Y-101805000D01*
X107762000Y-108953000D02*
X108130000Y-108585000D01*
X108130000Y-108585000D02*
X112395000Y-108585000D01*
X105530000Y-111185000D02*
X107762000Y-108953000D01*
X87630000Y-95265300D02*
X86819300Y-96076000D01*
X86819300Y-96076000D02*
X84676400Y-96076000D01*
X84676400Y-96076000D02*
X82550000Y-93949600D01*
X82550000Y-93949600D02*
X82550000Y-78675000D01*
X107315000Y-101805000D02*
X107315000Y-95264400D01*
X107315000Y-95264400D02*
X108585000Y-93994400D01*
X108585000Y-93994400D02*
X108585000Y-91235000D01*
X102235000Y-61660000D02*
X106045000Y-65470000D01*
X106045000Y-65470000D02*
X106045000Y-66610000D01*
X87630000Y-95265300D02*
X87630000Y-94825000D01*
X112395000Y-107688500D02*
X112395000Y-108584500D01*
X112395000Y-105980000D02*
X112395000Y-107688500D01*
X112395000Y-107688500D02*
X111486400Y-107688500D01*
X103152000Y-78675000D02*
X106045000Y-78675000D01*
X103152000Y-89582000D02*
X103152000Y-78675000D01*
X115937100Y-107688500D02*
X115831000Y-107688500D01*
X115831000Y-107688500D02*
X114935000Y-108584500D01*
X88265000Y-47655300D02*
X92693100Y-52083400D01*
X92693100Y-52083400D02*
X92693100Y-58784300D01*
X108585000Y-85090000D02*
X109099900Y-85090000D01*
X109099900Y-85090000D02*
X114935000Y-79254900D01*
X114935000Y-79254900D02*
X114935000Y-78675000D01*
X108585000Y-85090000D02*
X108585000Y-88885600D01*
X88265000Y-46355000D02*
X88265000Y-47655300D01*
X109684900Y-91235000D02*
X108585000Y-91235000D01*
X111125000Y-91455000D02*
X110905000Y-91235000D01*
X110905000Y-91235000D02*
X109684900Y-91235000D01*
X109684900Y-91235000D02*
X109684900Y-90797600D01*
X112395000Y-108584500D02*
X112395000Y-108585000D01*
D16*
%TO.N,Net-(R1-Pad2)*%
X91440000Y-106680000D02*
X94615000Y-103505000D01*
X94615000Y-103505000D02*
X94615000Y-101805000D01*
%TO.N,Net-(R2-Pad2)*%
X88900000Y-106680000D02*
X89825000Y-107605000D01*
X89825000Y-107605000D02*
X92380000Y-107605000D01*
X92380000Y-107605000D02*
X97155000Y-102830000D01*
X97155000Y-102830000D02*
X97155000Y-101805000D01*
%TO.N,D7*%
X106765300Y-63654000D02*
X106322300Y-63654000D01*
X106322300Y-63654000D02*
X105414700Y-62746400D01*
X105414700Y-62746400D02*
X105414700Y-60579600D01*
X105414700Y-60579600D02*
X108627700Y-57366600D01*
X108627700Y-57366600D02*
X121811300Y-57366600D01*
X121811300Y-57366600D02*
X122864700Y-58420000D01*
X130810000Y-58420000D02*
X122864700Y-58420000D01*
X99695000Y-66610000D02*
X99695000Y-64104300D01*
X99695000Y-66610000D02*
X99731200Y-66646200D01*
X99731200Y-66646200D02*
X99731200Y-68342300D01*
X77795300Y-58420000D02*
X79589400Y-60214100D01*
X79589400Y-60214100D02*
X79589400Y-69018800D01*
X87630000Y-66610000D02*
X87879200Y-66859200D01*
X87879200Y-66859200D02*
X87879200Y-68914100D01*
X99731200Y-68342300D02*
X100339000Y-68950100D01*
X100339000Y-68950100D02*
X100339000Y-75088100D01*
X100339000Y-75088100D02*
X99695000Y-75732100D01*
X99695000Y-75732100D02*
X99695000Y-78040000D01*
X69850000Y-58420000D02*
X77795300Y-58420000D01*
%TO.N,D6*%
X69850000Y-60960000D02*
X77795300Y-60960000D01*
X78798600Y-60534300D02*
X78221000Y-60534300D01*
X78221000Y-60534300D02*
X77795300Y-60960000D01*
X130810000Y-60960000D02*
X122360400Y-60960000D01*
X122360400Y-60960000D02*
X122036900Y-60636500D01*
X93970900Y-60329600D02*
X92749500Y-60329600D01*
X92749500Y-60329600D02*
X92442600Y-60636500D01*
X93970900Y-60329600D02*
X98859700Y-60329600D01*
X98859700Y-60329600D02*
X99695000Y-61164900D01*
X99695000Y-61164900D02*
X99695000Y-61660000D01*
X89535000Y-63445400D02*
X89535000Y-71790400D01*
X89535000Y-71790400D02*
X89489200Y-71836200D01*
X93970900Y-60329600D02*
X93970900Y-62745000D01*
X93970900Y-62745000D02*
X93270500Y-63445400D01*
X93270500Y-63445400D02*
X89535000Y-63445400D01*
X87630000Y-61660000D02*
X87630000Y-62055700D01*
X87630000Y-62055700D02*
X89019700Y-63445400D01*
X89019700Y-63445400D02*
X89535000Y-63445400D01*
X92063000Y-73279400D02*
X92063000Y-73513600D01*
X92063000Y-73513600D02*
X95885000Y-77335600D01*
X95885000Y-77335600D02*
X95885000Y-78040000D01*
%TO.N,D5*%
X130810000Y-63500000D02*
X122864700Y-63500000D01*
X122864700Y-63500000D02*
X122864700Y-63693900D01*
X122864700Y-63693900D02*
X121737300Y-64821300D01*
X85090000Y-61660000D02*
X85090000Y-63180700D01*
X85090000Y-63180700D02*
X85034800Y-63235900D01*
X97082500Y-63277600D02*
X96516700Y-63843400D01*
X96516700Y-63843400D02*
X96516700Y-67799600D01*
X96516700Y-67799600D02*
X96387400Y-67928900D01*
X96387400Y-67928900D02*
X96387400Y-70265000D01*
X96387400Y-70265000D02*
X98425000Y-72302600D01*
X98425000Y-72302600D02*
X98425000Y-73090000D01*
X97155000Y-61660000D02*
X97082500Y-61732500D01*
X97082500Y-61732500D02*
X97082500Y-63277600D01*
X69850000Y-63500000D02*
X77795300Y-63500000D01*
X78655700Y-63477100D02*
X77818200Y-63477100D01*
X77818200Y-63477100D02*
X77795300Y-63500000D01*
%TO.N,D4*%
X78717600Y-65117700D02*
X77795300Y-66040000D01*
X69850000Y-66040000D02*
X77795300Y-66040000D01*
X95713500Y-63896600D02*
X95713500Y-64900100D01*
X95713500Y-64900100D02*
X95250000Y-65363600D01*
X95250000Y-65363600D02*
X95250000Y-67711500D01*
X95250000Y-67711500D02*
X94615000Y-68346500D01*
X94615000Y-68346500D02*
X94615000Y-73090000D01*
X95885000Y-61660000D02*
X95885000Y-63725100D01*
X95885000Y-63725100D02*
X95713500Y-63896600D01*
X83860000Y-63920000D02*
X83860000Y-61700000D01*
X83860000Y-61700000D02*
X83820000Y-61660000D01*
X130810000Y-66040000D02*
X121884900Y-66040000D01*
X121884900Y-66040000D02*
X121824700Y-66100200D01*
%TO.N,D3*%
X130810000Y-68580000D02*
X122864700Y-68580000D01*
X122864700Y-68580000D02*
X122864700Y-68899700D01*
X122864700Y-68899700D02*
X121764800Y-69999600D01*
X87630000Y-78675000D02*
X87630000Y-75377200D01*
X87630000Y-75377200D02*
X86995000Y-74742200D01*
X86995000Y-74742200D02*
X86995000Y-72159700D01*
X86995000Y-72159700D02*
X86273600Y-71438300D01*
X86273600Y-71438300D02*
X86273600Y-68285200D01*
X97154700Y-68187300D02*
X97155000Y-68187000D01*
X97155000Y-68187000D02*
X97155000Y-66610000D01*
X69850000Y-68580000D02*
X77795300Y-68580000D01*
X78678100Y-68484900D02*
X77890400Y-68484900D01*
X77890400Y-68484900D02*
X77795300Y-68580000D01*
%TO.N,D2*%
X83185000Y-72424000D02*
X84388700Y-71220300D01*
X84388700Y-71220300D02*
X84388700Y-69800300D01*
X84388700Y-69800300D02*
X84388800Y-69800300D01*
X83185000Y-72424000D02*
X83185000Y-78040000D01*
X83185000Y-78040000D02*
X83820000Y-78675000D01*
X77795300Y-71120000D02*
X77795300Y-71950100D01*
X77795300Y-71950100D02*
X80886300Y-75041100D01*
X80886300Y-75041100D02*
X81657800Y-75041100D01*
X81657800Y-75041100D02*
X81915000Y-74783900D01*
X81915000Y-74783900D02*
X81915000Y-72681700D01*
X81915000Y-72681700D02*
X82172700Y-72424000D01*
X82172700Y-72424000D02*
X83185000Y-72424000D01*
X122864700Y-71120000D02*
X122576200Y-71408500D01*
X122576200Y-71408500D02*
X121075800Y-71408500D01*
X130810000Y-71120000D02*
X122864700Y-71120000D01*
X95885000Y-66610000D02*
X95885000Y-69509900D01*
X95885000Y-69509900D02*
X95501200Y-69893700D01*
X69850000Y-71120000D02*
X77795300Y-71120000D01*
%TO.N,D1*%
X69850000Y-73660000D02*
X77795300Y-73660000D01*
X78360400Y-74310900D02*
X77795300Y-73745800D01*
X77795300Y-73745800D02*
X77795300Y-73660000D01*
X86360000Y-73725000D02*
X86360000Y-75900400D01*
X86360000Y-75900400D02*
X86814700Y-76355100D01*
X130810000Y-73660000D02*
X122864700Y-73660000D01*
X122864700Y-73660000D02*
X122864700Y-73696400D01*
X122864700Y-73696400D02*
X122213600Y-74347500D01*
%TO.N,D0*%
X80613600Y-76814700D02*
X82550000Y-74878300D01*
X82550000Y-74878300D02*
X82550000Y-73725000D01*
X80613600Y-81951000D02*
X80613600Y-76814700D01*
X77795300Y-76200000D02*
X78410000Y-76814700D01*
X78410000Y-76814700D02*
X80613600Y-76814700D01*
X122864700Y-76200000D02*
X120386300Y-78678400D01*
X120386300Y-78678400D02*
X120386300Y-83228400D01*
X120386300Y-83228400D02*
X120386200Y-83228400D01*
X130810000Y-76200000D02*
X122864700Y-76200000D01*
X69850000Y-76200000D02*
X77795300Y-76200000D01*
%TO.N,OUT1*%
X102235000Y-66610000D02*
X102235000Y-64659400D01*
X102235000Y-64659400D02*
X100339000Y-62763400D01*
X100339000Y-62763400D02*
X100339000Y-58009600D01*
X100339000Y-58009600D02*
X102546700Y-58009600D01*
X102546700Y-58009600D02*
X104815400Y-60278300D01*
X104815400Y-60278300D02*
X104815400Y-62784000D01*
X104815400Y-62784000D02*
X107313100Y-65281700D01*
X107313100Y-65281700D02*
X107711200Y-65281700D01*
X107711200Y-65281700D02*
X107950000Y-65520500D01*
X107950000Y-65520500D02*
X107950000Y-74845200D01*
X107950000Y-74845200D02*
X110299300Y-77194500D01*
X110299300Y-77194500D02*
X111377300Y-77194500D01*
X111377300Y-77194500D02*
X112395000Y-78212200D01*
X112395000Y-78212200D02*
X112395000Y-78675000D01*
X100339000Y-58009600D02*
X100339000Y-57064300D01*
X100339000Y-57064300D02*
X90805000Y-47530300D01*
X90805000Y-46355000D02*
X90805000Y-47530300D01*
X113665000Y-78675000D02*
X112395000Y-78675000D01*
%TO.N,A0_buf*%
X98425000Y-66610000D02*
X98875400Y-66159600D01*
X98875400Y-66159600D02*
X98875400Y-63897600D01*
X98875400Y-63897600D02*
X99424400Y-63348600D01*
X99424400Y-63348600D02*
X99967400Y-63348600D01*
X99967400Y-63348600D02*
X100979100Y-64360300D01*
X100979100Y-64360300D02*
X100979100Y-64447200D01*
X107884900Y-64447200D02*
X107884900Y-64666900D01*
X107884900Y-64666900D02*
X108585000Y-65367000D01*
X108585000Y-65367000D02*
X108585000Y-66610000D01*
%TO.N,A1_buf*%
X112395000Y-66610000D02*
X112395000Y-66096100D01*
X112395000Y-66096100D02*
X110518400Y-64219500D01*
X94615000Y-66610000D02*
X94615000Y-64905200D01*
X94615000Y-64905200D02*
X94898300Y-64621900D01*
%TO.N,D3_buf*%
X88900000Y-66610000D02*
X88900000Y-71241800D01*
X88900000Y-71241800D02*
X88265000Y-71876800D01*
X88265000Y-71876800D02*
X88265000Y-78040000D01*
X88265000Y-78040000D02*
X88900000Y-78675000D01*
%TO.N,D2_buf*%
X85090000Y-78675000D02*
X85724900Y-78040100D01*
X85724900Y-78040100D02*
X85724900Y-69038400D01*
X85724900Y-69038400D02*
X85548200Y-68861700D01*
X85548200Y-68861700D02*
X85548200Y-67911000D01*
X85548200Y-67911000D02*
X85734000Y-67725200D01*
X85734000Y-67725200D02*
X85734000Y-63563200D01*
X85734000Y-63563200D02*
X85793600Y-63503600D01*
X85793600Y-63503600D02*
X85793600Y-62854800D01*
X85793600Y-62854800D02*
X85725000Y-62786200D01*
X85725000Y-62786200D02*
X85725000Y-60575400D01*
X85725000Y-60575400D02*
X86001100Y-60299300D01*
X86001100Y-60299300D02*
X87933600Y-60299300D01*
X87933600Y-60299300D02*
X88900000Y-61265700D01*
X88900000Y-61265700D02*
X88900000Y-61660000D01*
%TO.N,D1_buf*%
X86360000Y-61660000D02*
X86998900Y-62298900D01*
X86998900Y-62298900D02*
X86998900Y-70107000D01*
X86998900Y-70107000D02*
X87630000Y-70738100D01*
X87630000Y-70738100D02*
X87630000Y-73725000D01*
%TO.N,D0_buf*%
X83820000Y-73725000D02*
X83820000Y-72429600D01*
X83820000Y-72429600D02*
X85136400Y-71113200D01*
X85136400Y-71113200D02*
X85136400Y-69086800D01*
X85136400Y-69086800D02*
X84455000Y-68405400D01*
X84455000Y-68405400D02*
X84455000Y-65540700D01*
X84455000Y-65540700D02*
X82550000Y-63635700D01*
X82550000Y-63635700D02*
X82550000Y-61660000D01*
%TO.N,D7_buf*%
X100965000Y-66610000D02*
X100965000Y-68763600D01*
X100965000Y-68763600D02*
X101609000Y-69407600D01*
X101609000Y-69407600D02*
X101609000Y-77396000D01*
X101609000Y-77396000D02*
X100965000Y-78040000D01*
%TO.N,D6_buf*%
X97155000Y-78040000D02*
X97155000Y-76114900D01*
X97155000Y-76114900D02*
X99060000Y-74209900D01*
X99060000Y-74209900D02*
X99060000Y-70324700D01*
X99060000Y-70324700D02*
X98958500Y-70223200D01*
X100965000Y-61660000D02*
X100965000Y-62066900D01*
X100965000Y-62066900D02*
X102899900Y-64001800D01*
X102899900Y-64001800D02*
X102899900Y-68285000D01*
X102899900Y-68285000D02*
X102206000Y-68978900D01*
%TO.N,D5_buf*%
X99695000Y-73090000D02*
X99695000Y-69701800D01*
X99695000Y-69701800D02*
X97792700Y-67799500D01*
X97792700Y-67799500D02*
X97792700Y-65227300D01*
X97792700Y-65227300D02*
X98425000Y-64595000D01*
X98425000Y-64595000D02*
X98425000Y-61660000D01*
%TO.N,D4_buf*%
X95885000Y-73090000D02*
X95885000Y-73485700D01*
X95885000Y-73485700D02*
X94910900Y-74459800D01*
X94910900Y-74459800D02*
X94335100Y-74459800D01*
X94335100Y-74459800D02*
X93980000Y-74104700D01*
X93980000Y-74104700D02*
X93980000Y-63372800D01*
X93980000Y-63372800D02*
X94615000Y-62737800D01*
X94615000Y-62737800D02*
X94615000Y-61660000D01*
%TO.N,D6_Chip*%
X98425000Y-78040000D02*
X98425000Y-85986700D01*
X98425000Y-85986700D02*
X100965000Y-88526700D01*
X100965000Y-88526700D02*
X100965000Y-91235000D01*
%TO.N,D7_Chip*%
X102235000Y-91235000D02*
X102235000Y-78040000D01*
%TO.N,D5_Chip*%
X99695000Y-91235000D02*
X99695000Y-91723200D01*
X99695000Y-91723200D02*
X100566600Y-92594800D01*
X100566600Y-92594800D02*
X101311300Y-92594800D01*
X101311300Y-92594800D02*
X101600000Y-92306100D01*
X101600000Y-92306100D02*
X101600000Y-82270200D01*
X101600000Y-82270200D02*
X100321000Y-80991200D01*
X100321000Y-80991200D02*
X100321000Y-76479000D01*
X100321000Y-76479000D02*
X100965000Y-75835000D01*
X100965000Y-75835000D02*
X100965000Y-73090000D01*
%TO.N,D4_Chip*%
X98425000Y-91235000D02*
X97890600Y-90700600D01*
X97890600Y-90700600D02*
X97890600Y-80464100D01*
X97890600Y-80464100D02*
X96520300Y-79093800D01*
X96520300Y-79093800D02*
X96520300Y-73724700D01*
X96520300Y-73724700D02*
X97155000Y-73090000D01*
%TO.N,D2_Chip*%
X86360000Y-78675000D02*
X86360000Y-79617500D01*
X86360000Y-79617500D02*
X88651200Y-81908700D01*
X88651200Y-81908700D02*
X88651200Y-82736200D01*
X95885000Y-91235000D02*
X95885000Y-83472500D01*
X95885000Y-83472500D02*
X95148700Y-82736200D01*
%TO.N,D3_Chip*%
X97155000Y-91235000D02*
X97156100Y-91233900D01*
X97156100Y-91233900D02*
X97156100Y-82778100D01*
X91172400Y-81975800D02*
X90170000Y-80973400D01*
X90170000Y-80973400D02*
X90170000Y-78675000D01*
%TO.N,D1_Chip*%
X94615000Y-91235000D02*
X94615000Y-90798500D01*
X94615000Y-90798500D02*
X91672900Y-87856400D01*
X91672900Y-87856400D02*
X91028300Y-87856400D01*
X91028300Y-87856400D02*
X89535000Y-86363100D01*
X89535000Y-86363100D02*
X89535000Y-77455600D01*
X89535000Y-77455600D02*
X88900000Y-76820600D01*
X88900000Y-76820600D02*
X88900000Y-73725000D01*
%TO.N,D0_Chip*%
X85532200Y-88860200D02*
X84119200Y-87447200D01*
X84119200Y-87447200D02*
X84119200Y-80555500D01*
X84119200Y-80555500D02*
X84446000Y-80228700D01*
X84446000Y-80228700D02*
X84446000Y-74369000D01*
X84446000Y-74369000D02*
X85090000Y-73725000D01*
X93345000Y-91235000D02*
X93345000Y-90628400D01*
X93345000Y-90628400D02*
X92010000Y-89293400D01*
%TO.N,OUT1_*%
X90170000Y-66610000D02*
X90489600Y-66929600D01*
X90489600Y-66929600D02*
X90489600Y-71810900D01*
X103314600Y-74199500D02*
X107315000Y-78199900D01*
X107315000Y-78199900D02*
X107315000Y-78675000D01*
%TO.N,Net-(BU9480F1-Pad4)*%
X88900000Y-94825000D02*
X89181400Y-94543600D01*
X89181400Y-94543600D02*
X89181400Y-91327800D01*
X89181400Y-91327800D02*
X87928600Y-90075000D01*
X87928600Y-90075000D02*
X87630000Y-90075000D01*
%TO.N,Net-(BU9480F1-Pad2)*%
X86360000Y-94825000D02*
X86360000Y-94579200D01*
X86360000Y-94579200D02*
X87665500Y-93273700D01*
X87665500Y-93273700D02*
X88161000Y-93273700D01*
X88161000Y-93273700D02*
X88693700Y-92741000D01*
X88693700Y-92741000D02*
X88693700Y-91494000D01*
X88693700Y-91494000D02*
X88274700Y-91075000D01*
X88274700Y-91075000D02*
X86995700Y-91075000D01*
X86995700Y-91075000D02*
X86589800Y-90669100D01*
X86589800Y-90669100D02*
X86589800Y-89483400D01*
X86589800Y-89483400D02*
X87735000Y-88338200D01*
X87735000Y-88338200D02*
X87735000Y-85725000D01*
%TO.N,Net-(BU9480F1-Pad1)*%
X85090000Y-94825000D02*
X84016400Y-93751400D01*
X84016400Y-93751400D02*
X84016400Y-91148600D01*
X84016400Y-91148600D02*
X85090000Y-90075000D01*
%TO.N,Net-(BU9480F1-Pad7)*%
X86360000Y-102025000D02*
X86360000Y-104680000D01*
%TO.N,Net-(BU9480F1-Pad6)*%
X87630000Y-102025000D02*
X87630000Y-103410000D01*
X87630000Y-103410000D02*
X88900000Y-104680000D01*
%TO.N,Net-(BU9480F1-Pad5)*%
X88900000Y-102025000D02*
X91440000Y-104565000D01*
X91440000Y-104565000D02*
X91440000Y-104680000D01*
%TO.N,A13*%
X130810000Y-53340000D02*
X122864700Y-53340000D01*
X122229700Y-53975000D02*
X122864700Y-53340000D01*
X69850000Y-53340000D02*
X77795300Y-53340000D01*
X77795300Y-53340000D02*
X78407300Y-53952000D01*
X78407300Y-53952000D02*
X78585300Y-53952000D01*
%TO.N,Net-(R3-Pad2)*%
X86360000Y-106680000D02*
X87735000Y-108055000D01*
X87735000Y-108055000D02*
X93200000Y-108055000D01*
X93200000Y-108055000D02*
X98425000Y-102830000D01*
X98425000Y-102830000D02*
X98425000Y-101805000D01*
%TO.N,CS_*%
X112395000Y-61660000D02*
X113030000Y-62295000D01*
X113030000Y-62295000D02*
X113030000Y-68554800D01*
X113030000Y-68554800D02*
X108585000Y-72999800D01*
X108585000Y-72999800D02*
X108585000Y-73725000D01*
%TO.N,CS_Chip*%
X116320500Y-92644200D02*
X116320500Y-72743600D01*
X116320500Y-72743600D02*
X117099200Y-71964900D01*
X117099200Y-71964900D02*
X117099200Y-62168800D01*
X117099200Y-62168800D02*
X114238600Y-59308200D01*
X114238600Y-59308200D02*
X110656800Y-59308200D01*
X110656800Y-59308200D02*
X109855000Y-60110000D01*
X109855000Y-60110000D02*
X109855000Y-61660000D01*
X106045000Y-101805000D02*
X106045000Y-94718200D01*
%TO.N,A0_Chip*%
X102235000Y-101805000D02*
X102235000Y-95337100D01*
X102235000Y-95337100D02*
X104139800Y-93432300D01*
X104139800Y-93432300D02*
X104139800Y-83864800D01*
X104139800Y-83864800D02*
X107950000Y-80054600D01*
X107950000Y-80054600D02*
X107950000Y-77327900D01*
X107950000Y-77327900D02*
X106680000Y-76057900D01*
X106680000Y-76057900D02*
X106680000Y-67245000D01*
X106680000Y-67245000D02*
X107315000Y-66610000D01*
%TO.N,A1_Chip*%
X111125000Y-66610000D02*
X111125000Y-67040300D01*
X111125000Y-67040300D02*
X110246700Y-67918600D01*
X110246700Y-67918600D02*
X109500200Y-67918600D01*
X109500200Y-67918600D02*
X109220000Y-67638400D01*
X109220000Y-67638400D02*
X109220000Y-65365100D01*
X109220000Y-65365100D02*
X108610200Y-64755300D01*
X108610200Y-64755300D02*
X108610200Y-64146700D01*
X108610200Y-64146700D02*
X107958900Y-63495400D01*
X107958900Y-63495400D02*
X107958900Y-60563700D01*
X107958900Y-60563700D02*
X110164100Y-58358500D01*
X110164100Y-58358500D02*
X114590100Y-58358500D01*
X114590100Y-58358500D02*
X117999800Y-61768200D01*
X117999800Y-61768200D02*
X117999800Y-72450800D01*
X117999800Y-72450800D02*
X117496200Y-72954400D01*
X117496200Y-72954400D02*
X117496200Y-94624000D01*
X100965000Y-101805000D02*
X100965000Y-95168500D01*
%TO.N,CS_buf*%
X113665000Y-105980000D02*
X113665000Y-105575800D01*
X113665000Y-105575800D02*
X115198200Y-104042600D01*
X115198200Y-104042600D02*
X118712500Y-104042600D01*
X118712500Y-104042600D02*
X120649100Y-102106000D01*
X120649100Y-102106000D02*
X120649100Y-98802600D01*
X120649100Y-98802600D02*
X116770900Y-94924400D01*
X116770900Y-94924400D02*
X116770900Y-94323600D01*
X116770900Y-94323600D02*
X117045900Y-94048600D01*
X117045900Y-94048600D02*
X117045900Y-72655100D01*
X117045900Y-72655100D02*
X117549500Y-72151500D01*
X117549500Y-72151500D02*
X117549500Y-61982200D01*
X117549500Y-61982200D02*
X114383200Y-58815900D01*
X114383200Y-58815900D02*
X110473900Y-58815900D01*
X110473900Y-58815900D02*
X109220000Y-60069800D01*
X109220000Y-60069800D02*
X109220000Y-62697100D01*
X109220000Y-62697100D02*
X109510400Y-62987500D01*
X109510400Y-62987500D02*
X110176800Y-62987500D01*
X110176800Y-62987500D02*
X111125000Y-62039300D01*
X111125000Y-62039300D02*
X111125000Y-61660000D01*
%TO.N,Aud*%
X130810000Y-81280000D02*
X122864700Y-81280000D01*
X122864700Y-81280000D02*
X122864700Y-81203200D01*
X122864700Y-81203200D02*
X122344700Y-80683200D01*
X69850000Y-81280000D02*
X77795300Y-81280000D01*
X77795300Y-81280000D02*
X77795300Y-80953700D01*
X77795300Y-80953700D02*
X78395700Y-80353300D01*
X85657500Y-80270600D02*
X85090000Y-80838100D01*
X85090000Y-80838100D02*
X85090000Y-81295000D01*
%TO.N,A14*%
X130810000Y-55880000D02*
X122864700Y-55880000D01*
X122576800Y-56650700D02*
X122864700Y-56362800D01*
X122864700Y-56362800D02*
X122864700Y-55880000D01*
X77795300Y-55880000D02*
X77795300Y-56664300D01*
X77795300Y-56664300D02*
X78281000Y-57150000D01*
X69850000Y-55880000D02*
X77795300Y-55880000D01*
%TO.N,ROMSEL*%
X77795300Y-78740000D02*
X78289800Y-79234500D01*
X78289800Y-79234500D02*
X78289800Y-79276600D01*
X122344700Y-79181200D02*
X122423500Y-79181200D01*
X122423500Y-79181200D02*
X122864700Y-78740000D01*
X69850000Y-78740000D02*
X77795300Y-78740000D01*
X130810000Y-78740000D02*
X122864700Y-78740000D01*
%TO.N,Net-(X1-Pad3)*%
X100330000Y-111185000D02*
X98505000Y-109360000D01*
X98505000Y-109360000D02*
X98505000Y-104060000D01*
X98505000Y-104060000D02*
X99050000Y-103515000D01*
X99050000Y-103515000D02*
X99050000Y-100733000D01*
X99050000Y-100733000D02*
X98771800Y-100455000D01*
X98771800Y-100455000D02*
X92400000Y-100455000D01*
X92400000Y-100455000D02*
X92075000Y-100780000D01*
X92075000Y-100780000D02*
X92075000Y-101805000D01*
%TO.N,AudIn*%
X122864700Y-83820000D02*
X122724300Y-83960400D01*
X122724300Y-83960400D02*
X121645100Y-83960400D01*
X78733400Y-83712000D02*
X77903300Y-83712000D01*
X77903300Y-83712000D02*
X77795300Y-83820000D01*
X130810000Y-83820000D02*
X122864700Y-83820000D01*
X69850000Y-83820000D02*
X77795300Y-83820000D01*
%TO.N,Net-(U2-Pad10)*%
X114935000Y-101030000D02*
X116205000Y-101030000D01*
X113665000Y-101030000D02*
X114935000Y-101030000D01*
%TO.N,4016_EN*%
X83138900Y-70676300D02*
X81280000Y-72535200D01*
X81280000Y-72535200D02*
X81280000Y-73725000D01*
X82550000Y-66610000D02*
X82550000Y-70087400D01*
X82550000Y-70087400D02*
X83138900Y-70676300D01*
X119113500Y-73826800D02*
X119113500Y-84028800D01*
X119113500Y-84028800D02*
X120898900Y-85814200D01*
X120898900Y-85814200D02*
X120898900Y-98035600D01*
X120898900Y-98035600D02*
X121124000Y-98260700D01*
X121124000Y-98260700D02*
X121124000Y-102268000D01*
X121124000Y-102268000D02*
X121011400Y-102380600D01*
X121011400Y-102380600D02*
X121011400Y-107297300D01*
X121011400Y-107297300D02*
X114935000Y-113373700D01*
X114935000Y-113373700D02*
X114935000Y-113760000D01*
X114935000Y-66610000D02*
X114935000Y-67037900D01*
X114935000Y-67037900D02*
X113480400Y-68492500D01*
X113480400Y-68492500D02*
X113480400Y-69043100D01*
X113480400Y-69043100D02*
X111751600Y-70771900D01*
X111751600Y-70771900D02*
X111751600Y-74809800D01*
X111751600Y-74809800D02*
X111385800Y-75175600D01*
X111385800Y-75175600D02*
X110496900Y-75175600D01*
X112395000Y-113760000D02*
X114935000Y-113760000D01*
X93345000Y-73090000D02*
X92563500Y-72308500D01*
X92563500Y-72308500D02*
X92563500Y-71796600D01*
%TO.N,Net-(C5-Pad2)*%
X117475000Y-101030000D02*
X117475000Y-98425000D01*
X117475000Y-98425000D02*
X116840000Y-97790000D01*
X117475000Y-101030000D02*
X118745000Y-101030000D01*
X116840000Y-97790000D02*
X116840000Y-97646100D01*
X116840000Y-97646100D02*
X111903900Y-92710000D01*
X111903900Y-92710000D02*
X111125000Y-92710000D01*
%TO.N,Net-(C3-Pad2)*%
X116205000Y-105980000D02*
X116205000Y-106376100D01*
X116205000Y-106376100D02*
X114793000Y-107788100D01*
X114793000Y-107788100D02*
X114336000Y-107788100D01*
X114336000Y-107788100D02*
X113824300Y-108299800D01*
X113824300Y-108299800D02*
X113824300Y-108639800D01*
X113824300Y-108639800D02*
X112624600Y-109839500D01*
X112624600Y-109839500D02*
X112395000Y-109839500D01*
X112395000Y-109839500D02*
X112395000Y-111760000D01*
%TO.N,Net-(C4-Pad2)*%
X120015000Y-105980000D02*
X118745000Y-105980000D01*
X114935000Y-109839500D02*
X115322400Y-109839500D01*
X115322400Y-109839500D02*
X118745000Y-106416900D01*
X118745000Y-106416900D02*
X118745000Y-105980000D01*
X114935000Y-109839500D02*
X114935000Y-111760000D01*
%TO.N,Net-(R14-Pad2)*%
X117475000Y-105980000D02*
X117475000Y-105512700D01*
X117475000Y-105512700D02*
X116616300Y-104654000D01*
X116616300Y-104654000D02*
X115839500Y-104654000D01*
X115839500Y-104654000D02*
X114935000Y-105558500D01*
X114935000Y-105558500D02*
X114935000Y-105980000D01*
X114935000Y-105980000D02*
X114935000Y-106376900D01*
X114935000Y-106376900D02*
X113974200Y-107337700D01*
X113974200Y-107337700D02*
X113328700Y-107337700D01*
X113328700Y-107337700D02*
X113030000Y-107039000D01*
X113030000Y-107039000D02*
X113030000Y-99600000D01*
X113030000Y-99600000D02*
X114840000Y-97790000D01*
%TO.N,FF_Reset*%
X118575700Y-92472900D02*
X118388200Y-92285400D01*
X118388200Y-92285400D02*
X118388200Y-73359600D01*
X118388200Y-73359600D02*
X118459100Y-73288700D01*
X118459100Y-73288700D02*
X118459100Y-61513300D01*
X118459100Y-61513300D02*
X114820000Y-57874200D01*
X114820000Y-57874200D02*
X109563000Y-57874200D01*
X109563000Y-57874200D02*
X107867300Y-59569900D01*
X89446100Y-59839900D02*
X82665000Y-59839900D01*
X82665000Y-59839900D02*
X81280000Y-61224900D01*
X81280000Y-61224900D02*
X81280000Y-61660000D01*
X112395000Y-101030000D02*
X112200000Y-100835000D01*
X112200000Y-100835000D02*
X112200000Y-94074200D01*
X93345000Y-61660000D02*
X92016500Y-62988500D01*
X92016500Y-62988500D02*
X89807500Y-62988500D01*
X89807500Y-62988500D02*
X89535000Y-62716000D01*
X89535000Y-62716000D02*
X89535000Y-59928800D01*
X89535000Y-59928800D02*
X89446100Y-59839900D01*
%TO.N,PPU_D4*%
X130810000Y-119380000D02*
X69850000Y-119380000D01*
%TO.N,PPU_D5*%
X77795300Y-116840000D02*
X78832200Y-117876900D01*
X78832200Y-117876900D02*
X121827800Y-117876900D01*
X121827800Y-117876900D02*
X122864700Y-116840000D01*
X69850000Y-116840000D02*
X77795300Y-116840000D01*
X130810000Y-116840000D02*
X122864700Y-116840000D01*
%TO.N,PPU_D6*%
X77795300Y-114300000D02*
X80921900Y-117426600D01*
X80921900Y-117426600D02*
X119738100Y-117426600D01*
X119738100Y-117426600D02*
X122864700Y-114300000D01*
X69850000Y-114300000D02*
X77795300Y-114300000D01*
X130810000Y-114300000D02*
X122864700Y-114300000D01*
%TO.N,PPU_D7*%
X77795300Y-111760000D02*
X83011600Y-116976300D01*
X83011600Y-116976300D02*
X117648400Y-116976300D01*
X117648400Y-116976300D02*
X122864700Y-111760000D01*
X69850000Y-111760000D02*
X77795300Y-111760000D01*
X130810000Y-111760000D02*
X122864700Y-111760000D01*
%TO.N,PPU_A13*%
X69850000Y-109220000D02*
X77795300Y-109220000D01*
X77795300Y-109220000D02*
X85101300Y-116526000D01*
X85101300Y-116526000D02*
X116435100Y-116526000D01*
X116435100Y-116526000D02*
X122864700Y-110096400D01*
X122864700Y-110096400D02*
X122864700Y-109220000D01*
X130810000Y-109220000D02*
X122864700Y-109220000D01*
%TO.N,PPU_A12*%
X77795300Y-106680000D02*
X87191000Y-116075700D01*
X87191000Y-116075700D02*
X116166700Y-116075700D01*
X116166700Y-116075700D02*
X122266500Y-109975900D01*
X122266500Y-109975900D02*
X122266500Y-108749400D01*
X122266500Y-108749400D02*
X122864700Y-108151200D01*
X122864700Y-108151200D02*
X122864700Y-106680000D01*
X69850000Y-106680000D02*
X77795300Y-106680000D01*
X130810000Y-106680000D02*
X122864700Y-106680000D01*
%TO.N,PPU_A11*%
X69850000Y-104140000D02*
X80217800Y-104140000D01*
X80217800Y-104140000D02*
X91703200Y-115625400D01*
X91703200Y-115625400D02*
X115980100Y-115625400D01*
X115980100Y-115625400D02*
X121365900Y-110239600D01*
X121365900Y-110239600D02*
X121365900Y-109013100D01*
X121365900Y-109013100D02*
X122414400Y-107964600D01*
X122414400Y-107964600D02*
X122414400Y-105227200D01*
X122414400Y-105227200D02*
X122864700Y-104776900D01*
X122864700Y-104776900D02*
X122864700Y-104140000D01*
X130810000Y-104140000D02*
X122864700Y-104140000D01*
%TO.N,PPU_A10*%
X69850000Y-101600000D02*
X78314700Y-101600000D01*
X78314700Y-101600000D02*
X91889700Y-115175000D01*
X91889700Y-115175000D02*
X115788800Y-115175000D01*
X115788800Y-115175000D02*
X118314300Y-112649500D01*
X118314300Y-112649500D02*
X118314300Y-111351200D01*
X118314300Y-111351200D02*
X121964000Y-107701500D01*
X121964000Y-107701500D02*
X121964000Y-104722400D01*
X121964000Y-104722400D02*
X122243700Y-104442700D01*
X122243700Y-104442700D02*
X122243700Y-102221000D01*
X122243700Y-102221000D02*
X122864700Y-101600000D01*
X130810000Y-101600000D02*
X122864700Y-101600000D01*
%TO.N,PPU_A9*%
X77795300Y-99060000D02*
X77795300Y-99751800D01*
X77795300Y-99751800D02*
X92749000Y-114705500D01*
X92749000Y-114705500D02*
X115618800Y-114705500D01*
X115618800Y-114705500D02*
X117072000Y-113252300D01*
X117072000Y-113252300D02*
X117072000Y-111915100D01*
X117072000Y-111915100D02*
X121513600Y-107473500D01*
X121513600Y-107473500D02*
X121513600Y-103690500D01*
X121513600Y-103690500D02*
X121646600Y-103557500D01*
X121646600Y-103557500D02*
X121646600Y-100278100D01*
X121646600Y-100278100D02*
X122864700Y-99060000D01*
X69850000Y-99060000D02*
X77795300Y-99060000D01*
X130810000Y-99060000D02*
X122864700Y-99060000D01*
%TO.N,PPU_A8*%
X130810000Y-96520000D02*
X122864700Y-96520000D01*
X69850000Y-96520000D02*
X77795300Y-96520000D01*
X80443800Y-96568600D02*
X77843900Y-96568600D01*
X77843900Y-96568600D02*
X77795300Y-96520000D01*
X122864700Y-96520000D02*
X122864700Y-96326200D01*
X122864700Y-96326200D02*
X122263900Y-95725400D01*
%TO.N,PPU_A7*%
X78703600Y-93071700D02*
X77795300Y-93980000D01*
X122864700Y-93980000D02*
X121680200Y-92795500D01*
X121680200Y-92795500D02*
X121680200Y-92186700D01*
X130810000Y-93980000D02*
X122864700Y-93980000D01*
X69850000Y-93980000D02*
X77795300Y-93980000D01*
%TO.N,PPU_A13_*%
X130810000Y-91440000D02*
X122864700Y-91440000D01*
X122864700Y-91440000D02*
X122864700Y-91292300D01*
X122864700Y-91292300D02*
X122194300Y-90621900D01*
X69850000Y-91440000D02*
X77795300Y-91440000D01*
X78440300Y-91022800D02*
X78212500Y-91022800D01*
X78212500Y-91022800D02*
X77795300Y-91440000D01*
%TO.N,CIRAM_CE*%
X130810000Y-88900000D02*
X122864700Y-88900000D01*
X122864700Y-88900000D02*
X122818300Y-88853600D01*
X122818300Y-88853600D02*
X122133500Y-88853600D01*
X69850000Y-88900000D02*
X77795300Y-88900000D01*
X78689400Y-89049000D02*
X77944300Y-89049000D01*
X77944300Y-89049000D02*
X77795300Y-88900000D01*
%TO.N,PPU_WR*%
X77795300Y-86360000D02*
X77974600Y-86180700D01*
X77974600Y-86180700D02*
X78680800Y-86180700D01*
X78680800Y-86180700D02*
X78680800Y-86180600D01*
X122864700Y-86360000D02*
X122685300Y-86180600D01*
X122685300Y-86180600D02*
X122008300Y-86180600D01*
X130810000Y-86360000D02*
X122864700Y-86360000D01*
X69850000Y-86360000D02*
X77795300Y-86360000D01*
%TO.N,A12*%
X122864700Y-50800000D02*
X121594700Y-52070000D01*
X121594700Y-52070000D02*
X115500900Y-52070000D01*
X130810000Y-50800000D02*
X122864700Y-50800000D01*
X77795300Y-50800000D02*
X77795300Y-51778500D01*
X77795300Y-51778500D02*
X78086800Y-52070000D01*
X69850000Y-50800000D02*
X77795300Y-50800000D01*
%TO.N,M2*%
X130810000Y-48260000D02*
X122864700Y-48260000D01*
X122864700Y-48260000D02*
X122864700Y-48938800D01*
X122864700Y-48938800D02*
X122375500Y-49428000D01*
X77795300Y-48260000D02*
X78380400Y-48845100D01*
X69850000Y-48260000D02*
X77795300Y-48260000D01*
%TO.N,Net-(C6-Pad1)*%
X86139400Y-91687500D02*
X86139400Y-89278800D01*
X86139400Y-89278800D02*
X86257500Y-89160700D01*
X86257500Y-89160700D02*
X86257500Y-87602700D01*
X86257500Y-87602700D02*
X85090000Y-86435200D01*
X85090000Y-86435200D02*
X85090000Y-82550000D01*
X86139400Y-91687500D02*
X87242500Y-91687500D01*
X87242500Y-91687500D02*
X87630000Y-92075000D01*
X85090000Y-92075000D02*
X85477500Y-91687500D01*
X85477500Y-91687500D02*
X86139400Y-91687500D01*
%TO.N,Addr_A1*%
X115673600Y-63188600D02*
X113665000Y-65197200D01*
X113665000Y-65197200D02*
X113665000Y-66610000D01*
%TO.N,Addr_A13*%
X109855000Y-66610000D02*
X109855000Y-64974300D01*
%TO.N,Addr_A14*%
X112395000Y-73725000D02*
X112395000Y-71059200D01*
X112395000Y-71059200D02*
X115153500Y-68300700D01*
%TO.N,Addr_ROMSEL*%
X113665000Y-73725000D02*
X113665000Y-71338200D01*
X113665000Y-71338200D02*
X115153200Y-69850000D01*
%TO.N,Addr_R-W*%
X111125000Y-73725000D02*
X111125000Y-72336900D01*
X111125000Y-72336900D02*
X110934800Y-72146700D01*
%TD*%
M02*
