%TF.GenerationSoftware,KiCad,Pcbnew,(5.1.8)-1*%
%TF.CreationDate,2021-03-10T17:43:25+01:00*%
%TF.ProjectId,Nes Sound Expansion,4e657320-536f-4756-9e64-20457870616e,rev?*%
%TF.SameCoordinates,Original*%
%TF.FileFunction,Copper,L1,Top*%
%TF.FilePolarity,Positive*%
%FSLAX46Y46*%
G04 Gerber Fmt 4.6, Leading zero omitted, Abs format (unit mm)*
G04 Created by KiCad (PCBNEW (5.1.8)-1) date 2021-03-10 17:43:25*
%MOMM*%
%LPD*%
G01*
G04 APERTURE LIST*
%TA.AperFunction,ConnectorPad*%
%ADD10R,10.000000X1.524000*%
%TD*%
%TA.AperFunction,ComponentPad*%
%ADD11O,1.700000X1.700000*%
%TD*%
%TA.AperFunction,ComponentPad*%
%ADD12R,1.700000X1.700000*%
%TD*%
%TA.AperFunction,SMDPad,CuDef*%
%ADD13R,3.000000X1.000000*%
%TD*%
%TA.AperFunction,ViaPad*%
%ADD14C,0.800000*%
%TD*%
%TA.AperFunction,Conductor*%
%ADD15C,0.500000*%
%TD*%
%TA.AperFunction,Conductor*%
%ADD16C,0.250000*%
%TD*%
G04 APERTURE END LIST*
D10*
%TO.P,J3,30*%
%TO.N,+5VA*%
X72390000Y-119380000D03*
%TO.P,J3,29*%
%TO.N,PPU_D3*%
X72390000Y-116840000D03*
%TO.P,J3,28*%
%TO.N,PPU_D2*%
X72390000Y-114300000D03*
%TO.P,J3,27*%
%TO.N,PPU_D1*%
X72390000Y-111760000D03*
%TO.P,J3,26*%
%TO.N,PPU_D0*%
X72390000Y-109220000D03*
%TO.P,J3,25*%
%TO.N,PPU_A0*%
X72390000Y-106680000D03*
%TO.P,J3,24*%
%TO.N,PPU_A1*%
X72390000Y-104140000D03*
%TO.P,J3,23*%
%TO.N,PPU_A2*%
X72390000Y-101600000D03*
%TO.P,J3,22*%
%TO.N,PPU_A3*%
X72390000Y-99060000D03*
%TO.P,J3,21*%
%TO.N,PPU_A4*%
X72390000Y-96520000D03*
%TO.P,J3,20*%
%TO.N,PPU_A5*%
X72390000Y-93980000D03*
%TO.P,J3,19*%
%TO.N,PPU_A6*%
X72390000Y-91440000D03*
%TO.P,J3,18*%
%TO.N,CIRAM_A10*%
X72390000Y-88900000D03*
%TO.P,J3,17*%
%TO.N,PPU_RD*%
X72390000Y-86360000D03*
%TO.P,J3,16*%
%TO.N,GND1*%
X72390000Y-83820000D03*
%TO.P,J3,15*%
%TO.N,IRQ*%
X72390000Y-81280000D03*
%TO.P,J3,14*%
%TO.N,R-W*%
X72390000Y-78740000D03*
%TO.P,J3,13*%
%TO.N,A0*%
X72390000Y-76200000D03*
%TO.P,J3,12*%
%TO.N,A1*%
X72390000Y-73660000D03*
%TO.P,J3,11*%
%TO.N,A2*%
X72390000Y-71120000D03*
%TO.P,J3,10*%
%TO.N,A3*%
X72390000Y-68580000D03*
%TO.P,J3,9*%
%TO.N,A4*%
X72390000Y-66040000D03*
%TO.P,J3,8*%
%TO.N,A5*%
X72390000Y-63500000D03*
%TO.P,J3,7*%
%TO.N,A6*%
X72390000Y-60960000D03*
%TO.P,J3,6*%
%TO.N,A7*%
X72390000Y-58420000D03*
%TO.P,J3,5*%
%TO.N,A8*%
X72390000Y-55880000D03*
%TO.P,J3,4*%
%TO.N,A13*%
X72390000Y-53340000D03*
%TO.P,J3,3*%
%TO.N,A10*%
X72390000Y-50800000D03*
%TO.P,J3,2*%
%TO.N,A11*%
X72390000Y-48260000D03*
%TO.P,J3,1*%
%TO.N,GND*%
X72390000Y-45720000D03*
%TD*%
%TO.P,J9,30*%
%TO.N,+5VA*%
X128270000Y-119380000D03*
%TO.P,J9,29*%
%TO.N,PPU_D3*%
X128270000Y-116840000D03*
%TO.P,J9,28*%
%TO.N,PPU_D2*%
X128270000Y-114300000D03*
%TO.P,J9,27*%
%TO.N,PPU_D1*%
X128270000Y-111760000D03*
%TO.P,J9,26*%
%TO.N,PPU_D0*%
X128270000Y-109220000D03*
%TO.P,J9,25*%
%TO.N,PPU_A0*%
X128270000Y-106680000D03*
%TO.P,J9,24*%
%TO.N,PPU_A1*%
X128270000Y-104140000D03*
%TO.P,J9,23*%
%TO.N,PPU_A2*%
X128270000Y-101600000D03*
%TO.P,J9,22*%
%TO.N,PPU_A3*%
X128270000Y-99060000D03*
%TO.P,J9,21*%
%TO.N,PPU_A4*%
X128270000Y-96520000D03*
%TO.P,J9,20*%
%TO.N,PPU_A5*%
X128270000Y-93980000D03*
%TO.P,J9,19*%
%TO.N,PPU_A6*%
X128270000Y-91440000D03*
%TO.P,J9,18*%
%TO.N,CIRAM_A10*%
X128270000Y-88900000D03*
%TO.P,J9,17*%
%TO.N,PPU_RD*%
X128270000Y-86360000D03*
%TO.P,J9,16*%
%TO.N,GND1*%
X128270000Y-83820000D03*
%TO.P,J9,15*%
%TO.N,IRQ*%
X128270000Y-81280000D03*
%TO.P,J9,14*%
%TO.N,R-W*%
X128270000Y-78740000D03*
%TO.P,J9,13*%
%TO.N,A0*%
X128270000Y-76200000D03*
%TO.P,J9,12*%
%TO.N,A1*%
X128270000Y-73660000D03*
%TO.P,J9,11*%
%TO.N,A2*%
X128270000Y-71120000D03*
%TO.P,J9,10*%
%TO.N,A3*%
X128270000Y-68580000D03*
%TO.P,J9,9*%
%TO.N,A4*%
X128270000Y-66040000D03*
%TO.P,J9,8*%
%TO.N,A5*%
X128270000Y-63500000D03*
%TO.P,J9,7*%
%TO.N,A6*%
X128270000Y-60960000D03*
%TO.P,J9,6*%
%TO.N,A7*%
X128270000Y-58420000D03*
%TO.P,J9,5*%
%TO.N,A8*%
X128270000Y-55880000D03*
%TO.P,J9,4*%
%TO.N,A13*%
X128270000Y-53340000D03*
%TO.P,J9,3*%
%TO.N,A10*%
X128270000Y-50800000D03*
%TO.P,J9,2*%
%TO.N,A11*%
X128270000Y-48260000D03*
%TO.P,J9,1*%
%TO.N,GND*%
X128270000Y-45720000D03*
%TD*%
D11*
%TO.P,J1,2*%
%TO.N,OUT1*%
X90805000Y-46355000D03*
D12*
%TO.P,J1,1*%
%TO.N,GND*%
X88265000Y-46355000D03*
%TD*%
D13*
%TO.P,J2,30*%
%TO.N,Net-(J2-Pad30)*%
X113050000Y-82550000D03*
%TO.P,J2,29*%
%TO.N,Net-(J2-Pad29)*%
X118090000Y-82550000D03*
%TO.P,J2,28*%
%TO.N,ROMSEL*%
X113050000Y-80010000D03*
%TO.P,J2,27*%
%TO.N,R-W*%
X118090000Y-80010000D03*
%TO.P,J2,26*%
%TO.N,Net-(J2-Pad26)*%
X113050000Y-77470000D03*
%TO.P,J2,25*%
%TO.N,A0*%
X118090000Y-77470000D03*
%TO.P,J2,24*%
%TO.N,Net-(J2-Pad24)*%
X113050000Y-74930000D03*
%TO.P,J2,23*%
%TO.N,A1*%
X118090000Y-74930000D03*
%TO.P,J2,22*%
%TO.N,Addr_R-W*%
X113050000Y-72390000D03*
%TO.P,J2,21*%
%TO.N,A2*%
X118090000Y-72390000D03*
%TO.P,J2,20*%
%TO.N,Addr_ROMSEL*%
X113050000Y-69850000D03*
%TO.P,J2,19*%
%TO.N,A3*%
X118090000Y-69850000D03*
%TO.P,J2,18*%
%TO.N,Addr_A14*%
X113050000Y-67310000D03*
%TO.P,J2,17*%
%TO.N,A4*%
X118090000Y-67310000D03*
%TO.P,J2,16*%
%TO.N,Addr_A13*%
X113050000Y-64770000D03*
%TO.P,J2,15*%
%TO.N,A5*%
X118090000Y-64770000D03*
%TO.P,J2,14*%
%TO.N,Addr_A1*%
X113050000Y-62230000D03*
%TO.P,J2,13*%
%TO.N,A6*%
X118090000Y-62230000D03*
%TO.P,J2,12*%
%TO.N,Net-(J2-Pad12)*%
X113050000Y-59690000D03*
%TO.P,J2,11*%
%TO.N,A7*%
X118090000Y-59690000D03*
%TO.P,J2,10*%
%TO.N,A14*%
X113050000Y-57150000D03*
%TO.P,J2,9*%
%TO.N,A8*%
X118090000Y-57150000D03*
%TO.P,J2,8*%
%TO.N,A13*%
X113050000Y-54610000D03*
%TO.P,J2,7*%
X118090000Y-54610000D03*
%TO.P,J2,6*%
%TO.N,A12*%
X113050000Y-52070000D03*
%TO.P,J2,5*%
%TO.N,A10*%
X118090000Y-52070000D03*
%TO.P,J2,4*%
%TO.N,Net-(J2-Pad4)*%
X113050000Y-49530000D03*
%TO.P,J2,3*%
%TO.N,A11*%
X118090000Y-49530000D03*
%TO.P,J2,2*%
%TO.N,+5V*%
X113050000Y-46990000D03*
%TO.P,J2,1*%
%TO.N,GND*%
X118090000Y-46990000D03*
%TD*%
D14*
%TO.N,+5V*%
X110906600Y-46990000D03*
X90913800Y-75608800D03*
X80375500Y-73480100D03*
X82321100Y-76184500D03*
%TO.N,GND*%
X110924200Y-60070700D03*
X91136300Y-90827500D03*
X94411300Y-88998200D03*
X115937100Y-107688500D03*
X111486400Y-107688500D03*
X92693100Y-58784300D03*
X103152000Y-89582000D03*
X109684900Y-90797600D03*
X108585000Y-88885600D03*
X102235000Y-58784300D03*
%TO.N,D7*%
X99695000Y-64104300D03*
X106765300Y-63654000D03*
X79589400Y-69018800D03*
X87879200Y-68914100D03*
X99731200Y-68342300D03*
%TO.N,D6*%
X78798600Y-60534300D03*
X122036900Y-60636500D03*
X92442600Y-60636500D03*
X92063000Y-73279400D03*
X89489200Y-71836200D03*
%TO.N,D5*%
X121737300Y-64821300D03*
X78655700Y-63477100D03*
X85034800Y-63235900D03*
X97082500Y-63277600D03*
%TO.N,D4*%
X78717600Y-65117700D03*
X95713500Y-63896600D03*
X83860000Y-63920000D03*
X121824700Y-66100200D03*
%TO.N,D3*%
X121764800Y-69999600D03*
X97154700Y-68187300D03*
X78678100Y-68484900D03*
X86273600Y-68285200D03*
%TO.N,D2*%
X84388800Y-69800300D03*
X121075800Y-71408500D03*
X95501200Y-69893700D03*
%TO.N,D1*%
X78360400Y-74310900D03*
X86814700Y-76355100D03*
X122213600Y-74347500D03*
%TO.N,D0*%
X80613600Y-81951000D03*
X120386200Y-83228400D03*
%TO.N,A0_buf*%
X107884900Y-64447200D03*
X100979100Y-64447200D03*
%TO.N,A1_buf*%
X110518400Y-64219500D03*
X94898300Y-64621900D03*
%TO.N,D6_buf*%
X98958500Y-70223200D03*
X102206000Y-68978900D03*
%TO.N,D2_Chip*%
X88651200Y-82736200D03*
X95148700Y-82736200D03*
%TO.N,D3_Chip*%
X91172400Y-81975800D03*
X97156100Y-82778100D03*
%TO.N,D0_Chip*%
X85532200Y-88860200D03*
X92010000Y-89293400D03*
%TO.N,OUT1_*%
X103314600Y-74199500D03*
X90489600Y-71810900D03*
%TO.N,A13*%
X122229700Y-53975000D03*
X78585300Y-53952000D03*
%TO.N,CS_Chip*%
X116320500Y-92644200D03*
X106045000Y-94718200D03*
%TO.N,A1_Chip*%
X117496200Y-94624000D03*
X100965000Y-95168500D03*
%TO.N,Aud*%
X78395700Y-80353300D03*
X85657500Y-80270600D03*
X122344700Y-80683200D03*
%TO.N,A14*%
X122576800Y-56650700D03*
X78281000Y-57150000D03*
%TO.N,ROMSEL*%
X78289800Y-79276600D03*
X122344700Y-79181200D03*
%TO.N,AudIn*%
X78733400Y-83712000D03*
X121645100Y-83960400D03*
%TO.N,4016_EN*%
X83138900Y-70676300D03*
X119113500Y-73826800D03*
X110496900Y-75175600D03*
X92563500Y-71796600D03*
%TO.N,FF_Reset*%
X89446100Y-59839900D03*
X107867300Y-59569900D03*
X118575700Y-92472900D03*
X112200000Y-94074200D03*
%TO.N,PPU_A8*%
X80443800Y-96568600D03*
X122263900Y-95725400D03*
%TO.N,PPU_A7*%
X78703600Y-93071700D03*
X121680200Y-92186700D03*
%TO.N,PPU_A13_*%
X78440300Y-91022800D03*
X122194300Y-90621900D03*
%TO.N,CIRAM_CE*%
X78689400Y-89049000D03*
X122133500Y-88853600D03*
%TO.N,PPU_WR*%
X78680800Y-86180600D03*
X122008300Y-86180600D03*
%TO.N,A12*%
X115500900Y-52070000D03*
X78086800Y-52070000D03*
%TO.N,M2*%
X78380400Y-48845100D03*
X122375500Y-49428000D03*
%TO.N,Addr_A1*%
X115673600Y-63188600D03*
%TO.N,Addr_A13*%
X109855000Y-64974300D03*
%TO.N,Addr_A14*%
X115153500Y-68300700D03*
%TO.N,Addr_ROMSEL*%
X115153200Y-69850000D03*
%TO.N,Addr_R-W*%
X110934800Y-72146700D03*
%TD*%
D15*
%TO.N,+5V*%
X82321100Y-75425700D02*
X80375500Y-73480100D01*
X82321100Y-76184500D02*
X82321100Y-75425700D01*
X90913800Y-75608800D02*
X90730700Y-75425700D01*
X90730700Y-75425700D02*
X82321100Y-75425700D01*
X111099700Y-46990000D02*
X110906600Y-46990000D01*
X113050000Y-46990000D02*
X111099700Y-46990000D01*
%TO.N,GND*%
X102235000Y-58784300D02*
X102329500Y-58689800D01*
X102329500Y-58689800D02*
X109543300Y-58689800D01*
X109543300Y-58689800D02*
X110924200Y-60070700D01*
X92693100Y-58784300D02*
X102235000Y-58784300D01*
X94411300Y-88998200D02*
X92582000Y-90827500D01*
X92582000Y-90827500D02*
X91136300Y-90827500D01*
X103152000Y-89582000D02*
X102568200Y-88998200D01*
X102568200Y-88998200D02*
X94411300Y-88998200D01*
X108585000Y-89582000D02*
X103152000Y-89582000D01*
X88265000Y-46355000D02*
X89630300Y-44989700D01*
X89630300Y-44989700D02*
X114139400Y-44989700D01*
X114139400Y-44989700D02*
X116139700Y-46990000D01*
X88265000Y-46355000D02*
X78555300Y-46355000D01*
X78555300Y-46355000D02*
X77920300Y-45720000D01*
X118090000Y-46990000D02*
X116139700Y-46990000D01*
X115937100Y-107688500D02*
X111486400Y-107688500D01*
X108585000Y-89582000D02*
X108585000Y-88885600D01*
X109684900Y-90797600D02*
X108585000Y-89697700D01*
X108585000Y-89697700D02*
X108585000Y-89582000D01*
X122739700Y-45720000D02*
X121469700Y-46990000D01*
X121469700Y-46990000D02*
X118090000Y-46990000D01*
X69850000Y-45720000D02*
X77920300Y-45720000D01*
X130810000Y-45720000D02*
X122739700Y-45720000D01*
D16*
%TO.N,D7*%
X87879200Y-68914100D02*
X87774500Y-69018800D01*
X87774500Y-69018800D02*
X79589400Y-69018800D01*
X99695000Y-64104300D02*
X100145300Y-63654000D01*
X100145300Y-63654000D02*
X106765300Y-63654000D01*
X99731200Y-68342300D02*
X99159400Y-68914100D01*
X99159400Y-68914100D02*
X87879200Y-68914100D01*
%TO.N,D6*%
X92442600Y-60636500D02*
X92602100Y-60796000D01*
X92602100Y-60796000D02*
X121877400Y-60796000D01*
X121877400Y-60796000D02*
X122036900Y-60636500D01*
X92442600Y-60636500D02*
X78900800Y-60636500D01*
X78900800Y-60636500D02*
X78798600Y-60534300D01*
X89489200Y-71836200D02*
X90932400Y-73279400D01*
X90932400Y-73279400D02*
X92063000Y-73279400D01*
%TO.N,D5*%
X121737300Y-64821300D02*
X120963200Y-65595400D01*
X120963200Y-65595400D02*
X116417800Y-65595400D01*
X116417800Y-65595400D02*
X114436800Y-63614400D01*
X114436800Y-63614400D02*
X111207200Y-63614400D01*
X111207200Y-63614400D02*
X110506200Y-62913400D01*
X110506200Y-62913400D02*
X97446700Y-62913400D01*
X97446700Y-62913400D02*
X97082500Y-63277600D01*
X85034800Y-63235900D02*
X84993600Y-63194700D01*
X84993600Y-63194700D02*
X78938100Y-63194700D01*
X78938100Y-63194700D02*
X78655700Y-63477100D01*
X97082500Y-63277600D02*
X96956900Y-63152000D01*
X96956900Y-63152000D02*
X85118700Y-63152000D01*
X85118700Y-63152000D02*
X85034800Y-63235900D01*
%TO.N,D4*%
X121824700Y-66100200D02*
X115684200Y-66100200D01*
X115684200Y-66100200D02*
X115397800Y-65813800D01*
X115397800Y-65813800D02*
X95032300Y-65813800D01*
X95032300Y-65813800D02*
X94159100Y-64940600D01*
X94159100Y-64940600D02*
X94159100Y-64285200D01*
X83860000Y-64004200D02*
X82746500Y-65117700D01*
X82746500Y-65117700D02*
X78717600Y-65117700D01*
X83860000Y-63920000D02*
X83860000Y-64004200D01*
X83860000Y-64004200D02*
X93878100Y-64004200D01*
X93878100Y-64004200D02*
X94159100Y-64285200D01*
X94159100Y-64285200D02*
X94547700Y-63896600D01*
X94547700Y-63896600D02*
X95713500Y-63896600D01*
%TO.N,D3*%
X121764800Y-69999600D02*
X120810200Y-69999600D01*
X120810200Y-69999600D02*
X120086500Y-70723300D01*
X120086500Y-70723300D02*
X107067900Y-70723300D01*
X107067900Y-70723300D02*
X103961500Y-67616900D01*
X103961500Y-67616900D02*
X97725100Y-67616900D01*
X97725100Y-67616900D02*
X97154700Y-68187300D01*
X86273600Y-68285200D02*
X86371500Y-68187300D01*
X86371500Y-68187300D02*
X97154700Y-68187300D01*
X86273600Y-68285200D02*
X78877800Y-68285200D01*
X78877800Y-68285200D02*
X78678100Y-68484900D01*
%TO.N,D2*%
X95501200Y-69893700D02*
X84482200Y-69893700D01*
X84482200Y-69893700D02*
X84388800Y-69800300D01*
X121075800Y-71408500D02*
X97016000Y-71408500D01*
X97016000Y-71408500D02*
X95501200Y-69893700D01*
%TO.N,D1*%
X86814700Y-76355100D02*
X86246500Y-76923300D01*
X86246500Y-76923300D02*
X80972800Y-76923300D01*
X80972800Y-76923300D02*
X78360400Y-74310900D01*
X122213600Y-74347500D02*
X120206000Y-76355100D01*
X120206000Y-76355100D02*
X86814700Y-76355100D01*
%TO.N,D0*%
X120386200Y-83228400D02*
X120111100Y-83503500D01*
X120111100Y-83503500D02*
X82166100Y-83503500D01*
X82166100Y-83503500D02*
X80613600Y-81951000D01*
%TO.N,A0_buf*%
X107884900Y-64447200D02*
X100979100Y-64447200D01*
%TO.N,A1_buf*%
X94898300Y-64621900D02*
X95468600Y-65192200D01*
X95468600Y-65192200D02*
X108411600Y-65192200D01*
X108411600Y-65192200D02*
X109384300Y-64219500D01*
X109384300Y-64219500D02*
X110518400Y-64219500D01*
%TO.N,D6_buf*%
X102206000Y-68978900D02*
X100961700Y-70223200D01*
X100961700Y-70223200D02*
X98958500Y-70223200D01*
%TO.N,D2_Chip*%
X95148700Y-82736200D02*
X88651200Y-82736200D01*
%TO.N,D3_Chip*%
X97156100Y-82778100D02*
X96353800Y-81975800D01*
X96353800Y-81975800D02*
X91172400Y-81975800D01*
%TO.N,D0_Chip*%
X92010000Y-89293400D02*
X85965400Y-89293400D01*
X85965400Y-89293400D02*
X85532200Y-88860200D01*
%TO.N,OUT1_*%
X103314600Y-74199500D02*
X94083200Y-74199500D01*
X94083200Y-74199500D02*
X92405700Y-72522000D01*
X92405700Y-72522000D02*
X91200700Y-72522000D01*
X91200700Y-72522000D02*
X90489600Y-71810900D01*
%TO.N,A13*%
X122229700Y-53975000D02*
X122864700Y-53340000D01*
X118090000Y-54610000D02*
X121594700Y-54610000D01*
X121594700Y-54610000D02*
X122229700Y-53975000D01*
X113050000Y-54610000D02*
X79243300Y-54610000D01*
X79243300Y-54610000D02*
X78585300Y-53952000D01*
X78585300Y-53952000D02*
X78407300Y-53952000D01*
X78407300Y-53952000D02*
X77795300Y-53340000D01*
X69850000Y-53340000D02*
X77795300Y-53340000D01*
X113962700Y-54610000D02*
X113050000Y-54610000D01*
X113962700Y-54610000D02*
X114875300Y-54610000D01*
X130810000Y-53340000D02*
X122864700Y-53340000D01*
X114875300Y-54610000D02*
X118090000Y-54610000D01*
%TO.N,A1*%
X69850000Y-73660000D02*
X77795300Y-73660000D01*
X118090000Y-74930000D02*
X116264700Y-74930000D01*
X116264700Y-74930000D02*
X115291900Y-75902800D01*
X115291900Y-75902800D02*
X92918900Y-75902800D01*
X92918900Y-75902800D02*
X89770800Y-72754700D01*
X89770800Y-72754700D02*
X78700600Y-72754700D01*
X78700600Y-72754700D02*
X77795300Y-73660000D01*
X119002700Y-74930000D02*
X118090000Y-74930000D01*
X122864700Y-73660000D02*
X122826900Y-73622200D01*
X122826900Y-73622200D02*
X121223100Y-73622200D01*
X121223100Y-73622200D02*
X119915300Y-74930000D01*
X119002700Y-74930000D02*
X119915300Y-74930000D01*
X130810000Y-73660000D02*
X122864700Y-73660000D01*
%TO.N,CS_Chip*%
X116320500Y-92644200D02*
X112447100Y-92644200D01*
X112447100Y-92644200D02*
X110373100Y-94718200D01*
X110373100Y-94718200D02*
X106045000Y-94718200D01*
%TO.N,A1_Chip*%
X117496200Y-94624000D02*
X116676600Y-95443600D01*
X116676600Y-95443600D02*
X101240100Y-95443600D01*
X101240100Y-95443600D02*
X100965000Y-95168500D01*
%TO.N,Aud*%
X122344700Y-80683200D02*
X122176000Y-80851900D01*
X122176000Y-80851900D02*
X109842700Y-80851900D01*
X109842700Y-80851900D02*
X109261400Y-80270600D01*
X109261400Y-80270600D02*
X85657500Y-80270600D01*
X85657500Y-80270600D02*
X78478400Y-80270600D01*
X78478400Y-80270600D02*
X78395700Y-80353300D01*
%TO.N,A14*%
X113050000Y-57150000D02*
X114875300Y-57150000D01*
X114875300Y-57150000D02*
X115700700Y-57975400D01*
X115700700Y-57975400D02*
X121252100Y-57975400D01*
X121252100Y-57975400D02*
X122576800Y-56650700D01*
X112137400Y-57150000D02*
X113050000Y-57150000D01*
X111224700Y-57150000D02*
X78281000Y-57150000D01*
X112137400Y-57150000D02*
X111224700Y-57150000D01*
%TO.N,ROMSEL*%
X111224700Y-80010000D02*
X110491300Y-79276600D01*
X110491300Y-79276600D02*
X78289800Y-79276600D01*
X114875300Y-80010000D02*
X115704100Y-79181200D01*
X115704100Y-79181200D02*
X122344700Y-79181200D01*
X113050000Y-80010000D02*
X111224700Y-80010000D01*
X113962700Y-80010000D02*
X113050000Y-80010000D01*
X113962700Y-80010000D02*
X114875300Y-80010000D01*
%TO.N,R-W*%
X123146000Y-78740000D02*
X122859500Y-78453500D01*
X122859500Y-78453500D02*
X115794900Y-78453500D01*
X115794900Y-78453500D02*
X115476800Y-78771600D01*
X115476800Y-78771600D02*
X98886800Y-78771600D01*
X98886800Y-78771600D02*
X98654700Y-78539500D01*
X98654700Y-78539500D02*
X77995800Y-78539500D01*
X77995800Y-78539500D02*
X77795300Y-78740000D01*
X119915300Y-80010000D02*
X120018800Y-79906500D01*
X120018800Y-79906500D02*
X122645200Y-79906500D01*
X122645200Y-79906500D02*
X123146000Y-79405700D01*
X123146000Y-79405700D02*
X123146000Y-78740000D01*
X69850000Y-78740000D02*
X77795300Y-78740000D01*
X130810000Y-78740000D02*
X123146000Y-78740000D01*
X118090000Y-80010000D02*
X119915300Y-80010000D01*
%TO.N,AudIn*%
X121645100Y-83960400D02*
X78981800Y-83960400D01*
X78981800Y-83960400D02*
X78733400Y-83712000D01*
%TO.N,4016_EN*%
X92563500Y-71796600D02*
X91841000Y-71074100D01*
X91841000Y-71074100D02*
X83536700Y-71074100D01*
X83536700Y-71074100D02*
X83138900Y-70676300D01*
X92563500Y-71796600D02*
X94153300Y-73386400D01*
X94153300Y-73386400D02*
X108231400Y-73386400D01*
X108231400Y-73386400D02*
X108862900Y-74017900D01*
X108862900Y-74017900D02*
X110496900Y-74017900D01*
X110496900Y-74017900D02*
X118922400Y-74017900D01*
X118922400Y-74017900D02*
X119113500Y-73826800D01*
X110496900Y-75175600D02*
X110496900Y-74017900D01*
%TO.N,FF_Reset*%
X89446100Y-59839900D02*
X89716100Y-59569900D01*
X89716100Y-59569900D02*
X107867300Y-59569900D01*
X112200000Y-94074200D02*
X116974400Y-94074200D01*
X116974400Y-94074200D02*
X118575700Y-92472900D01*
%TO.N,PPU_D3*%
X130810000Y-116840000D02*
X69850000Y-116840000D01*
%TO.N,PPU_D2*%
X130810000Y-114300000D02*
X69850000Y-114300000D01*
%TO.N,PPU_D1*%
X130810000Y-111760000D02*
X69850000Y-111760000D01*
%TO.N,PPU_D0*%
X69850000Y-109220000D02*
X77795300Y-109220000D01*
X130810000Y-109220000D02*
X122864700Y-109220000D01*
X122864700Y-109220000D02*
X122708500Y-109376200D01*
X122708500Y-109376200D02*
X77951500Y-109376200D01*
X77951500Y-109376200D02*
X77795300Y-109220000D01*
%TO.N,PPU_A0*%
X69850000Y-106680000D02*
X77795300Y-106680000D01*
X130810000Y-106680000D02*
X122864700Y-106680000D01*
X122864700Y-106680000D02*
X77795300Y-106680000D01*
%TO.N,PPU_A1*%
X130810000Y-104140000D02*
X69850000Y-104140000D01*
%TO.N,PPU_A2*%
X130810000Y-101600000D02*
X122864700Y-101600000D01*
X69850000Y-101600000D02*
X77795300Y-101600000D01*
X77795300Y-101600000D02*
X77871100Y-101675800D01*
X77871100Y-101675800D02*
X122788900Y-101675800D01*
X122788900Y-101675800D02*
X122864700Y-101600000D01*
%TO.N,PPU_A3*%
X77795300Y-99060000D02*
X122864700Y-99060000D01*
X130810000Y-99060000D02*
X122864700Y-99060000D01*
X69850000Y-99060000D02*
X77795300Y-99060000D01*
%TO.N,PPU_A4*%
X77795300Y-96520000D02*
X78569200Y-97293900D01*
X78569200Y-97293900D02*
X122090800Y-97293900D01*
X122090800Y-97293900D02*
X122864700Y-96520000D01*
X69850000Y-96520000D02*
X77795300Y-96520000D01*
X130810000Y-96520000D02*
X122864700Y-96520000D01*
%TO.N,PPU_A5*%
X122864700Y-93980000D02*
X120950700Y-95894000D01*
X120950700Y-95894000D02*
X80795000Y-95894000D01*
X80795000Y-95894000D02*
X78881000Y-93980000D01*
X78881000Y-93980000D02*
X77795300Y-93980000D01*
X69850000Y-93980000D02*
X77795300Y-93980000D01*
X130810000Y-93980000D02*
X122864700Y-93980000D01*
%TO.N,PPU_A6*%
X122864700Y-91440000D02*
X119671200Y-91440000D01*
X119671200Y-91440000D02*
X119489800Y-91258600D01*
X119489800Y-91258600D02*
X111987500Y-91258600D01*
X111987500Y-91258600D02*
X111205700Y-92040400D01*
X111205700Y-92040400D02*
X78395700Y-92040400D01*
X78395700Y-92040400D02*
X77795300Y-91440000D01*
X69850000Y-91440000D02*
X77795300Y-91440000D01*
X130810000Y-91440000D02*
X122864700Y-91440000D01*
%TO.N,CIRAM_A10*%
X122864700Y-88900000D02*
X122864700Y-88492300D01*
X122864700Y-88492300D02*
X121976100Y-87603700D01*
X121976100Y-87603700D02*
X79091600Y-87603700D01*
X79091600Y-87603700D02*
X77795300Y-88900000D01*
X69850000Y-88900000D02*
X77795300Y-88900000D01*
X130810000Y-88900000D02*
X122864700Y-88900000D01*
%TO.N,PPU_RD*%
X122864700Y-86360000D02*
X122294800Y-86929900D01*
X122294800Y-86929900D02*
X78365200Y-86929900D01*
X78365200Y-86929900D02*
X77795300Y-86360000D01*
X69850000Y-86360000D02*
X77795300Y-86360000D01*
X130810000Y-86360000D02*
X122864700Y-86360000D01*
%TO.N,IRQ*%
X122864700Y-81280000D02*
X122698000Y-81446700D01*
X122698000Y-81446700D02*
X97373300Y-81446700D01*
X97373300Y-81446700D02*
X97152300Y-81225700D01*
X97152300Y-81225700D02*
X77849600Y-81225700D01*
X77849600Y-81225700D02*
X77795300Y-81280000D01*
X69850000Y-81280000D02*
X77795300Y-81280000D01*
X130810000Y-81280000D02*
X122864700Y-81280000D01*
%TO.N,A0*%
X116264700Y-77470000D02*
X115627900Y-77470000D01*
X115627900Y-77470000D02*
X114778600Y-78319300D01*
X114778600Y-78319300D02*
X99071400Y-78319300D01*
X99071400Y-78319300D02*
X98685400Y-77933300D01*
X98685400Y-77933300D02*
X79528600Y-77933300D01*
X79528600Y-77933300D02*
X77795300Y-76200000D01*
X69850000Y-76200000D02*
X77795300Y-76200000D01*
X118090000Y-77470000D02*
X116264700Y-77470000D01*
X119002700Y-77470000D02*
X118090000Y-77470000D01*
X119002700Y-77470000D02*
X119915300Y-77470000D01*
X122864700Y-76200000D02*
X121594700Y-77470000D01*
X121594700Y-77470000D02*
X119915300Y-77470000D01*
X130810000Y-76200000D02*
X122864700Y-76200000D01*
%TO.N,A2*%
X119915300Y-72390000D02*
X121594700Y-72390000D01*
X121594700Y-72390000D02*
X122864700Y-71120000D01*
X77795300Y-71120000D02*
X78987900Y-69927400D01*
X78987900Y-69927400D02*
X83451400Y-69927400D01*
X83451400Y-69927400D02*
X84147600Y-70623600D01*
X84147600Y-70623600D02*
X95376700Y-70623600D01*
X95376700Y-70623600D02*
X97689100Y-72936000D01*
X97689100Y-72936000D02*
X108643200Y-72936000D01*
X108643200Y-72936000D02*
X108922600Y-73215400D01*
X108922600Y-73215400D02*
X115439300Y-73215400D01*
X115439300Y-73215400D02*
X116264700Y-72390000D01*
X69850000Y-71120000D02*
X77795300Y-71120000D01*
X118090000Y-72390000D02*
X116264700Y-72390000D01*
X119002700Y-72390000D02*
X118090000Y-72390000D01*
X119002700Y-72390000D02*
X119915300Y-72390000D01*
X130810000Y-71120000D02*
X122864700Y-71120000D01*
%TO.N,A3*%
X116264700Y-69850000D02*
X115481000Y-69066300D01*
X115481000Y-69066300D02*
X114893300Y-69066300D01*
X114893300Y-69066300D02*
X114509900Y-68682900D01*
X114509900Y-68682900D02*
X111224600Y-68682900D01*
X111224600Y-68682900D02*
X109669100Y-67127400D01*
X109669100Y-67127400D02*
X78976100Y-67127400D01*
X78976100Y-67127400D02*
X77795300Y-68308200D01*
X77795300Y-68308200D02*
X77795300Y-68580000D01*
X69850000Y-68580000D02*
X77795300Y-68580000D01*
X118090000Y-69850000D02*
X116264700Y-69850000D01*
X119002700Y-69850000D02*
X118090000Y-69850000D01*
X119002700Y-69850000D02*
X119915300Y-69850000D01*
X122864700Y-68580000D02*
X121185300Y-68580000D01*
X121185300Y-68580000D02*
X119915300Y-69850000D01*
X130810000Y-68580000D02*
X122864700Y-68580000D01*
%TO.N,A4*%
X116264700Y-67310000D02*
X116257100Y-67310000D01*
X116257100Y-67310000D02*
X115211300Y-66264200D01*
X115211300Y-66264200D02*
X78019500Y-66264200D01*
X78019500Y-66264200D02*
X77795300Y-66040000D01*
X119915300Y-67310000D02*
X121640700Y-67310000D01*
X121640700Y-67310000D02*
X122864700Y-66086000D01*
X122864700Y-66086000D02*
X122864700Y-66040000D01*
X69850000Y-66040000D02*
X77795300Y-66040000D01*
X118090000Y-67310000D02*
X119915300Y-67310000D01*
X118090000Y-67310000D02*
X116264700Y-67310000D01*
X130810000Y-66040000D02*
X122864700Y-66040000D01*
%TO.N,A5*%
X116264700Y-64770000D02*
X116229300Y-64770000D01*
X116229300Y-64770000D02*
X114533300Y-63074000D01*
X114533300Y-63074000D02*
X111303700Y-63074000D01*
X111303700Y-63074000D02*
X110626200Y-62396500D01*
X110626200Y-62396500D02*
X78710600Y-62396500D01*
X78710600Y-62396500D02*
X77795300Y-63311800D01*
X77795300Y-63311800D02*
X77795300Y-63500000D01*
X130810000Y-63500000D02*
X121185300Y-63500000D01*
X121185300Y-63500000D02*
X119915300Y-64770000D01*
X118090000Y-64770000D02*
X119915300Y-64770000D01*
X117177400Y-64770000D02*
X118090000Y-64770000D01*
X117177400Y-64770000D02*
X116264700Y-64770000D01*
X69850000Y-63500000D02*
X77795300Y-63500000D01*
%TO.N,A6*%
X69850000Y-60960000D02*
X77795300Y-60960000D01*
X118090000Y-62230000D02*
X116264700Y-62230000D01*
X116264700Y-62230000D02*
X115439400Y-61404700D01*
X115439400Y-61404700D02*
X78240000Y-61404700D01*
X78240000Y-61404700D02*
X77795300Y-60960000D01*
X122864700Y-60960000D02*
X121594700Y-62230000D01*
X121594700Y-62230000D02*
X118090000Y-62230000D01*
X130810000Y-60960000D02*
X122864700Y-60960000D01*
%TO.N,A7*%
X77795300Y-58420000D02*
X78195400Y-58019900D01*
X78195400Y-58019900D02*
X114594600Y-58019900D01*
X114594600Y-58019900D02*
X116264700Y-59690000D01*
X69850000Y-58420000D02*
X77795300Y-58420000D01*
X118090000Y-59690000D02*
X116264700Y-59690000D01*
X122864700Y-58420000D02*
X121594700Y-59690000D01*
X121594700Y-59690000D02*
X118090000Y-59690000D01*
X130810000Y-58420000D02*
X122864700Y-58420000D01*
%TO.N,A8*%
X122864700Y-55880000D02*
X119915300Y-55880000D01*
X119915300Y-55880000D02*
X77795300Y-55880000D01*
X119915300Y-55880000D02*
X119915300Y-57150000D01*
X118090000Y-57150000D02*
X119915300Y-57150000D01*
X69850000Y-55880000D02*
X77795300Y-55880000D01*
X130810000Y-55880000D02*
X122864700Y-55880000D01*
%TO.N,A10*%
X69850000Y-50800000D02*
X77795300Y-50800000D01*
X118090000Y-52070000D02*
X116264700Y-52070000D01*
X116264700Y-52070000D02*
X116264700Y-51760400D01*
X116264700Y-51760400D02*
X115749000Y-51244700D01*
X115749000Y-51244700D02*
X78240000Y-51244700D01*
X78240000Y-51244700D02*
X77795300Y-50800000D01*
X122864700Y-50800000D02*
X121594700Y-52070000D01*
X121594700Y-52070000D02*
X118090000Y-52070000D01*
X130810000Y-50800000D02*
X122864700Y-50800000D01*
%TO.N,A11*%
X118090000Y-49530000D02*
X119915300Y-49530000D01*
X122864700Y-48260000D02*
X121185300Y-48260000D01*
X121185300Y-48260000D02*
X119915300Y-49530000D01*
X69850000Y-48260000D02*
X77795300Y-48260000D01*
X118090000Y-49530000D02*
X116264700Y-49530000D01*
X116264700Y-49530000D02*
X114827400Y-48092700D01*
X114827400Y-48092700D02*
X77962600Y-48092700D01*
X77962600Y-48092700D02*
X77795300Y-48260000D01*
X130810000Y-48260000D02*
X122864700Y-48260000D01*
%TO.N,PPU_A8*%
X122263900Y-95725400D02*
X121420700Y-96568600D01*
X121420700Y-96568600D02*
X80443800Y-96568600D01*
%TO.N,PPU_A7*%
X121680200Y-92186700D02*
X119781000Y-92186700D01*
X119781000Y-92186700D02*
X119330500Y-91736200D01*
X119330500Y-91736200D02*
X112146800Y-91736200D01*
X112146800Y-91736200D02*
X110811300Y-93071700D01*
X110811300Y-93071700D02*
X78703600Y-93071700D01*
%TO.N,PPU_A13_*%
X122194300Y-90621900D02*
X111987300Y-90621900D01*
X111987300Y-90621900D02*
X111019100Y-91590100D01*
X111019100Y-91590100D02*
X79007600Y-91590100D01*
X79007600Y-91590100D02*
X78440300Y-91022800D01*
%TO.N,CIRAM_CE*%
X122133500Y-88853600D02*
X121333900Y-88054000D01*
X121333900Y-88054000D02*
X79684400Y-88054000D01*
X79684400Y-88054000D02*
X78689400Y-89049000D01*
%TO.N,PPU_WR*%
X122008300Y-86180600D02*
X78680800Y-86180600D01*
%TO.N,A12*%
X114875300Y-52070000D02*
X115500900Y-52070000D01*
X113050000Y-52070000D02*
X114875300Y-52070000D01*
X112137400Y-52070000D02*
X113050000Y-52070000D01*
X112137400Y-52070000D02*
X111224700Y-52070000D01*
X111224700Y-52070000D02*
X78086800Y-52070000D01*
%TO.N,M2*%
X122375500Y-49428000D02*
X121395400Y-50408100D01*
X121395400Y-50408100D02*
X79943400Y-50408100D01*
X79943400Y-50408100D02*
X78380400Y-48845100D01*
%TO.N,Addr_A1*%
X113050000Y-62230000D02*
X114875300Y-62230000D01*
X114875300Y-62230000D02*
X114875300Y-62390300D01*
X114875300Y-62390300D02*
X115673600Y-63188600D01*
%TO.N,Addr_A13*%
X113050000Y-64770000D02*
X111224700Y-64770000D01*
X109855000Y-64974300D02*
X111020400Y-64974300D01*
X111020400Y-64974300D02*
X111224700Y-64770000D01*
%TO.N,Addr_A14*%
X114875300Y-67310000D02*
X114875300Y-68022500D01*
X114875300Y-68022500D02*
X115153500Y-68300700D01*
X113050000Y-67310000D02*
X114875300Y-67310000D01*
%TO.N,Addr_ROMSEL*%
X114875300Y-69850000D02*
X115153200Y-69850000D01*
X113050000Y-69850000D02*
X114875300Y-69850000D01*
%TO.N,Addr_R-W*%
X111224700Y-72390000D02*
X110981400Y-72146700D01*
X110981400Y-72146700D02*
X110934800Y-72146700D01*
X113050000Y-72390000D02*
X111224700Y-72390000D01*
%TO.N,+5VA*%
X130810000Y-119380000D02*
X69850000Y-119380000D01*
%TO.N,GND1*%
X69850000Y-83820000D02*
X77795300Y-83820000D01*
X130810000Y-83820000D02*
X122864700Y-83820000D01*
X122864700Y-83820000D02*
X121986600Y-84698100D01*
X121986600Y-84698100D02*
X78673400Y-84698100D01*
X78673400Y-84698100D02*
X77795300Y-83820000D01*
%TD*%
M02*
