%TF.GenerationSoftware,KiCad,Pcbnew,(5.1.8)-1*%
%TF.CreationDate,2021-03-10T17:43:25+01:00*%
%TF.ProjectId,Nes Sound Expansion,4e657320-536f-4756-9e64-20457870616e,rev?*%
%TF.SameCoordinates,Original*%
%TF.FileFunction,Soldermask,Top*%
%TF.FilePolarity,Negative*%
%FSLAX46Y46*%
G04 Gerber Fmt 4.6, Leading zero omitted, Abs format (unit mm)*
G04 Created by KiCad (PCBNEW (5.1.8)-1) date 2021-03-10 17:43:25*
%MOMM*%
%LPD*%
G01*
G04 APERTURE LIST*
%ADD10R,10.000000X1.524000*%
%ADD11O,1.700000X1.700000*%
%ADD12R,1.700000X1.700000*%
%ADD13R,3.000000X1.000000*%
G04 APERTURE END LIST*
D10*
%TO.C,J3*%
X72390000Y-119380000D03*
X72390000Y-116840000D03*
X72390000Y-114300000D03*
X72390000Y-111760000D03*
X72390000Y-109220000D03*
X72390000Y-106680000D03*
X72390000Y-104140000D03*
X72390000Y-101600000D03*
X72390000Y-99060000D03*
X72390000Y-96520000D03*
X72390000Y-93980000D03*
X72390000Y-91440000D03*
X72390000Y-88900000D03*
X72390000Y-86360000D03*
X72390000Y-83820000D03*
X72390000Y-81280000D03*
X72390000Y-78740000D03*
X72390000Y-76200000D03*
X72390000Y-73660000D03*
X72390000Y-71120000D03*
X72390000Y-68580000D03*
X72390000Y-66040000D03*
X72390000Y-63500000D03*
X72390000Y-60960000D03*
X72390000Y-58420000D03*
X72390000Y-55880000D03*
X72390000Y-53340000D03*
X72390000Y-50800000D03*
X72390000Y-48260000D03*
X72390000Y-45720000D03*
%TD*%
%TO.C,J9*%
X128270000Y-119380000D03*
X128270000Y-116840000D03*
X128270000Y-114300000D03*
X128270000Y-111760000D03*
X128270000Y-109220000D03*
X128270000Y-106680000D03*
X128270000Y-104140000D03*
X128270000Y-101600000D03*
X128270000Y-99060000D03*
X128270000Y-96520000D03*
X128270000Y-93980000D03*
X128270000Y-91440000D03*
X128270000Y-88900000D03*
X128270000Y-86360000D03*
X128270000Y-83820000D03*
X128270000Y-81280000D03*
X128270000Y-78740000D03*
X128270000Y-76200000D03*
X128270000Y-73660000D03*
X128270000Y-71120000D03*
X128270000Y-68580000D03*
X128270000Y-66040000D03*
X128270000Y-63500000D03*
X128270000Y-60960000D03*
X128270000Y-58420000D03*
X128270000Y-55880000D03*
X128270000Y-53340000D03*
X128270000Y-50800000D03*
X128270000Y-48260000D03*
X128270000Y-45720000D03*
%TD*%
D11*
%TO.C,J1*%
X90805000Y-46355000D03*
D12*
X88265000Y-46355000D03*
%TD*%
D13*
%TO.C,J2*%
X113050000Y-82550000D03*
X118090000Y-82550000D03*
X113050000Y-80010000D03*
X118090000Y-80010000D03*
X113050000Y-77470000D03*
X118090000Y-77470000D03*
X113050000Y-74930000D03*
X118090000Y-74930000D03*
X113050000Y-72390000D03*
X118090000Y-72390000D03*
X113050000Y-69850000D03*
X118090000Y-69850000D03*
X113050000Y-67310000D03*
X118090000Y-67310000D03*
X113050000Y-64770000D03*
X118090000Y-64770000D03*
X113050000Y-62230000D03*
X118090000Y-62230000D03*
X113050000Y-59690000D03*
X118090000Y-59690000D03*
X113050000Y-57150000D03*
X118090000Y-57150000D03*
X113050000Y-54610000D03*
X118090000Y-54610000D03*
X113050000Y-52070000D03*
X118090000Y-52070000D03*
X113050000Y-49530000D03*
X118090000Y-49530000D03*
X113050000Y-46990000D03*
X118090000Y-46990000D03*
%TD*%
M02*
