M48
; DRILL file {KiCad (5.1.6)-1} date 08/06/20 19:59:09
; FORMAT={-:-/ absolute / inch / decimal}
; #@! TF.CreationDate,2020-08-06T19:59:09+02:00
; #@! TF.GenerationSoftware,Kicad,Pcbnew,(5.1.6)-1
; #@! TF.FileFunction,Plated,1,2,PTH
FMAT,2
INCH
T1C0.0315
T2C0.0394
%
G90
G05
T1
X5.6Y-2.2
X5.6Y-2.5
X5.7Y-2.2
X5.7Y-2.5
X5.8Y-2.2
X5.8Y-2.5
X5.9Y-2.2
X5.9Y-2.5
X6.0Y-2.2
X6.0Y-2.5
X6.1Y-2.2
X6.1Y-2.5
X6.2Y-2.2
X6.2Y-2.5
X5.6Y-4.4
X5.6Y-4.7
X5.7Y-4.4
X5.7Y-4.7
X5.8Y-4.4
X5.8Y-4.7
X5.9Y-4.4
X5.9Y-4.7
X6.0Y-4.4
X6.0Y-4.7
X6.1Y-4.4
X6.1Y-4.7
X6.2Y-4.4
X6.2Y-4.7
X5.5598Y-3.8571
X5.5598Y-4.1571
X5.6598Y-3.8571
X5.6598Y-4.1571
X5.7598Y-3.8571
X5.7598Y-4.1571
X5.8598Y-3.8571
X5.8598Y-4.1571
X5.9598Y-3.8571
X5.9598Y-4.1571
X6.0598Y-3.8571
X6.0598Y-4.1571
X6.1598Y-3.8571
X6.1598Y-4.1571
X6.2598Y-3.8571
X6.2598Y-4.1571
X6.45Y-3.9
X6.45Y-4.0969
X4.6Y-2.75
X4.6Y-2.85
X4.6Y-2.95
X4.6Y-3.05
X4.6Y-3.15
X4.6Y-3.25
X4.6Y-3.35
X4.6Y-3.45
X4.6Y-3.55
X4.6Y-3.65
X4.6Y-3.75
X4.6Y-3.85
X4.6Y-3.95
X4.6Y-4.05
X4.6Y-4.15
X4.6Y-4.25
X4.6Y-4.35
X4.6Y-4.45
X4.6Y-4.55
X4.6Y-4.65
X5.2Y-2.75
X5.2Y-2.85
X5.2Y-2.95
X5.2Y-3.05
X5.2Y-3.15
X5.2Y-3.25
X5.2Y-3.35
X5.2Y-3.45
X5.2Y-3.55
X5.2Y-3.65
X5.2Y-3.75
X5.2Y-3.85
X5.2Y-3.95
X5.2Y-4.05
X5.2Y-4.15
X5.2Y-4.25
X5.2Y-4.35
X5.2Y-4.45
X5.2Y-4.55
X5.2Y-4.65
X4.05Y-2.0
X4.45Y-2.0
X5.6Y-1.65
X5.6Y-1.95
X5.7Y-1.65
X5.7Y-1.95
X5.8Y-1.65
X5.8Y-1.95
X5.9Y-1.65
X5.9Y-1.95
X6.0Y-1.65
X6.0Y-1.95
X6.1Y-1.65
X6.1Y-1.95
X6.2Y-1.65
X6.2Y-1.95
X4.7Y-2.25
X5.1Y-2.25
X6.6Y-2.25
X6.6Y-2.4469
X6.35Y-2.25
X6.35Y-2.4469
X5.55Y-3.3
X5.55Y-3.6
X5.65Y-3.3
X5.65Y-3.6
X5.75Y-3.3
X5.75Y-3.6
X5.85Y-3.3
X5.85Y-3.6
X5.95Y-3.3
X5.95Y-3.6
X6.05Y-3.3
X6.05Y-3.6
X6.15Y-3.3
X6.15Y-3.6
X6.25Y-3.3
X6.25Y-3.6
X4.25Y-2.25
X4.4469Y-2.25
X4.7Y-1.85
X5.1Y-1.85
X6.45Y-3.35
X6.45Y-3.5469
X4.7Y-2.05
X5.1Y-2.05
X6.45Y-2.8
X6.45Y-2.9969
X4.7Y-1.65
X5.1Y-1.65
X5.55Y-2.75
X5.55Y-3.05
X5.65Y-2.75
X5.65Y-3.05
X5.75Y-2.75
X5.75Y-3.05
X5.85Y-2.75
X5.85Y-3.05
X5.95Y-2.75
X5.95Y-3.05
X6.05Y-2.75
X6.05Y-3.05
X6.15Y-2.75
X6.15Y-3.05
X6.25Y-2.75
X6.25Y-3.05
X4.8Y-2.55
X4.9969Y-2.55
X6.4Y-4.45
X6.4Y-4.6469
X6.35Y-1.7
X6.35Y-1.8969
X6.8Y-2.1
X6.8Y-2.5
T2
X7.75Y-3.3
X7.75Y-3.4
X7.75Y-3.5
X7.75Y-3.6
X7.75Y-3.7
X7.75Y-3.8
X7.75Y-3.9
X7.1Y-2.0
X7.1Y-2.1
X7.1Y-2.2
X7.1Y-2.3
X7.1Y-2.4
X7.1Y-2.5
X7.1Y-2.6
X7.1Y-2.7
X7.1Y-2.8
X7.1Y-2.9
X7.1Y-3.0
X7.1Y-3.1
X7.1Y-3.2
X7.1Y-3.3
X7.1Y-3.4
X7.1Y-3.5
X7.1Y-3.6
X7.1Y-3.7
X7.1Y-3.8
X7.1Y-3.9
X7.1Y-4.0
X7.1Y-4.1
X7.1Y-4.2
X7.1Y-4.3
X7.3Y-2.0
X7.3Y-2.1
X7.3Y-2.2
X7.3Y-2.3
X7.3Y-2.4
X7.3Y-2.5
X7.3Y-2.6
X7.3Y-2.7
X7.3Y-2.8
X7.3Y-2.9
X7.3Y-3.0
X7.3Y-3.1
X7.3Y-3.2
X7.3Y-3.3
X7.3Y-3.4
X7.3Y-3.5
X7.3Y-3.6
X7.3Y-3.7
X7.3Y-3.8
X7.3Y-3.9
X7.3Y-4.0
X7.3Y-4.1
X7.3Y-4.2
X7.3Y-4.3
X7.75Y-2.4
X7.75Y-2.5
X7.75Y-2.6
X7.75Y-2.7
X7.75Y-2.8
X7.75Y-2.9
X7.75Y-3.0
T0
M30
