M48
; DRILL file {KiCad (5.1.8)-1} date 05/20/21 16:02:38
; FORMAT={-:-/ absolute / inch / decimal}
; #@! TF.CreationDate,2021-05-20T16:02:38+02:00
; #@! TF.GenerationSoftware,Kicad,Pcbnew,(5.1.8)-1
; #@! TF.FileFunction,Plated,1,2,PTH
FMAT,2
INCH
T1C0.0157
T2C0.0394
%
G90
G05
T1
X3.85Y-4.36
X3.9149Y-2.1708
X3.9155Y-2.325
X3.975Y-4.365
X3.9943Y-2.7411
X4.0205Y-1.9983
X4.0619Y-2.6678
X4.0875Y-1.8975
X4.088Y-3.1302
X4.1166Y-3.3593
X4.1177Y-2.7929
X4.4474Y-1.625
X4.6215Y-2.2996
X4.625Y-2.6352
X4.645Y-3.365
X4.6644Y-3.8676
X4.684Y-2.3728
X4.6942Y-2.6422
X4.74Y-2.1091
X4.7431Y-3.1462
X4.7576Y-2.2565
X4.7741Y-2.217
X4.775Y-2.5654
X4.8684Y-1.936
X4.8727Y-1.7673
X4.8814Y-2.6058
X4.886Y-3.3878
X4.9031Y-2.3743
X4.9292Y-2.2496
X4.9335Y-3.34
X4.9388Y-2.0247
X4.9601Y-2.6232
X4.9719Y-2.9396
X4.9998Y-3.107
X5.0Y-3.5341
X5.0031Y-2.5612
X5.0445Y-2.5665
X5.0492Y-2.1727
X5.0497Y-2.1146
X5.1136Y-2.6289
X5.125Y-2.44
X5.1429Y-2.5995
X5.175Y-2.5746
X5.2136Y-2.425
X5.2215Y-2.1524
X5.2383Y-1.9442
X5.255Y-1.8121
X5.2592Y-2.013
X5.2609Y-2.156
X5.2662Y-2.1999
X5.2712Y-2.4399
X5.2796Y-2.5652
X5.3133Y-2.4394
T2
X3.9Y-3.4
X3.9Y-3.5
X3.9Y-3.6
X3.9Y-3.7
X3.9Y-3.8
X3.9Y-3.9
X3.9Y-4.0
X4.45Y-2.0
X4.45Y-2.1
X4.45Y-2.2
X4.45Y-2.3
X4.45Y-2.4
X4.45Y-2.5
X4.45Y-2.6
X4.45Y-2.7
X4.45Y-2.8
X4.45Y-2.9
X4.45Y-3.0
X4.45Y-3.1
X4.45Y-3.2
X4.45Y-3.3
X4.45Y-3.4
X4.45Y-3.5
X4.45Y-3.6
X4.45Y-3.7
X4.45Y-3.8
X4.45Y-3.9
X4.45Y-4.0
X4.45Y-4.1
X4.45Y-4.2
X4.45Y-4.3
X3.9Y-2.6
X3.9Y-2.7
X3.9Y-2.8
X3.9Y-2.9
X3.9Y-3.0
X3.9Y-3.1
X3.9Y-3.2
X4.25Y-2.0
X4.25Y-2.1
X4.25Y-2.2
X4.25Y-2.3
X4.25Y-2.4
X4.25Y-2.5
X4.25Y-2.6
X4.25Y-2.7
X4.25Y-2.8
X4.25Y-2.9
X4.25Y-3.0
X4.25Y-3.1
X4.25Y-3.2
X4.25Y-3.3
X4.25Y-3.4
X4.25Y-3.5
X4.25Y-3.6
X4.25Y-3.7
X4.25Y-3.8
X4.25Y-3.9
X4.25Y-4.0
X4.25Y-4.1
X4.25Y-4.2
X4.25Y-4.3
T0
M30
