%TF.GenerationSoftware,KiCad,Pcbnew,(5.1.6)-1*%
%TF.CreationDate,2020-08-06T22:00:50+02:00*%
%TF.ProjectId,Nes Sound Expansion,4e657320-536f-4756-9e64-20457870616e,rev?*%
%TF.SameCoordinates,Original*%
%TF.FileFunction,Legend,Bot*%
%TF.FilePolarity,Positive*%
%FSLAX46Y46*%
G04 Gerber Fmt 4.6, Leading zero omitted, Abs format (unit mm)*
G04 Created by KiCad (PCBNEW (5.1.6)-1) date 2020-08-06 22:00:50*
%MOMM*%
%LPD*%
G01*
G04 APERTURE LIST*
%ADD10C,0.120000*%
%ADD11C,0.150000*%
G04 APERTURE END LIST*
D10*
%TO.C,J2*%
X181670000Y-49470000D02*
X180340000Y-49470000D01*
X181670000Y-50800000D02*
X181670000Y-49470000D01*
X181670000Y-52070000D02*
X179010000Y-52070000D01*
X179010000Y-52070000D02*
X179010000Y-110550000D01*
X181670000Y-52070000D02*
X181670000Y-110550000D01*
X181670000Y-110550000D02*
X179010000Y-110550000D01*
%TO.C,J1*%
X186750000Y-49470000D02*
X185420000Y-49470000D01*
X186750000Y-50800000D02*
X186750000Y-49470000D01*
X186750000Y-52070000D02*
X184090000Y-52070000D01*
X184090000Y-52070000D02*
X184090000Y-110550000D01*
X186750000Y-52070000D02*
X186750000Y-110550000D01*
X186750000Y-110550000D02*
X184090000Y-110550000D01*
%TO.C,J2*%
D11*
X180673333Y-47922380D02*
X180673333Y-48636666D01*
X180720952Y-48779523D01*
X180816190Y-48874761D01*
X180959047Y-48922380D01*
X181054285Y-48922380D01*
X180244761Y-48017619D02*
X180197142Y-47970000D01*
X180101904Y-47922380D01*
X179863809Y-47922380D01*
X179768571Y-47970000D01*
X179720952Y-48017619D01*
X179673333Y-48112857D01*
X179673333Y-48208095D01*
X179720952Y-48350952D01*
X180292380Y-48922380D01*
X179673333Y-48922380D01*
%TO.C,J1*%
X185753333Y-47922380D02*
X185753333Y-48636666D01*
X185800952Y-48779523D01*
X185896190Y-48874761D01*
X186039047Y-48922380D01*
X186134285Y-48922380D01*
X184753333Y-48922380D02*
X185324761Y-48922380D01*
X185039047Y-48922380D02*
X185039047Y-47922380D01*
X185134285Y-48065238D01*
X185229523Y-48160476D01*
X185324761Y-48208095D01*
%TD*%
M02*
