%TF.GenerationSoftware,KiCad,Pcbnew,(5.1.6)-1*%
%TF.CreationDate,2020-08-06T22:00:50+02:00*%
%TF.ProjectId,Nes Sound Expansion,4e657320-536f-4756-9e64-20457870616e,rev?*%
%TF.SameCoordinates,Original*%
%TF.FileFunction,Soldermask,Top*%
%TF.FilePolarity,Negative*%
%FSLAX46Y46*%
G04 Gerber Fmt 4.6, Leading zero omitted, Abs format (unit mm)*
G04 Created by KiCad (PCBNEW (5.1.6)-1) date 2020-08-06 22:00:50*
%MOMM*%
%LPD*%
G01*
G04 APERTURE LIST*
%ADD10O,1.800000X1.800000*%
%ADD11R,1.800000X1.800000*%
%ADD12O,1.700000X1.700000*%
%ADD13R,1.700000X1.700000*%
%ADD14C,1.700000*%
G04 APERTURE END LIST*
D10*
%TO.C,J6*%
X195580000Y-116840000D03*
X195580000Y-114300000D03*
X195580000Y-111760000D03*
D11*
X195580000Y-109220000D03*
%TD*%
D10*
%TO.C,J5*%
X104140000Y-78740000D03*
X104140000Y-76200000D03*
X104140000Y-73660000D03*
D11*
X104140000Y-71120000D03*
%TD*%
D12*
%TO.C,U7*%
X157480000Y-49530000D03*
X142240000Y-41910000D03*
X154940000Y-49530000D03*
X144780000Y-41910000D03*
X152400000Y-49530000D03*
X147320000Y-41910000D03*
X149860000Y-49530000D03*
X149860000Y-41910000D03*
X147320000Y-49530000D03*
X152400000Y-41910000D03*
X144780000Y-49530000D03*
X154940000Y-41910000D03*
X142240000Y-49530000D03*
D13*
X157480000Y-41910000D03*
%TD*%
D12*
%TO.C,U6*%
X157480000Y-63500000D03*
X142240000Y-55880000D03*
X154940000Y-63500000D03*
X144780000Y-55880000D03*
X152400000Y-63500000D03*
X147320000Y-55880000D03*
X149860000Y-63500000D03*
X149860000Y-55880000D03*
X147320000Y-63500000D03*
X152400000Y-55880000D03*
X144780000Y-63500000D03*
X154940000Y-55880000D03*
X142240000Y-63500000D03*
D13*
X157480000Y-55880000D03*
%TD*%
D12*
%TO.C,U5*%
X159000000Y-105590000D03*
X141220000Y-97970000D03*
X156460000Y-105590000D03*
X143760000Y-97970000D03*
X153920000Y-105590000D03*
X146300000Y-97970000D03*
X151380000Y-105590000D03*
X148840000Y-97970000D03*
X148840000Y-105590000D03*
X151380000Y-97970000D03*
X146300000Y-105590000D03*
X153920000Y-97970000D03*
X143760000Y-105590000D03*
X156460000Y-97970000D03*
X141220000Y-105590000D03*
D13*
X159000000Y-97970000D03*
%TD*%
D12*
%TO.C,U4*%
X157480000Y-119380000D03*
X142240000Y-111760000D03*
X154940000Y-119380000D03*
X144780000Y-111760000D03*
X152400000Y-119380000D03*
X147320000Y-111760000D03*
X149860000Y-119380000D03*
X149860000Y-111760000D03*
X147320000Y-119380000D03*
X152400000Y-111760000D03*
X144780000Y-119380000D03*
X154940000Y-111760000D03*
X142240000Y-119380000D03*
D13*
X157480000Y-111760000D03*
%TD*%
D12*
%TO.C,U2*%
X158750000Y-91440000D03*
X140970000Y-83820000D03*
X156210000Y-91440000D03*
X143510000Y-83820000D03*
X153670000Y-91440000D03*
X146050000Y-83820000D03*
X151130000Y-91440000D03*
X148590000Y-83820000D03*
X148590000Y-91440000D03*
X151130000Y-83820000D03*
X146050000Y-91440000D03*
X153670000Y-83820000D03*
X143510000Y-91440000D03*
X156210000Y-83820000D03*
X140970000Y-91440000D03*
D13*
X158750000Y-83820000D03*
%TD*%
D12*
%TO.C,U1*%
X158750000Y-77470000D03*
X140970000Y-69850000D03*
X156210000Y-77470000D03*
X143510000Y-69850000D03*
X153670000Y-77470000D03*
X146050000Y-69850000D03*
X151130000Y-77470000D03*
X148590000Y-69850000D03*
X148590000Y-77470000D03*
X151130000Y-69850000D03*
X146050000Y-77470000D03*
X153670000Y-69850000D03*
X143510000Y-77470000D03*
X156210000Y-69850000D03*
X140970000Y-77470000D03*
D13*
X158750000Y-69850000D03*
%TD*%
D10*
%TO.C,J4*%
X195580000Y-99060000D03*
X195580000Y-96520000D03*
X195580000Y-93980000D03*
X195580000Y-91440000D03*
X195580000Y-88900000D03*
X195580000Y-86360000D03*
D11*
X195580000Y-83820000D03*
%TD*%
%TO.C,J3*%
X195580000Y-60960000D03*
D10*
X195580000Y-63500000D03*
X195580000Y-66040000D03*
X195580000Y-68580000D03*
X195580000Y-71120000D03*
X195580000Y-73660000D03*
X195580000Y-76200000D03*
%TD*%
%TO.C,J2*%
X180340000Y-109220000D03*
X180340000Y-106680000D03*
X180340000Y-104140000D03*
X180340000Y-101600000D03*
X180340000Y-99060000D03*
X180340000Y-96520000D03*
X180340000Y-93980000D03*
X180340000Y-91440000D03*
X180340000Y-88900000D03*
X180340000Y-86360000D03*
X180340000Y-83820000D03*
X180340000Y-81280000D03*
X180340000Y-78740000D03*
X180340000Y-76200000D03*
X180340000Y-73660000D03*
X180340000Y-71120000D03*
X180340000Y-68580000D03*
X180340000Y-66040000D03*
X180340000Y-63500000D03*
X180340000Y-60960000D03*
X180340000Y-58420000D03*
X180340000Y-55880000D03*
X180340000Y-53340000D03*
D11*
X180340000Y-50800000D03*
%TD*%
D14*
%TO.C,C10*%
X161290000Y-62150000D03*
X161290000Y-57150000D03*
%TD*%
%TO.C,C9*%
X161290000Y-48180000D03*
X161290000Y-43180000D03*
%TD*%
D12*
%TO.C,R6*%
X172720000Y-63500000D03*
D14*
X172720000Y-53340000D03*
%TD*%
%TO.C,C7*%
X167640000Y-62150000D03*
X167640000Y-57150000D03*
%TD*%
%TO.C,C6*%
X163830000Y-76120000D03*
X163830000Y-71120000D03*
%TD*%
%TO.C,C5*%
X163830000Y-90090000D03*
X163830000Y-85090000D03*
%TD*%
%TO.C,C4*%
X162560000Y-118030000D03*
X162560000Y-113030000D03*
%TD*%
%TO.C,C3*%
X126920000Y-64770000D03*
X121920000Y-64770000D03*
%TD*%
%TO.C,C2*%
X163830000Y-104060000D03*
X163830000Y-99060000D03*
%TD*%
D12*
%TO.C,U3*%
X132080000Y-69850000D03*
X116840000Y-118110000D03*
X132080000Y-72390000D03*
X116840000Y-115570000D03*
X132080000Y-74930000D03*
X116840000Y-113030000D03*
X132080000Y-77470000D03*
X116840000Y-110490000D03*
X132080000Y-80010000D03*
X116840000Y-107950000D03*
X132080000Y-82550000D03*
X116840000Y-105410000D03*
X132080000Y-85090000D03*
X116840000Y-102870000D03*
X132080000Y-87630000D03*
X116840000Y-100330000D03*
X132080000Y-90170000D03*
X116840000Y-97790000D03*
X132080000Y-92710000D03*
X116840000Y-95250000D03*
X132080000Y-95250000D03*
X116840000Y-92710000D03*
X132080000Y-97790000D03*
X116840000Y-90170000D03*
X132080000Y-100330000D03*
X116840000Y-87630000D03*
X132080000Y-102870000D03*
X116840000Y-85090000D03*
X132080000Y-105410000D03*
X116840000Y-82550000D03*
X132080000Y-107950000D03*
X116840000Y-80010000D03*
X132080000Y-110490000D03*
X116840000Y-77470000D03*
X132080000Y-113030000D03*
X116840000Y-74930000D03*
X132080000Y-115570000D03*
X116840000Y-72390000D03*
X132080000Y-118110000D03*
D13*
X116840000Y-69850000D03*
%TD*%
D12*
%TO.C,R5*%
X111760000Y-80010000D03*
D14*
X111760000Y-69850000D03*
%TD*%
D12*
%TO.C,R4*%
X129540000Y-41910000D03*
D14*
X119380000Y-41910000D03*
%TD*%
D12*
%TO.C,R3*%
X129540000Y-46990000D03*
D14*
X119380000Y-46990000D03*
%TD*%
D12*
%TO.C,R2*%
X129540000Y-57150000D03*
D14*
X119380000Y-57150000D03*
%TD*%
D12*
%TO.C,R1*%
X129540000Y-52070000D03*
D14*
X119380000Y-52070000D03*
%TD*%
D10*
%TO.C,J1*%
X185420000Y-109220000D03*
X185420000Y-106680000D03*
X185420000Y-104140000D03*
X185420000Y-101600000D03*
X185420000Y-99060000D03*
X185420000Y-96520000D03*
X185420000Y-93980000D03*
X185420000Y-91440000D03*
X185420000Y-88900000D03*
X185420000Y-86360000D03*
X185420000Y-83820000D03*
X185420000Y-81280000D03*
X185420000Y-78740000D03*
X185420000Y-76200000D03*
X185420000Y-73660000D03*
X185420000Y-71120000D03*
X185420000Y-68580000D03*
X185420000Y-66040000D03*
X185420000Y-63500000D03*
X185420000Y-60960000D03*
X185420000Y-58420000D03*
X185420000Y-55880000D03*
X185420000Y-53340000D03*
D11*
X185420000Y-50800000D03*
%TD*%
D14*
%TO.C,C1*%
X112950000Y-57150000D03*
X107950000Y-57150000D03*
%TD*%
M02*
