%TF.GenerationSoftware,KiCad,Pcbnew,(5.1.6)-1*%
%TF.CreationDate,2020-08-06T22:00:50+02:00*%
%TF.ProjectId,Nes Sound Expansion,4e657320-536f-4756-9e64-20457870616e,rev?*%
%TF.SameCoordinates,Original*%
%TF.FileFunction,Copper,L2,Bot*%
%TF.FilePolarity,Positive*%
%FSLAX46Y46*%
G04 Gerber Fmt 4.6, Leading zero omitted, Abs format (unit mm)*
G04 Created by KiCad (PCBNEW (5.1.6)-1) date 2020-08-06 22:00:50*
%MOMM*%
%LPD*%
G01*
G04 APERTURE LIST*
%TA.AperFunction,ComponentPad*%
%ADD10O,1.700000X1.700000*%
%TD*%
%TA.AperFunction,ComponentPad*%
%ADD11R,1.700000X1.700000*%
%TD*%
%TA.AperFunction,ComponentPad*%
%ADD12O,1.600000X1.600000*%
%TD*%
%TA.AperFunction,ComponentPad*%
%ADD13R,1.600000X1.600000*%
%TD*%
%TA.AperFunction,ComponentPad*%
%ADD14C,1.600000*%
%TD*%
%TA.AperFunction,Conductor*%
%ADD15C,0.250000*%
%TD*%
G04 APERTURE END LIST*
D10*
%TO.P,J6,4*%
%TO.N,Net-(J6-Pad4)*%
X195580000Y-116840000D03*
%TO.P,J6,3*%
%TO.N,Net-(J6-Pad3)*%
X195580000Y-114300000D03*
%TO.P,J6,2*%
%TO.N,Net-(J6-Pad2)*%
X195580000Y-111760000D03*
D11*
%TO.P,J6,1*%
%TO.N,Net-(J6-Pad1)*%
X195580000Y-109220000D03*
%TD*%
D10*
%TO.P,J5,4*%
%TO.N,GND*%
X104140000Y-78740000D03*
%TO.P,J5,3*%
X104140000Y-76200000D03*
%TO.P,J5,2*%
%TO.N,Net-(C1-Pad1)*%
X104140000Y-73660000D03*
D11*
%TO.P,J5,1*%
X104140000Y-71120000D03*
%TD*%
D12*
%TO.P,U7,14*%
%TO.N,+5V*%
X157480000Y-49530000D03*
%TO.P,U7,7*%
%TO.N,GND*%
X142240000Y-41910000D03*
%TO.P,U7,13*%
%TO.N,N/C*%
X154940000Y-49530000D03*
%TO.P,U7,6*%
X144780000Y-41910000D03*
%TO.P,U7,12*%
X152400000Y-49530000D03*
%TO.P,U7,5*%
X147320000Y-41910000D03*
%TO.P,U7,11*%
X149860000Y-49530000D03*
%TO.P,U7,4*%
X149860000Y-41910000D03*
%TO.P,U7,10*%
X147320000Y-49530000D03*
%TO.P,U7,3*%
%TO.N,Net-(U1-Pad9)*%
X152400000Y-41910000D03*
%TO.P,U7,9*%
%TO.N,N/C*%
X144780000Y-49530000D03*
%TO.P,U7,2*%
%TO.N,Net-(U6-Pad4)*%
X154940000Y-41910000D03*
%TO.P,U7,8*%
%TO.N,N/C*%
X142240000Y-49530000D03*
D13*
%TO.P,U7,1*%
%TO.N,Net-(J1-Pad4)*%
X157480000Y-41910000D03*
%TD*%
D12*
%TO.P,U6,14*%
%TO.N,+5V*%
X157480000Y-63500000D03*
%TO.P,U6,7*%
%TO.N,GND*%
X142240000Y-55880000D03*
%TO.P,U6,13*%
%TO.N,N/C*%
X154940000Y-63500000D03*
%TO.P,U6,6*%
%TO.N,Net-(U6-Pad3)*%
X144780000Y-55880000D03*
%TO.P,U6,12*%
%TO.N,N/C*%
X152400000Y-63500000D03*
%TO.P,U6,5*%
%TO.N,Net-(U6-Pad3)*%
X147320000Y-55880000D03*
%TO.P,U6,11*%
%TO.N,N/C*%
X149860000Y-63500000D03*
%TO.P,U6,4*%
%TO.N,Net-(U6-Pad4)*%
X149860000Y-55880000D03*
%TO.P,U6,10*%
%TO.N,N/C*%
X147320000Y-63500000D03*
%TO.P,U6,3*%
%TO.N,Net-(U6-Pad3)*%
X152400000Y-55880000D03*
%TO.P,U6,9*%
%TO.N,N/C*%
X144780000Y-63500000D03*
%TO.P,U6,2*%
%TO.N,Net-(C7-Pad1)*%
X154940000Y-55880000D03*
%TO.P,U6,8*%
%TO.N,N/C*%
X142240000Y-63500000D03*
D13*
%TO.P,U6,1*%
%TO.N,Net-(C7-Pad1)*%
X157480000Y-55880000D03*
%TD*%
D12*
%TO.P,U5,16*%
%TO.N,+5V*%
X159000000Y-105590000D03*
%TO.P,U5,8*%
%TO.N,GND*%
X141220000Y-97970000D03*
%TO.P,U5,15*%
%TO.N,Net-(U1-Pad1)*%
X156460000Y-105590000D03*
%TO.P,U5,7*%
%TO.N,Net-(U5-Pad7)*%
X143760000Y-97970000D03*
%TO.P,U5,14*%
%TO.N,Net-(U5-Pad14)*%
X153920000Y-105590000D03*
%TO.P,U5,6*%
%TO.N,Net-(U5-Pad6)*%
X146300000Y-97970000D03*
%TO.P,U5,13*%
%TO.N,Net-(U5-Pad10)*%
X151380000Y-105590000D03*
%TO.P,U5,5*%
%TO.N,Net-(U4-Pad1)*%
X148840000Y-97970000D03*
%TO.P,U5,12*%
%TO.N,+5V*%
X148840000Y-105590000D03*
%TO.P,U5,4*%
%TO.N,Net-(J1-Pad5)*%
X151380000Y-97970000D03*
%TO.P,U5,11*%
%TO.N,Net-(U5-Pad11)*%
X146300000Y-105590000D03*
%TO.P,U5,3*%
%TO.N,Net-(U3-Pad27)*%
X153920000Y-97970000D03*
%TO.P,U5,10*%
%TO.N,Net-(U5-Pad10)*%
X143760000Y-105590000D03*
%TO.P,U5,2*%
%TO.N,Net-(U4-Pad1)*%
X156460000Y-97970000D03*
%TO.P,U5,9*%
%TO.N,Net-(U1-Pad9)*%
X141220000Y-105590000D03*
D13*
%TO.P,U5,1*%
%TO.N,Net-(U1-Pad1)*%
X159000000Y-97970000D03*
%TD*%
D12*
%TO.P,U4,14*%
%TO.N,+5V*%
X157480000Y-119380000D03*
%TO.P,U4,7*%
%TO.N,GND*%
X142240000Y-111760000D03*
%TO.P,U4,13*%
%TO.N,N/C*%
X154940000Y-119380000D03*
%TO.P,U4,6*%
X144780000Y-111760000D03*
%TO.P,U4,12*%
X152400000Y-119380000D03*
%TO.P,U4,5*%
X147320000Y-111760000D03*
%TO.P,U4,11*%
X149860000Y-119380000D03*
%TO.P,U4,4*%
X149860000Y-111760000D03*
%TO.P,U4,10*%
X147320000Y-119380000D03*
%TO.P,U4,3*%
%TO.N,Net-(U3-Pad29)*%
X152400000Y-111760000D03*
%TO.P,U4,9*%
%TO.N,N/C*%
X144780000Y-119380000D03*
%TO.P,U4,2*%
%TO.N,Net-(U3-Pad27)*%
X154940000Y-111760000D03*
%TO.P,U4,8*%
%TO.N,N/C*%
X142240000Y-119380000D03*
D13*
%TO.P,U4,1*%
%TO.N,Net-(U4-Pad1)*%
X157480000Y-111760000D03*
%TD*%
D12*
%TO.P,U2,16*%
%TO.N,+5V*%
X158750000Y-91440000D03*
%TO.P,U2,8*%
%TO.N,GND*%
X140970000Y-83820000D03*
%TO.P,U2,15*%
%TO.N,Net-(U2-Pad15)*%
X156210000Y-91440000D03*
%TO.P,U2,7*%
%TO.N,Net-(U2-Pad7)*%
X143510000Y-83820000D03*
%TO.P,U2,14*%
%TO.N,Net-(U2-Pad14)*%
X153670000Y-91440000D03*
%TO.P,U2,6*%
%TO.N,Net-(U2-Pad6)*%
X146050000Y-83820000D03*
%TO.P,U2,13*%
%TO.N,Net-(U1-Pad2)*%
X151130000Y-91440000D03*
%TO.P,U2,5*%
%TO.N,Net-(U1-Pad10)*%
X148590000Y-83820000D03*
%TO.P,U2,12*%
%TO.N,Net-(U1-Pad7)*%
X148590000Y-91440000D03*
%TO.P,U2,4*%
%TO.N,Net-(U1-Pad15)*%
X151130000Y-83820000D03*
%TO.P,U2,11*%
%TO.N,Net-(U2-Pad11)*%
X146050000Y-91440000D03*
%TO.P,U2,3*%
%TO.N,Net-(U2-Pad3)*%
X153670000Y-83820000D03*
%TO.P,U2,10*%
%TO.N,Net-(U2-Pad10)*%
X143510000Y-91440000D03*
%TO.P,U2,2*%
%TO.N,Net-(U2-Pad2)*%
X156210000Y-83820000D03*
%TO.P,U2,9*%
%TO.N,Net-(U1-Pad9)*%
X140970000Y-91440000D03*
D13*
%TO.P,U2,1*%
%TO.N,Net-(U1-Pad1)*%
X158750000Y-83820000D03*
%TD*%
D12*
%TO.P,U1,16*%
%TO.N,+5V*%
X158750000Y-77470000D03*
%TO.P,U1,8*%
%TO.N,GND*%
X140970000Y-69850000D03*
%TO.P,U1,15*%
%TO.N,Net-(U1-Pad15)*%
X156210000Y-77470000D03*
%TO.P,U1,7*%
%TO.N,Net-(U1-Pad7)*%
X143510000Y-69850000D03*
%TO.P,U1,14*%
%TO.N,Net-(U1-Pad14)*%
X153670000Y-77470000D03*
%TO.P,U1,6*%
%TO.N,Net-(U1-Pad6)*%
X146050000Y-69850000D03*
%TO.P,U1,13*%
%TO.N,Net-(J1-Pad24)*%
X151130000Y-77470000D03*
%TO.P,U1,5*%
%TO.N,Net-(J1-Pad22)*%
X148590000Y-69850000D03*
%TO.P,U1,12*%
%TO.N,Net-(J1-Pad23)*%
X148590000Y-77470000D03*
%TO.P,U1,4*%
%TO.N,Net-(J1-Pad21)*%
X151130000Y-69850000D03*
%TO.P,U1,11*%
%TO.N,Net-(U1-Pad11)*%
X146050000Y-77470000D03*
%TO.P,U1,3*%
%TO.N,Net-(U1-Pad3)*%
X153670000Y-69850000D03*
%TO.P,U1,10*%
%TO.N,Net-(U1-Pad10)*%
X143510000Y-77470000D03*
%TO.P,U1,2*%
%TO.N,Net-(U1-Pad2)*%
X156210000Y-69850000D03*
%TO.P,U1,9*%
%TO.N,Net-(U1-Pad9)*%
X140970000Y-77470000D03*
D13*
%TO.P,U1,1*%
%TO.N,Net-(U1-Pad1)*%
X158750000Y-69850000D03*
%TD*%
D10*
%TO.P,J4,7*%
%TO.N,Net-(J2-Pad2)*%
X195580000Y-99060000D03*
%TO.P,J4,6*%
%TO.N,Net-(J4-Pad6)*%
X195580000Y-96520000D03*
%TO.P,J4,5*%
%TO.N,Net-(J4-Pad5)*%
X195580000Y-93980000D03*
%TO.P,J4,4*%
%TO.N,Net-(J2-Pad19)*%
X195580000Y-91440000D03*
%TO.P,J4,3*%
%TO.N,Net-(J1-Pad6)*%
X195580000Y-88900000D03*
%TO.P,J4,2*%
%TO.N,Net-(J2-Pad11)*%
X195580000Y-86360000D03*
D11*
%TO.P,J4,1*%
%TO.N,Net-(J2-Pad1)*%
X195580000Y-83820000D03*
%TD*%
%TO.P,J3,1*%
%TO.N,Net-(J2-Pad1)*%
X195580000Y-60960000D03*
D10*
%TO.P,J3,2*%
%TO.N,Net-(J1-Pad12)*%
X195580000Y-63500000D03*
%TO.P,J3,3*%
%TO.N,Net-(J1-Pad6)*%
X195580000Y-66040000D03*
%TO.P,J3,4*%
%TO.N,Net-(J1-Pad14)*%
X195580000Y-68580000D03*
%TO.P,J3,5*%
%TO.N,Net-(J3-Pad5)*%
X195580000Y-71120000D03*
%TO.P,J3,6*%
%TO.N,Net-(J3-Pad6)*%
X195580000Y-73660000D03*
%TO.P,J3,7*%
%TO.N,Net-(J2-Pad2)*%
X195580000Y-76200000D03*
%TD*%
%TO.P,J2,24*%
%TO.N,Net-(J2-Pad24)*%
X180340000Y-109220000D03*
%TO.P,J2,23*%
%TO.N,Net-(J2-Pad23)*%
X180340000Y-106680000D03*
%TO.P,J2,22*%
%TO.N,Net-(J2-Pad22)*%
X180340000Y-104140000D03*
%TO.P,J2,21*%
%TO.N,Net-(J2-Pad21)*%
X180340000Y-101600000D03*
%TO.P,J2,20*%
%TO.N,Net-(J2-Pad20)*%
X180340000Y-99060000D03*
%TO.P,J2,19*%
%TO.N,Net-(J2-Pad19)*%
X180340000Y-96520000D03*
%TO.P,J2,18*%
%TO.N,Net-(J2-Pad18)*%
X180340000Y-93980000D03*
%TO.P,J2,17*%
%TO.N,Net-(J2-Pad17)*%
X180340000Y-91440000D03*
%TO.P,J2,16*%
%TO.N,Net-(J2-Pad16)*%
X180340000Y-88900000D03*
%TO.P,J2,15*%
%TO.N,Net-(J2-Pad15)*%
X180340000Y-86360000D03*
%TO.P,J2,14*%
%TO.N,Net-(J2-Pad14)*%
X180340000Y-83820000D03*
%TO.P,J2,13*%
%TO.N,Net-(J2-Pad13)*%
X180340000Y-81280000D03*
%TO.P,J2,12*%
%TO.N,Net-(J2-Pad12)*%
X180340000Y-78740000D03*
%TO.P,J2,11*%
%TO.N,Net-(J2-Pad11)*%
X180340000Y-76200000D03*
%TO.P,J2,10*%
%TO.N,Net-(J2-Pad10)*%
X180340000Y-73660000D03*
%TO.P,J2,9*%
%TO.N,Net-(J2-Pad9)*%
X180340000Y-71120000D03*
%TO.P,J2,8*%
%TO.N,Net-(J2-Pad8)*%
X180340000Y-68580000D03*
%TO.P,J2,7*%
%TO.N,Net-(J2-Pad7)*%
X180340000Y-66040000D03*
%TO.P,J2,6*%
%TO.N,Net-(J2-Pad6)*%
X180340000Y-63500000D03*
%TO.P,J2,5*%
%TO.N,Net-(J2-Pad5)*%
X180340000Y-60960000D03*
%TO.P,J2,4*%
%TO.N,Net-(J2-Pad4)*%
X180340000Y-58420000D03*
%TO.P,J2,3*%
%TO.N,Net-(J2-Pad3)*%
X180340000Y-55880000D03*
%TO.P,J2,2*%
%TO.N,Net-(J2-Pad2)*%
X180340000Y-53340000D03*
D11*
%TO.P,J2,1*%
%TO.N,Net-(J2-Pad1)*%
X180340000Y-50800000D03*
%TD*%
D14*
%TO.P,C10,2*%
%TO.N,+5V*%
X161290000Y-62150000D03*
%TO.P,C10,1*%
%TO.N,GND*%
X161290000Y-57150000D03*
%TD*%
%TO.P,C9,2*%
%TO.N,+5V*%
X161290000Y-48180000D03*
%TO.P,C9,1*%
%TO.N,GND*%
X161290000Y-43180000D03*
%TD*%
D12*
%TO.P,R6,2*%
%TO.N,Net-(C7-Pad1)*%
X172720000Y-63500000D03*
D14*
%TO.P,R6,1*%
%TO.N,Net-(J1-Pad4)*%
X172720000Y-53340000D03*
%TD*%
%TO.P,C7,2*%
%TO.N,GND*%
X167640000Y-62150000D03*
%TO.P,C7,1*%
%TO.N,Net-(C7-Pad1)*%
X167640000Y-57150000D03*
%TD*%
%TO.P,C6,2*%
%TO.N,+5V*%
X163830000Y-76120000D03*
%TO.P,C6,1*%
%TO.N,GND*%
X163830000Y-71120000D03*
%TD*%
%TO.P,C5,2*%
%TO.N,+5V*%
X163830000Y-90090000D03*
%TO.P,C5,1*%
%TO.N,GND*%
X163830000Y-85090000D03*
%TD*%
%TO.P,C4,2*%
%TO.N,+5V*%
X162560000Y-118030000D03*
%TO.P,C4,1*%
%TO.N,GND*%
X162560000Y-113030000D03*
%TD*%
%TO.P,C3,2*%
%TO.N,+5V*%
X126920000Y-64770000D03*
%TO.P,C3,1*%
%TO.N,GND*%
X121920000Y-64770000D03*
%TD*%
%TO.P,C2,2*%
%TO.N,+5V*%
X163830000Y-104060000D03*
%TO.P,C2,1*%
%TO.N,GND*%
X163830000Y-99060000D03*
%TD*%
D12*
%TO.P,U3,40*%
%TO.N,+5V*%
X132080000Y-69850000D03*
%TO.P,U3,20*%
%TO.N,Net-(U3-Pad20)*%
X116840000Y-118110000D03*
%TO.P,U3,39*%
%TO.N,Net-(U3-Pad39)*%
X132080000Y-72390000D03*
%TO.P,U3,19*%
%TO.N,Net-(U3-Pad19)*%
X116840000Y-115570000D03*
%TO.P,U3,38*%
%TO.N,Net-(R3-Pad2)*%
X132080000Y-74930000D03*
%TO.P,U3,18*%
%TO.N,Net-(U3-Pad18)*%
X116840000Y-113030000D03*
%TO.P,U3,37*%
%TO.N,Net-(U1-Pad2)*%
X132080000Y-77470000D03*
%TO.P,U3,17*%
%TO.N,Net-(U3-Pad17)*%
X116840000Y-110490000D03*
%TO.P,U3,36*%
%TO.N,Net-(U1-Pad7)*%
X132080000Y-80010000D03*
%TO.P,U3,16*%
%TO.N,Net-(U3-Pad16)*%
X116840000Y-107950000D03*
%TO.P,U3,35*%
%TO.N,Net-(U1-Pad10)*%
X132080000Y-82550000D03*
%TO.P,U3,15*%
%TO.N,Net-(U3-Pad15)*%
X116840000Y-105410000D03*
%TO.P,U3,34*%
%TO.N,Net-(U1-Pad15)*%
X132080000Y-85090000D03*
%TO.P,U3,14*%
%TO.N,Net-(U3-Pad14)*%
X116840000Y-102870000D03*
%TO.P,U3,33*%
%TO.N,Net-(U2-Pad2)*%
X132080000Y-87630000D03*
%TO.P,U3,13*%
%TO.N,Net-(U3-Pad13)*%
X116840000Y-100330000D03*
%TO.P,U3,32*%
%TO.N,Net-(U2-Pad7)*%
X132080000Y-90170000D03*
%TO.P,U3,12*%
%TO.N,Net-(U3-Pad12)*%
X116840000Y-97790000D03*
%TO.P,U3,31*%
%TO.N,Net-(U2-Pad10)*%
X132080000Y-92710000D03*
%TO.P,U3,11*%
%TO.N,Net-(U3-Pad11)*%
X116840000Y-95250000D03*
%TO.P,U3,30*%
%TO.N,Net-(U2-Pad15)*%
X132080000Y-95250000D03*
%TO.P,U3,10*%
%TO.N,Net-(U3-Pad10)*%
X116840000Y-92710000D03*
%TO.P,U3,29*%
%TO.N,Net-(U3-Pad29)*%
X132080000Y-97790000D03*
%TO.P,U3,9*%
%TO.N,Net-(U3-Pad9)*%
X116840000Y-90170000D03*
%TO.P,U3,28*%
%TO.N,+5V*%
X132080000Y-100330000D03*
%TO.P,U3,8*%
%TO.N,Net-(U3-Pad8)*%
X116840000Y-87630000D03*
%TO.P,U3,27*%
%TO.N,Net-(U3-Pad27)*%
X132080000Y-102870000D03*
%TO.P,U3,7*%
%TO.N,Net-(U3-Pad7)*%
X116840000Y-85090000D03*
%TO.P,U3,26*%
%TO.N,Net-(U3-Pad26)*%
X132080000Y-105410000D03*
%TO.P,U3,6*%
%TO.N,Net-(U3-Pad6)*%
X116840000Y-82550000D03*
%TO.P,U3,25*%
%TO.N,Net-(U3-Pad25)*%
X132080000Y-107950000D03*
%TO.P,U3,5*%
%TO.N,Net-(U3-Pad5)*%
X116840000Y-80010000D03*
%TO.P,U3,24*%
%TO.N,Net-(U3-Pad24)*%
X132080000Y-110490000D03*
%TO.P,U3,4*%
%TO.N,Net-(R2-Pad2)*%
X116840000Y-77470000D03*
%TO.P,U3,23*%
%TO.N,Net-(U3-Pad23)*%
X132080000Y-113030000D03*
%TO.P,U3,3*%
%TO.N,Net-(R1-Pad2)*%
X116840000Y-74930000D03*
%TO.P,U3,22*%
%TO.N,Net-(J2-Pad24)*%
X132080000Y-115570000D03*
%TO.P,U3,2*%
%TO.N,Net-(U3-Pad2)*%
X116840000Y-72390000D03*
%TO.P,U3,21*%
%TO.N,Net-(U3-Pad21)*%
X132080000Y-118110000D03*
D13*
%TO.P,U3,1*%
%TO.N,GND*%
X116840000Y-69850000D03*
%TD*%
D12*
%TO.P,R5,2*%
%TO.N,Net-(J2-Pad21)*%
X111760000Y-80010000D03*
D14*
%TO.P,R5,1*%
%TO.N,Net-(C1-Pad1)*%
X111760000Y-69850000D03*
%TD*%
D12*
%TO.P,R4,2*%
%TO.N,GND*%
X129540000Y-41910000D03*
D14*
%TO.P,R4,1*%
%TO.N,Net-(C1-Pad2)*%
X119380000Y-41910000D03*
%TD*%
D12*
%TO.P,R3,2*%
%TO.N,Net-(R3-Pad2)*%
X129540000Y-46990000D03*
D14*
%TO.P,R3,1*%
%TO.N,Net-(C1-Pad2)*%
X119380000Y-46990000D03*
%TD*%
D12*
%TO.P,R2,2*%
%TO.N,Net-(R2-Pad2)*%
X129540000Y-57150000D03*
D14*
%TO.P,R2,1*%
%TO.N,Net-(C1-Pad2)*%
X119380000Y-57150000D03*
%TD*%
D12*
%TO.P,R1,2*%
%TO.N,Net-(R1-Pad2)*%
X129540000Y-52070000D03*
D14*
%TO.P,R1,1*%
%TO.N,Net-(C1-Pad2)*%
X119380000Y-52070000D03*
%TD*%
D10*
%TO.P,J1,24*%
%TO.N,Net-(J1-Pad24)*%
X185420000Y-109220000D03*
%TO.P,J1,23*%
%TO.N,Net-(J1-Pad23)*%
X185420000Y-106680000D03*
%TO.P,J1,22*%
%TO.N,Net-(J1-Pad22)*%
X185420000Y-104140000D03*
%TO.P,J1,21*%
%TO.N,Net-(J1-Pad21)*%
X185420000Y-101600000D03*
%TO.P,J1,20*%
%TO.N,Net-(J1-Pad20)*%
X185420000Y-99060000D03*
%TO.P,J1,19*%
%TO.N,Net-(J1-Pad19)*%
X185420000Y-96520000D03*
%TO.P,J1,18*%
%TO.N,Net-(J1-Pad18)*%
X185420000Y-93980000D03*
%TO.P,J1,17*%
%TO.N,Net-(J1-Pad17)*%
X185420000Y-91440000D03*
%TO.P,J1,16*%
%TO.N,Net-(J1-Pad16)*%
X185420000Y-88900000D03*
%TO.P,J1,15*%
%TO.N,Net-(J1-Pad15)*%
X185420000Y-86360000D03*
%TO.P,J1,14*%
%TO.N,Net-(J1-Pad14)*%
X185420000Y-83820000D03*
%TO.P,J1,13*%
%TO.N,Net-(J1-Pad13)*%
X185420000Y-81280000D03*
%TO.P,J1,12*%
%TO.N,Net-(J1-Pad12)*%
X185420000Y-78740000D03*
%TO.P,J1,11*%
%TO.N,Net-(J1-Pad11)*%
X185420000Y-76200000D03*
%TO.P,J1,10*%
%TO.N,Net-(J1-Pad10)*%
X185420000Y-73660000D03*
%TO.P,J1,9*%
%TO.N,Net-(J1-Pad9)*%
X185420000Y-71120000D03*
%TO.P,J1,8*%
%TO.N,Net-(J1-Pad8)*%
X185420000Y-68580000D03*
%TO.P,J1,7*%
%TO.N,Net-(J1-Pad7)*%
X185420000Y-66040000D03*
%TO.P,J1,6*%
%TO.N,Net-(J1-Pad6)*%
X185420000Y-63500000D03*
%TO.P,J1,5*%
%TO.N,Net-(J1-Pad5)*%
X185420000Y-60960000D03*
%TO.P,J1,4*%
%TO.N,Net-(J1-Pad4)*%
X185420000Y-58420000D03*
%TO.P,J1,3*%
%TO.N,Net-(J1-Pad3)*%
X185420000Y-55880000D03*
%TO.P,J1,2*%
%TO.N,GND*%
X185420000Y-53340000D03*
D11*
%TO.P,J1,1*%
%TO.N,+5V*%
X185420000Y-50800000D03*
%TD*%
D14*
%TO.P,C1,2*%
%TO.N,Net-(C1-Pad2)*%
X112950000Y-57150000D03*
%TO.P,C1,1*%
%TO.N,Net-(C1-Pad1)*%
X107950000Y-57150000D03*
%TD*%
D15*
%TO.N,Net-(R1-Pad2)*%
X129540000Y-52070000D02*
X129540000Y-53195300D01*
X116840000Y-74930000D02*
X116840000Y-73804700D01*
X116840000Y-73804700D02*
X117121400Y-73804700D01*
X117121400Y-73804700D02*
X117965300Y-72960800D01*
X117965300Y-72960800D02*
X117965300Y-64770000D01*
X117965300Y-64770000D02*
X129540000Y-53195300D01*
%TO.N,Net-(C1-Pad2)*%
X119380000Y-46990000D02*
X119380000Y-41910000D01*
X119380000Y-52070000D02*
X119380000Y-46990000D01*
X119380000Y-57150000D02*
X119380000Y-52070000D01*
%TO.N,Net-(R3-Pad2)*%
X129540000Y-46990000D02*
X129540000Y-48115300D01*
X132080000Y-74930000D02*
X132080000Y-73804700D01*
X132080000Y-73804700D02*
X131798600Y-73804700D01*
X131798600Y-73804700D02*
X130665300Y-72671400D01*
X130665300Y-72671400D02*
X130665300Y-49240600D01*
X130665300Y-49240600D02*
X129540000Y-48115300D01*
%TO.N,Net-(C1-Pad1)*%
X108490300Y-67945000D02*
X105315300Y-71120000D01*
X111760000Y-69850000D02*
X109855000Y-67945000D01*
X109855000Y-67945000D02*
X108490300Y-67945000D01*
X108490300Y-67945000D02*
X108490300Y-57690300D01*
X108490300Y-57690300D02*
X107950000Y-57150000D01*
X104140000Y-71120000D02*
X105315300Y-71120000D01*
X104140000Y-71120000D02*
X104140000Y-73660000D01*
%TO.N,Net-(U1-Pad7)*%
X142384700Y-69850000D02*
X142384700Y-70830600D01*
X142384700Y-70830600D02*
X133205300Y-80010000D01*
X132080000Y-80010000D02*
X133205300Y-80010000D01*
X143510000Y-69850000D02*
X142384700Y-69850000D01*
%TO.N,Net-(U1-Pad10)*%
X143510000Y-77470000D02*
X143510000Y-78595300D01*
X148590000Y-83820000D02*
X148590000Y-82694700D01*
X143510000Y-78595300D02*
X144490600Y-78595300D01*
X144490600Y-78595300D02*
X148590000Y-82694700D01*
%TO.N,Net-(U1-Pad2)*%
X151130000Y-91440000D02*
X151130000Y-90314700D01*
X156210000Y-69850000D02*
X155084700Y-69850000D01*
X155084700Y-69850000D02*
X155084700Y-69568700D01*
X155084700Y-69568700D02*
X154228700Y-68712700D01*
X154228700Y-68712700D02*
X148077400Y-68712700D01*
X148077400Y-68712700D02*
X147414700Y-69375400D01*
X147414700Y-69375400D02*
X147414700Y-79203200D01*
X147414700Y-79203200D02*
X150004700Y-81793200D01*
X150004700Y-81793200D02*
X150004700Y-89189400D01*
X150004700Y-89189400D02*
X151130000Y-90314700D01*
%TO.N,Net-(U1-Pad1)*%
X159000000Y-97970000D02*
X159000000Y-96844700D01*
X158750000Y-83820000D02*
X158750000Y-84945300D01*
X158750000Y-84945300D02*
X157585400Y-86109900D01*
X157585400Y-86109900D02*
X157585400Y-95430100D01*
X157585400Y-95430100D02*
X159000000Y-96844700D01*
X159000000Y-97970000D02*
X159000000Y-99095300D01*
X159000000Y-99095300D02*
X156460000Y-101635300D01*
X156460000Y-101635300D02*
X156460000Y-105590000D01*
%TO.N,Net-(U3-Pad29)*%
X152400000Y-111760000D02*
X151274700Y-111760000D01*
X132080000Y-97790000D02*
X132080000Y-98915300D01*
X132080000Y-98915300D02*
X132927300Y-98915300D01*
X132927300Y-98915300D02*
X144646700Y-110634700D01*
X144646700Y-110634700D02*
X150430800Y-110634700D01*
X150430800Y-110634700D02*
X151274700Y-111478600D01*
X151274700Y-111478600D02*
X151274700Y-111760000D01*
%TO.N,Net-(J1-Pad24)*%
X151130000Y-77470000D02*
X152255300Y-77470000D01*
X185420000Y-109220000D02*
X185420000Y-108044700D01*
X185420000Y-108044700D02*
X185052600Y-108044700D01*
X185052600Y-108044700D02*
X184244700Y-107236800D01*
X184244700Y-107236800D02*
X184244700Y-106312600D01*
X184244700Y-106312600D02*
X180802100Y-102870000D01*
X180802100Y-102870000D02*
X179929000Y-102870000D01*
X179929000Y-102870000D02*
X155654300Y-78595300D01*
X155654300Y-78595300D02*
X153099200Y-78595300D01*
X153099200Y-78595300D02*
X152255300Y-77751400D01*
X152255300Y-77751400D02*
X152255300Y-77470000D01*
%TO.N,Net-(J1-Pad23)*%
X148590000Y-77470000D02*
X149715300Y-77470000D01*
X185420000Y-106680000D02*
X185420000Y-105504700D01*
X185420000Y-105504700D02*
X185052600Y-105504700D01*
X185052600Y-105504700D02*
X184244700Y-104696800D01*
X184244700Y-104696800D02*
X184244700Y-103839600D01*
X184244700Y-103839600D02*
X180735100Y-100330000D01*
X180735100Y-100330000D02*
X179913100Y-100330000D01*
X179913100Y-100330000D02*
X165092800Y-85509700D01*
X165092800Y-85509700D02*
X165092800Y-84757800D01*
X165092800Y-84757800D02*
X159348100Y-79013100D01*
X159348100Y-79013100D02*
X158619600Y-79013100D01*
X158619600Y-79013100D02*
X157480000Y-77873500D01*
X157480000Y-77873500D02*
X157480000Y-77140900D01*
X157480000Y-77140900D02*
X156683800Y-76344700D01*
X156683800Y-76344700D02*
X150559200Y-76344700D01*
X150559200Y-76344700D02*
X149715300Y-77188600D01*
X149715300Y-77188600D02*
X149715300Y-77470000D01*
%TO.N,Net-(J1-Pad22)*%
X148590000Y-69850000D02*
X149715300Y-69850000D01*
X185420000Y-104140000D02*
X185420000Y-102964700D01*
X185420000Y-102964700D02*
X185052600Y-102964700D01*
X185052600Y-102964700D02*
X184244700Y-102156800D01*
X184244700Y-102156800D02*
X184244700Y-101289000D01*
X184244700Y-101289000D02*
X180745700Y-97790000D01*
X180745700Y-97790000D02*
X179901100Y-97790000D01*
X179901100Y-97790000D02*
X160581400Y-78470300D01*
X160581400Y-78470300D02*
X160581400Y-77660200D01*
X160581400Y-77660200D02*
X155026500Y-72105300D01*
X155026500Y-72105300D02*
X151689300Y-72105300D01*
X151689300Y-72105300D02*
X149715300Y-70131300D01*
X149715300Y-70131300D02*
X149715300Y-69850000D01*
%TO.N,Net-(J1-Pad21)*%
X185420000Y-100424700D02*
X185052600Y-100424700D01*
X185052600Y-100424700D02*
X184244700Y-99616800D01*
X184244700Y-99616800D02*
X184244700Y-98692200D01*
X184244700Y-98692200D02*
X180802500Y-95250000D01*
X180802500Y-95250000D02*
X178808100Y-95250000D01*
X178808100Y-95250000D02*
X154533400Y-70975300D01*
X154533400Y-70975300D02*
X153099200Y-70975300D01*
X153099200Y-70975300D02*
X152255300Y-70131400D01*
X152255300Y-70131400D02*
X152255300Y-69850000D01*
X151130000Y-69850000D02*
X152255300Y-69850000D01*
X185420000Y-101600000D02*
X185420000Y-100424700D01*
%TO.N,Net-(J1-Pad14)*%
X185420000Y-82644700D02*
X185787400Y-82644700D01*
X185787400Y-82644700D02*
X186781900Y-81650200D01*
X186781900Y-81650200D02*
X186781900Y-78186100D01*
X186781900Y-78186100D02*
X195212700Y-69755300D01*
X195212700Y-69755300D02*
X195580000Y-69755300D01*
X195580000Y-68580000D02*
X195580000Y-69755300D01*
X185420000Y-83820000D02*
X185420000Y-82644700D01*
%TO.N,Net-(J1-Pad12)*%
X195580000Y-63500000D02*
X195580000Y-64675300D01*
X185420000Y-78740000D02*
X185420000Y-77564700D01*
X185420000Y-77564700D02*
X185787400Y-77564700D01*
X185787400Y-77564700D02*
X194404700Y-68947400D01*
X194404700Y-68947400D02*
X194404700Y-65483200D01*
X194404700Y-65483200D02*
X195212600Y-64675300D01*
X195212600Y-64675300D02*
X195580000Y-64675300D01*
%TO.N,Net-(J1-Pad6)*%
X195580000Y-88900000D02*
X195580000Y-87724700D01*
X195580000Y-66040000D02*
X195580000Y-67215300D01*
X195580000Y-67215300D02*
X195947300Y-67215300D01*
X195947300Y-67215300D02*
X196786100Y-68054100D01*
X196786100Y-68054100D02*
X196786100Y-71582800D01*
X196786100Y-71582800D02*
X195978900Y-72390000D01*
X195978900Y-72390000D02*
X195134700Y-72390000D01*
X195134700Y-72390000D02*
X194404700Y-73120000D01*
X194404700Y-73120000D02*
X194404700Y-86916800D01*
X194404700Y-86916800D02*
X195212600Y-87724700D01*
X195212600Y-87724700D02*
X195580000Y-87724700D01*
%TO.N,Net-(J1-Pad4)*%
X157480000Y-41910000D02*
X158605300Y-41910000D01*
X172720000Y-53340000D02*
X169754000Y-53340000D01*
X169754000Y-53340000D02*
X158605300Y-42191300D01*
X158605300Y-42191300D02*
X158605300Y-41910000D01*
%TO.N,Net-(U3-Pad27)*%
X153920000Y-97970000D02*
X153920000Y-99095300D01*
X154940000Y-111760000D02*
X154940000Y-110634700D01*
X154940000Y-110634700D02*
X152794700Y-108489400D01*
X152794700Y-108489400D02*
X152794700Y-100220600D01*
X152794700Y-100220600D02*
X153920000Y-99095300D01*
%TO.N,Net-(U4-Pad1)*%
X157480000Y-111760000D02*
X157480000Y-110634700D01*
X156460000Y-97970000D02*
X156460000Y-99095300D01*
X156460000Y-99095300D02*
X155327000Y-100228300D01*
X155327000Y-100228300D02*
X155327000Y-108481700D01*
X155327000Y-108481700D02*
X157480000Y-110634700D01*
%TO.N,Net-(C7-Pad1)*%
X172720000Y-63500000D02*
X172720000Y-62230000D01*
X172720000Y-62230000D02*
X167640000Y-57150000D01*
%TO.N,Net-(U1-Pad9)*%
X141220000Y-105590000D02*
X141220000Y-104464700D01*
X140970000Y-90877300D02*
X142345300Y-92252600D01*
X142345300Y-92252600D02*
X142345300Y-103339400D01*
X142345300Y-103339400D02*
X141220000Y-104464700D01*
X140970000Y-90877300D02*
X140970000Y-90314700D01*
X140970000Y-91440000D02*
X140970000Y-90877300D01*
X140970000Y-77470000D02*
X140970000Y-78595300D01*
X140970000Y-78595300D02*
X142095300Y-79720600D01*
X142095300Y-79720600D02*
X142095300Y-89189400D01*
X142095300Y-89189400D02*
X140970000Y-90314700D01*
X140970000Y-76921800D02*
X140970000Y-77470000D01*
X140970000Y-76921800D02*
X140970000Y-76344700D01*
X152400000Y-41910000D02*
X152400000Y-43035300D01*
X140970000Y-76344700D02*
X144637800Y-72676900D01*
X144637800Y-72676900D02*
X144637800Y-66410500D01*
X144637800Y-66410500D02*
X146050000Y-64998300D01*
X146050000Y-64998300D02*
X146050000Y-49104000D01*
X146050000Y-49104000D02*
X152118700Y-43035300D01*
X152118700Y-43035300D02*
X152400000Y-43035300D01*
%TO.N,Net-(U6-Pad4)*%
X154940000Y-41910000D02*
X154940000Y-43035300D01*
X149860000Y-55880000D02*
X149860000Y-54754700D01*
X149860000Y-54754700D02*
X153814700Y-50800000D01*
X153814700Y-50800000D02*
X153814700Y-44160600D01*
X153814700Y-44160600D02*
X154940000Y-43035300D01*
%TO.N,+5V*%
X158235700Y-62181600D02*
X156354700Y-60300600D01*
X156354700Y-60300600D02*
X156354700Y-51780600D01*
X156354700Y-51780600D02*
X157480000Y-50655300D01*
X161290000Y-62150000D02*
X161258400Y-62181600D01*
X161258400Y-62181600D02*
X158235700Y-62181600D01*
X157480000Y-62937300D02*
X158235700Y-62181600D01*
X157480000Y-49530000D02*
X157480000Y-50655300D01*
X157480000Y-63500000D02*
X157480000Y-62937300D01*
X162662900Y-91440000D02*
X162662900Y-102892900D01*
X162662900Y-102892900D02*
X163830000Y-104060000D01*
X163830000Y-90090000D02*
X162662900Y-91257100D01*
X162662900Y-91257100D02*
X162662900Y-91440000D01*
X162662900Y-91440000D02*
X159875300Y-91440000D01*
X158750000Y-91440000D02*
X159875300Y-91440000D01*
X160132400Y-115602300D02*
X162560000Y-118030000D01*
X159000000Y-105590000D02*
X159000000Y-114470000D01*
X159000000Y-114470000D02*
X160132400Y-115602300D01*
X160132400Y-115602300D02*
X157480000Y-118254700D01*
X157480000Y-119380000D02*
X157480000Y-118254700D01*
%TO.N,Net-(J2-Pad2)*%
X195580000Y-76200000D02*
X195580000Y-75024700D01*
X180340000Y-53340000D02*
X181515300Y-53340000D01*
X181515300Y-53340000D02*
X181515300Y-53707300D01*
X181515300Y-53707300D02*
X184958000Y-57150000D01*
X184958000Y-57150000D02*
X187327800Y-57150000D01*
X187327800Y-57150000D02*
X192313200Y-62135400D01*
X192313200Y-62135400D02*
X195904100Y-62135400D01*
X195904100Y-62135400D02*
X197236500Y-63467800D01*
X197236500Y-63467800D02*
X197236500Y-73735500D01*
X197236500Y-73735500D02*
X195947300Y-75024700D01*
X195947300Y-75024700D02*
X195580000Y-75024700D01*
%TO.N,Net-(J2-Pad1)*%
X195580000Y-83820000D02*
X195580000Y-82644700D01*
X195580000Y-60960000D02*
X197686900Y-63066900D01*
X197686900Y-63066900D02*
X197686900Y-80537800D01*
X197686900Y-80537800D02*
X195580000Y-82644700D01*
%TD*%
M02*
