%TF.GenerationSoftware,KiCad,Pcbnew,(5.1.6)-1*%
%TF.CreationDate,2020-08-06T22:00:50+02:00*%
%TF.ProjectId,Nes Sound Expansion,4e657320-536f-4756-9e64-20457870616e,rev?*%
%TF.SameCoordinates,Original*%
%TF.FileFunction,Legend,Top*%
%TF.FilePolarity,Positive*%
%FSLAX46Y46*%
G04 Gerber Fmt 4.6, Leading zero omitted, Abs format (unit mm)*
G04 Created by KiCad (PCBNEW (5.1.6)-1) date 2020-08-06 22:00:50*
%MOMM*%
%LPD*%
G01*
G04 APERTURE LIST*
%ADD10C,0.120000*%
%ADD11C,0.150000*%
G04 APERTURE END LIST*
D10*
%TO.C,J6*%
X194250000Y-118170000D02*
X196910000Y-118170000D01*
X194250000Y-110490000D02*
X194250000Y-118170000D01*
X196910000Y-110490000D02*
X196910000Y-118170000D01*
X194250000Y-110490000D02*
X196910000Y-110490000D01*
X194250000Y-109220000D02*
X194250000Y-107890000D01*
X194250000Y-107890000D02*
X195580000Y-107890000D01*
%TO.C,J5*%
X102810000Y-80070000D02*
X105470000Y-80070000D01*
X102810000Y-72390000D02*
X102810000Y-80070000D01*
X105470000Y-72390000D02*
X105470000Y-80070000D01*
X102810000Y-72390000D02*
X105470000Y-72390000D01*
X102810000Y-71120000D02*
X102810000Y-69790000D01*
X102810000Y-69790000D02*
X104140000Y-69790000D01*
%TO.C,U7*%
X158810000Y-46720000D02*
G75*
G02*
X158810000Y-44720000I0J1000000D01*
G01*
X158810000Y-44720000D02*
X158810000Y-43070000D01*
X158810000Y-43070000D02*
X140910000Y-43070000D01*
X140910000Y-43070000D02*
X140910000Y-48370000D01*
X140910000Y-48370000D02*
X158810000Y-48370000D01*
X158810000Y-48370000D02*
X158810000Y-46720000D01*
%TO.C,U6*%
X158810000Y-60690000D02*
G75*
G02*
X158810000Y-58690000I0J1000000D01*
G01*
X158810000Y-58690000D02*
X158810000Y-57040000D01*
X158810000Y-57040000D02*
X140910000Y-57040000D01*
X140910000Y-57040000D02*
X140910000Y-62340000D01*
X140910000Y-62340000D02*
X158810000Y-62340000D01*
X158810000Y-62340000D02*
X158810000Y-60690000D01*
%TO.C,U5*%
X160330000Y-102780000D02*
G75*
G02*
X160330000Y-100780000I0J1000000D01*
G01*
X160330000Y-100780000D02*
X160330000Y-99130000D01*
X160330000Y-99130000D02*
X139890000Y-99130000D01*
X139890000Y-99130000D02*
X139890000Y-104430000D01*
X139890000Y-104430000D02*
X160330000Y-104430000D01*
X160330000Y-104430000D02*
X160330000Y-102780000D01*
%TO.C,U4*%
X158810000Y-116570000D02*
G75*
G02*
X158810000Y-114570000I0J1000000D01*
G01*
X158810000Y-114570000D02*
X158810000Y-112920000D01*
X158810000Y-112920000D02*
X140910000Y-112920000D01*
X140910000Y-112920000D02*
X140910000Y-118220000D01*
X140910000Y-118220000D02*
X158810000Y-118220000D01*
X158810000Y-118220000D02*
X158810000Y-116570000D01*
%TO.C,U2*%
X160080000Y-88630000D02*
G75*
G02*
X160080000Y-86630000I0J1000000D01*
G01*
X160080000Y-86630000D02*
X160080000Y-84980000D01*
X160080000Y-84980000D02*
X139640000Y-84980000D01*
X139640000Y-84980000D02*
X139640000Y-90280000D01*
X139640000Y-90280000D02*
X160080000Y-90280000D01*
X160080000Y-90280000D02*
X160080000Y-88630000D01*
%TO.C,U1*%
X160080000Y-74660000D02*
G75*
G02*
X160080000Y-72660000I0J1000000D01*
G01*
X160080000Y-72660000D02*
X160080000Y-71010000D01*
X160080000Y-71010000D02*
X139640000Y-71010000D01*
X139640000Y-71010000D02*
X139640000Y-76310000D01*
X139640000Y-76310000D02*
X160080000Y-76310000D01*
X160080000Y-76310000D02*
X160080000Y-74660000D01*
%TO.C,J4*%
X194250000Y-82490000D02*
X195580000Y-82490000D01*
X194250000Y-83820000D02*
X194250000Y-82490000D01*
X194250000Y-85090000D02*
X196910000Y-85090000D01*
X196910000Y-85090000D02*
X196910000Y-100390000D01*
X194250000Y-85090000D02*
X194250000Y-100390000D01*
X194250000Y-100390000D02*
X196910000Y-100390000D01*
%TO.C,J3*%
X194250000Y-77530000D02*
X196910000Y-77530000D01*
X194250000Y-62230000D02*
X194250000Y-77530000D01*
X196910000Y-62230000D02*
X196910000Y-77530000D01*
X194250000Y-62230000D02*
X196910000Y-62230000D01*
X194250000Y-60960000D02*
X194250000Y-59630000D01*
X194250000Y-59630000D02*
X195580000Y-59630000D01*
%TO.C,C10*%
X160235000Y-62320000D02*
X159569000Y-62320000D01*
X163011000Y-62320000D02*
X162345000Y-62320000D01*
X160235000Y-56980000D02*
X159569000Y-56980000D01*
X163011000Y-56980000D02*
X162345000Y-56980000D01*
X159569000Y-56980000D02*
X159569000Y-62320000D01*
X163011000Y-56980000D02*
X163011000Y-62320000D01*
%TO.C,C9*%
X160235000Y-48350000D02*
X159569000Y-48350000D01*
X163011000Y-48350000D02*
X162345000Y-48350000D01*
X160235000Y-43010000D02*
X159569000Y-43010000D01*
X163011000Y-43010000D02*
X162345000Y-43010000D01*
X159569000Y-43010000D02*
X159569000Y-48350000D01*
X163011000Y-43010000D02*
X163011000Y-48350000D01*
%TO.C,R6*%
X172720000Y-62460000D02*
X172720000Y-61690000D01*
X172720000Y-54380000D02*
X172720000Y-55150000D01*
X174090000Y-61690000D02*
X174090000Y-55150000D01*
X171350000Y-61690000D02*
X174090000Y-61690000D01*
X171350000Y-55150000D02*
X171350000Y-61690000D01*
X174090000Y-55150000D02*
X171350000Y-55150000D01*
%TO.C,C7*%
X166585000Y-62320000D02*
X165919000Y-62320000D01*
X169361000Y-62320000D02*
X168695000Y-62320000D01*
X166585000Y-56980000D02*
X165919000Y-56980000D01*
X169361000Y-56980000D02*
X168695000Y-56980000D01*
X165919000Y-56980000D02*
X165919000Y-62320000D01*
X169361000Y-56980000D02*
X169361000Y-62320000D01*
%TO.C,C6*%
X165551000Y-70950000D02*
X165551000Y-76290000D01*
X162109000Y-70950000D02*
X162109000Y-76290000D01*
X165551000Y-70950000D02*
X164885000Y-70950000D01*
X162775000Y-70950000D02*
X162109000Y-70950000D01*
X165551000Y-76290000D02*
X164885000Y-76290000D01*
X162775000Y-76290000D02*
X162109000Y-76290000D01*
%TO.C,C5*%
X165551000Y-84920000D02*
X165551000Y-90260000D01*
X162109000Y-84920000D02*
X162109000Y-90260000D01*
X165551000Y-84920000D02*
X164885000Y-84920000D01*
X162775000Y-84920000D02*
X162109000Y-84920000D01*
X165551000Y-90260000D02*
X164885000Y-90260000D01*
X162775000Y-90260000D02*
X162109000Y-90260000D01*
%TO.C,C4*%
X164281000Y-112860000D02*
X164281000Y-118200000D01*
X160839000Y-112860000D02*
X160839000Y-118200000D01*
X164281000Y-112860000D02*
X163615000Y-112860000D01*
X161505000Y-112860000D02*
X160839000Y-112860000D01*
X164281000Y-118200000D02*
X163615000Y-118200000D01*
X161505000Y-118200000D02*
X160839000Y-118200000D01*
%TO.C,C3*%
X121750000Y-63049000D02*
X127090000Y-63049000D01*
X121750000Y-66491000D02*
X127090000Y-66491000D01*
X121750000Y-63049000D02*
X121750000Y-63715000D01*
X121750000Y-65825000D02*
X121750000Y-66491000D01*
X127090000Y-63049000D02*
X127090000Y-63715000D01*
X127090000Y-65825000D02*
X127090000Y-66491000D01*
%TO.C,C2*%
X165551000Y-98890000D02*
X165551000Y-104230000D01*
X162109000Y-98890000D02*
X162109000Y-104230000D01*
X165551000Y-98890000D02*
X164885000Y-98890000D01*
X162775000Y-98890000D02*
X162109000Y-98890000D01*
X165551000Y-104230000D02*
X164885000Y-104230000D01*
X162775000Y-104230000D02*
X162109000Y-104230000D01*
%TO.C,U3*%
X130920000Y-68520000D02*
X125460000Y-68520000D01*
X130920000Y-119440000D02*
X130920000Y-68520000D01*
X118000000Y-119440000D02*
X130920000Y-119440000D01*
X118000000Y-68520000D02*
X118000000Y-119440000D01*
X123460000Y-68520000D02*
X118000000Y-68520000D01*
X125460000Y-68520000D02*
G75*
G02*
X123460000Y-68520000I-1000000J0D01*
G01*
%TO.C,R5*%
X111760000Y-78970000D02*
X111760000Y-78200000D01*
X111760000Y-70890000D02*
X111760000Y-71660000D01*
X113130000Y-78200000D02*
X113130000Y-71660000D01*
X110390000Y-78200000D02*
X113130000Y-78200000D01*
X110390000Y-71660000D02*
X110390000Y-78200000D01*
X113130000Y-71660000D02*
X110390000Y-71660000D01*
%TO.C,R4*%
X128500000Y-41910000D02*
X127730000Y-41910000D01*
X120420000Y-41910000D02*
X121190000Y-41910000D01*
X127730000Y-40540000D02*
X121190000Y-40540000D01*
X127730000Y-43280000D02*
X127730000Y-40540000D01*
X121190000Y-43280000D02*
X127730000Y-43280000D01*
X121190000Y-40540000D02*
X121190000Y-43280000D01*
%TO.C,R3*%
X128500000Y-46990000D02*
X127730000Y-46990000D01*
X120420000Y-46990000D02*
X121190000Y-46990000D01*
X127730000Y-45620000D02*
X121190000Y-45620000D01*
X127730000Y-48360000D02*
X127730000Y-45620000D01*
X121190000Y-48360000D02*
X127730000Y-48360000D01*
X121190000Y-45620000D02*
X121190000Y-48360000D01*
%TO.C,R2*%
X128500000Y-57150000D02*
X127730000Y-57150000D01*
X120420000Y-57150000D02*
X121190000Y-57150000D01*
X127730000Y-55780000D02*
X121190000Y-55780000D01*
X127730000Y-58520000D02*
X127730000Y-55780000D01*
X121190000Y-58520000D02*
X127730000Y-58520000D01*
X121190000Y-55780000D02*
X121190000Y-58520000D01*
%TO.C,R1*%
X128500000Y-52070000D02*
X127730000Y-52070000D01*
X120420000Y-52070000D02*
X121190000Y-52070000D01*
X127730000Y-50700000D02*
X121190000Y-50700000D01*
X127730000Y-53440000D02*
X127730000Y-50700000D01*
X121190000Y-53440000D02*
X127730000Y-53440000D01*
X121190000Y-50700000D02*
X121190000Y-53440000D01*
%TO.C,C1*%
X113120000Y-58205000D02*
X113120000Y-58871000D01*
X113120000Y-55429000D02*
X113120000Y-56095000D01*
X107780000Y-58205000D02*
X107780000Y-58871000D01*
X107780000Y-55429000D02*
X107780000Y-56095000D01*
X107780000Y-58871000D02*
X113120000Y-58871000D01*
X107780000Y-55429000D02*
X113120000Y-55429000D01*
%TO.C,J6*%
D11*
X195246666Y-106342380D02*
X195246666Y-107056666D01*
X195199047Y-107199523D01*
X195103809Y-107294761D01*
X194960952Y-107342380D01*
X194865714Y-107342380D01*
X196151428Y-106342380D02*
X195960952Y-106342380D01*
X195865714Y-106390000D01*
X195818095Y-106437619D01*
X195722857Y-106580476D01*
X195675238Y-106770952D01*
X195675238Y-107151904D01*
X195722857Y-107247142D01*
X195770476Y-107294761D01*
X195865714Y-107342380D01*
X196056190Y-107342380D01*
X196151428Y-107294761D01*
X196199047Y-107247142D01*
X196246666Y-107151904D01*
X196246666Y-106913809D01*
X196199047Y-106818571D01*
X196151428Y-106770952D01*
X196056190Y-106723333D01*
X195865714Y-106723333D01*
X195770476Y-106770952D01*
X195722857Y-106818571D01*
X195675238Y-106913809D01*
%TO.C,J5*%
X103806666Y-68242380D02*
X103806666Y-68956666D01*
X103759047Y-69099523D01*
X103663809Y-69194761D01*
X103520952Y-69242380D01*
X103425714Y-69242380D01*
X104759047Y-68242380D02*
X104282857Y-68242380D01*
X104235238Y-68718571D01*
X104282857Y-68670952D01*
X104378095Y-68623333D01*
X104616190Y-68623333D01*
X104711428Y-68670952D01*
X104759047Y-68718571D01*
X104806666Y-68813809D01*
X104806666Y-69051904D01*
X104759047Y-69147142D01*
X104711428Y-69194761D01*
X104616190Y-69242380D01*
X104378095Y-69242380D01*
X104282857Y-69194761D01*
X104235238Y-69147142D01*
%TO.C,U7*%
X159262380Y-46481904D02*
X160071904Y-46481904D01*
X160167142Y-46434285D01*
X160214761Y-46386666D01*
X160262380Y-46291428D01*
X160262380Y-46100952D01*
X160214761Y-46005714D01*
X160167142Y-45958095D01*
X160071904Y-45910476D01*
X159262380Y-45910476D01*
X159262380Y-45529523D02*
X159262380Y-44862857D01*
X160262380Y-45291428D01*
%TO.C,U6*%
X159262380Y-60451904D02*
X160071904Y-60451904D01*
X160167142Y-60404285D01*
X160214761Y-60356666D01*
X160262380Y-60261428D01*
X160262380Y-60070952D01*
X160214761Y-59975714D01*
X160167142Y-59928095D01*
X160071904Y-59880476D01*
X159262380Y-59880476D01*
X159262380Y-58975714D02*
X159262380Y-59166190D01*
X159310000Y-59261428D01*
X159357619Y-59309047D01*
X159500476Y-59404285D01*
X159690952Y-59451904D01*
X160071904Y-59451904D01*
X160167142Y-59404285D01*
X160214761Y-59356666D01*
X160262380Y-59261428D01*
X160262380Y-59070952D01*
X160214761Y-58975714D01*
X160167142Y-58928095D01*
X160071904Y-58880476D01*
X159833809Y-58880476D01*
X159738571Y-58928095D01*
X159690952Y-58975714D01*
X159643333Y-59070952D01*
X159643333Y-59261428D01*
X159690952Y-59356666D01*
X159738571Y-59404285D01*
X159833809Y-59451904D01*
%TO.C,U5*%
X160782380Y-102541904D02*
X161591904Y-102541904D01*
X161687142Y-102494285D01*
X161734761Y-102446666D01*
X161782380Y-102351428D01*
X161782380Y-102160952D01*
X161734761Y-102065714D01*
X161687142Y-102018095D01*
X161591904Y-101970476D01*
X160782380Y-101970476D01*
X160782380Y-101018095D02*
X160782380Y-101494285D01*
X161258571Y-101541904D01*
X161210952Y-101494285D01*
X161163333Y-101399047D01*
X161163333Y-101160952D01*
X161210952Y-101065714D01*
X161258571Y-101018095D01*
X161353809Y-100970476D01*
X161591904Y-100970476D01*
X161687142Y-101018095D01*
X161734761Y-101065714D01*
X161782380Y-101160952D01*
X161782380Y-101399047D01*
X161734761Y-101494285D01*
X161687142Y-101541904D01*
%TO.C,U4*%
X159262380Y-116331904D02*
X160071904Y-116331904D01*
X160167142Y-116284285D01*
X160214761Y-116236666D01*
X160262380Y-116141428D01*
X160262380Y-115950952D01*
X160214761Y-115855714D01*
X160167142Y-115808095D01*
X160071904Y-115760476D01*
X159262380Y-115760476D01*
X159595714Y-114855714D02*
X160262380Y-114855714D01*
X159214761Y-115093809D02*
X159929047Y-115331904D01*
X159929047Y-114712857D01*
%TO.C,U2*%
X160532380Y-88391904D02*
X161341904Y-88391904D01*
X161437142Y-88344285D01*
X161484761Y-88296666D01*
X161532380Y-88201428D01*
X161532380Y-88010952D01*
X161484761Y-87915714D01*
X161437142Y-87868095D01*
X161341904Y-87820476D01*
X160532380Y-87820476D01*
X160627619Y-87391904D02*
X160580000Y-87344285D01*
X160532380Y-87249047D01*
X160532380Y-87010952D01*
X160580000Y-86915714D01*
X160627619Y-86868095D01*
X160722857Y-86820476D01*
X160818095Y-86820476D01*
X160960952Y-86868095D01*
X161532380Y-87439523D01*
X161532380Y-86820476D01*
%TO.C,U1*%
X160532380Y-74421904D02*
X161341904Y-74421904D01*
X161437142Y-74374285D01*
X161484761Y-74326666D01*
X161532380Y-74231428D01*
X161532380Y-74040952D01*
X161484761Y-73945714D01*
X161437142Y-73898095D01*
X161341904Y-73850476D01*
X160532380Y-73850476D01*
X161532380Y-72850476D02*
X161532380Y-73421904D01*
X161532380Y-73136190D02*
X160532380Y-73136190D01*
X160675238Y-73231428D01*
X160770476Y-73326666D01*
X160818095Y-73421904D01*
%TO.C,J4*%
X195246666Y-80942380D02*
X195246666Y-81656666D01*
X195199047Y-81799523D01*
X195103809Y-81894761D01*
X194960952Y-81942380D01*
X194865714Y-81942380D01*
X196151428Y-81275714D02*
X196151428Y-81942380D01*
X195913333Y-80894761D02*
X195675238Y-81609047D01*
X196294285Y-81609047D01*
%TO.C,J3*%
X195246666Y-58082380D02*
X195246666Y-58796666D01*
X195199047Y-58939523D01*
X195103809Y-59034761D01*
X194960952Y-59082380D01*
X194865714Y-59082380D01*
X195627619Y-58082380D02*
X196246666Y-58082380D01*
X195913333Y-58463333D01*
X196056190Y-58463333D01*
X196151428Y-58510952D01*
X196199047Y-58558571D01*
X196246666Y-58653809D01*
X196246666Y-58891904D01*
X196199047Y-58987142D01*
X196151428Y-59034761D01*
X196056190Y-59082380D01*
X195770476Y-59082380D01*
X195675238Y-59034761D01*
X195627619Y-58987142D01*
%TO.C,C10*%
X164497142Y-60292857D02*
X164544761Y-60340476D01*
X164592380Y-60483333D01*
X164592380Y-60578571D01*
X164544761Y-60721428D01*
X164449523Y-60816666D01*
X164354285Y-60864285D01*
X164163809Y-60911904D01*
X164020952Y-60911904D01*
X163830476Y-60864285D01*
X163735238Y-60816666D01*
X163640000Y-60721428D01*
X163592380Y-60578571D01*
X163592380Y-60483333D01*
X163640000Y-60340476D01*
X163687619Y-60292857D01*
X164592380Y-59340476D02*
X164592380Y-59911904D01*
X164592380Y-59626190D02*
X163592380Y-59626190D01*
X163735238Y-59721428D01*
X163830476Y-59816666D01*
X163878095Y-59911904D01*
X163592380Y-58721428D02*
X163592380Y-58626190D01*
X163640000Y-58530952D01*
X163687619Y-58483333D01*
X163782857Y-58435714D01*
X163973333Y-58388095D01*
X164211428Y-58388095D01*
X164401904Y-58435714D01*
X164497142Y-58483333D01*
X164544761Y-58530952D01*
X164592380Y-58626190D01*
X164592380Y-58721428D01*
X164544761Y-58816666D01*
X164497142Y-58864285D01*
X164401904Y-58911904D01*
X164211428Y-58959523D01*
X163973333Y-58959523D01*
X163782857Y-58911904D01*
X163687619Y-58864285D01*
X163640000Y-58816666D01*
X163592380Y-58721428D01*
%TO.C,C9*%
X164497142Y-45846666D02*
X164544761Y-45894285D01*
X164592380Y-46037142D01*
X164592380Y-46132380D01*
X164544761Y-46275238D01*
X164449523Y-46370476D01*
X164354285Y-46418095D01*
X164163809Y-46465714D01*
X164020952Y-46465714D01*
X163830476Y-46418095D01*
X163735238Y-46370476D01*
X163640000Y-46275238D01*
X163592380Y-46132380D01*
X163592380Y-46037142D01*
X163640000Y-45894285D01*
X163687619Y-45846666D01*
X164592380Y-45370476D02*
X164592380Y-45180000D01*
X164544761Y-45084761D01*
X164497142Y-45037142D01*
X164354285Y-44941904D01*
X164163809Y-44894285D01*
X163782857Y-44894285D01*
X163687619Y-44941904D01*
X163640000Y-44989523D01*
X163592380Y-45084761D01*
X163592380Y-45275238D01*
X163640000Y-45370476D01*
X163687619Y-45418095D01*
X163782857Y-45465714D01*
X164020952Y-45465714D01*
X164116190Y-45418095D01*
X164163809Y-45370476D01*
X164211428Y-45275238D01*
X164211428Y-45084761D01*
X164163809Y-44989523D01*
X164116190Y-44941904D01*
X164020952Y-44894285D01*
%TO.C,R6*%
X175542380Y-58586666D02*
X175066190Y-58920000D01*
X175542380Y-59158095D02*
X174542380Y-59158095D01*
X174542380Y-58777142D01*
X174590000Y-58681904D01*
X174637619Y-58634285D01*
X174732857Y-58586666D01*
X174875714Y-58586666D01*
X174970952Y-58634285D01*
X175018571Y-58681904D01*
X175066190Y-58777142D01*
X175066190Y-59158095D01*
X174542380Y-57729523D02*
X174542380Y-57920000D01*
X174590000Y-58015238D01*
X174637619Y-58062857D01*
X174780476Y-58158095D01*
X174970952Y-58205714D01*
X175351904Y-58205714D01*
X175447142Y-58158095D01*
X175494761Y-58110476D01*
X175542380Y-58015238D01*
X175542380Y-57824761D01*
X175494761Y-57729523D01*
X175447142Y-57681904D01*
X175351904Y-57634285D01*
X175113809Y-57634285D01*
X175018571Y-57681904D01*
X174970952Y-57729523D01*
X174923333Y-57824761D01*
X174923333Y-58015238D01*
X174970952Y-58110476D01*
X175018571Y-58158095D01*
X175113809Y-58205714D01*
%TO.C,C7*%
X170847142Y-59816666D02*
X170894761Y-59864285D01*
X170942380Y-60007142D01*
X170942380Y-60102380D01*
X170894761Y-60245238D01*
X170799523Y-60340476D01*
X170704285Y-60388095D01*
X170513809Y-60435714D01*
X170370952Y-60435714D01*
X170180476Y-60388095D01*
X170085238Y-60340476D01*
X169990000Y-60245238D01*
X169942380Y-60102380D01*
X169942380Y-60007142D01*
X169990000Y-59864285D01*
X170037619Y-59816666D01*
X169942380Y-59483333D02*
X169942380Y-58816666D01*
X170942380Y-59245238D01*
%TO.C,C6*%
X167037142Y-73786666D02*
X167084761Y-73834285D01*
X167132380Y-73977142D01*
X167132380Y-74072380D01*
X167084761Y-74215238D01*
X166989523Y-74310476D01*
X166894285Y-74358095D01*
X166703809Y-74405714D01*
X166560952Y-74405714D01*
X166370476Y-74358095D01*
X166275238Y-74310476D01*
X166180000Y-74215238D01*
X166132380Y-74072380D01*
X166132380Y-73977142D01*
X166180000Y-73834285D01*
X166227619Y-73786666D01*
X166132380Y-72929523D02*
X166132380Y-73120000D01*
X166180000Y-73215238D01*
X166227619Y-73262857D01*
X166370476Y-73358095D01*
X166560952Y-73405714D01*
X166941904Y-73405714D01*
X167037142Y-73358095D01*
X167084761Y-73310476D01*
X167132380Y-73215238D01*
X167132380Y-73024761D01*
X167084761Y-72929523D01*
X167037142Y-72881904D01*
X166941904Y-72834285D01*
X166703809Y-72834285D01*
X166608571Y-72881904D01*
X166560952Y-72929523D01*
X166513333Y-73024761D01*
X166513333Y-73215238D01*
X166560952Y-73310476D01*
X166608571Y-73358095D01*
X166703809Y-73405714D01*
%TO.C,C5*%
X167037142Y-87756666D02*
X167084761Y-87804285D01*
X167132380Y-87947142D01*
X167132380Y-88042380D01*
X167084761Y-88185238D01*
X166989523Y-88280476D01*
X166894285Y-88328095D01*
X166703809Y-88375714D01*
X166560952Y-88375714D01*
X166370476Y-88328095D01*
X166275238Y-88280476D01*
X166180000Y-88185238D01*
X166132380Y-88042380D01*
X166132380Y-87947142D01*
X166180000Y-87804285D01*
X166227619Y-87756666D01*
X166132380Y-86851904D02*
X166132380Y-87328095D01*
X166608571Y-87375714D01*
X166560952Y-87328095D01*
X166513333Y-87232857D01*
X166513333Y-86994761D01*
X166560952Y-86899523D01*
X166608571Y-86851904D01*
X166703809Y-86804285D01*
X166941904Y-86804285D01*
X167037142Y-86851904D01*
X167084761Y-86899523D01*
X167132380Y-86994761D01*
X167132380Y-87232857D01*
X167084761Y-87328095D01*
X167037142Y-87375714D01*
%TO.C,C4*%
X165767142Y-115696666D02*
X165814761Y-115744285D01*
X165862380Y-115887142D01*
X165862380Y-115982380D01*
X165814761Y-116125238D01*
X165719523Y-116220476D01*
X165624285Y-116268095D01*
X165433809Y-116315714D01*
X165290952Y-116315714D01*
X165100476Y-116268095D01*
X165005238Y-116220476D01*
X164910000Y-116125238D01*
X164862380Y-115982380D01*
X164862380Y-115887142D01*
X164910000Y-115744285D01*
X164957619Y-115696666D01*
X165195714Y-114839523D02*
X165862380Y-114839523D01*
X164814761Y-115077619D02*
X165529047Y-115315714D01*
X165529047Y-114696666D01*
%TO.C,C3*%
X124253333Y-62277142D02*
X124205714Y-62324761D01*
X124062857Y-62372380D01*
X123967619Y-62372380D01*
X123824761Y-62324761D01*
X123729523Y-62229523D01*
X123681904Y-62134285D01*
X123634285Y-61943809D01*
X123634285Y-61800952D01*
X123681904Y-61610476D01*
X123729523Y-61515238D01*
X123824761Y-61420000D01*
X123967619Y-61372380D01*
X124062857Y-61372380D01*
X124205714Y-61420000D01*
X124253333Y-61467619D01*
X124586666Y-61372380D02*
X125205714Y-61372380D01*
X124872380Y-61753333D01*
X125015238Y-61753333D01*
X125110476Y-61800952D01*
X125158095Y-61848571D01*
X125205714Y-61943809D01*
X125205714Y-62181904D01*
X125158095Y-62277142D01*
X125110476Y-62324761D01*
X125015238Y-62372380D01*
X124729523Y-62372380D01*
X124634285Y-62324761D01*
X124586666Y-62277142D01*
%TO.C,C2*%
X167037142Y-101726666D02*
X167084761Y-101774285D01*
X167132380Y-101917142D01*
X167132380Y-102012380D01*
X167084761Y-102155238D01*
X166989523Y-102250476D01*
X166894285Y-102298095D01*
X166703809Y-102345714D01*
X166560952Y-102345714D01*
X166370476Y-102298095D01*
X166275238Y-102250476D01*
X166180000Y-102155238D01*
X166132380Y-102012380D01*
X166132380Y-101917142D01*
X166180000Y-101774285D01*
X166227619Y-101726666D01*
X166227619Y-101345714D02*
X166180000Y-101298095D01*
X166132380Y-101202857D01*
X166132380Y-100964761D01*
X166180000Y-100869523D01*
X166227619Y-100821904D01*
X166322857Y-100774285D01*
X166418095Y-100774285D01*
X166560952Y-100821904D01*
X167132380Y-101393333D01*
X167132380Y-100774285D01*
%TO.C,U3*%
X123698095Y-66972380D02*
X123698095Y-67781904D01*
X123745714Y-67877142D01*
X123793333Y-67924761D01*
X123888571Y-67972380D01*
X124079047Y-67972380D01*
X124174285Y-67924761D01*
X124221904Y-67877142D01*
X124269523Y-67781904D01*
X124269523Y-66972380D01*
X124650476Y-66972380D02*
X125269523Y-66972380D01*
X124936190Y-67353333D01*
X125079047Y-67353333D01*
X125174285Y-67400952D01*
X125221904Y-67448571D01*
X125269523Y-67543809D01*
X125269523Y-67781904D01*
X125221904Y-67877142D01*
X125174285Y-67924761D01*
X125079047Y-67972380D01*
X124793333Y-67972380D01*
X124698095Y-67924761D01*
X124650476Y-67877142D01*
%TO.C,R5*%
X114582380Y-75096666D02*
X114106190Y-75430000D01*
X114582380Y-75668095D02*
X113582380Y-75668095D01*
X113582380Y-75287142D01*
X113630000Y-75191904D01*
X113677619Y-75144285D01*
X113772857Y-75096666D01*
X113915714Y-75096666D01*
X114010952Y-75144285D01*
X114058571Y-75191904D01*
X114106190Y-75287142D01*
X114106190Y-75668095D01*
X113582380Y-74191904D02*
X113582380Y-74668095D01*
X114058571Y-74715714D01*
X114010952Y-74668095D01*
X113963333Y-74572857D01*
X113963333Y-74334761D01*
X114010952Y-74239523D01*
X114058571Y-74191904D01*
X114153809Y-74144285D01*
X114391904Y-74144285D01*
X114487142Y-74191904D01*
X114534761Y-74239523D01*
X114582380Y-74334761D01*
X114582380Y-74572857D01*
X114534761Y-74668095D01*
X114487142Y-74715714D01*
%TO.C,R4*%
X124293333Y-39992380D02*
X123960000Y-39516190D01*
X123721904Y-39992380D02*
X123721904Y-38992380D01*
X124102857Y-38992380D01*
X124198095Y-39040000D01*
X124245714Y-39087619D01*
X124293333Y-39182857D01*
X124293333Y-39325714D01*
X124245714Y-39420952D01*
X124198095Y-39468571D01*
X124102857Y-39516190D01*
X123721904Y-39516190D01*
X125150476Y-39325714D02*
X125150476Y-39992380D01*
X124912380Y-38944761D02*
X124674285Y-39659047D01*
X125293333Y-39659047D01*
%TO.C,R3*%
X124293333Y-45072380D02*
X123960000Y-44596190D01*
X123721904Y-45072380D02*
X123721904Y-44072380D01*
X124102857Y-44072380D01*
X124198095Y-44120000D01*
X124245714Y-44167619D01*
X124293333Y-44262857D01*
X124293333Y-44405714D01*
X124245714Y-44500952D01*
X124198095Y-44548571D01*
X124102857Y-44596190D01*
X123721904Y-44596190D01*
X124626666Y-44072380D02*
X125245714Y-44072380D01*
X124912380Y-44453333D01*
X125055238Y-44453333D01*
X125150476Y-44500952D01*
X125198095Y-44548571D01*
X125245714Y-44643809D01*
X125245714Y-44881904D01*
X125198095Y-44977142D01*
X125150476Y-45024761D01*
X125055238Y-45072380D01*
X124769523Y-45072380D01*
X124674285Y-45024761D01*
X124626666Y-44977142D01*
%TO.C,R2*%
X124293333Y-55232380D02*
X123960000Y-54756190D01*
X123721904Y-55232380D02*
X123721904Y-54232380D01*
X124102857Y-54232380D01*
X124198095Y-54280000D01*
X124245714Y-54327619D01*
X124293333Y-54422857D01*
X124293333Y-54565714D01*
X124245714Y-54660952D01*
X124198095Y-54708571D01*
X124102857Y-54756190D01*
X123721904Y-54756190D01*
X124674285Y-54327619D02*
X124721904Y-54280000D01*
X124817142Y-54232380D01*
X125055238Y-54232380D01*
X125150476Y-54280000D01*
X125198095Y-54327619D01*
X125245714Y-54422857D01*
X125245714Y-54518095D01*
X125198095Y-54660952D01*
X124626666Y-55232380D01*
X125245714Y-55232380D01*
%TO.C,R1*%
X124293333Y-50152380D02*
X123960000Y-49676190D01*
X123721904Y-50152380D02*
X123721904Y-49152380D01*
X124102857Y-49152380D01*
X124198095Y-49200000D01*
X124245714Y-49247619D01*
X124293333Y-49342857D01*
X124293333Y-49485714D01*
X124245714Y-49580952D01*
X124198095Y-49628571D01*
X124102857Y-49676190D01*
X123721904Y-49676190D01*
X125245714Y-50152380D02*
X124674285Y-50152380D01*
X124960000Y-50152380D02*
X124960000Y-49152380D01*
X124864761Y-49295238D01*
X124769523Y-49390476D01*
X124674285Y-49438095D01*
%TO.C,C1*%
X110283333Y-54657142D02*
X110235714Y-54704761D01*
X110092857Y-54752380D01*
X109997619Y-54752380D01*
X109854761Y-54704761D01*
X109759523Y-54609523D01*
X109711904Y-54514285D01*
X109664285Y-54323809D01*
X109664285Y-54180952D01*
X109711904Y-53990476D01*
X109759523Y-53895238D01*
X109854761Y-53800000D01*
X109997619Y-53752380D01*
X110092857Y-53752380D01*
X110235714Y-53800000D01*
X110283333Y-53847619D01*
X111235714Y-54752380D02*
X110664285Y-54752380D01*
X110950000Y-54752380D02*
X110950000Y-53752380D01*
X110854761Y-53895238D01*
X110759523Y-53990476D01*
X110664285Y-54038095D01*
%TD*%
M02*
