%TF.GenerationSoftware,KiCad,Pcbnew,(5.1.10)-1*%
%TF.CreationDate,2021-05-27T19:28:44+02:00*%
%TF.ProjectId,Nes Sound Expansion,4e657320-536f-4756-9e64-20457870616e,rev?*%
%TF.SameCoordinates,Original*%
%TF.FileFunction,Legend,Top*%
%TF.FilePolarity,Positive*%
%FSLAX46Y46*%
G04 Gerber Fmt 4.6, Leading zero omitted, Abs format (unit mm)*
G04 Created by KiCad (PCBNEW (5.1.10)-1) date 2021-05-27 19:28:44*
%MOMM*%
%LPD*%
G01*
G04 APERTURE LIST*
%ADD10C,0.300000*%
%ADD11C,0.010000*%
%ADD12C,0.120000*%
%ADD13C,0.150000*%
G04 APERTURE END LIST*
D10*
X111295571Y-91732571D02*
X109795571Y-91732571D01*
X111295571Y-90875428D01*
X109795571Y-90875428D01*
X110509857Y-90161142D02*
X110509857Y-89661142D01*
X111295571Y-89446857D02*
X111295571Y-90161142D01*
X109795571Y-90161142D01*
X109795571Y-89446857D01*
X111224142Y-88875428D02*
X111295571Y-88661142D01*
X111295571Y-88304000D01*
X111224142Y-88161142D01*
X111152714Y-88089714D01*
X111009857Y-88018285D01*
X110867000Y-88018285D01*
X110724142Y-88089714D01*
X110652714Y-88161142D01*
X110581285Y-88304000D01*
X110509857Y-88589714D01*
X110438428Y-88732571D01*
X110367000Y-88804000D01*
X110224142Y-88875428D01*
X110081285Y-88875428D01*
X109938428Y-88804000D01*
X109867000Y-88732571D01*
X109795571Y-88589714D01*
X109795571Y-88232571D01*
X109867000Y-88018285D01*
X110509857Y-86232571D02*
X110509857Y-85732571D01*
X111295571Y-85518285D02*
X111295571Y-86232571D01*
X109795571Y-86232571D01*
X109795571Y-85518285D01*
X111295571Y-84875428D02*
X109795571Y-84875428D01*
X109795571Y-84304000D01*
X109867000Y-84161142D01*
X109938428Y-84089714D01*
X110081285Y-84018285D01*
X110295571Y-84018285D01*
X110438428Y-84089714D01*
X110509857Y-84161142D01*
X110581285Y-84304000D01*
X110581285Y-84875428D01*
X111224142Y-83446857D02*
X111295571Y-83232571D01*
X111295571Y-82875428D01*
X111224142Y-82732571D01*
X111152714Y-82661142D01*
X111009857Y-82589714D01*
X110867000Y-82589714D01*
X110724142Y-82661142D01*
X110652714Y-82732571D01*
X110581285Y-82875428D01*
X110509857Y-83161142D01*
X110438428Y-83304000D01*
X110367000Y-83375428D01*
X110224142Y-83446857D01*
X110081285Y-83446857D01*
X109938428Y-83375428D01*
X109867000Y-83304000D01*
X109795571Y-83161142D01*
X109795571Y-82804000D01*
X109867000Y-82589714D01*
X111295571Y-81946857D02*
X109795571Y-81946857D01*
X110867000Y-81446857D01*
X109795571Y-80946857D01*
X111295571Y-80946857D01*
X111295571Y-78232571D02*
X110581285Y-78732571D01*
X111295571Y-79089714D02*
X109795571Y-79089714D01*
X109795571Y-78518285D01*
X109867000Y-78375428D01*
X109938428Y-78304000D01*
X110081285Y-78232571D01*
X110295571Y-78232571D01*
X110438428Y-78304000D01*
X110509857Y-78375428D01*
X110581285Y-78518285D01*
X110581285Y-79089714D01*
X111224142Y-77018285D02*
X111295571Y-77161142D01*
X111295571Y-77446857D01*
X111224142Y-77589714D01*
X111081285Y-77661142D01*
X110509857Y-77661142D01*
X110367000Y-77589714D01*
X110295571Y-77446857D01*
X110295571Y-77161142D01*
X110367000Y-77018285D01*
X110509857Y-76946857D01*
X110652714Y-76946857D01*
X110795571Y-77661142D01*
X110295571Y-76446857D02*
X111295571Y-76089714D01*
X110295571Y-75732571D01*
X111152714Y-75161142D02*
X111224142Y-75089714D01*
X111295571Y-75161142D01*
X111224142Y-75232571D01*
X111152714Y-75161142D01*
X111295571Y-75161142D01*
X110867000Y-74518285D02*
X110867000Y-73804000D01*
X111295571Y-74661142D02*
X109795571Y-74161142D01*
X111295571Y-73661142D01*
D11*
%TO.C,G\u002A\u002A\u002A*%
G36*
X134471253Y-115692529D02*
G01*
X134521557Y-115679015D01*
X134601795Y-115659833D01*
X134706161Y-115636205D01*
X134828847Y-115609354D01*
X134964047Y-115580503D01*
X135105954Y-115550872D01*
X135248759Y-115521684D01*
X135386657Y-115494162D01*
X135513839Y-115469528D01*
X135624500Y-115449003D01*
X135712831Y-115433811D01*
X135731216Y-115430917D01*
X135815849Y-115417943D01*
X135757674Y-115387462D01*
X135741865Y-115379682D01*
X135728819Y-115371891D01*
X135718409Y-115360332D01*
X135710508Y-115341244D01*
X135704990Y-115310869D01*
X135701726Y-115265446D01*
X135700592Y-115201216D01*
X135701459Y-115114420D01*
X135704200Y-115001298D01*
X135708689Y-114858090D01*
X135714800Y-114681038D01*
X135722404Y-114466382D01*
X135724544Y-114405834D01*
X135732514Y-114196944D01*
X135740252Y-114027622D01*
X135747678Y-113898165D01*
X135754716Y-113808874D01*
X135761288Y-113760047D01*
X135767316Y-113751982D01*
X135772723Y-113784980D01*
X135777431Y-113859339D01*
X135781363Y-113975358D01*
X135784440Y-114133336D01*
X135784985Y-114173000D01*
X135787569Y-114332118D01*
X135791327Y-114509184D01*
X135795835Y-114686855D01*
X135800675Y-114847785D01*
X135802970Y-114913431D01*
X135815917Y-115262278D01*
X135984820Y-115357510D01*
X136153723Y-115452743D01*
X135656737Y-115574072D01*
X135514762Y-115608202D01*
X135383797Y-115638686D01*
X135270315Y-115664097D01*
X135180791Y-115683008D01*
X135121698Y-115693991D01*
X135102791Y-115696201D01*
X135056005Y-115699914D01*
X135042026Y-115709806D01*
X135062401Y-115726641D01*
X135118677Y-115751185D01*
X135212401Y-115784204D01*
X135345119Y-115826463D01*
X135399629Y-115843142D01*
X135634218Y-115914941D01*
X135847254Y-115981308D01*
X136036354Y-116041438D01*
X136199131Y-116094527D01*
X136333201Y-116139768D01*
X136436178Y-116176358D01*
X136505676Y-116203491D01*
X136539312Y-116220362D01*
X136534698Y-116226167D01*
X136534691Y-116226167D01*
X136509774Y-116230049D01*
X136454668Y-116240288D01*
X136380661Y-116254779D01*
X136370649Y-116256783D01*
X136293222Y-116271619D01*
X136186538Y-116291104D01*
X136063112Y-116312996D01*
X135935456Y-116335056D01*
X135898976Y-116341242D01*
X135745223Y-116366944D01*
X135629590Y-116386484D01*
X135548606Y-116401573D01*
X135498795Y-116413925D01*
X135476685Y-116425251D01*
X135478802Y-116437265D01*
X135501673Y-116451678D01*
X135541825Y-116470203D01*
X135591781Y-116492692D01*
X135668115Y-116530136D01*
X135731798Y-116565148D01*
X135770751Y-116591016D01*
X135773943Y-116593919D01*
X135778353Y-116602219D01*
X135782338Y-116619194D01*
X135785920Y-116646851D01*
X135789118Y-116687195D01*
X135791953Y-116742230D01*
X135794447Y-116813962D01*
X135796621Y-116904397D01*
X135798495Y-117015538D01*
X135800089Y-117149393D01*
X135801426Y-117307965D01*
X135802525Y-117493259D01*
X135803408Y-117707282D01*
X135804096Y-117952038D01*
X135804609Y-118229533D01*
X135804968Y-118541771D01*
X135805195Y-118890759D01*
X135805309Y-119278500D01*
X135805334Y-119611322D01*
X135805334Y-122597334D01*
X135699500Y-122597334D01*
X135699500Y-116697725D01*
X135530988Y-116620696D01*
X135454575Y-116586193D01*
X135394076Y-116559679D01*
X135358788Y-116545193D01*
X135353716Y-116543667D01*
X135327588Y-116535174D01*
X135275677Y-116512739D01*
X135207269Y-116480929D01*
X135131646Y-116444310D01*
X135058093Y-116407451D01*
X134995895Y-116374916D01*
X134954335Y-116351274D01*
X134942312Y-116341300D01*
X134966280Y-116334714D01*
X135023657Y-116324642D01*
X135105798Y-116312466D01*
X135202165Y-116299800D01*
X135367560Y-116278107D01*
X135520144Y-116255850D01*
X135655530Y-116233873D01*
X135769331Y-116213017D01*
X135857160Y-116194126D01*
X135914631Y-116178041D01*
X135937356Y-116165605D01*
X135931171Y-116159799D01*
X135899179Y-116149875D01*
X135831807Y-116129045D01*
X135734130Y-116098875D01*
X135611222Y-116060932D01*
X135468158Y-116016782D01*
X135310012Y-115967993D01*
X135180917Y-115928175D01*
X135015972Y-115877146D01*
X134863434Y-115829650D01*
X134728142Y-115787218D01*
X134614939Y-115751381D01*
X134528663Y-115723668D01*
X134474157Y-115705612D01*
X134456691Y-115699154D01*
X134471253Y-115692529D01*
G37*
X134471253Y-115692529D02*
X134521557Y-115679015D01*
X134601795Y-115659833D01*
X134706161Y-115636205D01*
X134828847Y-115609354D01*
X134964047Y-115580503D01*
X135105954Y-115550872D01*
X135248759Y-115521684D01*
X135386657Y-115494162D01*
X135513839Y-115469528D01*
X135624500Y-115449003D01*
X135712831Y-115433811D01*
X135731216Y-115430917D01*
X135815849Y-115417943D01*
X135757674Y-115387462D01*
X135741865Y-115379682D01*
X135728819Y-115371891D01*
X135718409Y-115360332D01*
X135710508Y-115341244D01*
X135704990Y-115310869D01*
X135701726Y-115265446D01*
X135700592Y-115201216D01*
X135701459Y-115114420D01*
X135704200Y-115001298D01*
X135708689Y-114858090D01*
X135714800Y-114681038D01*
X135722404Y-114466382D01*
X135724544Y-114405834D01*
X135732514Y-114196944D01*
X135740252Y-114027622D01*
X135747678Y-113898165D01*
X135754716Y-113808874D01*
X135761288Y-113760047D01*
X135767316Y-113751982D01*
X135772723Y-113784980D01*
X135777431Y-113859339D01*
X135781363Y-113975358D01*
X135784440Y-114133336D01*
X135784985Y-114173000D01*
X135787569Y-114332118D01*
X135791327Y-114509184D01*
X135795835Y-114686855D01*
X135800675Y-114847785D01*
X135802970Y-114913431D01*
X135815917Y-115262278D01*
X135984820Y-115357510D01*
X136153723Y-115452743D01*
X135656737Y-115574072D01*
X135514762Y-115608202D01*
X135383797Y-115638686D01*
X135270315Y-115664097D01*
X135180791Y-115683008D01*
X135121698Y-115693991D01*
X135102791Y-115696201D01*
X135056005Y-115699914D01*
X135042026Y-115709806D01*
X135062401Y-115726641D01*
X135118677Y-115751185D01*
X135212401Y-115784204D01*
X135345119Y-115826463D01*
X135399629Y-115843142D01*
X135634218Y-115914941D01*
X135847254Y-115981308D01*
X136036354Y-116041438D01*
X136199131Y-116094527D01*
X136333201Y-116139768D01*
X136436178Y-116176358D01*
X136505676Y-116203491D01*
X136539312Y-116220362D01*
X136534698Y-116226167D01*
X136534691Y-116226167D01*
X136509774Y-116230049D01*
X136454668Y-116240288D01*
X136380661Y-116254779D01*
X136370649Y-116256783D01*
X136293222Y-116271619D01*
X136186538Y-116291104D01*
X136063112Y-116312996D01*
X135935456Y-116335056D01*
X135898976Y-116341242D01*
X135745223Y-116366944D01*
X135629590Y-116386484D01*
X135548606Y-116401573D01*
X135498795Y-116413925D01*
X135476685Y-116425251D01*
X135478802Y-116437265D01*
X135501673Y-116451678D01*
X135541825Y-116470203D01*
X135591781Y-116492692D01*
X135668115Y-116530136D01*
X135731798Y-116565148D01*
X135770751Y-116591016D01*
X135773943Y-116593919D01*
X135778353Y-116602219D01*
X135782338Y-116619194D01*
X135785920Y-116646851D01*
X135789118Y-116687195D01*
X135791953Y-116742230D01*
X135794447Y-116813962D01*
X135796621Y-116904397D01*
X135798495Y-117015538D01*
X135800089Y-117149393D01*
X135801426Y-117307965D01*
X135802525Y-117493259D01*
X135803408Y-117707282D01*
X135804096Y-117952038D01*
X135804609Y-118229533D01*
X135804968Y-118541771D01*
X135805195Y-118890759D01*
X135805309Y-119278500D01*
X135805334Y-119611322D01*
X135805334Y-122597334D01*
X135699500Y-122597334D01*
X135699500Y-116697725D01*
X135530988Y-116620696D01*
X135454575Y-116586193D01*
X135394076Y-116559679D01*
X135358788Y-116545193D01*
X135353716Y-116543667D01*
X135327588Y-116535174D01*
X135275677Y-116512739D01*
X135207269Y-116480929D01*
X135131646Y-116444310D01*
X135058093Y-116407451D01*
X134995895Y-116374916D01*
X134954335Y-116351274D01*
X134942312Y-116341300D01*
X134966280Y-116334714D01*
X135023657Y-116324642D01*
X135105798Y-116312466D01*
X135202165Y-116299800D01*
X135367560Y-116278107D01*
X135520144Y-116255850D01*
X135655530Y-116233873D01*
X135769331Y-116213017D01*
X135857160Y-116194126D01*
X135914631Y-116178041D01*
X135937356Y-116165605D01*
X135931171Y-116159799D01*
X135899179Y-116149875D01*
X135831807Y-116129045D01*
X135734130Y-116098875D01*
X135611222Y-116060932D01*
X135468158Y-116016782D01*
X135310012Y-115967993D01*
X135180917Y-115928175D01*
X135015972Y-115877146D01*
X134863434Y-115829650D01*
X134728142Y-115787218D01*
X134614939Y-115751381D01*
X134528663Y-115723668D01*
X134474157Y-115705612D01*
X134456691Y-115699154D01*
X134471253Y-115692529D01*
G36*
X134169327Y-118870530D02*
G01*
X134179980Y-118798776D01*
X134201652Y-118734789D01*
X134225695Y-118684687D01*
X134255527Y-118624112D01*
X134274076Y-118580874D01*
X134277465Y-118565846D01*
X134255682Y-118552906D01*
X134223125Y-118535456D01*
X134186553Y-118501405D01*
X134175500Y-118469089D01*
X134178453Y-118450525D01*
X134192291Y-118438485D01*
X134224487Y-118431568D01*
X134282512Y-118428378D01*
X134373837Y-118427516D01*
X134397750Y-118427500D01*
X134496660Y-118427869D01*
X134560774Y-118430078D01*
X134597632Y-118435785D01*
X134614772Y-118446647D01*
X134619732Y-118464319D01*
X134620000Y-118476344D01*
X134608052Y-118515068D01*
X134566550Y-118547448D01*
X134535878Y-118562302D01*
X134452905Y-118615053D01*
X134373776Y-118692586D01*
X134311175Y-118780591D01*
X134281367Y-118849451D01*
X134262496Y-118968486D01*
X134270157Y-119081835D01*
X134301139Y-119182462D01*
X134352235Y-119263331D01*
X134420236Y-119317407D01*
X134501931Y-119337655D01*
X134504046Y-119337667D01*
X134577744Y-119321674D01*
X134641994Y-119271734D01*
X134699558Y-119184906D01*
X134744793Y-119081235D01*
X134812582Y-118909672D01*
X134874169Y-118775282D01*
X134932486Y-118673903D01*
X134990464Y-118601371D01*
X135051033Y-118553522D01*
X135117126Y-118526195D01*
X135139044Y-118521268D01*
X135240075Y-118522560D01*
X135343874Y-118558997D01*
X135441767Y-118624967D01*
X135525079Y-118714858D01*
X135577542Y-118804959D01*
X135612129Y-118918189D01*
X135628266Y-119050169D01*
X135625172Y-119182863D01*
X135602067Y-119298233D01*
X135599264Y-119306360D01*
X135567146Y-119382872D01*
X135529731Y-119454279D01*
X135513747Y-119479167D01*
X135466372Y-119545699D01*
X135540603Y-119591576D01*
X135587351Y-119627902D01*
X135613096Y-119662353D01*
X135614834Y-119670538D01*
X135608826Y-119687756D01*
X135585017Y-119695602D01*
X135534725Y-119695265D01*
X135471959Y-119690128D01*
X135373751Y-119682717D01*
X135270280Y-119677752D01*
X135207375Y-119676484D01*
X135138683Y-119675000D01*
X135102226Y-119668079D01*
X135087926Y-119651690D01*
X135085667Y-119627807D01*
X135093468Y-119595019D01*
X135123660Y-119572506D01*
X135180702Y-119553862D01*
X135278746Y-119510146D01*
X135374277Y-119437656D01*
X135453453Y-119348412D01*
X135490677Y-119284750D01*
X135523262Y-119169213D01*
X135527181Y-119041281D01*
X135502649Y-118919457D01*
X135485985Y-118878766D01*
X135425781Y-118783193D01*
X135354146Y-118725895D01*
X135266243Y-118703326D01*
X135245554Y-118702667D01*
X135188948Y-118707669D01*
X135140511Y-118725749D01*
X135096865Y-118761518D01*
X135054635Y-118819589D01*
X135010446Y-118904573D01*
X134960921Y-119021081D01*
X134904680Y-119168334D01*
X134846660Y-119296522D01*
X134780782Y-119392082D01*
X134768930Y-119404703D01*
X134675411Y-119474294D01*
X134576325Y-119504157D01*
X134476596Y-119495578D01*
X134381147Y-119449842D01*
X134294901Y-119368236D01*
X134228417Y-119263584D01*
X134194769Y-119190184D01*
X134175676Y-119126793D01*
X134167381Y-119055565D01*
X134166064Y-118967250D01*
X134169327Y-118870530D01*
G37*
X134169327Y-118870530D02*
X134179980Y-118798776D01*
X134201652Y-118734789D01*
X134225695Y-118684687D01*
X134255527Y-118624112D01*
X134274076Y-118580874D01*
X134277465Y-118565846D01*
X134255682Y-118552906D01*
X134223125Y-118535456D01*
X134186553Y-118501405D01*
X134175500Y-118469089D01*
X134178453Y-118450525D01*
X134192291Y-118438485D01*
X134224487Y-118431568D01*
X134282512Y-118428378D01*
X134373837Y-118427516D01*
X134397750Y-118427500D01*
X134496660Y-118427869D01*
X134560774Y-118430078D01*
X134597632Y-118435785D01*
X134614772Y-118446647D01*
X134619732Y-118464319D01*
X134620000Y-118476344D01*
X134608052Y-118515068D01*
X134566550Y-118547448D01*
X134535878Y-118562302D01*
X134452905Y-118615053D01*
X134373776Y-118692586D01*
X134311175Y-118780591D01*
X134281367Y-118849451D01*
X134262496Y-118968486D01*
X134270157Y-119081835D01*
X134301139Y-119182462D01*
X134352235Y-119263331D01*
X134420236Y-119317407D01*
X134501931Y-119337655D01*
X134504046Y-119337667D01*
X134577744Y-119321674D01*
X134641994Y-119271734D01*
X134699558Y-119184906D01*
X134744793Y-119081235D01*
X134812582Y-118909672D01*
X134874169Y-118775282D01*
X134932486Y-118673903D01*
X134990464Y-118601371D01*
X135051033Y-118553522D01*
X135117126Y-118526195D01*
X135139044Y-118521268D01*
X135240075Y-118522560D01*
X135343874Y-118558997D01*
X135441767Y-118624967D01*
X135525079Y-118714858D01*
X135577542Y-118804959D01*
X135612129Y-118918189D01*
X135628266Y-119050169D01*
X135625172Y-119182863D01*
X135602067Y-119298233D01*
X135599264Y-119306360D01*
X135567146Y-119382872D01*
X135529731Y-119454279D01*
X135513747Y-119479167D01*
X135466372Y-119545699D01*
X135540603Y-119591576D01*
X135587351Y-119627902D01*
X135613096Y-119662353D01*
X135614834Y-119670538D01*
X135608826Y-119687756D01*
X135585017Y-119695602D01*
X135534725Y-119695265D01*
X135471959Y-119690128D01*
X135373751Y-119682717D01*
X135270280Y-119677752D01*
X135207375Y-119676484D01*
X135138683Y-119675000D01*
X135102226Y-119668079D01*
X135087926Y-119651690D01*
X135085667Y-119627807D01*
X135093468Y-119595019D01*
X135123660Y-119572506D01*
X135180702Y-119553862D01*
X135278746Y-119510146D01*
X135374277Y-119437656D01*
X135453453Y-119348412D01*
X135490677Y-119284750D01*
X135523262Y-119169213D01*
X135527181Y-119041281D01*
X135502649Y-118919457D01*
X135485985Y-118878766D01*
X135425781Y-118783193D01*
X135354146Y-118725895D01*
X135266243Y-118703326D01*
X135245554Y-118702667D01*
X135188948Y-118707669D01*
X135140511Y-118725749D01*
X135096865Y-118761518D01*
X135054635Y-118819589D01*
X135010446Y-118904573D01*
X134960921Y-119021081D01*
X134904680Y-119168334D01*
X134846660Y-119296522D01*
X134780782Y-119392082D01*
X134768930Y-119404703D01*
X134675411Y-119474294D01*
X134576325Y-119504157D01*
X134476596Y-119495578D01*
X134381147Y-119449842D01*
X134294901Y-119368236D01*
X134228417Y-119263584D01*
X134194769Y-119190184D01*
X134175676Y-119126793D01*
X134167381Y-119055565D01*
X134166064Y-118967250D01*
X134169327Y-118870530D01*
G36*
X134178312Y-121913357D02*
G01*
X134179622Y-121768215D01*
X134180422Y-121693097D01*
X134186084Y-121169860D01*
X134366000Y-121114123D01*
X134461084Y-121086881D01*
X134523308Y-121075816D01*
X134559086Y-121081297D01*
X134574830Y-121103694D01*
X134577343Y-121126287D01*
X134560367Y-121147487D01*
X134516607Y-121178440D01*
X134482281Y-121198092D01*
X134407188Y-121245168D01*
X134354232Y-121299098D01*
X134319905Y-121367924D01*
X134300695Y-121459688D01*
X134293093Y-121582432D01*
X134292529Y-121632862D01*
X134291917Y-121865334D01*
X134545917Y-121923431D01*
X134644656Y-121945812D01*
X134728178Y-121964360D01*
X134787946Y-121977206D01*
X134815424Y-121982483D01*
X134815792Y-121982514D01*
X134826029Y-121964447D01*
X134830282Y-121916656D01*
X134829035Y-121851257D01*
X134822771Y-121780361D01*
X134811973Y-121716084D01*
X134804014Y-121687167D01*
X134775122Y-121632043D01*
X134724591Y-121588802D01*
X134678209Y-121563213D01*
X134607266Y-121519629D01*
X134578393Y-121480134D01*
X134577667Y-121473255D01*
X134581515Y-121440037D01*
X134586373Y-121433167D01*
X134609259Y-121437654D01*
X134664674Y-121449823D01*
X134743924Y-121467734D01*
X134824498Y-121486250D01*
X134922403Y-121508886D01*
X135008947Y-121528863D01*
X135073400Y-121543707D01*
X135101542Y-121550153D01*
X135141338Y-121575550D01*
X135149167Y-121602904D01*
X135141808Y-121630518D01*
X135112356Y-121642607D01*
X135065700Y-121644834D01*
X134996857Y-121655016D01*
X134951361Y-121689057D01*
X134925740Y-121752204D01*
X134916520Y-121849699D01*
X134916334Y-121870367D01*
X134918578Y-121945813D01*
X134926998Y-121988821D01*
X134944124Y-122009127D01*
X134953375Y-122012898D01*
X135022073Y-122031489D01*
X135108903Y-122052197D01*
X135204439Y-122073129D01*
X135299257Y-122092393D01*
X135383934Y-122108096D01*
X135449043Y-122118345D01*
X135485160Y-122121248D01*
X135488891Y-122120430D01*
X135498755Y-122093828D01*
X135505162Y-122035040D01*
X135508162Y-121954066D01*
X135507804Y-121860909D01*
X135504140Y-121765569D01*
X135497218Y-121678048D01*
X135487090Y-121608347D01*
X135486309Y-121604614D01*
X135436801Y-121472513D01*
X135349800Y-121354322D01*
X135234185Y-121258686D01*
X135172755Y-121217699D01*
X135140796Y-121191363D01*
X135132280Y-121171263D01*
X135141181Y-121148984D01*
X135147882Y-121138187D01*
X135162465Y-121127735D01*
X135190487Y-121129314D01*
X135238380Y-121144888D01*
X135312573Y-121176421D01*
X135390516Y-121212271D01*
X135613915Y-121316750D01*
X135614374Y-121927557D01*
X135614319Y-122105073D01*
X135613695Y-122244592D01*
X135612263Y-122350447D01*
X135609785Y-122426974D01*
X135606020Y-122478506D01*
X135600729Y-122509379D01*
X135593674Y-122523926D01*
X135584613Y-122526483D01*
X135581352Y-122525515D01*
X135547610Y-122514308D01*
X135539019Y-122512667D01*
X135533149Y-122494040D01*
X135530236Y-122448283D01*
X135530167Y-122439072D01*
X135518911Y-122374601D01*
X135481721Y-122333733D01*
X135448530Y-122320726D01*
X135380864Y-122300653D01*
X135285680Y-122275139D01*
X135169934Y-122245811D01*
X135040583Y-122214293D01*
X134904585Y-122182210D01*
X134768895Y-122151186D01*
X134640471Y-122122848D01*
X134526269Y-122098819D01*
X134433246Y-122080725D01*
X134368359Y-122070191D01*
X134344807Y-122068167D01*
X134292045Y-122081906D01*
X134265219Y-122125819D01*
X134260167Y-122175732D01*
X134244414Y-122209814D01*
X134217464Y-122216334D01*
X134204259Y-122215063D01*
X134194171Y-122207974D01*
X134186852Y-122190157D01*
X134181954Y-122156698D01*
X134179130Y-122102687D01*
X134178032Y-122023210D01*
X134178312Y-121913357D01*
G37*
X134178312Y-121913357D02*
X134179622Y-121768215D01*
X134180422Y-121693097D01*
X134186084Y-121169860D01*
X134366000Y-121114123D01*
X134461084Y-121086881D01*
X134523308Y-121075816D01*
X134559086Y-121081297D01*
X134574830Y-121103694D01*
X134577343Y-121126287D01*
X134560367Y-121147487D01*
X134516607Y-121178440D01*
X134482281Y-121198092D01*
X134407188Y-121245168D01*
X134354232Y-121299098D01*
X134319905Y-121367924D01*
X134300695Y-121459688D01*
X134293093Y-121582432D01*
X134292529Y-121632862D01*
X134291917Y-121865334D01*
X134545917Y-121923431D01*
X134644656Y-121945812D01*
X134728178Y-121964360D01*
X134787946Y-121977206D01*
X134815424Y-121982483D01*
X134815792Y-121982514D01*
X134826029Y-121964447D01*
X134830282Y-121916656D01*
X134829035Y-121851257D01*
X134822771Y-121780361D01*
X134811973Y-121716084D01*
X134804014Y-121687167D01*
X134775122Y-121632043D01*
X134724591Y-121588802D01*
X134678209Y-121563213D01*
X134607266Y-121519629D01*
X134578393Y-121480134D01*
X134577667Y-121473255D01*
X134581515Y-121440037D01*
X134586373Y-121433167D01*
X134609259Y-121437654D01*
X134664674Y-121449823D01*
X134743924Y-121467734D01*
X134824498Y-121486250D01*
X134922403Y-121508886D01*
X135008947Y-121528863D01*
X135073400Y-121543707D01*
X135101542Y-121550153D01*
X135141338Y-121575550D01*
X135149167Y-121602904D01*
X135141808Y-121630518D01*
X135112356Y-121642607D01*
X135065700Y-121644834D01*
X134996857Y-121655016D01*
X134951361Y-121689057D01*
X134925740Y-121752204D01*
X134916520Y-121849699D01*
X134916334Y-121870367D01*
X134918578Y-121945813D01*
X134926998Y-121988821D01*
X134944124Y-122009127D01*
X134953375Y-122012898D01*
X135022073Y-122031489D01*
X135108903Y-122052197D01*
X135204439Y-122073129D01*
X135299257Y-122092393D01*
X135383934Y-122108096D01*
X135449043Y-122118345D01*
X135485160Y-122121248D01*
X135488891Y-122120430D01*
X135498755Y-122093828D01*
X135505162Y-122035040D01*
X135508162Y-121954066D01*
X135507804Y-121860909D01*
X135504140Y-121765569D01*
X135497218Y-121678048D01*
X135487090Y-121608347D01*
X135486309Y-121604614D01*
X135436801Y-121472513D01*
X135349800Y-121354322D01*
X135234185Y-121258686D01*
X135172755Y-121217699D01*
X135140796Y-121191363D01*
X135132280Y-121171263D01*
X135141181Y-121148984D01*
X135147882Y-121138187D01*
X135162465Y-121127735D01*
X135190487Y-121129314D01*
X135238380Y-121144888D01*
X135312573Y-121176421D01*
X135390516Y-121212271D01*
X135613915Y-121316750D01*
X135614374Y-121927557D01*
X135614319Y-122105073D01*
X135613695Y-122244592D01*
X135612263Y-122350447D01*
X135609785Y-122426974D01*
X135606020Y-122478506D01*
X135600729Y-122509379D01*
X135593674Y-122523926D01*
X135584613Y-122526483D01*
X135581352Y-122525515D01*
X135547610Y-122514308D01*
X135539019Y-122512667D01*
X135533149Y-122494040D01*
X135530236Y-122448283D01*
X135530167Y-122439072D01*
X135518911Y-122374601D01*
X135481721Y-122333733D01*
X135448530Y-122320726D01*
X135380864Y-122300653D01*
X135285680Y-122275139D01*
X135169934Y-122245811D01*
X135040583Y-122214293D01*
X134904585Y-122182210D01*
X134768895Y-122151186D01*
X134640471Y-122122848D01*
X134526269Y-122098819D01*
X134433246Y-122080725D01*
X134368359Y-122070191D01*
X134344807Y-122068167D01*
X134292045Y-122081906D01*
X134265219Y-122125819D01*
X134260167Y-122175732D01*
X134244414Y-122209814D01*
X134217464Y-122216334D01*
X134204259Y-122215063D01*
X134194171Y-122207974D01*
X134186852Y-122190157D01*
X134181954Y-122156698D01*
X134179130Y-122102687D01*
X134178032Y-122023210D01*
X134178312Y-121913357D01*
G36*
X134177978Y-120229854D02*
G01*
X134186017Y-120084927D01*
X134201370Y-119972051D01*
X134225671Y-119886182D01*
X134260556Y-119822275D01*
X134307659Y-119775287D01*
X134368614Y-119740171D01*
X134397130Y-119728362D01*
X134514281Y-119705037D01*
X134634496Y-119718743D01*
X134749219Y-119765804D01*
X134849895Y-119842544D01*
X134927972Y-119945286D01*
X134935754Y-119959848D01*
X134958984Y-120010297D01*
X134974993Y-120061242D01*
X134985539Y-120123077D01*
X134992379Y-120206197D01*
X134997271Y-120320996D01*
X134997383Y-120324351D01*
X135001922Y-120436115D01*
X135007482Y-120512300D01*
X135015142Y-120559662D01*
X135025980Y-120584956D01*
X135040576Y-120594803D01*
X135075521Y-120603502D01*
X135140623Y-120618913D01*
X135224746Y-120638418D01*
X135272720Y-120649402D01*
X135380084Y-120671436D01*
X135453335Y-120678834D01*
X135498625Y-120670032D01*
X135522108Y-120643464D01*
X135529934Y-120597565D01*
X135530167Y-120583909D01*
X135537464Y-120538600D01*
X135564209Y-120523362D01*
X135572500Y-120523000D01*
X135589454Y-120525250D01*
X135601156Y-120536395D01*
X135608575Y-120563035D01*
X135612681Y-120611765D01*
X135614444Y-120689184D01*
X135614833Y-120801888D01*
X135614834Y-120811015D01*
X135614332Y-120926852D01*
X135612336Y-121006421D01*
X135608108Y-121055779D01*
X135600912Y-121080983D01*
X135590009Y-121088093D01*
X135581352Y-121086182D01*
X135547610Y-121074975D01*
X135539019Y-121073334D01*
X135532420Y-121055127D01*
X135530167Y-121019026D01*
X135514634Y-120939196D01*
X135466459Y-120885653D01*
X135419204Y-120864224D01*
X135356303Y-120846374D01*
X135264906Y-120823370D01*
X135152117Y-120796723D01*
X135025038Y-120767945D01*
X134900043Y-120740578D01*
X134900043Y-120567364D01*
X134891893Y-120347192D01*
X134887176Y-120245324D01*
X134880456Y-120175235D01*
X134869412Y-120126370D01*
X134851722Y-120088177D01*
X134827150Y-120052822D01*
X134738038Y-119969070D01*
X134627123Y-119920917D01*
X134527177Y-119909167D01*
X134451956Y-119916535D01*
X134393482Y-119944563D01*
X134361042Y-119970887D01*
X134328712Y-120001234D01*
X134308461Y-120029119D01*
X134297462Y-120065106D01*
X134292892Y-120119757D01*
X134291926Y-120203634D01*
X134291917Y-120229373D01*
X134291917Y-120426140D01*
X134535334Y-120481144D01*
X134637697Y-120504434D01*
X134730279Y-120525788D01*
X134802120Y-120542659D01*
X134839397Y-120551756D01*
X134900043Y-120567364D01*
X134900043Y-120740578D01*
X134890771Y-120738547D01*
X134756421Y-120710040D01*
X134629090Y-120683936D01*
X134515880Y-120661747D01*
X134423894Y-120644985D01*
X134360236Y-120635160D01*
X134334250Y-120633332D01*
X134289172Y-120643935D01*
X134269509Y-120673353D01*
X134264117Y-120708209D01*
X134252204Y-120758395D01*
X134225525Y-120776420D01*
X134216492Y-120777000D01*
X134201642Y-120774863D01*
X134190889Y-120764543D01*
X134183577Y-120740184D01*
X134179052Y-120695924D01*
X134176656Y-120625907D01*
X134175734Y-120524273D01*
X134175618Y-120411875D01*
X134177978Y-120229854D01*
G37*
X134177978Y-120229854D02*
X134186017Y-120084927D01*
X134201370Y-119972051D01*
X134225671Y-119886182D01*
X134260556Y-119822275D01*
X134307659Y-119775287D01*
X134368614Y-119740171D01*
X134397130Y-119728362D01*
X134514281Y-119705037D01*
X134634496Y-119718743D01*
X134749219Y-119765804D01*
X134849895Y-119842544D01*
X134927972Y-119945286D01*
X134935754Y-119959848D01*
X134958984Y-120010297D01*
X134974993Y-120061242D01*
X134985539Y-120123077D01*
X134992379Y-120206197D01*
X134997271Y-120320996D01*
X134997383Y-120324351D01*
X135001922Y-120436115D01*
X135007482Y-120512300D01*
X135015142Y-120559662D01*
X135025980Y-120584956D01*
X135040576Y-120594803D01*
X135075521Y-120603502D01*
X135140623Y-120618913D01*
X135224746Y-120638418D01*
X135272720Y-120649402D01*
X135380084Y-120671436D01*
X135453335Y-120678834D01*
X135498625Y-120670032D01*
X135522108Y-120643464D01*
X135529934Y-120597565D01*
X135530167Y-120583909D01*
X135537464Y-120538600D01*
X135564209Y-120523362D01*
X135572500Y-120523000D01*
X135589454Y-120525250D01*
X135601156Y-120536395D01*
X135608575Y-120563035D01*
X135612681Y-120611765D01*
X135614444Y-120689184D01*
X135614833Y-120801888D01*
X135614834Y-120811015D01*
X135614332Y-120926852D01*
X135612336Y-121006421D01*
X135608108Y-121055779D01*
X135600912Y-121080983D01*
X135590009Y-121088093D01*
X135581352Y-121086182D01*
X135547610Y-121074975D01*
X135539019Y-121073334D01*
X135532420Y-121055127D01*
X135530167Y-121019026D01*
X135514634Y-120939196D01*
X135466459Y-120885653D01*
X135419204Y-120864224D01*
X135356303Y-120846374D01*
X135264906Y-120823370D01*
X135152117Y-120796723D01*
X135025038Y-120767945D01*
X134900043Y-120740578D01*
X134900043Y-120567364D01*
X134891893Y-120347192D01*
X134887176Y-120245324D01*
X134880456Y-120175235D01*
X134869412Y-120126370D01*
X134851722Y-120088177D01*
X134827150Y-120052822D01*
X134738038Y-119969070D01*
X134627123Y-119920917D01*
X134527177Y-119909167D01*
X134451956Y-119916535D01*
X134393482Y-119944563D01*
X134361042Y-119970887D01*
X134328712Y-120001234D01*
X134308461Y-120029119D01*
X134297462Y-120065106D01*
X134292892Y-120119757D01*
X134291926Y-120203634D01*
X134291917Y-120229373D01*
X134291917Y-120426140D01*
X134535334Y-120481144D01*
X134637697Y-120504434D01*
X134730279Y-120525788D01*
X134802120Y-120542659D01*
X134839397Y-120551756D01*
X134900043Y-120567364D01*
X134900043Y-120740578D01*
X134890771Y-120738547D01*
X134756421Y-120710040D01*
X134629090Y-120683936D01*
X134515880Y-120661747D01*
X134423894Y-120644985D01*
X134360236Y-120635160D01*
X134334250Y-120633332D01*
X134289172Y-120643935D01*
X134269509Y-120673353D01*
X134264117Y-120708209D01*
X134252204Y-120758395D01*
X134225525Y-120776420D01*
X134216492Y-120777000D01*
X134201642Y-120774863D01*
X134190889Y-120764543D01*
X134183577Y-120740184D01*
X134179052Y-120695924D01*
X134176656Y-120625907D01*
X134175734Y-120524273D01*
X134175618Y-120411875D01*
X134177978Y-120229854D01*
G36*
X134179098Y-117921040D02*
G01*
X134180076Y-117882559D01*
X134186084Y-117655118D01*
X134743700Y-117598346D01*
X134892529Y-117582932D01*
X135026989Y-117568505D01*
X135141492Y-117555706D01*
X135230451Y-117545175D01*
X135288281Y-117537552D01*
X135309346Y-117533544D01*
X135293626Y-117521649D01*
X135245280Y-117491788D01*
X135168708Y-117446521D01*
X135068309Y-117388407D01*
X134948482Y-117320004D01*
X134813626Y-117243873D01*
X134751729Y-117209182D01*
X134186084Y-116892850D01*
X134180050Y-116662793D01*
X134178007Y-116561567D01*
X134178821Y-116495923D01*
X134183361Y-116459158D01*
X134192500Y-116444567D01*
X134207109Y-116445446D01*
X134208239Y-116445868D01*
X134242332Y-116457245D01*
X134251315Y-116459000D01*
X134257185Y-116477628D01*
X134260097Y-116523384D01*
X134260167Y-116532596D01*
X134271498Y-116597238D01*
X134307792Y-116637149D01*
X134343513Y-116651521D01*
X134413700Y-116672584D01*
X134511305Y-116698731D01*
X134629281Y-116728355D01*
X134760582Y-116759849D01*
X134898160Y-116791607D01*
X135034969Y-116822021D01*
X135163962Y-116849484D01*
X135278091Y-116872391D01*
X135370310Y-116889133D01*
X135433572Y-116898104D01*
X135456084Y-116898984D01*
X135501160Y-116888397D01*
X135520822Y-116858994D01*
X135526216Y-116824125D01*
X135538130Y-116773939D01*
X135564809Y-116755914D01*
X135573841Y-116755334D01*
X135590271Y-116757871D01*
X135601613Y-116769870D01*
X135608804Y-116797913D01*
X135612780Y-116848580D01*
X135614477Y-116928453D01*
X135614834Y-117043348D01*
X135614332Y-117159186D01*
X135612336Y-117238754D01*
X135608108Y-117288112D01*
X135600912Y-117313317D01*
X135590009Y-117320426D01*
X135581352Y-117318515D01*
X135547610Y-117307308D01*
X135539019Y-117305667D01*
X135533058Y-117287090D01*
X135530208Y-117241680D01*
X135530167Y-117234864D01*
X135518492Y-117171674D01*
X135492786Y-117130232D01*
X135465715Y-117118828D01*
X135404700Y-117100055D01*
X135316163Y-117075464D01*
X135206524Y-117046607D01*
X135082206Y-117015037D01*
X134949630Y-116982305D01*
X134815216Y-116949962D01*
X134685387Y-116919561D01*
X134566565Y-116892654D01*
X134465170Y-116870792D01*
X134387623Y-116855527D01*
X134340347Y-116848411D01*
X134328832Y-116848946D01*
X134344938Y-116860525D01*
X134393922Y-116890236D01*
X134471634Y-116935692D01*
X134573925Y-116994505D01*
X134696646Y-117064286D01*
X134835647Y-117142648D01*
X134962982Y-117213930D01*
X135143385Y-117315133D01*
X135289388Y-117398323D01*
X135403973Y-117465354D01*
X135490123Y-117518081D01*
X135550819Y-117558358D01*
X135589042Y-117588041D01*
X135607775Y-117608983D01*
X135610776Y-117616829D01*
X135601460Y-117659031D01*
X135579026Y-117672409D01*
X135548719Y-117677123D01*
X135481969Y-117685241D01*
X135384473Y-117696144D01*
X135261932Y-117709214D01*
X135120042Y-117723834D01*
X134964503Y-117739385D01*
X134932209Y-117742557D01*
X134776947Y-117758150D01*
X134636303Y-117773015D01*
X134515525Y-117786538D01*
X134419866Y-117798106D01*
X134354576Y-117807102D01*
X134324905Y-117812913D01*
X134323667Y-117813777D01*
X134343344Y-117822463D01*
X134398076Y-117838075D01*
X134481413Y-117859199D01*
X134586906Y-117884420D01*
X134708105Y-117912326D01*
X134838562Y-117941503D01*
X134971827Y-117970538D01*
X135101451Y-117998017D01*
X135220984Y-118022526D01*
X135323977Y-118042653D01*
X135403980Y-118056983D01*
X135454545Y-118064104D01*
X135467400Y-118064445D01*
X135503736Y-118051621D01*
X135520894Y-118018206D01*
X135526017Y-117979989D01*
X135533944Y-117929405D01*
X135550655Y-117911434D01*
X135573642Y-117913666D01*
X135591104Y-117921406D01*
X135602807Y-117938660D01*
X135609887Y-117972737D01*
X135613483Y-118030943D01*
X135614733Y-118120587D01*
X135614834Y-118178234D01*
X135614237Y-118285800D01*
X135611856Y-118357423D01*
X135606805Y-118399483D01*
X135598196Y-118418361D01*
X135585144Y-118420436D01*
X135581352Y-118419182D01*
X135547610Y-118407975D01*
X135539019Y-118406334D01*
X135533058Y-118387756D01*
X135530208Y-118342347D01*
X135530167Y-118335531D01*
X135517761Y-118270492D01*
X135491792Y-118229999D01*
X135459568Y-118214793D01*
X135392717Y-118193050D01*
X135298152Y-118166367D01*
X135182791Y-118136341D01*
X135053550Y-118104568D01*
X134917344Y-118072646D01*
X134781091Y-118042170D01*
X134651705Y-118014738D01*
X134536103Y-117991945D01*
X134441201Y-117975390D01*
X134373916Y-117966668D01*
X134348108Y-117965968D01*
X134296175Y-117974305D01*
X134272739Y-117995771D01*
X134264117Y-118041209D01*
X134252367Y-118091195D01*
X134225897Y-118109311D01*
X134215776Y-118110000D01*
X134197426Y-118107376D01*
X134185745Y-118094570D01*
X134179571Y-118064179D01*
X134177742Y-118008803D01*
X134179098Y-117921040D01*
G37*
X134179098Y-117921040D02*
X134180076Y-117882559D01*
X134186084Y-117655118D01*
X134743700Y-117598346D01*
X134892529Y-117582932D01*
X135026989Y-117568505D01*
X135141492Y-117555706D01*
X135230451Y-117545175D01*
X135288281Y-117537552D01*
X135309346Y-117533544D01*
X135293626Y-117521649D01*
X135245280Y-117491788D01*
X135168708Y-117446521D01*
X135068309Y-117388407D01*
X134948482Y-117320004D01*
X134813626Y-117243873D01*
X134751729Y-117209182D01*
X134186084Y-116892850D01*
X134180050Y-116662793D01*
X134178007Y-116561567D01*
X134178821Y-116495923D01*
X134183361Y-116459158D01*
X134192500Y-116444567D01*
X134207109Y-116445446D01*
X134208239Y-116445868D01*
X134242332Y-116457245D01*
X134251315Y-116459000D01*
X134257185Y-116477628D01*
X134260097Y-116523384D01*
X134260167Y-116532596D01*
X134271498Y-116597238D01*
X134307792Y-116637149D01*
X134343513Y-116651521D01*
X134413700Y-116672584D01*
X134511305Y-116698731D01*
X134629281Y-116728355D01*
X134760582Y-116759849D01*
X134898160Y-116791607D01*
X135034969Y-116822021D01*
X135163962Y-116849484D01*
X135278091Y-116872391D01*
X135370310Y-116889133D01*
X135433572Y-116898104D01*
X135456084Y-116898984D01*
X135501160Y-116888397D01*
X135520822Y-116858994D01*
X135526216Y-116824125D01*
X135538130Y-116773939D01*
X135564809Y-116755914D01*
X135573841Y-116755334D01*
X135590271Y-116757871D01*
X135601613Y-116769870D01*
X135608804Y-116797913D01*
X135612780Y-116848580D01*
X135614477Y-116928453D01*
X135614834Y-117043348D01*
X135614332Y-117159186D01*
X135612336Y-117238754D01*
X135608108Y-117288112D01*
X135600912Y-117313317D01*
X135590009Y-117320426D01*
X135581352Y-117318515D01*
X135547610Y-117307308D01*
X135539019Y-117305667D01*
X135533058Y-117287090D01*
X135530208Y-117241680D01*
X135530167Y-117234864D01*
X135518492Y-117171674D01*
X135492786Y-117130232D01*
X135465715Y-117118828D01*
X135404700Y-117100055D01*
X135316163Y-117075464D01*
X135206524Y-117046607D01*
X135082206Y-117015037D01*
X134949630Y-116982305D01*
X134815216Y-116949962D01*
X134685387Y-116919561D01*
X134566565Y-116892654D01*
X134465170Y-116870792D01*
X134387623Y-116855527D01*
X134340347Y-116848411D01*
X134328832Y-116848946D01*
X134344938Y-116860525D01*
X134393922Y-116890236D01*
X134471634Y-116935692D01*
X134573925Y-116994505D01*
X134696646Y-117064286D01*
X134835647Y-117142648D01*
X134962982Y-117213930D01*
X135143385Y-117315133D01*
X135289388Y-117398323D01*
X135403973Y-117465354D01*
X135490123Y-117518081D01*
X135550819Y-117558358D01*
X135589042Y-117588041D01*
X135607775Y-117608983D01*
X135610776Y-117616829D01*
X135601460Y-117659031D01*
X135579026Y-117672409D01*
X135548719Y-117677123D01*
X135481969Y-117685241D01*
X135384473Y-117696144D01*
X135261932Y-117709214D01*
X135120042Y-117723834D01*
X134964503Y-117739385D01*
X134932209Y-117742557D01*
X134776947Y-117758150D01*
X134636303Y-117773015D01*
X134515525Y-117786538D01*
X134419866Y-117798106D01*
X134354576Y-117807102D01*
X134324905Y-117812913D01*
X134323667Y-117813777D01*
X134343344Y-117822463D01*
X134398076Y-117838075D01*
X134481413Y-117859199D01*
X134586906Y-117884420D01*
X134708105Y-117912326D01*
X134838562Y-117941503D01*
X134971827Y-117970538D01*
X135101451Y-117998017D01*
X135220984Y-118022526D01*
X135323977Y-118042653D01*
X135403980Y-118056983D01*
X135454545Y-118064104D01*
X135467400Y-118064445D01*
X135503736Y-118051621D01*
X135520894Y-118018206D01*
X135526017Y-117979989D01*
X135533944Y-117929405D01*
X135550655Y-117911434D01*
X135573642Y-117913666D01*
X135591104Y-117921406D01*
X135602807Y-117938660D01*
X135609887Y-117972737D01*
X135613483Y-118030943D01*
X135614733Y-118120587D01*
X135614834Y-118178234D01*
X135614237Y-118285800D01*
X135611856Y-118357423D01*
X135606805Y-118399483D01*
X135598196Y-118418361D01*
X135585144Y-118420436D01*
X135581352Y-118419182D01*
X135547610Y-118407975D01*
X135539019Y-118406334D01*
X135533058Y-118387756D01*
X135530208Y-118342347D01*
X135530167Y-118335531D01*
X135517761Y-118270492D01*
X135491792Y-118229999D01*
X135459568Y-118214793D01*
X135392717Y-118193050D01*
X135298152Y-118166367D01*
X135182791Y-118136341D01*
X135053550Y-118104568D01*
X134917344Y-118072646D01*
X134781091Y-118042170D01*
X134651705Y-118014738D01*
X134536103Y-117991945D01*
X134441201Y-117975390D01*
X134373916Y-117966668D01*
X134348108Y-117965968D01*
X134296175Y-117974305D01*
X134272739Y-117995771D01*
X134264117Y-118041209D01*
X134252367Y-118091195D01*
X134225897Y-118109311D01*
X134215776Y-118110000D01*
X134197426Y-118107376D01*
X134185745Y-118094570D01*
X134179571Y-118064179D01*
X134177742Y-118008803D01*
X134179098Y-117921040D01*
D12*
%TO.C,J7*%
X100147000Y-112370000D02*
X100147000Y-109685000D01*
X100147000Y-109685000D02*
X98227000Y-109685000D01*
X98227000Y-109685000D02*
X98227000Y-112370000D01*
%TO.C,R19*%
X104256064Y-94461000D02*
X103801936Y-94461000D01*
X104256064Y-92991000D02*
X103801936Y-92991000D01*
%TO.C,R18*%
X104256064Y-100430000D02*
X103801936Y-100430000D01*
X104256064Y-98960000D02*
X103801936Y-98960000D01*
%TO.C,R4*%
X104256064Y-97509000D02*
X103801936Y-97509000D01*
X104256064Y-96039000D02*
X103801936Y-96039000D01*
%TO.C,R17*%
X117178064Y-92302000D02*
X116723936Y-92302000D01*
X117178064Y-90832000D02*
X116723936Y-90832000D01*
%TO.C,R16*%
X117194064Y-95350000D02*
X116739936Y-95350000D01*
X117194064Y-93880000D02*
X116739936Y-93880000D01*
%TO.C,R10*%
X117375000Y-109812064D02*
X117375000Y-109357936D01*
X118845000Y-109812064D02*
X118845000Y-109357936D01*
%TO.C,R9*%
X98325000Y-106907064D02*
X98325000Y-106452936D01*
X99795000Y-106907064D02*
X99795000Y-106452936D01*
%TO.C,R8*%
X122455000Y-119962064D02*
X122455000Y-119507936D01*
X123925000Y-119962064D02*
X123925000Y-119507936D01*
%TO.C,R7*%
X118645000Y-119962064D02*
X118645000Y-119507936D01*
X120115000Y-119962064D02*
X120115000Y-119507936D01*
%TO.C,R6*%
X126265000Y-119962064D02*
X126265000Y-119507936D01*
X127735000Y-119962064D02*
X127735000Y-119507936D01*
%TO.C,R5*%
X130075000Y-119962064D02*
X130075000Y-119507936D01*
X131545000Y-119962064D02*
X131545000Y-119507936D01*
%TO.C,R3*%
X128170000Y-92657064D02*
X128170000Y-92202936D01*
X129640000Y-92657064D02*
X129640000Y-92202936D01*
%TO.C,R2*%
X131980000Y-92657064D02*
X131980000Y-92202936D01*
X133450000Y-92657064D02*
X133450000Y-92202936D01*
%TO.C,R1*%
X135790000Y-92657064D02*
X135790000Y-92202936D01*
X137260000Y-92657064D02*
X137260000Y-92202936D01*
%TO.C,R14*%
X136117000Y-40589564D02*
X136117000Y-40135436D01*
X134647000Y-40589564D02*
X134647000Y-40135436D01*
%TO.C,R13*%
X115978000Y-44492936D02*
X115978000Y-44947064D01*
X117448000Y-44492936D02*
X117448000Y-44947064D01*
%TO.C,R12*%
X119915000Y-44492936D02*
X119915000Y-44947064D01*
X121385000Y-44492936D02*
X121385000Y-44947064D01*
%TO.C,R15*%
X123891064Y-72750000D02*
X122436936Y-72750000D01*
X123891064Y-74570000D02*
X122436936Y-74570000D01*
%TO.C,U2*%
X128270000Y-38110000D02*
X124820000Y-38110000D01*
X128270000Y-38110000D02*
X130220000Y-38110000D01*
X128270000Y-46980000D02*
X126320000Y-46980000D01*
X128270000Y-46980000D02*
X130220000Y-46980000D01*
%TO.C,C5*%
X134647000Y-44884748D02*
X134647000Y-45407252D01*
X136117000Y-44884748D02*
X136117000Y-45407252D01*
%TO.C,C4*%
X115978000Y-40063748D02*
X115978000Y-40586252D01*
X117448000Y-40063748D02*
X117448000Y-40586252D01*
%TO.C,C3*%
X119915000Y-40063748D02*
X119915000Y-40586252D01*
X121385000Y-40063748D02*
X121385000Y-40586252D01*
%TO.C,C1*%
X118686252Y-72925000D02*
X118163748Y-72925000D01*
X118686252Y-74395000D02*
X118163748Y-74395000D01*
%TO.C,YMF288*%
X135425000Y-86410000D02*
X135180000Y-86410000D01*
X135425000Y-82550000D02*
X135425000Y-86410000D01*
X117305000Y-82550000D02*
X117305000Y-78690000D01*
X135180000Y-78690000D02*
X135180000Y-76875000D01*
X117305000Y-82550000D02*
X117305000Y-86410000D01*
X135425000Y-78690000D02*
X135180000Y-78690000D01*
X117305000Y-78690000D02*
X117550000Y-78690000D01*
X135425000Y-82550000D02*
X135425000Y-78690000D01*
X117305000Y-86410000D02*
X117550000Y-86410000D01*
%TO.C,BU9480F1*%
X130790000Y-100078500D02*
X130790000Y-103528500D01*
X130790000Y-100078500D02*
X130790000Y-98128500D01*
X135910000Y-100078500D02*
X135910000Y-102028500D01*
X135910000Y-100078500D02*
X135910000Y-98128500D01*
%TO.C,J5*%
X100330000Y-119285333D02*
X101600000Y-119285333D01*
X101530000Y-120492000D02*
X101530000Y-119285333D01*
X101410000Y-120492000D02*
X101410000Y-119285333D01*
X101290000Y-120492000D02*
X101290000Y-119285333D01*
X101170000Y-120492000D02*
X101170000Y-119285333D01*
X101050000Y-120492000D02*
X101050000Y-119285333D01*
X100930000Y-120492000D02*
X100930000Y-119285333D01*
X100810000Y-120492000D02*
X100810000Y-119285333D01*
X100690000Y-120492000D02*
X100690000Y-119285333D01*
X100570000Y-120492000D02*
X100570000Y-119285333D01*
X100450000Y-120492000D02*
X100450000Y-119285333D01*
X100330000Y-116872000D02*
X100330000Y-120492000D01*
X101600000Y-116872000D02*
X100330000Y-116872000D01*
X101600000Y-120492000D02*
X101600000Y-116872000D01*
X100330000Y-120492000D02*
X101600000Y-120492000D01*
X98615000Y-122332000D02*
X99998000Y-122332000D01*
X98615000Y-122332000D02*
X98615000Y-120949000D01*
X101765000Y-115272000D02*
X103075000Y-115272000D01*
X98855000Y-115272000D02*
X100165000Y-115272000D01*
X101765000Y-122092000D02*
X103075000Y-122092000D01*
X98855000Y-122092000D02*
X100165000Y-122092000D01*
X103075000Y-122092000D02*
X103075000Y-115272000D01*
X98855000Y-122092000D02*
X98855000Y-115272000D01*
%TO.C,X1*%
X121887000Y-91696000D02*
X121887000Y-95896000D01*
X125387000Y-91696000D02*
X121887000Y-91696000D01*
%TO.C,C13*%
X125635000Y-107210000D02*
X125135000Y-107210000D01*
X125385000Y-106960000D02*
X125385000Y-107460000D01*
X122629437Y-107700000D02*
X121565000Y-108764437D01*
X125020563Y-107700000D02*
X126085000Y-108764437D01*
X125020563Y-107700000D02*
X124885000Y-107700000D01*
X122629437Y-107700000D02*
X122765000Y-107700000D01*
X121565000Y-108764437D02*
X121565000Y-112220000D01*
X126085000Y-108764437D02*
X126085000Y-112220000D01*
X126085000Y-112220000D02*
X124885000Y-112220000D01*
X121565000Y-112220000D02*
X122765000Y-112220000D01*
%TO.C,C12*%
X123222000Y-99590000D02*
X122722000Y-99590000D01*
X122972000Y-99340000D02*
X122972000Y-99840000D01*
X120216437Y-100080000D02*
X119152000Y-101144437D01*
X122607563Y-100080000D02*
X123672000Y-101144437D01*
X122607563Y-100080000D02*
X122472000Y-100080000D01*
X120216437Y-100080000D02*
X120352000Y-100080000D01*
X119152000Y-101144437D02*
X119152000Y-104600000D01*
X123672000Y-101144437D02*
X123672000Y-104600000D01*
X123672000Y-104600000D02*
X122472000Y-104600000D01*
X119152000Y-104600000D02*
X120352000Y-104600000D01*
%TO.C,C11*%
X128302000Y-99590000D02*
X127802000Y-99590000D01*
X128052000Y-99340000D02*
X128052000Y-99840000D01*
X125296437Y-100080000D02*
X124232000Y-101144437D01*
X127687563Y-100080000D02*
X128752000Y-101144437D01*
X127687563Y-100080000D02*
X127552000Y-100080000D01*
X125296437Y-100080000D02*
X125432000Y-100080000D01*
X124232000Y-101144437D02*
X124232000Y-104600000D01*
X128752000Y-101144437D02*
X128752000Y-104600000D01*
X128752000Y-104600000D02*
X127552000Y-104600000D01*
X124232000Y-104600000D02*
X125432000Y-104600000D01*
%TO.C,C10*%
X135795000Y-107210000D02*
X135295000Y-107210000D01*
X135545000Y-106960000D02*
X135545000Y-107460000D01*
X132789437Y-107700000D02*
X131725000Y-108764437D01*
X135180563Y-107700000D02*
X136245000Y-108764437D01*
X135180563Y-107700000D02*
X135045000Y-107700000D01*
X132789437Y-107700000D02*
X132925000Y-107700000D01*
X131725000Y-108764437D02*
X131725000Y-112220000D01*
X136245000Y-108764437D02*
X136245000Y-112220000D01*
X136245000Y-112220000D02*
X135045000Y-112220000D01*
X131725000Y-112220000D02*
X132925000Y-112220000D01*
%TO.C,C2*%
X130715000Y-107210000D02*
X130215000Y-107210000D01*
X130465000Y-106960000D02*
X130465000Y-107460000D01*
X127709437Y-107700000D02*
X126645000Y-108764437D01*
X130100563Y-107700000D02*
X131165000Y-108764437D01*
X130100563Y-107700000D02*
X129965000Y-107700000D01*
X127709437Y-107700000D02*
X127845000Y-107700000D01*
X126645000Y-108764437D02*
X126645000Y-112220000D01*
X131165000Y-108764437D02*
X131165000Y-112220000D01*
X131165000Y-112220000D02*
X129965000Y-112220000D01*
X126645000Y-112220000D02*
X127845000Y-112220000D01*
%TO.C,J6*%
X113590000Y-123740000D02*
X113090000Y-123740000D01*
X107890000Y-123740000D02*
X107390000Y-123740000D01*
X107890000Y-125740000D02*
X107890000Y-123740000D01*
X113090000Y-125740000D02*
X107890000Y-125740000D01*
X113090000Y-123740000D02*
X113090000Y-125740000D01*
X107390000Y-123740000D02*
X107390000Y-122540000D01*
X107390000Y-120590000D02*
X107390000Y-115340000D01*
X107390000Y-113390000D02*
X107390000Y-113090000D01*
X108140000Y-111540000D02*
X113590000Y-111540000D01*
X113590000Y-113590000D02*
X113590000Y-117190000D01*
X113590000Y-119090000D02*
X113590000Y-120590000D01*
X113590000Y-122440000D02*
X113590000Y-123740000D01*
X113590000Y-122440000D02*
X114940000Y-122440000D01*
X113590000Y-120590000D02*
X114940000Y-120590000D01*
%TO.C,J2*%
X100390000Y-82610000D02*
X99060000Y-82610000D01*
X100390000Y-81280000D02*
X100390000Y-82610000D01*
X100390000Y-80010000D02*
X97730000Y-80010000D01*
X97730000Y-80010000D02*
X97730000Y-64710000D01*
X100390000Y-80010000D02*
X100390000Y-64710000D01*
X100390000Y-64710000D02*
X97730000Y-64710000D01*
%TO.C,J1*%
X97730000Y-85030000D02*
X99060000Y-85030000D01*
X97730000Y-86360000D02*
X97730000Y-85030000D01*
X97730000Y-87630000D02*
X100390000Y-87630000D01*
X100390000Y-87630000D02*
X100390000Y-102930000D01*
X97730000Y-87630000D02*
X97730000Y-102930000D01*
X97730000Y-102930000D02*
X100390000Y-102930000D01*
%TO.C,U1*%
X100350000Y-41910000D02*
X100350000Y-45360000D01*
X100350000Y-41910000D02*
X100350000Y-39960000D01*
X110470000Y-41910000D02*
X110470000Y-43860000D01*
X110470000Y-41910000D02*
X110470000Y-39960000D01*
%TO.C,U10*%
X100330000Y-52090000D02*
X96880000Y-52090000D01*
X100330000Y-52090000D02*
X102280000Y-52090000D01*
X100330000Y-62210000D02*
X98380000Y-62210000D01*
X100330000Y-62210000D02*
X102280000Y-62210000D01*
%TO.C,U9*%
X137140000Y-66040000D02*
X137140000Y-62590000D01*
X137140000Y-66040000D02*
X137140000Y-67990000D01*
X127020000Y-66040000D02*
X127020000Y-64090000D01*
X127020000Y-66040000D02*
X127020000Y-67990000D01*
%TO.C,U8*%
X125710000Y-66040000D02*
X125710000Y-62590000D01*
X125710000Y-66040000D02*
X125710000Y-67990000D01*
X115590000Y-66040000D02*
X115590000Y-64090000D01*
X115590000Y-66040000D02*
X115590000Y-67990000D01*
%TO.C,U7*%
X121285000Y-49550000D02*
X117835000Y-49550000D01*
X121285000Y-49550000D02*
X123235000Y-49550000D01*
X121285000Y-59670000D02*
X119335000Y-59670000D01*
X121285000Y-59670000D02*
X123235000Y-59670000D01*
%TO.C,U6*%
X132715000Y-49550000D02*
X129265000Y-49550000D01*
X132715000Y-49550000D02*
X134665000Y-49550000D01*
X132715000Y-59670000D02*
X130765000Y-59670000D01*
X132715000Y-59670000D02*
X134665000Y-59670000D01*
%TO.C,J7*%
D13*
X100289380Y-111703333D02*
X101003666Y-111703333D01*
X101146523Y-111750952D01*
X101241761Y-111846190D01*
X101289380Y-111989047D01*
X101289380Y-112084285D01*
X100289380Y-111322380D02*
X100289380Y-110655714D01*
X101289380Y-111084285D01*
%TO.C,R19*%
X103386142Y-95828380D02*
X103052809Y-95352190D01*
X102814714Y-95828380D02*
X102814714Y-94828380D01*
X103195666Y-94828380D01*
X103290904Y-94876000D01*
X103338523Y-94923619D01*
X103386142Y-95018857D01*
X103386142Y-95161714D01*
X103338523Y-95256952D01*
X103290904Y-95304571D01*
X103195666Y-95352190D01*
X102814714Y-95352190D01*
X104338523Y-95828380D02*
X103767095Y-95828380D01*
X104052809Y-95828380D02*
X104052809Y-94828380D01*
X103957571Y-94971238D01*
X103862333Y-95066476D01*
X103767095Y-95114095D01*
X104814714Y-95828380D02*
X105005190Y-95828380D01*
X105100428Y-95780761D01*
X105148047Y-95733142D01*
X105243285Y-95590285D01*
X105290904Y-95399809D01*
X105290904Y-95018857D01*
X105243285Y-94923619D01*
X105195666Y-94876000D01*
X105100428Y-94828380D01*
X104909952Y-94828380D01*
X104814714Y-94876000D01*
X104767095Y-94923619D01*
X104719476Y-95018857D01*
X104719476Y-95256952D01*
X104767095Y-95352190D01*
X104814714Y-95399809D01*
X104909952Y-95447428D01*
X105100428Y-95447428D01*
X105195666Y-95399809D01*
X105243285Y-95352190D01*
X105290904Y-95256952D01*
%TO.C,R18*%
X103386142Y-101797380D02*
X103052809Y-101321190D01*
X102814714Y-101797380D02*
X102814714Y-100797380D01*
X103195666Y-100797380D01*
X103290904Y-100845000D01*
X103338523Y-100892619D01*
X103386142Y-100987857D01*
X103386142Y-101130714D01*
X103338523Y-101225952D01*
X103290904Y-101273571D01*
X103195666Y-101321190D01*
X102814714Y-101321190D01*
X104338523Y-101797380D02*
X103767095Y-101797380D01*
X104052809Y-101797380D02*
X104052809Y-100797380D01*
X103957571Y-100940238D01*
X103862333Y-101035476D01*
X103767095Y-101083095D01*
X104909952Y-101225952D02*
X104814714Y-101178333D01*
X104767095Y-101130714D01*
X104719476Y-101035476D01*
X104719476Y-100987857D01*
X104767095Y-100892619D01*
X104814714Y-100845000D01*
X104909952Y-100797380D01*
X105100428Y-100797380D01*
X105195666Y-100845000D01*
X105243285Y-100892619D01*
X105290904Y-100987857D01*
X105290904Y-101035476D01*
X105243285Y-101130714D01*
X105195666Y-101178333D01*
X105100428Y-101225952D01*
X104909952Y-101225952D01*
X104814714Y-101273571D01*
X104767095Y-101321190D01*
X104719476Y-101416428D01*
X104719476Y-101606904D01*
X104767095Y-101702142D01*
X104814714Y-101749761D01*
X104909952Y-101797380D01*
X105100428Y-101797380D01*
X105195666Y-101749761D01*
X105243285Y-101702142D01*
X105290904Y-101606904D01*
X105290904Y-101416428D01*
X105243285Y-101321190D01*
X105195666Y-101273571D01*
X105100428Y-101225952D01*
%TO.C,R4*%
X103862333Y-98876380D02*
X103529000Y-98400190D01*
X103290904Y-98876380D02*
X103290904Y-97876380D01*
X103671857Y-97876380D01*
X103767095Y-97924000D01*
X103814714Y-97971619D01*
X103862333Y-98066857D01*
X103862333Y-98209714D01*
X103814714Y-98304952D01*
X103767095Y-98352571D01*
X103671857Y-98400190D01*
X103290904Y-98400190D01*
X104719476Y-98209714D02*
X104719476Y-98876380D01*
X104481380Y-97828761D02*
X104243285Y-98543047D01*
X104862333Y-98543047D01*
%TO.C,R17*%
X116308142Y-93669380D02*
X115974809Y-93193190D01*
X115736714Y-93669380D02*
X115736714Y-92669380D01*
X116117666Y-92669380D01*
X116212904Y-92717000D01*
X116260523Y-92764619D01*
X116308142Y-92859857D01*
X116308142Y-93002714D01*
X116260523Y-93097952D01*
X116212904Y-93145571D01*
X116117666Y-93193190D01*
X115736714Y-93193190D01*
X117260523Y-93669380D02*
X116689095Y-93669380D01*
X116974809Y-93669380D02*
X116974809Y-92669380D01*
X116879571Y-92812238D01*
X116784333Y-92907476D01*
X116689095Y-92955095D01*
X117593857Y-92669380D02*
X118260523Y-92669380D01*
X117831952Y-93669380D01*
%TO.C,R16*%
X116324142Y-96717380D02*
X115990809Y-96241190D01*
X115752714Y-96717380D02*
X115752714Y-95717380D01*
X116133666Y-95717380D01*
X116228904Y-95765000D01*
X116276523Y-95812619D01*
X116324142Y-95907857D01*
X116324142Y-96050714D01*
X116276523Y-96145952D01*
X116228904Y-96193571D01*
X116133666Y-96241190D01*
X115752714Y-96241190D01*
X117276523Y-96717380D02*
X116705095Y-96717380D01*
X116990809Y-96717380D02*
X116990809Y-95717380D01*
X116895571Y-95860238D01*
X116800333Y-95955476D01*
X116705095Y-96003095D01*
X118133666Y-95717380D02*
X117943190Y-95717380D01*
X117847952Y-95765000D01*
X117800333Y-95812619D01*
X117705095Y-95955476D01*
X117657476Y-96145952D01*
X117657476Y-96526904D01*
X117705095Y-96622142D01*
X117752714Y-96669761D01*
X117847952Y-96717380D01*
X118038428Y-96717380D01*
X118133666Y-96669761D01*
X118181285Y-96622142D01*
X118228904Y-96526904D01*
X118228904Y-96288809D01*
X118181285Y-96193571D01*
X118133666Y-96145952D01*
X118038428Y-96098333D01*
X117847952Y-96098333D01*
X117752714Y-96145952D01*
X117705095Y-96193571D01*
X117657476Y-96288809D01*
%TO.C,R10*%
X116912380Y-110227857D02*
X116436190Y-110561190D01*
X116912380Y-110799285D02*
X115912380Y-110799285D01*
X115912380Y-110418333D01*
X115960000Y-110323095D01*
X116007619Y-110275476D01*
X116102857Y-110227857D01*
X116245714Y-110227857D01*
X116340952Y-110275476D01*
X116388571Y-110323095D01*
X116436190Y-110418333D01*
X116436190Y-110799285D01*
X116912380Y-109275476D02*
X116912380Y-109846904D01*
X116912380Y-109561190D02*
X115912380Y-109561190D01*
X116055238Y-109656428D01*
X116150476Y-109751666D01*
X116198095Y-109846904D01*
X115912380Y-108656428D02*
X115912380Y-108561190D01*
X115960000Y-108465952D01*
X116007619Y-108418333D01*
X116102857Y-108370714D01*
X116293333Y-108323095D01*
X116531428Y-108323095D01*
X116721904Y-108370714D01*
X116817142Y-108418333D01*
X116864761Y-108465952D01*
X116912380Y-108561190D01*
X116912380Y-108656428D01*
X116864761Y-108751666D01*
X116817142Y-108799285D01*
X116721904Y-108846904D01*
X116531428Y-108894523D01*
X116293333Y-108894523D01*
X116102857Y-108846904D01*
X116007619Y-108799285D01*
X115960000Y-108751666D01*
X115912380Y-108656428D01*
%TO.C,R9*%
X97862380Y-106846666D02*
X97386190Y-107180000D01*
X97862380Y-107418095D02*
X96862380Y-107418095D01*
X96862380Y-107037142D01*
X96910000Y-106941904D01*
X96957619Y-106894285D01*
X97052857Y-106846666D01*
X97195714Y-106846666D01*
X97290952Y-106894285D01*
X97338571Y-106941904D01*
X97386190Y-107037142D01*
X97386190Y-107418095D01*
X97862380Y-106370476D02*
X97862380Y-106180000D01*
X97814761Y-106084761D01*
X97767142Y-106037142D01*
X97624285Y-105941904D01*
X97433809Y-105894285D01*
X97052857Y-105894285D01*
X96957619Y-105941904D01*
X96910000Y-105989523D01*
X96862380Y-106084761D01*
X96862380Y-106275238D01*
X96910000Y-106370476D01*
X96957619Y-106418095D01*
X97052857Y-106465714D01*
X97290952Y-106465714D01*
X97386190Y-106418095D01*
X97433809Y-106370476D01*
X97481428Y-106275238D01*
X97481428Y-106084761D01*
X97433809Y-105989523D01*
X97386190Y-105941904D01*
X97290952Y-105894285D01*
%TO.C,R8*%
X121992380Y-119901666D02*
X121516190Y-120235000D01*
X121992380Y-120473095D02*
X120992380Y-120473095D01*
X120992380Y-120092142D01*
X121040000Y-119996904D01*
X121087619Y-119949285D01*
X121182857Y-119901666D01*
X121325714Y-119901666D01*
X121420952Y-119949285D01*
X121468571Y-119996904D01*
X121516190Y-120092142D01*
X121516190Y-120473095D01*
X121420952Y-119330238D02*
X121373333Y-119425476D01*
X121325714Y-119473095D01*
X121230476Y-119520714D01*
X121182857Y-119520714D01*
X121087619Y-119473095D01*
X121040000Y-119425476D01*
X120992380Y-119330238D01*
X120992380Y-119139761D01*
X121040000Y-119044523D01*
X121087619Y-118996904D01*
X121182857Y-118949285D01*
X121230476Y-118949285D01*
X121325714Y-118996904D01*
X121373333Y-119044523D01*
X121420952Y-119139761D01*
X121420952Y-119330238D01*
X121468571Y-119425476D01*
X121516190Y-119473095D01*
X121611428Y-119520714D01*
X121801904Y-119520714D01*
X121897142Y-119473095D01*
X121944761Y-119425476D01*
X121992380Y-119330238D01*
X121992380Y-119139761D01*
X121944761Y-119044523D01*
X121897142Y-118996904D01*
X121801904Y-118949285D01*
X121611428Y-118949285D01*
X121516190Y-118996904D01*
X121468571Y-119044523D01*
X121420952Y-119139761D01*
%TO.C,R7*%
X118182380Y-119901666D02*
X117706190Y-120235000D01*
X118182380Y-120473095D02*
X117182380Y-120473095D01*
X117182380Y-120092142D01*
X117230000Y-119996904D01*
X117277619Y-119949285D01*
X117372857Y-119901666D01*
X117515714Y-119901666D01*
X117610952Y-119949285D01*
X117658571Y-119996904D01*
X117706190Y-120092142D01*
X117706190Y-120473095D01*
X117182380Y-119568333D02*
X117182380Y-118901666D01*
X118182380Y-119330238D01*
%TO.C,R6*%
X125802380Y-119901666D02*
X125326190Y-120235000D01*
X125802380Y-120473095D02*
X124802380Y-120473095D01*
X124802380Y-120092142D01*
X124850000Y-119996904D01*
X124897619Y-119949285D01*
X124992857Y-119901666D01*
X125135714Y-119901666D01*
X125230952Y-119949285D01*
X125278571Y-119996904D01*
X125326190Y-120092142D01*
X125326190Y-120473095D01*
X124802380Y-119044523D02*
X124802380Y-119235000D01*
X124850000Y-119330238D01*
X124897619Y-119377857D01*
X125040476Y-119473095D01*
X125230952Y-119520714D01*
X125611904Y-119520714D01*
X125707142Y-119473095D01*
X125754761Y-119425476D01*
X125802380Y-119330238D01*
X125802380Y-119139761D01*
X125754761Y-119044523D01*
X125707142Y-118996904D01*
X125611904Y-118949285D01*
X125373809Y-118949285D01*
X125278571Y-118996904D01*
X125230952Y-119044523D01*
X125183333Y-119139761D01*
X125183333Y-119330238D01*
X125230952Y-119425476D01*
X125278571Y-119473095D01*
X125373809Y-119520714D01*
%TO.C,R5*%
X129612380Y-119901666D02*
X129136190Y-120235000D01*
X129612380Y-120473095D02*
X128612380Y-120473095D01*
X128612380Y-120092142D01*
X128660000Y-119996904D01*
X128707619Y-119949285D01*
X128802857Y-119901666D01*
X128945714Y-119901666D01*
X129040952Y-119949285D01*
X129088571Y-119996904D01*
X129136190Y-120092142D01*
X129136190Y-120473095D01*
X128612380Y-118996904D02*
X128612380Y-119473095D01*
X129088571Y-119520714D01*
X129040952Y-119473095D01*
X128993333Y-119377857D01*
X128993333Y-119139761D01*
X129040952Y-119044523D01*
X129088571Y-118996904D01*
X129183809Y-118949285D01*
X129421904Y-118949285D01*
X129517142Y-118996904D01*
X129564761Y-119044523D01*
X129612380Y-119139761D01*
X129612380Y-119377857D01*
X129564761Y-119473095D01*
X129517142Y-119520714D01*
%TO.C,R3*%
X127707380Y-92596666D02*
X127231190Y-92930000D01*
X127707380Y-93168095D02*
X126707380Y-93168095D01*
X126707380Y-92787142D01*
X126755000Y-92691904D01*
X126802619Y-92644285D01*
X126897857Y-92596666D01*
X127040714Y-92596666D01*
X127135952Y-92644285D01*
X127183571Y-92691904D01*
X127231190Y-92787142D01*
X127231190Y-93168095D01*
X126707380Y-92263333D02*
X126707380Y-91644285D01*
X127088333Y-91977619D01*
X127088333Y-91834761D01*
X127135952Y-91739523D01*
X127183571Y-91691904D01*
X127278809Y-91644285D01*
X127516904Y-91644285D01*
X127612142Y-91691904D01*
X127659761Y-91739523D01*
X127707380Y-91834761D01*
X127707380Y-92120476D01*
X127659761Y-92215714D01*
X127612142Y-92263333D01*
%TO.C,R2*%
X131517380Y-92596666D02*
X131041190Y-92930000D01*
X131517380Y-93168095D02*
X130517380Y-93168095D01*
X130517380Y-92787142D01*
X130565000Y-92691904D01*
X130612619Y-92644285D01*
X130707857Y-92596666D01*
X130850714Y-92596666D01*
X130945952Y-92644285D01*
X130993571Y-92691904D01*
X131041190Y-92787142D01*
X131041190Y-93168095D01*
X130612619Y-92215714D02*
X130565000Y-92168095D01*
X130517380Y-92072857D01*
X130517380Y-91834761D01*
X130565000Y-91739523D01*
X130612619Y-91691904D01*
X130707857Y-91644285D01*
X130803095Y-91644285D01*
X130945952Y-91691904D01*
X131517380Y-92263333D01*
X131517380Y-91644285D01*
%TO.C,R1*%
X135327380Y-92596666D02*
X134851190Y-92930000D01*
X135327380Y-93168095D02*
X134327380Y-93168095D01*
X134327380Y-92787142D01*
X134375000Y-92691904D01*
X134422619Y-92644285D01*
X134517857Y-92596666D01*
X134660714Y-92596666D01*
X134755952Y-92644285D01*
X134803571Y-92691904D01*
X134851190Y-92787142D01*
X134851190Y-93168095D01*
X135327380Y-91644285D02*
X135327380Y-92215714D01*
X135327380Y-91930000D02*
X134327380Y-91930000D01*
X134470238Y-92025238D01*
X134565476Y-92120476D01*
X134613095Y-92215714D01*
%TO.C,R14*%
X137612380Y-41005357D02*
X137136190Y-41338690D01*
X137612380Y-41576785D02*
X136612380Y-41576785D01*
X136612380Y-41195833D01*
X136660000Y-41100595D01*
X136707619Y-41052976D01*
X136802857Y-41005357D01*
X136945714Y-41005357D01*
X137040952Y-41052976D01*
X137088571Y-41100595D01*
X137136190Y-41195833D01*
X137136190Y-41576785D01*
X137612380Y-40052976D02*
X137612380Y-40624404D01*
X137612380Y-40338690D02*
X136612380Y-40338690D01*
X136755238Y-40433928D01*
X136850476Y-40529166D01*
X136898095Y-40624404D01*
X136945714Y-39195833D02*
X137612380Y-39195833D01*
X136564761Y-39433928D02*
X137279047Y-39672023D01*
X137279047Y-39052976D01*
%TO.C,R13*%
X118815380Y-45362857D02*
X118339190Y-45696190D01*
X118815380Y-45934285D02*
X117815380Y-45934285D01*
X117815380Y-45553333D01*
X117863000Y-45458095D01*
X117910619Y-45410476D01*
X118005857Y-45362857D01*
X118148714Y-45362857D01*
X118243952Y-45410476D01*
X118291571Y-45458095D01*
X118339190Y-45553333D01*
X118339190Y-45934285D01*
X118815380Y-44410476D02*
X118815380Y-44981904D01*
X118815380Y-44696190D02*
X117815380Y-44696190D01*
X117958238Y-44791428D01*
X118053476Y-44886666D01*
X118101095Y-44981904D01*
X117815380Y-44077142D02*
X117815380Y-43458095D01*
X118196333Y-43791428D01*
X118196333Y-43648571D01*
X118243952Y-43553333D01*
X118291571Y-43505714D01*
X118386809Y-43458095D01*
X118624904Y-43458095D01*
X118720142Y-43505714D01*
X118767761Y-43553333D01*
X118815380Y-43648571D01*
X118815380Y-43934285D01*
X118767761Y-44029523D01*
X118720142Y-44077142D01*
%TO.C,R12*%
X122752380Y-45362857D02*
X122276190Y-45696190D01*
X122752380Y-45934285D02*
X121752380Y-45934285D01*
X121752380Y-45553333D01*
X121800000Y-45458095D01*
X121847619Y-45410476D01*
X121942857Y-45362857D01*
X122085714Y-45362857D01*
X122180952Y-45410476D01*
X122228571Y-45458095D01*
X122276190Y-45553333D01*
X122276190Y-45934285D01*
X122752380Y-44410476D02*
X122752380Y-44981904D01*
X122752380Y-44696190D02*
X121752380Y-44696190D01*
X121895238Y-44791428D01*
X121990476Y-44886666D01*
X122038095Y-44981904D01*
X121847619Y-44029523D02*
X121800000Y-43981904D01*
X121752380Y-43886666D01*
X121752380Y-43648571D01*
X121800000Y-43553333D01*
X121847619Y-43505714D01*
X121942857Y-43458095D01*
X122038095Y-43458095D01*
X122180952Y-43505714D01*
X122752380Y-44077142D01*
X122752380Y-43458095D01*
%TO.C,R15*%
X122521142Y-75932380D02*
X122187809Y-75456190D01*
X121949714Y-75932380D02*
X121949714Y-74932380D01*
X122330666Y-74932380D01*
X122425904Y-74980000D01*
X122473523Y-75027619D01*
X122521142Y-75122857D01*
X122521142Y-75265714D01*
X122473523Y-75360952D01*
X122425904Y-75408571D01*
X122330666Y-75456190D01*
X121949714Y-75456190D01*
X123473523Y-75932380D02*
X122902095Y-75932380D01*
X123187809Y-75932380D02*
X123187809Y-74932380D01*
X123092571Y-75075238D01*
X122997333Y-75170476D01*
X122902095Y-75218095D01*
X124378285Y-74932380D02*
X123902095Y-74932380D01*
X123854476Y-75408571D01*
X123902095Y-75360952D01*
X123997333Y-75313333D01*
X124235428Y-75313333D01*
X124330666Y-75360952D01*
X124378285Y-75408571D01*
X124425904Y-75503809D01*
X124425904Y-75741904D01*
X124378285Y-75837142D01*
X124330666Y-75884761D01*
X124235428Y-75932380D01*
X123997333Y-75932380D01*
X123902095Y-75884761D01*
X123854476Y-75837142D01*
%TO.C,U2*%
X127508095Y-36717380D02*
X127508095Y-37526904D01*
X127555714Y-37622142D01*
X127603333Y-37669761D01*
X127698571Y-37717380D01*
X127889047Y-37717380D01*
X127984285Y-37669761D01*
X128031904Y-37622142D01*
X128079523Y-37526904D01*
X128079523Y-36717380D01*
X128508095Y-36812619D02*
X128555714Y-36765000D01*
X128650952Y-36717380D01*
X128889047Y-36717380D01*
X128984285Y-36765000D01*
X129031904Y-36812619D01*
X129079523Y-36907857D01*
X129079523Y-37003095D01*
X129031904Y-37145952D01*
X128460476Y-37717380D01*
X129079523Y-37717380D01*
X124508095Y-47277380D02*
X125174761Y-47277380D01*
X124746190Y-48277380D01*
X125984285Y-47610714D02*
X125984285Y-48277380D01*
X125746190Y-47229761D02*
X125508095Y-47944047D01*
X126127142Y-47944047D01*
X126508095Y-48277380D02*
X126508095Y-47277380D01*
X126508095Y-47753571D02*
X127079523Y-47753571D01*
X127079523Y-48277380D02*
X127079523Y-47277380D01*
X128127142Y-48182142D02*
X128079523Y-48229761D01*
X127936666Y-48277380D01*
X127841428Y-48277380D01*
X127698571Y-48229761D01*
X127603333Y-48134523D01*
X127555714Y-48039285D01*
X127508095Y-47848809D01*
X127508095Y-47705952D01*
X127555714Y-47515476D01*
X127603333Y-47420238D01*
X127698571Y-47325000D01*
X127841428Y-47277380D01*
X127936666Y-47277380D01*
X128079523Y-47325000D01*
X128127142Y-47372619D01*
X129079523Y-48277380D02*
X128508095Y-48277380D01*
X128793809Y-48277380D02*
X128793809Y-47277380D01*
X128698571Y-47420238D01*
X128603333Y-47515476D01*
X128508095Y-47563095D01*
X129412857Y-47277380D02*
X130031904Y-47277380D01*
X129698571Y-47658333D01*
X129841428Y-47658333D01*
X129936666Y-47705952D01*
X129984285Y-47753571D01*
X130031904Y-47848809D01*
X130031904Y-48086904D01*
X129984285Y-48182142D01*
X129936666Y-48229761D01*
X129841428Y-48277380D01*
X129555714Y-48277380D01*
X129460476Y-48229761D01*
X129412857Y-48182142D01*
X130412857Y-47372619D02*
X130460476Y-47325000D01*
X130555714Y-47277380D01*
X130793809Y-47277380D01*
X130889047Y-47325000D01*
X130936666Y-47372619D01*
X130984285Y-47467857D01*
X130984285Y-47563095D01*
X130936666Y-47705952D01*
X130365238Y-48277380D01*
X130984285Y-48277380D01*
X131412857Y-48277380D02*
X131412857Y-47277380D01*
X131650952Y-47277380D01*
X131793809Y-47325000D01*
X131889047Y-47420238D01*
X131936666Y-47515476D01*
X131984285Y-47705952D01*
X131984285Y-47848809D01*
X131936666Y-48039285D01*
X131889047Y-48134523D01*
X131793809Y-48229761D01*
X131650952Y-48277380D01*
X131412857Y-48277380D01*
%TO.C,C5*%
X137419142Y-45312666D02*
X137466761Y-45360285D01*
X137514380Y-45503142D01*
X137514380Y-45598380D01*
X137466761Y-45741238D01*
X137371523Y-45836476D01*
X137276285Y-45884095D01*
X137085809Y-45931714D01*
X136942952Y-45931714D01*
X136752476Y-45884095D01*
X136657238Y-45836476D01*
X136562000Y-45741238D01*
X136514380Y-45598380D01*
X136514380Y-45503142D01*
X136562000Y-45360285D01*
X136609619Y-45312666D01*
X136514380Y-44407904D02*
X136514380Y-44884095D01*
X136990571Y-44931714D01*
X136942952Y-44884095D01*
X136895333Y-44788857D01*
X136895333Y-44550761D01*
X136942952Y-44455523D01*
X136990571Y-44407904D01*
X137085809Y-44360285D01*
X137323904Y-44360285D01*
X137419142Y-44407904D01*
X137466761Y-44455523D01*
X137514380Y-44550761D01*
X137514380Y-44788857D01*
X137466761Y-44884095D01*
X137419142Y-44931714D01*
%TO.C,C4*%
X118750142Y-40491666D02*
X118797761Y-40539285D01*
X118845380Y-40682142D01*
X118845380Y-40777380D01*
X118797761Y-40920238D01*
X118702523Y-41015476D01*
X118607285Y-41063095D01*
X118416809Y-41110714D01*
X118273952Y-41110714D01*
X118083476Y-41063095D01*
X117988238Y-41015476D01*
X117893000Y-40920238D01*
X117845380Y-40777380D01*
X117845380Y-40682142D01*
X117893000Y-40539285D01*
X117940619Y-40491666D01*
X118178714Y-39634523D02*
X118845380Y-39634523D01*
X117797761Y-39872619D02*
X118512047Y-40110714D01*
X118512047Y-39491666D01*
%TO.C,C3*%
X122687142Y-40491666D02*
X122734761Y-40539285D01*
X122782380Y-40682142D01*
X122782380Y-40777380D01*
X122734761Y-40920238D01*
X122639523Y-41015476D01*
X122544285Y-41063095D01*
X122353809Y-41110714D01*
X122210952Y-41110714D01*
X122020476Y-41063095D01*
X121925238Y-41015476D01*
X121830000Y-40920238D01*
X121782380Y-40777380D01*
X121782380Y-40682142D01*
X121830000Y-40539285D01*
X121877619Y-40491666D01*
X121782380Y-40158333D02*
X121782380Y-39539285D01*
X122163333Y-39872619D01*
X122163333Y-39729761D01*
X122210952Y-39634523D01*
X122258571Y-39586904D01*
X122353809Y-39539285D01*
X122591904Y-39539285D01*
X122687142Y-39586904D01*
X122734761Y-39634523D01*
X122782380Y-39729761D01*
X122782380Y-40015476D01*
X122734761Y-40110714D01*
X122687142Y-40158333D01*
%TO.C,C1*%
X118258333Y-75697142D02*
X118210714Y-75744761D01*
X118067857Y-75792380D01*
X117972619Y-75792380D01*
X117829761Y-75744761D01*
X117734523Y-75649523D01*
X117686904Y-75554285D01*
X117639285Y-75363809D01*
X117639285Y-75220952D01*
X117686904Y-75030476D01*
X117734523Y-74935238D01*
X117829761Y-74840000D01*
X117972619Y-74792380D01*
X118067857Y-74792380D01*
X118210714Y-74840000D01*
X118258333Y-74887619D01*
X119210714Y-75792380D02*
X118639285Y-75792380D01*
X118925000Y-75792380D02*
X118925000Y-74792380D01*
X118829761Y-74935238D01*
X118734523Y-75030476D01*
X118639285Y-75078095D01*
%TO.C,YMF288*%
X136501190Y-84978571D02*
X136977380Y-84978571D01*
X135977380Y-85311904D02*
X136501190Y-84978571D01*
X135977380Y-84645238D01*
X136977380Y-84311904D02*
X135977380Y-84311904D01*
X136691666Y-83978571D01*
X135977380Y-83645238D01*
X136977380Y-83645238D01*
X136453571Y-82835714D02*
X136453571Y-83169047D01*
X136977380Y-83169047D02*
X135977380Y-83169047D01*
X135977380Y-82692857D01*
X136072619Y-82359523D02*
X136025000Y-82311904D01*
X135977380Y-82216666D01*
X135977380Y-81978571D01*
X136025000Y-81883333D01*
X136072619Y-81835714D01*
X136167857Y-81788095D01*
X136263095Y-81788095D01*
X136405952Y-81835714D01*
X136977380Y-82407142D01*
X136977380Y-81788095D01*
X136405952Y-81216666D02*
X136358333Y-81311904D01*
X136310714Y-81359523D01*
X136215476Y-81407142D01*
X136167857Y-81407142D01*
X136072619Y-81359523D01*
X136025000Y-81311904D01*
X135977380Y-81216666D01*
X135977380Y-81026190D01*
X136025000Y-80930952D01*
X136072619Y-80883333D01*
X136167857Y-80835714D01*
X136215476Y-80835714D01*
X136310714Y-80883333D01*
X136358333Y-80930952D01*
X136405952Y-81026190D01*
X136405952Y-81216666D01*
X136453571Y-81311904D01*
X136501190Y-81359523D01*
X136596428Y-81407142D01*
X136786904Y-81407142D01*
X136882142Y-81359523D01*
X136929761Y-81311904D01*
X136977380Y-81216666D01*
X136977380Y-81026190D01*
X136929761Y-80930952D01*
X136882142Y-80883333D01*
X136786904Y-80835714D01*
X136596428Y-80835714D01*
X136501190Y-80883333D01*
X136453571Y-80930952D01*
X136405952Y-81026190D01*
X136405952Y-80264285D02*
X136358333Y-80359523D01*
X136310714Y-80407142D01*
X136215476Y-80454761D01*
X136167857Y-80454761D01*
X136072619Y-80407142D01*
X136025000Y-80359523D01*
X135977380Y-80264285D01*
X135977380Y-80073809D01*
X136025000Y-79978571D01*
X136072619Y-79930952D01*
X136167857Y-79883333D01*
X136215476Y-79883333D01*
X136310714Y-79930952D01*
X136358333Y-79978571D01*
X136405952Y-80073809D01*
X136405952Y-80264285D01*
X136453571Y-80359523D01*
X136501190Y-80407142D01*
X136596428Y-80454761D01*
X136786904Y-80454761D01*
X136882142Y-80407142D01*
X136929761Y-80359523D01*
X136977380Y-80264285D01*
X136977380Y-80073809D01*
X136929761Y-79978571D01*
X136882142Y-79930952D01*
X136786904Y-79883333D01*
X136596428Y-79883333D01*
X136501190Y-79930952D01*
X136453571Y-79978571D01*
X136405952Y-80073809D01*
%TO.C,BU9480F1*%
X129878571Y-103340404D02*
X129926190Y-103197547D01*
X129973809Y-103149928D01*
X130069047Y-103102309D01*
X130211904Y-103102309D01*
X130307142Y-103149928D01*
X130354761Y-103197547D01*
X130402380Y-103292785D01*
X130402380Y-103673738D01*
X129402380Y-103673738D01*
X129402380Y-103340404D01*
X129450000Y-103245166D01*
X129497619Y-103197547D01*
X129592857Y-103149928D01*
X129688095Y-103149928D01*
X129783333Y-103197547D01*
X129830952Y-103245166D01*
X129878571Y-103340404D01*
X129878571Y-103673738D01*
X129402380Y-102673738D02*
X130211904Y-102673738D01*
X130307142Y-102626119D01*
X130354761Y-102578500D01*
X130402380Y-102483261D01*
X130402380Y-102292785D01*
X130354761Y-102197547D01*
X130307142Y-102149928D01*
X130211904Y-102102309D01*
X129402380Y-102102309D01*
X130402380Y-101578500D02*
X130402380Y-101388023D01*
X130354761Y-101292785D01*
X130307142Y-101245166D01*
X130164285Y-101149928D01*
X129973809Y-101102309D01*
X129592857Y-101102309D01*
X129497619Y-101149928D01*
X129450000Y-101197547D01*
X129402380Y-101292785D01*
X129402380Y-101483261D01*
X129450000Y-101578500D01*
X129497619Y-101626119D01*
X129592857Y-101673738D01*
X129830952Y-101673738D01*
X129926190Y-101626119D01*
X129973809Y-101578500D01*
X130021428Y-101483261D01*
X130021428Y-101292785D01*
X129973809Y-101197547D01*
X129926190Y-101149928D01*
X129830952Y-101102309D01*
X129735714Y-100245166D02*
X130402380Y-100245166D01*
X129354761Y-100483261D02*
X130069047Y-100721357D01*
X130069047Y-100102309D01*
X129830952Y-99578500D02*
X129783333Y-99673738D01*
X129735714Y-99721357D01*
X129640476Y-99768976D01*
X129592857Y-99768976D01*
X129497619Y-99721357D01*
X129450000Y-99673738D01*
X129402380Y-99578500D01*
X129402380Y-99388023D01*
X129450000Y-99292785D01*
X129497619Y-99245166D01*
X129592857Y-99197547D01*
X129640476Y-99197547D01*
X129735714Y-99245166D01*
X129783333Y-99292785D01*
X129830952Y-99388023D01*
X129830952Y-99578500D01*
X129878571Y-99673738D01*
X129926190Y-99721357D01*
X130021428Y-99768976D01*
X130211904Y-99768976D01*
X130307142Y-99721357D01*
X130354761Y-99673738D01*
X130402380Y-99578500D01*
X130402380Y-99388023D01*
X130354761Y-99292785D01*
X130307142Y-99245166D01*
X130211904Y-99197547D01*
X130021428Y-99197547D01*
X129926190Y-99245166D01*
X129878571Y-99292785D01*
X129830952Y-99388023D01*
X129402380Y-98578500D02*
X129402380Y-98483261D01*
X129450000Y-98388023D01*
X129497619Y-98340404D01*
X129592857Y-98292785D01*
X129783333Y-98245166D01*
X130021428Y-98245166D01*
X130211904Y-98292785D01*
X130307142Y-98340404D01*
X130354761Y-98388023D01*
X130402380Y-98483261D01*
X130402380Y-98578500D01*
X130354761Y-98673738D01*
X130307142Y-98721357D01*
X130211904Y-98768976D01*
X130021428Y-98816595D01*
X129783333Y-98816595D01*
X129592857Y-98768976D01*
X129497619Y-98721357D01*
X129450000Y-98673738D01*
X129402380Y-98578500D01*
X129878571Y-97483261D02*
X129878571Y-97816595D01*
X130402380Y-97816595D02*
X129402380Y-97816595D01*
X129402380Y-97340404D01*
X130402380Y-96435642D02*
X130402380Y-97007071D01*
X130402380Y-96721357D02*
X129402380Y-96721357D01*
X129545238Y-96816595D01*
X129640476Y-96911833D01*
X129688095Y-97007071D01*
%TO.C,J5*%
X97307380Y-119015333D02*
X98021666Y-119015333D01*
X98164523Y-119062952D01*
X98259761Y-119158190D01*
X98307380Y-119301047D01*
X98307380Y-119396285D01*
X97307380Y-118062952D02*
X97307380Y-118539142D01*
X97783571Y-118586761D01*
X97735952Y-118539142D01*
X97688333Y-118443904D01*
X97688333Y-118205809D01*
X97735952Y-118110571D01*
X97783571Y-118062952D01*
X97878809Y-118015333D01*
X98116904Y-118015333D01*
X98212142Y-118062952D01*
X98259761Y-118110571D01*
X98307380Y-118205809D01*
X98307380Y-118443904D01*
X98259761Y-118539142D01*
X98212142Y-118586761D01*
%TO.C,X1*%
X125639380Y-94605523D02*
X126639380Y-93938857D01*
X125639380Y-93938857D02*
X126639380Y-94605523D01*
X126639380Y-93034095D02*
X126639380Y-93605523D01*
X126639380Y-93319809D02*
X125639380Y-93319809D01*
X125782238Y-93415047D01*
X125877476Y-93510285D01*
X125925095Y-93605523D01*
%TO.C,C13*%
X122420142Y-106402142D02*
X122372523Y-106449761D01*
X122229666Y-106497380D01*
X122134428Y-106497380D01*
X121991571Y-106449761D01*
X121896333Y-106354523D01*
X121848714Y-106259285D01*
X121801095Y-106068809D01*
X121801095Y-105925952D01*
X121848714Y-105735476D01*
X121896333Y-105640238D01*
X121991571Y-105545000D01*
X122134428Y-105497380D01*
X122229666Y-105497380D01*
X122372523Y-105545000D01*
X122420142Y-105592619D01*
X123372523Y-106497380D02*
X122801095Y-106497380D01*
X123086809Y-106497380D02*
X123086809Y-105497380D01*
X122991571Y-105640238D01*
X122896333Y-105735476D01*
X122801095Y-105783095D01*
X123705857Y-105497380D02*
X124324904Y-105497380D01*
X123991571Y-105878333D01*
X124134428Y-105878333D01*
X124229666Y-105925952D01*
X124277285Y-105973571D01*
X124324904Y-106068809D01*
X124324904Y-106306904D01*
X124277285Y-106402142D01*
X124229666Y-106449761D01*
X124134428Y-106497380D01*
X123848714Y-106497380D01*
X123753476Y-106449761D01*
X123705857Y-106402142D01*
%TO.C,C12*%
X120007142Y-98909142D02*
X119959523Y-98956761D01*
X119816666Y-99004380D01*
X119721428Y-99004380D01*
X119578571Y-98956761D01*
X119483333Y-98861523D01*
X119435714Y-98766285D01*
X119388095Y-98575809D01*
X119388095Y-98432952D01*
X119435714Y-98242476D01*
X119483333Y-98147238D01*
X119578571Y-98052000D01*
X119721428Y-98004380D01*
X119816666Y-98004380D01*
X119959523Y-98052000D01*
X120007142Y-98099619D01*
X120959523Y-99004380D02*
X120388095Y-99004380D01*
X120673809Y-99004380D02*
X120673809Y-98004380D01*
X120578571Y-98147238D01*
X120483333Y-98242476D01*
X120388095Y-98290095D01*
X121340476Y-98099619D02*
X121388095Y-98052000D01*
X121483333Y-98004380D01*
X121721428Y-98004380D01*
X121816666Y-98052000D01*
X121864285Y-98099619D01*
X121911904Y-98194857D01*
X121911904Y-98290095D01*
X121864285Y-98432952D01*
X121292857Y-99004380D01*
X121911904Y-99004380D01*
%TO.C,C11*%
X125087142Y-98909142D02*
X125039523Y-98956761D01*
X124896666Y-99004380D01*
X124801428Y-99004380D01*
X124658571Y-98956761D01*
X124563333Y-98861523D01*
X124515714Y-98766285D01*
X124468095Y-98575809D01*
X124468095Y-98432952D01*
X124515714Y-98242476D01*
X124563333Y-98147238D01*
X124658571Y-98052000D01*
X124801428Y-98004380D01*
X124896666Y-98004380D01*
X125039523Y-98052000D01*
X125087142Y-98099619D01*
X126039523Y-99004380D02*
X125468095Y-99004380D01*
X125753809Y-99004380D02*
X125753809Y-98004380D01*
X125658571Y-98147238D01*
X125563333Y-98242476D01*
X125468095Y-98290095D01*
X126991904Y-99004380D02*
X126420476Y-99004380D01*
X126706190Y-99004380D02*
X126706190Y-98004380D01*
X126610952Y-98147238D01*
X126515714Y-98242476D01*
X126420476Y-98290095D01*
%TO.C,C10*%
X132707142Y-106402142D02*
X132659523Y-106449761D01*
X132516666Y-106497380D01*
X132421428Y-106497380D01*
X132278571Y-106449761D01*
X132183333Y-106354523D01*
X132135714Y-106259285D01*
X132088095Y-106068809D01*
X132088095Y-105925952D01*
X132135714Y-105735476D01*
X132183333Y-105640238D01*
X132278571Y-105545000D01*
X132421428Y-105497380D01*
X132516666Y-105497380D01*
X132659523Y-105545000D01*
X132707142Y-105592619D01*
X133659523Y-106497380D02*
X133088095Y-106497380D01*
X133373809Y-106497380D02*
X133373809Y-105497380D01*
X133278571Y-105640238D01*
X133183333Y-105735476D01*
X133088095Y-105783095D01*
X134278571Y-105497380D02*
X134373809Y-105497380D01*
X134469047Y-105545000D01*
X134516666Y-105592619D01*
X134564285Y-105687857D01*
X134611904Y-105878333D01*
X134611904Y-106116428D01*
X134564285Y-106306904D01*
X134516666Y-106402142D01*
X134469047Y-106449761D01*
X134373809Y-106497380D01*
X134278571Y-106497380D01*
X134183333Y-106449761D01*
X134135714Y-106402142D01*
X134088095Y-106306904D01*
X134040476Y-106116428D01*
X134040476Y-105878333D01*
X134088095Y-105687857D01*
X134135714Y-105592619D01*
X134183333Y-105545000D01*
X134278571Y-105497380D01*
%TO.C,C2*%
X127976333Y-106402142D02*
X127928714Y-106449761D01*
X127785857Y-106497380D01*
X127690619Y-106497380D01*
X127547761Y-106449761D01*
X127452523Y-106354523D01*
X127404904Y-106259285D01*
X127357285Y-106068809D01*
X127357285Y-105925952D01*
X127404904Y-105735476D01*
X127452523Y-105640238D01*
X127547761Y-105545000D01*
X127690619Y-105497380D01*
X127785857Y-105497380D01*
X127928714Y-105545000D01*
X127976333Y-105592619D01*
X128357285Y-105592619D02*
X128404904Y-105545000D01*
X128500142Y-105497380D01*
X128738238Y-105497380D01*
X128833476Y-105545000D01*
X128881095Y-105592619D01*
X128928714Y-105687857D01*
X128928714Y-105783095D01*
X128881095Y-105925952D01*
X128309666Y-106497380D01*
X128928714Y-106497380D01*
%TO.C,J6*%
X110156666Y-126452380D02*
X110156666Y-127166666D01*
X110109047Y-127309523D01*
X110013809Y-127404761D01*
X109870952Y-127452380D01*
X109775714Y-127452380D01*
X111061428Y-126452380D02*
X110870952Y-126452380D01*
X110775714Y-126500000D01*
X110728095Y-126547619D01*
X110632857Y-126690476D01*
X110585238Y-126880952D01*
X110585238Y-127261904D01*
X110632857Y-127357142D01*
X110680476Y-127404761D01*
X110775714Y-127452380D01*
X110966190Y-127452380D01*
X111061428Y-127404761D01*
X111109047Y-127357142D01*
X111156666Y-127261904D01*
X111156666Y-127023809D01*
X111109047Y-126928571D01*
X111061428Y-126880952D01*
X110966190Y-126833333D01*
X110775714Y-126833333D01*
X110680476Y-126880952D01*
X110632857Y-126928571D01*
X110585238Y-127023809D01*
%TO.C,J2*%
X98726666Y-83062380D02*
X98726666Y-83776666D01*
X98679047Y-83919523D01*
X98583809Y-84014761D01*
X98440952Y-84062380D01*
X98345714Y-84062380D01*
X99155238Y-83157619D02*
X99202857Y-83110000D01*
X99298095Y-83062380D01*
X99536190Y-83062380D01*
X99631428Y-83110000D01*
X99679047Y-83157619D01*
X99726666Y-83252857D01*
X99726666Y-83348095D01*
X99679047Y-83490952D01*
X99107619Y-84062380D01*
X99726666Y-84062380D01*
X102052380Y-79826666D02*
X101052380Y-79826666D01*
X102052380Y-79255238D01*
X101052380Y-79255238D01*
X101528571Y-78779047D02*
X101528571Y-78445714D01*
X102052380Y-78302857D02*
X102052380Y-78779047D01*
X101052380Y-78779047D01*
X101052380Y-78302857D01*
X102004761Y-77921904D02*
X102052380Y-77779047D01*
X102052380Y-77540952D01*
X102004761Y-77445714D01*
X101957142Y-77398095D01*
X101861904Y-77350476D01*
X101766666Y-77350476D01*
X101671428Y-77398095D01*
X101623809Y-77445714D01*
X101576190Y-77540952D01*
X101528571Y-77731428D01*
X101480952Y-77826666D01*
X101433333Y-77874285D01*
X101338095Y-77921904D01*
X101242857Y-77921904D01*
X101147619Y-77874285D01*
X101100000Y-77826666D01*
X101052380Y-77731428D01*
X101052380Y-77493333D01*
X101100000Y-77350476D01*
X101671428Y-76921904D02*
X101671428Y-76160000D01*
X102004761Y-75731428D02*
X102052380Y-75588571D01*
X102052380Y-75350476D01*
X102004761Y-75255238D01*
X101957142Y-75207619D01*
X101861904Y-75160000D01*
X101766666Y-75160000D01*
X101671428Y-75207619D01*
X101623809Y-75255238D01*
X101576190Y-75350476D01*
X101528571Y-75540952D01*
X101480952Y-75636190D01*
X101433333Y-75683809D01*
X101338095Y-75731428D01*
X101242857Y-75731428D01*
X101147619Y-75683809D01*
X101100000Y-75636190D01*
X101052380Y-75540952D01*
X101052380Y-75302857D01*
X101100000Y-75160000D01*
X102052380Y-74731428D02*
X101052380Y-74731428D01*
X102052380Y-74160000D01*
X101052380Y-74160000D01*
X101528571Y-73683809D02*
X101528571Y-73350476D01*
X102052380Y-73207619D02*
X102052380Y-73683809D01*
X101052380Y-73683809D01*
X101052380Y-73207619D01*
X102004761Y-72826666D02*
X102052380Y-72683809D01*
X102052380Y-72445714D01*
X102004761Y-72350476D01*
X101957142Y-72302857D01*
X101861904Y-72255238D01*
X101766666Y-72255238D01*
X101671428Y-72302857D01*
X101623809Y-72350476D01*
X101576190Y-72445714D01*
X101528571Y-72636190D01*
X101480952Y-72731428D01*
X101433333Y-72779047D01*
X101338095Y-72826666D01*
X101242857Y-72826666D01*
X101147619Y-72779047D01*
X101100000Y-72731428D01*
X101052380Y-72636190D01*
X101052380Y-72398095D01*
X101100000Y-72255238D01*
X102052380Y-71064761D02*
X101052380Y-71064761D01*
X101052380Y-70683809D01*
X101100000Y-70588571D01*
X101147619Y-70540952D01*
X101242857Y-70493333D01*
X101385714Y-70493333D01*
X101480952Y-70540952D01*
X101528571Y-70588571D01*
X101576190Y-70683809D01*
X101576190Y-71064761D01*
X102052380Y-69921904D02*
X102004761Y-70017142D01*
X101957142Y-70064761D01*
X101861904Y-70112380D01*
X101576190Y-70112380D01*
X101480952Y-70064761D01*
X101433333Y-70017142D01*
X101385714Y-69921904D01*
X101385714Y-69779047D01*
X101433333Y-69683809D01*
X101480952Y-69636190D01*
X101576190Y-69588571D01*
X101861904Y-69588571D01*
X101957142Y-69636190D01*
X102004761Y-69683809D01*
X102052380Y-69779047D01*
X102052380Y-69921904D01*
X102052380Y-69160000D02*
X101385714Y-69160000D01*
X101576190Y-69160000D02*
X101480952Y-69112380D01*
X101433333Y-69064761D01*
X101385714Y-68969523D01*
X101385714Y-68874285D01*
X101385714Y-68683809D02*
X101385714Y-68302857D01*
X101052380Y-68540952D02*
X101909523Y-68540952D01*
X102004761Y-68493333D01*
X102052380Y-68398095D01*
X102052380Y-68302857D01*
X101147619Y-68017142D02*
X101100000Y-67969523D01*
X101052380Y-67874285D01*
X101052380Y-67636190D01*
X101100000Y-67540952D01*
X101147619Y-67493333D01*
X101242857Y-67445714D01*
X101338095Y-67445714D01*
X101480952Y-67493333D01*
X102052380Y-68064761D01*
X102052380Y-67445714D01*
%TO.C,J1*%
X98726666Y-83482380D02*
X98726666Y-84196666D01*
X98679047Y-84339523D01*
X98583809Y-84434761D01*
X98440952Y-84482380D01*
X98345714Y-84482380D01*
X99726666Y-84482380D02*
X99155238Y-84482380D01*
X99440952Y-84482380D02*
X99440952Y-83482380D01*
X99345714Y-83625238D01*
X99250476Y-83720476D01*
X99155238Y-83768095D01*
X102052380Y-100146666D02*
X101052380Y-100146666D01*
X102052380Y-99575238D01*
X101052380Y-99575238D01*
X101528571Y-99099047D02*
X101528571Y-98765714D01*
X102052380Y-98622857D02*
X102052380Y-99099047D01*
X101052380Y-99099047D01*
X101052380Y-98622857D01*
X102004761Y-98241904D02*
X102052380Y-98099047D01*
X102052380Y-97860952D01*
X102004761Y-97765714D01*
X101957142Y-97718095D01*
X101861904Y-97670476D01*
X101766666Y-97670476D01*
X101671428Y-97718095D01*
X101623809Y-97765714D01*
X101576190Y-97860952D01*
X101528571Y-98051428D01*
X101480952Y-98146666D01*
X101433333Y-98194285D01*
X101338095Y-98241904D01*
X101242857Y-98241904D01*
X101147619Y-98194285D01*
X101100000Y-98146666D01*
X101052380Y-98051428D01*
X101052380Y-97813333D01*
X101100000Y-97670476D01*
X101671428Y-97241904D02*
X101671428Y-96480000D01*
X102004761Y-96051428D02*
X102052380Y-95908571D01*
X102052380Y-95670476D01*
X102004761Y-95575238D01*
X101957142Y-95527619D01*
X101861904Y-95480000D01*
X101766666Y-95480000D01*
X101671428Y-95527619D01*
X101623809Y-95575238D01*
X101576190Y-95670476D01*
X101528571Y-95860952D01*
X101480952Y-95956190D01*
X101433333Y-96003809D01*
X101338095Y-96051428D01*
X101242857Y-96051428D01*
X101147619Y-96003809D01*
X101100000Y-95956190D01*
X101052380Y-95860952D01*
X101052380Y-95622857D01*
X101100000Y-95480000D01*
X102052380Y-95051428D02*
X101052380Y-95051428D01*
X102052380Y-94480000D01*
X101052380Y-94480000D01*
X101528571Y-94003809D02*
X101528571Y-93670476D01*
X102052380Y-93527619D02*
X102052380Y-94003809D01*
X101052380Y-94003809D01*
X101052380Y-93527619D01*
X102004761Y-93146666D02*
X102052380Y-93003809D01*
X102052380Y-92765714D01*
X102004761Y-92670476D01*
X101957142Y-92622857D01*
X101861904Y-92575238D01*
X101766666Y-92575238D01*
X101671428Y-92622857D01*
X101623809Y-92670476D01*
X101576190Y-92765714D01*
X101528571Y-92956190D01*
X101480952Y-93051428D01*
X101433333Y-93099047D01*
X101338095Y-93146666D01*
X101242857Y-93146666D01*
X101147619Y-93099047D01*
X101100000Y-93051428D01*
X101052380Y-92956190D01*
X101052380Y-92718095D01*
X101100000Y-92575238D01*
X102052380Y-91384761D02*
X101052380Y-91384761D01*
X101052380Y-91003809D01*
X101100000Y-90908571D01*
X101147619Y-90860952D01*
X101242857Y-90813333D01*
X101385714Y-90813333D01*
X101480952Y-90860952D01*
X101528571Y-90908571D01*
X101576190Y-91003809D01*
X101576190Y-91384761D01*
X102052380Y-90241904D02*
X102004761Y-90337142D01*
X101957142Y-90384761D01*
X101861904Y-90432380D01*
X101576190Y-90432380D01*
X101480952Y-90384761D01*
X101433333Y-90337142D01*
X101385714Y-90241904D01*
X101385714Y-90099047D01*
X101433333Y-90003809D01*
X101480952Y-89956190D01*
X101576190Y-89908571D01*
X101861904Y-89908571D01*
X101957142Y-89956190D01*
X102004761Y-90003809D01*
X102052380Y-90099047D01*
X102052380Y-90241904D01*
X102052380Y-89480000D02*
X101385714Y-89480000D01*
X101576190Y-89480000D02*
X101480952Y-89432380D01*
X101433333Y-89384761D01*
X101385714Y-89289523D01*
X101385714Y-89194285D01*
X101385714Y-89003809D02*
X101385714Y-88622857D01*
X101052380Y-88860952D02*
X101909523Y-88860952D01*
X102004761Y-88813333D01*
X102052380Y-88718095D01*
X102052380Y-88622857D01*
X102052380Y-87765714D02*
X102052380Y-88337142D01*
X102052380Y-88051428D02*
X101052380Y-88051428D01*
X101195238Y-88146666D01*
X101290476Y-88241904D01*
X101338095Y-88337142D01*
%TO.C,U1*%
X98962380Y-42671904D02*
X99771904Y-42671904D01*
X99867142Y-42624285D01*
X99914761Y-42576666D01*
X99962380Y-42481428D01*
X99962380Y-42290952D01*
X99914761Y-42195714D01*
X99867142Y-42148095D01*
X99771904Y-42100476D01*
X98962380Y-42100476D01*
X99962380Y-41100476D02*
X99962380Y-41671904D01*
X99962380Y-41386190D02*
X98962380Y-41386190D01*
X99105238Y-41481428D01*
X99200476Y-41576666D01*
X99248095Y-41671904D01*
X110762380Y-45671904D02*
X110762380Y-45005238D01*
X111762380Y-45433809D01*
X111095714Y-44195714D02*
X111762380Y-44195714D01*
X110714761Y-44433809D02*
X111429047Y-44671904D01*
X111429047Y-44052857D01*
X111762380Y-43671904D02*
X110762380Y-43671904D01*
X111238571Y-43671904D02*
X111238571Y-43100476D01*
X111762380Y-43100476D02*
X110762380Y-43100476D01*
X111667142Y-42052857D02*
X111714761Y-42100476D01*
X111762380Y-42243333D01*
X111762380Y-42338571D01*
X111714761Y-42481428D01*
X111619523Y-42576666D01*
X111524285Y-42624285D01*
X111333809Y-42671904D01*
X111190952Y-42671904D01*
X111000476Y-42624285D01*
X110905238Y-42576666D01*
X110810000Y-42481428D01*
X110762380Y-42338571D01*
X110762380Y-42243333D01*
X110810000Y-42100476D01*
X110857619Y-42052857D01*
X111762380Y-41100476D02*
X111762380Y-41671904D01*
X111762380Y-41386190D02*
X110762380Y-41386190D01*
X110905238Y-41481428D01*
X111000476Y-41576666D01*
X111048095Y-41671904D01*
X110762380Y-40767142D02*
X110762380Y-40148095D01*
X111143333Y-40481428D01*
X111143333Y-40338571D01*
X111190952Y-40243333D01*
X111238571Y-40195714D01*
X111333809Y-40148095D01*
X111571904Y-40148095D01*
X111667142Y-40195714D01*
X111714761Y-40243333D01*
X111762380Y-40338571D01*
X111762380Y-40624285D01*
X111714761Y-40719523D01*
X111667142Y-40767142D01*
X111762380Y-39671904D02*
X111762380Y-39481428D01*
X111714761Y-39386190D01*
X111667142Y-39338571D01*
X111524285Y-39243333D01*
X111333809Y-39195714D01*
X110952857Y-39195714D01*
X110857619Y-39243333D01*
X110810000Y-39290952D01*
X110762380Y-39386190D01*
X110762380Y-39576666D01*
X110810000Y-39671904D01*
X110857619Y-39719523D01*
X110952857Y-39767142D01*
X111190952Y-39767142D01*
X111286190Y-39719523D01*
X111333809Y-39671904D01*
X111381428Y-39576666D01*
X111381428Y-39386190D01*
X111333809Y-39290952D01*
X111286190Y-39243333D01*
X111190952Y-39195714D01*
X111762380Y-38767142D02*
X110762380Y-38767142D01*
X110762380Y-38529047D01*
X110810000Y-38386190D01*
X110905238Y-38290952D01*
X111000476Y-38243333D01*
X111190952Y-38195714D01*
X111333809Y-38195714D01*
X111524285Y-38243333D01*
X111619523Y-38290952D01*
X111714761Y-38386190D01*
X111762380Y-38529047D01*
X111762380Y-38767142D01*
%TO.C,U10*%
X99091904Y-50702380D02*
X99091904Y-51511904D01*
X99139523Y-51607142D01*
X99187142Y-51654761D01*
X99282380Y-51702380D01*
X99472857Y-51702380D01*
X99568095Y-51654761D01*
X99615714Y-51607142D01*
X99663333Y-51511904D01*
X99663333Y-50702380D01*
X100663333Y-51702380D02*
X100091904Y-51702380D01*
X100377619Y-51702380D02*
X100377619Y-50702380D01*
X100282380Y-50845238D01*
X100187142Y-50940476D01*
X100091904Y-50988095D01*
X101282380Y-50702380D02*
X101377619Y-50702380D01*
X101472857Y-50750000D01*
X101520476Y-50797619D01*
X101568095Y-50892857D01*
X101615714Y-51083333D01*
X101615714Y-51321428D01*
X101568095Y-51511904D01*
X101520476Y-51607142D01*
X101472857Y-51654761D01*
X101377619Y-51702380D01*
X101282380Y-51702380D01*
X101187142Y-51654761D01*
X101139523Y-51607142D01*
X101091904Y-51511904D01*
X101044285Y-51321428D01*
X101044285Y-51083333D01*
X101091904Y-50892857D01*
X101139523Y-50797619D01*
X101187142Y-50750000D01*
X101282380Y-50702380D01*
X96568095Y-62502380D02*
X97234761Y-62502380D01*
X96806190Y-63502380D01*
X98044285Y-62835714D02*
X98044285Y-63502380D01*
X97806190Y-62454761D02*
X97568095Y-63169047D01*
X98187142Y-63169047D01*
X98568095Y-63502380D02*
X98568095Y-62502380D01*
X98568095Y-62978571D02*
X99139523Y-62978571D01*
X99139523Y-63502380D02*
X99139523Y-62502380D01*
X100187142Y-63407142D02*
X100139523Y-63454761D01*
X99996666Y-63502380D01*
X99901428Y-63502380D01*
X99758571Y-63454761D01*
X99663333Y-63359523D01*
X99615714Y-63264285D01*
X99568095Y-63073809D01*
X99568095Y-62930952D01*
X99615714Y-62740476D01*
X99663333Y-62645238D01*
X99758571Y-62550000D01*
X99901428Y-62502380D01*
X99996666Y-62502380D01*
X100139523Y-62550000D01*
X100187142Y-62597619D01*
X100568095Y-62597619D02*
X100615714Y-62550000D01*
X100710952Y-62502380D01*
X100949047Y-62502380D01*
X101044285Y-62550000D01*
X101091904Y-62597619D01*
X101139523Y-62692857D01*
X101139523Y-62788095D01*
X101091904Y-62930952D01*
X100520476Y-63502380D01*
X101139523Y-63502380D01*
X102044285Y-62502380D02*
X101568095Y-62502380D01*
X101520476Y-62978571D01*
X101568095Y-62930952D01*
X101663333Y-62883333D01*
X101901428Y-62883333D01*
X101996666Y-62930952D01*
X102044285Y-62978571D01*
X102091904Y-63073809D01*
X102091904Y-63311904D01*
X102044285Y-63407142D01*
X101996666Y-63454761D01*
X101901428Y-63502380D01*
X101663333Y-63502380D01*
X101568095Y-63454761D01*
X101520476Y-63407142D01*
X102425238Y-62502380D02*
X103091904Y-62502380D01*
X102663333Y-63502380D01*
X103472857Y-63502380D02*
X103472857Y-62502380D01*
X103710952Y-62502380D01*
X103853809Y-62550000D01*
X103949047Y-62645238D01*
X103996666Y-62740476D01*
X104044285Y-62930952D01*
X104044285Y-63073809D01*
X103996666Y-63264285D01*
X103949047Y-63359523D01*
X103853809Y-63454761D01*
X103710952Y-63502380D01*
X103472857Y-63502380D01*
%TO.C,U9*%
X135977380Y-66801904D02*
X136786904Y-66801904D01*
X136882142Y-66754285D01*
X136929761Y-66706666D01*
X136977380Y-66611428D01*
X136977380Y-66420952D01*
X136929761Y-66325714D01*
X136882142Y-66278095D01*
X136786904Y-66230476D01*
X135977380Y-66230476D01*
X136977380Y-65706666D02*
X136977380Y-65516190D01*
X136929761Y-65420952D01*
X136882142Y-65373333D01*
X136739285Y-65278095D01*
X136548809Y-65230476D01*
X136167857Y-65230476D01*
X136072619Y-65278095D01*
X136025000Y-65325714D01*
X135977380Y-65420952D01*
X135977380Y-65611428D01*
X136025000Y-65706666D01*
X136072619Y-65754285D01*
X136167857Y-65801904D01*
X136405952Y-65801904D01*
X136501190Y-65754285D01*
X136548809Y-65706666D01*
X136596428Y-65611428D01*
X136596428Y-65420952D01*
X136548809Y-65325714D01*
X136501190Y-65278095D01*
X136405952Y-65230476D01*
X125632380Y-69801904D02*
X125632380Y-69135238D01*
X126632380Y-69563809D01*
X125965714Y-68325714D02*
X126632380Y-68325714D01*
X125584761Y-68563809D02*
X126299047Y-68801904D01*
X126299047Y-68182857D01*
X126632380Y-67801904D02*
X125632380Y-67801904D01*
X126108571Y-67801904D02*
X126108571Y-67230476D01*
X126632380Y-67230476D02*
X125632380Y-67230476D01*
X126537142Y-66182857D02*
X126584761Y-66230476D01*
X126632380Y-66373333D01*
X126632380Y-66468571D01*
X126584761Y-66611428D01*
X126489523Y-66706666D01*
X126394285Y-66754285D01*
X126203809Y-66801904D01*
X126060952Y-66801904D01*
X125870476Y-66754285D01*
X125775238Y-66706666D01*
X125680000Y-66611428D01*
X125632380Y-66468571D01*
X125632380Y-66373333D01*
X125680000Y-66230476D01*
X125727619Y-66182857D01*
X125727619Y-65801904D02*
X125680000Y-65754285D01*
X125632380Y-65659047D01*
X125632380Y-65420952D01*
X125680000Y-65325714D01*
X125727619Y-65278095D01*
X125822857Y-65230476D01*
X125918095Y-65230476D01*
X126060952Y-65278095D01*
X126632380Y-65849523D01*
X126632380Y-65230476D01*
X125632380Y-64325714D02*
X125632380Y-64801904D01*
X126108571Y-64849523D01*
X126060952Y-64801904D01*
X126013333Y-64706666D01*
X126013333Y-64468571D01*
X126060952Y-64373333D01*
X126108571Y-64325714D01*
X126203809Y-64278095D01*
X126441904Y-64278095D01*
X126537142Y-64325714D01*
X126584761Y-64373333D01*
X126632380Y-64468571D01*
X126632380Y-64706666D01*
X126584761Y-64801904D01*
X126537142Y-64849523D01*
X125632380Y-63944761D02*
X125632380Y-63278095D01*
X126632380Y-63706666D01*
X126632380Y-62897142D02*
X125632380Y-62897142D01*
X125632380Y-62659047D01*
X125680000Y-62516190D01*
X125775238Y-62420952D01*
X125870476Y-62373333D01*
X126060952Y-62325714D01*
X126203809Y-62325714D01*
X126394285Y-62373333D01*
X126489523Y-62420952D01*
X126584761Y-62516190D01*
X126632380Y-62659047D01*
X126632380Y-62897142D01*
%TO.C,U8*%
X124547380Y-66801904D02*
X125356904Y-66801904D01*
X125452142Y-66754285D01*
X125499761Y-66706666D01*
X125547380Y-66611428D01*
X125547380Y-66420952D01*
X125499761Y-66325714D01*
X125452142Y-66278095D01*
X125356904Y-66230476D01*
X124547380Y-66230476D01*
X124975952Y-65611428D02*
X124928333Y-65706666D01*
X124880714Y-65754285D01*
X124785476Y-65801904D01*
X124737857Y-65801904D01*
X124642619Y-65754285D01*
X124595000Y-65706666D01*
X124547380Y-65611428D01*
X124547380Y-65420952D01*
X124595000Y-65325714D01*
X124642619Y-65278095D01*
X124737857Y-65230476D01*
X124785476Y-65230476D01*
X124880714Y-65278095D01*
X124928333Y-65325714D01*
X124975952Y-65420952D01*
X124975952Y-65611428D01*
X125023571Y-65706666D01*
X125071190Y-65754285D01*
X125166428Y-65801904D01*
X125356904Y-65801904D01*
X125452142Y-65754285D01*
X125499761Y-65706666D01*
X125547380Y-65611428D01*
X125547380Y-65420952D01*
X125499761Y-65325714D01*
X125452142Y-65278095D01*
X125356904Y-65230476D01*
X125166428Y-65230476D01*
X125071190Y-65278095D01*
X125023571Y-65325714D01*
X124975952Y-65420952D01*
X114202380Y-69801904D02*
X114202380Y-69135238D01*
X115202380Y-69563809D01*
X114535714Y-68325714D02*
X115202380Y-68325714D01*
X114154761Y-68563809D02*
X114869047Y-68801904D01*
X114869047Y-68182857D01*
X115202380Y-67801904D02*
X114202380Y-67801904D01*
X114678571Y-67801904D02*
X114678571Y-67230476D01*
X115202380Y-67230476D02*
X114202380Y-67230476D01*
X115107142Y-66182857D02*
X115154761Y-66230476D01*
X115202380Y-66373333D01*
X115202380Y-66468571D01*
X115154761Y-66611428D01*
X115059523Y-66706666D01*
X114964285Y-66754285D01*
X114773809Y-66801904D01*
X114630952Y-66801904D01*
X114440476Y-66754285D01*
X114345238Y-66706666D01*
X114250000Y-66611428D01*
X114202380Y-66468571D01*
X114202380Y-66373333D01*
X114250000Y-66230476D01*
X114297619Y-66182857D01*
X114297619Y-65801904D02*
X114250000Y-65754285D01*
X114202380Y-65659047D01*
X114202380Y-65420952D01*
X114250000Y-65325714D01*
X114297619Y-65278095D01*
X114392857Y-65230476D01*
X114488095Y-65230476D01*
X114630952Y-65278095D01*
X115202380Y-65849523D01*
X115202380Y-65230476D01*
X114202380Y-64325714D02*
X114202380Y-64801904D01*
X114678571Y-64849523D01*
X114630952Y-64801904D01*
X114583333Y-64706666D01*
X114583333Y-64468571D01*
X114630952Y-64373333D01*
X114678571Y-64325714D01*
X114773809Y-64278095D01*
X115011904Y-64278095D01*
X115107142Y-64325714D01*
X115154761Y-64373333D01*
X115202380Y-64468571D01*
X115202380Y-64706666D01*
X115154761Y-64801904D01*
X115107142Y-64849523D01*
X114202380Y-63944761D02*
X114202380Y-63278095D01*
X115202380Y-63706666D01*
X115202380Y-62897142D02*
X114202380Y-62897142D01*
X114202380Y-62659047D01*
X114250000Y-62516190D01*
X114345238Y-62420952D01*
X114440476Y-62373333D01*
X114630952Y-62325714D01*
X114773809Y-62325714D01*
X114964285Y-62373333D01*
X115059523Y-62420952D01*
X115154761Y-62516190D01*
X115202380Y-62659047D01*
X115202380Y-62897142D01*
%TO.C,U7*%
X120523095Y-48162380D02*
X120523095Y-48971904D01*
X120570714Y-49067142D01*
X120618333Y-49114761D01*
X120713571Y-49162380D01*
X120904047Y-49162380D01*
X120999285Y-49114761D01*
X121046904Y-49067142D01*
X121094523Y-48971904D01*
X121094523Y-48162380D01*
X121475476Y-48162380D02*
X122142142Y-48162380D01*
X121713571Y-49162380D01*
X117523095Y-59962380D02*
X118189761Y-59962380D01*
X117761190Y-60962380D01*
X118999285Y-60295714D02*
X118999285Y-60962380D01*
X118761190Y-59914761D02*
X118523095Y-60629047D01*
X119142142Y-60629047D01*
X119523095Y-60962380D02*
X119523095Y-59962380D01*
X119523095Y-60438571D02*
X120094523Y-60438571D01*
X120094523Y-60962380D02*
X120094523Y-59962380D01*
X121142142Y-60867142D02*
X121094523Y-60914761D01*
X120951666Y-60962380D01*
X120856428Y-60962380D01*
X120713571Y-60914761D01*
X120618333Y-60819523D01*
X120570714Y-60724285D01*
X120523095Y-60533809D01*
X120523095Y-60390952D01*
X120570714Y-60200476D01*
X120618333Y-60105238D01*
X120713571Y-60010000D01*
X120856428Y-59962380D01*
X120951666Y-59962380D01*
X121094523Y-60010000D01*
X121142142Y-60057619D01*
X122094523Y-60962380D02*
X121523095Y-60962380D01*
X121808809Y-60962380D02*
X121808809Y-59962380D01*
X121713571Y-60105238D01*
X121618333Y-60200476D01*
X121523095Y-60248095D01*
X122427857Y-59962380D02*
X123094523Y-59962380D01*
X122665952Y-60962380D01*
X123904047Y-60295714D02*
X123904047Y-60962380D01*
X123665952Y-59914761D02*
X123427857Y-60629047D01*
X124046904Y-60629047D01*
X124427857Y-60962380D02*
X124427857Y-59962380D01*
X124665952Y-59962380D01*
X124808809Y-60010000D01*
X124904047Y-60105238D01*
X124951666Y-60200476D01*
X124999285Y-60390952D01*
X124999285Y-60533809D01*
X124951666Y-60724285D01*
X124904047Y-60819523D01*
X124808809Y-60914761D01*
X124665952Y-60962380D01*
X124427857Y-60962380D01*
%TO.C,U6*%
X131953095Y-48162380D02*
X131953095Y-48971904D01*
X132000714Y-49067142D01*
X132048333Y-49114761D01*
X132143571Y-49162380D01*
X132334047Y-49162380D01*
X132429285Y-49114761D01*
X132476904Y-49067142D01*
X132524523Y-48971904D01*
X132524523Y-48162380D01*
X133429285Y-48162380D02*
X133238809Y-48162380D01*
X133143571Y-48210000D01*
X133095952Y-48257619D01*
X133000714Y-48400476D01*
X132953095Y-48590952D01*
X132953095Y-48971904D01*
X133000714Y-49067142D01*
X133048333Y-49114761D01*
X133143571Y-49162380D01*
X133334047Y-49162380D01*
X133429285Y-49114761D01*
X133476904Y-49067142D01*
X133524523Y-48971904D01*
X133524523Y-48733809D01*
X133476904Y-48638571D01*
X133429285Y-48590952D01*
X133334047Y-48543333D01*
X133143571Y-48543333D01*
X133048333Y-48590952D01*
X133000714Y-48638571D01*
X132953095Y-48733809D01*
X128953095Y-59962380D02*
X129619761Y-59962380D01*
X129191190Y-60962380D01*
X130429285Y-60295714D02*
X130429285Y-60962380D01*
X130191190Y-59914761D02*
X129953095Y-60629047D01*
X130572142Y-60629047D01*
X130953095Y-60962380D02*
X130953095Y-59962380D01*
X130953095Y-60438571D02*
X131524523Y-60438571D01*
X131524523Y-60962380D02*
X131524523Y-59962380D01*
X132572142Y-60867142D02*
X132524523Y-60914761D01*
X132381666Y-60962380D01*
X132286428Y-60962380D01*
X132143571Y-60914761D01*
X132048333Y-60819523D01*
X132000714Y-60724285D01*
X131953095Y-60533809D01*
X131953095Y-60390952D01*
X132000714Y-60200476D01*
X132048333Y-60105238D01*
X132143571Y-60010000D01*
X132286428Y-59962380D01*
X132381666Y-59962380D01*
X132524523Y-60010000D01*
X132572142Y-60057619D01*
X133524523Y-60962380D02*
X132953095Y-60962380D01*
X133238809Y-60962380D02*
X133238809Y-59962380D01*
X133143571Y-60105238D01*
X133048333Y-60200476D01*
X132953095Y-60248095D01*
X133857857Y-59962380D02*
X134524523Y-59962380D01*
X134095952Y-60962380D01*
X135334047Y-60295714D02*
X135334047Y-60962380D01*
X135095952Y-59914761D02*
X134857857Y-60629047D01*
X135476904Y-60629047D01*
X135857857Y-60962380D02*
X135857857Y-59962380D01*
X136095952Y-59962380D01*
X136238809Y-60010000D01*
X136334047Y-60105238D01*
X136381666Y-60200476D01*
X136429285Y-60390952D01*
X136429285Y-60533809D01*
X136381666Y-60724285D01*
X136334047Y-60819523D01*
X136238809Y-60914761D01*
X136095952Y-60962380D01*
X135857857Y-60962380D01*
%TD*%
M02*
