%TF.GenerationSoftware,KiCad,Pcbnew,(5.1.10)-1*%
%TF.CreationDate,2021-06-12T16:54:01+02:00*%
%TF.ProjectId,Nes Sound Expansion,4e657320-536f-4756-9e64-20457870616e,rev?*%
%TF.SameCoordinates,Original*%
%TF.FileFunction,Paste,Top*%
%TF.FilePolarity,Positive*%
%FSLAX46Y46*%
G04 Gerber Fmt 4.6, Leading zero omitted, Abs format (unit mm)*
G04 Created by KiCad (PCBNEW (5.1.10)-1) date 2021-06-12 16:54:01*
%MOMM*%
%LPD*%
G01*
G04 APERTURE LIST*
%ADD10R,1.800000X2.000000*%
%ADD11R,1.120000X2.160000*%
%ADD12R,2.000000X1.500000*%
G04 APERTURE END LIST*
D10*
%TO.C,X1*%
X120523000Y-91245000D03*
X125603000Y-91245000D03*
X125603000Y-95445000D03*
X120523000Y-95445000D03*
%TD*%
%TO.C,R23*%
G36*
G01*
X124148001Y-103208500D02*
X123247999Y-103208500D01*
G75*
G02*
X122998000Y-102958501I0J249999D01*
G01*
X122998000Y-102433499D01*
G75*
G02*
X123247999Y-102183500I249999J0D01*
G01*
X124148001Y-102183500D01*
G75*
G02*
X124398000Y-102433499I0J-249999D01*
G01*
X124398000Y-102958501D01*
G75*
G02*
X124148001Y-103208500I-249999J0D01*
G01*
G37*
G36*
G01*
X124148001Y-105033500D02*
X123247999Y-105033500D01*
G75*
G02*
X122998000Y-104783501I0J249999D01*
G01*
X122998000Y-104258499D01*
G75*
G02*
X123247999Y-104008500I249999J0D01*
G01*
X124148001Y-104008500D01*
G75*
G02*
X124398000Y-104258499I0J-249999D01*
G01*
X124398000Y-104783501D01*
G75*
G02*
X124148001Y-105033500I-249999J0D01*
G01*
G37*
%TD*%
%TO.C,C9*%
G36*
G01*
X120744000Y-105021000D02*
X119794000Y-105021000D01*
G75*
G02*
X119544000Y-104771000I0J250000D01*
G01*
X119544000Y-104271000D01*
G75*
G02*
X119794000Y-104021000I250000J0D01*
G01*
X120744000Y-104021000D01*
G75*
G02*
X120994000Y-104271000I0J-250000D01*
G01*
X120994000Y-104771000D01*
G75*
G02*
X120744000Y-105021000I-250000J0D01*
G01*
G37*
G36*
G01*
X120744000Y-103121000D02*
X119794000Y-103121000D01*
G75*
G02*
X119544000Y-102871000I0J250000D01*
G01*
X119544000Y-102371000D01*
G75*
G02*
X119794000Y-102121000I250000J0D01*
G01*
X120744000Y-102121000D01*
G75*
G02*
X120994000Y-102371000I0J-250000D01*
G01*
X120994000Y-102871000D01*
G75*
G02*
X120744000Y-103121000I-250000J0D01*
G01*
G37*
%TD*%
%TO.C,R26*%
G36*
G01*
X136213001Y-115320500D02*
X135312999Y-115320500D01*
G75*
G02*
X135063000Y-115070501I0J249999D01*
G01*
X135063000Y-114545499D01*
G75*
G02*
X135312999Y-114295500I249999J0D01*
G01*
X136213001Y-114295500D01*
G75*
G02*
X136463000Y-114545499I0J-249999D01*
G01*
X136463000Y-115070501D01*
G75*
G02*
X136213001Y-115320500I-249999J0D01*
G01*
G37*
G36*
G01*
X136213001Y-117145500D02*
X135312999Y-117145500D01*
G75*
G02*
X135063000Y-116895501I0J249999D01*
G01*
X135063000Y-116370499D01*
G75*
G02*
X135312999Y-116120500I249999J0D01*
G01*
X136213001Y-116120500D01*
G75*
G02*
X136463000Y-116370499I0J-249999D01*
G01*
X136463000Y-116895501D01*
G75*
G02*
X136213001Y-117145500I-249999J0D01*
G01*
G37*
%TD*%
%TO.C,R24*%
G36*
G01*
X136213001Y-111717500D02*
X135312999Y-111717500D01*
G75*
G02*
X135063000Y-111467501I0J249999D01*
G01*
X135063000Y-110942499D01*
G75*
G02*
X135312999Y-110692500I249999J0D01*
G01*
X136213001Y-110692500D01*
G75*
G02*
X136463000Y-110942499I0J-249999D01*
G01*
X136463000Y-111467501D01*
G75*
G02*
X136213001Y-111717500I-249999J0D01*
G01*
G37*
G36*
G01*
X136213001Y-113542500D02*
X135312999Y-113542500D01*
G75*
G02*
X135063000Y-113292501I0J249999D01*
G01*
X135063000Y-112767499D01*
G75*
G02*
X135312999Y-112517500I249999J0D01*
G01*
X136213001Y-112517500D01*
G75*
G02*
X136463000Y-112767499I0J-249999D01*
G01*
X136463000Y-113292501D01*
G75*
G02*
X136213001Y-113542500I-249999J0D01*
G01*
G37*
%TD*%
%TO.C,C12*%
G36*
G01*
X136238000Y-107942000D02*
X135288000Y-107942000D01*
G75*
G02*
X135038000Y-107692000I0J250000D01*
G01*
X135038000Y-107192000D01*
G75*
G02*
X135288000Y-106942000I250000J0D01*
G01*
X136238000Y-106942000D01*
G75*
G02*
X136488000Y-107192000I0J-250000D01*
G01*
X136488000Y-107692000D01*
G75*
G02*
X136238000Y-107942000I-250000J0D01*
G01*
G37*
G36*
G01*
X136238000Y-109842000D02*
X135288000Y-109842000D01*
G75*
G02*
X135038000Y-109592000I0J250000D01*
G01*
X135038000Y-109092000D01*
G75*
G02*
X135288000Y-108842000I250000J0D01*
G01*
X136238000Y-108842000D01*
G75*
G02*
X136488000Y-109092000I0J-250000D01*
G01*
X136488000Y-109592000D01*
G75*
G02*
X136238000Y-109842000I-250000J0D01*
G01*
G37*
%TD*%
%TO.C,C2*%
G36*
G01*
X132469000Y-100043000D02*
X132469000Y-99093000D01*
G75*
G02*
X132719000Y-98843000I250000J0D01*
G01*
X133219000Y-98843000D01*
G75*
G02*
X133469000Y-99093000I0J-250000D01*
G01*
X133469000Y-100043000D01*
G75*
G02*
X133219000Y-100293000I-250000J0D01*
G01*
X132719000Y-100293000D01*
G75*
G02*
X132469000Y-100043000I0J250000D01*
G01*
G37*
G36*
G01*
X130569000Y-100043000D02*
X130569000Y-99093000D01*
G75*
G02*
X130819000Y-98843000I250000J0D01*
G01*
X131319000Y-98843000D01*
G75*
G02*
X131569000Y-99093000I0J-250000D01*
G01*
X131569000Y-100043000D01*
G75*
G02*
X131319000Y-100293000I-250000J0D01*
G01*
X130819000Y-100293000D01*
G75*
G02*
X130569000Y-100043000I0J250000D01*
G01*
G37*
%TD*%
%TO.C,C10*%
G36*
G01*
X119007000Y-119846000D02*
X119007000Y-120946000D01*
G75*
G02*
X118757000Y-121196000I-250000J0D01*
G01*
X116657000Y-121196000D01*
G75*
G02*
X116407000Y-120946000I0J250000D01*
G01*
X116407000Y-119846000D01*
G75*
G02*
X116657000Y-119596000I250000J0D01*
G01*
X118757000Y-119596000D01*
G75*
G02*
X119007000Y-119846000I0J-250000D01*
G01*
G37*
G36*
G01*
X122607000Y-119846000D02*
X122607000Y-120946000D01*
G75*
G02*
X122357000Y-121196000I-250000J0D01*
G01*
X120257000Y-121196000D01*
G75*
G02*
X120007000Y-120946000I0J250000D01*
G01*
X120007000Y-119846000D01*
G75*
G02*
X120257000Y-119596000I250000J0D01*
G01*
X122357000Y-119596000D01*
G75*
G02*
X122607000Y-119846000I0J-250000D01*
G01*
G37*
%TD*%
%TO.C,U3*%
G36*
G01*
X128675000Y-115166000D02*
X128675000Y-115466000D01*
G75*
G02*
X128525000Y-115616000I-150000J0D01*
G01*
X126875000Y-115616000D01*
G75*
G02*
X126725000Y-115466000I0J150000D01*
G01*
X126725000Y-115166000D01*
G75*
G02*
X126875000Y-115016000I150000J0D01*
G01*
X128525000Y-115016000D01*
G75*
G02*
X128675000Y-115166000I0J-150000D01*
G01*
G37*
G36*
G01*
X128675000Y-113896000D02*
X128675000Y-114196000D01*
G75*
G02*
X128525000Y-114346000I-150000J0D01*
G01*
X126875000Y-114346000D01*
G75*
G02*
X126725000Y-114196000I0J150000D01*
G01*
X126725000Y-113896000D01*
G75*
G02*
X126875000Y-113746000I150000J0D01*
G01*
X128525000Y-113746000D01*
G75*
G02*
X128675000Y-113896000I0J-150000D01*
G01*
G37*
G36*
G01*
X128675000Y-112626000D02*
X128675000Y-112926000D01*
G75*
G02*
X128525000Y-113076000I-150000J0D01*
G01*
X126875000Y-113076000D01*
G75*
G02*
X126725000Y-112926000I0J150000D01*
G01*
X126725000Y-112626000D01*
G75*
G02*
X126875000Y-112476000I150000J0D01*
G01*
X128525000Y-112476000D01*
G75*
G02*
X128675000Y-112626000I0J-150000D01*
G01*
G37*
G36*
G01*
X128675000Y-111356000D02*
X128675000Y-111656000D01*
G75*
G02*
X128525000Y-111806000I-150000J0D01*
G01*
X126875000Y-111806000D01*
G75*
G02*
X126725000Y-111656000I0J150000D01*
G01*
X126725000Y-111356000D01*
G75*
G02*
X126875000Y-111206000I150000J0D01*
G01*
X128525000Y-111206000D01*
G75*
G02*
X128675000Y-111356000I0J-150000D01*
G01*
G37*
G36*
G01*
X133625000Y-111356000D02*
X133625000Y-111656000D01*
G75*
G02*
X133475000Y-111806000I-150000J0D01*
G01*
X131825000Y-111806000D01*
G75*
G02*
X131675000Y-111656000I0J150000D01*
G01*
X131675000Y-111356000D01*
G75*
G02*
X131825000Y-111206000I150000J0D01*
G01*
X133475000Y-111206000D01*
G75*
G02*
X133625000Y-111356000I0J-150000D01*
G01*
G37*
G36*
G01*
X133625000Y-112626000D02*
X133625000Y-112926000D01*
G75*
G02*
X133475000Y-113076000I-150000J0D01*
G01*
X131825000Y-113076000D01*
G75*
G02*
X131675000Y-112926000I0J150000D01*
G01*
X131675000Y-112626000D01*
G75*
G02*
X131825000Y-112476000I150000J0D01*
G01*
X133475000Y-112476000D01*
G75*
G02*
X133625000Y-112626000I0J-150000D01*
G01*
G37*
G36*
G01*
X133625000Y-113896000D02*
X133625000Y-114196000D01*
G75*
G02*
X133475000Y-114346000I-150000J0D01*
G01*
X131825000Y-114346000D01*
G75*
G02*
X131675000Y-114196000I0J150000D01*
G01*
X131675000Y-113896000D01*
G75*
G02*
X131825000Y-113746000I150000J0D01*
G01*
X133475000Y-113746000D01*
G75*
G02*
X133625000Y-113896000I0J-150000D01*
G01*
G37*
G36*
G01*
X133625000Y-115166000D02*
X133625000Y-115466000D01*
G75*
G02*
X133475000Y-115616000I-150000J0D01*
G01*
X131825000Y-115616000D01*
G75*
G02*
X131675000Y-115466000I0J150000D01*
G01*
X131675000Y-115166000D01*
G75*
G02*
X131825000Y-115016000I150000J0D01*
G01*
X133475000Y-115016000D01*
G75*
G02*
X133625000Y-115166000I0J-150000D01*
G01*
G37*
%TD*%
%TO.C,R27*%
G36*
G01*
X125291001Y-115146500D02*
X124390999Y-115146500D01*
G75*
G02*
X124141000Y-114896501I0J249999D01*
G01*
X124141000Y-114371499D01*
G75*
G02*
X124390999Y-114121500I249999J0D01*
G01*
X125291001Y-114121500D01*
G75*
G02*
X125541000Y-114371499I0J-249999D01*
G01*
X125541000Y-114896501D01*
G75*
G02*
X125291001Y-115146500I-249999J0D01*
G01*
G37*
G36*
G01*
X125291001Y-116971500D02*
X124390999Y-116971500D01*
G75*
G02*
X124141000Y-116721501I0J249999D01*
G01*
X124141000Y-116196499D01*
G75*
G02*
X124390999Y-115946500I249999J0D01*
G01*
X125291001Y-115946500D01*
G75*
G02*
X125541000Y-116196499I0J-249999D01*
G01*
X125541000Y-116721501D01*
G75*
G02*
X125291001Y-116971500I-249999J0D01*
G01*
G37*
%TD*%
%TO.C,R25*%
G36*
G01*
X125291001Y-111510500D02*
X124390999Y-111510500D01*
G75*
G02*
X124141000Y-111260501I0J249999D01*
G01*
X124141000Y-110735499D01*
G75*
G02*
X124390999Y-110485500I249999J0D01*
G01*
X125291001Y-110485500D01*
G75*
G02*
X125541000Y-110735499I0J-249999D01*
G01*
X125541000Y-111260501D01*
G75*
G02*
X125291001Y-111510500I-249999J0D01*
G01*
G37*
G36*
G01*
X125291001Y-113335500D02*
X124390999Y-113335500D01*
G75*
G02*
X124141000Y-113085501I0J249999D01*
G01*
X124141000Y-112560499D01*
G75*
G02*
X124390999Y-112310500I249999J0D01*
G01*
X125291001Y-112310500D01*
G75*
G02*
X125541000Y-112560499I0J-249999D01*
G01*
X125541000Y-113085501D01*
G75*
G02*
X125291001Y-113335500I-249999J0D01*
G01*
G37*
%TD*%
%TO.C,R22*%
G36*
G01*
X128519500Y-109035001D02*
X128519500Y-108134999D01*
G75*
G02*
X128769499Y-107885000I249999J0D01*
G01*
X129294501Y-107885000D01*
G75*
G02*
X129544500Y-108134999I0J-249999D01*
G01*
X129544500Y-109035001D01*
G75*
G02*
X129294501Y-109285000I-249999J0D01*
G01*
X128769499Y-109285000D01*
G75*
G02*
X128519500Y-109035001I0J249999D01*
G01*
G37*
G36*
G01*
X126694500Y-109035001D02*
X126694500Y-108134999D01*
G75*
G02*
X126944499Y-107885000I249999J0D01*
G01*
X127469501Y-107885000D01*
G75*
G02*
X127719500Y-108134999I0J-249999D01*
G01*
X127719500Y-109035001D01*
G75*
G02*
X127469501Y-109285000I-249999J0D01*
G01*
X126944499Y-109285000D01*
G75*
G02*
X126694500Y-109035001I0J249999D01*
G01*
G37*
%TD*%
%TO.C,R21*%
G36*
G01*
X135197001Y-103208500D02*
X134296999Y-103208500D01*
G75*
G02*
X134047000Y-102958501I0J249999D01*
G01*
X134047000Y-102433499D01*
G75*
G02*
X134296999Y-102183500I249999J0D01*
G01*
X135197001Y-102183500D01*
G75*
G02*
X135447000Y-102433499I0J-249999D01*
G01*
X135447000Y-102958501D01*
G75*
G02*
X135197001Y-103208500I-249999J0D01*
G01*
G37*
G36*
G01*
X135197001Y-105033500D02*
X134296999Y-105033500D01*
G75*
G02*
X134047000Y-104783501I0J249999D01*
G01*
X134047000Y-104258499D01*
G75*
G02*
X134296999Y-104008500I249999J0D01*
G01*
X135197001Y-104008500D01*
G75*
G02*
X135447000Y-104258499I0J-249999D01*
G01*
X135447000Y-104783501D01*
G75*
G02*
X135197001Y-105033500I-249999J0D01*
G01*
G37*
%TD*%
%TO.C,R20*%
G36*
G01*
X132202500Y-109035001D02*
X132202500Y-108134999D01*
G75*
G02*
X132452499Y-107885000I249999J0D01*
G01*
X132977501Y-107885000D01*
G75*
G02*
X133227500Y-108134999I0J-249999D01*
G01*
X133227500Y-109035001D01*
G75*
G02*
X132977501Y-109285000I-249999J0D01*
G01*
X132452499Y-109285000D01*
G75*
G02*
X132202500Y-109035001I0J249999D01*
G01*
G37*
G36*
G01*
X130377500Y-109035001D02*
X130377500Y-108134999D01*
G75*
G02*
X130627499Y-107885000I249999J0D01*
G01*
X131152501Y-107885000D01*
G75*
G02*
X131402500Y-108134999I0J-249999D01*
G01*
X131402500Y-109035001D01*
G75*
G02*
X131152501Y-109285000I-249999J0D01*
G01*
X130627499Y-109285000D01*
G75*
G02*
X130377500Y-109035001I0J249999D01*
G01*
G37*
%TD*%
%TO.C,C13*%
G36*
G01*
X125316000Y-107815000D02*
X124366000Y-107815000D01*
G75*
G02*
X124116000Y-107565000I0J250000D01*
G01*
X124116000Y-107065000D01*
G75*
G02*
X124366000Y-106815000I250000J0D01*
G01*
X125316000Y-106815000D01*
G75*
G02*
X125566000Y-107065000I0J-250000D01*
G01*
X125566000Y-107565000D01*
G75*
G02*
X125316000Y-107815000I-250000J0D01*
G01*
G37*
G36*
G01*
X125316000Y-109715000D02*
X124366000Y-109715000D01*
G75*
G02*
X124116000Y-109465000I0J250000D01*
G01*
X124116000Y-108965000D01*
G75*
G02*
X124366000Y-108715000I250000J0D01*
G01*
X125316000Y-108715000D01*
G75*
G02*
X125566000Y-108965000I0J-250000D01*
G01*
X125566000Y-109465000D01*
G75*
G02*
X125316000Y-109715000I-250000J0D01*
G01*
G37*
%TD*%
%TO.C,C8*%
G36*
G01*
X131793000Y-103116000D02*
X130843000Y-103116000D01*
G75*
G02*
X130593000Y-102866000I0J250000D01*
G01*
X130593000Y-102366000D01*
G75*
G02*
X130843000Y-102116000I250000J0D01*
G01*
X131793000Y-102116000D01*
G75*
G02*
X132043000Y-102366000I0J-250000D01*
G01*
X132043000Y-102866000D01*
G75*
G02*
X131793000Y-103116000I-250000J0D01*
G01*
G37*
G36*
G01*
X131793000Y-105016000D02*
X130843000Y-105016000D01*
G75*
G02*
X130593000Y-104766000I0J250000D01*
G01*
X130593000Y-104266000D01*
G75*
G02*
X130843000Y-104016000I250000J0D01*
G01*
X131793000Y-104016000D01*
G75*
G02*
X132043000Y-104266000I0J-250000D01*
G01*
X132043000Y-104766000D01*
G75*
G02*
X131793000Y-105016000I-250000J0D01*
G01*
G37*
%TD*%
%TO.C,C7*%
G36*
G01*
X116492000Y-104016000D02*
X117442000Y-104016000D01*
G75*
G02*
X117692000Y-104266000I0J-250000D01*
G01*
X117692000Y-104766000D01*
G75*
G02*
X117442000Y-105016000I-250000J0D01*
G01*
X116492000Y-105016000D01*
G75*
G02*
X116242000Y-104766000I0J250000D01*
G01*
X116242000Y-104266000D01*
G75*
G02*
X116492000Y-104016000I250000J0D01*
G01*
G37*
G36*
G01*
X116492000Y-102116000D02*
X117442000Y-102116000D01*
G75*
G02*
X117692000Y-102366000I0J-250000D01*
G01*
X117692000Y-102866000D01*
G75*
G02*
X117442000Y-103116000I-250000J0D01*
G01*
X116492000Y-103116000D01*
G75*
G02*
X116242000Y-102866000I0J250000D01*
G01*
X116242000Y-102366000D01*
G75*
G02*
X116492000Y-102116000I250000J0D01*
G01*
G37*
%TD*%
%TO.C,C6*%
G36*
G01*
X127541000Y-104021000D02*
X128491000Y-104021000D01*
G75*
G02*
X128741000Y-104271000I0J-250000D01*
G01*
X128741000Y-104771000D01*
G75*
G02*
X128491000Y-105021000I-250000J0D01*
G01*
X127541000Y-105021000D01*
G75*
G02*
X127291000Y-104771000I0J250000D01*
G01*
X127291000Y-104271000D01*
G75*
G02*
X127541000Y-104021000I250000J0D01*
G01*
G37*
G36*
G01*
X127541000Y-102121000D02*
X128491000Y-102121000D01*
G75*
G02*
X128741000Y-102371000I0J-250000D01*
G01*
X128741000Y-102871000D01*
G75*
G02*
X128491000Y-103121000I-250000J0D01*
G01*
X127541000Y-103121000D01*
G75*
G02*
X127291000Y-102871000I0J250000D01*
G01*
X127291000Y-102371000D01*
G75*
G02*
X127541000Y-102121000I250000J0D01*
G01*
G37*
%TD*%
%TO.C,J7*%
G36*
G01*
X98730750Y-111820000D02*
X99643250Y-111820000D01*
G75*
G02*
X99887000Y-112063750I0J-243750D01*
G01*
X99887000Y-112551250D01*
G75*
G02*
X99643250Y-112795000I-243750J0D01*
G01*
X98730750Y-112795000D01*
G75*
G02*
X98487000Y-112551250I0J243750D01*
G01*
X98487000Y-112063750D01*
G75*
G02*
X98730750Y-111820000I243750J0D01*
G01*
G37*
G36*
G01*
X98730750Y-109945000D02*
X99643250Y-109945000D01*
G75*
G02*
X99887000Y-110188750I0J-243750D01*
G01*
X99887000Y-110676250D01*
G75*
G02*
X99643250Y-110920000I-243750J0D01*
G01*
X98730750Y-110920000D01*
G75*
G02*
X98487000Y-110676250I0J243750D01*
G01*
X98487000Y-110188750D01*
G75*
G02*
X98730750Y-109945000I243750J0D01*
G01*
G37*
%TD*%
%TO.C,R19*%
G36*
G01*
X103629000Y-93275998D02*
X103629000Y-94176002D01*
G75*
G02*
X103379002Y-94426000I-249998J0D01*
G01*
X102853998Y-94426000D01*
G75*
G02*
X102604000Y-94176002I0J249998D01*
G01*
X102604000Y-93275998D01*
G75*
G02*
X102853998Y-93026000I249998J0D01*
G01*
X103379002Y-93026000D01*
G75*
G02*
X103629000Y-93275998I0J-249998D01*
G01*
G37*
G36*
G01*
X105454000Y-93275998D02*
X105454000Y-94176002D01*
G75*
G02*
X105204002Y-94426000I-249998J0D01*
G01*
X104678998Y-94426000D01*
G75*
G02*
X104429000Y-94176002I0J249998D01*
G01*
X104429000Y-93275998D01*
G75*
G02*
X104678998Y-93026000I249998J0D01*
G01*
X105204002Y-93026000D01*
G75*
G02*
X105454000Y-93275998I0J-249998D01*
G01*
G37*
%TD*%
%TO.C,R18*%
G36*
G01*
X103629000Y-99244998D02*
X103629000Y-100145002D01*
G75*
G02*
X103379002Y-100395000I-249998J0D01*
G01*
X102853998Y-100395000D01*
G75*
G02*
X102604000Y-100145002I0J249998D01*
G01*
X102604000Y-99244998D01*
G75*
G02*
X102853998Y-98995000I249998J0D01*
G01*
X103379002Y-98995000D01*
G75*
G02*
X103629000Y-99244998I0J-249998D01*
G01*
G37*
G36*
G01*
X105454000Y-99244998D02*
X105454000Y-100145002D01*
G75*
G02*
X105204002Y-100395000I-249998J0D01*
G01*
X104678998Y-100395000D01*
G75*
G02*
X104429000Y-100145002I0J249998D01*
G01*
X104429000Y-99244998D01*
G75*
G02*
X104678998Y-98995000I249998J0D01*
G01*
X105204002Y-98995000D01*
G75*
G02*
X105454000Y-99244998I0J-249998D01*
G01*
G37*
%TD*%
%TO.C,R4*%
G36*
G01*
X103629000Y-96323998D02*
X103629000Y-97224002D01*
G75*
G02*
X103379002Y-97474000I-249998J0D01*
G01*
X102853998Y-97474000D01*
G75*
G02*
X102604000Y-97224002I0J249998D01*
G01*
X102604000Y-96323998D01*
G75*
G02*
X102853998Y-96074000I249998J0D01*
G01*
X103379002Y-96074000D01*
G75*
G02*
X103629000Y-96323998I0J-249998D01*
G01*
G37*
G36*
G01*
X105454000Y-96323998D02*
X105454000Y-97224002D01*
G75*
G02*
X105204002Y-97474000I-249998J0D01*
G01*
X104678998Y-97474000D01*
G75*
G02*
X104429000Y-97224002I0J249998D01*
G01*
X104429000Y-96323998D01*
G75*
G02*
X104678998Y-96074000I249998J0D01*
G01*
X105204002Y-96074000D01*
G75*
G02*
X105454000Y-96323998I0J-249998D01*
G01*
G37*
%TD*%
%TO.C,R17*%
G36*
G01*
X116551000Y-91116998D02*
X116551000Y-92017002D01*
G75*
G02*
X116301002Y-92267000I-249998J0D01*
G01*
X115775998Y-92267000D01*
G75*
G02*
X115526000Y-92017002I0J249998D01*
G01*
X115526000Y-91116998D01*
G75*
G02*
X115775998Y-90867000I249998J0D01*
G01*
X116301002Y-90867000D01*
G75*
G02*
X116551000Y-91116998I0J-249998D01*
G01*
G37*
G36*
G01*
X118376000Y-91116998D02*
X118376000Y-92017002D01*
G75*
G02*
X118126002Y-92267000I-249998J0D01*
G01*
X117600998Y-92267000D01*
G75*
G02*
X117351000Y-92017002I0J249998D01*
G01*
X117351000Y-91116998D01*
G75*
G02*
X117600998Y-90867000I249998J0D01*
G01*
X118126002Y-90867000D01*
G75*
G02*
X118376000Y-91116998I0J-249998D01*
G01*
G37*
%TD*%
%TO.C,R16*%
G36*
G01*
X116567000Y-94164998D02*
X116567000Y-95065002D01*
G75*
G02*
X116317002Y-95315000I-249998J0D01*
G01*
X115791998Y-95315000D01*
G75*
G02*
X115542000Y-95065002I0J249998D01*
G01*
X115542000Y-94164998D01*
G75*
G02*
X115791998Y-93915000I249998J0D01*
G01*
X116317002Y-93915000D01*
G75*
G02*
X116567000Y-94164998I0J-249998D01*
G01*
G37*
G36*
G01*
X118392000Y-94164998D02*
X118392000Y-95065002D01*
G75*
G02*
X118142002Y-95315000I-249998J0D01*
G01*
X117616998Y-95315000D01*
G75*
G02*
X117367000Y-95065002I0J249998D01*
G01*
X117367000Y-94164998D01*
G75*
G02*
X117616998Y-93915000I249998J0D01*
G01*
X118142002Y-93915000D01*
G75*
G02*
X118392000Y-94164998I0J-249998D01*
G01*
G37*
%TD*%
%TO.C,R10*%
G36*
G01*
X116909002Y-107780500D02*
X116008998Y-107780500D01*
G75*
G02*
X115759000Y-107530502I0J249998D01*
G01*
X115759000Y-107005498D01*
G75*
G02*
X116008998Y-106755500I249998J0D01*
G01*
X116909002Y-106755500D01*
G75*
G02*
X117159000Y-107005498I0J-249998D01*
G01*
X117159000Y-107530502D01*
G75*
G02*
X116909002Y-107780500I-249998J0D01*
G01*
G37*
G36*
G01*
X116909002Y-109605500D02*
X116008998Y-109605500D01*
G75*
G02*
X115759000Y-109355502I0J249998D01*
G01*
X115759000Y-108830498D01*
G75*
G02*
X116008998Y-108580500I249998J0D01*
G01*
X116909002Y-108580500D01*
G75*
G02*
X117159000Y-108830498I0J-249998D01*
G01*
X117159000Y-109355502D01*
G75*
G02*
X116909002Y-109605500I-249998J0D01*
G01*
G37*
%TD*%
%TO.C,R9*%
G36*
G01*
X99510002Y-106280000D02*
X98609998Y-106280000D01*
G75*
G02*
X98360000Y-106030002I0J249998D01*
G01*
X98360000Y-105504998D01*
G75*
G02*
X98609998Y-105255000I249998J0D01*
G01*
X99510002Y-105255000D01*
G75*
G02*
X99760000Y-105504998I0J-249998D01*
G01*
X99760000Y-106030002D01*
G75*
G02*
X99510002Y-106280000I-249998J0D01*
G01*
G37*
G36*
G01*
X99510002Y-108105000D02*
X98609998Y-108105000D01*
G75*
G02*
X98360000Y-107855002I0J249998D01*
G01*
X98360000Y-107329998D01*
G75*
G02*
X98609998Y-107080000I249998J0D01*
G01*
X99510002Y-107080000D01*
G75*
G02*
X99760000Y-107329998I0J-249998D01*
G01*
X99760000Y-107855002D01*
G75*
G02*
X99510002Y-108105000I-249998J0D01*
G01*
G37*
%TD*%
%TO.C,R8*%
G36*
G01*
X120719002Y-98914000D02*
X119818998Y-98914000D01*
G75*
G02*
X119569000Y-98664002I0J249998D01*
G01*
X119569000Y-98138998D01*
G75*
G02*
X119818998Y-97889000I249998J0D01*
G01*
X120719002Y-97889000D01*
G75*
G02*
X120969000Y-98138998I0J-249998D01*
G01*
X120969000Y-98664002D01*
G75*
G02*
X120719002Y-98914000I-249998J0D01*
G01*
G37*
G36*
G01*
X120719002Y-100739000D02*
X119818998Y-100739000D01*
G75*
G02*
X119569000Y-100489002I0J249998D01*
G01*
X119569000Y-99963998D01*
G75*
G02*
X119818998Y-99714000I249998J0D01*
G01*
X120719002Y-99714000D01*
G75*
G02*
X120969000Y-99963998I0J-249998D01*
G01*
X120969000Y-100489002D01*
G75*
G02*
X120719002Y-100739000I-249998J0D01*
G01*
G37*
%TD*%
%TO.C,R7*%
G36*
G01*
X117417002Y-98937500D02*
X116516998Y-98937500D01*
G75*
G02*
X116267000Y-98687502I0J249998D01*
G01*
X116267000Y-98162498D01*
G75*
G02*
X116516998Y-97912500I249998J0D01*
G01*
X117417002Y-97912500D01*
G75*
G02*
X117667000Y-98162498I0J-249998D01*
G01*
X117667000Y-98687502D01*
G75*
G02*
X117417002Y-98937500I-249998J0D01*
G01*
G37*
G36*
G01*
X117417002Y-100762500D02*
X116516998Y-100762500D01*
G75*
G02*
X116267000Y-100512502I0J249998D01*
G01*
X116267000Y-99987498D01*
G75*
G02*
X116516998Y-99737500I249998J0D01*
G01*
X117417002Y-99737500D01*
G75*
G02*
X117667000Y-99987498I0J-249998D01*
G01*
X117667000Y-100512502D01*
G75*
G02*
X117417002Y-100762500I-249998J0D01*
G01*
G37*
%TD*%
%TO.C,R6*%
G36*
G01*
X124021002Y-98914000D02*
X123120998Y-98914000D01*
G75*
G02*
X122871000Y-98664002I0J249998D01*
G01*
X122871000Y-98138998D01*
G75*
G02*
X123120998Y-97889000I249998J0D01*
G01*
X124021002Y-97889000D01*
G75*
G02*
X124271000Y-98138998I0J-249998D01*
G01*
X124271000Y-98664002D01*
G75*
G02*
X124021002Y-98914000I-249998J0D01*
G01*
G37*
G36*
G01*
X124021002Y-100739000D02*
X123120998Y-100739000D01*
G75*
G02*
X122871000Y-100489002I0J249998D01*
G01*
X122871000Y-99963998D01*
G75*
G02*
X123120998Y-99714000I249998J0D01*
G01*
X124021002Y-99714000D01*
G75*
G02*
X124271000Y-99963998I0J-249998D01*
G01*
X124271000Y-100489002D01*
G75*
G02*
X124021002Y-100739000I-249998J0D01*
G01*
G37*
%TD*%
%TO.C,R5*%
G36*
G01*
X127323002Y-98937500D02*
X126422998Y-98937500D01*
G75*
G02*
X126173000Y-98687502I0J249998D01*
G01*
X126173000Y-98162498D01*
G75*
G02*
X126422998Y-97912500I249998J0D01*
G01*
X127323002Y-97912500D01*
G75*
G02*
X127573000Y-98162498I0J-249998D01*
G01*
X127573000Y-98687502D01*
G75*
G02*
X127323002Y-98937500I-249998J0D01*
G01*
G37*
G36*
G01*
X127323002Y-100762500D02*
X126422998Y-100762500D01*
G75*
G02*
X126173000Y-100512502I0J249998D01*
G01*
X126173000Y-99987498D01*
G75*
G02*
X126422998Y-99737500I249998J0D01*
G01*
X127323002Y-99737500D01*
G75*
G02*
X127573000Y-99987498I0J-249998D01*
G01*
X127573000Y-100512502D01*
G75*
G02*
X127323002Y-100762500I-249998J0D01*
G01*
G37*
%TD*%
%TO.C,R14*%
G36*
G01*
X135832002Y-39962500D02*
X134931998Y-39962500D01*
G75*
G02*
X134682000Y-39712502I0J249998D01*
G01*
X134682000Y-39187498D01*
G75*
G02*
X134931998Y-38937500I249998J0D01*
G01*
X135832002Y-38937500D01*
G75*
G02*
X136082000Y-39187498I0J-249998D01*
G01*
X136082000Y-39712502D01*
G75*
G02*
X135832002Y-39962500I-249998J0D01*
G01*
G37*
G36*
G01*
X135832002Y-41787500D02*
X134931998Y-41787500D01*
G75*
G02*
X134682000Y-41537502I0J249998D01*
G01*
X134682000Y-41012498D01*
G75*
G02*
X134931998Y-40762500I249998J0D01*
G01*
X135832002Y-40762500D01*
G75*
G02*
X136082000Y-41012498I0J-249998D01*
G01*
X136082000Y-41537502D01*
G75*
G02*
X135832002Y-41787500I-249998J0D01*
G01*
G37*
%TD*%
%TO.C,R13*%
G36*
G01*
X116262998Y-45120000D02*
X117163002Y-45120000D01*
G75*
G02*
X117413000Y-45369998I0J-249998D01*
G01*
X117413000Y-45895002D01*
G75*
G02*
X117163002Y-46145000I-249998J0D01*
G01*
X116262998Y-46145000D01*
G75*
G02*
X116013000Y-45895002I0J249998D01*
G01*
X116013000Y-45369998D01*
G75*
G02*
X116262998Y-45120000I249998J0D01*
G01*
G37*
G36*
G01*
X116262998Y-43295000D02*
X117163002Y-43295000D01*
G75*
G02*
X117413000Y-43544998I0J-249998D01*
G01*
X117413000Y-44070002D01*
G75*
G02*
X117163002Y-44320000I-249998J0D01*
G01*
X116262998Y-44320000D01*
G75*
G02*
X116013000Y-44070002I0J249998D01*
G01*
X116013000Y-43544998D01*
G75*
G02*
X116262998Y-43295000I249998J0D01*
G01*
G37*
%TD*%
%TO.C,R12*%
G36*
G01*
X120199998Y-45120000D02*
X121100002Y-45120000D01*
G75*
G02*
X121350000Y-45369998I0J-249998D01*
G01*
X121350000Y-45895002D01*
G75*
G02*
X121100002Y-46145000I-249998J0D01*
G01*
X120199998Y-46145000D01*
G75*
G02*
X119950000Y-45895002I0J249998D01*
G01*
X119950000Y-45369998D01*
G75*
G02*
X120199998Y-45120000I249998J0D01*
G01*
G37*
G36*
G01*
X120199998Y-43295000D02*
X121100002Y-43295000D01*
G75*
G02*
X121350000Y-43544998I0J-249998D01*
G01*
X121350000Y-44070002D01*
G75*
G02*
X121100002Y-44320000I-249998J0D01*
G01*
X120199998Y-44320000D01*
G75*
G02*
X119950000Y-44070002I0J249998D01*
G01*
X119950000Y-43544998D01*
G75*
G02*
X120199998Y-43295000I249998J0D01*
G01*
G37*
%TD*%
%TO.C,R15*%
G36*
G01*
X122264000Y-73034998D02*
X122264000Y-74285002D01*
G75*
G02*
X122014002Y-74535000I-249998J0D01*
G01*
X121388998Y-74535000D01*
G75*
G02*
X121139000Y-74285002I0J249998D01*
G01*
X121139000Y-73034998D01*
G75*
G02*
X121388998Y-72785000I249998J0D01*
G01*
X122014002Y-72785000D01*
G75*
G02*
X122264000Y-73034998I0J-249998D01*
G01*
G37*
G36*
G01*
X125189000Y-73034998D02*
X125189000Y-74285002D01*
G75*
G02*
X124939002Y-74535000I-249998J0D01*
G01*
X124313998Y-74535000D01*
G75*
G02*
X124064000Y-74285002I0J249998D01*
G01*
X124064000Y-73034998D01*
G75*
G02*
X124313998Y-72785000I249998J0D01*
G01*
X124939002Y-72785000D01*
G75*
G02*
X125189000Y-73034998I0J-249998D01*
G01*
G37*
%TD*%
%TO.C,U2*%
G36*
G01*
X129770000Y-38885000D02*
X129770000Y-38585000D01*
G75*
G02*
X129920000Y-38435000I150000J0D01*
G01*
X131570000Y-38435000D01*
G75*
G02*
X131720000Y-38585000I0J-150000D01*
G01*
X131720000Y-38885000D01*
G75*
G02*
X131570000Y-39035000I-150000J0D01*
G01*
X129920000Y-39035000D01*
G75*
G02*
X129770000Y-38885000I0J150000D01*
G01*
G37*
G36*
G01*
X129770000Y-40155000D02*
X129770000Y-39855000D01*
G75*
G02*
X129920000Y-39705000I150000J0D01*
G01*
X131570000Y-39705000D01*
G75*
G02*
X131720000Y-39855000I0J-150000D01*
G01*
X131720000Y-40155000D01*
G75*
G02*
X131570000Y-40305000I-150000J0D01*
G01*
X129920000Y-40305000D01*
G75*
G02*
X129770000Y-40155000I0J150000D01*
G01*
G37*
G36*
G01*
X129770000Y-41425000D02*
X129770000Y-41125000D01*
G75*
G02*
X129920000Y-40975000I150000J0D01*
G01*
X131570000Y-40975000D01*
G75*
G02*
X131720000Y-41125000I0J-150000D01*
G01*
X131720000Y-41425000D01*
G75*
G02*
X131570000Y-41575000I-150000J0D01*
G01*
X129920000Y-41575000D01*
G75*
G02*
X129770000Y-41425000I0J150000D01*
G01*
G37*
G36*
G01*
X129770000Y-42695000D02*
X129770000Y-42395000D01*
G75*
G02*
X129920000Y-42245000I150000J0D01*
G01*
X131570000Y-42245000D01*
G75*
G02*
X131720000Y-42395000I0J-150000D01*
G01*
X131720000Y-42695000D01*
G75*
G02*
X131570000Y-42845000I-150000J0D01*
G01*
X129920000Y-42845000D01*
G75*
G02*
X129770000Y-42695000I0J150000D01*
G01*
G37*
G36*
G01*
X129770000Y-43965000D02*
X129770000Y-43665000D01*
G75*
G02*
X129920000Y-43515000I150000J0D01*
G01*
X131570000Y-43515000D01*
G75*
G02*
X131720000Y-43665000I0J-150000D01*
G01*
X131720000Y-43965000D01*
G75*
G02*
X131570000Y-44115000I-150000J0D01*
G01*
X129920000Y-44115000D01*
G75*
G02*
X129770000Y-43965000I0J150000D01*
G01*
G37*
G36*
G01*
X129770000Y-45235000D02*
X129770000Y-44935000D01*
G75*
G02*
X129920000Y-44785000I150000J0D01*
G01*
X131570000Y-44785000D01*
G75*
G02*
X131720000Y-44935000I0J-150000D01*
G01*
X131720000Y-45235000D01*
G75*
G02*
X131570000Y-45385000I-150000J0D01*
G01*
X129920000Y-45385000D01*
G75*
G02*
X129770000Y-45235000I0J150000D01*
G01*
G37*
G36*
G01*
X129770000Y-46505000D02*
X129770000Y-46205000D01*
G75*
G02*
X129920000Y-46055000I150000J0D01*
G01*
X131570000Y-46055000D01*
G75*
G02*
X131720000Y-46205000I0J-150000D01*
G01*
X131720000Y-46505000D01*
G75*
G02*
X131570000Y-46655000I-150000J0D01*
G01*
X129920000Y-46655000D01*
G75*
G02*
X129770000Y-46505000I0J150000D01*
G01*
G37*
G36*
G01*
X124820000Y-46505000D02*
X124820000Y-46205000D01*
G75*
G02*
X124970000Y-46055000I150000J0D01*
G01*
X126620000Y-46055000D01*
G75*
G02*
X126770000Y-46205000I0J-150000D01*
G01*
X126770000Y-46505000D01*
G75*
G02*
X126620000Y-46655000I-150000J0D01*
G01*
X124970000Y-46655000D01*
G75*
G02*
X124820000Y-46505000I0J150000D01*
G01*
G37*
G36*
G01*
X124820000Y-45235000D02*
X124820000Y-44935000D01*
G75*
G02*
X124970000Y-44785000I150000J0D01*
G01*
X126620000Y-44785000D01*
G75*
G02*
X126770000Y-44935000I0J-150000D01*
G01*
X126770000Y-45235000D01*
G75*
G02*
X126620000Y-45385000I-150000J0D01*
G01*
X124970000Y-45385000D01*
G75*
G02*
X124820000Y-45235000I0J150000D01*
G01*
G37*
G36*
G01*
X124820000Y-43965000D02*
X124820000Y-43665000D01*
G75*
G02*
X124970000Y-43515000I150000J0D01*
G01*
X126620000Y-43515000D01*
G75*
G02*
X126770000Y-43665000I0J-150000D01*
G01*
X126770000Y-43965000D01*
G75*
G02*
X126620000Y-44115000I-150000J0D01*
G01*
X124970000Y-44115000D01*
G75*
G02*
X124820000Y-43965000I0J150000D01*
G01*
G37*
G36*
G01*
X124820000Y-42695000D02*
X124820000Y-42395000D01*
G75*
G02*
X124970000Y-42245000I150000J0D01*
G01*
X126620000Y-42245000D01*
G75*
G02*
X126770000Y-42395000I0J-150000D01*
G01*
X126770000Y-42695000D01*
G75*
G02*
X126620000Y-42845000I-150000J0D01*
G01*
X124970000Y-42845000D01*
G75*
G02*
X124820000Y-42695000I0J150000D01*
G01*
G37*
G36*
G01*
X124820000Y-41425000D02*
X124820000Y-41125000D01*
G75*
G02*
X124970000Y-40975000I150000J0D01*
G01*
X126620000Y-40975000D01*
G75*
G02*
X126770000Y-41125000I0J-150000D01*
G01*
X126770000Y-41425000D01*
G75*
G02*
X126620000Y-41575000I-150000J0D01*
G01*
X124970000Y-41575000D01*
G75*
G02*
X124820000Y-41425000I0J150000D01*
G01*
G37*
G36*
G01*
X124820000Y-40155000D02*
X124820000Y-39855000D01*
G75*
G02*
X124970000Y-39705000I150000J0D01*
G01*
X126620000Y-39705000D01*
G75*
G02*
X126770000Y-39855000I0J-150000D01*
G01*
X126770000Y-40155000D01*
G75*
G02*
X126620000Y-40305000I-150000J0D01*
G01*
X124970000Y-40305000D01*
G75*
G02*
X124820000Y-40155000I0J150000D01*
G01*
G37*
G36*
G01*
X124820000Y-38885000D02*
X124820000Y-38585000D01*
G75*
G02*
X124970000Y-38435000I150000J0D01*
G01*
X126620000Y-38435000D01*
G75*
G02*
X126770000Y-38585000I0J-150000D01*
G01*
X126770000Y-38885000D01*
G75*
G02*
X126620000Y-39035000I-150000J0D01*
G01*
X124970000Y-39035000D01*
G75*
G02*
X124820000Y-38885000I0J150000D01*
G01*
G37*
%TD*%
%TO.C,C5*%
G36*
G01*
X134907000Y-45596000D02*
X135857000Y-45596000D01*
G75*
G02*
X136107000Y-45846000I0J-250000D01*
G01*
X136107000Y-46346000D01*
G75*
G02*
X135857000Y-46596000I-250000J0D01*
G01*
X134907000Y-46596000D01*
G75*
G02*
X134657000Y-46346000I0J250000D01*
G01*
X134657000Y-45846000D01*
G75*
G02*
X134907000Y-45596000I250000J0D01*
G01*
G37*
G36*
G01*
X134907000Y-43696000D02*
X135857000Y-43696000D01*
G75*
G02*
X136107000Y-43946000I0J-250000D01*
G01*
X136107000Y-44446000D01*
G75*
G02*
X135857000Y-44696000I-250000J0D01*
G01*
X134907000Y-44696000D01*
G75*
G02*
X134657000Y-44446000I0J250000D01*
G01*
X134657000Y-43946000D01*
G75*
G02*
X134907000Y-43696000I250000J0D01*
G01*
G37*
%TD*%
%TO.C,C4*%
G36*
G01*
X116238000Y-40775000D02*
X117188000Y-40775000D01*
G75*
G02*
X117438000Y-41025000I0J-250000D01*
G01*
X117438000Y-41525000D01*
G75*
G02*
X117188000Y-41775000I-250000J0D01*
G01*
X116238000Y-41775000D01*
G75*
G02*
X115988000Y-41525000I0J250000D01*
G01*
X115988000Y-41025000D01*
G75*
G02*
X116238000Y-40775000I250000J0D01*
G01*
G37*
G36*
G01*
X116238000Y-38875000D02*
X117188000Y-38875000D01*
G75*
G02*
X117438000Y-39125000I0J-250000D01*
G01*
X117438000Y-39625000D01*
G75*
G02*
X117188000Y-39875000I-250000J0D01*
G01*
X116238000Y-39875000D01*
G75*
G02*
X115988000Y-39625000I0J250000D01*
G01*
X115988000Y-39125000D01*
G75*
G02*
X116238000Y-38875000I250000J0D01*
G01*
G37*
%TD*%
%TO.C,C3*%
G36*
G01*
X120175000Y-40775000D02*
X121125000Y-40775000D01*
G75*
G02*
X121375000Y-41025000I0J-250000D01*
G01*
X121375000Y-41525000D01*
G75*
G02*
X121125000Y-41775000I-250000J0D01*
G01*
X120175000Y-41775000D01*
G75*
G02*
X119925000Y-41525000I0J250000D01*
G01*
X119925000Y-41025000D01*
G75*
G02*
X120175000Y-40775000I250000J0D01*
G01*
G37*
G36*
G01*
X120175000Y-38875000D02*
X121125000Y-38875000D01*
G75*
G02*
X121375000Y-39125000I0J-250000D01*
G01*
X121375000Y-39625000D01*
G75*
G02*
X121125000Y-39875000I-250000J0D01*
G01*
X120175000Y-39875000D01*
G75*
G02*
X119925000Y-39625000I0J250000D01*
G01*
X119925000Y-39125000D01*
G75*
G02*
X120175000Y-38875000I250000J0D01*
G01*
G37*
%TD*%
%TO.C,C1*%
G36*
G01*
X117975000Y-73185000D02*
X117975000Y-74135000D01*
G75*
G02*
X117725000Y-74385000I-250000J0D01*
G01*
X117225000Y-74385000D01*
G75*
G02*
X116975000Y-74135000I0J250000D01*
G01*
X116975000Y-73185000D01*
G75*
G02*
X117225000Y-72935000I250000J0D01*
G01*
X117725000Y-72935000D01*
G75*
G02*
X117975000Y-73185000I0J-250000D01*
G01*
G37*
G36*
G01*
X119875000Y-73185000D02*
X119875000Y-74135000D01*
G75*
G02*
X119625000Y-74385000I-250000J0D01*
G01*
X119125000Y-74385000D01*
G75*
G02*
X118875000Y-74135000I0J250000D01*
G01*
X118875000Y-73185000D01*
G75*
G02*
X119125000Y-72935000I250000J0D01*
G01*
X119625000Y-72935000D01*
G75*
G02*
X119875000Y-73185000I0J-250000D01*
G01*
G37*
%TD*%
%TO.C,YMF288*%
G36*
G01*
X133200000Y-86810000D02*
X133500000Y-86810000D01*
G75*
G02*
X133650000Y-86960000I0J-150000D01*
G01*
X133650000Y-88710000D01*
G75*
G02*
X133500000Y-88860000I-150000J0D01*
G01*
X133200000Y-88860000D01*
G75*
G02*
X133050000Y-88710000I0J150000D01*
G01*
X133050000Y-86960000D01*
G75*
G02*
X133200000Y-86810000I150000J0D01*
G01*
G37*
G36*
G01*
X131930000Y-86810000D02*
X132230000Y-86810000D01*
G75*
G02*
X132380000Y-86960000I0J-150000D01*
G01*
X132380000Y-88710000D01*
G75*
G02*
X132230000Y-88860000I-150000J0D01*
G01*
X131930000Y-88860000D01*
G75*
G02*
X131780000Y-88710000I0J150000D01*
G01*
X131780000Y-86960000D01*
G75*
G02*
X131930000Y-86810000I150000J0D01*
G01*
G37*
G36*
G01*
X130660000Y-86810000D02*
X130960000Y-86810000D01*
G75*
G02*
X131110000Y-86960000I0J-150000D01*
G01*
X131110000Y-88710000D01*
G75*
G02*
X130960000Y-88860000I-150000J0D01*
G01*
X130660000Y-88860000D01*
G75*
G02*
X130510000Y-88710000I0J150000D01*
G01*
X130510000Y-86960000D01*
G75*
G02*
X130660000Y-86810000I150000J0D01*
G01*
G37*
G36*
G01*
X120500000Y-86810000D02*
X120800000Y-86810000D01*
G75*
G02*
X120950000Y-86960000I0J-150000D01*
G01*
X120950000Y-88710000D01*
G75*
G02*
X120800000Y-88860000I-150000J0D01*
G01*
X120500000Y-88860000D01*
G75*
G02*
X120350000Y-88710000I0J150000D01*
G01*
X120350000Y-86960000D01*
G75*
G02*
X120500000Y-86810000I150000J0D01*
G01*
G37*
G36*
G01*
X117960000Y-86810000D02*
X118260000Y-86810000D01*
G75*
G02*
X118410000Y-86960000I0J-150000D01*
G01*
X118410000Y-88710000D01*
G75*
G02*
X118260000Y-88860000I-150000J0D01*
G01*
X117960000Y-88860000D01*
G75*
G02*
X117810000Y-88710000I0J150000D01*
G01*
X117810000Y-86960000D01*
G75*
G02*
X117960000Y-86810000I150000J0D01*
G01*
G37*
G36*
G01*
X134470000Y-86810000D02*
X134770000Y-86810000D01*
G75*
G02*
X134920000Y-86960000I0J-150000D01*
G01*
X134920000Y-88710000D01*
G75*
G02*
X134770000Y-88860000I-150000J0D01*
G01*
X134470000Y-88860000D01*
G75*
G02*
X134320000Y-88710000I0J150000D01*
G01*
X134320000Y-86960000D01*
G75*
G02*
X134470000Y-86810000I150000J0D01*
G01*
G37*
G36*
G01*
X124310000Y-86810000D02*
X124610000Y-86810000D01*
G75*
G02*
X124760000Y-86960000I0J-150000D01*
G01*
X124760000Y-88710000D01*
G75*
G02*
X124610000Y-88860000I-150000J0D01*
G01*
X124310000Y-88860000D01*
G75*
G02*
X124160000Y-88710000I0J150000D01*
G01*
X124160000Y-86960000D01*
G75*
G02*
X124310000Y-86810000I150000J0D01*
G01*
G37*
G36*
G01*
X119230000Y-86810000D02*
X119530000Y-86810000D01*
G75*
G02*
X119680000Y-86960000I0J-150000D01*
G01*
X119680000Y-88710000D01*
G75*
G02*
X119530000Y-88860000I-150000J0D01*
G01*
X119230000Y-88860000D01*
G75*
G02*
X119080000Y-88710000I0J150000D01*
G01*
X119080000Y-86960000D01*
G75*
G02*
X119230000Y-86810000I150000J0D01*
G01*
G37*
G36*
G01*
X126850000Y-86810000D02*
X127150000Y-86810000D01*
G75*
G02*
X127300000Y-86960000I0J-150000D01*
G01*
X127300000Y-88710000D01*
G75*
G02*
X127150000Y-88860000I-150000J0D01*
G01*
X126850000Y-88860000D01*
G75*
G02*
X126700000Y-88710000I0J150000D01*
G01*
X126700000Y-86960000D01*
G75*
G02*
X126850000Y-86810000I150000J0D01*
G01*
G37*
G36*
G01*
X128120000Y-86810000D02*
X128420000Y-86810000D01*
G75*
G02*
X128570000Y-86960000I0J-150000D01*
G01*
X128570000Y-88710000D01*
G75*
G02*
X128420000Y-88860000I-150000J0D01*
G01*
X128120000Y-88860000D01*
G75*
G02*
X127970000Y-88710000I0J150000D01*
G01*
X127970000Y-86960000D01*
G75*
G02*
X128120000Y-86810000I150000J0D01*
G01*
G37*
G36*
G01*
X129390000Y-86810000D02*
X129690000Y-86810000D01*
G75*
G02*
X129840000Y-86960000I0J-150000D01*
G01*
X129840000Y-88710000D01*
G75*
G02*
X129690000Y-88860000I-150000J0D01*
G01*
X129390000Y-88860000D01*
G75*
G02*
X129240000Y-88710000I0J150000D01*
G01*
X129240000Y-86960000D01*
G75*
G02*
X129390000Y-86810000I150000J0D01*
G01*
G37*
G36*
G01*
X121770000Y-86810000D02*
X122070000Y-86810000D01*
G75*
G02*
X122220000Y-86960000I0J-150000D01*
G01*
X122220000Y-88710000D01*
G75*
G02*
X122070000Y-88860000I-150000J0D01*
G01*
X121770000Y-88860000D01*
G75*
G02*
X121620000Y-88710000I0J150000D01*
G01*
X121620000Y-86960000D01*
G75*
G02*
X121770000Y-86810000I150000J0D01*
G01*
G37*
G36*
G01*
X117960000Y-76240000D02*
X118260000Y-76240000D01*
G75*
G02*
X118410000Y-76390000I0J-150000D01*
G01*
X118410000Y-78140000D01*
G75*
G02*
X118260000Y-78290000I-150000J0D01*
G01*
X117960000Y-78290000D01*
G75*
G02*
X117810000Y-78140000I0J150000D01*
G01*
X117810000Y-76390000D01*
G75*
G02*
X117960000Y-76240000I150000J0D01*
G01*
G37*
G36*
G01*
X123040000Y-86810000D02*
X123340000Y-86810000D01*
G75*
G02*
X123490000Y-86960000I0J-150000D01*
G01*
X123490000Y-88710000D01*
G75*
G02*
X123340000Y-88860000I-150000J0D01*
G01*
X123040000Y-88860000D01*
G75*
G02*
X122890000Y-88710000I0J150000D01*
G01*
X122890000Y-86960000D01*
G75*
G02*
X123040000Y-86810000I150000J0D01*
G01*
G37*
G36*
G01*
X119230000Y-76240000D02*
X119530000Y-76240000D01*
G75*
G02*
X119680000Y-76390000I0J-150000D01*
G01*
X119680000Y-78140000D01*
G75*
G02*
X119530000Y-78290000I-150000J0D01*
G01*
X119230000Y-78290000D01*
G75*
G02*
X119080000Y-78140000I0J150000D01*
G01*
X119080000Y-76390000D01*
G75*
G02*
X119230000Y-76240000I150000J0D01*
G01*
G37*
G36*
G01*
X125580000Y-86810000D02*
X125880000Y-86810000D01*
G75*
G02*
X126030000Y-86960000I0J-150000D01*
G01*
X126030000Y-88710000D01*
G75*
G02*
X125880000Y-88860000I-150000J0D01*
G01*
X125580000Y-88860000D01*
G75*
G02*
X125430000Y-88710000I0J150000D01*
G01*
X125430000Y-86960000D01*
G75*
G02*
X125580000Y-86810000I150000J0D01*
G01*
G37*
G36*
G01*
X120500000Y-76240000D02*
X120800000Y-76240000D01*
G75*
G02*
X120950000Y-76390000I0J-150000D01*
G01*
X120950000Y-78140000D01*
G75*
G02*
X120800000Y-78290000I-150000J0D01*
G01*
X120500000Y-78290000D01*
G75*
G02*
X120350000Y-78140000I0J150000D01*
G01*
X120350000Y-76390000D01*
G75*
G02*
X120500000Y-76240000I150000J0D01*
G01*
G37*
G36*
G01*
X126850000Y-76240000D02*
X127150000Y-76240000D01*
G75*
G02*
X127300000Y-76390000I0J-150000D01*
G01*
X127300000Y-78140000D01*
G75*
G02*
X127150000Y-78290000I-150000J0D01*
G01*
X126850000Y-78290000D01*
G75*
G02*
X126700000Y-78140000I0J150000D01*
G01*
X126700000Y-76390000D01*
G75*
G02*
X126850000Y-76240000I150000J0D01*
G01*
G37*
G36*
G01*
X134470000Y-76240000D02*
X134770000Y-76240000D01*
G75*
G02*
X134920000Y-76390000I0J-150000D01*
G01*
X134920000Y-78140000D01*
G75*
G02*
X134770000Y-78290000I-150000J0D01*
G01*
X134470000Y-78290000D01*
G75*
G02*
X134320000Y-78140000I0J150000D01*
G01*
X134320000Y-76390000D01*
G75*
G02*
X134470000Y-76240000I150000J0D01*
G01*
G37*
G36*
G01*
X123040000Y-76240000D02*
X123340000Y-76240000D01*
G75*
G02*
X123490000Y-76390000I0J-150000D01*
G01*
X123490000Y-78140000D01*
G75*
G02*
X123340000Y-78290000I-150000J0D01*
G01*
X123040000Y-78290000D01*
G75*
G02*
X122890000Y-78140000I0J150000D01*
G01*
X122890000Y-76390000D01*
G75*
G02*
X123040000Y-76240000I150000J0D01*
G01*
G37*
G36*
G01*
X133200000Y-76240000D02*
X133500000Y-76240000D01*
G75*
G02*
X133650000Y-76390000I0J-150000D01*
G01*
X133650000Y-78140000D01*
G75*
G02*
X133500000Y-78290000I-150000J0D01*
G01*
X133200000Y-78290000D01*
G75*
G02*
X133050000Y-78140000I0J150000D01*
G01*
X133050000Y-76390000D01*
G75*
G02*
X133200000Y-76240000I150000J0D01*
G01*
G37*
G36*
G01*
X130660000Y-76240000D02*
X130960000Y-76240000D01*
G75*
G02*
X131110000Y-76390000I0J-150000D01*
G01*
X131110000Y-78140000D01*
G75*
G02*
X130960000Y-78290000I-150000J0D01*
G01*
X130660000Y-78290000D01*
G75*
G02*
X130510000Y-78140000I0J150000D01*
G01*
X130510000Y-76390000D01*
G75*
G02*
X130660000Y-76240000I150000J0D01*
G01*
G37*
G36*
G01*
X129390000Y-76240000D02*
X129690000Y-76240000D01*
G75*
G02*
X129840000Y-76390000I0J-150000D01*
G01*
X129840000Y-78140000D01*
G75*
G02*
X129690000Y-78290000I-150000J0D01*
G01*
X129390000Y-78290000D01*
G75*
G02*
X129240000Y-78140000I0J150000D01*
G01*
X129240000Y-76390000D01*
G75*
G02*
X129390000Y-76240000I150000J0D01*
G01*
G37*
G36*
G01*
X121770000Y-76240000D02*
X122070000Y-76240000D01*
G75*
G02*
X122220000Y-76390000I0J-150000D01*
G01*
X122220000Y-78140000D01*
G75*
G02*
X122070000Y-78290000I-150000J0D01*
G01*
X121770000Y-78290000D01*
G75*
G02*
X121620000Y-78140000I0J150000D01*
G01*
X121620000Y-76390000D01*
G75*
G02*
X121770000Y-76240000I150000J0D01*
G01*
G37*
G36*
G01*
X128120000Y-76240000D02*
X128420000Y-76240000D01*
G75*
G02*
X128570000Y-76390000I0J-150000D01*
G01*
X128570000Y-78140000D01*
G75*
G02*
X128420000Y-78290000I-150000J0D01*
G01*
X128120000Y-78290000D01*
G75*
G02*
X127970000Y-78140000I0J150000D01*
G01*
X127970000Y-76390000D01*
G75*
G02*
X128120000Y-76240000I150000J0D01*
G01*
G37*
G36*
G01*
X131930000Y-76240000D02*
X132230000Y-76240000D01*
G75*
G02*
X132380000Y-76390000I0J-150000D01*
G01*
X132380000Y-78140000D01*
G75*
G02*
X132230000Y-78290000I-150000J0D01*
G01*
X131930000Y-78290000D01*
G75*
G02*
X131780000Y-78140000I0J150000D01*
G01*
X131780000Y-76390000D01*
G75*
G02*
X131930000Y-76240000I150000J0D01*
G01*
G37*
G36*
G01*
X124310000Y-76240000D02*
X124610000Y-76240000D01*
G75*
G02*
X124760000Y-76390000I0J-150000D01*
G01*
X124760000Y-78140000D01*
G75*
G02*
X124610000Y-78290000I-150000J0D01*
G01*
X124310000Y-78290000D01*
G75*
G02*
X124160000Y-78140000I0J150000D01*
G01*
X124160000Y-76390000D01*
G75*
G02*
X124310000Y-76240000I150000J0D01*
G01*
G37*
G36*
G01*
X125580000Y-76240000D02*
X125880000Y-76240000D01*
G75*
G02*
X126030000Y-76390000I0J-150000D01*
G01*
X126030000Y-78140000D01*
G75*
G02*
X125880000Y-78290000I-150000J0D01*
G01*
X125580000Y-78290000D01*
G75*
G02*
X125430000Y-78140000I0J150000D01*
G01*
X125430000Y-76390000D01*
G75*
G02*
X125580000Y-76240000I150000J0D01*
G01*
G37*
%TD*%
%TO.C,BU9480F1*%
G36*
G01*
X130452000Y-92734000D02*
X130152000Y-92734000D01*
G75*
G02*
X130002000Y-92584000I0J150000D01*
G01*
X130002000Y-90934000D01*
G75*
G02*
X130152000Y-90784000I150000J0D01*
G01*
X130452000Y-90784000D01*
G75*
G02*
X130602000Y-90934000I0J-150000D01*
G01*
X130602000Y-92584000D01*
G75*
G02*
X130452000Y-92734000I-150000J0D01*
G01*
G37*
G36*
G01*
X131722000Y-92734000D02*
X131422000Y-92734000D01*
G75*
G02*
X131272000Y-92584000I0J150000D01*
G01*
X131272000Y-90934000D01*
G75*
G02*
X131422000Y-90784000I150000J0D01*
G01*
X131722000Y-90784000D01*
G75*
G02*
X131872000Y-90934000I0J-150000D01*
G01*
X131872000Y-92584000D01*
G75*
G02*
X131722000Y-92734000I-150000J0D01*
G01*
G37*
G36*
G01*
X132992000Y-92734000D02*
X132692000Y-92734000D01*
G75*
G02*
X132542000Y-92584000I0J150000D01*
G01*
X132542000Y-90934000D01*
G75*
G02*
X132692000Y-90784000I150000J0D01*
G01*
X132992000Y-90784000D01*
G75*
G02*
X133142000Y-90934000I0J-150000D01*
G01*
X133142000Y-92584000D01*
G75*
G02*
X132992000Y-92734000I-150000J0D01*
G01*
G37*
G36*
G01*
X134262000Y-92734000D02*
X133962000Y-92734000D01*
G75*
G02*
X133812000Y-92584000I0J150000D01*
G01*
X133812000Y-90934000D01*
G75*
G02*
X133962000Y-90784000I150000J0D01*
G01*
X134262000Y-90784000D01*
G75*
G02*
X134412000Y-90934000I0J-150000D01*
G01*
X134412000Y-92584000D01*
G75*
G02*
X134262000Y-92734000I-150000J0D01*
G01*
G37*
G36*
G01*
X134262000Y-97684000D02*
X133962000Y-97684000D01*
G75*
G02*
X133812000Y-97534000I0J150000D01*
G01*
X133812000Y-95884000D01*
G75*
G02*
X133962000Y-95734000I150000J0D01*
G01*
X134262000Y-95734000D01*
G75*
G02*
X134412000Y-95884000I0J-150000D01*
G01*
X134412000Y-97534000D01*
G75*
G02*
X134262000Y-97684000I-150000J0D01*
G01*
G37*
G36*
G01*
X132992000Y-97684000D02*
X132692000Y-97684000D01*
G75*
G02*
X132542000Y-97534000I0J150000D01*
G01*
X132542000Y-95884000D01*
G75*
G02*
X132692000Y-95734000I150000J0D01*
G01*
X132992000Y-95734000D01*
G75*
G02*
X133142000Y-95884000I0J-150000D01*
G01*
X133142000Y-97534000D01*
G75*
G02*
X132992000Y-97684000I-150000J0D01*
G01*
G37*
G36*
G01*
X131722000Y-97684000D02*
X131422000Y-97684000D01*
G75*
G02*
X131272000Y-97534000I0J150000D01*
G01*
X131272000Y-95884000D01*
G75*
G02*
X131422000Y-95734000I150000J0D01*
G01*
X131722000Y-95734000D01*
G75*
G02*
X131872000Y-95884000I0J-150000D01*
G01*
X131872000Y-97534000D01*
G75*
G02*
X131722000Y-97684000I-150000J0D01*
G01*
G37*
G36*
G01*
X130452000Y-97684000D02*
X130152000Y-97684000D01*
G75*
G02*
X130002000Y-97534000I0J150000D01*
G01*
X130002000Y-95884000D01*
G75*
G02*
X130152000Y-95734000I150000J0D01*
G01*
X130452000Y-95734000D01*
G75*
G02*
X130602000Y-95884000I0J-150000D01*
G01*
X130602000Y-97534000D01*
G75*
G02*
X130452000Y-97684000I-150000J0D01*
G01*
G37*
%TD*%
D11*
%TO.C,J5*%
X100965000Y-115317000D03*
X100965000Y-122047000D03*
%TD*%
%TO.C,C11*%
G36*
G01*
X118985000Y-114131000D02*
X118985000Y-115231000D01*
G75*
G02*
X118735000Y-115481000I-250000J0D01*
G01*
X116635000Y-115481000D01*
G75*
G02*
X116385000Y-115231000I0J250000D01*
G01*
X116385000Y-114131000D01*
G75*
G02*
X116635000Y-113881000I250000J0D01*
G01*
X118735000Y-113881000D01*
G75*
G02*
X118985000Y-114131000I0J-250000D01*
G01*
G37*
G36*
G01*
X122585000Y-114131000D02*
X122585000Y-115231000D01*
G75*
G02*
X122335000Y-115481000I-250000J0D01*
G01*
X120235000Y-115481000D01*
G75*
G02*
X119985000Y-115231000I0J250000D01*
G01*
X119985000Y-114131000D01*
G75*
G02*
X120235000Y-113881000I250000J0D01*
G01*
X122335000Y-113881000D01*
G75*
G02*
X122585000Y-114131000I0J-250000D01*
G01*
G37*
%TD*%
D12*
%TO.C,J6*%
X106990000Y-121540000D03*
X106990000Y-114340000D03*
X106990000Y-112140000D03*
X113990000Y-121540000D03*
X113990000Y-118140000D03*
X113990000Y-112640000D03*
%TD*%
%TO.C,U1*%
G36*
G01*
X101115000Y-40410000D02*
X100815000Y-40410000D01*
G75*
G02*
X100665000Y-40260000I0J150000D01*
G01*
X100665000Y-38610000D01*
G75*
G02*
X100815000Y-38460000I150000J0D01*
G01*
X101115000Y-38460000D01*
G75*
G02*
X101265000Y-38610000I0J-150000D01*
G01*
X101265000Y-40260000D01*
G75*
G02*
X101115000Y-40410000I-150000J0D01*
G01*
G37*
G36*
G01*
X102385000Y-40410000D02*
X102085000Y-40410000D01*
G75*
G02*
X101935000Y-40260000I0J150000D01*
G01*
X101935000Y-38610000D01*
G75*
G02*
X102085000Y-38460000I150000J0D01*
G01*
X102385000Y-38460000D01*
G75*
G02*
X102535000Y-38610000I0J-150000D01*
G01*
X102535000Y-40260000D01*
G75*
G02*
X102385000Y-40410000I-150000J0D01*
G01*
G37*
G36*
G01*
X103655000Y-40410000D02*
X103355000Y-40410000D01*
G75*
G02*
X103205000Y-40260000I0J150000D01*
G01*
X103205000Y-38610000D01*
G75*
G02*
X103355000Y-38460000I150000J0D01*
G01*
X103655000Y-38460000D01*
G75*
G02*
X103805000Y-38610000I0J-150000D01*
G01*
X103805000Y-40260000D01*
G75*
G02*
X103655000Y-40410000I-150000J0D01*
G01*
G37*
G36*
G01*
X104925000Y-40410000D02*
X104625000Y-40410000D01*
G75*
G02*
X104475000Y-40260000I0J150000D01*
G01*
X104475000Y-38610000D01*
G75*
G02*
X104625000Y-38460000I150000J0D01*
G01*
X104925000Y-38460000D01*
G75*
G02*
X105075000Y-38610000I0J-150000D01*
G01*
X105075000Y-40260000D01*
G75*
G02*
X104925000Y-40410000I-150000J0D01*
G01*
G37*
G36*
G01*
X106195000Y-40410000D02*
X105895000Y-40410000D01*
G75*
G02*
X105745000Y-40260000I0J150000D01*
G01*
X105745000Y-38610000D01*
G75*
G02*
X105895000Y-38460000I150000J0D01*
G01*
X106195000Y-38460000D01*
G75*
G02*
X106345000Y-38610000I0J-150000D01*
G01*
X106345000Y-40260000D01*
G75*
G02*
X106195000Y-40410000I-150000J0D01*
G01*
G37*
G36*
G01*
X107465000Y-40410000D02*
X107165000Y-40410000D01*
G75*
G02*
X107015000Y-40260000I0J150000D01*
G01*
X107015000Y-38610000D01*
G75*
G02*
X107165000Y-38460000I150000J0D01*
G01*
X107465000Y-38460000D01*
G75*
G02*
X107615000Y-38610000I0J-150000D01*
G01*
X107615000Y-40260000D01*
G75*
G02*
X107465000Y-40410000I-150000J0D01*
G01*
G37*
G36*
G01*
X108735000Y-40410000D02*
X108435000Y-40410000D01*
G75*
G02*
X108285000Y-40260000I0J150000D01*
G01*
X108285000Y-38610000D01*
G75*
G02*
X108435000Y-38460000I150000J0D01*
G01*
X108735000Y-38460000D01*
G75*
G02*
X108885000Y-38610000I0J-150000D01*
G01*
X108885000Y-40260000D01*
G75*
G02*
X108735000Y-40410000I-150000J0D01*
G01*
G37*
G36*
G01*
X110005000Y-40410000D02*
X109705000Y-40410000D01*
G75*
G02*
X109555000Y-40260000I0J150000D01*
G01*
X109555000Y-38610000D01*
G75*
G02*
X109705000Y-38460000I150000J0D01*
G01*
X110005000Y-38460000D01*
G75*
G02*
X110155000Y-38610000I0J-150000D01*
G01*
X110155000Y-40260000D01*
G75*
G02*
X110005000Y-40410000I-150000J0D01*
G01*
G37*
G36*
G01*
X110005000Y-45360000D02*
X109705000Y-45360000D01*
G75*
G02*
X109555000Y-45210000I0J150000D01*
G01*
X109555000Y-43560000D01*
G75*
G02*
X109705000Y-43410000I150000J0D01*
G01*
X110005000Y-43410000D01*
G75*
G02*
X110155000Y-43560000I0J-150000D01*
G01*
X110155000Y-45210000D01*
G75*
G02*
X110005000Y-45360000I-150000J0D01*
G01*
G37*
G36*
G01*
X108735000Y-45360000D02*
X108435000Y-45360000D01*
G75*
G02*
X108285000Y-45210000I0J150000D01*
G01*
X108285000Y-43560000D01*
G75*
G02*
X108435000Y-43410000I150000J0D01*
G01*
X108735000Y-43410000D01*
G75*
G02*
X108885000Y-43560000I0J-150000D01*
G01*
X108885000Y-45210000D01*
G75*
G02*
X108735000Y-45360000I-150000J0D01*
G01*
G37*
G36*
G01*
X107465000Y-45360000D02*
X107165000Y-45360000D01*
G75*
G02*
X107015000Y-45210000I0J150000D01*
G01*
X107015000Y-43560000D01*
G75*
G02*
X107165000Y-43410000I150000J0D01*
G01*
X107465000Y-43410000D01*
G75*
G02*
X107615000Y-43560000I0J-150000D01*
G01*
X107615000Y-45210000D01*
G75*
G02*
X107465000Y-45360000I-150000J0D01*
G01*
G37*
G36*
G01*
X106195000Y-45360000D02*
X105895000Y-45360000D01*
G75*
G02*
X105745000Y-45210000I0J150000D01*
G01*
X105745000Y-43560000D01*
G75*
G02*
X105895000Y-43410000I150000J0D01*
G01*
X106195000Y-43410000D01*
G75*
G02*
X106345000Y-43560000I0J-150000D01*
G01*
X106345000Y-45210000D01*
G75*
G02*
X106195000Y-45360000I-150000J0D01*
G01*
G37*
G36*
G01*
X104925000Y-45360000D02*
X104625000Y-45360000D01*
G75*
G02*
X104475000Y-45210000I0J150000D01*
G01*
X104475000Y-43560000D01*
G75*
G02*
X104625000Y-43410000I150000J0D01*
G01*
X104925000Y-43410000D01*
G75*
G02*
X105075000Y-43560000I0J-150000D01*
G01*
X105075000Y-45210000D01*
G75*
G02*
X104925000Y-45360000I-150000J0D01*
G01*
G37*
G36*
G01*
X103655000Y-45360000D02*
X103355000Y-45360000D01*
G75*
G02*
X103205000Y-45210000I0J150000D01*
G01*
X103205000Y-43560000D01*
G75*
G02*
X103355000Y-43410000I150000J0D01*
G01*
X103655000Y-43410000D01*
G75*
G02*
X103805000Y-43560000I0J-150000D01*
G01*
X103805000Y-45210000D01*
G75*
G02*
X103655000Y-45360000I-150000J0D01*
G01*
G37*
G36*
G01*
X102385000Y-45360000D02*
X102085000Y-45360000D01*
G75*
G02*
X101935000Y-45210000I0J150000D01*
G01*
X101935000Y-43560000D01*
G75*
G02*
X102085000Y-43410000I150000J0D01*
G01*
X102385000Y-43410000D01*
G75*
G02*
X102535000Y-43560000I0J-150000D01*
G01*
X102535000Y-45210000D01*
G75*
G02*
X102385000Y-45360000I-150000J0D01*
G01*
G37*
G36*
G01*
X101115000Y-45360000D02*
X100815000Y-45360000D01*
G75*
G02*
X100665000Y-45210000I0J150000D01*
G01*
X100665000Y-43560000D01*
G75*
G02*
X100815000Y-43410000I150000J0D01*
G01*
X101115000Y-43410000D01*
G75*
G02*
X101265000Y-43560000I0J-150000D01*
G01*
X101265000Y-45210000D01*
G75*
G02*
X101115000Y-45360000I-150000J0D01*
G01*
G37*
%TD*%
%TO.C,U10*%
G36*
G01*
X101830000Y-52855000D02*
X101830000Y-52555000D01*
G75*
G02*
X101980000Y-52405000I150000J0D01*
G01*
X103630000Y-52405000D01*
G75*
G02*
X103780000Y-52555000I0J-150000D01*
G01*
X103780000Y-52855000D01*
G75*
G02*
X103630000Y-53005000I-150000J0D01*
G01*
X101980000Y-53005000D01*
G75*
G02*
X101830000Y-52855000I0J150000D01*
G01*
G37*
G36*
G01*
X101830000Y-54125000D02*
X101830000Y-53825000D01*
G75*
G02*
X101980000Y-53675000I150000J0D01*
G01*
X103630000Y-53675000D01*
G75*
G02*
X103780000Y-53825000I0J-150000D01*
G01*
X103780000Y-54125000D01*
G75*
G02*
X103630000Y-54275000I-150000J0D01*
G01*
X101980000Y-54275000D01*
G75*
G02*
X101830000Y-54125000I0J150000D01*
G01*
G37*
G36*
G01*
X101830000Y-55395000D02*
X101830000Y-55095000D01*
G75*
G02*
X101980000Y-54945000I150000J0D01*
G01*
X103630000Y-54945000D01*
G75*
G02*
X103780000Y-55095000I0J-150000D01*
G01*
X103780000Y-55395000D01*
G75*
G02*
X103630000Y-55545000I-150000J0D01*
G01*
X101980000Y-55545000D01*
G75*
G02*
X101830000Y-55395000I0J150000D01*
G01*
G37*
G36*
G01*
X101830000Y-56665000D02*
X101830000Y-56365000D01*
G75*
G02*
X101980000Y-56215000I150000J0D01*
G01*
X103630000Y-56215000D01*
G75*
G02*
X103780000Y-56365000I0J-150000D01*
G01*
X103780000Y-56665000D01*
G75*
G02*
X103630000Y-56815000I-150000J0D01*
G01*
X101980000Y-56815000D01*
G75*
G02*
X101830000Y-56665000I0J150000D01*
G01*
G37*
G36*
G01*
X101830000Y-57935000D02*
X101830000Y-57635000D01*
G75*
G02*
X101980000Y-57485000I150000J0D01*
G01*
X103630000Y-57485000D01*
G75*
G02*
X103780000Y-57635000I0J-150000D01*
G01*
X103780000Y-57935000D01*
G75*
G02*
X103630000Y-58085000I-150000J0D01*
G01*
X101980000Y-58085000D01*
G75*
G02*
X101830000Y-57935000I0J150000D01*
G01*
G37*
G36*
G01*
X101830000Y-59205000D02*
X101830000Y-58905000D01*
G75*
G02*
X101980000Y-58755000I150000J0D01*
G01*
X103630000Y-58755000D01*
G75*
G02*
X103780000Y-58905000I0J-150000D01*
G01*
X103780000Y-59205000D01*
G75*
G02*
X103630000Y-59355000I-150000J0D01*
G01*
X101980000Y-59355000D01*
G75*
G02*
X101830000Y-59205000I0J150000D01*
G01*
G37*
G36*
G01*
X101830000Y-60475000D02*
X101830000Y-60175000D01*
G75*
G02*
X101980000Y-60025000I150000J0D01*
G01*
X103630000Y-60025000D01*
G75*
G02*
X103780000Y-60175000I0J-150000D01*
G01*
X103780000Y-60475000D01*
G75*
G02*
X103630000Y-60625000I-150000J0D01*
G01*
X101980000Y-60625000D01*
G75*
G02*
X101830000Y-60475000I0J150000D01*
G01*
G37*
G36*
G01*
X101830000Y-61745000D02*
X101830000Y-61445000D01*
G75*
G02*
X101980000Y-61295000I150000J0D01*
G01*
X103630000Y-61295000D01*
G75*
G02*
X103780000Y-61445000I0J-150000D01*
G01*
X103780000Y-61745000D01*
G75*
G02*
X103630000Y-61895000I-150000J0D01*
G01*
X101980000Y-61895000D01*
G75*
G02*
X101830000Y-61745000I0J150000D01*
G01*
G37*
G36*
G01*
X96880000Y-61745000D02*
X96880000Y-61445000D01*
G75*
G02*
X97030000Y-61295000I150000J0D01*
G01*
X98680000Y-61295000D01*
G75*
G02*
X98830000Y-61445000I0J-150000D01*
G01*
X98830000Y-61745000D01*
G75*
G02*
X98680000Y-61895000I-150000J0D01*
G01*
X97030000Y-61895000D01*
G75*
G02*
X96880000Y-61745000I0J150000D01*
G01*
G37*
G36*
G01*
X96880000Y-60475000D02*
X96880000Y-60175000D01*
G75*
G02*
X97030000Y-60025000I150000J0D01*
G01*
X98680000Y-60025000D01*
G75*
G02*
X98830000Y-60175000I0J-150000D01*
G01*
X98830000Y-60475000D01*
G75*
G02*
X98680000Y-60625000I-150000J0D01*
G01*
X97030000Y-60625000D01*
G75*
G02*
X96880000Y-60475000I0J150000D01*
G01*
G37*
G36*
G01*
X96880000Y-59205000D02*
X96880000Y-58905000D01*
G75*
G02*
X97030000Y-58755000I150000J0D01*
G01*
X98680000Y-58755000D01*
G75*
G02*
X98830000Y-58905000I0J-150000D01*
G01*
X98830000Y-59205000D01*
G75*
G02*
X98680000Y-59355000I-150000J0D01*
G01*
X97030000Y-59355000D01*
G75*
G02*
X96880000Y-59205000I0J150000D01*
G01*
G37*
G36*
G01*
X96880000Y-57935000D02*
X96880000Y-57635000D01*
G75*
G02*
X97030000Y-57485000I150000J0D01*
G01*
X98680000Y-57485000D01*
G75*
G02*
X98830000Y-57635000I0J-150000D01*
G01*
X98830000Y-57935000D01*
G75*
G02*
X98680000Y-58085000I-150000J0D01*
G01*
X97030000Y-58085000D01*
G75*
G02*
X96880000Y-57935000I0J150000D01*
G01*
G37*
G36*
G01*
X96880000Y-56665000D02*
X96880000Y-56365000D01*
G75*
G02*
X97030000Y-56215000I150000J0D01*
G01*
X98680000Y-56215000D01*
G75*
G02*
X98830000Y-56365000I0J-150000D01*
G01*
X98830000Y-56665000D01*
G75*
G02*
X98680000Y-56815000I-150000J0D01*
G01*
X97030000Y-56815000D01*
G75*
G02*
X96880000Y-56665000I0J150000D01*
G01*
G37*
G36*
G01*
X96880000Y-55395000D02*
X96880000Y-55095000D01*
G75*
G02*
X97030000Y-54945000I150000J0D01*
G01*
X98680000Y-54945000D01*
G75*
G02*
X98830000Y-55095000I0J-150000D01*
G01*
X98830000Y-55395000D01*
G75*
G02*
X98680000Y-55545000I-150000J0D01*
G01*
X97030000Y-55545000D01*
G75*
G02*
X96880000Y-55395000I0J150000D01*
G01*
G37*
G36*
G01*
X96880000Y-54125000D02*
X96880000Y-53825000D01*
G75*
G02*
X97030000Y-53675000I150000J0D01*
G01*
X98680000Y-53675000D01*
G75*
G02*
X98830000Y-53825000I0J-150000D01*
G01*
X98830000Y-54125000D01*
G75*
G02*
X98680000Y-54275000I-150000J0D01*
G01*
X97030000Y-54275000D01*
G75*
G02*
X96880000Y-54125000I0J150000D01*
G01*
G37*
G36*
G01*
X96880000Y-52855000D02*
X96880000Y-52555000D01*
G75*
G02*
X97030000Y-52405000I150000J0D01*
G01*
X98680000Y-52405000D01*
G75*
G02*
X98830000Y-52555000I0J-150000D01*
G01*
X98830000Y-52855000D01*
G75*
G02*
X98680000Y-53005000I-150000J0D01*
G01*
X97030000Y-53005000D01*
G75*
G02*
X96880000Y-52855000I0J150000D01*
G01*
G37*
%TD*%
%TO.C,U9*%
G36*
G01*
X136375000Y-67540000D02*
X136675000Y-67540000D01*
G75*
G02*
X136825000Y-67690000I0J-150000D01*
G01*
X136825000Y-69340000D01*
G75*
G02*
X136675000Y-69490000I-150000J0D01*
G01*
X136375000Y-69490000D01*
G75*
G02*
X136225000Y-69340000I0J150000D01*
G01*
X136225000Y-67690000D01*
G75*
G02*
X136375000Y-67540000I150000J0D01*
G01*
G37*
G36*
G01*
X135105000Y-67540000D02*
X135405000Y-67540000D01*
G75*
G02*
X135555000Y-67690000I0J-150000D01*
G01*
X135555000Y-69340000D01*
G75*
G02*
X135405000Y-69490000I-150000J0D01*
G01*
X135105000Y-69490000D01*
G75*
G02*
X134955000Y-69340000I0J150000D01*
G01*
X134955000Y-67690000D01*
G75*
G02*
X135105000Y-67540000I150000J0D01*
G01*
G37*
G36*
G01*
X133835000Y-67540000D02*
X134135000Y-67540000D01*
G75*
G02*
X134285000Y-67690000I0J-150000D01*
G01*
X134285000Y-69340000D01*
G75*
G02*
X134135000Y-69490000I-150000J0D01*
G01*
X133835000Y-69490000D01*
G75*
G02*
X133685000Y-69340000I0J150000D01*
G01*
X133685000Y-67690000D01*
G75*
G02*
X133835000Y-67540000I150000J0D01*
G01*
G37*
G36*
G01*
X132565000Y-67540000D02*
X132865000Y-67540000D01*
G75*
G02*
X133015000Y-67690000I0J-150000D01*
G01*
X133015000Y-69340000D01*
G75*
G02*
X132865000Y-69490000I-150000J0D01*
G01*
X132565000Y-69490000D01*
G75*
G02*
X132415000Y-69340000I0J150000D01*
G01*
X132415000Y-67690000D01*
G75*
G02*
X132565000Y-67540000I150000J0D01*
G01*
G37*
G36*
G01*
X131295000Y-67540000D02*
X131595000Y-67540000D01*
G75*
G02*
X131745000Y-67690000I0J-150000D01*
G01*
X131745000Y-69340000D01*
G75*
G02*
X131595000Y-69490000I-150000J0D01*
G01*
X131295000Y-69490000D01*
G75*
G02*
X131145000Y-69340000I0J150000D01*
G01*
X131145000Y-67690000D01*
G75*
G02*
X131295000Y-67540000I150000J0D01*
G01*
G37*
G36*
G01*
X130025000Y-67540000D02*
X130325000Y-67540000D01*
G75*
G02*
X130475000Y-67690000I0J-150000D01*
G01*
X130475000Y-69340000D01*
G75*
G02*
X130325000Y-69490000I-150000J0D01*
G01*
X130025000Y-69490000D01*
G75*
G02*
X129875000Y-69340000I0J150000D01*
G01*
X129875000Y-67690000D01*
G75*
G02*
X130025000Y-67540000I150000J0D01*
G01*
G37*
G36*
G01*
X128755000Y-67540000D02*
X129055000Y-67540000D01*
G75*
G02*
X129205000Y-67690000I0J-150000D01*
G01*
X129205000Y-69340000D01*
G75*
G02*
X129055000Y-69490000I-150000J0D01*
G01*
X128755000Y-69490000D01*
G75*
G02*
X128605000Y-69340000I0J150000D01*
G01*
X128605000Y-67690000D01*
G75*
G02*
X128755000Y-67540000I150000J0D01*
G01*
G37*
G36*
G01*
X127485000Y-67540000D02*
X127785000Y-67540000D01*
G75*
G02*
X127935000Y-67690000I0J-150000D01*
G01*
X127935000Y-69340000D01*
G75*
G02*
X127785000Y-69490000I-150000J0D01*
G01*
X127485000Y-69490000D01*
G75*
G02*
X127335000Y-69340000I0J150000D01*
G01*
X127335000Y-67690000D01*
G75*
G02*
X127485000Y-67540000I150000J0D01*
G01*
G37*
G36*
G01*
X127485000Y-62590000D02*
X127785000Y-62590000D01*
G75*
G02*
X127935000Y-62740000I0J-150000D01*
G01*
X127935000Y-64390000D01*
G75*
G02*
X127785000Y-64540000I-150000J0D01*
G01*
X127485000Y-64540000D01*
G75*
G02*
X127335000Y-64390000I0J150000D01*
G01*
X127335000Y-62740000D01*
G75*
G02*
X127485000Y-62590000I150000J0D01*
G01*
G37*
G36*
G01*
X128755000Y-62590000D02*
X129055000Y-62590000D01*
G75*
G02*
X129205000Y-62740000I0J-150000D01*
G01*
X129205000Y-64390000D01*
G75*
G02*
X129055000Y-64540000I-150000J0D01*
G01*
X128755000Y-64540000D01*
G75*
G02*
X128605000Y-64390000I0J150000D01*
G01*
X128605000Y-62740000D01*
G75*
G02*
X128755000Y-62590000I150000J0D01*
G01*
G37*
G36*
G01*
X130025000Y-62590000D02*
X130325000Y-62590000D01*
G75*
G02*
X130475000Y-62740000I0J-150000D01*
G01*
X130475000Y-64390000D01*
G75*
G02*
X130325000Y-64540000I-150000J0D01*
G01*
X130025000Y-64540000D01*
G75*
G02*
X129875000Y-64390000I0J150000D01*
G01*
X129875000Y-62740000D01*
G75*
G02*
X130025000Y-62590000I150000J0D01*
G01*
G37*
G36*
G01*
X131295000Y-62590000D02*
X131595000Y-62590000D01*
G75*
G02*
X131745000Y-62740000I0J-150000D01*
G01*
X131745000Y-64390000D01*
G75*
G02*
X131595000Y-64540000I-150000J0D01*
G01*
X131295000Y-64540000D01*
G75*
G02*
X131145000Y-64390000I0J150000D01*
G01*
X131145000Y-62740000D01*
G75*
G02*
X131295000Y-62590000I150000J0D01*
G01*
G37*
G36*
G01*
X132565000Y-62590000D02*
X132865000Y-62590000D01*
G75*
G02*
X133015000Y-62740000I0J-150000D01*
G01*
X133015000Y-64390000D01*
G75*
G02*
X132865000Y-64540000I-150000J0D01*
G01*
X132565000Y-64540000D01*
G75*
G02*
X132415000Y-64390000I0J150000D01*
G01*
X132415000Y-62740000D01*
G75*
G02*
X132565000Y-62590000I150000J0D01*
G01*
G37*
G36*
G01*
X133835000Y-62590000D02*
X134135000Y-62590000D01*
G75*
G02*
X134285000Y-62740000I0J-150000D01*
G01*
X134285000Y-64390000D01*
G75*
G02*
X134135000Y-64540000I-150000J0D01*
G01*
X133835000Y-64540000D01*
G75*
G02*
X133685000Y-64390000I0J150000D01*
G01*
X133685000Y-62740000D01*
G75*
G02*
X133835000Y-62590000I150000J0D01*
G01*
G37*
G36*
G01*
X135105000Y-62590000D02*
X135405000Y-62590000D01*
G75*
G02*
X135555000Y-62740000I0J-150000D01*
G01*
X135555000Y-64390000D01*
G75*
G02*
X135405000Y-64540000I-150000J0D01*
G01*
X135105000Y-64540000D01*
G75*
G02*
X134955000Y-64390000I0J150000D01*
G01*
X134955000Y-62740000D01*
G75*
G02*
X135105000Y-62590000I150000J0D01*
G01*
G37*
G36*
G01*
X136375000Y-62590000D02*
X136675000Y-62590000D01*
G75*
G02*
X136825000Y-62740000I0J-150000D01*
G01*
X136825000Y-64390000D01*
G75*
G02*
X136675000Y-64540000I-150000J0D01*
G01*
X136375000Y-64540000D01*
G75*
G02*
X136225000Y-64390000I0J150000D01*
G01*
X136225000Y-62740000D01*
G75*
G02*
X136375000Y-62590000I150000J0D01*
G01*
G37*
%TD*%
%TO.C,U8*%
G36*
G01*
X124945000Y-67540000D02*
X125245000Y-67540000D01*
G75*
G02*
X125395000Y-67690000I0J-150000D01*
G01*
X125395000Y-69340000D01*
G75*
G02*
X125245000Y-69490000I-150000J0D01*
G01*
X124945000Y-69490000D01*
G75*
G02*
X124795000Y-69340000I0J150000D01*
G01*
X124795000Y-67690000D01*
G75*
G02*
X124945000Y-67540000I150000J0D01*
G01*
G37*
G36*
G01*
X123675000Y-67540000D02*
X123975000Y-67540000D01*
G75*
G02*
X124125000Y-67690000I0J-150000D01*
G01*
X124125000Y-69340000D01*
G75*
G02*
X123975000Y-69490000I-150000J0D01*
G01*
X123675000Y-69490000D01*
G75*
G02*
X123525000Y-69340000I0J150000D01*
G01*
X123525000Y-67690000D01*
G75*
G02*
X123675000Y-67540000I150000J0D01*
G01*
G37*
G36*
G01*
X122405000Y-67540000D02*
X122705000Y-67540000D01*
G75*
G02*
X122855000Y-67690000I0J-150000D01*
G01*
X122855000Y-69340000D01*
G75*
G02*
X122705000Y-69490000I-150000J0D01*
G01*
X122405000Y-69490000D01*
G75*
G02*
X122255000Y-69340000I0J150000D01*
G01*
X122255000Y-67690000D01*
G75*
G02*
X122405000Y-67540000I150000J0D01*
G01*
G37*
G36*
G01*
X121135000Y-67540000D02*
X121435000Y-67540000D01*
G75*
G02*
X121585000Y-67690000I0J-150000D01*
G01*
X121585000Y-69340000D01*
G75*
G02*
X121435000Y-69490000I-150000J0D01*
G01*
X121135000Y-69490000D01*
G75*
G02*
X120985000Y-69340000I0J150000D01*
G01*
X120985000Y-67690000D01*
G75*
G02*
X121135000Y-67540000I150000J0D01*
G01*
G37*
G36*
G01*
X119865000Y-67540000D02*
X120165000Y-67540000D01*
G75*
G02*
X120315000Y-67690000I0J-150000D01*
G01*
X120315000Y-69340000D01*
G75*
G02*
X120165000Y-69490000I-150000J0D01*
G01*
X119865000Y-69490000D01*
G75*
G02*
X119715000Y-69340000I0J150000D01*
G01*
X119715000Y-67690000D01*
G75*
G02*
X119865000Y-67540000I150000J0D01*
G01*
G37*
G36*
G01*
X118595000Y-67540000D02*
X118895000Y-67540000D01*
G75*
G02*
X119045000Y-67690000I0J-150000D01*
G01*
X119045000Y-69340000D01*
G75*
G02*
X118895000Y-69490000I-150000J0D01*
G01*
X118595000Y-69490000D01*
G75*
G02*
X118445000Y-69340000I0J150000D01*
G01*
X118445000Y-67690000D01*
G75*
G02*
X118595000Y-67540000I150000J0D01*
G01*
G37*
G36*
G01*
X117325000Y-67540000D02*
X117625000Y-67540000D01*
G75*
G02*
X117775000Y-67690000I0J-150000D01*
G01*
X117775000Y-69340000D01*
G75*
G02*
X117625000Y-69490000I-150000J0D01*
G01*
X117325000Y-69490000D01*
G75*
G02*
X117175000Y-69340000I0J150000D01*
G01*
X117175000Y-67690000D01*
G75*
G02*
X117325000Y-67540000I150000J0D01*
G01*
G37*
G36*
G01*
X116055000Y-67540000D02*
X116355000Y-67540000D01*
G75*
G02*
X116505000Y-67690000I0J-150000D01*
G01*
X116505000Y-69340000D01*
G75*
G02*
X116355000Y-69490000I-150000J0D01*
G01*
X116055000Y-69490000D01*
G75*
G02*
X115905000Y-69340000I0J150000D01*
G01*
X115905000Y-67690000D01*
G75*
G02*
X116055000Y-67540000I150000J0D01*
G01*
G37*
G36*
G01*
X116055000Y-62590000D02*
X116355000Y-62590000D01*
G75*
G02*
X116505000Y-62740000I0J-150000D01*
G01*
X116505000Y-64390000D01*
G75*
G02*
X116355000Y-64540000I-150000J0D01*
G01*
X116055000Y-64540000D01*
G75*
G02*
X115905000Y-64390000I0J150000D01*
G01*
X115905000Y-62740000D01*
G75*
G02*
X116055000Y-62590000I150000J0D01*
G01*
G37*
G36*
G01*
X117325000Y-62590000D02*
X117625000Y-62590000D01*
G75*
G02*
X117775000Y-62740000I0J-150000D01*
G01*
X117775000Y-64390000D01*
G75*
G02*
X117625000Y-64540000I-150000J0D01*
G01*
X117325000Y-64540000D01*
G75*
G02*
X117175000Y-64390000I0J150000D01*
G01*
X117175000Y-62740000D01*
G75*
G02*
X117325000Y-62590000I150000J0D01*
G01*
G37*
G36*
G01*
X118595000Y-62590000D02*
X118895000Y-62590000D01*
G75*
G02*
X119045000Y-62740000I0J-150000D01*
G01*
X119045000Y-64390000D01*
G75*
G02*
X118895000Y-64540000I-150000J0D01*
G01*
X118595000Y-64540000D01*
G75*
G02*
X118445000Y-64390000I0J150000D01*
G01*
X118445000Y-62740000D01*
G75*
G02*
X118595000Y-62590000I150000J0D01*
G01*
G37*
G36*
G01*
X119865000Y-62590000D02*
X120165000Y-62590000D01*
G75*
G02*
X120315000Y-62740000I0J-150000D01*
G01*
X120315000Y-64390000D01*
G75*
G02*
X120165000Y-64540000I-150000J0D01*
G01*
X119865000Y-64540000D01*
G75*
G02*
X119715000Y-64390000I0J150000D01*
G01*
X119715000Y-62740000D01*
G75*
G02*
X119865000Y-62590000I150000J0D01*
G01*
G37*
G36*
G01*
X121135000Y-62590000D02*
X121435000Y-62590000D01*
G75*
G02*
X121585000Y-62740000I0J-150000D01*
G01*
X121585000Y-64390000D01*
G75*
G02*
X121435000Y-64540000I-150000J0D01*
G01*
X121135000Y-64540000D01*
G75*
G02*
X120985000Y-64390000I0J150000D01*
G01*
X120985000Y-62740000D01*
G75*
G02*
X121135000Y-62590000I150000J0D01*
G01*
G37*
G36*
G01*
X122405000Y-62590000D02*
X122705000Y-62590000D01*
G75*
G02*
X122855000Y-62740000I0J-150000D01*
G01*
X122855000Y-64390000D01*
G75*
G02*
X122705000Y-64540000I-150000J0D01*
G01*
X122405000Y-64540000D01*
G75*
G02*
X122255000Y-64390000I0J150000D01*
G01*
X122255000Y-62740000D01*
G75*
G02*
X122405000Y-62590000I150000J0D01*
G01*
G37*
G36*
G01*
X123675000Y-62590000D02*
X123975000Y-62590000D01*
G75*
G02*
X124125000Y-62740000I0J-150000D01*
G01*
X124125000Y-64390000D01*
G75*
G02*
X123975000Y-64540000I-150000J0D01*
G01*
X123675000Y-64540000D01*
G75*
G02*
X123525000Y-64390000I0J150000D01*
G01*
X123525000Y-62740000D01*
G75*
G02*
X123675000Y-62590000I150000J0D01*
G01*
G37*
G36*
G01*
X124945000Y-62590000D02*
X125245000Y-62590000D01*
G75*
G02*
X125395000Y-62740000I0J-150000D01*
G01*
X125395000Y-64390000D01*
G75*
G02*
X125245000Y-64540000I-150000J0D01*
G01*
X124945000Y-64540000D01*
G75*
G02*
X124795000Y-64390000I0J150000D01*
G01*
X124795000Y-62740000D01*
G75*
G02*
X124945000Y-62590000I150000J0D01*
G01*
G37*
%TD*%
%TO.C,U7*%
G36*
G01*
X122785000Y-50315000D02*
X122785000Y-50015000D01*
G75*
G02*
X122935000Y-49865000I150000J0D01*
G01*
X124585000Y-49865000D01*
G75*
G02*
X124735000Y-50015000I0J-150000D01*
G01*
X124735000Y-50315000D01*
G75*
G02*
X124585000Y-50465000I-150000J0D01*
G01*
X122935000Y-50465000D01*
G75*
G02*
X122785000Y-50315000I0J150000D01*
G01*
G37*
G36*
G01*
X122785000Y-51585000D02*
X122785000Y-51285000D01*
G75*
G02*
X122935000Y-51135000I150000J0D01*
G01*
X124585000Y-51135000D01*
G75*
G02*
X124735000Y-51285000I0J-150000D01*
G01*
X124735000Y-51585000D01*
G75*
G02*
X124585000Y-51735000I-150000J0D01*
G01*
X122935000Y-51735000D01*
G75*
G02*
X122785000Y-51585000I0J150000D01*
G01*
G37*
G36*
G01*
X122785000Y-52855000D02*
X122785000Y-52555000D01*
G75*
G02*
X122935000Y-52405000I150000J0D01*
G01*
X124585000Y-52405000D01*
G75*
G02*
X124735000Y-52555000I0J-150000D01*
G01*
X124735000Y-52855000D01*
G75*
G02*
X124585000Y-53005000I-150000J0D01*
G01*
X122935000Y-53005000D01*
G75*
G02*
X122785000Y-52855000I0J150000D01*
G01*
G37*
G36*
G01*
X122785000Y-54125000D02*
X122785000Y-53825000D01*
G75*
G02*
X122935000Y-53675000I150000J0D01*
G01*
X124585000Y-53675000D01*
G75*
G02*
X124735000Y-53825000I0J-150000D01*
G01*
X124735000Y-54125000D01*
G75*
G02*
X124585000Y-54275000I-150000J0D01*
G01*
X122935000Y-54275000D01*
G75*
G02*
X122785000Y-54125000I0J150000D01*
G01*
G37*
G36*
G01*
X122785000Y-55395000D02*
X122785000Y-55095000D01*
G75*
G02*
X122935000Y-54945000I150000J0D01*
G01*
X124585000Y-54945000D01*
G75*
G02*
X124735000Y-55095000I0J-150000D01*
G01*
X124735000Y-55395000D01*
G75*
G02*
X124585000Y-55545000I-150000J0D01*
G01*
X122935000Y-55545000D01*
G75*
G02*
X122785000Y-55395000I0J150000D01*
G01*
G37*
G36*
G01*
X122785000Y-56665000D02*
X122785000Y-56365000D01*
G75*
G02*
X122935000Y-56215000I150000J0D01*
G01*
X124585000Y-56215000D01*
G75*
G02*
X124735000Y-56365000I0J-150000D01*
G01*
X124735000Y-56665000D01*
G75*
G02*
X124585000Y-56815000I-150000J0D01*
G01*
X122935000Y-56815000D01*
G75*
G02*
X122785000Y-56665000I0J150000D01*
G01*
G37*
G36*
G01*
X122785000Y-57935000D02*
X122785000Y-57635000D01*
G75*
G02*
X122935000Y-57485000I150000J0D01*
G01*
X124585000Y-57485000D01*
G75*
G02*
X124735000Y-57635000I0J-150000D01*
G01*
X124735000Y-57935000D01*
G75*
G02*
X124585000Y-58085000I-150000J0D01*
G01*
X122935000Y-58085000D01*
G75*
G02*
X122785000Y-57935000I0J150000D01*
G01*
G37*
G36*
G01*
X122785000Y-59205000D02*
X122785000Y-58905000D01*
G75*
G02*
X122935000Y-58755000I150000J0D01*
G01*
X124585000Y-58755000D01*
G75*
G02*
X124735000Y-58905000I0J-150000D01*
G01*
X124735000Y-59205000D01*
G75*
G02*
X124585000Y-59355000I-150000J0D01*
G01*
X122935000Y-59355000D01*
G75*
G02*
X122785000Y-59205000I0J150000D01*
G01*
G37*
G36*
G01*
X117835000Y-59205000D02*
X117835000Y-58905000D01*
G75*
G02*
X117985000Y-58755000I150000J0D01*
G01*
X119635000Y-58755000D01*
G75*
G02*
X119785000Y-58905000I0J-150000D01*
G01*
X119785000Y-59205000D01*
G75*
G02*
X119635000Y-59355000I-150000J0D01*
G01*
X117985000Y-59355000D01*
G75*
G02*
X117835000Y-59205000I0J150000D01*
G01*
G37*
G36*
G01*
X117835000Y-57935000D02*
X117835000Y-57635000D01*
G75*
G02*
X117985000Y-57485000I150000J0D01*
G01*
X119635000Y-57485000D01*
G75*
G02*
X119785000Y-57635000I0J-150000D01*
G01*
X119785000Y-57935000D01*
G75*
G02*
X119635000Y-58085000I-150000J0D01*
G01*
X117985000Y-58085000D01*
G75*
G02*
X117835000Y-57935000I0J150000D01*
G01*
G37*
G36*
G01*
X117835000Y-56665000D02*
X117835000Y-56365000D01*
G75*
G02*
X117985000Y-56215000I150000J0D01*
G01*
X119635000Y-56215000D01*
G75*
G02*
X119785000Y-56365000I0J-150000D01*
G01*
X119785000Y-56665000D01*
G75*
G02*
X119635000Y-56815000I-150000J0D01*
G01*
X117985000Y-56815000D01*
G75*
G02*
X117835000Y-56665000I0J150000D01*
G01*
G37*
G36*
G01*
X117835000Y-55395000D02*
X117835000Y-55095000D01*
G75*
G02*
X117985000Y-54945000I150000J0D01*
G01*
X119635000Y-54945000D01*
G75*
G02*
X119785000Y-55095000I0J-150000D01*
G01*
X119785000Y-55395000D01*
G75*
G02*
X119635000Y-55545000I-150000J0D01*
G01*
X117985000Y-55545000D01*
G75*
G02*
X117835000Y-55395000I0J150000D01*
G01*
G37*
G36*
G01*
X117835000Y-54125000D02*
X117835000Y-53825000D01*
G75*
G02*
X117985000Y-53675000I150000J0D01*
G01*
X119635000Y-53675000D01*
G75*
G02*
X119785000Y-53825000I0J-150000D01*
G01*
X119785000Y-54125000D01*
G75*
G02*
X119635000Y-54275000I-150000J0D01*
G01*
X117985000Y-54275000D01*
G75*
G02*
X117835000Y-54125000I0J150000D01*
G01*
G37*
G36*
G01*
X117835000Y-52855000D02*
X117835000Y-52555000D01*
G75*
G02*
X117985000Y-52405000I150000J0D01*
G01*
X119635000Y-52405000D01*
G75*
G02*
X119785000Y-52555000I0J-150000D01*
G01*
X119785000Y-52855000D01*
G75*
G02*
X119635000Y-53005000I-150000J0D01*
G01*
X117985000Y-53005000D01*
G75*
G02*
X117835000Y-52855000I0J150000D01*
G01*
G37*
G36*
G01*
X117835000Y-51585000D02*
X117835000Y-51285000D01*
G75*
G02*
X117985000Y-51135000I150000J0D01*
G01*
X119635000Y-51135000D01*
G75*
G02*
X119785000Y-51285000I0J-150000D01*
G01*
X119785000Y-51585000D01*
G75*
G02*
X119635000Y-51735000I-150000J0D01*
G01*
X117985000Y-51735000D01*
G75*
G02*
X117835000Y-51585000I0J150000D01*
G01*
G37*
G36*
G01*
X117835000Y-50315000D02*
X117835000Y-50015000D01*
G75*
G02*
X117985000Y-49865000I150000J0D01*
G01*
X119635000Y-49865000D01*
G75*
G02*
X119785000Y-50015000I0J-150000D01*
G01*
X119785000Y-50315000D01*
G75*
G02*
X119635000Y-50465000I-150000J0D01*
G01*
X117985000Y-50465000D01*
G75*
G02*
X117835000Y-50315000I0J150000D01*
G01*
G37*
%TD*%
%TO.C,U6*%
G36*
G01*
X134215000Y-50315000D02*
X134215000Y-50015000D01*
G75*
G02*
X134365000Y-49865000I150000J0D01*
G01*
X136015000Y-49865000D01*
G75*
G02*
X136165000Y-50015000I0J-150000D01*
G01*
X136165000Y-50315000D01*
G75*
G02*
X136015000Y-50465000I-150000J0D01*
G01*
X134365000Y-50465000D01*
G75*
G02*
X134215000Y-50315000I0J150000D01*
G01*
G37*
G36*
G01*
X134215000Y-51585000D02*
X134215000Y-51285000D01*
G75*
G02*
X134365000Y-51135000I150000J0D01*
G01*
X136015000Y-51135000D01*
G75*
G02*
X136165000Y-51285000I0J-150000D01*
G01*
X136165000Y-51585000D01*
G75*
G02*
X136015000Y-51735000I-150000J0D01*
G01*
X134365000Y-51735000D01*
G75*
G02*
X134215000Y-51585000I0J150000D01*
G01*
G37*
G36*
G01*
X134215000Y-52855000D02*
X134215000Y-52555000D01*
G75*
G02*
X134365000Y-52405000I150000J0D01*
G01*
X136015000Y-52405000D01*
G75*
G02*
X136165000Y-52555000I0J-150000D01*
G01*
X136165000Y-52855000D01*
G75*
G02*
X136015000Y-53005000I-150000J0D01*
G01*
X134365000Y-53005000D01*
G75*
G02*
X134215000Y-52855000I0J150000D01*
G01*
G37*
G36*
G01*
X134215000Y-54125000D02*
X134215000Y-53825000D01*
G75*
G02*
X134365000Y-53675000I150000J0D01*
G01*
X136015000Y-53675000D01*
G75*
G02*
X136165000Y-53825000I0J-150000D01*
G01*
X136165000Y-54125000D01*
G75*
G02*
X136015000Y-54275000I-150000J0D01*
G01*
X134365000Y-54275000D01*
G75*
G02*
X134215000Y-54125000I0J150000D01*
G01*
G37*
G36*
G01*
X134215000Y-55395000D02*
X134215000Y-55095000D01*
G75*
G02*
X134365000Y-54945000I150000J0D01*
G01*
X136015000Y-54945000D01*
G75*
G02*
X136165000Y-55095000I0J-150000D01*
G01*
X136165000Y-55395000D01*
G75*
G02*
X136015000Y-55545000I-150000J0D01*
G01*
X134365000Y-55545000D01*
G75*
G02*
X134215000Y-55395000I0J150000D01*
G01*
G37*
G36*
G01*
X134215000Y-56665000D02*
X134215000Y-56365000D01*
G75*
G02*
X134365000Y-56215000I150000J0D01*
G01*
X136015000Y-56215000D01*
G75*
G02*
X136165000Y-56365000I0J-150000D01*
G01*
X136165000Y-56665000D01*
G75*
G02*
X136015000Y-56815000I-150000J0D01*
G01*
X134365000Y-56815000D01*
G75*
G02*
X134215000Y-56665000I0J150000D01*
G01*
G37*
G36*
G01*
X134215000Y-57935000D02*
X134215000Y-57635000D01*
G75*
G02*
X134365000Y-57485000I150000J0D01*
G01*
X136015000Y-57485000D01*
G75*
G02*
X136165000Y-57635000I0J-150000D01*
G01*
X136165000Y-57935000D01*
G75*
G02*
X136015000Y-58085000I-150000J0D01*
G01*
X134365000Y-58085000D01*
G75*
G02*
X134215000Y-57935000I0J150000D01*
G01*
G37*
G36*
G01*
X134215000Y-59205000D02*
X134215000Y-58905000D01*
G75*
G02*
X134365000Y-58755000I150000J0D01*
G01*
X136015000Y-58755000D01*
G75*
G02*
X136165000Y-58905000I0J-150000D01*
G01*
X136165000Y-59205000D01*
G75*
G02*
X136015000Y-59355000I-150000J0D01*
G01*
X134365000Y-59355000D01*
G75*
G02*
X134215000Y-59205000I0J150000D01*
G01*
G37*
G36*
G01*
X129265000Y-59205000D02*
X129265000Y-58905000D01*
G75*
G02*
X129415000Y-58755000I150000J0D01*
G01*
X131065000Y-58755000D01*
G75*
G02*
X131215000Y-58905000I0J-150000D01*
G01*
X131215000Y-59205000D01*
G75*
G02*
X131065000Y-59355000I-150000J0D01*
G01*
X129415000Y-59355000D01*
G75*
G02*
X129265000Y-59205000I0J150000D01*
G01*
G37*
G36*
G01*
X129265000Y-57935000D02*
X129265000Y-57635000D01*
G75*
G02*
X129415000Y-57485000I150000J0D01*
G01*
X131065000Y-57485000D01*
G75*
G02*
X131215000Y-57635000I0J-150000D01*
G01*
X131215000Y-57935000D01*
G75*
G02*
X131065000Y-58085000I-150000J0D01*
G01*
X129415000Y-58085000D01*
G75*
G02*
X129265000Y-57935000I0J150000D01*
G01*
G37*
G36*
G01*
X129265000Y-56665000D02*
X129265000Y-56365000D01*
G75*
G02*
X129415000Y-56215000I150000J0D01*
G01*
X131065000Y-56215000D01*
G75*
G02*
X131215000Y-56365000I0J-150000D01*
G01*
X131215000Y-56665000D01*
G75*
G02*
X131065000Y-56815000I-150000J0D01*
G01*
X129415000Y-56815000D01*
G75*
G02*
X129265000Y-56665000I0J150000D01*
G01*
G37*
G36*
G01*
X129265000Y-55395000D02*
X129265000Y-55095000D01*
G75*
G02*
X129415000Y-54945000I150000J0D01*
G01*
X131065000Y-54945000D01*
G75*
G02*
X131215000Y-55095000I0J-150000D01*
G01*
X131215000Y-55395000D01*
G75*
G02*
X131065000Y-55545000I-150000J0D01*
G01*
X129415000Y-55545000D01*
G75*
G02*
X129265000Y-55395000I0J150000D01*
G01*
G37*
G36*
G01*
X129265000Y-54125000D02*
X129265000Y-53825000D01*
G75*
G02*
X129415000Y-53675000I150000J0D01*
G01*
X131065000Y-53675000D01*
G75*
G02*
X131215000Y-53825000I0J-150000D01*
G01*
X131215000Y-54125000D01*
G75*
G02*
X131065000Y-54275000I-150000J0D01*
G01*
X129415000Y-54275000D01*
G75*
G02*
X129265000Y-54125000I0J150000D01*
G01*
G37*
G36*
G01*
X129265000Y-52855000D02*
X129265000Y-52555000D01*
G75*
G02*
X129415000Y-52405000I150000J0D01*
G01*
X131065000Y-52405000D01*
G75*
G02*
X131215000Y-52555000I0J-150000D01*
G01*
X131215000Y-52855000D01*
G75*
G02*
X131065000Y-53005000I-150000J0D01*
G01*
X129415000Y-53005000D01*
G75*
G02*
X129265000Y-52855000I0J150000D01*
G01*
G37*
G36*
G01*
X129265000Y-51585000D02*
X129265000Y-51285000D01*
G75*
G02*
X129415000Y-51135000I150000J0D01*
G01*
X131065000Y-51135000D01*
G75*
G02*
X131215000Y-51285000I0J-150000D01*
G01*
X131215000Y-51585000D01*
G75*
G02*
X131065000Y-51735000I-150000J0D01*
G01*
X129415000Y-51735000D01*
G75*
G02*
X129265000Y-51585000I0J150000D01*
G01*
G37*
G36*
G01*
X129265000Y-50315000D02*
X129265000Y-50015000D01*
G75*
G02*
X129415000Y-49865000I150000J0D01*
G01*
X131065000Y-49865000D01*
G75*
G02*
X131215000Y-50015000I0J-150000D01*
G01*
X131215000Y-50315000D01*
G75*
G02*
X131065000Y-50465000I-150000J0D01*
G01*
X129415000Y-50465000D01*
G75*
G02*
X129265000Y-50315000I0J150000D01*
G01*
G37*
%TD*%
M02*
