%TF.GenerationSoftware,KiCad,Pcbnew,(5.1.10)-1*%
%TF.CreationDate,2021-06-12T16:54:01+02:00*%
%TF.ProjectId,Nes Sound Expansion,4e657320-536f-4756-9e64-20457870616e,rev?*%
%TF.SameCoordinates,Original*%
%TF.FileFunction,Legend,Top*%
%TF.FilePolarity,Positive*%
%FSLAX46Y46*%
G04 Gerber Fmt 4.6, Leading zero omitted, Abs format (unit mm)*
G04 Created by KiCad (PCBNEW (5.1.10)-1) date 2021-06-12 16:54:01*
%MOMM*%
%LPD*%
G01*
G04 APERTURE LIST*
%ADD10C,0.300000*%
%ADD11C,0.120000*%
%ADD12C,0.010000*%
%ADD13C,0.150000*%
G04 APERTURE END LIST*
D10*
X111295571Y-91732571D02*
X109795571Y-91732571D01*
X111295571Y-90875428D01*
X109795571Y-90875428D01*
X110509857Y-90161142D02*
X110509857Y-89661142D01*
X111295571Y-89446857D02*
X111295571Y-90161142D01*
X109795571Y-90161142D01*
X109795571Y-89446857D01*
X111224142Y-88875428D02*
X111295571Y-88661142D01*
X111295571Y-88304000D01*
X111224142Y-88161142D01*
X111152714Y-88089714D01*
X111009857Y-88018285D01*
X110867000Y-88018285D01*
X110724142Y-88089714D01*
X110652714Y-88161142D01*
X110581285Y-88304000D01*
X110509857Y-88589714D01*
X110438428Y-88732571D01*
X110367000Y-88804000D01*
X110224142Y-88875428D01*
X110081285Y-88875428D01*
X109938428Y-88804000D01*
X109867000Y-88732571D01*
X109795571Y-88589714D01*
X109795571Y-88232571D01*
X109867000Y-88018285D01*
X110509857Y-86232571D02*
X110509857Y-85732571D01*
X111295571Y-85518285D02*
X111295571Y-86232571D01*
X109795571Y-86232571D01*
X109795571Y-85518285D01*
X111295571Y-84875428D02*
X109795571Y-84875428D01*
X109795571Y-84304000D01*
X109867000Y-84161142D01*
X109938428Y-84089714D01*
X110081285Y-84018285D01*
X110295571Y-84018285D01*
X110438428Y-84089714D01*
X110509857Y-84161142D01*
X110581285Y-84304000D01*
X110581285Y-84875428D01*
X111224142Y-83446857D02*
X111295571Y-83232571D01*
X111295571Y-82875428D01*
X111224142Y-82732571D01*
X111152714Y-82661142D01*
X111009857Y-82589714D01*
X110867000Y-82589714D01*
X110724142Y-82661142D01*
X110652714Y-82732571D01*
X110581285Y-82875428D01*
X110509857Y-83161142D01*
X110438428Y-83304000D01*
X110367000Y-83375428D01*
X110224142Y-83446857D01*
X110081285Y-83446857D01*
X109938428Y-83375428D01*
X109867000Y-83304000D01*
X109795571Y-83161142D01*
X109795571Y-82804000D01*
X109867000Y-82589714D01*
X111295571Y-81946857D02*
X109795571Y-81946857D01*
X110867000Y-81446857D01*
X109795571Y-80946857D01*
X111295571Y-80946857D01*
X111295571Y-78232571D02*
X110581285Y-78732571D01*
X111295571Y-79089714D02*
X109795571Y-79089714D01*
X109795571Y-78518285D01*
X109867000Y-78375428D01*
X109938428Y-78304000D01*
X110081285Y-78232571D01*
X110295571Y-78232571D01*
X110438428Y-78304000D01*
X110509857Y-78375428D01*
X110581285Y-78518285D01*
X110581285Y-79089714D01*
X111224142Y-77018285D02*
X111295571Y-77161142D01*
X111295571Y-77446857D01*
X111224142Y-77589714D01*
X111081285Y-77661142D01*
X110509857Y-77661142D01*
X110367000Y-77589714D01*
X110295571Y-77446857D01*
X110295571Y-77161142D01*
X110367000Y-77018285D01*
X110509857Y-76946857D01*
X110652714Y-76946857D01*
X110795571Y-77661142D01*
X110295571Y-76446857D02*
X111295571Y-76089714D01*
X110295571Y-75732571D01*
X111152714Y-75161142D02*
X111224142Y-75089714D01*
X111295571Y-75161142D01*
X111224142Y-75232571D01*
X111152714Y-75161142D01*
X111295571Y-75161142D01*
X110867000Y-74518285D02*
X110867000Y-73804000D01*
X111295571Y-74661142D02*
X109795571Y-74161142D01*
X111295571Y-73661142D01*
D11*
%TO.C,X1*%
X126703000Y-90645000D02*
X126763000Y-90645000D01*
X126763000Y-90645000D02*
X126763000Y-96045000D01*
X126763000Y-96045000D02*
X126703000Y-96045000D01*
X121623000Y-90645000D02*
X124503000Y-90645000D01*
X119423000Y-96645000D02*
X119423000Y-96045000D01*
X119423000Y-96045000D02*
X119363000Y-96045000D01*
X119363000Y-96045000D02*
X119363000Y-90645000D01*
X119363000Y-90645000D02*
X119423000Y-90645000D01*
X124503000Y-96045000D02*
X121623000Y-96045000D01*
X121623000Y-96045000D02*
X121623000Y-96645000D01*
%TO.C,R23*%
X124433000Y-103835564D02*
X124433000Y-103381436D01*
X122963000Y-103835564D02*
X122963000Y-103381436D01*
%TO.C,C9*%
X119534000Y-103832252D02*
X119534000Y-103309748D01*
X121004000Y-103832252D02*
X121004000Y-103309748D01*
D12*
%TO.C,G\u002A\u002A\u002A*%
G36*
X130998960Y-119955098D02*
G01*
X131037441Y-119956076D01*
X131264882Y-119962084D01*
X131321654Y-120519700D01*
X131337068Y-120668529D01*
X131351495Y-120802989D01*
X131364294Y-120917492D01*
X131374825Y-121006451D01*
X131382448Y-121064281D01*
X131386456Y-121085346D01*
X131398351Y-121069626D01*
X131428212Y-121021280D01*
X131473479Y-120944708D01*
X131531593Y-120844309D01*
X131599996Y-120724482D01*
X131676127Y-120589626D01*
X131710818Y-120527729D01*
X132027150Y-119962084D01*
X132257207Y-119956050D01*
X132358433Y-119954007D01*
X132424077Y-119954821D01*
X132460842Y-119959361D01*
X132475433Y-119968500D01*
X132474554Y-119983109D01*
X132474132Y-119984239D01*
X132462755Y-120018332D01*
X132461000Y-120027315D01*
X132442372Y-120033185D01*
X132396616Y-120036097D01*
X132387404Y-120036167D01*
X132322762Y-120047498D01*
X132282851Y-120083792D01*
X132268479Y-120119513D01*
X132247416Y-120189700D01*
X132221269Y-120287305D01*
X132191645Y-120405281D01*
X132160151Y-120536582D01*
X132128393Y-120674160D01*
X132097979Y-120810969D01*
X132070516Y-120939962D01*
X132047609Y-121054091D01*
X132030867Y-121146310D01*
X132021896Y-121209572D01*
X132021016Y-121232084D01*
X132031603Y-121277160D01*
X132061006Y-121296822D01*
X132095875Y-121302216D01*
X132146061Y-121314130D01*
X132164086Y-121340809D01*
X132164666Y-121349841D01*
X132162129Y-121366271D01*
X132150130Y-121377613D01*
X132122087Y-121384804D01*
X132071420Y-121388780D01*
X131991547Y-121390477D01*
X131876652Y-121390834D01*
X131760814Y-121390332D01*
X131681246Y-121388336D01*
X131631888Y-121384108D01*
X131606683Y-121376912D01*
X131599574Y-121366009D01*
X131601485Y-121357352D01*
X131612692Y-121323610D01*
X131614333Y-121315019D01*
X131632910Y-121309058D01*
X131678320Y-121306208D01*
X131685136Y-121306167D01*
X131748326Y-121294492D01*
X131789768Y-121268786D01*
X131801172Y-121241715D01*
X131819945Y-121180700D01*
X131844536Y-121092163D01*
X131873393Y-120982524D01*
X131904963Y-120858206D01*
X131937695Y-120725630D01*
X131970038Y-120591216D01*
X132000439Y-120461387D01*
X132027346Y-120342565D01*
X132049208Y-120241170D01*
X132064473Y-120163623D01*
X132071589Y-120116347D01*
X132071054Y-120104832D01*
X132059475Y-120120938D01*
X132029764Y-120169922D01*
X131984308Y-120247634D01*
X131925495Y-120349925D01*
X131855714Y-120472646D01*
X131777352Y-120611647D01*
X131706070Y-120738982D01*
X131604867Y-120919385D01*
X131521677Y-121065388D01*
X131454646Y-121179973D01*
X131401919Y-121266123D01*
X131361642Y-121326819D01*
X131331959Y-121365042D01*
X131311017Y-121383775D01*
X131303171Y-121386776D01*
X131260969Y-121377460D01*
X131247591Y-121355026D01*
X131242877Y-121324719D01*
X131234759Y-121257969D01*
X131223856Y-121160473D01*
X131210786Y-121037932D01*
X131196166Y-120896042D01*
X131180615Y-120740503D01*
X131177443Y-120708209D01*
X131161850Y-120552947D01*
X131146985Y-120412303D01*
X131133462Y-120291525D01*
X131121894Y-120195866D01*
X131112898Y-120130576D01*
X131107087Y-120100905D01*
X131106223Y-120099667D01*
X131097537Y-120119344D01*
X131081925Y-120174076D01*
X131060801Y-120257413D01*
X131035580Y-120362906D01*
X131007674Y-120484105D01*
X130978497Y-120614562D01*
X130949462Y-120747827D01*
X130921983Y-120877451D01*
X130897474Y-120996984D01*
X130877347Y-121099977D01*
X130863017Y-121179980D01*
X130855896Y-121230545D01*
X130855555Y-121243400D01*
X130868379Y-121279736D01*
X130901794Y-121296894D01*
X130940011Y-121302017D01*
X130990595Y-121309944D01*
X131008566Y-121326655D01*
X131006334Y-121349642D01*
X130998594Y-121367104D01*
X130981340Y-121378807D01*
X130947263Y-121385887D01*
X130889057Y-121389483D01*
X130799413Y-121390733D01*
X130741766Y-121390834D01*
X130634200Y-121390237D01*
X130562577Y-121387856D01*
X130520517Y-121382805D01*
X130501639Y-121374196D01*
X130499564Y-121361144D01*
X130500818Y-121357352D01*
X130512025Y-121323610D01*
X130513666Y-121315019D01*
X130532244Y-121309058D01*
X130577653Y-121306208D01*
X130584469Y-121306167D01*
X130649508Y-121293761D01*
X130690001Y-121267792D01*
X130705207Y-121235568D01*
X130726950Y-121168717D01*
X130753633Y-121074152D01*
X130783659Y-120958791D01*
X130815432Y-120829550D01*
X130847354Y-120693344D01*
X130877830Y-120557091D01*
X130905262Y-120427705D01*
X130928055Y-120312103D01*
X130944610Y-120217201D01*
X130953332Y-120149916D01*
X130954032Y-120124108D01*
X130945695Y-120072175D01*
X130924229Y-120048739D01*
X130878791Y-120040117D01*
X130828805Y-120028367D01*
X130810689Y-120001897D01*
X130810000Y-119991776D01*
X130812624Y-119973426D01*
X130825430Y-119961745D01*
X130855821Y-119955571D01*
X130911197Y-119953742D01*
X130998960Y-119955098D01*
G37*
X130998960Y-119955098D02*
X131037441Y-119956076D01*
X131264882Y-119962084D01*
X131321654Y-120519700D01*
X131337068Y-120668529D01*
X131351495Y-120802989D01*
X131364294Y-120917492D01*
X131374825Y-121006451D01*
X131382448Y-121064281D01*
X131386456Y-121085346D01*
X131398351Y-121069626D01*
X131428212Y-121021280D01*
X131473479Y-120944708D01*
X131531593Y-120844309D01*
X131599996Y-120724482D01*
X131676127Y-120589626D01*
X131710818Y-120527729D01*
X132027150Y-119962084D01*
X132257207Y-119956050D01*
X132358433Y-119954007D01*
X132424077Y-119954821D01*
X132460842Y-119959361D01*
X132475433Y-119968500D01*
X132474554Y-119983109D01*
X132474132Y-119984239D01*
X132462755Y-120018332D01*
X132461000Y-120027315D01*
X132442372Y-120033185D01*
X132396616Y-120036097D01*
X132387404Y-120036167D01*
X132322762Y-120047498D01*
X132282851Y-120083792D01*
X132268479Y-120119513D01*
X132247416Y-120189700D01*
X132221269Y-120287305D01*
X132191645Y-120405281D01*
X132160151Y-120536582D01*
X132128393Y-120674160D01*
X132097979Y-120810969D01*
X132070516Y-120939962D01*
X132047609Y-121054091D01*
X132030867Y-121146310D01*
X132021896Y-121209572D01*
X132021016Y-121232084D01*
X132031603Y-121277160D01*
X132061006Y-121296822D01*
X132095875Y-121302216D01*
X132146061Y-121314130D01*
X132164086Y-121340809D01*
X132164666Y-121349841D01*
X132162129Y-121366271D01*
X132150130Y-121377613D01*
X132122087Y-121384804D01*
X132071420Y-121388780D01*
X131991547Y-121390477D01*
X131876652Y-121390834D01*
X131760814Y-121390332D01*
X131681246Y-121388336D01*
X131631888Y-121384108D01*
X131606683Y-121376912D01*
X131599574Y-121366009D01*
X131601485Y-121357352D01*
X131612692Y-121323610D01*
X131614333Y-121315019D01*
X131632910Y-121309058D01*
X131678320Y-121306208D01*
X131685136Y-121306167D01*
X131748326Y-121294492D01*
X131789768Y-121268786D01*
X131801172Y-121241715D01*
X131819945Y-121180700D01*
X131844536Y-121092163D01*
X131873393Y-120982524D01*
X131904963Y-120858206D01*
X131937695Y-120725630D01*
X131970038Y-120591216D01*
X132000439Y-120461387D01*
X132027346Y-120342565D01*
X132049208Y-120241170D01*
X132064473Y-120163623D01*
X132071589Y-120116347D01*
X132071054Y-120104832D01*
X132059475Y-120120938D01*
X132029764Y-120169922D01*
X131984308Y-120247634D01*
X131925495Y-120349925D01*
X131855714Y-120472646D01*
X131777352Y-120611647D01*
X131706070Y-120738982D01*
X131604867Y-120919385D01*
X131521677Y-121065388D01*
X131454646Y-121179973D01*
X131401919Y-121266123D01*
X131361642Y-121326819D01*
X131331959Y-121365042D01*
X131311017Y-121383775D01*
X131303171Y-121386776D01*
X131260969Y-121377460D01*
X131247591Y-121355026D01*
X131242877Y-121324719D01*
X131234759Y-121257969D01*
X131223856Y-121160473D01*
X131210786Y-121037932D01*
X131196166Y-120896042D01*
X131180615Y-120740503D01*
X131177443Y-120708209D01*
X131161850Y-120552947D01*
X131146985Y-120412303D01*
X131133462Y-120291525D01*
X131121894Y-120195866D01*
X131112898Y-120130576D01*
X131107087Y-120100905D01*
X131106223Y-120099667D01*
X131097537Y-120119344D01*
X131081925Y-120174076D01*
X131060801Y-120257413D01*
X131035580Y-120362906D01*
X131007674Y-120484105D01*
X130978497Y-120614562D01*
X130949462Y-120747827D01*
X130921983Y-120877451D01*
X130897474Y-120996984D01*
X130877347Y-121099977D01*
X130863017Y-121179980D01*
X130855896Y-121230545D01*
X130855555Y-121243400D01*
X130868379Y-121279736D01*
X130901794Y-121296894D01*
X130940011Y-121302017D01*
X130990595Y-121309944D01*
X131008566Y-121326655D01*
X131006334Y-121349642D01*
X130998594Y-121367104D01*
X130981340Y-121378807D01*
X130947263Y-121385887D01*
X130889057Y-121389483D01*
X130799413Y-121390733D01*
X130741766Y-121390834D01*
X130634200Y-121390237D01*
X130562577Y-121387856D01*
X130520517Y-121382805D01*
X130501639Y-121374196D01*
X130499564Y-121361144D01*
X130500818Y-121357352D01*
X130512025Y-121323610D01*
X130513666Y-121315019D01*
X130532244Y-121309058D01*
X130577653Y-121306208D01*
X130584469Y-121306167D01*
X130649508Y-121293761D01*
X130690001Y-121267792D01*
X130705207Y-121235568D01*
X130726950Y-121168717D01*
X130753633Y-121074152D01*
X130783659Y-120958791D01*
X130815432Y-120829550D01*
X130847354Y-120693344D01*
X130877830Y-120557091D01*
X130905262Y-120427705D01*
X130928055Y-120312103D01*
X130944610Y-120217201D01*
X130953332Y-120149916D01*
X130954032Y-120124108D01*
X130945695Y-120072175D01*
X130924229Y-120048739D01*
X130878791Y-120040117D01*
X130828805Y-120028367D01*
X130810689Y-120001897D01*
X130810000Y-119991776D01*
X130812624Y-119973426D01*
X130825430Y-119961745D01*
X130855821Y-119955571D01*
X130911197Y-119953742D01*
X130998960Y-119955098D01*
G36*
X128690146Y-119953978D02*
G01*
X128835073Y-119962017D01*
X128947949Y-119977370D01*
X129033818Y-120001671D01*
X129097725Y-120036556D01*
X129144713Y-120083659D01*
X129179829Y-120144614D01*
X129191638Y-120173130D01*
X129214963Y-120290281D01*
X129201257Y-120410496D01*
X129154196Y-120525219D01*
X129077456Y-120625895D01*
X128974714Y-120703972D01*
X128960152Y-120711754D01*
X128909703Y-120734984D01*
X128858758Y-120750993D01*
X128796923Y-120761539D01*
X128713803Y-120768379D01*
X128599004Y-120773271D01*
X128595649Y-120773383D01*
X128483885Y-120777922D01*
X128407700Y-120783482D01*
X128360338Y-120791142D01*
X128335044Y-120801980D01*
X128325197Y-120816576D01*
X128316498Y-120851521D01*
X128301087Y-120916623D01*
X128281582Y-121000746D01*
X128270598Y-121048720D01*
X128248564Y-121156084D01*
X128241166Y-121229335D01*
X128249968Y-121274625D01*
X128276536Y-121298108D01*
X128322435Y-121305934D01*
X128336091Y-121306167D01*
X128381400Y-121313464D01*
X128396638Y-121340209D01*
X128397000Y-121348500D01*
X128394750Y-121365454D01*
X128383605Y-121377156D01*
X128356965Y-121384575D01*
X128308235Y-121388681D01*
X128230816Y-121390444D01*
X128118112Y-121390833D01*
X128108985Y-121390834D01*
X127993148Y-121390332D01*
X127913579Y-121388336D01*
X127864221Y-121384108D01*
X127839017Y-121376912D01*
X127831907Y-121366009D01*
X127833818Y-121357352D01*
X127845025Y-121323610D01*
X127846666Y-121315019D01*
X127864873Y-121308420D01*
X127900974Y-121306167D01*
X127980804Y-121290634D01*
X128034347Y-121242459D01*
X128055776Y-121195204D01*
X128073626Y-121132303D01*
X128096630Y-121040906D01*
X128123277Y-120928117D01*
X128152055Y-120801038D01*
X128179422Y-120676043D01*
X128352636Y-120676043D01*
X128572808Y-120667893D01*
X128674676Y-120663176D01*
X128744765Y-120656456D01*
X128793630Y-120645412D01*
X128831823Y-120627722D01*
X128867178Y-120603150D01*
X128950930Y-120514038D01*
X128999083Y-120403123D01*
X129010833Y-120303177D01*
X129003465Y-120227956D01*
X128975437Y-120169482D01*
X128949113Y-120137042D01*
X128918766Y-120104712D01*
X128890881Y-120084461D01*
X128854894Y-120073462D01*
X128800243Y-120068892D01*
X128716366Y-120067926D01*
X128690627Y-120067917D01*
X128493860Y-120067917D01*
X128438856Y-120311334D01*
X128415566Y-120413697D01*
X128394212Y-120506279D01*
X128377341Y-120578120D01*
X128368244Y-120615397D01*
X128352636Y-120676043D01*
X128179422Y-120676043D01*
X128181453Y-120666771D01*
X128209960Y-120532421D01*
X128236064Y-120405090D01*
X128258253Y-120291880D01*
X128275015Y-120199894D01*
X128284840Y-120136236D01*
X128286668Y-120110250D01*
X128276065Y-120065172D01*
X128246647Y-120045509D01*
X128211791Y-120040117D01*
X128161605Y-120028204D01*
X128143580Y-120001525D01*
X128143000Y-119992492D01*
X128145137Y-119977642D01*
X128155457Y-119966889D01*
X128179816Y-119959577D01*
X128224076Y-119955052D01*
X128294093Y-119952656D01*
X128395727Y-119951734D01*
X128508125Y-119951618D01*
X128690146Y-119953978D01*
G37*
X128690146Y-119953978D02*
X128835073Y-119962017D01*
X128947949Y-119977370D01*
X129033818Y-120001671D01*
X129097725Y-120036556D01*
X129144713Y-120083659D01*
X129179829Y-120144614D01*
X129191638Y-120173130D01*
X129214963Y-120290281D01*
X129201257Y-120410496D01*
X129154196Y-120525219D01*
X129077456Y-120625895D01*
X128974714Y-120703972D01*
X128960152Y-120711754D01*
X128909703Y-120734984D01*
X128858758Y-120750993D01*
X128796923Y-120761539D01*
X128713803Y-120768379D01*
X128599004Y-120773271D01*
X128595649Y-120773383D01*
X128483885Y-120777922D01*
X128407700Y-120783482D01*
X128360338Y-120791142D01*
X128335044Y-120801980D01*
X128325197Y-120816576D01*
X128316498Y-120851521D01*
X128301087Y-120916623D01*
X128281582Y-121000746D01*
X128270598Y-121048720D01*
X128248564Y-121156084D01*
X128241166Y-121229335D01*
X128249968Y-121274625D01*
X128276536Y-121298108D01*
X128322435Y-121305934D01*
X128336091Y-121306167D01*
X128381400Y-121313464D01*
X128396638Y-121340209D01*
X128397000Y-121348500D01*
X128394750Y-121365454D01*
X128383605Y-121377156D01*
X128356965Y-121384575D01*
X128308235Y-121388681D01*
X128230816Y-121390444D01*
X128118112Y-121390833D01*
X128108985Y-121390834D01*
X127993148Y-121390332D01*
X127913579Y-121388336D01*
X127864221Y-121384108D01*
X127839017Y-121376912D01*
X127831907Y-121366009D01*
X127833818Y-121357352D01*
X127845025Y-121323610D01*
X127846666Y-121315019D01*
X127864873Y-121308420D01*
X127900974Y-121306167D01*
X127980804Y-121290634D01*
X128034347Y-121242459D01*
X128055776Y-121195204D01*
X128073626Y-121132303D01*
X128096630Y-121040906D01*
X128123277Y-120928117D01*
X128152055Y-120801038D01*
X128179422Y-120676043D01*
X128352636Y-120676043D01*
X128572808Y-120667893D01*
X128674676Y-120663176D01*
X128744765Y-120656456D01*
X128793630Y-120645412D01*
X128831823Y-120627722D01*
X128867178Y-120603150D01*
X128950930Y-120514038D01*
X128999083Y-120403123D01*
X129010833Y-120303177D01*
X129003465Y-120227956D01*
X128975437Y-120169482D01*
X128949113Y-120137042D01*
X128918766Y-120104712D01*
X128890881Y-120084461D01*
X128854894Y-120073462D01*
X128800243Y-120068892D01*
X128716366Y-120067926D01*
X128690627Y-120067917D01*
X128493860Y-120067917D01*
X128438856Y-120311334D01*
X128415566Y-120413697D01*
X128394212Y-120506279D01*
X128377341Y-120578120D01*
X128368244Y-120615397D01*
X128352636Y-120676043D01*
X128179422Y-120676043D01*
X128181453Y-120666771D01*
X128209960Y-120532421D01*
X128236064Y-120405090D01*
X128258253Y-120291880D01*
X128275015Y-120199894D01*
X128284840Y-120136236D01*
X128286668Y-120110250D01*
X128276065Y-120065172D01*
X128246647Y-120045509D01*
X128211791Y-120040117D01*
X128161605Y-120028204D01*
X128143580Y-120001525D01*
X128143000Y-119992492D01*
X128145137Y-119977642D01*
X128155457Y-119966889D01*
X128179816Y-119959577D01*
X128224076Y-119955052D01*
X128294093Y-119952656D01*
X128395727Y-119951734D01*
X128508125Y-119951618D01*
X128690146Y-119953978D01*
G36*
X127006643Y-119954312D02*
G01*
X127151785Y-119955622D01*
X127226903Y-119956422D01*
X127750140Y-119962084D01*
X127805877Y-120142000D01*
X127833119Y-120237084D01*
X127844184Y-120299308D01*
X127838703Y-120335086D01*
X127816306Y-120350830D01*
X127793713Y-120353343D01*
X127772513Y-120336367D01*
X127741560Y-120292607D01*
X127721908Y-120258281D01*
X127674832Y-120183188D01*
X127620902Y-120130232D01*
X127552076Y-120095905D01*
X127460312Y-120076695D01*
X127337568Y-120069093D01*
X127287138Y-120068529D01*
X127054666Y-120067917D01*
X126996569Y-120321917D01*
X126974188Y-120420656D01*
X126955640Y-120504178D01*
X126942794Y-120563946D01*
X126937517Y-120591424D01*
X126937486Y-120591792D01*
X126955553Y-120602029D01*
X127003344Y-120606282D01*
X127068743Y-120605035D01*
X127139639Y-120598771D01*
X127203916Y-120587973D01*
X127232833Y-120580014D01*
X127287957Y-120551122D01*
X127331198Y-120500591D01*
X127356787Y-120454209D01*
X127400371Y-120383266D01*
X127439866Y-120354393D01*
X127446745Y-120353667D01*
X127479963Y-120357515D01*
X127486833Y-120362373D01*
X127482346Y-120385259D01*
X127470177Y-120440674D01*
X127452266Y-120519924D01*
X127433750Y-120600498D01*
X127411114Y-120698403D01*
X127391137Y-120784947D01*
X127376293Y-120849400D01*
X127369847Y-120877542D01*
X127344450Y-120917338D01*
X127317096Y-120925167D01*
X127289482Y-120917808D01*
X127277393Y-120888356D01*
X127275166Y-120841700D01*
X127264984Y-120772857D01*
X127230943Y-120727361D01*
X127167796Y-120701740D01*
X127070301Y-120692520D01*
X127049633Y-120692334D01*
X126974187Y-120694578D01*
X126931179Y-120702998D01*
X126910873Y-120720124D01*
X126907102Y-120729375D01*
X126888511Y-120798073D01*
X126867803Y-120884903D01*
X126846871Y-120980439D01*
X126827607Y-121075257D01*
X126811904Y-121159934D01*
X126801655Y-121225043D01*
X126798752Y-121261160D01*
X126799570Y-121264891D01*
X126826172Y-121274755D01*
X126884960Y-121281162D01*
X126965934Y-121284162D01*
X127059091Y-121283804D01*
X127154431Y-121280140D01*
X127241952Y-121273218D01*
X127311653Y-121263090D01*
X127315386Y-121262309D01*
X127447487Y-121212801D01*
X127565678Y-121125800D01*
X127661314Y-121010185D01*
X127702301Y-120948755D01*
X127728637Y-120916796D01*
X127748737Y-120908280D01*
X127771016Y-120917181D01*
X127781813Y-120923882D01*
X127792265Y-120938465D01*
X127790686Y-120966487D01*
X127775112Y-121014380D01*
X127743579Y-121088573D01*
X127707729Y-121166516D01*
X127603250Y-121389915D01*
X126992443Y-121390374D01*
X126814927Y-121390319D01*
X126675408Y-121389695D01*
X126569553Y-121388263D01*
X126493026Y-121385785D01*
X126441494Y-121382020D01*
X126410621Y-121376729D01*
X126396074Y-121369674D01*
X126393517Y-121360613D01*
X126394485Y-121357352D01*
X126405692Y-121323610D01*
X126407333Y-121315019D01*
X126425960Y-121309149D01*
X126471717Y-121306236D01*
X126480928Y-121306167D01*
X126545399Y-121294911D01*
X126586267Y-121257721D01*
X126599274Y-121224530D01*
X126619347Y-121156864D01*
X126644861Y-121061680D01*
X126674189Y-120945934D01*
X126705707Y-120816583D01*
X126737790Y-120680585D01*
X126768814Y-120544895D01*
X126797152Y-120416471D01*
X126821181Y-120302269D01*
X126839275Y-120209246D01*
X126849809Y-120144359D01*
X126851833Y-120120807D01*
X126838094Y-120068045D01*
X126794181Y-120041219D01*
X126744268Y-120036167D01*
X126710186Y-120020414D01*
X126703666Y-119993464D01*
X126704937Y-119980259D01*
X126712026Y-119970171D01*
X126729843Y-119962852D01*
X126763302Y-119957954D01*
X126817313Y-119955130D01*
X126896790Y-119954032D01*
X127006643Y-119954312D01*
G37*
X127006643Y-119954312D02*
X127151785Y-119955622D01*
X127226903Y-119956422D01*
X127750140Y-119962084D01*
X127805877Y-120142000D01*
X127833119Y-120237084D01*
X127844184Y-120299308D01*
X127838703Y-120335086D01*
X127816306Y-120350830D01*
X127793713Y-120353343D01*
X127772513Y-120336367D01*
X127741560Y-120292607D01*
X127721908Y-120258281D01*
X127674832Y-120183188D01*
X127620902Y-120130232D01*
X127552076Y-120095905D01*
X127460312Y-120076695D01*
X127337568Y-120069093D01*
X127287138Y-120068529D01*
X127054666Y-120067917D01*
X126996569Y-120321917D01*
X126974188Y-120420656D01*
X126955640Y-120504178D01*
X126942794Y-120563946D01*
X126937517Y-120591424D01*
X126937486Y-120591792D01*
X126955553Y-120602029D01*
X127003344Y-120606282D01*
X127068743Y-120605035D01*
X127139639Y-120598771D01*
X127203916Y-120587973D01*
X127232833Y-120580014D01*
X127287957Y-120551122D01*
X127331198Y-120500591D01*
X127356787Y-120454209D01*
X127400371Y-120383266D01*
X127439866Y-120354393D01*
X127446745Y-120353667D01*
X127479963Y-120357515D01*
X127486833Y-120362373D01*
X127482346Y-120385259D01*
X127470177Y-120440674D01*
X127452266Y-120519924D01*
X127433750Y-120600498D01*
X127411114Y-120698403D01*
X127391137Y-120784947D01*
X127376293Y-120849400D01*
X127369847Y-120877542D01*
X127344450Y-120917338D01*
X127317096Y-120925167D01*
X127289482Y-120917808D01*
X127277393Y-120888356D01*
X127275166Y-120841700D01*
X127264984Y-120772857D01*
X127230943Y-120727361D01*
X127167796Y-120701740D01*
X127070301Y-120692520D01*
X127049633Y-120692334D01*
X126974187Y-120694578D01*
X126931179Y-120702998D01*
X126910873Y-120720124D01*
X126907102Y-120729375D01*
X126888511Y-120798073D01*
X126867803Y-120884903D01*
X126846871Y-120980439D01*
X126827607Y-121075257D01*
X126811904Y-121159934D01*
X126801655Y-121225043D01*
X126798752Y-121261160D01*
X126799570Y-121264891D01*
X126826172Y-121274755D01*
X126884960Y-121281162D01*
X126965934Y-121284162D01*
X127059091Y-121283804D01*
X127154431Y-121280140D01*
X127241952Y-121273218D01*
X127311653Y-121263090D01*
X127315386Y-121262309D01*
X127447487Y-121212801D01*
X127565678Y-121125800D01*
X127661314Y-121010185D01*
X127702301Y-120948755D01*
X127728637Y-120916796D01*
X127748737Y-120908280D01*
X127771016Y-120917181D01*
X127781813Y-120923882D01*
X127792265Y-120938465D01*
X127790686Y-120966487D01*
X127775112Y-121014380D01*
X127743579Y-121088573D01*
X127707729Y-121166516D01*
X127603250Y-121389915D01*
X126992443Y-121390374D01*
X126814927Y-121390319D01*
X126675408Y-121389695D01*
X126569553Y-121388263D01*
X126493026Y-121385785D01*
X126441494Y-121382020D01*
X126410621Y-121376729D01*
X126396074Y-121369674D01*
X126393517Y-121360613D01*
X126394485Y-121357352D01*
X126405692Y-121323610D01*
X126407333Y-121315019D01*
X126425960Y-121309149D01*
X126471717Y-121306236D01*
X126480928Y-121306167D01*
X126545399Y-121294911D01*
X126586267Y-121257721D01*
X126599274Y-121224530D01*
X126619347Y-121156864D01*
X126644861Y-121061680D01*
X126674189Y-120945934D01*
X126705707Y-120816583D01*
X126737790Y-120680585D01*
X126768814Y-120544895D01*
X126797152Y-120416471D01*
X126821181Y-120302269D01*
X126839275Y-120209246D01*
X126849809Y-120144359D01*
X126851833Y-120120807D01*
X126838094Y-120068045D01*
X126794181Y-120041219D01*
X126744268Y-120036167D01*
X126710186Y-120020414D01*
X126703666Y-119993464D01*
X126704937Y-119980259D01*
X126712026Y-119970171D01*
X126729843Y-119962852D01*
X126763302Y-119957954D01*
X126817313Y-119955130D01*
X126896790Y-119954032D01*
X127006643Y-119954312D01*
G36*
X130049470Y-119945327D02*
G01*
X130121224Y-119955980D01*
X130185211Y-119977652D01*
X130235313Y-120001695D01*
X130295888Y-120031527D01*
X130339126Y-120050076D01*
X130354154Y-120053465D01*
X130367094Y-120031682D01*
X130384544Y-119999125D01*
X130418595Y-119962553D01*
X130450911Y-119951500D01*
X130469475Y-119954453D01*
X130481515Y-119968291D01*
X130488432Y-120000487D01*
X130491622Y-120058512D01*
X130492484Y-120149837D01*
X130492500Y-120173750D01*
X130492131Y-120272660D01*
X130489922Y-120336774D01*
X130484215Y-120373632D01*
X130473353Y-120390772D01*
X130455681Y-120395732D01*
X130443656Y-120396000D01*
X130404932Y-120384052D01*
X130372552Y-120342550D01*
X130357698Y-120311878D01*
X130304947Y-120228905D01*
X130227414Y-120149776D01*
X130139409Y-120087175D01*
X130070549Y-120057367D01*
X129951514Y-120038496D01*
X129838165Y-120046157D01*
X129737538Y-120077139D01*
X129656669Y-120128235D01*
X129602593Y-120196236D01*
X129582345Y-120277931D01*
X129582333Y-120280046D01*
X129598326Y-120353744D01*
X129648266Y-120417994D01*
X129735094Y-120475558D01*
X129838765Y-120520793D01*
X130010328Y-120588582D01*
X130144718Y-120650169D01*
X130246097Y-120708486D01*
X130318629Y-120766464D01*
X130366478Y-120827033D01*
X130393805Y-120893126D01*
X130398732Y-120915044D01*
X130397440Y-121016075D01*
X130361003Y-121119874D01*
X130295033Y-121217767D01*
X130205142Y-121301079D01*
X130115041Y-121353542D01*
X130001811Y-121388129D01*
X129869831Y-121404266D01*
X129737137Y-121401172D01*
X129621767Y-121378067D01*
X129613640Y-121375264D01*
X129537128Y-121343146D01*
X129465721Y-121305731D01*
X129440833Y-121289747D01*
X129374301Y-121242372D01*
X129328424Y-121316603D01*
X129292098Y-121363351D01*
X129257647Y-121389096D01*
X129249462Y-121390834D01*
X129232244Y-121384826D01*
X129224398Y-121361017D01*
X129224735Y-121310725D01*
X129229872Y-121247959D01*
X129237283Y-121149751D01*
X129242248Y-121046280D01*
X129243516Y-120983375D01*
X129245000Y-120914683D01*
X129251921Y-120878226D01*
X129268310Y-120863926D01*
X129292193Y-120861667D01*
X129324981Y-120869468D01*
X129347494Y-120899660D01*
X129366138Y-120956702D01*
X129409854Y-121054746D01*
X129482344Y-121150277D01*
X129571588Y-121229453D01*
X129635250Y-121266677D01*
X129750787Y-121299262D01*
X129878719Y-121303181D01*
X130000543Y-121278649D01*
X130041234Y-121261985D01*
X130136807Y-121201781D01*
X130194105Y-121130146D01*
X130216674Y-121042243D01*
X130217333Y-121021554D01*
X130212331Y-120964948D01*
X130194251Y-120916511D01*
X130158482Y-120872865D01*
X130100411Y-120830635D01*
X130015427Y-120786446D01*
X129898919Y-120736921D01*
X129751666Y-120680680D01*
X129623478Y-120622660D01*
X129527918Y-120556782D01*
X129515297Y-120544930D01*
X129445706Y-120451411D01*
X129415843Y-120352325D01*
X129424422Y-120252596D01*
X129470158Y-120157147D01*
X129551764Y-120070901D01*
X129656416Y-120004417D01*
X129729816Y-119970769D01*
X129793207Y-119951676D01*
X129864435Y-119943381D01*
X129952750Y-119942064D01*
X130049470Y-119945327D01*
G37*
X130049470Y-119945327D02*
X130121224Y-119955980D01*
X130185211Y-119977652D01*
X130235313Y-120001695D01*
X130295888Y-120031527D01*
X130339126Y-120050076D01*
X130354154Y-120053465D01*
X130367094Y-120031682D01*
X130384544Y-119999125D01*
X130418595Y-119962553D01*
X130450911Y-119951500D01*
X130469475Y-119954453D01*
X130481515Y-119968291D01*
X130488432Y-120000487D01*
X130491622Y-120058512D01*
X130492484Y-120149837D01*
X130492500Y-120173750D01*
X130492131Y-120272660D01*
X130489922Y-120336774D01*
X130484215Y-120373632D01*
X130473353Y-120390772D01*
X130455681Y-120395732D01*
X130443656Y-120396000D01*
X130404932Y-120384052D01*
X130372552Y-120342550D01*
X130357698Y-120311878D01*
X130304947Y-120228905D01*
X130227414Y-120149776D01*
X130139409Y-120087175D01*
X130070549Y-120057367D01*
X129951514Y-120038496D01*
X129838165Y-120046157D01*
X129737538Y-120077139D01*
X129656669Y-120128235D01*
X129602593Y-120196236D01*
X129582345Y-120277931D01*
X129582333Y-120280046D01*
X129598326Y-120353744D01*
X129648266Y-120417994D01*
X129735094Y-120475558D01*
X129838765Y-120520793D01*
X130010328Y-120588582D01*
X130144718Y-120650169D01*
X130246097Y-120708486D01*
X130318629Y-120766464D01*
X130366478Y-120827033D01*
X130393805Y-120893126D01*
X130398732Y-120915044D01*
X130397440Y-121016075D01*
X130361003Y-121119874D01*
X130295033Y-121217767D01*
X130205142Y-121301079D01*
X130115041Y-121353542D01*
X130001811Y-121388129D01*
X129869831Y-121404266D01*
X129737137Y-121401172D01*
X129621767Y-121378067D01*
X129613640Y-121375264D01*
X129537128Y-121343146D01*
X129465721Y-121305731D01*
X129440833Y-121289747D01*
X129374301Y-121242372D01*
X129328424Y-121316603D01*
X129292098Y-121363351D01*
X129257647Y-121389096D01*
X129249462Y-121390834D01*
X129232244Y-121384826D01*
X129224398Y-121361017D01*
X129224735Y-121310725D01*
X129229872Y-121247959D01*
X129237283Y-121149751D01*
X129242248Y-121046280D01*
X129243516Y-120983375D01*
X129245000Y-120914683D01*
X129251921Y-120878226D01*
X129268310Y-120863926D01*
X129292193Y-120861667D01*
X129324981Y-120869468D01*
X129347494Y-120899660D01*
X129366138Y-120956702D01*
X129409854Y-121054746D01*
X129482344Y-121150277D01*
X129571588Y-121229453D01*
X129635250Y-121266677D01*
X129750787Y-121299262D01*
X129878719Y-121303181D01*
X130000543Y-121278649D01*
X130041234Y-121261985D01*
X130136807Y-121201781D01*
X130194105Y-121130146D01*
X130216674Y-121042243D01*
X130217333Y-121021554D01*
X130212331Y-120964948D01*
X130194251Y-120916511D01*
X130158482Y-120872865D01*
X130100411Y-120830635D01*
X130015427Y-120786446D01*
X129898919Y-120736921D01*
X129751666Y-120680680D01*
X129623478Y-120622660D01*
X129527918Y-120556782D01*
X129515297Y-120544930D01*
X129445706Y-120451411D01*
X129415843Y-120352325D01*
X129424422Y-120252596D01*
X129470158Y-120157147D01*
X129551764Y-120070901D01*
X129656416Y-120004417D01*
X129729816Y-119970769D01*
X129793207Y-119951676D01*
X129864435Y-119943381D01*
X129952750Y-119942064D01*
X130049470Y-119945327D01*
G36*
X133227471Y-120247253D02*
G01*
X133240985Y-120297557D01*
X133260167Y-120377795D01*
X133283795Y-120482161D01*
X133310646Y-120604847D01*
X133339497Y-120740047D01*
X133369128Y-120881954D01*
X133398316Y-121024759D01*
X133425838Y-121162657D01*
X133450472Y-121289839D01*
X133470997Y-121400500D01*
X133486189Y-121488831D01*
X133489083Y-121507216D01*
X133502057Y-121591849D01*
X133532538Y-121533674D01*
X133540318Y-121517865D01*
X133548109Y-121504819D01*
X133559668Y-121494409D01*
X133578756Y-121486508D01*
X133609131Y-121480990D01*
X133654554Y-121477726D01*
X133718784Y-121476592D01*
X133805580Y-121477459D01*
X133918702Y-121480200D01*
X134061910Y-121484689D01*
X134238962Y-121490800D01*
X134453618Y-121498404D01*
X134514166Y-121500544D01*
X134723056Y-121508514D01*
X134892378Y-121516252D01*
X135021835Y-121523678D01*
X135111126Y-121530716D01*
X135159953Y-121537288D01*
X135168018Y-121543316D01*
X135135020Y-121548723D01*
X135060661Y-121553431D01*
X134944642Y-121557363D01*
X134786664Y-121560440D01*
X134747000Y-121560985D01*
X134587882Y-121563569D01*
X134410816Y-121567327D01*
X134233145Y-121571835D01*
X134072215Y-121576675D01*
X134006569Y-121578970D01*
X133657722Y-121591917D01*
X133562490Y-121760820D01*
X133467257Y-121929723D01*
X133345928Y-121432737D01*
X133311798Y-121290762D01*
X133281314Y-121159797D01*
X133255903Y-121046315D01*
X133236992Y-120956791D01*
X133226009Y-120897698D01*
X133223799Y-120878791D01*
X133220086Y-120832005D01*
X133210194Y-120818026D01*
X133193359Y-120838401D01*
X133168815Y-120894677D01*
X133135796Y-120988401D01*
X133093537Y-121121119D01*
X133076858Y-121175629D01*
X133005059Y-121410218D01*
X132938692Y-121623254D01*
X132878562Y-121812354D01*
X132825473Y-121975131D01*
X132780232Y-122109201D01*
X132743642Y-122212178D01*
X132716509Y-122281676D01*
X132699638Y-122315312D01*
X132693833Y-122310698D01*
X132693833Y-122310691D01*
X132689951Y-122285774D01*
X132679712Y-122230668D01*
X132665221Y-122156661D01*
X132663217Y-122146649D01*
X132648381Y-122069222D01*
X132628896Y-121962538D01*
X132607004Y-121839112D01*
X132584944Y-121711456D01*
X132578758Y-121674976D01*
X132553056Y-121521223D01*
X132533516Y-121405590D01*
X132518427Y-121324606D01*
X132506075Y-121274795D01*
X132494749Y-121252685D01*
X132482735Y-121254802D01*
X132468322Y-121277673D01*
X132449797Y-121317825D01*
X132427308Y-121367781D01*
X132389864Y-121444115D01*
X132354852Y-121507798D01*
X132328984Y-121546751D01*
X132326081Y-121549943D01*
X132317781Y-121554353D01*
X132300806Y-121558338D01*
X132273149Y-121561920D01*
X132232805Y-121565118D01*
X132177770Y-121567953D01*
X132106038Y-121570447D01*
X132015603Y-121572621D01*
X131904462Y-121574495D01*
X131770607Y-121576089D01*
X131612035Y-121577426D01*
X131426741Y-121578525D01*
X131212718Y-121579408D01*
X130967962Y-121580096D01*
X130690467Y-121580609D01*
X130378229Y-121580968D01*
X130029241Y-121581195D01*
X129641500Y-121581309D01*
X129308678Y-121581334D01*
X126322666Y-121581334D01*
X126322666Y-121475500D01*
X132222275Y-121475500D01*
X132299304Y-121306988D01*
X132333807Y-121230575D01*
X132360321Y-121170076D01*
X132374807Y-121134788D01*
X132376333Y-121129716D01*
X132384826Y-121103588D01*
X132407261Y-121051677D01*
X132439071Y-120983269D01*
X132475690Y-120907646D01*
X132512549Y-120834093D01*
X132545084Y-120771895D01*
X132568726Y-120730335D01*
X132578700Y-120718312D01*
X132585286Y-120742280D01*
X132595358Y-120799657D01*
X132607534Y-120881798D01*
X132620200Y-120978165D01*
X132641893Y-121143560D01*
X132664150Y-121296144D01*
X132686127Y-121431530D01*
X132706983Y-121545331D01*
X132725874Y-121633160D01*
X132741959Y-121690631D01*
X132754395Y-121713356D01*
X132760201Y-121707171D01*
X132770125Y-121675179D01*
X132790955Y-121607807D01*
X132821125Y-121510130D01*
X132859068Y-121387222D01*
X132903218Y-121244158D01*
X132952007Y-121086012D01*
X132991825Y-120956917D01*
X133042854Y-120791972D01*
X133090350Y-120639434D01*
X133132782Y-120504142D01*
X133168619Y-120390939D01*
X133196332Y-120304663D01*
X133214388Y-120250157D01*
X133220846Y-120232691D01*
X133227471Y-120247253D01*
G37*
X133227471Y-120247253D02*
X133240985Y-120297557D01*
X133260167Y-120377795D01*
X133283795Y-120482161D01*
X133310646Y-120604847D01*
X133339497Y-120740047D01*
X133369128Y-120881954D01*
X133398316Y-121024759D01*
X133425838Y-121162657D01*
X133450472Y-121289839D01*
X133470997Y-121400500D01*
X133486189Y-121488831D01*
X133489083Y-121507216D01*
X133502057Y-121591849D01*
X133532538Y-121533674D01*
X133540318Y-121517865D01*
X133548109Y-121504819D01*
X133559668Y-121494409D01*
X133578756Y-121486508D01*
X133609131Y-121480990D01*
X133654554Y-121477726D01*
X133718784Y-121476592D01*
X133805580Y-121477459D01*
X133918702Y-121480200D01*
X134061910Y-121484689D01*
X134238962Y-121490800D01*
X134453618Y-121498404D01*
X134514166Y-121500544D01*
X134723056Y-121508514D01*
X134892378Y-121516252D01*
X135021835Y-121523678D01*
X135111126Y-121530716D01*
X135159953Y-121537288D01*
X135168018Y-121543316D01*
X135135020Y-121548723D01*
X135060661Y-121553431D01*
X134944642Y-121557363D01*
X134786664Y-121560440D01*
X134747000Y-121560985D01*
X134587882Y-121563569D01*
X134410816Y-121567327D01*
X134233145Y-121571835D01*
X134072215Y-121576675D01*
X134006569Y-121578970D01*
X133657722Y-121591917D01*
X133562490Y-121760820D01*
X133467257Y-121929723D01*
X133345928Y-121432737D01*
X133311798Y-121290762D01*
X133281314Y-121159797D01*
X133255903Y-121046315D01*
X133236992Y-120956791D01*
X133226009Y-120897698D01*
X133223799Y-120878791D01*
X133220086Y-120832005D01*
X133210194Y-120818026D01*
X133193359Y-120838401D01*
X133168815Y-120894677D01*
X133135796Y-120988401D01*
X133093537Y-121121119D01*
X133076858Y-121175629D01*
X133005059Y-121410218D01*
X132938692Y-121623254D01*
X132878562Y-121812354D01*
X132825473Y-121975131D01*
X132780232Y-122109201D01*
X132743642Y-122212178D01*
X132716509Y-122281676D01*
X132699638Y-122315312D01*
X132693833Y-122310698D01*
X132693833Y-122310691D01*
X132689951Y-122285774D01*
X132679712Y-122230668D01*
X132665221Y-122156661D01*
X132663217Y-122146649D01*
X132648381Y-122069222D01*
X132628896Y-121962538D01*
X132607004Y-121839112D01*
X132584944Y-121711456D01*
X132578758Y-121674976D01*
X132553056Y-121521223D01*
X132533516Y-121405590D01*
X132518427Y-121324606D01*
X132506075Y-121274795D01*
X132494749Y-121252685D01*
X132482735Y-121254802D01*
X132468322Y-121277673D01*
X132449797Y-121317825D01*
X132427308Y-121367781D01*
X132389864Y-121444115D01*
X132354852Y-121507798D01*
X132328984Y-121546751D01*
X132326081Y-121549943D01*
X132317781Y-121554353D01*
X132300806Y-121558338D01*
X132273149Y-121561920D01*
X132232805Y-121565118D01*
X132177770Y-121567953D01*
X132106038Y-121570447D01*
X132015603Y-121572621D01*
X131904462Y-121574495D01*
X131770607Y-121576089D01*
X131612035Y-121577426D01*
X131426741Y-121578525D01*
X131212718Y-121579408D01*
X130967962Y-121580096D01*
X130690467Y-121580609D01*
X130378229Y-121580968D01*
X130029241Y-121581195D01*
X129641500Y-121581309D01*
X129308678Y-121581334D01*
X126322666Y-121581334D01*
X126322666Y-121475500D01*
X132222275Y-121475500D01*
X132299304Y-121306988D01*
X132333807Y-121230575D01*
X132360321Y-121170076D01*
X132374807Y-121134788D01*
X132376333Y-121129716D01*
X132384826Y-121103588D01*
X132407261Y-121051677D01*
X132439071Y-120983269D01*
X132475690Y-120907646D01*
X132512549Y-120834093D01*
X132545084Y-120771895D01*
X132568726Y-120730335D01*
X132578700Y-120718312D01*
X132585286Y-120742280D01*
X132595358Y-120799657D01*
X132607534Y-120881798D01*
X132620200Y-120978165D01*
X132641893Y-121143560D01*
X132664150Y-121296144D01*
X132686127Y-121431530D01*
X132706983Y-121545331D01*
X132725874Y-121633160D01*
X132741959Y-121690631D01*
X132754395Y-121713356D01*
X132760201Y-121707171D01*
X132770125Y-121675179D01*
X132790955Y-121607807D01*
X132821125Y-121510130D01*
X132859068Y-121387222D01*
X132903218Y-121244158D01*
X132952007Y-121086012D01*
X132991825Y-120956917D01*
X133042854Y-120791972D01*
X133090350Y-120639434D01*
X133132782Y-120504142D01*
X133168619Y-120390939D01*
X133196332Y-120304663D01*
X133214388Y-120250157D01*
X133220846Y-120232691D01*
X133227471Y-120247253D01*
D11*
%TO.C,R26*%
X136498000Y-115947564D02*
X136498000Y-115493436D01*
X135028000Y-115947564D02*
X135028000Y-115493436D01*
%TO.C,R24*%
X136498000Y-112344564D02*
X136498000Y-111890436D01*
X135028000Y-112344564D02*
X135028000Y-111890436D01*
%TO.C,C12*%
X136498000Y-108653252D02*
X136498000Y-108130748D01*
X135028000Y-108653252D02*
X135028000Y-108130748D01*
%TO.C,C2*%
X131757748Y-100303000D02*
X132280252Y-100303000D01*
X131757748Y-98833000D02*
X132280252Y-98833000D01*
%TO.C,C10*%
X117247000Y-118136000D02*
X117247000Y-119336000D01*
X117247000Y-122656000D02*
X117247000Y-121456000D01*
X120702563Y-122656000D02*
X117247000Y-122656000D01*
X120702563Y-118136000D02*
X117247000Y-118136000D01*
X121767000Y-119200437D02*
X121767000Y-119336000D01*
X121767000Y-121591563D02*
X121767000Y-121456000D01*
X121767000Y-121591563D02*
X120702563Y-122656000D01*
X121767000Y-119200437D02*
X120702563Y-118136000D01*
X122507000Y-121956000D02*
X122007000Y-121956000D01*
X122257000Y-122206000D02*
X122257000Y-121706000D01*
%TO.C,U3*%
X130175000Y-115971000D02*
X133625000Y-115971000D01*
X130175000Y-115971000D02*
X128225000Y-115971000D01*
X130175000Y-110851000D02*
X132125000Y-110851000D01*
X130175000Y-110851000D02*
X128225000Y-110851000D01*
%TO.C,R27*%
X125576000Y-115773564D02*
X125576000Y-115319436D01*
X124106000Y-115773564D02*
X124106000Y-115319436D01*
%TO.C,R25*%
X125576000Y-112137564D02*
X125576000Y-111683436D01*
X124106000Y-112137564D02*
X124106000Y-111683436D01*
%TO.C,R22*%
X127892436Y-109320000D02*
X128346564Y-109320000D01*
X127892436Y-107850000D02*
X128346564Y-107850000D01*
%TO.C,R21*%
X135482000Y-103835564D02*
X135482000Y-103381436D01*
X134012000Y-103835564D02*
X134012000Y-103381436D01*
%TO.C,R20*%
X131575436Y-109320000D02*
X132029564Y-109320000D01*
X131575436Y-107850000D02*
X132029564Y-107850000D01*
%TO.C,C13*%
X125576000Y-108526252D02*
X125576000Y-108003748D01*
X124106000Y-108526252D02*
X124106000Y-108003748D01*
%TO.C,C8*%
X132053000Y-103827252D02*
X132053000Y-103304748D01*
X130583000Y-103827252D02*
X130583000Y-103304748D01*
%TO.C,C7*%
X116232000Y-103304748D02*
X116232000Y-103827252D01*
X117702000Y-103304748D02*
X117702000Y-103827252D01*
%TO.C,C6*%
X127281000Y-103309748D02*
X127281000Y-103832252D01*
X128751000Y-103309748D02*
X128751000Y-103832252D01*
%TO.C,J7*%
X98227000Y-109685000D02*
X98227000Y-112370000D01*
X100147000Y-109685000D02*
X98227000Y-109685000D01*
X100147000Y-112370000D02*
X100147000Y-109685000D01*
%TO.C,R19*%
X104256064Y-92991000D02*
X103801936Y-92991000D01*
X104256064Y-94461000D02*
X103801936Y-94461000D01*
%TO.C,R18*%
X104256064Y-98960000D02*
X103801936Y-98960000D01*
X104256064Y-100430000D02*
X103801936Y-100430000D01*
%TO.C,R4*%
X104256064Y-96039000D02*
X103801936Y-96039000D01*
X104256064Y-97509000D02*
X103801936Y-97509000D01*
%TO.C,R17*%
X117178064Y-90832000D02*
X116723936Y-90832000D01*
X117178064Y-92302000D02*
X116723936Y-92302000D01*
%TO.C,R16*%
X117194064Y-93880000D02*
X116739936Y-93880000D01*
X117194064Y-95350000D02*
X116739936Y-95350000D01*
%TO.C,R10*%
X117194000Y-108407564D02*
X117194000Y-107953436D01*
X115724000Y-108407564D02*
X115724000Y-107953436D01*
%TO.C,R9*%
X99795000Y-106907064D02*
X99795000Y-106452936D01*
X98325000Y-106907064D02*
X98325000Y-106452936D01*
%TO.C,R8*%
X121004000Y-99541064D02*
X121004000Y-99086936D01*
X119534000Y-99541064D02*
X119534000Y-99086936D01*
%TO.C,R7*%
X117702000Y-99564564D02*
X117702000Y-99110436D01*
X116232000Y-99564564D02*
X116232000Y-99110436D01*
%TO.C,R6*%
X124306000Y-99541064D02*
X124306000Y-99086936D01*
X122836000Y-99541064D02*
X122836000Y-99086936D01*
%TO.C,R5*%
X127608000Y-99564564D02*
X127608000Y-99110436D01*
X126138000Y-99564564D02*
X126138000Y-99110436D01*
%TO.C,R14*%
X134647000Y-40589564D02*
X134647000Y-40135436D01*
X136117000Y-40589564D02*
X136117000Y-40135436D01*
%TO.C,R13*%
X117448000Y-44492936D02*
X117448000Y-44947064D01*
X115978000Y-44492936D02*
X115978000Y-44947064D01*
%TO.C,R12*%
X121385000Y-44492936D02*
X121385000Y-44947064D01*
X119915000Y-44492936D02*
X119915000Y-44947064D01*
%TO.C,R15*%
X123891064Y-74570000D02*
X122436936Y-74570000D01*
X123891064Y-72750000D02*
X122436936Y-72750000D01*
%TO.C,U2*%
X128270000Y-46980000D02*
X130220000Y-46980000D01*
X128270000Y-46980000D02*
X126320000Y-46980000D01*
X128270000Y-38110000D02*
X130220000Y-38110000D01*
X128270000Y-38110000D02*
X124820000Y-38110000D01*
%TO.C,C5*%
X136117000Y-44884748D02*
X136117000Y-45407252D01*
X134647000Y-44884748D02*
X134647000Y-45407252D01*
%TO.C,C4*%
X117448000Y-40063748D02*
X117448000Y-40586252D01*
X115978000Y-40063748D02*
X115978000Y-40586252D01*
%TO.C,C3*%
X121385000Y-40063748D02*
X121385000Y-40586252D01*
X119915000Y-40063748D02*
X119915000Y-40586252D01*
%TO.C,C1*%
X118686252Y-74395000D02*
X118163748Y-74395000D01*
X118686252Y-72925000D02*
X118163748Y-72925000D01*
%TO.C,YMF288*%
X117305000Y-86410000D02*
X117550000Y-86410000D01*
X135425000Y-82550000D02*
X135425000Y-78690000D01*
X117305000Y-78690000D02*
X117550000Y-78690000D01*
X135425000Y-78690000D02*
X135180000Y-78690000D01*
X117305000Y-82550000D02*
X117305000Y-86410000D01*
X135180000Y-78690000D02*
X135180000Y-76875000D01*
X117305000Y-82550000D02*
X117305000Y-78690000D01*
X135425000Y-82550000D02*
X135425000Y-86410000D01*
X135425000Y-86410000D02*
X135180000Y-86410000D01*
%TO.C,BU9480F1*%
X134767000Y-94234000D02*
X134767000Y-92284000D01*
X134767000Y-94234000D02*
X134767000Y-96184000D01*
X129647000Y-94234000D02*
X129647000Y-92284000D01*
X129647000Y-94234000D02*
X129647000Y-97684000D01*
%TO.C,J5*%
X98855000Y-122092000D02*
X98855000Y-115272000D01*
X103075000Y-122092000D02*
X103075000Y-115272000D01*
X98855000Y-122092000D02*
X100165000Y-122092000D01*
X101765000Y-122092000D02*
X103075000Y-122092000D01*
X98855000Y-115272000D02*
X100165000Y-115272000D01*
X101765000Y-115272000D02*
X103075000Y-115272000D01*
X98615000Y-122332000D02*
X98615000Y-120949000D01*
X98615000Y-122332000D02*
X99998000Y-122332000D01*
X100330000Y-120492000D02*
X101600000Y-120492000D01*
X101600000Y-120492000D02*
X101600000Y-116872000D01*
X101600000Y-116872000D02*
X100330000Y-116872000D01*
X100330000Y-116872000D02*
X100330000Y-120492000D01*
X100450000Y-120492000D02*
X100450000Y-119285333D01*
X100570000Y-120492000D02*
X100570000Y-119285333D01*
X100690000Y-120492000D02*
X100690000Y-119285333D01*
X100810000Y-120492000D02*
X100810000Y-119285333D01*
X100930000Y-120492000D02*
X100930000Y-119285333D01*
X101050000Y-120492000D02*
X101050000Y-119285333D01*
X101170000Y-120492000D02*
X101170000Y-119285333D01*
X101290000Y-120492000D02*
X101290000Y-119285333D01*
X101410000Y-120492000D02*
X101410000Y-119285333D01*
X101530000Y-120492000D02*
X101530000Y-119285333D01*
X100330000Y-119285333D02*
X101600000Y-119285333D01*
%TO.C,C11*%
X117225000Y-112421000D02*
X117225000Y-113621000D01*
X117225000Y-116941000D02*
X117225000Y-115741000D01*
X120680563Y-116941000D02*
X117225000Y-116941000D01*
X120680563Y-112421000D02*
X117225000Y-112421000D01*
X121745000Y-113485437D02*
X121745000Y-113621000D01*
X121745000Y-115876563D02*
X121745000Y-115741000D01*
X121745000Y-115876563D02*
X120680563Y-116941000D01*
X121745000Y-113485437D02*
X120680563Y-112421000D01*
X122485000Y-116241000D02*
X121985000Y-116241000D01*
X122235000Y-116491000D02*
X122235000Y-115991000D01*
%TO.C,J6*%
X113590000Y-120590000D02*
X114940000Y-120590000D01*
X113590000Y-122440000D02*
X114940000Y-122440000D01*
X113590000Y-122440000D02*
X113590000Y-123740000D01*
X113590000Y-119090000D02*
X113590000Y-120590000D01*
X113590000Y-113590000D02*
X113590000Y-117190000D01*
X108140000Y-111540000D02*
X113590000Y-111540000D01*
X107390000Y-113390000D02*
X107390000Y-113090000D01*
X107390000Y-120590000D02*
X107390000Y-115340000D01*
X107390000Y-123740000D02*
X107390000Y-122540000D01*
X113090000Y-123740000D02*
X113090000Y-125740000D01*
X113090000Y-125740000D02*
X107890000Y-125740000D01*
X107890000Y-125740000D02*
X107890000Y-123740000D01*
X107890000Y-123740000D02*
X107390000Y-123740000D01*
X113590000Y-123740000D02*
X113090000Y-123740000D01*
%TO.C,J2*%
X100390000Y-64710000D02*
X97730000Y-64710000D01*
X100390000Y-80010000D02*
X100390000Y-64710000D01*
X97730000Y-80010000D02*
X97730000Y-64710000D01*
X100390000Y-80010000D02*
X97730000Y-80010000D01*
X100390000Y-81280000D02*
X100390000Y-82610000D01*
X100390000Y-82610000D02*
X99060000Y-82610000D01*
%TO.C,J1*%
X97730000Y-102930000D02*
X100390000Y-102930000D01*
X97730000Y-87630000D02*
X97730000Y-102930000D01*
X100390000Y-87630000D02*
X100390000Y-102930000D01*
X97730000Y-87630000D02*
X100390000Y-87630000D01*
X97730000Y-86360000D02*
X97730000Y-85030000D01*
X97730000Y-85030000D02*
X99060000Y-85030000D01*
%TO.C,U1*%
X110470000Y-41910000D02*
X110470000Y-39960000D01*
X110470000Y-41910000D02*
X110470000Y-43860000D01*
X100350000Y-41910000D02*
X100350000Y-39960000D01*
X100350000Y-41910000D02*
X100350000Y-45360000D01*
%TO.C,U10*%
X100330000Y-62210000D02*
X102280000Y-62210000D01*
X100330000Y-62210000D02*
X98380000Y-62210000D01*
X100330000Y-52090000D02*
X102280000Y-52090000D01*
X100330000Y-52090000D02*
X96880000Y-52090000D01*
%TO.C,U9*%
X127020000Y-66040000D02*
X127020000Y-67990000D01*
X127020000Y-66040000D02*
X127020000Y-64090000D01*
X137140000Y-66040000D02*
X137140000Y-67990000D01*
X137140000Y-66040000D02*
X137140000Y-62590000D01*
%TO.C,U8*%
X115590000Y-66040000D02*
X115590000Y-67990000D01*
X115590000Y-66040000D02*
X115590000Y-64090000D01*
X125710000Y-66040000D02*
X125710000Y-67990000D01*
X125710000Y-66040000D02*
X125710000Y-62590000D01*
%TO.C,U7*%
X121285000Y-59670000D02*
X123235000Y-59670000D01*
X121285000Y-59670000D02*
X119335000Y-59670000D01*
X121285000Y-49550000D02*
X123235000Y-49550000D01*
X121285000Y-49550000D02*
X117835000Y-49550000D01*
%TO.C,U6*%
X132715000Y-59670000D02*
X134665000Y-59670000D01*
X132715000Y-59670000D02*
X130765000Y-59670000D01*
X132715000Y-49550000D02*
X134665000Y-49550000D01*
X132715000Y-49550000D02*
X129265000Y-49550000D01*
%TO.C,X1*%
D13*
X122253476Y-89947380D02*
X122920142Y-90947380D01*
X122920142Y-89947380D02*
X122253476Y-90947380D01*
X123824904Y-90947380D02*
X123253476Y-90947380D01*
X123539190Y-90947380D02*
X123539190Y-89947380D01*
X123443952Y-90090238D01*
X123348714Y-90185476D01*
X123253476Y-90233095D01*
%TO.C,R23*%
X122500380Y-104251357D02*
X122024190Y-104584690D01*
X122500380Y-104822785D02*
X121500380Y-104822785D01*
X121500380Y-104441833D01*
X121548000Y-104346595D01*
X121595619Y-104298976D01*
X121690857Y-104251357D01*
X121833714Y-104251357D01*
X121928952Y-104298976D01*
X121976571Y-104346595D01*
X122024190Y-104441833D01*
X122024190Y-104822785D01*
X121595619Y-103870404D02*
X121548000Y-103822785D01*
X121500380Y-103727547D01*
X121500380Y-103489452D01*
X121548000Y-103394214D01*
X121595619Y-103346595D01*
X121690857Y-103298976D01*
X121786095Y-103298976D01*
X121928952Y-103346595D01*
X122500380Y-103918023D01*
X122500380Y-103298976D01*
X121500380Y-102965642D02*
X121500380Y-102346595D01*
X121881333Y-102679928D01*
X121881333Y-102537071D01*
X121928952Y-102441833D01*
X121976571Y-102394214D01*
X122071809Y-102346595D01*
X122309904Y-102346595D01*
X122405142Y-102394214D01*
X122452761Y-102441833D01*
X122500380Y-102537071D01*
X122500380Y-102822785D01*
X122452761Y-102918023D01*
X122405142Y-102965642D01*
%TO.C,C9*%
X118946142Y-103737666D02*
X118993761Y-103785285D01*
X119041380Y-103928142D01*
X119041380Y-104023380D01*
X118993761Y-104166238D01*
X118898523Y-104261476D01*
X118803285Y-104309095D01*
X118612809Y-104356714D01*
X118469952Y-104356714D01*
X118279476Y-104309095D01*
X118184238Y-104261476D01*
X118089000Y-104166238D01*
X118041380Y-104023380D01*
X118041380Y-103928142D01*
X118089000Y-103785285D01*
X118136619Y-103737666D01*
X119041380Y-103261476D02*
X119041380Y-103071000D01*
X118993761Y-102975761D01*
X118946142Y-102928142D01*
X118803285Y-102832904D01*
X118612809Y-102785285D01*
X118231857Y-102785285D01*
X118136619Y-102832904D01*
X118089000Y-102880523D01*
X118041380Y-102975761D01*
X118041380Y-103166238D01*
X118089000Y-103261476D01*
X118136619Y-103309095D01*
X118231857Y-103356714D01*
X118469952Y-103356714D01*
X118565190Y-103309095D01*
X118612809Y-103261476D01*
X118660428Y-103166238D01*
X118660428Y-102975761D01*
X118612809Y-102880523D01*
X118565190Y-102832904D01*
X118469952Y-102785285D01*
%TO.C,R26*%
X134565380Y-116363357D02*
X134089190Y-116696690D01*
X134565380Y-116934785D02*
X133565380Y-116934785D01*
X133565380Y-116553833D01*
X133613000Y-116458595D01*
X133660619Y-116410976D01*
X133755857Y-116363357D01*
X133898714Y-116363357D01*
X133993952Y-116410976D01*
X134041571Y-116458595D01*
X134089190Y-116553833D01*
X134089190Y-116934785D01*
X133660619Y-115982404D02*
X133613000Y-115934785D01*
X133565380Y-115839547D01*
X133565380Y-115601452D01*
X133613000Y-115506214D01*
X133660619Y-115458595D01*
X133755857Y-115410976D01*
X133851095Y-115410976D01*
X133993952Y-115458595D01*
X134565380Y-116030023D01*
X134565380Y-115410976D01*
X133565380Y-114553833D02*
X133565380Y-114744309D01*
X133613000Y-114839547D01*
X133660619Y-114887166D01*
X133803476Y-114982404D01*
X133993952Y-115030023D01*
X134374904Y-115030023D01*
X134470142Y-114982404D01*
X134517761Y-114934785D01*
X134565380Y-114839547D01*
X134565380Y-114649071D01*
X134517761Y-114553833D01*
X134470142Y-114506214D01*
X134374904Y-114458595D01*
X134136809Y-114458595D01*
X134041571Y-114506214D01*
X133993952Y-114553833D01*
X133946333Y-114649071D01*
X133946333Y-114839547D01*
X133993952Y-114934785D01*
X134041571Y-114982404D01*
X134136809Y-115030023D01*
%TO.C,R24*%
X134565380Y-112760357D02*
X134089190Y-113093690D01*
X134565380Y-113331785D02*
X133565380Y-113331785D01*
X133565380Y-112950833D01*
X133613000Y-112855595D01*
X133660619Y-112807976D01*
X133755857Y-112760357D01*
X133898714Y-112760357D01*
X133993952Y-112807976D01*
X134041571Y-112855595D01*
X134089190Y-112950833D01*
X134089190Y-113331785D01*
X133660619Y-112379404D02*
X133613000Y-112331785D01*
X133565380Y-112236547D01*
X133565380Y-111998452D01*
X133613000Y-111903214D01*
X133660619Y-111855595D01*
X133755857Y-111807976D01*
X133851095Y-111807976D01*
X133993952Y-111855595D01*
X134565380Y-112427023D01*
X134565380Y-111807976D01*
X133898714Y-110950833D02*
X134565380Y-110950833D01*
X133517761Y-111188928D02*
X134232047Y-111427023D01*
X134232047Y-110807976D01*
%TO.C,C12*%
X134440142Y-109034857D02*
X134487761Y-109082476D01*
X134535380Y-109225333D01*
X134535380Y-109320571D01*
X134487761Y-109463428D01*
X134392523Y-109558666D01*
X134297285Y-109606285D01*
X134106809Y-109653904D01*
X133963952Y-109653904D01*
X133773476Y-109606285D01*
X133678238Y-109558666D01*
X133583000Y-109463428D01*
X133535380Y-109320571D01*
X133535380Y-109225333D01*
X133583000Y-109082476D01*
X133630619Y-109034857D01*
X134535380Y-108082476D02*
X134535380Y-108653904D01*
X134535380Y-108368190D02*
X133535380Y-108368190D01*
X133678238Y-108463428D01*
X133773476Y-108558666D01*
X133821095Y-108653904D01*
X133630619Y-107701523D02*
X133583000Y-107653904D01*
X133535380Y-107558666D01*
X133535380Y-107320571D01*
X133583000Y-107225333D01*
X133630619Y-107177714D01*
X133725857Y-107130095D01*
X133821095Y-107130095D01*
X133963952Y-107177714D01*
X134535380Y-107749142D01*
X134535380Y-107130095D01*
%TO.C,C2*%
X131852333Y-98245142D02*
X131804714Y-98292761D01*
X131661857Y-98340380D01*
X131566619Y-98340380D01*
X131423761Y-98292761D01*
X131328523Y-98197523D01*
X131280904Y-98102285D01*
X131233285Y-97911809D01*
X131233285Y-97768952D01*
X131280904Y-97578476D01*
X131328523Y-97483238D01*
X131423761Y-97388000D01*
X131566619Y-97340380D01*
X131661857Y-97340380D01*
X131804714Y-97388000D01*
X131852333Y-97435619D01*
X132233285Y-97435619D02*
X132280904Y-97388000D01*
X132376142Y-97340380D01*
X132614238Y-97340380D01*
X132709476Y-97388000D01*
X132757095Y-97435619D01*
X132804714Y-97530857D01*
X132804714Y-97626095D01*
X132757095Y-97768952D01*
X132185666Y-98340380D01*
X132804714Y-98340380D01*
%TO.C,C10*%
X122934142Y-118371857D02*
X122981761Y-118419476D01*
X123029380Y-118562333D01*
X123029380Y-118657571D01*
X122981761Y-118800428D01*
X122886523Y-118895666D01*
X122791285Y-118943285D01*
X122600809Y-118990904D01*
X122457952Y-118990904D01*
X122267476Y-118943285D01*
X122172238Y-118895666D01*
X122077000Y-118800428D01*
X122029380Y-118657571D01*
X122029380Y-118562333D01*
X122077000Y-118419476D01*
X122124619Y-118371857D01*
X123029380Y-117419476D02*
X123029380Y-117990904D01*
X123029380Y-117705190D02*
X122029380Y-117705190D01*
X122172238Y-117800428D01*
X122267476Y-117895666D01*
X122315095Y-117990904D01*
X122029380Y-116800428D02*
X122029380Y-116705190D01*
X122077000Y-116609952D01*
X122124619Y-116562333D01*
X122219857Y-116514714D01*
X122410333Y-116467095D01*
X122648428Y-116467095D01*
X122838904Y-116514714D01*
X122934142Y-116562333D01*
X122981761Y-116609952D01*
X123029380Y-116705190D01*
X123029380Y-116800428D01*
X122981761Y-116895666D01*
X122934142Y-116943285D01*
X122838904Y-116990904D01*
X122648428Y-117038523D01*
X122410333Y-117038523D01*
X122219857Y-116990904D01*
X122124619Y-116943285D01*
X122077000Y-116895666D01*
X122029380Y-116800428D01*
%TO.C,U3*%
X129413095Y-116263380D02*
X129413095Y-117072904D01*
X129460714Y-117168142D01*
X129508333Y-117215761D01*
X129603571Y-117263380D01*
X129794047Y-117263380D01*
X129889285Y-117215761D01*
X129936904Y-117168142D01*
X129984523Y-117072904D01*
X129984523Y-116263380D01*
X130365476Y-116263380D02*
X130984523Y-116263380D01*
X130651190Y-116644333D01*
X130794047Y-116644333D01*
X130889285Y-116691952D01*
X130936904Y-116739571D01*
X130984523Y-116834809D01*
X130984523Y-117072904D01*
X130936904Y-117168142D01*
X130889285Y-117215761D01*
X130794047Y-117263380D01*
X130508333Y-117263380D01*
X130413095Y-117215761D01*
X130365476Y-117168142D01*
%TO.C,R27*%
X123643380Y-116189357D02*
X123167190Y-116522690D01*
X123643380Y-116760785D02*
X122643380Y-116760785D01*
X122643380Y-116379833D01*
X122691000Y-116284595D01*
X122738619Y-116236976D01*
X122833857Y-116189357D01*
X122976714Y-116189357D01*
X123071952Y-116236976D01*
X123119571Y-116284595D01*
X123167190Y-116379833D01*
X123167190Y-116760785D01*
X122738619Y-115808404D02*
X122691000Y-115760785D01*
X122643380Y-115665547D01*
X122643380Y-115427452D01*
X122691000Y-115332214D01*
X122738619Y-115284595D01*
X122833857Y-115236976D01*
X122929095Y-115236976D01*
X123071952Y-115284595D01*
X123643380Y-115856023D01*
X123643380Y-115236976D01*
X122643380Y-114903642D02*
X122643380Y-114236976D01*
X123643380Y-114665547D01*
%TO.C,R25*%
X123643380Y-112553357D02*
X123167190Y-112886690D01*
X123643380Y-113124785D02*
X122643380Y-113124785D01*
X122643380Y-112743833D01*
X122691000Y-112648595D01*
X122738619Y-112600976D01*
X122833857Y-112553357D01*
X122976714Y-112553357D01*
X123071952Y-112600976D01*
X123119571Y-112648595D01*
X123167190Y-112743833D01*
X123167190Y-113124785D01*
X122738619Y-112172404D02*
X122691000Y-112124785D01*
X122643380Y-112029547D01*
X122643380Y-111791452D01*
X122691000Y-111696214D01*
X122738619Y-111648595D01*
X122833857Y-111600976D01*
X122929095Y-111600976D01*
X123071952Y-111648595D01*
X123643380Y-112220023D01*
X123643380Y-111600976D01*
X122643380Y-110696214D02*
X122643380Y-111172404D01*
X123119571Y-111220023D01*
X123071952Y-111172404D01*
X123024333Y-111077166D01*
X123024333Y-110839071D01*
X123071952Y-110743833D01*
X123119571Y-110696214D01*
X123214809Y-110648595D01*
X123452904Y-110648595D01*
X123548142Y-110696214D01*
X123595761Y-110743833D01*
X123643380Y-110839071D01*
X123643380Y-111077166D01*
X123595761Y-111172404D01*
X123548142Y-111220023D01*
%TO.C,R22*%
X127476642Y-107387380D02*
X127143309Y-106911190D01*
X126905214Y-107387380D02*
X126905214Y-106387380D01*
X127286166Y-106387380D01*
X127381404Y-106435000D01*
X127429023Y-106482619D01*
X127476642Y-106577857D01*
X127476642Y-106720714D01*
X127429023Y-106815952D01*
X127381404Y-106863571D01*
X127286166Y-106911190D01*
X126905214Y-106911190D01*
X127857595Y-106482619D02*
X127905214Y-106435000D01*
X128000452Y-106387380D01*
X128238547Y-106387380D01*
X128333785Y-106435000D01*
X128381404Y-106482619D01*
X128429023Y-106577857D01*
X128429023Y-106673095D01*
X128381404Y-106815952D01*
X127809976Y-107387380D01*
X128429023Y-107387380D01*
X128809976Y-106482619D02*
X128857595Y-106435000D01*
X128952833Y-106387380D01*
X129190928Y-106387380D01*
X129286166Y-106435000D01*
X129333785Y-106482619D01*
X129381404Y-106577857D01*
X129381404Y-106673095D01*
X129333785Y-106815952D01*
X128762357Y-107387380D01*
X129381404Y-107387380D01*
%TO.C,R21*%
X133549380Y-104251357D02*
X133073190Y-104584690D01*
X133549380Y-104822785D02*
X132549380Y-104822785D01*
X132549380Y-104441833D01*
X132597000Y-104346595D01*
X132644619Y-104298976D01*
X132739857Y-104251357D01*
X132882714Y-104251357D01*
X132977952Y-104298976D01*
X133025571Y-104346595D01*
X133073190Y-104441833D01*
X133073190Y-104822785D01*
X132644619Y-103870404D02*
X132597000Y-103822785D01*
X132549380Y-103727547D01*
X132549380Y-103489452D01*
X132597000Y-103394214D01*
X132644619Y-103346595D01*
X132739857Y-103298976D01*
X132835095Y-103298976D01*
X132977952Y-103346595D01*
X133549380Y-103918023D01*
X133549380Y-103298976D01*
X133549380Y-102346595D02*
X133549380Y-102918023D01*
X133549380Y-102632309D02*
X132549380Y-102632309D01*
X132692238Y-102727547D01*
X132787476Y-102822785D01*
X132835095Y-102918023D01*
%TO.C,R20*%
X131159642Y-107387380D02*
X130826309Y-106911190D01*
X130588214Y-107387380D02*
X130588214Y-106387380D01*
X130969166Y-106387380D01*
X131064404Y-106435000D01*
X131112023Y-106482619D01*
X131159642Y-106577857D01*
X131159642Y-106720714D01*
X131112023Y-106815952D01*
X131064404Y-106863571D01*
X130969166Y-106911190D01*
X130588214Y-106911190D01*
X131540595Y-106482619D02*
X131588214Y-106435000D01*
X131683452Y-106387380D01*
X131921547Y-106387380D01*
X132016785Y-106435000D01*
X132064404Y-106482619D01*
X132112023Y-106577857D01*
X132112023Y-106673095D01*
X132064404Y-106815952D01*
X131492976Y-107387380D01*
X132112023Y-107387380D01*
X132731071Y-106387380D02*
X132826309Y-106387380D01*
X132921547Y-106435000D01*
X132969166Y-106482619D01*
X133016785Y-106577857D01*
X133064404Y-106768333D01*
X133064404Y-107006428D01*
X133016785Y-107196904D01*
X132969166Y-107292142D01*
X132921547Y-107339761D01*
X132826309Y-107387380D01*
X132731071Y-107387380D01*
X132635833Y-107339761D01*
X132588214Y-107292142D01*
X132540595Y-107196904D01*
X132492976Y-107006428D01*
X132492976Y-106768333D01*
X132540595Y-106577857D01*
X132588214Y-106482619D01*
X132635833Y-106435000D01*
X132731071Y-106387380D01*
%TO.C,C13*%
X123518142Y-108907857D02*
X123565761Y-108955476D01*
X123613380Y-109098333D01*
X123613380Y-109193571D01*
X123565761Y-109336428D01*
X123470523Y-109431666D01*
X123375285Y-109479285D01*
X123184809Y-109526904D01*
X123041952Y-109526904D01*
X122851476Y-109479285D01*
X122756238Y-109431666D01*
X122661000Y-109336428D01*
X122613380Y-109193571D01*
X122613380Y-109098333D01*
X122661000Y-108955476D01*
X122708619Y-108907857D01*
X123613380Y-107955476D02*
X123613380Y-108526904D01*
X123613380Y-108241190D02*
X122613380Y-108241190D01*
X122756238Y-108336428D01*
X122851476Y-108431666D01*
X122899095Y-108526904D01*
X122613380Y-107622142D02*
X122613380Y-107003095D01*
X122994333Y-107336428D01*
X122994333Y-107193571D01*
X123041952Y-107098333D01*
X123089571Y-107050714D01*
X123184809Y-107003095D01*
X123422904Y-107003095D01*
X123518142Y-107050714D01*
X123565761Y-107098333D01*
X123613380Y-107193571D01*
X123613380Y-107479285D01*
X123565761Y-107574523D01*
X123518142Y-107622142D01*
%TO.C,C8*%
X129995142Y-103732666D02*
X130042761Y-103780285D01*
X130090380Y-103923142D01*
X130090380Y-104018380D01*
X130042761Y-104161238D01*
X129947523Y-104256476D01*
X129852285Y-104304095D01*
X129661809Y-104351714D01*
X129518952Y-104351714D01*
X129328476Y-104304095D01*
X129233238Y-104256476D01*
X129138000Y-104161238D01*
X129090380Y-104018380D01*
X129090380Y-103923142D01*
X129138000Y-103780285D01*
X129185619Y-103732666D01*
X129518952Y-103161238D02*
X129471333Y-103256476D01*
X129423714Y-103304095D01*
X129328476Y-103351714D01*
X129280857Y-103351714D01*
X129185619Y-103304095D01*
X129138000Y-103256476D01*
X129090380Y-103161238D01*
X129090380Y-102970761D01*
X129138000Y-102875523D01*
X129185619Y-102827904D01*
X129280857Y-102780285D01*
X129328476Y-102780285D01*
X129423714Y-102827904D01*
X129471333Y-102875523D01*
X129518952Y-102970761D01*
X129518952Y-103161238D01*
X129566571Y-103256476D01*
X129614190Y-103304095D01*
X129709428Y-103351714D01*
X129899904Y-103351714D01*
X129995142Y-103304095D01*
X130042761Y-103256476D01*
X130090380Y-103161238D01*
X130090380Y-102970761D01*
X130042761Y-102875523D01*
X129995142Y-102827904D01*
X129899904Y-102780285D01*
X129709428Y-102780285D01*
X129614190Y-102827904D01*
X129566571Y-102875523D01*
X129518952Y-102970761D01*
%TO.C,C7*%
X119004142Y-103732666D02*
X119051761Y-103780285D01*
X119099380Y-103923142D01*
X119099380Y-104018380D01*
X119051761Y-104161238D01*
X118956523Y-104256476D01*
X118861285Y-104304095D01*
X118670809Y-104351714D01*
X118527952Y-104351714D01*
X118337476Y-104304095D01*
X118242238Y-104256476D01*
X118147000Y-104161238D01*
X118099380Y-104018380D01*
X118099380Y-103923142D01*
X118147000Y-103780285D01*
X118194619Y-103732666D01*
X118099380Y-103399333D02*
X118099380Y-102732666D01*
X119099380Y-103161238D01*
%TO.C,C6*%
X130053142Y-103737666D02*
X130100761Y-103785285D01*
X130148380Y-103928142D01*
X130148380Y-104023380D01*
X130100761Y-104166238D01*
X130005523Y-104261476D01*
X129910285Y-104309095D01*
X129719809Y-104356714D01*
X129576952Y-104356714D01*
X129386476Y-104309095D01*
X129291238Y-104261476D01*
X129196000Y-104166238D01*
X129148380Y-104023380D01*
X129148380Y-103928142D01*
X129196000Y-103785285D01*
X129243619Y-103737666D01*
X129148380Y-102880523D02*
X129148380Y-103071000D01*
X129196000Y-103166238D01*
X129243619Y-103213857D01*
X129386476Y-103309095D01*
X129576952Y-103356714D01*
X129957904Y-103356714D01*
X130053142Y-103309095D01*
X130100761Y-103261476D01*
X130148380Y-103166238D01*
X130148380Y-102975761D01*
X130100761Y-102880523D01*
X130053142Y-102832904D01*
X129957904Y-102785285D01*
X129719809Y-102785285D01*
X129624571Y-102832904D01*
X129576952Y-102880523D01*
X129529333Y-102975761D01*
X129529333Y-103166238D01*
X129576952Y-103261476D01*
X129624571Y-103309095D01*
X129719809Y-103356714D01*
%TO.C,J7*%
X100289380Y-111703333D02*
X101003666Y-111703333D01*
X101146523Y-111750952D01*
X101241761Y-111846190D01*
X101289380Y-111989047D01*
X101289380Y-112084285D01*
X100289380Y-111322380D02*
X100289380Y-110655714D01*
X101289380Y-111084285D01*
%TO.C,R19*%
X103386142Y-95828380D02*
X103052809Y-95352190D01*
X102814714Y-95828380D02*
X102814714Y-94828380D01*
X103195666Y-94828380D01*
X103290904Y-94876000D01*
X103338523Y-94923619D01*
X103386142Y-95018857D01*
X103386142Y-95161714D01*
X103338523Y-95256952D01*
X103290904Y-95304571D01*
X103195666Y-95352190D01*
X102814714Y-95352190D01*
X104338523Y-95828380D02*
X103767095Y-95828380D01*
X104052809Y-95828380D02*
X104052809Y-94828380D01*
X103957571Y-94971238D01*
X103862333Y-95066476D01*
X103767095Y-95114095D01*
X104814714Y-95828380D02*
X105005190Y-95828380D01*
X105100428Y-95780761D01*
X105148047Y-95733142D01*
X105243285Y-95590285D01*
X105290904Y-95399809D01*
X105290904Y-95018857D01*
X105243285Y-94923619D01*
X105195666Y-94876000D01*
X105100428Y-94828380D01*
X104909952Y-94828380D01*
X104814714Y-94876000D01*
X104767095Y-94923619D01*
X104719476Y-95018857D01*
X104719476Y-95256952D01*
X104767095Y-95352190D01*
X104814714Y-95399809D01*
X104909952Y-95447428D01*
X105100428Y-95447428D01*
X105195666Y-95399809D01*
X105243285Y-95352190D01*
X105290904Y-95256952D01*
%TO.C,R18*%
X103386142Y-101797380D02*
X103052809Y-101321190D01*
X102814714Y-101797380D02*
X102814714Y-100797380D01*
X103195666Y-100797380D01*
X103290904Y-100845000D01*
X103338523Y-100892619D01*
X103386142Y-100987857D01*
X103386142Y-101130714D01*
X103338523Y-101225952D01*
X103290904Y-101273571D01*
X103195666Y-101321190D01*
X102814714Y-101321190D01*
X104338523Y-101797380D02*
X103767095Y-101797380D01*
X104052809Y-101797380D02*
X104052809Y-100797380D01*
X103957571Y-100940238D01*
X103862333Y-101035476D01*
X103767095Y-101083095D01*
X104909952Y-101225952D02*
X104814714Y-101178333D01*
X104767095Y-101130714D01*
X104719476Y-101035476D01*
X104719476Y-100987857D01*
X104767095Y-100892619D01*
X104814714Y-100845000D01*
X104909952Y-100797380D01*
X105100428Y-100797380D01*
X105195666Y-100845000D01*
X105243285Y-100892619D01*
X105290904Y-100987857D01*
X105290904Y-101035476D01*
X105243285Y-101130714D01*
X105195666Y-101178333D01*
X105100428Y-101225952D01*
X104909952Y-101225952D01*
X104814714Y-101273571D01*
X104767095Y-101321190D01*
X104719476Y-101416428D01*
X104719476Y-101606904D01*
X104767095Y-101702142D01*
X104814714Y-101749761D01*
X104909952Y-101797380D01*
X105100428Y-101797380D01*
X105195666Y-101749761D01*
X105243285Y-101702142D01*
X105290904Y-101606904D01*
X105290904Y-101416428D01*
X105243285Y-101321190D01*
X105195666Y-101273571D01*
X105100428Y-101225952D01*
%TO.C,R4*%
X103862333Y-98876380D02*
X103529000Y-98400190D01*
X103290904Y-98876380D02*
X103290904Y-97876380D01*
X103671857Y-97876380D01*
X103767095Y-97924000D01*
X103814714Y-97971619D01*
X103862333Y-98066857D01*
X103862333Y-98209714D01*
X103814714Y-98304952D01*
X103767095Y-98352571D01*
X103671857Y-98400190D01*
X103290904Y-98400190D01*
X104719476Y-98209714D02*
X104719476Y-98876380D01*
X104481380Y-97828761D02*
X104243285Y-98543047D01*
X104862333Y-98543047D01*
%TO.C,R17*%
X116308142Y-93669380D02*
X115974809Y-93193190D01*
X115736714Y-93669380D02*
X115736714Y-92669380D01*
X116117666Y-92669380D01*
X116212904Y-92717000D01*
X116260523Y-92764619D01*
X116308142Y-92859857D01*
X116308142Y-93002714D01*
X116260523Y-93097952D01*
X116212904Y-93145571D01*
X116117666Y-93193190D01*
X115736714Y-93193190D01*
X117260523Y-93669380D02*
X116689095Y-93669380D01*
X116974809Y-93669380D02*
X116974809Y-92669380D01*
X116879571Y-92812238D01*
X116784333Y-92907476D01*
X116689095Y-92955095D01*
X117593857Y-92669380D02*
X118260523Y-92669380D01*
X117831952Y-93669380D01*
%TO.C,R16*%
X116324142Y-96717380D02*
X115990809Y-96241190D01*
X115752714Y-96717380D02*
X115752714Y-95717380D01*
X116133666Y-95717380D01*
X116228904Y-95765000D01*
X116276523Y-95812619D01*
X116324142Y-95907857D01*
X116324142Y-96050714D01*
X116276523Y-96145952D01*
X116228904Y-96193571D01*
X116133666Y-96241190D01*
X115752714Y-96241190D01*
X117276523Y-96717380D02*
X116705095Y-96717380D01*
X116990809Y-96717380D02*
X116990809Y-95717380D01*
X116895571Y-95860238D01*
X116800333Y-95955476D01*
X116705095Y-96003095D01*
X118133666Y-95717380D02*
X117943190Y-95717380D01*
X117847952Y-95765000D01*
X117800333Y-95812619D01*
X117705095Y-95955476D01*
X117657476Y-96145952D01*
X117657476Y-96526904D01*
X117705095Y-96622142D01*
X117752714Y-96669761D01*
X117847952Y-96717380D01*
X118038428Y-96717380D01*
X118133666Y-96669761D01*
X118181285Y-96622142D01*
X118228904Y-96526904D01*
X118228904Y-96288809D01*
X118181285Y-96193571D01*
X118133666Y-96145952D01*
X118038428Y-96098333D01*
X117847952Y-96098333D01*
X117752714Y-96145952D01*
X117705095Y-96193571D01*
X117657476Y-96288809D01*
%TO.C,R10*%
X115261380Y-108823357D02*
X114785190Y-109156690D01*
X115261380Y-109394785D02*
X114261380Y-109394785D01*
X114261380Y-109013833D01*
X114309000Y-108918595D01*
X114356619Y-108870976D01*
X114451857Y-108823357D01*
X114594714Y-108823357D01*
X114689952Y-108870976D01*
X114737571Y-108918595D01*
X114785190Y-109013833D01*
X114785190Y-109394785D01*
X115261380Y-107870976D02*
X115261380Y-108442404D01*
X115261380Y-108156690D02*
X114261380Y-108156690D01*
X114404238Y-108251928D01*
X114499476Y-108347166D01*
X114547095Y-108442404D01*
X114261380Y-107251928D02*
X114261380Y-107156690D01*
X114309000Y-107061452D01*
X114356619Y-107013833D01*
X114451857Y-106966214D01*
X114642333Y-106918595D01*
X114880428Y-106918595D01*
X115070904Y-106966214D01*
X115166142Y-107013833D01*
X115213761Y-107061452D01*
X115261380Y-107156690D01*
X115261380Y-107251928D01*
X115213761Y-107347166D01*
X115166142Y-107394785D01*
X115070904Y-107442404D01*
X114880428Y-107490023D01*
X114642333Y-107490023D01*
X114451857Y-107442404D01*
X114356619Y-107394785D01*
X114309000Y-107347166D01*
X114261380Y-107251928D01*
%TO.C,R9*%
X97862380Y-106846666D02*
X97386190Y-107180000D01*
X97862380Y-107418095D02*
X96862380Y-107418095D01*
X96862380Y-107037142D01*
X96910000Y-106941904D01*
X96957619Y-106894285D01*
X97052857Y-106846666D01*
X97195714Y-106846666D01*
X97290952Y-106894285D01*
X97338571Y-106941904D01*
X97386190Y-107037142D01*
X97386190Y-107418095D01*
X97862380Y-106370476D02*
X97862380Y-106180000D01*
X97814761Y-106084761D01*
X97767142Y-106037142D01*
X97624285Y-105941904D01*
X97433809Y-105894285D01*
X97052857Y-105894285D01*
X96957619Y-105941904D01*
X96910000Y-105989523D01*
X96862380Y-106084761D01*
X96862380Y-106275238D01*
X96910000Y-106370476D01*
X96957619Y-106418095D01*
X97052857Y-106465714D01*
X97290952Y-106465714D01*
X97386190Y-106418095D01*
X97433809Y-106370476D01*
X97481428Y-106275238D01*
X97481428Y-106084761D01*
X97433809Y-105989523D01*
X97386190Y-105941904D01*
X97290952Y-105894285D01*
%TO.C,R8*%
X119071380Y-99480666D02*
X118595190Y-99814000D01*
X119071380Y-100052095D02*
X118071380Y-100052095D01*
X118071380Y-99671142D01*
X118119000Y-99575904D01*
X118166619Y-99528285D01*
X118261857Y-99480666D01*
X118404714Y-99480666D01*
X118499952Y-99528285D01*
X118547571Y-99575904D01*
X118595190Y-99671142D01*
X118595190Y-100052095D01*
X118499952Y-98909238D02*
X118452333Y-99004476D01*
X118404714Y-99052095D01*
X118309476Y-99099714D01*
X118261857Y-99099714D01*
X118166619Y-99052095D01*
X118119000Y-99004476D01*
X118071380Y-98909238D01*
X118071380Y-98718761D01*
X118119000Y-98623523D01*
X118166619Y-98575904D01*
X118261857Y-98528285D01*
X118309476Y-98528285D01*
X118404714Y-98575904D01*
X118452333Y-98623523D01*
X118499952Y-98718761D01*
X118499952Y-98909238D01*
X118547571Y-99004476D01*
X118595190Y-99052095D01*
X118690428Y-99099714D01*
X118880904Y-99099714D01*
X118976142Y-99052095D01*
X119023761Y-99004476D01*
X119071380Y-98909238D01*
X119071380Y-98718761D01*
X119023761Y-98623523D01*
X118976142Y-98575904D01*
X118880904Y-98528285D01*
X118690428Y-98528285D01*
X118595190Y-98575904D01*
X118547571Y-98623523D01*
X118499952Y-98718761D01*
%TO.C,R7*%
X115769380Y-99504166D02*
X115293190Y-99837500D01*
X115769380Y-100075595D02*
X114769380Y-100075595D01*
X114769380Y-99694642D01*
X114817000Y-99599404D01*
X114864619Y-99551785D01*
X114959857Y-99504166D01*
X115102714Y-99504166D01*
X115197952Y-99551785D01*
X115245571Y-99599404D01*
X115293190Y-99694642D01*
X115293190Y-100075595D01*
X114769380Y-99170833D02*
X114769380Y-98504166D01*
X115769380Y-98932738D01*
%TO.C,R6*%
X122373380Y-99480666D02*
X121897190Y-99814000D01*
X122373380Y-100052095D02*
X121373380Y-100052095D01*
X121373380Y-99671142D01*
X121421000Y-99575904D01*
X121468619Y-99528285D01*
X121563857Y-99480666D01*
X121706714Y-99480666D01*
X121801952Y-99528285D01*
X121849571Y-99575904D01*
X121897190Y-99671142D01*
X121897190Y-100052095D01*
X121373380Y-98623523D02*
X121373380Y-98814000D01*
X121421000Y-98909238D01*
X121468619Y-98956857D01*
X121611476Y-99052095D01*
X121801952Y-99099714D01*
X122182904Y-99099714D01*
X122278142Y-99052095D01*
X122325761Y-99004476D01*
X122373380Y-98909238D01*
X122373380Y-98718761D01*
X122325761Y-98623523D01*
X122278142Y-98575904D01*
X122182904Y-98528285D01*
X121944809Y-98528285D01*
X121849571Y-98575904D01*
X121801952Y-98623523D01*
X121754333Y-98718761D01*
X121754333Y-98909238D01*
X121801952Y-99004476D01*
X121849571Y-99052095D01*
X121944809Y-99099714D01*
%TO.C,R5*%
X125675380Y-99504166D02*
X125199190Y-99837500D01*
X125675380Y-100075595D02*
X124675380Y-100075595D01*
X124675380Y-99694642D01*
X124723000Y-99599404D01*
X124770619Y-99551785D01*
X124865857Y-99504166D01*
X125008714Y-99504166D01*
X125103952Y-99551785D01*
X125151571Y-99599404D01*
X125199190Y-99694642D01*
X125199190Y-100075595D01*
X124675380Y-98599404D02*
X124675380Y-99075595D01*
X125151571Y-99123214D01*
X125103952Y-99075595D01*
X125056333Y-98980357D01*
X125056333Y-98742261D01*
X125103952Y-98647023D01*
X125151571Y-98599404D01*
X125246809Y-98551785D01*
X125484904Y-98551785D01*
X125580142Y-98599404D01*
X125627761Y-98647023D01*
X125675380Y-98742261D01*
X125675380Y-98980357D01*
X125627761Y-99075595D01*
X125580142Y-99123214D01*
%TO.C,R14*%
X137612380Y-41005357D02*
X137136190Y-41338690D01*
X137612380Y-41576785D02*
X136612380Y-41576785D01*
X136612380Y-41195833D01*
X136660000Y-41100595D01*
X136707619Y-41052976D01*
X136802857Y-41005357D01*
X136945714Y-41005357D01*
X137040952Y-41052976D01*
X137088571Y-41100595D01*
X137136190Y-41195833D01*
X137136190Y-41576785D01*
X137612380Y-40052976D02*
X137612380Y-40624404D01*
X137612380Y-40338690D02*
X136612380Y-40338690D01*
X136755238Y-40433928D01*
X136850476Y-40529166D01*
X136898095Y-40624404D01*
X136945714Y-39195833D02*
X137612380Y-39195833D01*
X136564761Y-39433928D02*
X137279047Y-39672023D01*
X137279047Y-39052976D01*
%TO.C,R13*%
X118815380Y-45362857D02*
X118339190Y-45696190D01*
X118815380Y-45934285D02*
X117815380Y-45934285D01*
X117815380Y-45553333D01*
X117863000Y-45458095D01*
X117910619Y-45410476D01*
X118005857Y-45362857D01*
X118148714Y-45362857D01*
X118243952Y-45410476D01*
X118291571Y-45458095D01*
X118339190Y-45553333D01*
X118339190Y-45934285D01*
X118815380Y-44410476D02*
X118815380Y-44981904D01*
X118815380Y-44696190D02*
X117815380Y-44696190D01*
X117958238Y-44791428D01*
X118053476Y-44886666D01*
X118101095Y-44981904D01*
X117815380Y-44077142D02*
X117815380Y-43458095D01*
X118196333Y-43791428D01*
X118196333Y-43648571D01*
X118243952Y-43553333D01*
X118291571Y-43505714D01*
X118386809Y-43458095D01*
X118624904Y-43458095D01*
X118720142Y-43505714D01*
X118767761Y-43553333D01*
X118815380Y-43648571D01*
X118815380Y-43934285D01*
X118767761Y-44029523D01*
X118720142Y-44077142D01*
%TO.C,R12*%
X122752380Y-45362857D02*
X122276190Y-45696190D01*
X122752380Y-45934285D02*
X121752380Y-45934285D01*
X121752380Y-45553333D01*
X121800000Y-45458095D01*
X121847619Y-45410476D01*
X121942857Y-45362857D01*
X122085714Y-45362857D01*
X122180952Y-45410476D01*
X122228571Y-45458095D01*
X122276190Y-45553333D01*
X122276190Y-45934285D01*
X122752380Y-44410476D02*
X122752380Y-44981904D01*
X122752380Y-44696190D02*
X121752380Y-44696190D01*
X121895238Y-44791428D01*
X121990476Y-44886666D01*
X122038095Y-44981904D01*
X121847619Y-44029523D02*
X121800000Y-43981904D01*
X121752380Y-43886666D01*
X121752380Y-43648571D01*
X121800000Y-43553333D01*
X121847619Y-43505714D01*
X121942857Y-43458095D01*
X122038095Y-43458095D01*
X122180952Y-43505714D01*
X122752380Y-44077142D01*
X122752380Y-43458095D01*
%TO.C,R15*%
X122521142Y-75932380D02*
X122187809Y-75456190D01*
X121949714Y-75932380D02*
X121949714Y-74932380D01*
X122330666Y-74932380D01*
X122425904Y-74980000D01*
X122473523Y-75027619D01*
X122521142Y-75122857D01*
X122521142Y-75265714D01*
X122473523Y-75360952D01*
X122425904Y-75408571D01*
X122330666Y-75456190D01*
X121949714Y-75456190D01*
X123473523Y-75932380D02*
X122902095Y-75932380D01*
X123187809Y-75932380D02*
X123187809Y-74932380D01*
X123092571Y-75075238D01*
X122997333Y-75170476D01*
X122902095Y-75218095D01*
X124378285Y-74932380D02*
X123902095Y-74932380D01*
X123854476Y-75408571D01*
X123902095Y-75360952D01*
X123997333Y-75313333D01*
X124235428Y-75313333D01*
X124330666Y-75360952D01*
X124378285Y-75408571D01*
X124425904Y-75503809D01*
X124425904Y-75741904D01*
X124378285Y-75837142D01*
X124330666Y-75884761D01*
X124235428Y-75932380D01*
X123997333Y-75932380D01*
X123902095Y-75884761D01*
X123854476Y-75837142D01*
%TO.C,U2*%
X127508095Y-36717380D02*
X127508095Y-37526904D01*
X127555714Y-37622142D01*
X127603333Y-37669761D01*
X127698571Y-37717380D01*
X127889047Y-37717380D01*
X127984285Y-37669761D01*
X128031904Y-37622142D01*
X128079523Y-37526904D01*
X128079523Y-36717380D01*
X128508095Y-36812619D02*
X128555714Y-36765000D01*
X128650952Y-36717380D01*
X128889047Y-36717380D01*
X128984285Y-36765000D01*
X129031904Y-36812619D01*
X129079523Y-36907857D01*
X129079523Y-37003095D01*
X129031904Y-37145952D01*
X128460476Y-37717380D01*
X129079523Y-37717380D01*
X124508095Y-47277380D02*
X125174761Y-47277380D01*
X124746190Y-48277380D01*
X125984285Y-47610714D02*
X125984285Y-48277380D01*
X125746190Y-47229761D02*
X125508095Y-47944047D01*
X126127142Y-47944047D01*
X126508095Y-48277380D02*
X126508095Y-47277380D01*
X126508095Y-47753571D02*
X127079523Y-47753571D01*
X127079523Y-48277380D02*
X127079523Y-47277380D01*
X128127142Y-48182142D02*
X128079523Y-48229761D01*
X127936666Y-48277380D01*
X127841428Y-48277380D01*
X127698571Y-48229761D01*
X127603333Y-48134523D01*
X127555714Y-48039285D01*
X127508095Y-47848809D01*
X127508095Y-47705952D01*
X127555714Y-47515476D01*
X127603333Y-47420238D01*
X127698571Y-47325000D01*
X127841428Y-47277380D01*
X127936666Y-47277380D01*
X128079523Y-47325000D01*
X128127142Y-47372619D01*
X129079523Y-48277380D02*
X128508095Y-48277380D01*
X128793809Y-48277380D02*
X128793809Y-47277380D01*
X128698571Y-47420238D01*
X128603333Y-47515476D01*
X128508095Y-47563095D01*
X129412857Y-47277380D02*
X130031904Y-47277380D01*
X129698571Y-47658333D01*
X129841428Y-47658333D01*
X129936666Y-47705952D01*
X129984285Y-47753571D01*
X130031904Y-47848809D01*
X130031904Y-48086904D01*
X129984285Y-48182142D01*
X129936666Y-48229761D01*
X129841428Y-48277380D01*
X129555714Y-48277380D01*
X129460476Y-48229761D01*
X129412857Y-48182142D01*
X130412857Y-47372619D02*
X130460476Y-47325000D01*
X130555714Y-47277380D01*
X130793809Y-47277380D01*
X130889047Y-47325000D01*
X130936666Y-47372619D01*
X130984285Y-47467857D01*
X130984285Y-47563095D01*
X130936666Y-47705952D01*
X130365238Y-48277380D01*
X130984285Y-48277380D01*
X131412857Y-48277380D02*
X131412857Y-47277380D01*
X131650952Y-47277380D01*
X131793809Y-47325000D01*
X131889047Y-47420238D01*
X131936666Y-47515476D01*
X131984285Y-47705952D01*
X131984285Y-47848809D01*
X131936666Y-48039285D01*
X131889047Y-48134523D01*
X131793809Y-48229761D01*
X131650952Y-48277380D01*
X131412857Y-48277380D01*
%TO.C,C5*%
X137419142Y-45312666D02*
X137466761Y-45360285D01*
X137514380Y-45503142D01*
X137514380Y-45598380D01*
X137466761Y-45741238D01*
X137371523Y-45836476D01*
X137276285Y-45884095D01*
X137085809Y-45931714D01*
X136942952Y-45931714D01*
X136752476Y-45884095D01*
X136657238Y-45836476D01*
X136562000Y-45741238D01*
X136514380Y-45598380D01*
X136514380Y-45503142D01*
X136562000Y-45360285D01*
X136609619Y-45312666D01*
X136514380Y-44407904D02*
X136514380Y-44884095D01*
X136990571Y-44931714D01*
X136942952Y-44884095D01*
X136895333Y-44788857D01*
X136895333Y-44550761D01*
X136942952Y-44455523D01*
X136990571Y-44407904D01*
X137085809Y-44360285D01*
X137323904Y-44360285D01*
X137419142Y-44407904D01*
X137466761Y-44455523D01*
X137514380Y-44550761D01*
X137514380Y-44788857D01*
X137466761Y-44884095D01*
X137419142Y-44931714D01*
%TO.C,C4*%
X118750142Y-40491666D02*
X118797761Y-40539285D01*
X118845380Y-40682142D01*
X118845380Y-40777380D01*
X118797761Y-40920238D01*
X118702523Y-41015476D01*
X118607285Y-41063095D01*
X118416809Y-41110714D01*
X118273952Y-41110714D01*
X118083476Y-41063095D01*
X117988238Y-41015476D01*
X117893000Y-40920238D01*
X117845380Y-40777380D01*
X117845380Y-40682142D01*
X117893000Y-40539285D01*
X117940619Y-40491666D01*
X118178714Y-39634523D02*
X118845380Y-39634523D01*
X117797761Y-39872619D02*
X118512047Y-40110714D01*
X118512047Y-39491666D01*
%TO.C,C3*%
X122687142Y-40491666D02*
X122734761Y-40539285D01*
X122782380Y-40682142D01*
X122782380Y-40777380D01*
X122734761Y-40920238D01*
X122639523Y-41015476D01*
X122544285Y-41063095D01*
X122353809Y-41110714D01*
X122210952Y-41110714D01*
X122020476Y-41063095D01*
X121925238Y-41015476D01*
X121830000Y-40920238D01*
X121782380Y-40777380D01*
X121782380Y-40682142D01*
X121830000Y-40539285D01*
X121877619Y-40491666D01*
X121782380Y-40158333D02*
X121782380Y-39539285D01*
X122163333Y-39872619D01*
X122163333Y-39729761D01*
X122210952Y-39634523D01*
X122258571Y-39586904D01*
X122353809Y-39539285D01*
X122591904Y-39539285D01*
X122687142Y-39586904D01*
X122734761Y-39634523D01*
X122782380Y-39729761D01*
X122782380Y-40015476D01*
X122734761Y-40110714D01*
X122687142Y-40158333D01*
%TO.C,C1*%
X118258333Y-75697142D02*
X118210714Y-75744761D01*
X118067857Y-75792380D01*
X117972619Y-75792380D01*
X117829761Y-75744761D01*
X117734523Y-75649523D01*
X117686904Y-75554285D01*
X117639285Y-75363809D01*
X117639285Y-75220952D01*
X117686904Y-75030476D01*
X117734523Y-74935238D01*
X117829761Y-74840000D01*
X117972619Y-74792380D01*
X118067857Y-74792380D01*
X118210714Y-74840000D01*
X118258333Y-74887619D01*
X119210714Y-75792380D02*
X118639285Y-75792380D01*
X118925000Y-75792380D02*
X118925000Y-74792380D01*
X118829761Y-74935238D01*
X118734523Y-75030476D01*
X118639285Y-75078095D01*
%TO.C,YMF288*%
X136501190Y-84978571D02*
X136977380Y-84978571D01*
X135977380Y-85311904D02*
X136501190Y-84978571D01*
X135977380Y-84645238D01*
X136977380Y-84311904D02*
X135977380Y-84311904D01*
X136691666Y-83978571D01*
X135977380Y-83645238D01*
X136977380Y-83645238D01*
X136453571Y-82835714D02*
X136453571Y-83169047D01*
X136977380Y-83169047D02*
X135977380Y-83169047D01*
X135977380Y-82692857D01*
X136072619Y-82359523D02*
X136025000Y-82311904D01*
X135977380Y-82216666D01*
X135977380Y-81978571D01*
X136025000Y-81883333D01*
X136072619Y-81835714D01*
X136167857Y-81788095D01*
X136263095Y-81788095D01*
X136405952Y-81835714D01*
X136977380Y-82407142D01*
X136977380Y-81788095D01*
X136405952Y-81216666D02*
X136358333Y-81311904D01*
X136310714Y-81359523D01*
X136215476Y-81407142D01*
X136167857Y-81407142D01*
X136072619Y-81359523D01*
X136025000Y-81311904D01*
X135977380Y-81216666D01*
X135977380Y-81026190D01*
X136025000Y-80930952D01*
X136072619Y-80883333D01*
X136167857Y-80835714D01*
X136215476Y-80835714D01*
X136310714Y-80883333D01*
X136358333Y-80930952D01*
X136405952Y-81026190D01*
X136405952Y-81216666D01*
X136453571Y-81311904D01*
X136501190Y-81359523D01*
X136596428Y-81407142D01*
X136786904Y-81407142D01*
X136882142Y-81359523D01*
X136929761Y-81311904D01*
X136977380Y-81216666D01*
X136977380Y-81026190D01*
X136929761Y-80930952D01*
X136882142Y-80883333D01*
X136786904Y-80835714D01*
X136596428Y-80835714D01*
X136501190Y-80883333D01*
X136453571Y-80930952D01*
X136405952Y-81026190D01*
X136405952Y-80264285D02*
X136358333Y-80359523D01*
X136310714Y-80407142D01*
X136215476Y-80454761D01*
X136167857Y-80454761D01*
X136072619Y-80407142D01*
X136025000Y-80359523D01*
X135977380Y-80264285D01*
X135977380Y-80073809D01*
X136025000Y-79978571D01*
X136072619Y-79930952D01*
X136167857Y-79883333D01*
X136215476Y-79883333D01*
X136310714Y-79930952D01*
X136358333Y-79978571D01*
X136405952Y-80073809D01*
X136405952Y-80264285D01*
X136453571Y-80359523D01*
X136501190Y-80407142D01*
X136596428Y-80454761D01*
X136786904Y-80454761D01*
X136882142Y-80407142D01*
X136929761Y-80359523D01*
X136977380Y-80264285D01*
X136977380Y-80073809D01*
X136929761Y-79978571D01*
X136882142Y-79930952D01*
X136786904Y-79883333D01*
X136596428Y-79883333D01*
X136501190Y-79930952D01*
X136453571Y-79978571D01*
X136405952Y-80073809D01*
%TO.C,BU9480F1*%
X128735571Y-97495904D02*
X128783190Y-97353047D01*
X128830809Y-97305428D01*
X128926047Y-97257809D01*
X129068904Y-97257809D01*
X129164142Y-97305428D01*
X129211761Y-97353047D01*
X129259380Y-97448285D01*
X129259380Y-97829238D01*
X128259380Y-97829238D01*
X128259380Y-97495904D01*
X128307000Y-97400666D01*
X128354619Y-97353047D01*
X128449857Y-97305428D01*
X128545095Y-97305428D01*
X128640333Y-97353047D01*
X128687952Y-97400666D01*
X128735571Y-97495904D01*
X128735571Y-97829238D01*
X128259380Y-96829238D02*
X129068904Y-96829238D01*
X129164142Y-96781619D01*
X129211761Y-96734000D01*
X129259380Y-96638761D01*
X129259380Y-96448285D01*
X129211761Y-96353047D01*
X129164142Y-96305428D01*
X129068904Y-96257809D01*
X128259380Y-96257809D01*
X129259380Y-95734000D02*
X129259380Y-95543523D01*
X129211761Y-95448285D01*
X129164142Y-95400666D01*
X129021285Y-95305428D01*
X128830809Y-95257809D01*
X128449857Y-95257809D01*
X128354619Y-95305428D01*
X128307000Y-95353047D01*
X128259380Y-95448285D01*
X128259380Y-95638761D01*
X128307000Y-95734000D01*
X128354619Y-95781619D01*
X128449857Y-95829238D01*
X128687952Y-95829238D01*
X128783190Y-95781619D01*
X128830809Y-95734000D01*
X128878428Y-95638761D01*
X128878428Y-95448285D01*
X128830809Y-95353047D01*
X128783190Y-95305428D01*
X128687952Y-95257809D01*
X128592714Y-94400666D02*
X129259380Y-94400666D01*
X128211761Y-94638761D02*
X128926047Y-94876857D01*
X128926047Y-94257809D01*
X128687952Y-93734000D02*
X128640333Y-93829238D01*
X128592714Y-93876857D01*
X128497476Y-93924476D01*
X128449857Y-93924476D01*
X128354619Y-93876857D01*
X128307000Y-93829238D01*
X128259380Y-93734000D01*
X128259380Y-93543523D01*
X128307000Y-93448285D01*
X128354619Y-93400666D01*
X128449857Y-93353047D01*
X128497476Y-93353047D01*
X128592714Y-93400666D01*
X128640333Y-93448285D01*
X128687952Y-93543523D01*
X128687952Y-93734000D01*
X128735571Y-93829238D01*
X128783190Y-93876857D01*
X128878428Y-93924476D01*
X129068904Y-93924476D01*
X129164142Y-93876857D01*
X129211761Y-93829238D01*
X129259380Y-93734000D01*
X129259380Y-93543523D01*
X129211761Y-93448285D01*
X129164142Y-93400666D01*
X129068904Y-93353047D01*
X128878428Y-93353047D01*
X128783190Y-93400666D01*
X128735571Y-93448285D01*
X128687952Y-93543523D01*
X128259380Y-92734000D02*
X128259380Y-92638761D01*
X128307000Y-92543523D01*
X128354619Y-92495904D01*
X128449857Y-92448285D01*
X128640333Y-92400666D01*
X128878428Y-92400666D01*
X129068904Y-92448285D01*
X129164142Y-92495904D01*
X129211761Y-92543523D01*
X129259380Y-92638761D01*
X129259380Y-92734000D01*
X129211761Y-92829238D01*
X129164142Y-92876857D01*
X129068904Y-92924476D01*
X128878428Y-92972095D01*
X128640333Y-92972095D01*
X128449857Y-92924476D01*
X128354619Y-92876857D01*
X128307000Y-92829238D01*
X128259380Y-92734000D01*
X128735571Y-91638761D02*
X128735571Y-91972095D01*
X129259380Y-91972095D02*
X128259380Y-91972095D01*
X128259380Y-91495904D01*
X129259380Y-90591142D02*
X129259380Y-91162571D01*
X129259380Y-90876857D02*
X128259380Y-90876857D01*
X128402238Y-90972095D01*
X128497476Y-91067333D01*
X128545095Y-91162571D01*
%TO.C,J5*%
X97307380Y-119015333D02*
X98021666Y-119015333D01*
X98164523Y-119062952D01*
X98259761Y-119158190D01*
X98307380Y-119301047D01*
X98307380Y-119396285D01*
X97307380Y-118062952D02*
X97307380Y-118539142D01*
X97783571Y-118586761D01*
X97735952Y-118539142D01*
X97688333Y-118443904D01*
X97688333Y-118205809D01*
X97735952Y-118110571D01*
X97783571Y-118062952D01*
X97878809Y-118015333D01*
X98116904Y-118015333D01*
X98212142Y-118062952D01*
X98259761Y-118110571D01*
X98307380Y-118205809D01*
X98307380Y-118443904D01*
X98259761Y-118539142D01*
X98212142Y-118586761D01*
%TO.C,C11*%
X122912142Y-112783857D02*
X122959761Y-112831476D01*
X123007380Y-112974333D01*
X123007380Y-113069571D01*
X122959761Y-113212428D01*
X122864523Y-113307666D01*
X122769285Y-113355285D01*
X122578809Y-113402904D01*
X122435952Y-113402904D01*
X122245476Y-113355285D01*
X122150238Y-113307666D01*
X122055000Y-113212428D01*
X122007380Y-113069571D01*
X122007380Y-112974333D01*
X122055000Y-112831476D01*
X122102619Y-112783857D01*
X123007380Y-111831476D02*
X123007380Y-112402904D01*
X123007380Y-112117190D02*
X122007380Y-112117190D01*
X122150238Y-112212428D01*
X122245476Y-112307666D01*
X122293095Y-112402904D01*
X123007380Y-110879095D02*
X123007380Y-111450523D01*
X123007380Y-111164809D02*
X122007380Y-111164809D01*
X122150238Y-111260047D01*
X122245476Y-111355285D01*
X122293095Y-111450523D01*
%TO.C,J6*%
X110156666Y-126452380D02*
X110156666Y-127166666D01*
X110109047Y-127309523D01*
X110013809Y-127404761D01*
X109870952Y-127452380D01*
X109775714Y-127452380D01*
X111061428Y-126452380D02*
X110870952Y-126452380D01*
X110775714Y-126500000D01*
X110728095Y-126547619D01*
X110632857Y-126690476D01*
X110585238Y-126880952D01*
X110585238Y-127261904D01*
X110632857Y-127357142D01*
X110680476Y-127404761D01*
X110775714Y-127452380D01*
X110966190Y-127452380D01*
X111061428Y-127404761D01*
X111109047Y-127357142D01*
X111156666Y-127261904D01*
X111156666Y-127023809D01*
X111109047Y-126928571D01*
X111061428Y-126880952D01*
X110966190Y-126833333D01*
X110775714Y-126833333D01*
X110680476Y-126880952D01*
X110632857Y-126928571D01*
X110585238Y-127023809D01*
%TO.C,J2*%
X98726666Y-83062380D02*
X98726666Y-83776666D01*
X98679047Y-83919523D01*
X98583809Y-84014761D01*
X98440952Y-84062380D01*
X98345714Y-84062380D01*
X99155238Y-83157619D02*
X99202857Y-83110000D01*
X99298095Y-83062380D01*
X99536190Y-83062380D01*
X99631428Y-83110000D01*
X99679047Y-83157619D01*
X99726666Y-83252857D01*
X99726666Y-83348095D01*
X99679047Y-83490952D01*
X99107619Y-84062380D01*
X99726666Y-84062380D01*
X102052380Y-79826666D02*
X101052380Y-79826666D01*
X102052380Y-79255238D01*
X101052380Y-79255238D01*
X101528571Y-78779047D02*
X101528571Y-78445714D01*
X102052380Y-78302857D02*
X102052380Y-78779047D01*
X101052380Y-78779047D01*
X101052380Y-78302857D01*
X102004761Y-77921904D02*
X102052380Y-77779047D01*
X102052380Y-77540952D01*
X102004761Y-77445714D01*
X101957142Y-77398095D01*
X101861904Y-77350476D01*
X101766666Y-77350476D01*
X101671428Y-77398095D01*
X101623809Y-77445714D01*
X101576190Y-77540952D01*
X101528571Y-77731428D01*
X101480952Y-77826666D01*
X101433333Y-77874285D01*
X101338095Y-77921904D01*
X101242857Y-77921904D01*
X101147619Y-77874285D01*
X101100000Y-77826666D01*
X101052380Y-77731428D01*
X101052380Y-77493333D01*
X101100000Y-77350476D01*
X101671428Y-76921904D02*
X101671428Y-76160000D01*
X102004761Y-75731428D02*
X102052380Y-75588571D01*
X102052380Y-75350476D01*
X102004761Y-75255238D01*
X101957142Y-75207619D01*
X101861904Y-75160000D01*
X101766666Y-75160000D01*
X101671428Y-75207619D01*
X101623809Y-75255238D01*
X101576190Y-75350476D01*
X101528571Y-75540952D01*
X101480952Y-75636190D01*
X101433333Y-75683809D01*
X101338095Y-75731428D01*
X101242857Y-75731428D01*
X101147619Y-75683809D01*
X101100000Y-75636190D01*
X101052380Y-75540952D01*
X101052380Y-75302857D01*
X101100000Y-75160000D01*
X102052380Y-74731428D02*
X101052380Y-74731428D01*
X102052380Y-74160000D01*
X101052380Y-74160000D01*
X101528571Y-73683809D02*
X101528571Y-73350476D01*
X102052380Y-73207619D02*
X102052380Y-73683809D01*
X101052380Y-73683809D01*
X101052380Y-73207619D01*
X102004761Y-72826666D02*
X102052380Y-72683809D01*
X102052380Y-72445714D01*
X102004761Y-72350476D01*
X101957142Y-72302857D01*
X101861904Y-72255238D01*
X101766666Y-72255238D01*
X101671428Y-72302857D01*
X101623809Y-72350476D01*
X101576190Y-72445714D01*
X101528571Y-72636190D01*
X101480952Y-72731428D01*
X101433333Y-72779047D01*
X101338095Y-72826666D01*
X101242857Y-72826666D01*
X101147619Y-72779047D01*
X101100000Y-72731428D01*
X101052380Y-72636190D01*
X101052380Y-72398095D01*
X101100000Y-72255238D01*
X102052380Y-71064761D02*
X101052380Y-71064761D01*
X101052380Y-70683809D01*
X101100000Y-70588571D01*
X101147619Y-70540952D01*
X101242857Y-70493333D01*
X101385714Y-70493333D01*
X101480952Y-70540952D01*
X101528571Y-70588571D01*
X101576190Y-70683809D01*
X101576190Y-71064761D01*
X102052380Y-69921904D02*
X102004761Y-70017142D01*
X101957142Y-70064761D01*
X101861904Y-70112380D01*
X101576190Y-70112380D01*
X101480952Y-70064761D01*
X101433333Y-70017142D01*
X101385714Y-69921904D01*
X101385714Y-69779047D01*
X101433333Y-69683809D01*
X101480952Y-69636190D01*
X101576190Y-69588571D01*
X101861904Y-69588571D01*
X101957142Y-69636190D01*
X102004761Y-69683809D01*
X102052380Y-69779047D01*
X102052380Y-69921904D01*
X102052380Y-69160000D02*
X101385714Y-69160000D01*
X101576190Y-69160000D02*
X101480952Y-69112380D01*
X101433333Y-69064761D01*
X101385714Y-68969523D01*
X101385714Y-68874285D01*
X101385714Y-68683809D02*
X101385714Y-68302857D01*
X101052380Y-68540952D02*
X101909523Y-68540952D01*
X102004761Y-68493333D01*
X102052380Y-68398095D01*
X102052380Y-68302857D01*
X101147619Y-68017142D02*
X101100000Y-67969523D01*
X101052380Y-67874285D01*
X101052380Y-67636190D01*
X101100000Y-67540952D01*
X101147619Y-67493333D01*
X101242857Y-67445714D01*
X101338095Y-67445714D01*
X101480952Y-67493333D01*
X102052380Y-68064761D01*
X102052380Y-67445714D01*
%TO.C,J1*%
X98726666Y-83482380D02*
X98726666Y-84196666D01*
X98679047Y-84339523D01*
X98583809Y-84434761D01*
X98440952Y-84482380D01*
X98345714Y-84482380D01*
X99726666Y-84482380D02*
X99155238Y-84482380D01*
X99440952Y-84482380D02*
X99440952Y-83482380D01*
X99345714Y-83625238D01*
X99250476Y-83720476D01*
X99155238Y-83768095D01*
X102052380Y-100146666D02*
X101052380Y-100146666D01*
X102052380Y-99575238D01*
X101052380Y-99575238D01*
X101528571Y-99099047D02*
X101528571Y-98765714D01*
X102052380Y-98622857D02*
X102052380Y-99099047D01*
X101052380Y-99099047D01*
X101052380Y-98622857D01*
X102004761Y-98241904D02*
X102052380Y-98099047D01*
X102052380Y-97860952D01*
X102004761Y-97765714D01*
X101957142Y-97718095D01*
X101861904Y-97670476D01*
X101766666Y-97670476D01*
X101671428Y-97718095D01*
X101623809Y-97765714D01*
X101576190Y-97860952D01*
X101528571Y-98051428D01*
X101480952Y-98146666D01*
X101433333Y-98194285D01*
X101338095Y-98241904D01*
X101242857Y-98241904D01*
X101147619Y-98194285D01*
X101100000Y-98146666D01*
X101052380Y-98051428D01*
X101052380Y-97813333D01*
X101100000Y-97670476D01*
X101671428Y-97241904D02*
X101671428Y-96480000D01*
X102004761Y-96051428D02*
X102052380Y-95908571D01*
X102052380Y-95670476D01*
X102004761Y-95575238D01*
X101957142Y-95527619D01*
X101861904Y-95480000D01*
X101766666Y-95480000D01*
X101671428Y-95527619D01*
X101623809Y-95575238D01*
X101576190Y-95670476D01*
X101528571Y-95860952D01*
X101480952Y-95956190D01*
X101433333Y-96003809D01*
X101338095Y-96051428D01*
X101242857Y-96051428D01*
X101147619Y-96003809D01*
X101100000Y-95956190D01*
X101052380Y-95860952D01*
X101052380Y-95622857D01*
X101100000Y-95480000D01*
X102052380Y-95051428D02*
X101052380Y-95051428D01*
X102052380Y-94480000D01*
X101052380Y-94480000D01*
X101528571Y-94003809D02*
X101528571Y-93670476D01*
X102052380Y-93527619D02*
X102052380Y-94003809D01*
X101052380Y-94003809D01*
X101052380Y-93527619D01*
X102004761Y-93146666D02*
X102052380Y-93003809D01*
X102052380Y-92765714D01*
X102004761Y-92670476D01*
X101957142Y-92622857D01*
X101861904Y-92575238D01*
X101766666Y-92575238D01*
X101671428Y-92622857D01*
X101623809Y-92670476D01*
X101576190Y-92765714D01*
X101528571Y-92956190D01*
X101480952Y-93051428D01*
X101433333Y-93099047D01*
X101338095Y-93146666D01*
X101242857Y-93146666D01*
X101147619Y-93099047D01*
X101100000Y-93051428D01*
X101052380Y-92956190D01*
X101052380Y-92718095D01*
X101100000Y-92575238D01*
X102052380Y-91384761D02*
X101052380Y-91384761D01*
X101052380Y-91003809D01*
X101100000Y-90908571D01*
X101147619Y-90860952D01*
X101242857Y-90813333D01*
X101385714Y-90813333D01*
X101480952Y-90860952D01*
X101528571Y-90908571D01*
X101576190Y-91003809D01*
X101576190Y-91384761D01*
X102052380Y-90241904D02*
X102004761Y-90337142D01*
X101957142Y-90384761D01*
X101861904Y-90432380D01*
X101576190Y-90432380D01*
X101480952Y-90384761D01*
X101433333Y-90337142D01*
X101385714Y-90241904D01*
X101385714Y-90099047D01*
X101433333Y-90003809D01*
X101480952Y-89956190D01*
X101576190Y-89908571D01*
X101861904Y-89908571D01*
X101957142Y-89956190D01*
X102004761Y-90003809D01*
X102052380Y-90099047D01*
X102052380Y-90241904D01*
X102052380Y-89480000D02*
X101385714Y-89480000D01*
X101576190Y-89480000D02*
X101480952Y-89432380D01*
X101433333Y-89384761D01*
X101385714Y-89289523D01*
X101385714Y-89194285D01*
X101385714Y-89003809D02*
X101385714Y-88622857D01*
X101052380Y-88860952D02*
X101909523Y-88860952D01*
X102004761Y-88813333D01*
X102052380Y-88718095D01*
X102052380Y-88622857D01*
X102052380Y-87765714D02*
X102052380Y-88337142D01*
X102052380Y-88051428D02*
X101052380Y-88051428D01*
X101195238Y-88146666D01*
X101290476Y-88241904D01*
X101338095Y-88337142D01*
%TO.C,U1*%
X98962380Y-42671904D02*
X99771904Y-42671904D01*
X99867142Y-42624285D01*
X99914761Y-42576666D01*
X99962380Y-42481428D01*
X99962380Y-42290952D01*
X99914761Y-42195714D01*
X99867142Y-42148095D01*
X99771904Y-42100476D01*
X98962380Y-42100476D01*
X99962380Y-41100476D02*
X99962380Y-41671904D01*
X99962380Y-41386190D02*
X98962380Y-41386190D01*
X99105238Y-41481428D01*
X99200476Y-41576666D01*
X99248095Y-41671904D01*
X110762380Y-45671904D02*
X110762380Y-45005238D01*
X111762380Y-45433809D01*
X111095714Y-44195714D02*
X111762380Y-44195714D01*
X110714761Y-44433809D02*
X111429047Y-44671904D01*
X111429047Y-44052857D01*
X111762380Y-43671904D02*
X110762380Y-43671904D01*
X111238571Y-43671904D02*
X111238571Y-43100476D01*
X111762380Y-43100476D02*
X110762380Y-43100476D01*
X111667142Y-42052857D02*
X111714761Y-42100476D01*
X111762380Y-42243333D01*
X111762380Y-42338571D01*
X111714761Y-42481428D01*
X111619523Y-42576666D01*
X111524285Y-42624285D01*
X111333809Y-42671904D01*
X111190952Y-42671904D01*
X111000476Y-42624285D01*
X110905238Y-42576666D01*
X110810000Y-42481428D01*
X110762380Y-42338571D01*
X110762380Y-42243333D01*
X110810000Y-42100476D01*
X110857619Y-42052857D01*
X111762380Y-41100476D02*
X111762380Y-41671904D01*
X111762380Y-41386190D02*
X110762380Y-41386190D01*
X110905238Y-41481428D01*
X111000476Y-41576666D01*
X111048095Y-41671904D01*
X110762380Y-40767142D02*
X110762380Y-40148095D01*
X111143333Y-40481428D01*
X111143333Y-40338571D01*
X111190952Y-40243333D01*
X111238571Y-40195714D01*
X111333809Y-40148095D01*
X111571904Y-40148095D01*
X111667142Y-40195714D01*
X111714761Y-40243333D01*
X111762380Y-40338571D01*
X111762380Y-40624285D01*
X111714761Y-40719523D01*
X111667142Y-40767142D01*
X111762380Y-39671904D02*
X111762380Y-39481428D01*
X111714761Y-39386190D01*
X111667142Y-39338571D01*
X111524285Y-39243333D01*
X111333809Y-39195714D01*
X110952857Y-39195714D01*
X110857619Y-39243333D01*
X110810000Y-39290952D01*
X110762380Y-39386190D01*
X110762380Y-39576666D01*
X110810000Y-39671904D01*
X110857619Y-39719523D01*
X110952857Y-39767142D01*
X111190952Y-39767142D01*
X111286190Y-39719523D01*
X111333809Y-39671904D01*
X111381428Y-39576666D01*
X111381428Y-39386190D01*
X111333809Y-39290952D01*
X111286190Y-39243333D01*
X111190952Y-39195714D01*
X111762380Y-38767142D02*
X110762380Y-38767142D01*
X110762380Y-38529047D01*
X110810000Y-38386190D01*
X110905238Y-38290952D01*
X111000476Y-38243333D01*
X111190952Y-38195714D01*
X111333809Y-38195714D01*
X111524285Y-38243333D01*
X111619523Y-38290952D01*
X111714761Y-38386190D01*
X111762380Y-38529047D01*
X111762380Y-38767142D01*
%TO.C,U10*%
X99091904Y-50702380D02*
X99091904Y-51511904D01*
X99139523Y-51607142D01*
X99187142Y-51654761D01*
X99282380Y-51702380D01*
X99472857Y-51702380D01*
X99568095Y-51654761D01*
X99615714Y-51607142D01*
X99663333Y-51511904D01*
X99663333Y-50702380D01*
X100663333Y-51702380D02*
X100091904Y-51702380D01*
X100377619Y-51702380D02*
X100377619Y-50702380D01*
X100282380Y-50845238D01*
X100187142Y-50940476D01*
X100091904Y-50988095D01*
X101282380Y-50702380D02*
X101377619Y-50702380D01*
X101472857Y-50750000D01*
X101520476Y-50797619D01*
X101568095Y-50892857D01*
X101615714Y-51083333D01*
X101615714Y-51321428D01*
X101568095Y-51511904D01*
X101520476Y-51607142D01*
X101472857Y-51654761D01*
X101377619Y-51702380D01*
X101282380Y-51702380D01*
X101187142Y-51654761D01*
X101139523Y-51607142D01*
X101091904Y-51511904D01*
X101044285Y-51321428D01*
X101044285Y-51083333D01*
X101091904Y-50892857D01*
X101139523Y-50797619D01*
X101187142Y-50750000D01*
X101282380Y-50702380D01*
X96568095Y-62502380D02*
X97234761Y-62502380D01*
X96806190Y-63502380D01*
X98044285Y-62835714D02*
X98044285Y-63502380D01*
X97806190Y-62454761D02*
X97568095Y-63169047D01*
X98187142Y-63169047D01*
X98568095Y-63502380D02*
X98568095Y-62502380D01*
X98568095Y-62978571D02*
X99139523Y-62978571D01*
X99139523Y-63502380D02*
X99139523Y-62502380D01*
X100187142Y-63407142D02*
X100139523Y-63454761D01*
X99996666Y-63502380D01*
X99901428Y-63502380D01*
X99758571Y-63454761D01*
X99663333Y-63359523D01*
X99615714Y-63264285D01*
X99568095Y-63073809D01*
X99568095Y-62930952D01*
X99615714Y-62740476D01*
X99663333Y-62645238D01*
X99758571Y-62550000D01*
X99901428Y-62502380D01*
X99996666Y-62502380D01*
X100139523Y-62550000D01*
X100187142Y-62597619D01*
X100568095Y-62597619D02*
X100615714Y-62550000D01*
X100710952Y-62502380D01*
X100949047Y-62502380D01*
X101044285Y-62550000D01*
X101091904Y-62597619D01*
X101139523Y-62692857D01*
X101139523Y-62788095D01*
X101091904Y-62930952D01*
X100520476Y-63502380D01*
X101139523Y-63502380D01*
X102044285Y-62502380D02*
X101568095Y-62502380D01*
X101520476Y-62978571D01*
X101568095Y-62930952D01*
X101663333Y-62883333D01*
X101901428Y-62883333D01*
X101996666Y-62930952D01*
X102044285Y-62978571D01*
X102091904Y-63073809D01*
X102091904Y-63311904D01*
X102044285Y-63407142D01*
X101996666Y-63454761D01*
X101901428Y-63502380D01*
X101663333Y-63502380D01*
X101568095Y-63454761D01*
X101520476Y-63407142D01*
X102425238Y-62502380D02*
X103091904Y-62502380D01*
X102663333Y-63502380D01*
X103472857Y-63502380D02*
X103472857Y-62502380D01*
X103710952Y-62502380D01*
X103853809Y-62550000D01*
X103949047Y-62645238D01*
X103996666Y-62740476D01*
X104044285Y-62930952D01*
X104044285Y-63073809D01*
X103996666Y-63264285D01*
X103949047Y-63359523D01*
X103853809Y-63454761D01*
X103710952Y-63502380D01*
X103472857Y-63502380D01*
%TO.C,U9*%
X135977380Y-66801904D02*
X136786904Y-66801904D01*
X136882142Y-66754285D01*
X136929761Y-66706666D01*
X136977380Y-66611428D01*
X136977380Y-66420952D01*
X136929761Y-66325714D01*
X136882142Y-66278095D01*
X136786904Y-66230476D01*
X135977380Y-66230476D01*
X136977380Y-65706666D02*
X136977380Y-65516190D01*
X136929761Y-65420952D01*
X136882142Y-65373333D01*
X136739285Y-65278095D01*
X136548809Y-65230476D01*
X136167857Y-65230476D01*
X136072619Y-65278095D01*
X136025000Y-65325714D01*
X135977380Y-65420952D01*
X135977380Y-65611428D01*
X136025000Y-65706666D01*
X136072619Y-65754285D01*
X136167857Y-65801904D01*
X136405952Y-65801904D01*
X136501190Y-65754285D01*
X136548809Y-65706666D01*
X136596428Y-65611428D01*
X136596428Y-65420952D01*
X136548809Y-65325714D01*
X136501190Y-65278095D01*
X136405952Y-65230476D01*
X125632380Y-69801904D02*
X125632380Y-69135238D01*
X126632380Y-69563809D01*
X125965714Y-68325714D02*
X126632380Y-68325714D01*
X125584761Y-68563809D02*
X126299047Y-68801904D01*
X126299047Y-68182857D01*
X126632380Y-67801904D02*
X125632380Y-67801904D01*
X126108571Y-67801904D02*
X126108571Y-67230476D01*
X126632380Y-67230476D02*
X125632380Y-67230476D01*
X126537142Y-66182857D02*
X126584761Y-66230476D01*
X126632380Y-66373333D01*
X126632380Y-66468571D01*
X126584761Y-66611428D01*
X126489523Y-66706666D01*
X126394285Y-66754285D01*
X126203809Y-66801904D01*
X126060952Y-66801904D01*
X125870476Y-66754285D01*
X125775238Y-66706666D01*
X125680000Y-66611428D01*
X125632380Y-66468571D01*
X125632380Y-66373333D01*
X125680000Y-66230476D01*
X125727619Y-66182857D01*
X125727619Y-65801904D02*
X125680000Y-65754285D01*
X125632380Y-65659047D01*
X125632380Y-65420952D01*
X125680000Y-65325714D01*
X125727619Y-65278095D01*
X125822857Y-65230476D01*
X125918095Y-65230476D01*
X126060952Y-65278095D01*
X126632380Y-65849523D01*
X126632380Y-65230476D01*
X125632380Y-64325714D02*
X125632380Y-64801904D01*
X126108571Y-64849523D01*
X126060952Y-64801904D01*
X126013333Y-64706666D01*
X126013333Y-64468571D01*
X126060952Y-64373333D01*
X126108571Y-64325714D01*
X126203809Y-64278095D01*
X126441904Y-64278095D01*
X126537142Y-64325714D01*
X126584761Y-64373333D01*
X126632380Y-64468571D01*
X126632380Y-64706666D01*
X126584761Y-64801904D01*
X126537142Y-64849523D01*
X125632380Y-63944761D02*
X125632380Y-63278095D01*
X126632380Y-63706666D01*
X126632380Y-62897142D02*
X125632380Y-62897142D01*
X125632380Y-62659047D01*
X125680000Y-62516190D01*
X125775238Y-62420952D01*
X125870476Y-62373333D01*
X126060952Y-62325714D01*
X126203809Y-62325714D01*
X126394285Y-62373333D01*
X126489523Y-62420952D01*
X126584761Y-62516190D01*
X126632380Y-62659047D01*
X126632380Y-62897142D01*
%TO.C,U8*%
X124547380Y-66801904D02*
X125356904Y-66801904D01*
X125452142Y-66754285D01*
X125499761Y-66706666D01*
X125547380Y-66611428D01*
X125547380Y-66420952D01*
X125499761Y-66325714D01*
X125452142Y-66278095D01*
X125356904Y-66230476D01*
X124547380Y-66230476D01*
X124975952Y-65611428D02*
X124928333Y-65706666D01*
X124880714Y-65754285D01*
X124785476Y-65801904D01*
X124737857Y-65801904D01*
X124642619Y-65754285D01*
X124595000Y-65706666D01*
X124547380Y-65611428D01*
X124547380Y-65420952D01*
X124595000Y-65325714D01*
X124642619Y-65278095D01*
X124737857Y-65230476D01*
X124785476Y-65230476D01*
X124880714Y-65278095D01*
X124928333Y-65325714D01*
X124975952Y-65420952D01*
X124975952Y-65611428D01*
X125023571Y-65706666D01*
X125071190Y-65754285D01*
X125166428Y-65801904D01*
X125356904Y-65801904D01*
X125452142Y-65754285D01*
X125499761Y-65706666D01*
X125547380Y-65611428D01*
X125547380Y-65420952D01*
X125499761Y-65325714D01*
X125452142Y-65278095D01*
X125356904Y-65230476D01*
X125166428Y-65230476D01*
X125071190Y-65278095D01*
X125023571Y-65325714D01*
X124975952Y-65420952D01*
X114202380Y-69801904D02*
X114202380Y-69135238D01*
X115202380Y-69563809D01*
X114535714Y-68325714D02*
X115202380Y-68325714D01*
X114154761Y-68563809D02*
X114869047Y-68801904D01*
X114869047Y-68182857D01*
X115202380Y-67801904D02*
X114202380Y-67801904D01*
X114678571Y-67801904D02*
X114678571Y-67230476D01*
X115202380Y-67230476D02*
X114202380Y-67230476D01*
X115107142Y-66182857D02*
X115154761Y-66230476D01*
X115202380Y-66373333D01*
X115202380Y-66468571D01*
X115154761Y-66611428D01*
X115059523Y-66706666D01*
X114964285Y-66754285D01*
X114773809Y-66801904D01*
X114630952Y-66801904D01*
X114440476Y-66754285D01*
X114345238Y-66706666D01*
X114250000Y-66611428D01*
X114202380Y-66468571D01*
X114202380Y-66373333D01*
X114250000Y-66230476D01*
X114297619Y-66182857D01*
X114297619Y-65801904D02*
X114250000Y-65754285D01*
X114202380Y-65659047D01*
X114202380Y-65420952D01*
X114250000Y-65325714D01*
X114297619Y-65278095D01*
X114392857Y-65230476D01*
X114488095Y-65230476D01*
X114630952Y-65278095D01*
X115202380Y-65849523D01*
X115202380Y-65230476D01*
X114202380Y-64325714D02*
X114202380Y-64801904D01*
X114678571Y-64849523D01*
X114630952Y-64801904D01*
X114583333Y-64706666D01*
X114583333Y-64468571D01*
X114630952Y-64373333D01*
X114678571Y-64325714D01*
X114773809Y-64278095D01*
X115011904Y-64278095D01*
X115107142Y-64325714D01*
X115154761Y-64373333D01*
X115202380Y-64468571D01*
X115202380Y-64706666D01*
X115154761Y-64801904D01*
X115107142Y-64849523D01*
X114202380Y-63944761D02*
X114202380Y-63278095D01*
X115202380Y-63706666D01*
X115202380Y-62897142D02*
X114202380Y-62897142D01*
X114202380Y-62659047D01*
X114250000Y-62516190D01*
X114345238Y-62420952D01*
X114440476Y-62373333D01*
X114630952Y-62325714D01*
X114773809Y-62325714D01*
X114964285Y-62373333D01*
X115059523Y-62420952D01*
X115154761Y-62516190D01*
X115202380Y-62659047D01*
X115202380Y-62897142D01*
%TO.C,U7*%
X120523095Y-48162380D02*
X120523095Y-48971904D01*
X120570714Y-49067142D01*
X120618333Y-49114761D01*
X120713571Y-49162380D01*
X120904047Y-49162380D01*
X120999285Y-49114761D01*
X121046904Y-49067142D01*
X121094523Y-48971904D01*
X121094523Y-48162380D01*
X121475476Y-48162380D02*
X122142142Y-48162380D01*
X121713571Y-49162380D01*
X117523095Y-59962380D02*
X118189761Y-59962380D01*
X117761190Y-60962380D01*
X118999285Y-60295714D02*
X118999285Y-60962380D01*
X118761190Y-59914761D02*
X118523095Y-60629047D01*
X119142142Y-60629047D01*
X119523095Y-60962380D02*
X119523095Y-59962380D01*
X119523095Y-60438571D02*
X120094523Y-60438571D01*
X120094523Y-60962380D02*
X120094523Y-59962380D01*
X121142142Y-60867142D02*
X121094523Y-60914761D01*
X120951666Y-60962380D01*
X120856428Y-60962380D01*
X120713571Y-60914761D01*
X120618333Y-60819523D01*
X120570714Y-60724285D01*
X120523095Y-60533809D01*
X120523095Y-60390952D01*
X120570714Y-60200476D01*
X120618333Y-60105238D01*
X120713571Y-60010000D01*
X120856428Y-59962380D01*
X120951666Y-59962380D01*
X121094523Y-60010000D01*
X121142142Y-60057619D01*
X122094523Y-60962380D02*
X121523095Y-60962380D01*
X121808809Y-60962380D02*
X121808809Y-59962380D01*
X121713571Y-60105238D01*
X121618333Y-60200476D01*
X121523095Y-60248095D01*
X122427857Y-59962380D02*
X123094523Y-59962380D01*
X122665952Y-60962380D01*
X123904047Y-60295714D02*
X123904047Y-60962380D01*
X123665952Y-59914761D02*
X123427857Y-60629047D01*
X124046904Y-60629047D01*
X124427857Y-60962380D02*
X124427857Y-59962380D01*
X124665952Y-59962380D01*
X124808809Y-60010000D01*
X124904047Y-60105238D01*
X124951666Y-60200476D01*
X124999285Y-60390952D01*
X124999285Y-60533809D01*
X124951666Y-60724285D01*
X124904047Y-60819523D01*
X124808809Y-60914761D01*
X124665952Y-60962380D01*
X124427857Y-60962380D01*
%TO.C,U6*%
X131953095Y-48162380D02*
X131953095Y-48971904D01*
X132000714Y-49067142D01*
X132048333Y-49114761D01*
X132143571Y-49162380D01*
X132334047Y-49162380D01*
X132429285Y-49114761D01*
X132476904Y-49067142D01*
X132524523Y-48971904D01*
X132524523Y-48162380D01*
X133429285Y-48162380D02*
X133238809Y-48162380D01*
X133143571Y-48210000D01*
X133095952Y-48257619D01*
X133000714Y-48400476D01*
X132953095Y-48590952D01*
X132953095Y-48971904D01*
X133000714Y-49067142D01*
X133048333Y-49114761D01*
X133143571Y-49162380D01*
X133334047Y-49162380D01*
X133429285Y-49114761D01*
X133476904Y-49067142D01*
X133524523Y-48971904D01*
X133524523Y-48733809D01*
X133476904Y-48638571D01*
X133429285Y-48590952D01*
X133334047Y-48543333D01*
X133143571Y-48543333D01*
X133048333Y-48590952D01*
X133000714Y-48638571D01*
X132953095Y-48733809D01*
X128953095Y-59962380D02*
X129619761Y-59962380D01*
X129191190Y-60962380D01*
X130429285Y-60295714D02*
X130429285Y-60962380D01*
X130191190Y-59914761D02*
X129953095Y-60629047D01*
X130572142Y-60629047D01*
X130953095Y-60962380D02*
X130953095Y-59962380D01*
X130953095Y-60438571D02*
X131524523Y-60438571D01*
X131524523Y-60962380D02*
X131524523Y-59962380D01*
X132572142Y-60867142D02*
X132524523Y-60914761D01*
X132381666Y-60962380D01*
X132286428Y-60962380D01*
X132143571Y-60914761D01*
X132048333Y-60819523D01*
X132000714Y-60724285D01*
X131953095Y-60533809D01*
X131953095Y-60390952D01*
X132000714Y-60200476D01*
X132048333Y-60105238D01*
X132143571Y-60010000D01*
X132286428Y-59962380D01*
X132381666Y-59962380D01*
X132524523Y-60010000D01*
X132572142Y-60057619D01*
X133524523Y-60962380D02*
X132953095Y-60962380D01*
X133238809Y-60962380D02*
X133238809Y-59962380D01*
X133143571Y-60105238D01*
X133048333Y-60200476D01*
X132953095Y-60248095D01*
X133857857Y-59962380D02*
X134524523Y-59962380D01*
X134095952Y-60962380D01*
X135334047Y-60295714D02*
X135334047Y-60962380D01*
X135095952Y-59914761D02*
X134857857Y-60629047D01*
X135476904Y-60629047D01*
X135857857Y-60962380D02*
X135857857Y-59962380D01*
X136095952Y-59962380D01*
X136238809Y-60010000D01*
X136334047Y-60105238D01*
X136381666Y-60200476D01*
X136429285Y-60390952D01*
X136429285Y-60533809D01*
X136381666Y-60724285D01*
X136334047Y-60819523D01*
X136238809Y-60914761D01*
X136095952Y-60962380D01*
X135857857Y-60962380D01*
%TD*%
M02*
