%TF.GenerationSoftware,KiCad,Pcbnew,(5.1.10)-1*%
%TF.CreationDate,2021-05-27T19:28:44+02:00*%
%TF.ProjectId,Nes Sound Expansion,4e657320-536f-4756-9e64-20457870616e,rev?*%
%TF.SameCoordinates,Original*%
%TF.FileFunction,Legend,Bot*%
%TF.FilePolarity,Positive*%
%FSLAX46Y46*%
G04 Gerber Fmt 4.6, Leading zero omitted, Abs format (unit mm)*
G04 Created by KiCad (PCBNEW (5.1.10)-1) date 2021-05-27 19:28:44*
%MOMM*%
%LPD*%
G01*
G04 APERTURE LIST*
%ADD10C,0.100000*%
%ADD11C,0.300000*%
%ADD12C,0.120000*%
%ADD13C,0.150000*%
G04 APERTURE END LIST*
D10*
X120900714Y-115879714D02*
X121160714Y-115879714D01*
X121272142Y-115471142D02*
X120900714Y-115471142D01*
X120900714Y-116251142D01*
X121272142Y-116251142D01*
X121532142Y-116251142D02*
X122052142Y-115471142D01*
X122052142Y-116251142D02*
X121532142Y-115471142D01*
X122349285Y-115471142D02*
X122349285Y-116251142D01*
X122646428Y-116251142D01*
X122720714Y-116214000D01*
X122757857Y-116176857D01*
X122795000Y-116102571D01*
X122795000Y-115991142D01*
X122757857Y-115916857D01*
X122720714Y-115879714D01*
X122646428Y-115842571D01*
X122349285Y-115842571D01*
X123240714Y-115916857D02*
X123166428Y-115954000D01*
X123129285Y-115991142D01*
X123092142Y-116065428D01*
X123092142Y-116102571D01*
X123129285Y-116176857D01*
X123166428Y-116214000D01*
X123240714Y-116251142D01*
X123389285Y-116251142D01*
X123463571Y-116214000D01*
X123500714Y-116176857D01*
X123537857Y-116102571D01*
X123537857Y-116065428D01*
X123500714Y-115991142D01*
X123463571Y-115954000D01*
X123389285Y-115916857D01*
X123240714Y-115916857D01*
X123166428Y-115879714D01*
X123129285Y-115842571D01*
X123092142Y-115768285D01*
X123092142Y-115619714D01*
X123129285Y-115545428D01*
X123166428Y-115508285D01*
X123240714Y-115471142D01*
X123389285Y-115471142D01*
X123463571Y-115508285D01*
X123500714Y-115545428D01*
X123537857Y-115619714D01*
X123537857Y-115768285D01*
X123500714Y-115842571D01*
X123463571Y-115879714D01*
X123389285Y-115916857D01*
X124912142Y-115545428D02*
X124875000Y-115508285D01*
X124763571Y-115471142D01*
X124689285Y-115471142D01*
X124577857Y-115508285D01*
X124503571Y-115582571D01*
X124466428Y-115656857D01*
X124429285Y-115805428D01*
X124429285Y-115916857D01*
X124466428Y-116065428D01*
X124503571Y-116139714D01*
X124577857Y-116214000D01*
X124689285Y-116251142D01*
X124763571Y-116251142D01*
X124875000Y-116214000D01*
X124912142Y-116176857D01*
X125246428Y-115879714D02*
X125506428Y-115879714D01*
X125617857Y-115471142D02*
X125246428Y-115471142D01*
X125246428Y-116251142D01*
X125617857Y-116251142D01*
X126360714Y-115471142D02*
X125915000Y-115471142D01*
X126137857Y-115471142D02*
X126137857Y-116251142D01*
X126063571Y-116139714D01*
X125989285Y-116065428D01*
X125915000Y-116028285D01*
X127512142Y-115174000D02*
X127475000Y-115211142D01*
X127400714Y-115322571D01*
X127363571Y-115396857D01*
X127326428Y-115508285D01*
X127289285Y-115694000D01*
X127289285Y-115842571D01*
X127326428Y-116028285D01*
X127363571Y-116139714D01*
X127400714Y-116214000D01*
X127475000Y-116325428D01*
X127512142Y-116362571D01*
X127809285Y-115471142D02*
X127809285Y-116251142D01*
X127809285Y-115879714D02*
X128255000Y-115879714D01*
X128255000Y-115471142D02*
X128255000Y-116251142D01*
X128626428Y-115471142D02*
X128626428Y-116251142D01*
X129332142Y-115991142D02*
X129332142Y-115359714D01*
X129295000Y-115285428D01*
X129257857Y-115248285D01*
X129183571Y-115211142D01*
X129072142Y-115211142D01*
X128997857Y-115248285D01*
X129332142Y-115508285D02*
X129257857Y-115471142D01*
X129109285Y-115471142D01*
X129035000Y-115508285D01*
X128997857Y-115545428D01*
X128960714Y-115619714D01*
X128960714Y-115842571D01*
X128997857Y-115916857D01*
X129035000Y-115954000D01*
X129109285Y-115991142D01*
X129257857Y-115991142D01*
X129332142Y-115954000D01*
X129703571Y-115471142D02*
X129703571Y-116251142D01*
X130037857Y-115471142D02*
X130037857Y-115879714D01*
X130000714Y-115954000D01*
X129926428Y-115991142D01*
X129815000Y-115991142D01*
X129740714Y-115954000D01*
X129703571Y-115916857D01*
X130335000Y-115174000D02*
X130372142Y-115211142D01*
X130446428Y-115322571D01*
X130483571Y-115396857D01*
X130520714Y-115508285D01*
X130557857Y-115694000D01*
X130557857Y-115842571D01*
X130520714Y-116028285D01*
X130483571Y-116139714D01*
X130446428Y-116214000D01*
X130372142Y-116325428D01*
X130335000Y-116362571D01*
X120900714Y-114609714D02*
X121160714Y-114609714D01*
X121272142Y-114201142D02*
X120900714Y-114201142D01*
X120900714Y-114981142D01*
X121272142Y-114981142D01*
X121532142Y-114981142D02*
X122052142Y-114201142D01*
X122052142Y-114981142D02*
X121532142Y-114201142D01*
X122349285Y-114201142D02*
X122349285Y-114981142D01*
X122646428Y-114981142D01*
X122720714Y-114944000D01*
X122757857Y-114906857D01*
X122795000Y-114832571D01*
X122795000Y-114721142D01*
X122757857Y-114646857D01*
X122720714Y-114609714D01*
X122646428Y-114572571D01*
X122349285Y-114572571D01*
X123055000Y-114981142D02*
X123537857Y-114981142D01*
X123277857Y-114684000D01*
X123389285Y-114684000D01*
X123463571Y-114646857D01*
X123500714Y-114609714D01*
X123537857Y-114535428D01*
X123537857Y-114349714D01*
X123500714Y-114275428D01*
X123463571Y-114238285D01*
X123389285Y-114201142D01*
X123166428Y-114201142D01*
X123092142Y-114238285D01*
X123055000Y-114275428D01*
X124912142Y-114275428D02*
X124875000Y-114238285D01*
X124763571Y-114201142D01*
X124689285Y-114201142D01*
X124577857Y-114238285D01*
X124503571Y-114312571D01*
X124466428Y-114386857D01*
X124429285Y-114535428D01*
X124429285Y-114646857D01*
X124466428Y-114795428D01*
X124503571Y-114869714D01*
X124577857Y-114944000D01*
X124689285Y-114981142D01*
X124763571Y-114981142D01*
X124875000Y-114944000D01*
X124912142Y-114906857D01*
X125246428Y-114609714D02*
X125506428Y-114609714D01*
X125617857Y-114201142D02*
X125246428Y-114201142D01*
X125246428Y-114981142D01*
X125617857Y-114981142D01*
X125914999Y-114906857D02*
X125952142Y-114944000D01*
X126026428Y-114981142D01*
X126212142Y-114981142D01*
X126286428Y-114944000D01*
X126323571Y-114906857D01*
X126360714Y-114832571D01*
X126360714Y-114758285D01*
X126323571Y-114646857D01*
X125877857Y-114201142D01*
X126360714Y-114201142D01*
X127512142Y-113904000D02*
X127474999Y-113941142D01*
X127400714Y-114052571D01*
X127363571Y-114126857D01*
X127326428Y-114238285D01*
X127289285Y-114424000D01*
X127289285Y-114572571D01*
X127326428Y-114758285D01*
X127363571Y-114869714D01*
X127400714Y-114944000D01*
X127474999Y-115055428D01*
X127512142Y-115092571D01*
X128180714Y-114201142D02*
X127809285Y-114201142D01*
X127809285Y-114981142D01*
X128552142Y-114201142D02*
X128477857Y-114238285D01*
X128440714Y-114275428D01*
X128403571Y-114349714D01*
X128403571Y-114572571D01*
X128440714Y-114646857D01*
X128477857Y-114684000D01*
X128552142Y-114721142D01*
X128663571Y-114721142D01*
X128737857Y-114684000D01*
X128774999Y-114646857D01*
X128812142Y-114572571D01*
X128812142Y-114349714D01*
X128774999Y-114275428D01*
X128737857Y-114238285D01*
X128663571Y-114201142D01*
X128552142Y-114201142D01*
X129072142Y-114721142D02*
X129220714Y-114201142D01*
X129369285Y-114572571D01*
X129517857Y-114201142D01*
X129666428Y-114721142D01*
X129889285Y-113904000D02*
X129926428Y-113941142D01*
X130000714Y-114052571D01*
X130037857Y-114126857D01*
X130074999Y-114238285D01*
X130112142Y-114424000D01*
X130112142Y-114572571D01*
X130074999Y-114758285D01*
X130037857Y-114869714D01*
X130000714Y-114944000D01*
X129926428Y-115055428D01*
X129889285Y-115092571D01*
X120900714Y-113339714D02*
X121160714Y-113339714D01*
X121272142Y-112931142D02*
X120900714Y-112931142D01*
X120900714Y-113711142D01*
X121272142Y-113711142D01*
X121532142Y-113711142D02*
X122052142Y-112931142D01*
X122052142Y-113711142D02*
X121532142Y-112931142D01*
X122349285Y-112931142D02*
X122349285Y-113711142D01*
X122646428Y-113711142D01*
X122720714Y-113674000D01*
X122757857Y-113636857D01*
X122795000Y-113562571D01*
X122795000Y-113451142D01*
X122757857Y-113376857D01*
X122720714Y-113339714D01*
X122646428Y-113302571D01*
X122349285Y-113302571D01*
X123537857Y-112931142D02*
X123092142Y-112931142D01*
X123315000Y-112931142D02*
X123315000Y-113711142D01*
X123240714Y-113599714D01*
X123166428Y-113525428D01*
X123092142Y-113488285D01*
X124912142Y-113005428D02*
X124875000Y-112968285D01*
X124763571Y-112931142D01*
X124689285Y-112931142D01*
X124577857Y-112968285D01*
X124503571Y-113042571D01*
X124466428Y-113116857D01*
X124429285Y-113265428D01*
X124429285Y-113376857D01*
X124466428Y-113525428D01*
X124503571Y-113599714D01*
X124577857Y-113674000D01*
X124689285Y-113711142D01*
X124763571Y-113711142D01*
X124875000Y-113674000D01*
X124912142Y-113636857D01*
X125246428Y-113339714D02*
X125506428Y-113339714D01*
X125617857Y-112931142D02*
X125246428Y-112931142D01*
X125246428Y-113711142D01*
X125617857Y-113711142D01*
X125877857Y-113711142D02*
X126360714Y-113711142D01*
X126100714Y-113414000D01*
X126212142Y-113414000D01*
X126286428Y-113376857D01*
X126323571Y-113339714D01*
X126360714Y-113265428D01*
X126360714Y-113079714D01*
X126323571Y-113005428D01*
X126286428Y-112968285D01*
X126212142Y-112931142D01*
X125989285Y-112931142D01*
X125914999Y-112968285D01*
X125877857Y-113005428D01*
X127512142Y-112634000D02*
X127474999Y-112671142D01*
X127400714Y-112782571D01*
X127363571Y-112856857D01*
X127326428Y-112968285D01*
X127289285Y-113154000D01*
X127289285Y-113302571D01*
X127326428Y-113488285D01*
X127363571Y-113599714D01*
X127400714Y-113674000D01*
X127474999Y-113785428D01*
X127512142Y-113822571D01*
X128180714Y-112931142D02*
X127809285Y-112931142D01*
X127809285Y-113711142D01*
X128552142Y-112931142D02*
X128477857Y-112968285D01*
X128440714Y-113005428D01*
X128403571Y-113079714D01*
X128403571Y-113302571D01*
X128440714Y-113376857D01*
X128477857Y-113414000D01*
X128552142Y-113451142D01*
X128663571Y-113451142D01*
X128737857Y-113414000D01*
X128774999Y-113376857D01*
X128812142Y-113302571D01*
X128812142Y-113079714D01*
X128774999Y-113005428D01*
X128737857Y-112968285D01*
X128663571Y-112931142D01*
X128552142Y-112931142D01*
X129072142Y-113451142D02*
X129220714Y-112931142D01*
X129369285Y-113302571D01*
X129517857Y-112931142D01*
X129666428Y-113451142D01*
X129889285Y-112634000D02*
X129926428Y-112671142D01*
X130000714Y-112782571D01*
X130037857Y-112856857D01*
X130074999Y-112968285D01*
X130112142Y-113154000D01*
X130112142Y-113302571D01*
X130074999Y-113488285D01*
X130037857Y-113599714D01*
X130000714Y-113674000D01*
X129926428Y-113785428D01*
X129889285Y-113822571D01*
X120900714Y-112069714D02*
X121160714Y-112069714D01*
X121272142Y-111661142D02*
X120900714Y-111661142D01*
X120900714Y-112441142D01*
X121272142Y-112441142D01*
X121532142Y-112441142D02*
X122052142Y-111661142D01*
X122052142Y-112441142D02*
X121532142Y-111661142D01*
X122349285Y-111661142D02*
X122349285Y-112441142D01*
X122646428Y-112441142D01*
X122720714Y-112404000D01*
X122757857Y-112366857D01*
X122795000Y-112292571D01*
X122795000Y-112181142D01*
X122757857Y-112106857D01*
X122720714Y-112069714D01*
X122646428Y-112032571D01*
X122349285Y-112032571D01*
X123463571Y-112181142D02*
X123463571Y-111661142D01*
X123277857Y-112478285D02*
X123092142Y-111921142D01*
X123575000Y-111921142D01*
X124429285Y-111884000D02*
X124800714Y-111884000D01*
X124355000Y-111661142D02*
X124615000Y-112441142D01*
X124875000Y-111661142D01*
X125543571Y-111661142D02*
X125097857Y-111661142D01*
X125320714Y-111661142D02*
X125320714Y-112441142D01*
X125246428Y-112329714D01*
X125172142Y-112255428D01*
X125097857Y-112218285D01*
X120900714Y-110799714D02*
X121160714Y-110799714D01*
X121272142Y-110391142D02*
X120900714Y-110391142D01*
X120900714Y-111171142D01*
X121272142Y-111171142D01*
X121532142Y-111171142D02*
X122052142Y-110391142D01*
X122052142Y-111171142D02*
X121532142Y-110391142D01*
X122349285Y-110391142D02*
X122349285Y-111171142D01*
X122646428Y-111171142D01*
X122720714Y-111134000D01*
X122757857Y-111096857D01*
X122795000Y-111022571D01*
X122795000Y-110911142D01*
X122757857Y-110836857D01*
X122720714Y-110799714D01*
X122646428Y-110762571D01*
X122349285Y-110762571D01*
X123055000Y-111171142D02*
X123575000Y-111171142D01*
X123240714Y-110391142D01*
X124429285Y-110614000D02*
X124800714Y-110614000D01*
X124355000Y-110391142D02*
X124615000Y-111171142D01*
X124875000Y-110391142D01*
X125283571Y-111171142D02*
X125357857Y-111171142D01*
X125432142Y-111134000D01*
X125469285Y-111096857D01*
X125506428Y-111022571D01*
X125543571Y-110874000D01*
X125543571Y-110688285D01*
X125506428Y-110539714D01*
X125469285Y-110465428D01*
X125432142Y-110428285D01*
X125357857Y-110391142D01*
X125283571Y-110391142D01*
X125209285Y-110428285D01*
X125172142Y-110465428D01*
X125135000Y-110539714D01*
X125097857Y-110688285D01*
X125097857Y-110874000D01*
X125135000Y-111022571D01*
X125172142Y-111096857D01*
X125209285Y-111134000D01*
X125283571Y-111171142D01*
X103661571Y-109164285D02*
X104255857Y-109164285D01*
X103958714Y-108867142D02*
X103958714Y-109461428D01*
X104998714Y-109647142D02*
X104627285Y-109647142D01*
X104590142Y-109275714D01*
X104627285Y-109312857D01*
X104701571Y-109350000D01*
X104887285Y-109350000D01*
X104961571Y-109312857D01*
X104998714Y-109275714D01*
X105035857Y-109201428D01*
X105035857Y-109015714D01*
X104998714Y-108941428D01*
X104961571Y-108904285D01*
X104887285Y-108867142D01*
X104701571Y-108867142D01*
X104627285Y-108904285D01*
X104590142Y-108941428D01*
X105258714Y-109647142D02*
X105518714Y-108867142D01*
X105778714Y-109647142D01*
X104070142Y-107070000D02*
X103995857Y-107107142D01*
X103884428Y-107107142D01*
X103773000Y-107070000D01*
X103698714Y-106995714D01*
X103661571Y-106921428D01*
X103624428Y-106772857D01*
X103624428Y-106661428D01*
X103661571Y-106512857D01*
X103698714Y-106438571D01*
X103773000Y-106364285D01*
X103884428Y-106327142D01*
X103958714Y-106327142D01*
X104070142Y-106364285D01*
X104107285Y-106401428D01*
X104107285Y-106661428D01*
X103958714Y-106661428D01*
X104441571Y-106327142D02*
X104441571Y-107107142D01*
X104887285Y-106327142D01*
X104887285Y-107107142D01*
X105258714Y-106327142D02*
X105258714Y-107107142D01*
X105444428Y-107107142D01*
X105555857Y-107070000D01*
X105630142Y-106995714D01*
X105667285Y-106921428D01*
X105704428Y-106772857D01*
X105704428Y-106661428D01*
X105667285Y-106512857D01*
X105630142Y-106438571D01*
X105555857Y-106364285D01*
X105444428Y-106327142D01*
X105258714Y-106327142D01*
X104441571Y-103787142D02*
X104441571Y-104567142D01*
X104887285Y-103787142D01*
X104887285Y-104567142D01*
X105704428Y-103861428D02*
X105667285Y-103824285D01*
X105555857Y-103787142D01*
X105481571Y-103787142D01*
X105370142Y-103824285D01*
X105295857Y-103898571D01*
X105258714Y-103972857D01*
X105221571Y-104121428D01*
X105221571Y-104232857D01*
X105258714Y-104381428D01*
X105295857Y-104455714D01*
X105370142Y-104530000D01*
X105481571Y-104567142D01*
X105555857Y-104567142D01*
X105667285Y-104530000D01*
X105704428Y-104492857D01*
X103215857Y-102027142D02*
X103364428Y-102027142D01*
X103438714Y-101990000D01*
X103513000Y-101915714D01*
X103550142Y-101767142D01*
X103550142Y-101507142D01*
X103513000Y-101358571D01*
X103438714Y-101284285D01*
X103364428Y-101247142D01*
X103215857Y-101247142D01*
X103141571Y-101284285D01*
X103067285Y-101358571D01*
X103030142Y-101507142D01*
X103030142Y-101767142D01*
X103067285Y-101915714D01*
X103141571Y-101990000D01*
X103215857Y-102027142D01*
X103884428Y-102027142D02*
X103884428Y-101395714D01*
X103921571Y-101321428D01*
X103958714Y-101284285D01*
X104033000Y-101247142D01*
X104181571Y-101247142D01*
X104255857Y-101284285D01*
X104293000Y-101321428D01*
X104330142Y-101395714D01*
X104330142Y-102027142D01*
X104590142Y-102027142D02*
X105035857Y-102027142D01*
X104813000Y-101247142D02*
X104813000Y-102027142D01*
X105258714Y-101952857D02*
X105295857Y-101990000D01*
X105370142Y-102027142D01*
X105555857Y-102027142D01*
X105630142Y-101990000D01*
X105667285Y-101952857D01*
X105704428Y-101878571D01*
X105704428Y-101804285D01*
X105667285Y-101692857D01*
X105221571Y-101247142D01*
X105704428Y-101247142D01*
X103215857Y-99487142D02*
X103364428Y-99487142D01*
X103438714Y-99450000D01*
X103513000Y-99375714D01*
X103550142Y-99227142D01*
X103550142Y-98967142D01*
X103513000Y-98818571D01*
X103438714Y-98744285D01*
X103364428Y-98707142D01*
X103215857Y-98707142D01*
X103141571Y-98744285D01*
X103067285Y-98818571D01*
X103030142Y-98967142D01*
X103030142Y-99227142D01*
X103067285Y-99375714D01*
X103141571Y-99450000D01*
X103215857Y-99487142D01*
X103884428Y-99487142D02*
X103884428Y-98855714D01*
X103921571Y-98781428D01*
X103958714Y-98744285D01*
X104033000Y-98707142D01*
X104181571Y-98707142D01*
X104255857Y-98744285D01*
X104293000Y-98781428D01*
X104330142Y-98855714D01*
X104330142Y-99487142D01*
X104590142Y-99487142D02*
X105035857Y-99487142D01*
X104813000Y-98707142D02*
X104813000Y-99487142D01*
X105704428Y-98707142D02*
X105258714Y-98707142D01*
X105481571Y-98707142D02*
X105481571Y-99487142D01*
X105407285Y-99375714D01*
X105333000Y-99301428D01*
X105258714Y-99264285D01*
X103215857Y-96947142D02*
X103364428Y-96947142D01*
X103438714Y-96910000D01*
X103513000Y-96835714D01*
X103550142Y-96687142D01*
X103550142Y-96427142D01*
X103513000Y-96278571D01*
X103438714Y-96204285D01*
X103364428Y-96167142D01*
X103215857Y-96167142D01*
X103141571Y-96204285D01*
X103067285Y-96278571D01*
X103030142Y-96427142D01*
X103030142Y-96687142D01*
X103067285Y-96835714D01*
X103141571Y-96910000D01*
X103215857Y-96947142D01*
X103884428Y-96947142D02*
X103884428Y-96315714D01*
X103921571Y-96241428D01*
X103958714Y-96204285D01*
X104033000Y-96167142D01*
X104181571Y-96167142D01*
X104255857Y-96204285D01*
X104293000Y-96241428D01*
X104330142Y-96315714D01*
X104330142Y-96947142D01*
X104590142Y-96947142D02*
X105035857Y-96947142D01*
X104813000Y-96167142D02*
X104813000Y-96947142D01*
X105444428Y-96947142D02*
X105518714Y-96947142D01*
X105593000Y-96910000D01*
X105630142Y-96872857D01*
X105667285Y-96798571D01*
X105704428Y-96650000D01*
X105704428Y-96464285D01*
X105667285Y-96315714D01*
X105630142Y-96241428D01*
X105593000Y-96204285D01*
X105518714Y-96167142D01*
X105444428Y-96167142D01*
X105370142Y-96204285D01*
X105333000Y-96241428D01*
X105295857Y-96315714D01*
X105258714Y-96464285D01*
X105258714Y-96650000D01*
X105295857Y-96798571D01*
X105333000Y-96872857D01*
X105370142Y-96910000D01*
X105444428Y-96947142D01*
X103067285Y-94035714D02*
X103327285Y-94035714D01*
X103438714Y-93627142D02*
X103067285Y-93627142D01*
X103067285Y-94407142D01*
X103438714Y-94407142D01*
X103698714Y-94407142D02*
X104218714Y-93627142D01*
X104218714Y-94407142D02*
X103698714Y-93627142D01*
X104515857Y-93627142D02*
X104515857Y-94407142D01*
X104813000Y-94407142D01*
X104887285Y-94370000D01*
X104924428Y-94332857D01*
X104961571Y-94258571D01*
X104961571Y-94147142D01*
X104924428Y-94072857D01*
X104887285Y-94035714D01*
X104813000Y-93998571D01*
X104515857Y-93998571D01*
X105444428Y-94407142D02*
X105518714Y-94407142D01*
X105593000Y-94370000D01*
X105630142Y-94332857D01*
X105667285Y-94258571D01*
X105704428Y-94110000D01*
X105704428Y-93924285D01*
X105667285Y-93775714D01*
X105630142Y-93701428D01*
X105593000Y-93664285D01*
X105518714Y-93627142D01*
X105444428Y-93627142D01*
X105370142Y-93664285D01*
X105333000Y-93701428D01*
X105295857Y-93775714D01*
X105258714Y-93924285D01*
X105258714Y-94110000D01*
X105295857Y-94258571D01*
X105333000Y-94332857D01*
X105370142Y-94370000D01*
X105444428Y-94407142D01*
X103067285Y-91495714D02*
X103327285Y-91495714D01*
X103438714Y-91087142D02*
X103067285Y-91087142D01*
X103067285Y-91867142D01*
X103438714Y-91867142D01*
X103698714Y-91867142D02*
X104218714Y-91087142D01*
X104218714Y-91867142D02*
X103698714Y-91087142D01*
X104515857Y-91087142D02*
X104515857Y-91867142D01*
X104813000Y-91867142D01*
X104887285Y-91830000D01*
X104924428Y-91792857D01*
X104961571Y-91718571D01*
X104961571Y-91607142D01*
X104924428Y-91532857D01*
X104887285Y-91495714D01*
X104813000Y-91458571D01*
X104515857Y-91458571D01*
X105704428Y-91087142D02*
X105258714Y-91087142D01*
X105481571Y-91087142D02*
X105481571Y-91867142D01*
X105407285Y-91755714D01*
X105333000Y-91681428D01*
X105258714Y-91644285D01*
X103067285Y-88955714D02*
X103327285Y-88955714D01*
X103438714Y-88547142D02*
X103067285Y-88547142D01*
X103067285Y-89327142D01*
X103438714Y-89327142D01*
X103698714Y-89327142D02*
X104218714Y-88547142D01*
X104218714Y-89327142D02*
X103698714Y-88547142D01*
X104515857Y-88547142D02*
X104515857Y-89327142D01*
X104813000Y-89327142D01*
X104887285Y-89290000D01*
X104924428Y-89252857D01*
X104961571Y-89178571D01*
X104961571Y-89067142D01*
X104924428Y-88992857D01*
X104887285Y-88955714D01*
X104813000Y-88918571D01*
X104515857Y-88918571D01*
X105258714Y-89252857D02*
X105295857Y-89290000D01*
X105370142Y-89327142D01*
X105555857Y-89327142D01*
X105630142Y-89290000D01*
X105667285Y-89252857D01*
X105704428Y-89178571D01*
X105704428Y-89104285D01*
X105667285Y-88992857D01*
X105221571Y-88547142D01*
X105704428Y-88547142D01*
X103067285Y-86415714D02*
X103327285Y-86415714D01*
X103438714Y-86007142D02*
X103067285Y-86007142D01*
X103067285Y-86787142D01*
X103438714Y-86787142D01*
X103698714Y-86787142D02*
X104218714Y-86007142D01*
X104218714Y-86787142D02*
X103698714Y-86007142D01*
X104515857Y-86007142D02*
X104515857Y-86787142D01*
X104813000Y-86787142D01*
X104887285Y-86750000D01*
X104924428Y-86712857D01*
X104961571Y-86638571D01*
X104961571Y-86527142D01*
X104924428Y-86452857D01*
X104887285Y-86415714D01*
X104813000Y-86378571D01*
X104515857Y-86378571D01*
X105221571Y-86787142D02*
X105704428Y-86787142D01*
X105444428Y-86490000D01*
X105555857Y-86490000D01*
X105630142Y-86452857D01*
X105667285Y-86415714D01*
X105704428Y-86341428D01*
X105704428Y-86155714D01*
X105667285Y-86081428D01*
X105630142Y-86044285D01*
X105555857Y-86007142D01*
X105333000Y-86007142D01*
X105258714Y-86044285D01*
X105221571Y-86081428D01*
X103067285Y-83875714D02*
X103327285Y-83875714D01*
X103438714Y-83467142D02*
X103067285Y-83467142D01*
X103067285Y-84247142D01*
X103438714Y-84247142D01*
X103698714Y-84247142D02*
X104218714Y-83467142D01*
X104218714Y-84247142D02*
X103698714Y-83467142D01*
X104515857Y-83467142D02*
X104515857Y-84247142D01*
X104813000Y-84247142D01*
X104887285Y-84210000D01*
X104924428Y-84172857D01*
X104961571Y-84098571D01*
X104961571Y-83987142D01*
X104924428Y-83912857D01*
X104887285Y-83875714D01*
X104813000Y-83838571D01*
X104515857Y-83838571D01*
X105630142Y-83987142D02*
X105630142Y-83467142D01*
X105444428Y-84284285D02*
X105258714Y-83727142D01*
X105741571Y-83727142D01*
X101210142Y-81707142D02*
X101210142Y-81150000D01*
X101173000Y-81038571D01*
X101098714Y-80964285D01*
X100987285Y-80927142D01*
X100913000Y-80927142D01*
X101581571Y-80927142D02*
X101581571Y-81707142D01*
X101878714Y-81707142D01*
X101953000Y-81670000D01*
X101990142Y-81632857D01*
X102027285Y-81558571D01*
X102027285Y-81447142D01*
X101990142Y-81372857D01*
X101953000Y-81335714D01*
X101878714Y-81298571D01*
X101581571Y-81298571D01*
X102770142Y-80927142D02*
X102324428Y-80927142D01*
X102547285Y-80927142D02*
X102547285Y-81707142D01*
X102473000Y-81595714D01*
X102398714Y-81521428D01*
X102324428Y-81484285D01*
X104255857Y-81744285D02*
X103587285Y-80741428D01*
X104664428Y-81707142D02*
X104813000Y-81707142D01*
X104887285Y-81670000D01*
X104961571Y-81595714D01*
X104998714Y-81447142D01*
X104998714Y-81187142D01*
X104961571Y-81038571D01*
X104887285Y-80964285D01*
X104813000Y-80927142D01*
X104664428Y-80927142D01*
X104590142Y-80964285D01*
X104515857Y-81038571D01*
X104478714Y-81187142D01*
X104478714Y-81447142D01*
X104515857Y-81595714D01*
X104590142Y-81670000D01*
X104664428Y-81707142D01*
X105333000Y-81335714D02*
X105593000Y-81335714D01*
X105704428Y-80927142D02*
X105333000Y-80927142D01*
X105333000Y-81707142D01*
X105704428Y-81707142D01*
X102027285Y-79167142D02*
X102027285Y-78610000D01*
X101990142Y-78498571D01*
X101915857Y-78424285D01*
X101804428Y-78387142D01*
X101730142Y-78387142D01*
X102398714Y-78387142D02*
X102398714Y-79167142D01*
X102695857Y-79167142D01*
X102770142Y-79130000D01*
X102807285Y-79092857D01*
X102844428Y-79018571D01*
X102844428Y-78907142D01*
X102807285Y-78832857D01*
X102770142Y-78795714D01*
X102695857Y-78758571D01*
X102398714Y-78758571D01*
X103587285Y-78387142D02*
X103141571Y-78387142D01*
X103364428Y-78387142D02*
X103364428Y-79167142D01*
X103290142Y-79055714D01*
X103215857Y-78981428D01*
X103141571Y-78944285D01*
X104515857Y-78387142D02*
X104515857Y-79167142D01*
X104701571Y-79167142D01*
X104813000Y-79130000D01*
X104887285Y-79055714D01*
X104924428Y-78981428D01*
X104961571Y-78832857D01*
X104961571Y-78721428D01*
X104924428Y-78572857D01*
X104887285Y-78498571D01*
X104813000Y-78424285D01*
X104701571Y-78387142D01*
X104515857Y-78387142D01*
X105630142Y-78907142D02*
X105630142Y-78387142D01*
X105444428Y-79204285D02*
X105258714Y-78647142D01*
X105741571Y-78647142D01*
X102027285Y-76627142D02*
X102027285Y-76070000D01*
X101990142Y-75958571D01*
X101915857Y-75884285D01*
X101804428Y-75847142D01*
X101730142Y-75847142D01*
X102398714Y-75847142D02*
X102398714Y-76627142D01*
X102695857Y-76627142D01*
X102770142Y-76590000D01*
X102807285Y-76552857D01*
X102844428Y-76478571D01*
X102844428Y-76367142D01*
X102807285Y-76292857D01*
X102770142Y-76255714D01*
X102695857Y-76218571D01*
X102398714Y-76218571D01*
X103587285Y-75847142D02*
X103141571Y-75847142D01*
X103364428Y-75847142D02*
X103364428Y-76627142D01*
X103290142Y-76515714D01*
X103215857Y-76441428D01*
X103141571Y-76404285D01*
X104515857Y-75847142D02*
X104515857Y-76627142D01*
X104701571Y-76627142D01*
X104813000Y-76590000D01*
X104887285Y-76515714D01*
X104924428Y-76441428D01*
X104961571Y-76292857D01*
X104961571Y-76181428D01*
X104924428Y-76032857D01*
X104887285Y-75958571D01*
X104813000Y-75884285D01*
X104701571Y-75847142D01*
X104515857Y-75847142D01*
X105444428Y-76627142D02*
X105518714Y-76627142D01*
X105593000Y-76590000D01*
X105630142Y-76552857D01*
X105667285Y-76478571D01*
X105704428Y-76330000D01*
X105704428Y-76144285D01*
X105667285Y-75995714D01*
X105630142Y-75921428D01*
X105593000Y-75884285D01*
X105518714Y-75847142D01*
X105444428Y-75847142D01*
X105370142Y-75884285D01*
X105333000Y-75921428D01*
X105295857Y-75995714D01*
X105258714Y-76144285D01*
X105258714Y-76330000D01*
X105295857Y-76478571D01*
X105333000Y-76552857D01*
X105370142Y-76590000D01*
X105444428Y-76627142D01*
X101210142Y-74087142D02*
X101210142Y-73530000D01*
X101173000Y-73418571D01*
X101098714Y-73344285D01*
X100987285Y-73307142D01*
X100913000Y-73307142D01*
X101581571Y-73307142D02*
X101581571Y-74087142D01*
X101878714Y-74087142D01*
X101953000Y-74050000D01*
X101990142Y-74012857D01*
X102027285Y-73938571D01*
X102027285Y-73827142D01*
X101990142Y-73752857D01*
X101953000Y-73715714D01*
X101878714Y-73678571D01*
X101581571Y-73678571D01*
X102770142Y-73307142D02*
X102324428Y-73307142D01*
X102547285Y-73307142D02*
X102547285Y-74087142D01*
X102473000Y-73975714D01*
X102398714Y-73901428D01*
X102324428Y-73864285D01*
X104255857Y-74124285D02*
X103587285Y-73121428D01*
X104664428Y-74087142D02*
X104813000Y-74087142D01*
X104887285Y-74050000D01*
X104961571Y-73975714D01*
X104998714Y-73827142D01*
X104998714Y-73567142D01*
X104961571Y-73418571D01*
X104887285Y-73344285D01*
X104813000Y-73307142D01*
X104664428Y-73307142D01*
X104590142Y-73344285D01*
X104515857Y-73418571D01*
X104478714Y-73567142D01*
X104478714Y-73827142D01*
X104515857Y-73975714D01*
X104590142Y-74050000D01*
X104664428Y-74087142D01*
X105333000Y-73715714D02*
X105593000Y-73715714D01*
X105704428Y-73307142D02*
X105333000Y-73307142D01*
X105333000Y-74087142D01*
X105704428Y-74087142D01*
X102027285Y-71547142D02*
X102027285Y-70990000D01*
X101990142Y-70878571D01*
X101915857Y-70804285D01*
X101804428Y-70767142D01*
X101730142Y-70767142D01*
X102398714Y-70767142D02*
X102398714Y-71547142D01*
X102695857Y-71547142D01*
X102770142Y-71510000D01*
X102807285Y-71472857D01*
X102844428Y-71398571D01*
X102844428Y-71287142D01*
X102807285Y-71212857D01*
X102770142Y-71175714D01*
X102695857Y-71138571D01*
X102398714Y-71138571D01*
X103587285Y-70767142D02*
X103141571Y-70767142D01*
X103364428Y-70767142D02*
X103364428Y-71547142D01*
X103290142Y-71435714D01*
X103215857Y-71361428D01*
X103141571Y-71324285D01*
X104515857Y-70767142D02*
X104515857Y-71547142D01*
X104701571Y-71547142D01*
X104813000Y-71510000D01*
X104887285Y-71435714D01*
X104924428Y-71361428D01*
X104961571Y-71212857D01*
X104961571Y-71101428D01*
X104924428Y-70952857D01*
X104887285Y-70878571D01*
X104813000Y-70804285D01*
X104701571Y-70767142D01*
X104515857Y-70767142D01*
X105258714Y-71472857D02*
X105295857Y-71510000D01*
X105370142Y-71547142D01*
X105555857Y-71547142D01*
X105630142Y-71510000D01*
X105667285Y-71472857D01*
X105704428Y-71398571D01*
X105704428Y-71324285D01*
X105667285Y-71212857D01*
X105221571Y-70767142D01*
X105704428Y-70767142D01*
X101990142Y-68301428D02*
X101953000Y-68264285D01*
X101841571Y-68227142D01*
X101767285Y-68227142D01*
X101655857Y-68264285D01*
X101581571Y-68338571D01*
X101544428Y-68412857D01*
X101507285Y-68561428D01*
X101507285Y-68672857D01*
X101544428Y-68821428D01*
X101581571Y-68895714D01*
X101655857Y-68970000D01*
X101767285Y-69007142D01*
X101841571Y-69007142D01*
X101953000Y-68970000D01*
X101990142Y-68932857D01*
X102324428Y-68227142D02*
X102324428Y-69007142D01*
X102621571Y-69007142D01*
X102695857Y-68970000D01*
X102733000Y-68932857D01*
X102770142Y-68858571D01*
X102770142Y-68747142D01*
X102733000Y-68672857D01*
X102695857Y-68635714D01*
X102621571Y-68598571D01*
X102324428Y-68598571D01*
X103104428Y-69007142D02*
X103104428Y-68375714D01*
X103141571Y-68301428D01*
X103178714Y-68264285D01*
X103253000Y-68227142D01*
X103401571Y-68227142D01*
X103475857Y-68264285D01*
X103513000Y-68301428D01*
X103550142Y-68375714D01*
X103550142Y-69007142D01*
X104515857Y-68227142D02*
X104515857Y-69007142D01*
X104701571Y-69007142D01*
X104813000Y-68970000D01*
X104887285Y-68895714D01*
X104924428Y-68821428D01*
X104961571Y-68672857D01*
X104961571Y-68561428D01*
X104924428Y-68412857D01*
X104887285Y-68338571D01*
X104813000Y-68264285D01*
X104701571Y-68227142D01*
X104515857Y-68227142D01*
X105444428Y-69007142D02*
X105518714Y-69007142D01*
X105593000Y-68970000D01*
X105630142Y-68932857D01*
X105667285Y-68858571D01*
X105704428Y-68710000D01*
X105704428Y-68524285D01*
X105667285Y-68375714D01*
X105630142Y-68301428D01*
X105593000Y-68264285D01*
X105518714Y-68227142D01*
X105444428Y-68227142D01*
X105370142Y-68264285D01*
X105333000Y-68301428D01*
X105295857Y-68375714D01*
X105258714Y-68524285D01*
X105258714Y-68710000D01*
X105295857Y-68858571D01*
X105333000Y-68932857D01*
X105370142Y-68970000D01*
X105444428Y-69007142D01*
X101990142Y-65761428D02*
X101953000Y-65724285D01*
X101841571Y-65687142D01*
X101767285Y-65687142D01*
X101655857Y-65724285D01*
X101581571Y-65798571D01*
X101544428Y-65872857D01*
X101507285Y-66021428D01*
X101507285Y-66132857D01*
X101544428Y-66281428D01*
X101581571Y-66355714D01*
X101655857Y-66430000D01*
X101767285Y-66467142D01*
X101841571Y-66467142D01*
X101953000Y-66430000D01*
X101990142Y-66392857D01*
X102324428Y-65687142D02*
X102324428Y-66467142D01*
X102621571Y-66467142D01*
X102695857Y-66430000D01*
X102733000Y-66392857D01*
X102770142Y-66318571D01*
X102770142Y-66207142D01*
X102733000Y-66132857D01*
X102695857Y-66095714D01*
X102621571Y-66058571D01*
X102324428Y-66058571D01*
X103104428Y-66467142D02*
X103104428Y-65835714D01*
X103141571Y-65761428D01*
X103178714Y-65724285D01*
X103253000Y-65687142D01*
X103401571Y-65687142D01*
X103475857Y-65724285D01*
X103513000Y-65761428D01*
X103550142Y-65835714D01*
X103550142Y-66467142D01*
X104515857Y-65687142D02*
X104515857Y-66467142D01*
X104701571Y-66467142D01*
X104813000Y-66430000D01*
X104887285Y-66355714D01*
X104924428Y-66281428D01*
X104961571Y-66132857D01*
X104961571Y-66021428D01*
X104924428Y-65872857D01*
X104887285Y-65798571D01*
X104813000Y-65724285D01*
X104701571Y-65687142D01*
X104515857Y-65687142D01*
X105704428Y-65687142D02*
X105258714Y-65687142D01*
X105481571Y-65687142D02*
X105481571Y-66467142D01*
X105407285Y-66355714D01*
X105333000Y-66281428D01*
X105258714Y-66244285D01*
X101990142Y-63221428D02*
X101953000Y-63184285D01*
X101841571Y-63147142D01*
X101767285Y-63147142D01*
X101655857Y-63184285D01*
X101581571Y-63258571D01*
X101544428Y-63332857D01*
X101507285Y-63481428D01*
X101507285Y-63592857D01*
X101544428Y-63741428D01*
X101581571Y-63815714D01*
X101655857Y-63890000D01*
X101767285Y-63927142D01*
X101841571Y-63927142D01*
X101953000Y-63890000D01*
X101990142Y-63852857D01*
X102324428Y-63147142D02*
X102324428Y-63927142D01*
X102621571Y-63927142D01*
X102695857Y-63890000D01*
X102733000Y-63852857D01*
X102770142Y-63778571D01*
X102770142Y-63667142D01*
X102733000Y-63592857D01*
X102695857Y-63555714D01*
X102621571Y-63518571D01*
X102324428Y-63518571D01*
X103104428Y-63927142D02*
X103104428Y-63295714D01*
X103141571Y-63221428D01*
X103178714Y-63184285D01*
X103253000Y-63147142D01*
X103401571Y-63147142D01*
X103475857Y-63184285D01*
X103513000Y-63221428D01*
X103550142Y-63295714D01*
X103550142Y-63927142D01*
X104515857Y-63147142D02*
X104515857Y-63927142D01*
X104701571Y-63927142D01*
X104813000Y-63890000D01*
X104887285Y-63815714D01*
X104924428Y-63741428D01*
X104961571Y-63592857D01*
X104961571Y-63481428D01*
X104924428Y-63332857D01*
X104887285Y-63258571D01*
X104813000Y-63184285D01*
X104701571Y-63147142D01*
X104515857Y-63147142D01*
X105258714Y-63852857D02*
X105295857Y-63890000D01*
X105370142Y-63927142D01*
X105555857Y-63927142D01*
X105630142Y-63890000D01*
X105667285Y-63852857D01*
X105704428Y-63778571D01*
X105704428Y-63704285D01*
X105667285Y-63592857D01*
X105221571Y-63147142D01*
X105704428Y-63147142D01*
X101990142Y-60681428D02*
X101953000Y-60644285D01*
X101841571Y-60607142D01*
X101767285Y-60607142D01*
X101655857Y-60644285D01*
X101581571Y-60718571D01*
X101544428Y-60792857D01*
X101507285Y-60941428D01*
X101507285Y-61052857D01*
X101544428Y-61201428D01*
X101581571Y-61275714D01*
X101655857Y-61350000D01*
X101767285Y-61387142D01*
X101841571Y-61387142D01*
X101953000Y-61350000D01*
X101990142Y-61312857D01*
X102324428Y-60607142D02*
X102324428Y-61387142D01*
X102621571Y-61387142D01*
X102695857Y-61350000D01*
X102733000Y-61312857D01*
X102770142Y-61238571D01*
X102770142Y-61127142D01*
X102733000Y-61052857D01*
X102695857Y-61015714D01*
X102621571Y-60978571D01*
X102324428Y-60978571D01*
X103104428Y-61387142D02*
X103104428Y-60755714D01*
X103141571Y-60681428D01*
X103178714Y-60644285D01*
X103253000Y-60607142D01*
X103401571Y-60607142D01*
X103475857Y-60644285D01*
X103513000Y-60681428D01*
X103550142Y-60755714D01*
X103550142Y-61387142D01*
X104515857Y-60607142D02*
X104515857Y-61387142D01*
X104701571Y-61387142D01*
X104813000Y-61350000D01*
X104887285Y-61275714D01*
X104924428Y-61201428D01*
X104961571Y-61052857D01*
X104961571Y-60941428D01*
X104924428Y-60792857D01*
X104887285Y-60718571D01*
X104813000Y-60644285D01*
X104701571Y-60607142D01*
X104515857Y-60607142D01*
X105221571Y-61387142D02*
X105704428Y-61387142D01*
X105444428Y-61090000D01*
X105555857Y-61090000D01*
X105630142Y-61052857D01*
X105667285Y-61015714D01*
X105704428Y-60941428D01*
X105704428Y-60755714D01*
X105667285Y-60681428D01*
X105630142Y-60644285D01*
X105555857Y-60607142D01*
X105333000Y-60607142D01*
X105258714Y-60644285D01*
X105221571Y-60681428D01*
X101990142Y-58141428D02*
X101953000Y-58104285D01*
X101841571Y-58067142D01*
X101767285Y-58067142D01*
X101655857Y-58104285D01*
X101581571Y-58178571D01*
X101544428Y-58252857D01*
X101507285Y-58401428D01*
X101507285Y-58512857D01*
X101544428Y-58661428D01*
X101581571Y-58735714D01*
X101655857Y-58810000D01*
X101767285Y-58847142D01*
X101841571Y-58847142D01*
X101953000Y-58810000D01*
X101990142Y-58772857D01*
X102324428Y-58067142D02*
X102324428Y-58847142D01*
X102621571Y-58847142D01*
X102695857Y-58810000D01*
X102733000Y-58772857D01*
X102770142Y-58698571D01*
X102770142Y-58587142D01*
X102733000Y-58512857D01*
X102695857Y-58475714D01*
X102621571Y-58438571D01*
X102324428Y-58438571D01*
X103104428Y-58847142D02*
X103104428Y-58215714D01*
X103141571Y-58141428D01*
X103178714Y-58104285D01*
X103253000Y-58067142D01*
X103401571Y-58067142D01*
X103475857Y-58104285D01*
X103513000Y-58141428D01*
X103550142Y-58215714D01*
X103550142Y-58847142D01*
X104515857Y-58067142D02*
X104515857Y-58847142D01*
X104701571Y-58847142D01*
X104813000Y-58810000D01*
X104887285Y-58735714D01*
X104924428Y-58661428D01*
X104961571Y-58512857D01*
X104961571Y-58401428D01*
X104924428Y-58252857D01*
X104887285Y-58178571D01*
X104813000Y-58104285D01*
X104701571Y-58067142D01*
X104515857Y-58067142D01*
X105630142Y-58587142D02*
X105630142Y-58067142D01*
X105444428Y-58884285D02*
X105258714Y-58327142D01*
X105741571Y-58327142D01*
X101990142Y-55601428D02*
X101953000Y-55564285D01*
X101841571Y-55527142D01*
X101767285Y-55527142D01*
X101655857Y-55564285D01*
X101581571Y-55638571D01*
X101544428Y-55712857D01*
X101507285Y-55861428D01*
X101507285Y-55972857D01*
X101544428Y-56121428D01*
X101581571Y-56195714D01*
X101655857Y-56270000D01*
X101767285Y-56307142D01*
X101841571Y-56307142D01*
X101953000Y-56270000D01*
X101990142Y-56232857D01*
X102324428Y-55527142D02*
X102324428Y-56307142D01*
X102621571Y-56307142D01*
X102695857Y-56270000D01*
X102733000Y-56232857D01*
X102770142Y-56158571D01*
X102770142Y-56047142D01*
X102733000Y-55972857D01*
X102695857Y-55935714D01*
X102621571Y-55898571D01*
X102324428Y-55898571D01*
X103104428Y-56307142D02*
X103104428Y-55675714D01*
X103141571Y-55601428D01*
X103178714Y-55564285D01*
X103253000Y-55527142D01*
X103401571Y-55527142D01*
X103475857Y-55564285D01*
X103513000Y-55601428D01*
X103550142Y-55675714D01*
X103550142Y-56307142D01*
X104515857Y-55527142D02*
X104515857Y-56307142D01*
X104701571Y-56307142D01*
X104813000Y-56270000D01*
X104887285Y-56195714D01*
X104924428Y-56121428D01*
X104961571Y-55972857D01*
X104961571Y-55861428D01*
X104924428Y-55712857D01*
X104887285Y-55638571D01*
X104813000Y-55564285D01*
X104701571Y-55527142D01*
X104515857Y-55527142D01*
X105667285Y-56307142D02*
X105295857Y-56307142D01*
X105258714Y-55935714D01*
X105295857Y-55972857D01*
X105370142Y-56010000D01*
X105555857Y-56010000D01*
X105630142Y-55972857D01*
X105667285Y-55935714D01*
X105704428Y-55861428D01*
X105704428Y-55675714D01*
X105667285Y-55601428D01*
X105630142Y-55564285D01*
X105555857Y-55527142D01*
X105370142Y-55527142D01*
X105295857Y-55564285D01*
X105258714Y-55601428D01*
X101990142Y-53061428D02*
X101953000Y-53024285D01*
X101841571Y-52987142D01*
X101767285Y-52987142D01*
X101655857Y-53024285D01*
X101581571Y-53098571D01*
X101544428Y-53172857D01*
X101507285Y-53321428D01*
X101507285Y-53432857D01*
X101544428Y-53581428D01*
X101581571Y-53655714D01*
X101655857Y-53730000D01*
X101767285Y-53767142D01*
X101841571Y-53767142D01*
X101953000Y-53730000D01*
X101990142Y-53692857D01*
X102324428Y-52987142D02*
X102324428Y-53767142D01*
X102621571Y-53767142D01*
X102695857Y-53730000D01*
X102733000Y-53692857D01*
X102770142Y-53618571D01*
X102770142Y-53507142D01*
X102733000Y-53432857D01*
X102695857Y-53395714D01*
X102621571Y-53358571D01*
X102324428Y-53358571D01*
X103104428Y-53767142D02*
X103104428Y-53135714D01*
X103141571Y-53061428D01*
X103178714Y-53024285D01*
X103253000Y-52987142D01*
X103401571Y-52987142D01*
X103475857Y-53024285D01*
X103513000Y-53061428D01*
X103550142Y-53135714D01*
X103550142Y-53767142D01*
X104515857Y-52987142D02*
X104515857Y-53767142D01*
X104701571Y-53767142D01*
X104813000Y-53730000D01*
X104887285Y-53655714D01*
X104924428Y-53581428D01*
X104961571Y-53432857D01*
X104961571Y-53321428D01*
X104924428Y-53172857D01*
X104887285Y-53098571D01*
X104813000Y-53024285D01*
X104701571Y-52987142D01*
X104515857Y-52987142D01*
X105630142Y-53767142D02*
X105481571Y-53767142D01*
X105407285Y-53730000D01*
X105370142Y-53692857D01*
X105295857Y-53581428D01*
X105258714Y-53432857D01*
X105258714Y-53135714D01*
X105295857Y-53061428D01*
X105333000Y-53024285D01*
X105407285Y-52987142D01*
X105555857Y-52987142D01*
X105630142Y-53024285D01*
X105667285Y-53061428D01*
X105704428Y-53135714D01*
X105704428Y-53321428D01*
X105667285Y-53395714D01*
X105630142Y-53432857D01*
X105555857Y-53470000D01*
X105407285Y-53470000D01*
X105333000Y-53432857D01*
X105295857Y-53395714D01*
X105258714Y-53321428D01*
X101990142Y-50521428D02*
X101953000Y-50484285D01*
X101841571Y-50447142D01*
X101767285Y-50447142D01*
X101655857Y-50484285D01*
X101581571Y-50558571D01*
X101544428Y-50632857D01*
X101507285Y-50781428D01*
X101507285Y-50892857D01*
X101544428Y-51041428D01*
X101581571Y-51115714D01*
X101655857Y-51190000D01*
X101767285Y-51227142D01*
X101841571Y-51227142D01*
X101953000Y-51190000D01*
X101990142Y-51152857D01*
X102324428Y-50447142D02*
X102324428Y-51227142D01*
X102621571Y-51227142D01*
X102695857Y-51190000D01*
X102733000Y-51152857D01*
X102770142Y-51078571D01*
X102770142Y-50967142D01*
X102733000Y-50892857D01*
X102695857Y-50855714D01*
X102621571Y-50818571D01*
X102324428Y-50818571D01*
X103104428Y-51227142D02*
X103104428Y-50595714D01*
X103141571Y-50521428D01*
X103178714Y-50484285D01*
X103253000Y-50447142D01*
X103401571Y-50447142D01*
X103475857Y-50484285D01*
X103513000Y-50521428D01*
X103550142Y-50595714D01*
X103550142Y-51227142D01*
X104515857Y-50447142D02*
X104515857Y-51227142D01*
X104701571Y-51227142D01*
X104813000Y-51190000D01*
X104887285Y-51115714D01*
X104924428Y-51041428D01*
X104961571Y-50892857D01*
X104961571Y-50781428D01*
X104924428Y-50632857D01*
X104887285Y-50558571D01*
X104813000Y-50484285D01*
X104701571Y-50447142D01*
X104515857Y-50447142D01*
X105221571Y-51227142D02*
X105741571Y-51227142D01*
X105407285Y-50447142D01*
X115439714Y-109164285D02*
X116034000Y-109164285D01*
X115736857Y-108867142D02*
X115736857Y-109461428D01*
X116776857Y-109647142D02*
X116405428Y-109647142D01*
X116368285Y-109275714D01*
X116405428Y-109312857D01*
X116479714Y-109350000D01*
X116665428Y-109350000D01*
X116739714Y-109312857D01*
X116776857Y-109275714D01*
X116814000Y-109201428D01*
X116814000Y-109015714D01*
X116776857Y-108941428D01*
X116739714Y-108904285D01*
X116665428Y-108867142D01*
X116479714Y-108867142D01*
X116405428Y-108904285D01*
X116368285Y-108941428D01*
X117036857Y-109647142D02*
X117296857Y-108867142D01*
X117556857Y-109647142D01*
X115848285Y-107070000D02*
X115774000Y-107107142D01*
X115662571Y-107107142D01*
X115551142Y-107070000D01*
X115476857Y-106995714D01*
X115439714Y-106921428D01*
X115402571Y-106772857D01*
X115402571Y-106661428D01*
X115439714Y-106512857D01*
X115476857Y-106438571D01*
X115551142Y-106364285D01*
X115662571Y-106327142D01*
X115736857Y-106327142D01*
X115848285Y-106364285D01*
X115885428Y-106401428D01*
X115885428Y-106661428D01*
X115736857Y-106661428D01*
X116219714Y-106327142D02*
X116219714Y-107107142D01*
X116665428Y-106327142D01*
X116665428Y-107107142D01*
X117036857Y-106327142D02*
X117036857Y-107107142D01*
X117222571Y-107107142D01*
X117334000Y-107070000D01*
X117408285Y-106995714D01*
X117445428Y-106921428D01*
X117482571Y-106772857D01*
X117482571Y-106661428D01*
X117445428Y-106512857D01*
X117408285Y-106438571D01*
X117334000Y-106364285D01*
X117222571Y-106327142D01*
X117036857Y-106327142D01*
X115402571Y-104010000D02*
X115774000Y-104010000D01*
X115328285Y-103787142D02*
X115588285Y-104567142D01*
X115848285Y-103787142D01*
X116442571Y-104307142D02*
X116442571Y-103787142D01*
X116108285Y-104307142D02*
X116108285Y-103898571D01*
X116145428Y-103824285D01*
X116219714Y-103787142D01*
X116331142Y-103787142D01*
X116405428Y-103824285D01*
X116442571Y-103861428D01*
X117148285Y-103787142D02*
X117148285Y-104567142D01*
X117148285Y-103824285D02*
X117074000Y-103787142D01*
X116925428Y-103787142D01*
X116851142Y-103824285D01*
X116814000Y-103861428D01*
X116776857Y-103935714D01*
X116776857Y-104158571D01*
X116814000Y-104232857D01*
X116851142Y-104270000D01*
X116925428Y-104307142D01*
X117074000Y-104307142D01*
X117148285Y-104270000D01*
X118114000Y-103787142D02*
X118114000Y-104567142D01*
X118485428Y-104307142D02*
X118485428Y-103787142D01*
X118485428Y-104232857D02*
X118522571Y-104270000D01*
X118596857Y-104307142D01*
X118708285Y-104307142D01*
X118782571Y-104270000D01*
X118819714Y-104195714D01*
X118819714Y-103787142D01*
X115996857Y-102064285D02*
X115328285Y-101061428D01*
X116256857Y-101247142D02*
X116256857Y-102027142D01*
X116702571Y-101247142D01*
X116702571Y-102027142D01*
X117074000Y-101247142D02*
X117074000Y-102027142D01*
X117334000Y-101470000D01*
X117594000Y-102027142D01*
X117594000Y-101247142D01*
X117965428Y-101247142D02*
X117965428Y-102027142D01*
X115402571Y-98930000D02*
X115774000Y-98930000D01*
X115328285Y-98707142D02*
X115588285Y-99487142D01*
X115848285Y-98707142D01*
X116516857Y-98707142D02*
X116071142Y-98707142D01*
X116294000Y-98707142D02*
X116294000Y-99487142D01*
X116219714Y-99375714D01*
X116145428Y-99301428D01*
X116071142Y-99264285D01*
X117222571Y-99487142D02*
X116851142Y-99487142D01*
X116814000Y-99115714D01*
X116851142Y-99152857D01*
X116925428Y-99190000D01*
X117111142Y-99190000D01*
X117185428Y-99152857D01*
X117222571Y-99115714D01*
X117259714Y-99041428D01*
X117259714Y-98855714D01*
X117222571Y-98781428D01*
X117185428Y-98744285D01*
X117111142Y-98707142D01*
X116925428Y-98707142D01*
X116851142Y-98744285D01*
X116814000Y-98781428D01*
X115439714Y-96575714D02*
X115699714Y-96575714D01*
X115811142Y-96167142D02*
X115439714Y-96167142D01*
X115439714Y-96947142D01*
X115811142Y-96947142D01*
X116071142Y-96947142D02*
X116591142Y-96167142D01*
X116591142Y-96947142D02*
X116071142Y-96167142D01*
X116888285Y-96167142D02*
X116888285Y-96947142D01*
X117185428Y-96947142D01*
X117259714Y-96910000D01*
X117296857Y-96872857D01*
X117334000Y-96798571D01*
X117334000Y-96687142D01*
X117296857Y-96612857D01*
X117259714Y-96575714D01*
X117185428Y-96538571D01*
X116888285Y-96538571D01*
X117705428Y-96167142D02*
X117854000Y-96167142D01*
X117928285Y-96204285D01*
X117965428Y-96241428D01*
X118039714Y-96352857D01*
X118076857Y-96501428D01*
X118076857Y-96798571D01*
X118039714Y-96872857D01*
X118002571Y-96910000D01*
X117928285Y-96947142D01*
X117779714Y-96947142D01*
X117705428Y-96910000D01*
X117668285Y-96872857D01*
X117631142Y-96798571D01*
X117631142Y-96612857D01*
X117668285Y-96538571D01*
X117705428Y-96501428D01*
X117779714Y-96464285D01*
X117928285Y-96464285D01*
X118002571Y-96501428D01*
X118039714Y-96538571D01*
X118076857Y-96612857D01*
X115439714Y-94035714D02*
X115699714Y-94035714D01*
X115811142Y-93627142D02*
X115439714Y-93627142D01*
X115439714Y-94407142D01*
X115811142Y-94407142D01*
X116071142Y-94407142D02*
X116591142Y-93627142D01*
X116591142Y-94407142D02*
X116071142Y-93627142D01*
X116888285Y-93627142D02*
X116888285Y-94407142D01*
X117185428Y-94407142D01*
X117259714Y-94370000D01*
X117296857Y-94332857D01*
X117334000Y-94258571D01*
X117334000Y-94147142D01*
X117296857Y-94072857D01*
X117259714Y-94035714D01*
X117185428Y-93998571D01*
X116888285Y-93998571D01*
X117779714Y-94072857D02*
X117705428Y-94110000D01*
X117668285Y-94147142D01*
X117631142Y-94221428D01*
X117631142Y-94258571D01*
X117668285Y-94332857D01*
X117705428Y-94370000D01*
X117779714Y-94407142D01*
X117928285Y-94407142D01*
X118002571Y-94370000D01*
X118039714Y-94332857D01*
X118076857Y-94258571D01*
X118076857Y-94221428D01*
X118039714Y-94147142D01*
X118002571Y-94110000D01*
X117928285Y-94072857D01*
X117779714Y-94072857D01*
X117705428Y-94035714D01*
X117668285Y-93998571D01*
X117631142Y-93924285D01*
X117631142Y-93775714D01*
X117668285Y-93701428D01*
X117705428Y-93664285D01*
X117779714Y-93627142D01*
X117928285Y-93627142D01*
X118002571Y-93664285D01*
X118039714Y-93701428D01*
X118076857Y-93775714D01*
X118076857Y-93924285D01*
X118039714Y-93998571D01*
X118002571Y-94035714D01*
X117928285Y-94072857D01*
X115439714Y-91495714D02*
X115699714Y-91495714D01*
X115811142Y-91087142D02*
X115439714Y-91087142D01*
X115439714Y-91867142D01*
X115811142Y-91867142D01*
X116071142Y-91867142D02*
X116591142Y-91087142D01*
X116591142Y-91867142D02*
X116071142Y-91087142D01*
X116888285Y-91087142D02*
X116888285Y-91867142D01*
X117185428Y-91867142D01*
X117259714Y-91830000D01*
X117296857Y-91792857D01*
X117334000Y-91718571D01*
X117334000Y-91607142D01*
X117296857Y-91532857D01*
X117259714Y-91495714D01*
X117185428Y-91458571D01*
X116888285Y-91458571D01*
X117594000Y-91867142D02*
X118114000Y-91867142D01*
X117779714Y-91087142D01*
X115439714Y-88955714D02*
X115699714Y-88955714D01*
X115811142Y-88547142D02*
X115439714Y-88547142D01*
X115439714Y-89327142D01*
X115811142Y-89327142D01*
X116071142Y-89327142D02*
X116591142Y-88547142D01*
X116591142Y-89327142D02*
X116071142Y-88547142D01*
X116888285Y-88547142D02*
X116888285Y-89327142D01*
X117185428Y-89327142D01*
X117259714Y-89290000D01*
X117296857Y-89252857D01*
X117334000Y-89178571D01*
X117334000Y-89067142D01*
X117296857Y-88992857D01*
X117259714Y-88955714D01*
X117185428Y-88918571D01*
X116888285Y-88918571D01*
X118002571Y-89327142D02*
X117854000Y-89327142D01*
X117779714Y-89290000D01*
X117742571Y-89252857D01*
X117668285Y-89141428D01*
X117631142Y-88992857D01*
X117631142Y-88695714D01*
X117668285Y-88621428D01*
X117705428Y-88584285D01*
X117779714Y-88547142D01*
X117928285Y-88547142D01*
X118002571Y-88584285D01*
X118039714Y-88621428D01*
X118076857Y-88695714D01*
X118076857Y-88881428D01*
X118039714Y-88955714D01*
X118002571Y-88992857D01*
X117928285Y-89030000D01*
X117779714Y-89030000D01*
X117705428Y-88992857D01*
X117668285Y-88955714D01*
X117631142Y-88881428D01*
X115439714Y-86415714D02*
X115699714Y-86415714D01*
X115811142Y-86007142D02*
X115439714Y-86007142D01*
X115439714Y-86787142D01*
X115811142Y-86787142D01*
X116071142Y-86787142D02*
X116591142Y-86007142D01*
X116591142Y-86787142D02*
X116071142Y-86007142D01*
X116888285Y-86007142D02*
X116888285Y-86787142D01*
X117185428Y-86787142D01*
X117259714Y-86750000D01*
X117296857Y-86712857D01*
X117334000Y-86638571D01*
X117334000Y-86527142D01*
X117296857Y-86452857D01*
X117259714Y-86415714D01*
X117185428Y-86378571D01*
X116888285Y-86378571D01*
X118039714Y-86787142D02*
X117668285Y-86787142D01*
X117631142Y-86415714D01*
X117668285Y-86452857D01*
X117742571Y-86490000D01*
X117928285Y-86490000D01*
X118002571Y-86452857D01*
X118039714Y-86415714D01*
X118076857Y-86341428D01*
X118076857Y-86155714D01*
X118039714Y-86081428D01*
X118002571Y-86044285D01*
X117928285Y-86007142D01*
X117742571Y-86007142D01*
X117668285Y-86044285D01*
X117631142Y-86081428D01*
X115662571Y-84247142D02*
X115662571Y-83690000D01*
X115625428Y-83578571D01*
X115551142Y-83504285D01*
X115439714Y-83467142D01*
X115365428Y-83467142D01*
X116034000Y-83467142D02*
X116034000Y-84247142D01*
X116331142Y-84247142D01*
X116405428Y-84210000D01*
X116442571Y-84172857D01*
X116479714Y-84098571D01*
X116479714Y-83987142D01*
X116442571Y-83912857D01*
X116405428Y-83875714D01*
X116331142Y-83838571D01*
X116034000Y-83838571D01*
X116776857Y-84172857D02*
X116814000Y-84210000D01*
X116888285Y-84247142D01*
X117074000Y-84247142D01*
X117148285Y-84210000D01*
X117185428Y-84172857D01*
X117222571Y-84098571D01*
X117222571Y-84024285D01*
X117185428Y-83912857D01*
X116739714Y-83467142D01*
X117222571Y-83467142D01*
X118708285Y-84284285D02*
X118039714Y-83281428D01*
X119116857Y-84247142D02*
X119265428Y-84247142D01*
X119339714Y-84210000D01*
X119414000Y-84135714D01*
X119451142Y-83987142D01*
X119451142Y-83727142D01*
X119414000Y-83578571D01*
X119339714Y-83504285D01*
X119265428Y-83467142D01*
X119116857Y-83467142D01*
X119042571Y-83504285D01*
X118968285Y-83578571D01*
X118931142Y-83727142D01*
X118931142Y-83987142D01*
X118968285Y-84135714D01*
X119042571Y-84210000D01*
X119116857Y-84247142D01*
X119785428Y-83875714D02*
X120045428Y-83875714D01*
X120156857Y-83467142D02*
X119785428Y-83467142D01*
X119785428Y-84247142D01*
X120156857Y-84247142D01*
X115662571Y-81707142D02*
X115662571Y-81150000D01*
X115625428Y-81038571D01*
X115551142Y-80964285D01*
X115439714Y-80927142D01*
X115365428Y-80927142D01*
X116034000Y-80927142D02*
X116034000Y-81707142D01*
X116331142Y-81707142D01*
X116405428Y-81670000D01*
X116442571Y-81632857D01*
X116479714Y-81558571D01*
X116479714Y-81447142D01*
X116442571Y-81372857D01*
X116405428Y-81335714D01*
X116331142Y-81298571D01*
X116034000Y-81298571D01*
X117222571Y-80927142D02*
X116776857Y-80927142D01*
X116999714Y-80927142D02*
X116999714Y-81707142D01*
X116925428Y-81595714D01*
X116851142Y-81521428D01*
X116776857Y-81484285D01*
X118151142Y-80927142D02*
X118151142Y-81707142D01*
X118336857Y-81707142D01*
X118448285Y-81670000D01*
X118522571Y-81595714D01*
X118559714Y-81521428D01*
X118596857Y-81372857D01*
X118596857Y-81261428D01*
X118559714Y-81112857D01*
X118522571Y-81038571D01*
X118448285Y-80964285D01*
X118336857Y-80927142D01*
X118151142Y-80927142D01*
X119339714Y-80927142D02*
X118894000Y-80927142D01*
X119116857Y-80927142D02*
X119116857Y-81707142D01*
X119042571Y-81595714D01*
X118968285Y-81521428D01*
X118894000Y-81484285D01*
X115662571Y-79167142D02*
X115662571Y-78610000D01*
X115625428Y-78498571D01*
X115551142Y-78424285D01*
X115439714Y-78387142D01*
X115365428Y-78387142D01*
X116034000Y-78387142D02*
X116034000Y-79167142D01*
X116331142Y-79167142D01*
X116405428Y-79130000D01*
X116442571Y-79092857D01*
X116479714Y-79018571D01*
X116479714Y-78907142D01*
X116442571Y-78832857D01*
X116405428Y-78795714D01*
X116331142Y-78758571D01*
X116034000Y-78758571D01*
X117222571Y-78387142D02*
X116776857Y-78387142D01*
X116999714Y-78387142D02*
X116999714Y-79167142D01*
X116925428Y-79055714D01*
X116851142Y-78981428D01*
X116776857Y-78944285D01*
X118151142Y-78387142D02*
X118151142Y-79167142D01*
X118336857Y-79167142D01*
X118448285Y-79130000D01*
X118522571Y-79055714D01*
X118559714Y-78981428D01*
X118596857Y-78832857D01*
X118596857Y-78721428D01*
X118559714Y-78572857D01*
X118522571Y-78498571D01*
X118448285Y-78424285D01*
X118336857Y-78387142D01*
X118151142Y-78387142D01*
X118856857Y-79167142D02*
X119339714Y-79167142D01*
X119079714Y-78870000D01*
X119191142Y-78870000D01*
X119265428Y-78832857D01*
X119302571Y-78795714D01*
X119339714Y-78721428D01*
X119339714Y-78535714D01*
X119302571Y-78461428D01*
X119265428Y-78424285D01*
X119191142Y-78387142D01*
X118968285Y-78387142D01*
X118894000Y-78424285D01*
X118856857Y-78461428D01*
X115996857Y-76664285D02*
X115328285Y-75661428D01*
X116256857Y-75847142D02*
X116256857Y-76627142D01*
X117074000Y-75847142D02*
X116814000Y-76218571D01*
X116628285Y-75847142D02*
X116628285Y-76627142D01*
X116925428Y-76627142D01*
X116999714Y-76590000D01*
X117036857Y-76552857D01*
X117074000Y-76478571D01*
X117074000Y-76367142D01*
X117036857Y-76292857D01*
X116999714Y-76255714D01*
X116925428Y-76218571D01*
X116628285Y-76218571D01*
X117928285Y-75772857D02*
X117854000Y-75810000D01*
X117779714Y-75884285D01*
X117668285Y-75995714D01*
X117594000Y-76032857D01*
X117519714Y-76032857D01*
X117556857Y-75847142D02*
X117482571Y-75884285D01*
X117408285Y-75958571D01*
X117371142Y-76107142D01*
X117371142Y-76367142D01*
X117408285Y-76515714D01*
X117482571Y-76590000D01*
X117556857Y-76627142D01*
X117705428Y-76627142D01*
X117779714Y-76590000D01*
X117854000Y-76515714D01*
X117891142Y-76367142D01*
X117891142Y-76107142D01*
X117854000Y-75958571D01*
X117779714Y-75884285D01*
X117705428Y-75847142D01*
X117556857Y-75847142D01*
X115662571Y-74087142D02*
X115662571Y-73530000D01*
X115625428Y-73418571D01*
X115551142Y-73344285D01*
X115439714Y-73307142D01*
X115365428Y-73307142D01*
X116034000Y-73307142D02*
X116034000Y-74087142D01*
X116331142Y-74087142D01*
X116405428Y-74050000D01*
X116442571Y-74012857D01*
X116479714Y-73938571D01*
X116479714Y-73827142D01*
X116442571Y-73752857D01*
X116405428Y-73715714D01*
X116331142Y-73678571D01*
X116034000Y-73678571D01*
X116776857Y-74012857D02*
X116814000Y-74050000D01*
X116888285Y-74087142D01*
X117074000Y-74087142D01*
X117148285Y-74050000D01*
X117185428Y-74012857D01*
X117222571Y-73938571D01*
X117222571Y-73864285D01*
X117185428Y-73752857D01*
X116739714Y-73307142D01*
X117222571Y-73307142D01*
X118151142Y-73307142D02*
X118151142Y-74087142D01*
X118336857Y-74087142D01*
X118448285Y-74050000D01*
X118522571Y-73975714D01*
X118559714Y-73901428D01*
X118596857Y-73752857D01*
X118596857Y-73641428D01*
X118559714Y-73492857D01*
X118522571Y-73418571D01*
X118448285Y-73344285D01*
X118336857Y-73307142D01*
X118151142Y-73307142D01*
X118894000Y-74012857D02*
X118931142Y-74050000D01*
X119005428Y-74087142D01*
X119191142Y-74087142D01*
X119265428Y-74050000D01*
X119302571Y-74012857D01*
X119339714Y-73938571D01*
X119339714Y-73864285D01*
X119302571Y-73752857D01*
X118856857Y-73307142D01*
X119339714Y-73307142D01*
X115662571Y-71547142D02*
X115662571Y-70990000D01*
X115625428Y-70878571D01*
X115551142Y-70804285D01*
X115439714Y-70767142D01*
X115365428Y-70767142D01*
X116034000Y-70767142D02*
X116034000Y-71547142D01*
X116331142Y-71547142D01*
X116405428Y-71510000D01*
X116442571Y-71472857D01*
X116479714Y-71398571D01*
X116479714Y-71287142D01*
X116442571Y-71212857D01*
X116405428Y-71175714D01*
X116331142Y-71138571D01*
X116034000Y-71138571D01*
X116776857Y-71472857D02*
X116814000Y-71510000D01*
X116888285Y-71547142D01*
X117074000Y-71547142D01*
X117148285Y-71510000D01*
X117185428Y-71472857D01*
X117222571Y-71398571D01*
X117222571Y-71324285D01*
X117185428Y-71212857D01*
X116739714Y-70767142D01*
X117222571Y-70767142D01*
X118151142Y-70767142D02*
X118151142Y-71547142D01*
X118336857Y-71547142D01*
X118448285Y-71510000D01*
X118522571Y-71435714D01*
X118559714Y-71361428D01*
X118596857Y-71212857D01*
X118596857Y-71101428D01*
X118559714Y-70952857D01*
X118522571Y-70878571D01*
X118448285Y-70804285D01*
X118336857Y-70767142D01*
X118151142Y-70767142D01*
X118856857Y-71547142D02*
X119339714Y-71547142D01*
X119079714Y-71250000D01*
X119191142Y-71250000D01*
X119265428Y-71212857D01*
X119302571Y-71175714D01*
X119339714Y-71101428D01*
X119339714Y-70915714D01*
X119302571Y-70841428D01*
X119265428Y-70804285D01*
X119191142Y-70767142D01*
X118968285Y-70767142D01*
X118894000Y-70804285D01*
X118856857Y-70841428D01*
X115662571Y-69007142D02*
X115662571Y-68450000D01*
X115625428Y-68338571D01*
X115551142Y-68264285D01*
X115439714Y-68227142D01*
X115365428Y-68227142D01*
X116034000Y-68227142D02*
X116034000Y-69007142D01*
X116331142Y-69007142D01*
X116405428Y-68970000D01*
X116442571Y-68932857D01*
X116479714Y-68858571D01*
X116479714Y-68747142D01*
X116442571Y-68672857D01*
X116405428Y-68635714D01*
X116331142Y-68598571D01*
X116034000Y-68598571D01*
X116776857Y-68932857D02*
X116814000Y-68970000D01*
X116888285Y-69007142D01*
X117074000Y-69007142D01*
X117148285Y-68970000D01*
X117185428Y-68932857D01*
X117222571Y-68858571D01*
X117222571Y-68784285D01*
X117185428Y-68672857D01*
X116739714Y-68227142D01*
X117222571Y-68227142D01*
X118708285Y-69044285D02*
X118039714Y-68041428D01*
X119116857Y-69007142D02*
X119265428Y-69007142D01*
X119339714Y-68970000D01*
X119414000Y-68895714D01*
X119451142Y-68747142D01*
X119451142Y-68487142D01*
X119414000Y-68338571D01*
X119339714Y-68264285D01*
X119265428Y-68227142D01*
X119116857Y-68227142D01*
X119042571Y-68264285D01*
X118968285Y-68338571D01*
X118931142Y-68487142D01*
X118931142Y-68747142D01*
X118968285Y-68895714D01*
X119042571Y-68970000D01*
X119116857Y-69007142D01*
X119785428Y-68635714D02*
X120045428Y-68635714D01*
X120156857Y-68227142D02*
X119785428Y-68227142D01*
X119785428Y-69007142D01*
X120156857Y-69007142D01*
X115662571Y-66467142D02*
X115662571Y-65910000D01*
X115625428Y-65798571D01*
X115551142Y-65724285D01*
X115439714Y-65687142D01*
X115365428Y-65687142D01*
X116034000Y-65687142D02*
X116034000Y-66467142D01*
X116331142Y-66467142D01*
X116405428Y-66430000D01*
X116442571Y-66392857D01*
X116479714Y-66318571D01*
X116479714Y-66207142D01*
X116442571Y-66132857D01*
X116405428Y-66095714D01*
X116331142Y-66058571D01*
X116034000Y-66058571D01*
X116776857Y-66392857D02*
X116814000Y-66430000D01*
X116888285Y-66467142D01*
X117074000Y-66467142D01*
X117148285Y-66430000D01*
X117185428Y-66392857D01*
X117222571Y-66318571D01*
X117222571Y-66244285D01*
X117185428Y-66132857D01*
X116739714Y-65687142D01*
X117222571Y-65687142D01*
X118151142Y-65687142D02*
X118151142Y-66467142D01*
X118336857Y-66467142D01*
X118448285Y-66430000D01*
X118522571Y-66355714D01*
X118559714Y-66281428D01*
X118596857Y-66132857D01*
X118596857Y-66021428D01*
X118559714Y-65872857D01*
X118522571Y-65798571D01*
X118448285Y-65724285D01*
X118336857Y-65687142D01*
X118151142Y-65687142D01*
X119265428Y-66207142D02*
X119265428Y-65687142D01*
X119079714Y-66504285D02*
X118894000Y-65947142D01*
X119376857Y-65947142D01*
X115662571Y-63927142D02*
X115662571Y-63370000D01*
X115625428Y-63258571D01*
X115551142Y-63184285D01*
X115439714Y-63147142D01*
X115365428Y-63147142D01*
X116034000Y-63147142D02*
X116034000Y-63927142D01*
X116331142Y-63927142D01*
X116405428Y-63890000D01*
X116442571Y-63852857D01*
X116479714Y-63778571D01*
X116479714Y-63667142D01*
X116442571Y-63592857D01*
X116405428Y-63555714D01*
X116331142Y-63518571D01*
X116034000Y-63518571D01*
X116776857Y-63852857D02*
X116814000Y-63890000D01*
X116888285Y-63927142D01*
X117074000Y-63927142D01*
X117148285Y-63890000D01*
X117185428Y-63852857D01*
X117222571Y-63778571D01*
X117222571Y-63704285D01*
X117185428Y-63592857D01*
X116739714Y-63147142D01*
X117222571Y-63147142D01*
X118151142Y-63147142D02*
X118151142Y-63927142D01*
X118336857Y-63927142D01*
X118448285Y-63890000D01*
X118522571Y-63815714D01*
X118559714Y-63741428D01*
X118596857Y-63592857D01*
X118596857Y-63481428D01*
X118559714Y-63332857D01*
X118522571Y-63258571D01*
X118448285Y-63184285D01*
X118336857Y-63147142D01*
X118151142Y-63147142D01*
X119079714Y-63927142D02*
X119154000Y-63927142D01*
X119228285Y-63890000D01*
X119265428Y-63852857D01*
X119302571Y-63778571D01*
X119339714Y-63630000D01*
X119339714Y-63444285D01*
X119302571Y-63295714D01*
X119265428Y-63221428D01*
X119228285Y-63184285D01*
X119154000Y-63147142D01*
X119079714Y-63147142D01*
X119005428Y-63184285D01*
X118968285Y-63221428D01*
X118931142Y-63295714D01*
X118894000Y-63444285D01*
X118894000Y-63630000D01*
X118931142Y-63778571D01*
X118968285Y-63852857D01*
X119005428Y-63890000D01*
X119079714Y-63927142D01*
X115662571Y-61387142D02*
X115662571Y-60830000D01*
X115625428Y-60718571D01*
X115551142Y-60644285D01*
X115439714Y-60607142D01*
X115365428Y-60607142D01*
X116034000Y-60607142D02*
X116034000Y-61387142D01*
X116331142Y-61387142D01*
X116405428Y-61350000D01*
X116442571Y-61312857D01*
X116479714Y-61238571D01*
X116479714Y-61127142D01*
X116442571Y-61052857D01*
X116405428Y-61015714D01*
X116331142Y-60978571D01*
X116034000Y-60978571D01*
X116776857Y-61312857D02*
X116814000Y-61350000D01*
X116888285Y-61387142D01*
X117074000Y-61387142D01*
X117148285Y-61350000D01*
X117185428Y-61312857D01*
X117222571Y-61238571D01*
X117222571Y-61164285D01*
X117185428Y-61052857D01*
X116739714Y-60607142D01*
X117222571Y-60607142D01*
X118151142Y-60607142D02*
X118151142Y-61387142D01*
X118336857Y-61387142D01*
X118448285Y-61350000D01*
X118522571Y-61275714D01*
X118559714Y-61201428D01*
X118596857Y-61052857D01*
X118596857Y-60941428D01*
X118559714Y-60792857D01*
X118522571Y-60718571D01*
X118448285Y-60644285D01*
X118336857Y-60607142D01*
X118151142Y-60607142D01*
X119339714Y-60607142D02*
X118894000Y-60607142D01*
X119116857Y-60607142D02*
X119116857Y-61387142D01*
X119042571Y-61275714D01*
X118968285Y-61201428D01*
X118894000Y-61164285D01*
X115328285Y-58847142D02*
X115588285Y-58067142D01*
X115848285Y-58847142D01*
X116108285Y-58067142D02*
X116108285Y-58587142D01*
X116108285Y-58847142D02*
X116071142Y-58810000D01*
X116108285Y-58772857D01*
X116145428Y-58810000D01*
X116108285Y-58847142D01*
X116108285Y-58772857D01*
X116814000Y-58067142D02*
X116814000Y-58847142D01*
X116814000Y-58104285D02*
X116739714Y-58067142D01*
X116591142Y-58067142D01*
X116516857Y-58104285D01*
X116479714Y-58141428D01*
X116442571Y-58215714D01*
X116442571Y-58438571D01*
X116479714Y-58512857D01*
X116516857Y-58550000D01*
X116591142Y-58587142D01*
X116739714Y-58587142D01*
X116814000Y-58550000D01*
X117928285Y-58847142D02*
X118076857Y-58847142D01*
X118151142Y-58810000D01*
X118225428Y-58735714D01*
X118262571Y-58587142D01*
X118262571Y-58327142D01*
X118225428Y-58178571D01*
X118151142Y-58104285D01*
X118076857Y-58067142D01*
X117928285Y-58067142D01*
X117854000Y-58104285D01*
X117779714Y-58178571D01*
X117742571Y-58327142D01*
X117742571Y-58587142D01*
X117779714Y-58735714D01*
X117854000Y-58810000D01*
X117928285Y-58847142D01*
X118931142Y-58587142D02*
X118931142Y-58067142D01*
X118596857Y-58587142D02*
X118596857Y-58178571D01*
X118634000Y-58104285D01*
X118708285Y-58067142D01*
X118819714Y-58067142D01*
X118894000Y-58104285D01*
X118931142Y-58141428D01*
X119191142Y-58587142D02*
X119488285Y-58587142D01*
X119302571Y-58847142D02*
X119302571Y-58178571D01*
X119339714Y-58104285D01*
X119414000Y-58067142D01*
X119488285Y-58067142D01*
X115402571Y-55750000D02*
X115774000Y-55750000D01*
X115328285Y-55527142D02*
X115588285Y-56307142D01*
X115848285Y-55527142D01*
X116442571Y-56047142D02*
X116442571Y-55527142D01*
X116108285Y-56047142D02*
X116108285Y-55638571D01*
X116145428Y-55564285D01*
X116219714Y-55527142D01*
X116331142Y-55527142D01*
X116405428Y-55564285D01*
X116442571Y-55601428D01*
X117148285Y-55527142D02*
X117148285Y-56307142D01*
X117148285Y-55564285D02*
X117074000Y-55527142D01*
X116925428Y-55527142D01*
X116851142Y-55564285D01*
X116814000Y-55601428D01*
X116776857Y-55675714D01*
X116776857Y-55898571D01*
X116814000Y-55972857D01*
X116851142Y-56010000D01*
X116925428Y-56047142D01*
X117074000Y-56047142D01*
X117148285Y-56010000D01*
X118262571Y-56307142D02*
X118411142Y-56307142D01*
X118485428Y-56270000D01*
X118559714Y-56195714D01*
X118596857Y-56047142D01*
X118596857Y-55787142D01*
X118559714Y-55638571D01*
X118485428Y-55564285D01*
X118411142Y-55527142D01*
X118262571Y-55527142D01*
X118188285Y-55564285D01*
X118114000Y-55638571D01*
X118076857Y-55787142D01*
X118076857Y-56047142D01*
X118114000Y-56195714D01*
X118188285Y-56270000D01*
X118262571Y-56307142D01*
X119265428Y-56047142D02*
X119265428Y-55527142D01*
X118931142Y-56047142D02*
X118931142Y-55638571D01*
X118968285Y-55564285D01*
X119042571Y-55527142D01*
X119154000Y-55527142D01*
X119228285Y-55564285D01*
X119265428Y-55601428D01*
X119525428Y-56047142D02*
X119822571Y-56047142D01*
X119636857Y-56307142D02*
X119636857Y-55638571D01*
X119674000Y-55564285D01*
X119748285Y-55527142D01*
X119822571Y-55527142D01*
X115439714Y-52987142D02*
X115439714Y-53767142D01*
X115736857Y-53767142D01*
X115811142Y-53730000D01*
X115848285Y-53692857D01*
X115885428Y-53618571D01*
X115885428Y-53507142D01*
X115848285Y-53432857D01*
X115811142Y-53395714D01*
X115736857Y-53358571D01*
X115439714Y-53358571D01*
X116182571Y-53024285D02*
X116294000Y-52987142D01*
X116479714Y-52987142D01*
X116554000Y-53024285D01*
X116591142Y-53061428D01*
X116628285Y-53135714D01*
X116628285Y-53210000D01*
X116591142Y-53284285D01*
X116554000Y-53321428D01*
X116479714Y-53358571D01*
X116331142Y-53395714D01*
X116256857Y-53432857D01*
X116219714Y-53470000D01*
X116182571Y-53544285D01*
X116182571Y-53618571D01*
X116219714Y-53692857D01*
X116256857Y-53730000D01*
X116331142Y-53767142D01*
X116516857Y-53767142D01*
X116628285Y-53730000D01*
X116962571Y-53767142D02*
X116962571Y-53135714D01*
X116999714Y-53061428D01*
X117036857Y-53024285D01*
X117111142Y-52987142D01*
X117259714Y-52987142D01*
X117334000Y-53024285D01*
X117371142Y-53061428D01*
X117408285Y-53135714D01*
X117408285Y-53767142D01*
X118262571Y-53767142D02*
X118522571Y-52987142D01*
X118782571Y-53767142D01*
X119042571Y-52987142D02*
X119042571Y-53767142D01*
X119228285Y-53767142D01*
X119339714Y-53730000D01*
X119414000Y-53655714D01*
X119451142Y-53581428D01*
X119488285Y-53432857D01*
X119488285Y-53321428D01*
X119451142Y-53172857D01*
X119414000Y-53098571D01*
X119339714Y-53024285D01*
X119228285Y-52987142D01*
X119042571Y-52987142D01*
X119822571Y-52987142D02*
X119822571Y-53767142D01*
X120008285Y-53767142D01*
X120119714Y-53730000D01*
X120194000Y-53655714D01*
X120231142Y-53581428D01*
X120268285Y-53432857D01*
X120268285Y-53321428D01*
X120231142Y-53172857D01*
X120194000Y-53098571D01*
X120119714Y-53024285D01*
X120008285Y-52987142D01*
X119822571Y-52987142D01*
X115885428Y-50521428D02*
X115848285Y-50484285D01*
X115736857Y-50447142D01*
X115662571Y-50447142D01*
X115551142Y-50484285D01*
X115476857Y-50558571D01*
X115439714Y-50632857D01*
X115402571Y-50781428D01*
X115402571Y-50892857D01*
X115439714Y-51041428D01*
X115476857Y-51115714D01*
X115551142Y-51190000D01*
X115662571Y-51227142D01*
X115736857Y-51227142D01*
X115848285Y-51190000D01*
X115885428Y-51152857D01*
X116219714Y-50447142D02*
X116219714Y-51227142D01*
X117036857Y-50521428D02*
X116999714Y-50484285D01*
X116888285Y-50447142D01*
X116814000Y-50447142D01*
X116702571Y-50484285D01*
X116628285Y-50558571D01*
X116591142Y-50632857D01*
X116554000Y-50781428D01*
X116554000Y-50892857D01*
X116591142Y-51041428D01*
X116628285Y-51115714D01*
X116702571Y-51190000D01*
X116814000Y-51227142D01*
X116888285Y-51227142D01*
X116999714Y-51190000D01*
X117036857Y-51152857D01*
X118411142Y-50521428D02*
X118374000Y-50484285D01*
X118262571Y-50447142D01*
X118188285Y-50447142D01*
X118076857Y-50484285D01*
X118002571Y-50558571D01*
X117965428Y-50632857D01*
X117928285Y-50781428D01*
X117928285Y-50892857D01*
X117965428Y-51041428D01*
X118002571Y-51115714D01*
X118076857Y-51190000D01*
X118188285Y-51227142D01*
X118262571Y-51227142D01*
X118374000Y-51190000D01*
X118411142Y-51152857D01*
X119116857Y-50447142D02*
X118745428Y-50447142D01*
X118745428Y-51227142D01*
X119376857Y-50447142D02*
X119376857Y-51227142D01*
X119822571Y-50447142D02*
X119488285Y-50892857D01*
X119822571Y-51227142D02*
X119376857Y-50781428D01*
D11*
X120972142Y-119976428D02*
X120972142Y-121476428D01*
X121829285Y-119976428D01*
X121829285Y-121476428D01*
X122543571Y-120762142D02*
X123043571Y-120762142D01*
X123257857Y-119976428D02*
X122543571Y-119976428D01*
X122543571Y-121476428D01*
X123257857Y-121476428D01*
X123829285Y-120047857D02*
X124043571Y-119976428D01*
X124400714Y-119976428D01*
X124543571Y-120047857D01*
X124615000Y-120119285D01*
X124686428Y-120262142D01*
X124686428Y-120405000D01*
X124615000Y-120547857D01*
X124543571Y-120619285D01*
X124400714Y-120690714D01*
X124115000Y-120762142D01*
X123972142Y-120833571D01*
X123900714Y-120905000D01*
X123829285Y-121047857D01*
X123829285Y-121190714D01*
X123900714Y-121333571D01*
X123972142Y-121405000D01*
X124115000Y-121476428D01*
X124472142Y-121476428D01*
X124686428Y-121405000D01*
X126472142Y-120762142D02*
X126972142Y-120762142D01*
X127186428Y-119976428D02*
X126472142Y-119976428D01*
X126472142Y-121476428D01*
X127186428Y-121476428D01*
X127829285Y-119976428D02*
X127829285Y-121476428D01*
X128400714Y-121476428D01*
X128543571Y-121405000D01*
X128615000Y-121333571D01*
X128686428Y-121190714D01*
X128686428Y-120976428D01*
X128615000Y-120833571D01*
X128543571Y-120762142D01*
X128400714Y-120690714D01*
X127829285Y-120690714D01*
X129257857Y-120047857D02*
X129472142Y-119976428D01*
X129829285Y-119976428D01*
X129972142Y-120047857D01*
X130043571Y-120119285D01*
X130115000Y-120262142D01*
X130115000Y-120405000D01*
X130043571Y-120547857D01*
X129972142Y-120619285D01*
X129829285Y-120690714D01*
X129543571Y-120762142D01*
X129400714Y-120833571D01*
X129329285Y-120905000D01*
X129257857Y-121047857D01*
X129257857Y-121190714D01*
X129329285Y-121333571D01*
X129400714Y-121405000D01*
X129543571Y-121476428D01*
X129900714Y-121476428D01*
X130115000Y-121405000D01*
X130757857Y-119976428D02*
X130757857Y-121476428D01*
X131257857Y-120405000D01*
X131757857Y-121476428D01*
X131757857Y-119976428D01*
X124615000Y-117426428D02*
X124115000Y-118140714D01*
X123757857Y-117426428D02*
X123757857Y-118926428D01*
X124329285Y-118926428D01*
X124472142Y-118855000D01*
X124543571Y-118783571D01*
X124615000Y-118640714D01*
X124615000Y-118426428D01*
X124543571Y-118283571D01*
X124472142Y-118212142D01*
X124329285Y-118140714D01*
X123757857Y-118140714D01*
X125829285Y-117497857D02*
X125686428Y-117426428D01*
X125400714Y-117426428D01*
X125257857Y-117497857D01*
X125186428Y-117640714D01*
X125186428Y-118212142D01*
X125257857Y-118355000D01*
X125400714Y-118426428D01*
X125686428Y-118426428D01*
X125829285Y-118355000D01*
X125900714Y-118212142D01*
X125900714Y-118069285D01*
X125186428Y-117926428D01*
X126400714Y-118426428D02*
X126757857Y-117426428D01*
X127115000Y-118426428D01*
X127686428Y-117569285D02*
X127757857Y-117497857D01*
X127686428Y-117426428D01*
X127615000Y-117497857D01*
X127686428Y-117569285D01*
X127686428Y-117426428D01*
X128329285Y-117855000D02*
X129043571Y-117855000D01*
X128186428Y-117426428D02*
X128686428Y-118926428D01*
X129186428Y-117426428D01*
D12*
%TO.C,J3*%
X111700000Y-110550000D02*
X113030000Y-110550000D01*
X111700000Y-109220000D02*
X111700000Y-110550000D01*
X111700000Y-107950000D02*
X114360000Y-107950000D01*
X114360000Y-107950000D02*
X114360000Y-49470000D01*
X111700000Y-107950000D02*
X111700000Y-49470000D01*
X111700000Y-49470000D02*
X114360000Y-49470000D01*
%TO.C,J4*%
X106620000Y-110550000D02*
X107950000Y-110550000D01*
X106620000Y-109220000D02*
X106620000Y-110550000D01*
X106620000Y-107950000D02*
X109280000Y-107950000D01*
X109280000Y-107950000D02*
X109280000Y-49470000D01*
X106620000Y-107950000D02*
X106620000Y-49470000D01*
X106620000Y-49470000D02*
X109280000Y-49470000D01*
%TO.C,J3*%
D13*
X113363333Y-111002380D02*
X113363333Y-111716666D01*
X113410952Y-111859523D01*
X113506190Y-111954761D01*
X113649047Y-112002380D01*
X113744285Y-112002380D01*
X112982380Y-111002380D02*
X112363333Y-111002380D01*
X112696666Y-111383333D01*
X112553809Y-111383333D01*
X112458571Y-111430952D01*
X112410952Y-111478571D01*
X112363333Y-111573809D01*
X112363333Y-111811904D01*
X112410952Y-111907142D01*
X112458571Y-111954761D01*
X112553809Y-112002380D01*
X112839523Y-112002380D01*
X112934761Y-111954761D01*
X112982380Y-111907142D01*
%TO.C,J4*%
X108283333Y-111002380D02*
X108283333Y-111716666D01*
X108330952Y-111859523D01*
X108426190Y-111954761D01*
X108569047Y-112002380D01*
X108664285Y-112002380D01*
X107378571Y-111335714D02*
X107378571Y-112002380D01*
X107616666Y-110954761D02*
X107854761Y-111669047D01*
X107235714Y-111669047D01*
%TD*%
M02*
