%TF.GenerationSoftware,KiCad,Pcbnew,(5.1.10)-1*%
%TF.CreationDate,2021-05-27T19:28:44+02:00*%
%TF.ProjectId,Nes Sound Expansion,4e657320-536f-4756-9e64-20457870616e,rev?*%
%TF.SameCoordinates,Original*%
%TF.FileFunction,Copper,L1,Top*%
%TF.FilePolarity,Positive*%
%FSLAX46Y46*%
G04 Gerber Fmt 4.6, Leading zero omitted, Abs format (unit mm)*
G04 Created by KiCad (PCBNEW (5.1.10)-1) date 2021-05-27 19:28:44*
%MOMM*%
%LPD*%
G01*
G04 APERTURE LIST*
%TA.AperFunction,ComponentPad*%
%ADD10O,1.700000X1.700000*%
%TD*%
%TA.AperFunction,ComponentPad*%
%ADD11R,1.700000X1.700000*%
%TD*%
%TA.AperFunction,SMDPad,CuDef*%
%ADD12R,1.120000X2.160000*%
%TD*%
%TA.AperFunction,SMDPad,CuDef*%
%ADD13R,1.200000X1.400000*%
%TD*%
%TA.AperFunction,SMDPad,CuDef*%
%ADD14R,2.000000X1.500000*%
%TD*%
%TA.AperFunction,ViaPad*%
%ADD15C,0.800000*%
%TD*%
%TA.AperFunction,Conductor*%
%ADD16C,0.500000*%
%TD*%
%TA.AperFunction,Conductor*%
%ADD17C,0.250000*%
%TD*%
G04 APERTURE END LIST*
%TO.P,J7,2*%
%TO.N,+5V*%
%TA.AperFunction,SMDPad,CuDef*%
G36*
G01*
X98730750Y-111820000D02*
X99643250Y-111820000D01*
G75*
G02*
X99887000Y-112063750I0J-243750D01*
G01*
X99887000Y-112551250D01*
G75*
G02*
X99643250Y-112795000I-243750J0D01*
G01*
X98730750Y-112795000D01*
G75*
G02*
X98487000Y-112551250I0J243750D01*
G01*
X98487000Y-112063750D01*
G75*
G02*
X98730750Y-111820000I243750J0D01*
G01*
G37*
%TD.AperFunction*%
%TO.P,J7,1*%
%TO.N,Net-(J7-Pad1)*%
%TA.AperFunction,SMDPad,CuDef*%
G36*
G01*
X98730750Y-109945000D02*
X99643250Y-109945000D01*
G75*
G02*
X99887000Y-110188750I0J-243750D01*
G01*
X99887000Y-110676250D01*
G75*
G02*
X99643250Y-110920000I-243750J0D01*
G01*
X98730750Y-110920000D01*
G75*
G02*
X98487000Y-110676250I0J243750D01*
G01*
X98487000Y-110188750D01*
G75*
G02*
X98730750Y-109945000I243750J0D01*
G01*
G37*
%TD.AperFunction*%
%TD*%
%TO.P,R19,2*%
%TO.N,AudIn*%
%TA.AperFunction,SMDPad,CuDef*%
G36*
G01*
X103629000Y-93275998D02*
X103629000Y-94176002D01*
G75*
G02*
X103379002Y-94426000I-249998J0D01*
G01*
X102853998Y-94426000D01*
G75*
G02*
X102604000Y-94176002I0J249998D01*
G01*
X102604000Y-93275998D01*
G75*
G02*
X102853998Y-93026000I249998J0D01*
G01*
X103379002Y-93026000D01*
G75*
G02*
X103629000Y-93275998I0J-249998D01*
G01*
G37*
%TD.AperFunction*%
%TO.P,R19,1*%
%TO.N,Net-(J4-Pad9)*%
%TA.AperFunction,SMDPad,CuDef*%
G36*
G01*
X105454000Y-93275998D02*
X105454000Y-94176002D01*
G75*
G02*
X105204002Y-94426000I-249998J0D01*
G01*
X104678998Y-94426000D01*
G75*
G02*
X104429000Y-94176002I0J249998D01*
G01*
X104429000Y-93275998D01*
G75*
G02*
X104678998Y-93026000I249998J0D01*
G01*
X105204002Y-93026000D01*
G75*
G02*
X105454000Y-93275998I0J-249998D01*
G01*
G37*
%TD.AperFunction*%
%TD*%
%TO.P,R18,2*%
%TO.N,AudIn*%
%TA.AperFunction,SMDPad,CuDef*%
G36*
G01*
X103629000Y-99244998D02*
X103629000Y-100145002D01*
G75*
G02*
X103379002Y-100395000I-249998J0D01*
G01*
X102853998Y-100395000D01*
G75*
G02*
X102604000Y-100145002I0J249998D01*
G01*
X102604000Y-99244998D01*
G75*
G02*
X102853998Y-98995000I249998J0D01*
G01*
X103379002Y-98995000D01*
G75*
G02*
X103629000Y-99244998I0J-249998D01*
G01*
G37*
%TD.AperFunction*%
%TO.P,R18,1*%
%TO.N,Net-(J3-Pad6)*%
%TA.AperFunction,SMDPad,CuDef*%
G36*
G01*
X105454000Y-99244998D02*
X105454000Y-100145002D01*
G75*
G02*
X105204002Y-100395000I-249998J0D01*
G01*
X104678998Y-100395000D01*
G75*
G02*
X104429000Y-100145002I0J249998D01*
G01*
X104429000Y-99244998D01*
G75*
G02*
X104678998Y-98995000I249998J0D01*
G01*
X105204002Y-98995000D01*
G75*
G02*
X105454000Y-99244998I0J-249998D01*
G01*
G37*
%TD.AperFunction*%
%TD*%
%TO.P,R4,2*%
%TO.N,AudIn*%
%TA.AperFunction,SMDPad,CuDef*%
G36*
G01*
X103629000Y-96323998D02*
X103629000Y-97224002D01*
G75*
G02*
X103379002Y-97474000I-249998J0D01*
G01*
X102853998Y-97474000D01*
G75*
G02*
X102604000Y-97224002I0J249998D01*
G01*
X102604000Y-96323998D01*
G75*
G02*
X102853998Y-96074000I249998J0D01*
G01*
X103379002Y-96074000D01*
G75*
G02*
X103629000Y-96323998I0J-249998D01*
G01*
G37*
%TD.AperFunction*%
%TO.P,R4,1*%
%TO.N,Net-(J3-Pad9)*%
%TA.AperFunction,SMDPad,CuDef*%
G36*
G01*
X105454000Y-96323998D02*
X105454000Y-97224002D01*
G75*
G02*
X105204002Y-97474000I-249998J0D01*
G01*
X104678998Y-97474000D01*
G75*
G02*
X104429000Y-97224002I0J249998D01*
G01*
X104429000Y-96323998D01*
G75*
G02*
X104678998Y-96074000I249998J0D01*
G01*
X105204002Y-96074000D01*
G75*
G02*
X105454000Y-96323998I0J-249998D01*
G01*
G37*
%TD.AperFunction*%
%TD*%
%TO.P,R17,2*%
%TO.N,A13*%
%TA.AperFunction,SMDPad,CuDef*%
G36*
G01*
X116551000Y-91116998D02*
X116551000Y-92017002D01*
G75*
G02*
X116301002Y-92267000I-249998J0D01*
G01*
X115775998Y-92267000D01*
G75*
G02*
X115526000Y-92017002I0J249998D01*
G01*
X115526000Y-91116998D01*
G75*
G02*
X115775998Y-90867000I249998J0D01*
G01*
X116301002Y-90867000D01*
G75*
G02*
X116551000Y-91116998I0J-249998D01*
G01*
G37*
%TD.AperFunction*%
%TO.P,R17,1*%
%TO.N,GND*%
%TA.AperFunction,SMDPad,CuDef*%
G36*
G01*
X118376000Y-91116998D02*
X118376000Y-92017002D01*
G75*
G02*
X118126002Y-92267000I-249998J0D01*
G01*
X117600998Y-92267000D01*
G75*
G02*
X117351000Y-92017002I0J249998D01*
G01*
X117351000Y-91116998D01*
G75*
G02*
X117600998Y-90867000I249998J0D01*
G01*
X118126002Y-90867000D01*
G75*
G02*
X118376000Y-91116998I0J-249998D01*
G01*
G37*
%TD.AperFunction*%
%TD*%
%TO.P,R16,2*%
%TO.N,A14*%
%TA.AperFunction,SMDPad,CuDef*%
G36*
G01*
X116567000Y-94164998D02*
X116567000Y-95065002D01*
G75*
G02*
X116317002Y-95315000I-249998J0D01*
G01*
X115791998Y-95315000D01*
G75*
G02*
X115542000Y-95065002I0J249998D01*
G01*
X115542000Y-94164998D01*
G75*
G02*
X115791998Y-93915000I249998J0D01*
G01*
X116317002Y-93915000D01*
G75*
G02*
X116567000Y-94164998I0J-249998D01*
G01*
G37*
%TD.AperFunction*%
%TO.P,R16,1*%
%TO.N,GND*%
%TA.AperFunction,SMDPad,CuDef*%
G36*
G01*
X118392000Y-94164998D02*
X118392000Y-95065002D01*
G75*
G02*
X118142002Y-95315000I-249998J0D01*
G01*
X117616998Y-95315000D01*
G75*
G02*
X117367000Y-95065002I0J249998D01*
G01*
X117367000Y-94164998D01*
G75*
G02*
X117616998Y-93915000I249998J0D01*
G01*
X118142002Y-93915000D01*
G75*
G02*
X118392000Y-94164998I0J-249998D01*
G01*
G37*
%TD.AperFunction*%
%TD*%
%TO.P,R10,2*%
%TO.N,AudIn*%
%TA.AperFunction,SMDPad,CuDef*%
G36*
G01*
X118560002Y-109185000D02*
X117659998Y-109185000D01*
G75*
G02*
X117410000Y-108935002I0J249998D01*
G01*
X117410000Y-108409998D01*
G75*
G02*
X117659998Y-108160000I249998J0D01*
G01*
X118560002Y-108160000D01*
G75*
G02*
X118810000Y-108409998I0J-249998D01*
G01*
X118810000Y-108935002D01*
G75*
G02*
X118560002Y-109185000I-249998J0D01*
G01*
G37*
%TD.AperFunction*%
%TO.P,R10,1*%
%TO.N,Net-(J6-PadSN)*%
%TA.AperFunction,SMDPad,CuDef*%
G36*
G01*
X118560002Y-111010000D02*
X117659998Y-111010000D01*
G75*
G02*
X117410000Y-110760002I0J249998D01*
G01*
X117410000Y-110234998D01*
G75*
G02*
X117659998Y-109985000I249998J0D01*
G01*
X118560002Y-109985000D01*
G75*
G02*
X118810000Y-110234998I0J-249998D01*
G01*
X118810000Y-110760002D01*
G75*
G02*
X118560002Y-111010000I-249998J0D01*
G01*
G37*
%TD.AperFunction*%
%TD*%
%TO.P,R9,2*%
%TO.N,GND*%
%TA.AperFunction,SMDPad,CuDef*%
G36*
G01*
X99510002Y-106280000D02*
X98609998Y-106280000D01*
G75*
G02*
X98360000Y-106030002I0J249998D01*
G01*
X98360000Y-105504998D01*
G75*
G02*
X98609998Y-105255000I249998J0D01*
G01*
X99510002Y-105255000D01*
G75*
G02*
X99760000Y-105504998I0J-249998D01*
G01*
X99760000Y-106030002D01*
G75*
G02*
X99510002Y-106280000I-249998J0D01*
G01*
G37*
%TD.AperFunction*%
%TO.P,R9,1*%
%TO.N,Net-(J7-Pad1)*%
%TA.AperFunction,SMDPad,CuDef*%
G36*
G01*
X99510002Y-108105000D02*
X98609998Y-108105000D01*
G75*
G02*
X98360000Y-107855002I0J249998D01*
G01*
X98360000Y-107329998D01*
G75*
G02*
X98609998Y-107080000I249998J0D01*
G01*
X99510002Y-107080000D01*
G75*
G02*
X99760000Y-107329998I0J-249998D01*
G01*
X99760000Y-107855002D01*
G75*
G02*
X99510002Y-108105000I-249998J0D01*
G01*
G37*
%TD.AperFunction*%
%TD*%
%TO.P,R8,2*%
%TO.N,Net-(C13-Pad2)*%
%TA.AperFunction,SMDPad,CuDef*%
G36*
G01*
X123640002Y-119335000D02*
X122739998Y-119335000D01*
G75*
G02*
X122490000Y-119085002I0J249998D01*
G01*
X122490000Y-118559998D01*
G75*
G02*
X122739998Y-118310000I249998J0D01*
G01*
X123640002Y-118310000D01*
G75*
G02*
X123890000Y-118559998I0J-249998D01*
G01*
X123890000Y-119085002D01*
G75*
G02*
X123640002Y-119335000I-249998J0D01*
G01*
G37*
%TD.AperFunction*%
%TO.P,R8,1*%
%TO.N,Net-(J6-PadS)*%
%TA.AperFunction,SMDPad,CuDef*%
G36*
G01*
X123640002Y-121160000D02*
X122739998Y-121160000D01*
G75*
G02*
X122490000Y-120910002I0J249998D01*
G01*
X122490000Y-120384998D01*
G75*
G02*
X122739998Y-120135000I249998J0D01*
G01*
X123640002Y-120135000D01*
G75*
G02*
X123890000Y-120384998I0J-249998D01*
G01*
X123890000Y-120910002D01*
G75*
G02*
X123640002Y-121160000I-249998J0D01*
G01*
G37*
%TD.AperFunction*%
%TD*%
%TO.P,R7,2*%
%TO.N,Net-(C12-Pad2)*%
%TA.AperFunction,SMDPad,CuDef*%
G36*
G01*
X119830002Y-119335000D02*
X118929998Y-119335000D01*
G75*
G02*
X118680000Y-119085002I0J249998D01*
G01*
X118680000Y-118559998D01*
G75*
G02*
X118929998Y-118310000I249998J0D01*
G01*
X119830002Y-118310000D01*
G75*
G02*
X120080000Y-118559998I0J-249998D01*
G01*
X120080000Y-119085002D01*
G75*
G02*
X119830002Y-119335000I-249998J0D01*
G01*
G37*
%TD.AperFunction*%
%TO.P,R7,1*%
%TO.N,Net-(J6-PadS)*%
%TA.AperFunction,SMDPad,CuDef*%
G36*
G01*
X119830002Y-121160000D02*
X118929998Y-121160000D01*
G75*
G02*
X118680000Y-120910002I0J249998D01*
G01*
X118680000Y-120384998D01*
G75*
G02*
X118929998Y-120135000I249998J0D01*
G01*
X119830002Y-120135000D01*
G75*
G02*
X120080000Y-120384998I0J-249998D01*
G01*
X120080000Y-120910002D01*
G75*
G02*
X119830002Y-121160000I-249998J0D01*
G01*
G37*
%TD.AperFunction*%
%TD*%
%TO.P,R6,2*%
%TO.N,Net-(C11-Pad2)*%
%TA.AperFunction,SMDPad,CuDef*%
G36*
G01*
X127450002Y-119335000D02*
X126549998Y-119335000D01*
G75*
G02*
X126300000Y-119085002I0J249998D01*
G01*
X126300000Y-118559998D01*
G75*
G02*
X126549998Y-118310000I249998J0D01*
G01*
X127450002Y-118310000D01*
G75*
G02*
X127700000Y-118559998I0J-249998D01*
G01*
X127700000Y-119085002D01*
G75*
G02*
X127450002Y-119335000I-249998J0D01*
G01*
G37*
%TD.AperFunction*%
%TO.P,R6,1*%
%TO.N,Net-(J6-PadT)*%
%TA.AperFunction,SMDPad,CuDef*%
G36*
G01*
X127450002Y-121160000D02*
X126549998Y-121160000D01*
G75*
G02*
X126300000Y-120910002I0J249998D01*
G01*
X126300000Y-120384998D01*
G75*
G02*
X126549998Y-120135000I249998J0D01*
G01*
X127450002Y-120135000D01*
G75*
G02*
X127700000Y-120384998I0J-249998D01*
G01*
X127700000Y-120910002D01*
G75*
G02*
X127450002Y-121160000I-249998J0D01*
G01*
G37*
%TD.AperFunction*%
%TD*%
%TO.P,R5,2*%
%TO.N,Net-(C10-Pad2)*%
%TA.AperFunction,SMDPad,CuDef*%
G36*
G01*
X131260002Y-119335000D02*
X130359998Y-119335000D01*
G75*
G02*
X130110000Y-119085002I0J249998D01*
G01*
X130110000Y-118559998D01*
G75*
G02*
X130359998Y-118310000I249998J0D01*
G01*
X131260002Y-118310000D01*
G75*
G02*
X131510000Y-118559998I0J-249998D01*
G01*
X131510000Y-119085002D01*
G75*
G02*
X131260002Y-119335000I-249998J0D01*
G01*
G37*
%TD.AperFunction*%
%TO.P,R5,1*%
%TO.N,Net-(J6-PadT)*%
%TA.AperFunction,SMDPad,CuDef*%
G36*
G01*
X131260002Y-121160000D02*
X130359998Y-121160000D01*
G75*
G02*
X130110000Y-120910002I0J249998D01*
G01*
X130110000Y-120384998D01*
G75*
G02*
X130359998Y-120135000I249998J0D01*
G01*
X131260002Y-120135000D01*
G75*
G02*
X131510000Y-120384998I0J-249998D01*
G01*
X131510000Y-120910002D01*
G75*
G02*
X131260002Y-121160000I-249998J0D01*
G01*
G37*
%TD.AperFunction*%
%TD*%
%TO.P,R3,2*%
%TO.N,Net-(R3-Pad2)*%
%TA.AperFunction,SMDPad,CuDef*%
G36*
G01*
X129355002Y-92030000D02*
X128454998Y-92030000D01*
G75*
G02*
X128205000Y-91780002I0J249998D01*
G01*
X128205000Y-91254998D01*
G75*
G02*
X128454998Y-91005000I249998J0D01*
G01*
X129355002Y-91005000D01*
G75*
G02*
X129605000Y-91254998I0J-249998D01*
G01*
X129605000Y-91780002D01*
G75*
G02*
X129355002Y-92030000I-249998J0D01*
G01*
G37*
%TD.AperFunction*%
%TO.P,R3,1*%
%TO.N,Net-(BU9480F1-Pad7)*%
%TA.AperFunction,SMDPad,CuDef*%
G36*
G01*
X129355002Y-93855000D02*
X128454998Y-93855000D01*
G75*
G02*
X128205000Y-93605002I0J249998D01*
G01*
X128205000Y-93079998D01*
G75*
G02*
X128454998Y-92830000I249998J0D01*
G01*
X129355002Y-92830000D01*
G75*
G02*
X129605000Y-93079998I0J-249998D01*
G01*
X129605000Y-93605002D01*
G75*
G02*
X129355002Y-93855000I-249998J0D01*
G01*
G37*
%TD.AperFunction*%
%TD*%
%TO.P,R2,2*%
%TO.N,Net-(R2-Pad2)*%
%TA.AperFunction,SMDPad,CuDef*%
G36*
G01*
X133165002Y-92030000D02*
X132264998Y-92030000D01*
G75*
G02*
X132015000Y-91780002I0J249998D01*
G01*
X132015000Y-91254998D01*
G75*
G02*
X132264998Y-91005000I249998J0D01*
G01*
X133165002Y-91005000D01*
G75*
G02*
X133415000Y-91254998I0J-249998D01*
G01*
X133415000Y-91780002D01*
G75*
G02*
X133165002Y-92030000I-249998J0D01*
G01*
G37*
%TD.AperFunction*%
%TO.P,R2,1*%
%TO.N,Net-(BU9480F1-Pad6)*%
%TA.AperFunction,SMDPad,CuDef*%
G36*
G01*
X133165002Y-93855000D02*
X132264998Y-93855000D01*
G75*
G02*
X132015000Y-93605002I0J249998D01*
G01*
X132015000Y-93079998D01*
G75*
G02*
X132264998Y-92830000I249998J0D01*
G01*
X133165002Y-92830000D01*
G75*
G02*
X133415000Y-93079998I0J-249998D01*
G01*
X133415000Y-93605002D01*
G75*
G02*
X133165002Y-93855000I-249998J0D01*
G01*
G37*
%TD.AperFunction*%
%TD*%
%TO.P,R1,2*%
%TO.N,Net-(R1-Pad2)*%
%TA.AperFunction,SMDPad,CuDef*%
G36*
G01*
X136975002Y-92030000D02*
X136074998Y-92030000D01*
G75*
G02*
X135825000Y-91780002I0J249998D01*
G01*
X135825000Y-91254998D01*
G75*
G02*
X136074998Y-91005000I249998J0D01*
G01*
X136975002Y-91005000D01*
G75*
G02*
X137225000Y-91254998I0J-249998D01*
G01*
X137225000Y-91780002D01*
G75*
G02*
X136975002Y-92030000I-249998J0D01*
G01*
G37*
%TD.AperFunction*%
%TO.P,R1,1*%
%TO.N,Net-(BU9480F1-Pad5)*%
%TA.AperFunction,SMDPad,CuDef*%
G36*
G01*
X136975002Y-93855000D02*
X136074998Y-93855000D01*
G75*
G02*
X135825000Y-93605002I0J249998D01*
G01*
X135825000Y-93079998D01*
G75*
G02*
X136074998Y-92830000I249998J0D01*
G01*
X136975002Y-92830000D01*
G75*
G02*
X137225000Y-93079998I0J-249998D01*
G01*
X137225000Y-93605002D01*
G75*
G02*
X136975002Y-93855000I-249998J0D01*
G01*
G37*
%TD.AperFunction*%
%TD*%
D10*
%TO.P,J3,24*%
%TO.N,N/C*%
X113030000Y-50800000D03*
%TO.P,J3,23*%
X113030000Y-53340000D03*
%TO.P,J3,22*%
%TO.N,Aud*%
X113030000Y-55880000D03*
%TO.P,J3,21*%
%TO.N,N/C*%
X113030000Y-58420000D03*
%TO.P,J3,20*%
X113030000Y-60960000D03*
%TO.P,J3,19*%
%TO.N,Joy2_D0*%
X113030000Y-63500000D03*
%TO.P,J3,18*%
%TO.N,N/C*%
X113030000Y-66040000D03*
%TO.P,J3,17*%
X113030000Y-68580000D03*
%TO.P,J3,16*%
X113030000Y-71120000D03*
%TO.P,J3,15*%
X113030000Y-73660000D03*
%TO.P,J3,14*%
%TO.N,IRQ*%
X113030000Y-76200000D03*
%TO.P,J3,13*%
%TO.N,N/C*%
X113030000Y-78740000D03*
%TO.P,J3,12*%
X113030000Y-81280000D03*
%TO.P,J3,11*%
%TO.N,Joy2_OE*%
X113030000Y-83820000D03*
%TO.P,J3,10*%
%TO.N,N/C*%
X113030000Y-86360000D03*
%TO.P,J3,9*%
%TO.N,Net-(J3-Pad9)*%
X113030000Y-88900000D03*
%TO.P,J3,8*%
%TO.N,A13*%
X113030000Y-91440000D03*
%TO.P,J3,7*%
%TO.N,A14*%
X113030000Y-93980000D03*
%TO.P,J3,6*%
%TO.N,Net-(J3-Pad6)*%
X113030000Y-96520000D03*
%TO.P,J3,5*%
%TO.N,N/C*%
X113030000Y-99060000D03*
%TO.P,J3,4*%
X113030000Y-101600000D03*
%TO.P,J3,3*%
%TO.N,AudIn*%
X113030000Y-104140000D03*
%TO.P,J3,2*%
%TO.N,GND*%
X113030000Y-106680000D03*
D11*
%TO.P,J3,1*%
%TO.N,Net-(J1-Pad1)*%
X113030000Y-109220000D03*
%TD*%
%TO.P,R14,2*%
%TO.N,Net-(R14-Pad2)*%
%TA.AperFunction,SMDPad,CuDef*%
G36*
G01*
X135832002Y-39962500D02*
X134931998Y-39962500D01*
G75*
G02*
X134682000Y-39712502I0J249998D01*
G01*
X134682000Y-39187498D01*
G75*
G02*
X134931998Y-38937500I249998J0D01*
G01*
X135832002Y-38937500D01*
G75*
G02*
X136082000Y-39187498I0J-249998D01*
G01*
X136082000Y-39712502D01*
G75*
G02*
X135832002Y-39962500I-249998J0D01*
G01*
G37*
%TD.AperFunction*%
%TO.P,R14,1*%
%TO.N,Net-(C5-Pad1)*%
%TA.AperFunction,SMDPad,CuDef*%
G36*
G01*
X135832002Y-41787500D02*
X134931998Y-41787500D01*
G75*
G02*
X134682000Y-41537502I0J249998D01*
G01*
X134682000Y-41012498D01*
G75*
G02*
X134931998Y-40762500I249998J0D01*
G01*
X135832002Y-40762500D01*
G75*
G02*
X136082000Y-41012498I0J-249998D01*
G01*
X136082000Y-41537502D01*
G75*
G02*
X135832002Y-41787500I-249998J0D01*
G01*
G37*
%TD.AperFunction*%
%TD*%
%TO.P,R13,2*%
%TO.N,4016_EN*%
%TA.AperFunction,SMDPad,CuDef*%
G36*
G01*
X116262998Y-45120000D02*
X117163002Y-45120000D01*
G75*
G02*
X117413000Y-45369998I0J-249998D01*
G01*
X117413000Y-45895002D01*
G75*
G02*
X117163002Y-46145000I-249998J0D01*
G01*
X116262998Y-46145000D01*
G75*
G02*
X116013000Y-45895002I0J249998D01*
G01*
X116013000Y-45369998D01*
G75*
G02*
X116262998Y-45120000I249998J0D01*
G01*
G37*
%TD.AperFunction*%
%TO.P,R13,1*%
%TO.N,Net-(C4-Pad1)*%
%TA.AperFunction,SMDPad,CuDef*%
G36*
G01*
X116262998Y-43295000D02*
X117163002Y-43295000D01*
G75*
G02*
X117413000Y-43544998I0J-249998D01*
G01*
X117413000Y-44070002D01*
G75*
G02*
X117163002Y-44320000I-249998J0D01*
G01*
X116262998Y-44320000D01*
G75*
G02*
X116013000Y-44070002I0J249998D01*
G01*
X116013000Y-43544998D01*
G75*
G02*
X116262998Y-43295000I249998J0D01*
G01*
G37*
%TD.AperFunction*%
%TD*%
%TO.P,R12,2*%
%TO.N,4016_EN*%
%TA.AperFunction,SMDPad,CuDef*%
G36*
G01*
X120199998Y-45120000D02*
X121100002Y-45120000D01*
G75*
G02*
X121350000Y-45369998I0J-249998D01*
G01*
X121350000Y-45895002D01*
G75*
G02*
X121100002Y-46145000I-249998J0D01*
G01*
X120199998Y-46145000D01*
G75*
G02*
X119950000Y-45895002I0J249998D01*
G01*
X119950000Y-45369998D01*
G75*
G02*
X120199998Y-45120000I249998J0D01*
G01*
G37*
%TD.AperFunction*%
%TO.P,R12,1*%
%TO.N,Net-(C3-Pad2)*%
%TA.AperFunction,SMDPad,CuDef*%
G36*
G01*
X120199998Y-43295000D02*
X121100002Y-43295000D01*
G75*
G02*
X121350000Y-43544998I0J-249998D01*
G01*
X121350000Y-44070002D01*
G75*
G02*
X121100002Y-44320000I-249998J0D01*
G01*
X120199998Y-44320000D01*
G75*
G02*
X119950000Y-44070002I0J249998D01*
G01*
X119950000Y-43544998D01*
G75*
G02*
X120199998Y-43295000I249998J0D01*
G01*
G37*
%TD.AperFunction*%
%TD*%
%TO.P,R15,2*%
%TO.N,Net-(C1-Pad1)*%
%TA.AperFunction,SMDPad,CuDef*%
G36*
G01*
X122264000Y-73034998D02*
X122264000Y-74285002D01*
G75*
G02*
X122014002Y-74535000I-249998J0D01*
G01*
X121388998Y-74535000D01*
G75*
G02*
X121139000Y-74285002I0J249998D01*
G01*
X121139000Y-73034998D01*
G75*
G02*
X121388998Y-72785000I249998J0D01*
G01*
X122014002Y-72785000D01*
G75*
G02*
X122264000Y-73034998I0J-249998D01*
G01*
G37*
%TD.AperFunction*%
%TO.P,R15,1*%
%TO.N,+5V*%
%TA.AperFunction,SMDPad,CuDef*%
G36*
G01*
X125189000Y-73034998D02*
X125189000Y-74285002D01*
G75*
G02*
X124939002Y-74535000I-249998J0D01*
G01*
X124313998Y-74535000D01*
G75*
G02*
X124064000Y-74285002I0J249998D01*
G01*
X124064000Y-73034998D01*
G75*
G02*
X124313998Y-72785000I249998J0D01*
G01*
X124939002Y-72785000D01*
G75*
G02*
X125189000Y-73034998I0J-249998D01*
G01*
G37*
%TD.AperFunction*%
%TD*%
%TO.P,U2,14*%
%TO.N,+5V*%
%TA.AperFunction,SMDPad,CuDef*%
G36*
G01*
X129770000Y-38885000D02*
X129770000Y-38585000D01*
G75*
G02*
X129920000Y-38435000I150000J0D01*
G01*
X131570000Y-38435000D01*
G75*
G02*
X131720000Y-38585000I0J-150000D01*
G01*
X131720000Y-38885000D01*
G75*
G02*
X131570000Y-39035000I-150000J0D01*
G01*
X129920000Y-39035000D01*
G75*
G02*
X129770000Y-38885000I0J150000D01*
G01*
G37*
%TD.AperFunction*%
%TO.P,U2,13*%
%TO.N,Net-(C5-Pad1)*%
%TA.AperFunction,SMDPad,CuDef*%
G36*
G01*
X129770000Y-40155000D02*
X129770000Y-39855000D01*
G75*
G02*
X129920000Y-39705000I150000J0D01*
G01*
X131570000Y-39705000D01*
G75*
G02*
X131720000Y-39855000I0J-150000D01*
G01*
X131720000Y-40155000D01*
G75*
G02*
X131570000Y-40305000I-150000J0D01*
G01*
X129920000Y-40305000D01*
G75*
G02*
X129770000Y-40155000I0J150000D01*
G01*
G37*
%TD.AperFunction*%
%TO.P,U2,12*%
%TA.AperFunction,SMDPad,CuDef*%
G36*
G01*
X129770000Y-41425000D02*
X129770000Y-41125000D01*
G75*
G02*
X129920000Y-40975000I150000J0D01*
G01*
X131570000Y-40975000D01*
G75*
G02*
X131720000Y-41125000I0J-150000D01*
G01*
X131720000Y-41425000D01*
G75*
G02*
X131570000Y-41575000I-150000J0D01*
G01*
X129920000Y-41575000D01*
G75*
G02*
X129770000Y-41425000I0J150000D01*
G01*
G37*
%TD.AperFunction*%
%TO.P,U2,11*%
%TO.N,Net-(U2-Pad10)*%
%TA.AperFunction,SMDPad,CuDef*%
G36*
G01*
X129770000Y-42695000D02*
X129770000Y-42395000D01*
G75*
G02*
X129920000Y-42245000I150000J0D01*
G01*
X131570000Y-42245000D01*
G75*
G02*
X131720000Y-42395000I0J-150000D01*
G01*
X131720000Y-42695000D01*
G75*
G02*
X131570000Y-42845000I-150000J0D01*
G01*
X129920000Y-42845000D01*
G75*
G02*
X129770000Y-42695000I0J150000D01*
G01*
G37*
%TD.AperFunction*%
%TO.P,U2,10*%
%TA.AperFunction,SMDPad,CuDef*%
G36*
G01*
X129770000Y-43965000D02*
X129770000Y-43665000D01*
G75*
G02*
X129920000Y-43515000I150000J0D01*
G01*
X131570000Y-43515000D01*
G75*
G02*
X131720000Y-43665000I0J-150000D01*
G01*
X131720000Y-43965000D01*
G75*
G02*
X131570000Y-44115000I-150000J0D01*
G01*
X129920000Y-44115000D01*
G75*
G02*
X129770000Y-43965000I0J150000D01*
G01*
G37*
%TD.AperFunction*%
%TO.P,U2,9*%
%TA.AperFunction,SMDPad,CuDef*%
G36*
G01*
X129770000Y-45235000D02*
X129770000Y-44935000D01*
G75*
G02*
X129920000Y-44785000I150000J0D01*
G01*
X131570000Y-44785000D01*
G75*
G02*
X131720000Y-44935000I0J-150000D01*
G01*
X131720000Y-45235000D01*
G75*
G02*
X131570000Y-45385000I-150000J0D01*
G01*
X129920000Y-45385000D01*
G75*
G02*
X129770000Y-45235000I0J150000D01*
G01*
G37*
%TD.AperFunction*%
%TO.P,U2,8*%
%TO.N,FF_Reset*%
%TA.AperFunction,SMDPad,CuDef*%
G36*
G01*
X129770000Y-46505000D02*
X129770000Y-46205000D01*
G75*
G02*
X129920000Y-46055000I150000J0D01*
G01*
X131570000Y-46055000D01*
G75*
G02*
X131720000Y-46205000I0J-150000D01*
G01*
X131720000Y-46505000D01*
G75*
G02*
X131570000Y-46655000I-150000J0D01*
G01*
X129920000Y-46655000D01*
G75*
G02*
X129770000Y-46505000I0J150000D01*
G01*
G37*
%TD.AperFunction*%
%TO.P,U2,7*%
%TO.N,GND*%
%TA.AperFunction,SMDPad,CuDef*%
G36*
G01*
X124820000Y-46505000D02*
X124820000Y-46205000D01*
G75*
G02*
X124970000Y-46055000I150000J0D01*
G01*
X126620000Y-46055000D01*
G75*
G02*
X126770000Y-46205000I0J-150000D01*
G01*
X126770000Y-46505000D01*
G75*
G02*
X126620000Y-46655000I-150000J0D01*
G01*
X124970000Y-46655000D01*
G75*
G02*
X124820000Y-46505000I0J150000D01*
G01*
G37*
%TD.AperFunction*%
%TO.P,U2,6*%
%TO.N,CS_buf*%
%TA.AperFunction,SMDPad,CuDef*%
G36*
G01*
X124820000Y-45235000D02*
X124820000Y-44935000D01*
G75*
G02*
X124970000Y-44785000I150000J0D01*
G01*
X126620000Y-44785000D01*
G75*
G02*
X126770000Y-44935000I0J-150000D01*
G01*
X126770000Y-45235000D01*
G75*
G02*
X126620000Y-45385000I-150000J0D01*
G01*
X124970000Y-45385000D01*
G75*
G02*
X124820000Y-45235000I0J150000D01*
G01*
G37*
%TD.AperFunction*%
%TO.P,U2,5*%
%TO.N,Net-(R14-Pad2)*%
%TA.AperFunction,SMDPad,CuDef*%
G36*
G01*
X124820000Y-43965000D02*
X124820000Y-43665000D01*
G75*
G02*
X124970000Y-43515000I150000J0D01*
G01*
X126620000Y-43515000D01*
G75*
G02*
X126770000Y-43665000I0J-150000D01*
G01*
X126770000Y-43965000D01*
G75*
G02*
X126620000Y-44115000I-150000J0D01*
G01*
X124970000Y-44115000D01*
G75*
G02*
X124820000Y-43965000I0J150000D01*
G01*
G37*
%TD.AperFunction*%
%TO.P,U2,4*%
%TO.N,Net-(C3-Pad2)*%
%TA.AperFunction,SMDPad,CuDef*%
G36*
G01*
X124820000Y-42695000D02*
X124820000Y-42395000D01*
G75*
G02*
X124970000Y-42245000I150000J0D01*
G01*
X126620000Y-42245000D01*
G75*
G02*
X126770000Y-42395000I0J-150000D01*
G01*
X126770000Y-42695000D01*
G75*
G02*
X126620000Y-42845000I-150000J0D01*
G01*
X124970000Y-42845000D01*
G75*
G02*
X124820000Y-42695000I0J150000D01*
G01*
G37*
%TD.AperFunction*%
%TO.P,U2,3*%
%TO.N,Net-(R14-Pad2)*%
%TA.AperFunction,SMDPad,CuDef*%
G36*
G01*
X124820000Y-41425000D02*
X124820000Y-41125000D01*
G75*
G02*
X124970000Y-40975000I150000J0D01*
G01*
X126620000Y-40975000D01*
G75*
G02*
X126770000Y-41125000I0J-150000D01*
G01*
X126770000Y-41425000D01*
G75*
G02*
X126620000Y-41575000I-150000J0D01*
G01*
X124970000Y-41575000D01*
G75*
G02*
X124820000Y-41425000I0J150000D01*
G01*
G37*
%TD.AperFunction*%
%TO.P,U2,2*%
%TO.N,Net-(C4-Pad1)*%
%TA.AperFunction,SMDPad,CuDef*%
G36*
G01*
X124820000Y-40155000D02*
X124820000Y-39855000D01*
G75*
G02*
X124970000Y-39705000I150000J0D01*
G01*
X126620000Y-39705000D01*
G75*
G02*
X126770000Y-39855000I0J-150000D01*
G01*
X126770000Y-40155000D01*
G75*
G02*
X126620000Y-40305000I-150000J0D01*
G01*
X124970000Y-40305000D01*
G75*
G02*
X124820000Y-40155000I0J150000D01*
G01*
G37*
%TD.AperFunction*%
%TO.P,U2,1*%
%TA.AperFunction,SMDPad,CuDef*%
G36*
G01*
X124820000Y-38885000D02*
X124820000Y-38585000D01*
G75*
G02*
X124970000Y-38435000I150000J0D01*
G01*
X126620000Y-38435000D01*
G75*
G02*
X126770000Y-38585000I0J-150000D01*
G01*
X126770000Y-38885000D01*
G75*
G02*
X126620000Y-39035000I-150000J0D01*
G01*
X124970000Y-39035000D01*
G75*
G02*
X124820000Y-38885000I0J150000D01*
G01*
G37*
%TD.AperFunction*%
%TD*%
%TO.P,C5,2*%
%TO.N,GND*%
%TA.AperFunction,SMDPad,CuDef*%
G36*
G01*
X134907000Y-45596000D02*
X135857000Y-45596000D01*
G75*
G02*
X136107000Y-45846000I0J-250000D01*
G01*
X136107000Y-46346000D01*
G75*
G02*
X135857000Y-46596000I-250000J0D01*
G01*
X134907000Y-46596000D01*
G75*
G02*
X134657000Y-46346000I0J250000D01*
G01*
X134657000Y-45846000D01*
G75*
G02*
X134907000Y-45596000I250000J0D01*
G01*
G37*
%TD.AperFunction*%
%TO.P,C5,1*%
%TO.N,Net-(C5-Pad1)*%
%TA.AperFunction,SMDPad,CuDef*%
G36*
G01*
X134907000Y-43696000D02*
X135857000Y-43696000D01*
G75*
G02*
X136107000Y-43946000I0J-250000D01*
G01*
X136107000Y-44446000D01*
G75*
G02*
X135857000Y-44696000I-250000J0D01*
G01*
X134907000Y-44696000D01*
G75*
G02*
X134657000Y-44446000I0J250000D01*
G01*
X134657000Y-43946000D01*
G75*
G02*
X134907000Y-43696000I250000J0D01*
G01*
G37*
%TD.AperFunction*%
%TD*%
%TO.P,C4,2*%
%TO.N,GND*%
%TA.AperFunction,SMDPad,CuDef*%
G36*
G01*
X116238000Y-40775000D02*
X117188000Y-40775000D01*
G75*
G02*
X117438000Y-41025000I0J-250000D01*
G01*
X117438000Y-41525000D01*
G75*
G02*
X117188000Y-41775000I-250000J0D01*
G01*
X116238000Y-41775000D01*
G75*
G02*
X115988000Y-41525000I0J250000D01*
G01*
X115988000Y-41025000D01*
G75*
G02*
X116238000Y-40775000I250000J0D01*
G01*
G37*
%TD.AperFunction*%
%TO.P,C4,1*%
%TO.N,Net-(C4-Pad1)*%
%TA.AperFunction,SMDPad,CuDef*%
G36*
G01*
X116238000Y-38875000D02*
X117188000Y-38875000D01*
G75*
G02*
X117438000Y-39125000I0J-250000D01*
G01*
X117438000Y-39625000D01*
G75*
G02*
X117188000Y-39875000I-250000J0D01*
G01*
X116238000Y-39875000D01*
G75*
G02*
X115988000Y-39625000I0J250000D01*
G01*
X115988000Y-39125000D01*
G75*
G02*
X116238000Y-38875000I250000J0D01*
G01*
G37*
%TD.AperFunction*%
%TD*%
%TO.P,C3,2*%
%TO.N,Net-(C3-Pad2)*%
%TA.AperFunction,SMDPad,CuDef*%
G36*
G01*
X120175000Y-40775000D02*
X121125000Y-40775000D01*
G75*
G02*
X121375000Y-41025000I0J-250000D01*
G01*
X121375000Y-41525000D01*
G75*
G02*
X121125000Y-41775000I-250000J0D01*
G01*
X120175000Y-41775000D01*
G75*
G02*
X119925000Y-41525000I0J250000D01*
G01*
X119925000Y-41025000D01*
G75*
G02*
X120175000Y-40775000I250000J0D01*
G01*
G37*
%TD.AperFunction*%
%TO.P,C3,1*%
%TO.N,GND*%
%TA.AperFunction,SMDPad,CuDef*%
G36*
G01*
X120175000Y-38875000D02*
X121125000Y-38875000D01*
G75*
G02*
X121375000Y-39125000I0J-250000D01*
G01*
X121375000Y-39625000D01*
G75*
G02*
X121125000Y-39875000I-250000J0D01*
G01*
X120175000Y-39875000D01*
G75*
G02*
X119925000Y-39625000I0J250000D01*
G01*
X119925000Y-39125000D01*
G75*
G02*
X120175000Y-38875000I250000J0D01*
G01*
G37*
%TD.AperFunction*%
%TD*%
%TO.P,C1,2*%
%TO.N,GND*%
%TA.AperFunction,SMDPad,CuDef*%
G36*
G01*
X117975000Y-73185000D02*
X117975000Y-74135000D01*
G75*
G02*
X117725000Y-74385000I-250000J0D01*
G01*
X117225000Y-74385000D01*
G75*
G02*
X116975000Y-74135000I0J250000D01*
G01*
X116975000Y-73185000D01*
G75*
G02*
X117225000Y-72935000I250000J0D01*
G01*
X117725000Y-72935000D01*
G75*
G02*
X117975000Y-73185000I0J-250000D01*
G01*
G37*
%TD.AperFunction*%
%TO.P,C1,1*%
%TO.N,Net-(C1-Pad1)*%
%TA.AperFunction,SMDPad,CuDef*%
G36*
G01*
X119875000Y-73185000D02*
X119875000Y-74135000D01*
G75*
G02*
X119625000Y-74385000I-250000J0D01*
G01*
X119125000Y-74385000D01*
G75*
G02*
X118875000Y-74135000I0J250000D01*
G01*
X118875000Y-73185000D01*
G75*
G02*
X119125000Y-72935000I250000J0D01*
G01*
X119625000Y-72935000D01*
G75*
G02*
X119875000Y-73185000I0J-250000D01*
G01*
G37*
%TD.AperFunction*%
%TD*%
%TO.P,YMF288,27*%
%TO.N,+5V*%
%TA.AperFunction,SMDPad,CuDef*%
G36*
G01*
X133200000Y-86810000D02*
X133500000Y-86810000D01*
G75*
G02*
X133650000Y-86960000I0J-150000D01*
G01*
X133650000Y-88710000D01*
G75*
G02*
X133500000Y-88860000I-150000J0D01*
G01*
X133200000Y-88860000D01*
G75*
G02*
X133050000Y-88710000I0J150000D01*
G01*
X133050000Y-86960000D01*
G75*
G02*
X133200000Y-86810000I150000J0D01*
G01*
G37*
%TD.AperFunction*%
%TO.P,YMF288,26*%
%TO.N,Net-(R1-Pad2)*%
%TA.AperFunction,SMDPad,CuDef*%
G36*
G01*
X131930000Y-86810000D02*
X132230000Y-86810000D01*
G75*
G02*
X132380000Y-86960000I0J-150000D01*
G01*
X132380000Y-88710000D01*
G75*
G02*
X132230000Y-88860000I-150000J0D01*
G01*
X131930000Y-88860000D01*
G75*
G02*
X131780000Y-88710000I0J150000D01*
G01*
X131780000Y-86960000D01*
G75*
G02*
X131930000Y-86810000I150000J0D01*
G01*
G37*
%TD.AperFunction*%
%TO.P,YMF288,25*%
%TO.N,N/C*%
%TA.AperFunction,SMDPad,CuDef*%
G36*
G01*
X130660000Y-86810000D02*
X130960000Y-86810000D01*
G75*
G02*
X131110000Y-86960000I0J-150000D01*
G01*
X131110000Y-88710000D01*
G75*
G02*
X130960000Y-88860000I-150000J0D01*
G01*
X130660000Y-88860000D01*
G75*
G02*
X130510000Y-88710000I0J150000D01*
G01*
X130510000Y-86960000D01*
G75*
G02*
X130660000Y-86810000I150000J0D01*
G01*
G37*
%TD.AperFunction*%
%TO.P,YMF288,17*%
%TO.N,CS_Chip*%
%TA.AperFunction,SMDPad,CuDef*%
G36*
G01*
X120500000Y-86810000D02*
X120800000Y-86810000D01*
G75*
G02*
X120950000Y-86960000I0J-150000D01*
G01*
X120950000Y-88710000D01*
G75*
G02*
X120800000Y-88860000I-150000J0D01*
G01*
X120500000Y-88860000D01*
G75*
G02*
X120350000Y-88710000I0J150000D01*
G01*
X120350000Y-86960000D01*
G75*
G02*
X120500000Y-86810000I150000J0D01*
G01*
G37*
%TD.AperFunction*%
%TO.P,YMF288,15*%
%TO.N,IRQ*%
%TA.AperFunction,SMDPad,CuDef*%
G36*
G01*
X117960000Y-86810000D02*
X118260000Y-86810000D01*
G75*
G02*
X118410000Y-86960000I0J-150000D01*
G01*
X118410000Y-88710000D01*
G75*
G02*
X118260000Y-88860000I-150000J0D01*
G01*
X117960000Y-88860000D01*
G75*
G02*
X117810000Y-88710000I0J150000D01*
G01*
X117810000Y-86960000D01*
G75*
G02*
X117960000Y-86810000I150000J0D01*
G01*
G37*
%TD.AperFunction*%
%TO.P,YMF288,28*%
%TO.N,Net-(X1-Pad3)*%
%TA.AperFunction,SMDPad,CuDef*%
G36*
G01*
X134470000Y-86810000D02*
X134770000Y-86810000D01*
G75*
G02*
X134920000Y-86960000I0J-150000D01*
G01*
X134920000Y-88710000D01*
G75*
G02*
X134770000Y-88860000I-150000J0D01*
G01*
X134470000Y-88860000D01*
G75*
G02*
X134320000Y-88710000I0J150000D01*
G01*
X134320000Y-86960000D01*
G75*
G02*
X134470000Y-86810000I150000J0D01*
G01*
G37*
%TD.AperFunction*%
%TO.P,YMF288,20*%
%TO.N,A0_Chip*%
%TA.AperFunction,SMDPad,CuDef*%
G36*
G01*
X124310000Y-86810000D02*
X124610000Y-86810000D01*
G75*
G02*
X124760000Y-86960000I0J-150000D01*
G01*
X124760000Y-88710000D01*
G75*
G02*
X124610000Y-88860000I-150000J0D01*
G01*
X124310000Y-88860000D01*
G75*
G02*
X124160000Y-88710000I0J150000D01*
G01*
X124160000Y-86960000D01*
G75*
G02*
X124310000Y-86810000I150000J0D01*
G01*
G37*
%TD.AperFunction*%
%TO.P,YMF288,16*%
%TO.N,GND*%
%TA.AperFunction,SMDPad,CuDef*%
G36*
G01*
X119230000Y-86810000D02*
X119530000Y-86810000D01*
G75*
G02*
X119680000Y-86960000I0J-150000D01*
G01*
X119680000Y-88710000D01*
G75*
G02*
X119530000Y-88860000I-150000J0D01*
G01*
X119230000Y-88860000D01*
G75*
G02*
X119080000Y-88710000I0J150000D01*
G01*
X119080000Y-86960000D01*
G75*
G02*
X119230000Y-86810000I150000J0D01*
G01*
G37*
%TD.AperFunction*%
%TO.P,YMF288,22*%
%TO.N,+5V*%
%TA.AperFunction,SMDPad,CuDef*%
G36*
G01*
X126850000Y-86810000D02*
X127150000Y-86810000D01*
G75*
G02*
X127300000Y-86960000I0J-150000D01*
G01*
X127300000Y-88710000D01*
G75*
G02*
X127150000Y-88860000I-150000J0D01*
G01*
X126850000Y-88860000D01*
G75*
G02*
X126700000Y-88710000I0J150000D01*
G01*
X126700000Y-86960000D01*
G75*
G02*
X126850000Y-86810000I150000J0D01*
G01*
G37*
%TD.AperFunction*%
%TO.P,YMF288,23*%
%TO.N,Net-(R3-Pad2)*%
%TA.AperFunction,SMDPad,CuDef*%
G36*
G01*
X128120000Y-86810000D02*
X128420000Y-86810000D01*
G75*
G02*
X128570000Y-86960000I0J-150000D01*
G01*
X128570000Y-88710000D01*
G75*
G02*
X128420000Y-88860000I-150000J0D01*
G01*
X128120000Y-88860000D01*
G75*
G02*
X127970000Y-88710000I0J150000D01*
G01*
X127970000Y-86960000D01*
G75*
G02*
X128120000Y-86810000I150000J0D01*
G01*
G37*
%TD.AperFunction*%
%TO.P,YMF288,24*%
%TO.N,Net-(R2-Pad2)*%
%TA.AperFunction,SMDPad,CuDef*%
G36*
G01*
X129390000Y-86810000D02*
X129690000Y-86810000D01*
G75*
G02*
X129840000Y-86960000I0J-150000D01*
G01*
X129840000Y-88710000D01*
G75*
G02*
X129690000Y-88860000I-150000J0D01*
G01*
X129390000Y-88860000D01*
G75*
G02*
X129240000Y-88710000I0J150000D01*
G01*
X129240000Y-86960000D01*
G75*
G02*
X129390000Y-86810000I150000J0D01*
G01*
G37*
%TD.AperFunction*%
%TO.P,YMF288,18*%
%TO.N,GND*%
%TA.AperFunction,SMDPad,CuDef*%
G36*
G01*
X121770000Y-86810000D02*
X122070000Y-86810000D01*
G75*
G02*
X122220000Y-86960000I0J-150000D01*
G01*
X122220000Y-88710000D01*
G75*
G02*
X122070000Y-88860000I-150000J0D01*
G01*
X121770000Y-88860000D01*
G75*
G02*
X121620000Y-88710000I0J150000D01*
G01*
X121620000Y-86960000D01*
G75*
G02*
X121770000Y-86810000I150000J0D01*
G01*
G37*
%TD.AperFunction*%
%TO.P,YMF288,14*%
%TA.AperFunction,SMDPad,CuDef*%
G36*
G01*
X117960000Y-76240000D02*
X118260000Y-76240000D01*
G75*
G02*
X118410000Y-76390000I0J-150000D01*
G01*
X118410000Y-78140000D01*
G75*
G02*
X118260000Y-78290000I-150000J0D01*
G01*
X117960000Y-78290000D01*
G75*
G02*
X117810000Y-78140000I0J150000D01*
G01*
X117810000Y-76390000D01*
G75*
G02*
X117960000Y-76240000I150000J0D01*
G01*
G37*
%TD.AperFunction*%
%TO.P,YMF288,19*%
%TO.N,+5V*%
%TA.AperFunction,SMDPad,CuDef*%
G36*
G01*
X123040000Y-86810000D02*
X123340000Y-86810000D01*
G75*
G02*
X123490000Y-86960000I0J-150000D01*
G01*
X123490000Y-88710000D01*
G75*
G02*
X123340000Y-88860000I-150000J0D01*
G01*
X123040000Y-88860000D01*
G75*
G02*
X122890000Y-88710000I0J150000D01*
G01*
X122890000Y-86960000D01*
G75*
G02*
X123040000Y-86810000I150000J0D01*
G01*
G37*
%TD.AperFunction*%
%TO.P,YMF288,13*%
%TO.N,N/C*%
%TA.AperFunction,SMDPad,CuDef*%
G36*
G01*
X119230000Y-76240000D02*
X119530000Y-76240000D01*
G75*
G02*
X119680000Y-76390000I0J-150000D01*
G01*
X119680000Y-78140000D01*
G75*
G02*
X119530000Y-78290000I-150000J0D01*
G01*
X119230000Y-78290000D01*
G75*
G02*
X119080000Y-78140000I0J150000D01*
G01*
X119080000Y-76390000D01*
G75*
G02*
X119230000Y-76240000I150000J0D01*
G01*
G37*
%TD.AperFunction*%
%TO.P,YMF288,21*%
%TO.N,A1_Chip*%
%TA.AperFunction,SMDPad,CuDef*%
G36*
G01*
X125580000Y-86810000D02*
X125880000Y-86810000D01*
G75*
G02*
X126030000Y-86960000I0J-150000D01*
G01*
X126030000Y-88710000D01*
G75*
G02*
X125880000Y-88860000I-150000J0D01*
G01*
X125580000Y-88860000D01*
G75*
G02*
X125430000Y-88710000I0J150000D01*
G01*
X125430000Y-86960000D01*
G75*
G02*
X125580000Y-86810000I150000J0D01*
G01*
G37*
%TD.AperFunction*%
%TO.P,YMF288,12*%
%TO.N,+5V*%
%TA.AperFunction,SMDPad,CuDef*%
G36*
G01*
X120500000Y-76240000D02*
X120800000Y-76240000D01*
G75*
G02*
X120950000Y-76390000I0J-150000D01*
G01*
X120950000Y-78140000D01*
G75*
G02*
X120800000Y-78290000I-150000J0D01*
G01*
X120500000Y-78290000D01*
G75*
G02*
X120350000Y-78140000I0J150000D01*
G01*
X120350000Y-76390000D01*
G75*
G02*
X120500000Y-76240000I150000J0D01*
G01*
G37*
%TD.AperFunction*%
%TO.P,YMF288,7*%
%TO.N,D5_Chip*%
%TA.AperFunction,SMDPad,CuDef*%
G36*
G01*
X126850000Y-76240000D02*
X127150000Y-76240000D01*
G75*
G02*
X127300000Y-76390000I0J-150000D01*
G01*
X127300000Y-78140000D01*
G75*
G02*
X127150000Y-78290000I-150000J0D01*
G01*
X126850000Y-78290000D01*
G75*
G02*
X126700000Y-78140000I0J150000D01*
G01*
X126700000Y-76390000D01*
G75*
G02*
X126850000Y-76240000I150000J0D01*
G01*
G37*
%TD.AperFunction*%
%TO.P,YMF288,1*%
%TO.N,GND*%
%TA.AperFunction,SMDPad,CuDef*%
G36*
G01*
X134470000Y-76240000D02*
X134770000Y-76240000D01*
G75*
G02*
X134920000Y-76390000I0J-150000D01*
G01*
X134920000Y-78140000D01*
G75*
G02*
X134770000Y-78290000I-150000J0D01*
G01*
X134470000Y-78290000D01*
G75*
G02*
X134320000Y-78140000I0J150000D01*
G01*
X134320000Y-76390000D01*
G75*
G02*
X134470000Y-76240000I150000J0D01*
G01*
G37*
%TD.AperFunction*%
%TO.P,YMF288,10*%
%TO.N,N/C*%
%TA.AperFunction,SMDPad,CuDef*%
G36*
G01*
X123040000Y-76240000D02*
X123340000Y-76240000D01*
G75*
G02*
X123490000Y-76390000I0J-150000D01*
G01*
X123490000Y-78140000D01*
G75*
G02*
X123340000Y-78290000I-150000J0D01*
G01*
X123040000Y-78290000D01*
G75*
G02*
X122890000Y-78140000I0J150000D01*
G01*
X122890000Y-76390000D01*
G75*
G02*
X123040000Y-76240000I150000J0D01*
G01*
G37*
%TD.AperFunction*%
%TO.P,YMF288,2*%
%TO.N,D0_Chip*%
%TA.AperFunction,SMDPad,CuDef*%
G36*
G01*
X133200000Y-76240000D02*
X133500000Y-76240000D01*
G75*
G02*
X133650000Y-76390000I0J-150000D01*
G01*
X133650000Y-78140000D01*
G75*
G02*
X133500000Y-78290000I-150000J0D01*
G01*
X133200000Y-78290000D01*
G75*
G02*
X133050000Y-78140000I0J150000D01*
G01*
X133050000Y-76390000D01*
G75*
G02*
X133200000Y-76240000I150000J0D01*
G01*
G37*
%TD.AperFunction*%
%TO.P,YMF288,4*%
%TO.N,D2_Chip*%
%TA.AperFunction,SMDPad,CuDef*%
G36*
G01*
X130660000Y-76240000D02*
X130960000Y-76240000D01*
G75*
G02*
X131110000Y-76390000I0J-150000D01*
G01*
X131110000Y-78140000D01*
G75*
G02*
X130960000Y-78290000I-150000J0D01*
G01*
X130660000Y-78290000D01*
G75*
G02*
X130510000Y-78140000I0J150000D01*
G01*
X130510000Y-76390000D01*
G75*
G02*
X130660000Y-76240000I150000J0D01*
G01*
G37*
%TD.AperFunction*%
%TO.P,YMF288,5*%
%TO.N,D3_Chip*%
%TA.AperFunction,SMDPad,CuDef*%
G36*
G01*
X129390000Y-76240000D02*
X129690000Y-76240000D01*
G75*
G02*
X129840000Y-76390000I0J-150000D01*
G01*
X129840000Y-78140000D01*
G75*
G02*
X129690000Y-78290000I-150000J0D01*
G01*
X129390000Y-78290000D01*
G75*
G02*
X129240000Y-78140000I0J150000D01*
G01*
X129240000Y-76390000D01*
G75*
G02*
X129390000Y-76240000I150000J0D01*
G01*
G37*
%TD.AperFunction*%
%TO.P,YMF288,11*%
%TO.N,Net-(C1-Pad1)*%
%TA.AperFunction,SMDPad,CuDef*%
G36*
G01*
X121770000Y-76240000D02*
X122070000Y-76240000D01*
G75*
G02*
X122220000Y-76390000I0J-150000D01*
G01*
X122220000Y-78140000D01*
G75*
G02*
X122070000Y-78290000I-150000J0D01*
G01*
X121770000Y-78290000D01*
G75*
G02*
X121620000Y-78140000I0J150000D01*
G01*
X121620000Y-76390000D01*
G75*
G02*
X121770000Y-76240000I150000J0D01*
G01*
G37*
%TD.AperFunction*%
%TO.P,YMF288,6*%
%TO.N,D4_Chip*%
%TA.AperFunction,SMDPad,CuDef*%
G36*
G01*
X128120000Y-76240000D02*
X128420000Y-76240000D01*
G75*
G02*
X128570000Y-76390000I0J-150000D01*
G01*
X128570000Y-78140000D01*
G75*
G02*
X128420000Y-78290000I-150000J0D01*
G01*
X128120000Y-78290000D01*
G75*
G02*
X127970000Y-78140000I0J150000D01*
G01*
X127970000Y-76390000D01*
G75*
G02*
X128120000Y-76240000I150000J0D01*
G01*
G37*
%TD.AperFunction*%
%TO.P,YMF288,3*%
%TO.N,D1_Chip*%
%TA.AperFunction,SMDPad,CuDef*%
G36*
G01*
X131930000Y-76240000D02*
X132230000Y-76240000D01*
G75*
G02*
X132380000Y-76390000I0J-150000D01*
G01*
X132380000Y-78140000D01*
G75*
G02*
X132230000Y-78290000I-150000J0D01*
G01*
X131930000Y-78290000D01*
G75*
G02*
X131780000Y-78140000I0J150000D01*
G01*
X131780000Y-76390000D01*
G75*
G02*
X131930000Y-76240000I150000J0D01*
G01*
G37*
%TD.AperFunction*%
%TO.P,YMF288,9*%
%TO.N,D7_Chip*%
%TA.AperFunction,SMDPad,CuDef*%
G36*
G01*
X124310000Y-76240000D02*
X124610000Y-76240000D01*
G75*
G02*
X124760000Y-76390000I0J-150000D01*
G01*
X124760000Y-78140000D01*
G75*
G02*
X124610000Y-78290000I-150000J0D01*
G01*
X124310000Y-78290000D01*
G75*
G02*
X124160000Y-78140000I0J150000D01*
G01*
X124160000Y-76390000D01*
G75*
G02*
X124310000Y-76240000I150000J0D01*
G01*
G37*
%TD.AperFunction*%
%TO.P,YMF288,8*%
%TO.N,D6_Chip*%
%TA.AperFunction,SMDPad,CuDef*%
G36*
G01*
X125580000Y-76240000D02*
X125880000Y-76240000D01*
G75*
G02*
X126030000Y-76390000I0J-150000D01*
G01*
X126030000Y-78140000D01*
G75*
G02*
X125880000Y-78290000I-150000J0D01*
G01*
X125580000Y-78290000D01*
G75*
G02*
X125430000Y-78140000I0J150000D01*
G01*
X125430000Y-76390000D01*
G75*
G02*
X125580000Y-76240000I150000J0D01*
G01*
G37*
%TD.AperFunction*%
%TD*%
%TO.P,BU9480F1,8*%
%TO.N,+5V*%
%TA.AperFunction,SMDPad,CuDef*%
G36*
G01*
X131595000Y-98578500D02*
X131295000Y-98578500D01*
G75*
G02*
X131145000Y-98428500I0J150000D01*
G01*
X131145000Y-96778500D01*
G75*
G02*
X131295000Y-96628500I150000J0D01*
G01*
X131595000Y-96628500D01*
G75*
G02*
X131745000Y-96778500I0J-150000D01*
G01*
X131745000Y-98428500D01*
G75*
G02*
X131595000Y-98578500I-150000J0D01*
G01*
G37*
%TD.AperFunction*%
%TO.P,BU9480F1,7*%
%TO.N,Net-(BU9480F1-Pad7)*%
%TA.AperFunction,SMDPad,CuDef*%
G36*
G01*
X132865000Y-98578500D02*
X132565000Y-98578500D01*
G75*
G02*
X132415000Y-98428500I0J150000D01*
G01*
X132415000Y-96778500D01*
G75*
G02*
X132565000Y-96628500I150000J0D01*
G01*
X132865000Y-96628500D01*
G75*
G02*
X133015000Y-96778500I0J-150000D01*
G01*
X133015000Y-98428500D01*
G75*
G02*
X132865000Y-98578500I-150000J0D01*
G01*
G37*
%TD.AperFunction*%
%TO.P,BU9480F1,6*%
%TO.N,Net-(BU9480F1-Pad6)*%
%TA.AperFunction,SMDPad,CuDef*%
G36*
G01*
X134135000Y-98578500D02*
X133835000Y-98578500D01*
G75*
G02*
X133685000Y-98428500I0J150000D01*
G01*
X133685000Y-96778500D01*
G75*
G02*
X133835000Y-96628500I150000J0D01*
G01*
X134135000Y-96628500D01*
G75*
G02*
X134285000Y-96778500I0J-150000D01*
G01*
X134285000Y-98428500D01*
G75*
G02*
X134135000Y-98578500I-150000J0D01*
G01*
G37*
%TD.AperFunction*%
%TO.P,BU9480F1,5*%
%TO.N,Net-(BU9480F1-Pad5)*%
%TA.AperFunction,SMDPad,CuDef*%
G36*
G01*
X135405000Y-98578500D02*
X135105000Y-98578500D01*
G75*
G02*
X134955000Y-98428500I0J150000D01*
G01*
X134955000Y-96778500D01*
G75*
G02*
X135105000Y-96628500I150000J0D01*
G01*
X135405000Y-96628500D01*
G75*
G02*
X135555000Y-96778500I0J-150000D01*
G01*
X135555000Y-98428500D01*
G75*
G02*
X135405000Y-98578500I-150000J0D01*
G01*
G37*
%TD.AperFunction*%
%TO.P,BU9480F1,4*%
%TO.N,Net-(BU9480F1-Pad4)*%
%TA.AperFunction,SMDPad,CuDef*%
G36*
G01*
X135405000Y-103528500D02*
X135105000Y-103528500D01*
G75*
G02*
X134955000Y-103378500I0J150000D01*
G01*
X134955000Y-101728500D01*
G75*
G02*
X135105000Y-101578500I150000J0D01*
G01*
X135405000Y-101578500D01*
G75*
G02*
X135555000Y-101728500I0J-150000D01*
G01*
X135555000Y-103378500D01*
G75*
G02*
X135405000Y-103528500I-150000J0D01*
G01*
G37*
%TD.AperFunction*%
%TO.P,BU9480F1,3*%
%TO.N,GND*%
%TA.AperFunction,SMDPad,CuDef*%
G36*
G01*
X134135000Y-103528500D02*
X133835000Y-103528500D01*
G75*
G02*
X133685000Y-103378500I0J150000D01*
G01*
X133685000Y-101728500D01*
G75*
G02*
X133835000Y-101578500I150000J0D01*
G01*
X134135000Y-101578500D01*
G75*
G02*
X134285000Y-101728500I0J-150000D01*
G01*
X134285000Y-103378500D01*
G75*
G02*
X134135000Y-103528500I-150000J0D01*
G01*
G37*
%TD.AperFunction*%
%TO.P,BU9480F1,2*%
%TO.N,Net-(BU9480F1-Pad2)*%
%TA.AperFunction,SMDPad,CuDef*%
G36*
G01*
X132865000Y-103528500D02*
X132565000Y-103528500D01*
G75*
G02*
X132415000Y-103378500I0J150000D01*
G01*
X132415000Y-101728500D01*
G75*
G02*
X132565000Y-101578500I150000J0D01*
G01*
X132865000Y-101578500D01*
G75*
G02*
X133015000Y-101728500I0J-150000D01*
G01*
X133015000Y-103378500D01*
G75*
G02*
X132865000Y-103528500I-150000J0D01*
G01*
G37*
%TD.AperFunction*%
%TO.P,BU9480F1,1*%
%TO.N,Net-(BU9480F1-Pad1)*%
%TA.AperFunction,SMDPad,CuDef*%
G36*
G01*
X131595000Y-103528500D02*
X131295000Y-103528500D01*
G75*
G02*
X131145000Y-103378500I0J150000D01*
G01*
X131145000Y-101728500D01*
G75*
G02*
X131295000Y-101578500I150000J0D01*
G01*
X131595000Y-101578500D01*
G75*
G02*
X131745000Y-101728500I0J-150000D01*
G01*
X131745000Y-103378500D01*
G75*
G02*
X131595000Y-103528500I-150000J0D01*
G01*
G37*
%TD.AperFunction*%
%TD*%
D12*
%TO.P,J5,2*%
%TO.N,+5V*%
X100965000Y-115317000D03*
%TO.P,J5,1*%
%TO.N,Net-(J1-Pad1)*%
X100965000Y-122047000D03*
%TD*%
D13*
%TO.P,X1,4*%
%TO.N,+5V*%
X124587000Y-92596000D03*
%TO.P,X1,3*%
%TO.N,Net-(X1-Pad3)*%
X124587000Y-94996000D03*
%TO.P,X1,2*%
%TO.N,GND*%
X122687000Y-94996000D03*
%TO.P,X1,1*%
%TO.N,N/C*%
X122687000Y-92596000D03*
%TD*%
%TO.P,C13,2*%
%TO.N,Net-(C13-Pad2)*%
%TA.AperFunction,SMDPad,CuDef*%
G36*
G01*
X123275000Y-110460000D02*
X124375000Y-110460000D01*
G75*
G02*
X124625000Y-110710000I0J-250000D01*
G01*
X124625000Y-112810000D01*
G75*
G02*
X124375000Y-113060000I-250000J0D01*
G01*
X123275000Y-113060000D01*
G75*
G02*
X123025000Y-112810000I0J250000D01*
G01*
X123025000Y-110710000D01*
G75*
G02*
X123275000Y-110460000I250000J0D01*
G01*
G37*
%TD.AperFunction*%
%TO.P,C13,1*%
%TO.N,Net-(BU9480F1-Pad1)*%
%TA.AperFunction,SMDPad,CuDef*%
G36*
G01*
X123275000Y-106860000D02*
X124375000Y-106860000D01*
G75*
G02*
X124625000Y-107110000I0J-250000D01*
G01*
X124625000Y-109210000D01*
G75*
G02*
X124375000Y-109460000I-250000J0D01*
G01*
X123275000Y-109460000D01*
G75*
G02*
X123025000Y-109210000I0J250000D01*
G01*
X123025000Y-107110000D01*
G75*
G02*
X123275000Y-106860000I250000J0D01*
G01*
G37*
%TD.AperFunction*%
%TD*%
%TO.P,C12,2*%
%TO.N,Net-(C12-Pad2)*%
%TA.AperFunction,SMDPad,CuDef*%
G36*
G01*
X120862000Y-102840000D02*
X121962000Y-102840000D01*
G75*
G02*
X122212000Y-103090000I0J-250000D01*
G01*
X122212000Y-105190000D01*
G75*
G02*
X121962000Y-105440000I-250000J0D01*
G01*
X120862000Y-105440000D01*
G75*
G02*
X120612000Y-105190000I0J250000D01*
G01*
X120612000Y-103090000D01*
G75*
G02*
X120862000Y-102840000I250000J0D01*
G01*
G37*
%TD.AperFunction*%
%TO.P,C12,1*%
%TO.N,Aud*%
%TA.AperFunction,SMDPad,CuDef*%
G36*
G01*
X120862000Y-99240000D02*
X121962000Y-99240000D01*
G75*
G02*
X122212000Y-99490000I0J-250000D01*
G01*
X122212000Y-101590000D01*
G75*
G02*
X121962000Y-101840000I-250000J0D01*
G01*
X120862000Y-101840000D01*
G75*
G02*
X120612000Y-101590000I0J250000D01*
G01*
X120612000Y-99490000D01*
G75*
G02*
X120862000Y-99240000I250000J0D01*
G01*
G37*
%TD.AperFunction*%
%TD*%
%TO.P,C11,2*%
%TO.N,Net-(C11-Pad2)*%
%TA.AperFunction,SMDPad,CuDef*%
G36*
G01*
X125942000Y-102840000D02*
X127042000Y-102840000D01*
G75*
G02*
X127292000Y-103090000I0J-250000D01*
G01*
X127292000Y-105190000D01*
G75*
G02*
X127042000Y-105440000I-250000J0D01*
G01*
X125942000Y-105440000D01*
G75*
G02*
X125692000Y-105190000I0J250000D01*
G01*
X125692000Y-103090000D01*
G75*
G02*
X125942000Y-102840000I250000J0D01*
G01*
G37*
%TD.AperFunction*%
%TO.P,C11,1*%
%TO.N,Aud*%
%TA.AperFunction,SMDPad,CuDef*%
G36*
G01*
X125942000Y-99240000D02*
X127042000Y-99240000D01*
G75*
G02*
X127292000Y-99490000I0J-250000D01*
G01*
X127292000Y-101590000D01*
G75*
G02*
X127042000Y-101840000I-250000J0D01*
G01*
X125942000Y-101840000D01*
G75*
G02*
X125692000Y-101590000I0J250000D01*
G01*
X125692000Y-99490000D01*
G75*
G02*
X125942000Y-99240000I250000J0D01*
G01*
G37*
%TD.AperFunction*%
%TD*%
%TO.P,C10,2*%
%TO.N,Net-(C10-Pad2)*%
%TA.AperFunction,SMDPad,CuDef*%
G36*
G01*
X133435000Y-110460000D02*
X134535000Y-110460000D01*
G75*
G02*
X134785000Y-110710000I0J-250000D01*
G01*
X134785000Y-112810000D01*
G75*
G02*
X134535000Y-113060000I-250000J0D01*
G01*
X133435000Y-113060000D01*
G75*
G02*
X133185000Y-112810000I0J250000D01*
G01*
X133185000Y-110710000D01*
G75*
G02*
X133435000Y-110460000I250000J0D01*
G01*
G37*
%TD.AperFunction*%
%TO.P,C10,1*%
%TO.N,Net-(BU9480F1-Pad4)*%
%TA.AperFunction,SMDPad,CuDef*%
G36*
G01*
X133435000Y-106860000D02*
X134535000Y-106860000D01*
G75*
G02*
X134785000Y-107110000I0J-250000D01*
G01*
X134785000Y-109210000D01*
G75*
G02*
X134535000Y-109460000I-250000J0D01*
G01*
X133435000Y-109460000D01*
G75*
G02*
X133185000Y-109210000I0J250000D01*
G01*
X133185000Y-107110000D01*
G75*
G02*
X133435000Y-106860000I250000J0D01*
G01*
G37*
%TD.AperFunction*%
%TD*%
%TO.P,C2,2*%
%TO.N,GND*%
%TA.AperFunction,SMDPad,CuDef*%
G36*
G01*
X128355000Y-110460000D02*
X129455000Y-110460000D01*
G75*
G02*
X129705000Y-110710000I0J-250000D01*
G01*
X129705000Y-112810000D01*
G75*
G02*
X129455000Y-113060000I-250000J0D01*
G01*
X128355000Y-113060000D01*
G75*
G02*
X128105000Y-112810000I0J250000D01*
G01*
X128105000Y-110710000D01*
G75*
G02*
X128355000Y-110460000I250000J0D01*
G01*
G37*
%TD.AperFunction*%
%TO.P,C2,1*%
%TO.N,Net-(BU9480F1-Pad2)*%
%TA.AperFunction,SMDPad,CuDef*%
G36*
G01*
X128355000Y-106860000D02*
X129455000Y-106860000D01*
G75*
G02*
X129705000Y-107110000I0J-250000D01*
G01*
X129705000Y-109210000D01*
G75*
G02*
X129455000Y-109460000I-250000J0D01*
G01*
X128355000Y-109460000D01*
G75*
G02*
X128105000Y-109210000I0J250000D01*
G01*
X128105000Y-107110000D01*
G75*
G02*
X128355000Y-106860000I250000J0D01*
G01*
G37*
%TD.AperFunction*%
%TD*%
D14*
%TO.P,J6,2*%
%TO.N,N/C*%
X106990000Y-121540000D03*
%TO.P,J6,T*%
%TO.N,Net-(J6-PadT)*%
X106990000Y-114340000D03*
%TO.P,J6,TN*%
%TO.N,Net-(J6-PadSN)*%
X106990000Y-112140000D03*
%TO.P,J6,G*%
%TO.N,GND*%
X113990000Y-121540000D03*
%TO.P,J6,S*%
%TO.N,Net-(J6-PadS)*%
X113990000Y-118140000D03*
%TO.P,J6,SN*%
%TO.N,Net-(J6-PadSN)*%
X113990000Y-112640000D03*
%TD*%
D10*
%TO.P,J2,7*%
%TO.N,GND*%
X99060000Y-66040000D03*
%TO.P,J2,6*%
%TO.N,N/C*%
X99060000Y-68580000D03*
%TO.P,J2,5*%
X99060000Y-71120000D03*
%TO.P,J2,4*%
%TO.N,Joy2_D0*%
X99060000Y-73660000D03*
%TO.P,J2,3*%
%TO.N,OUT0*%
X99060000Y-76200000D03*
%TO.P,J2,2*%
%TO.N,Joy2_OE*%
X99060000Y-78740000D03*
D11*
%TO.P,J2,1*%
%TO.N,Net-(J1-Pad1)*%
X99060000Y-81280000D03*
%TD*%
D10*
%TO.P,J1,7*%
%TO.N,GND*%
X99060000Y-101600000D03*
%TO.P,J1,6*%
%TO.N,N/C*%
X99060000Y-99060000D03*
%TO.P,J1,5*%
X99060000Y-96520000D03*
%TO.P,J1,4*%
%TO.N,Joy1_D0*%
X99060000Y-93980000D03*
%TO.P,J1,3*%
%TO.N,OUT0*%
X99060000Y-91440000D03*
%TO.P,J1,2*%
%TO.N,Joy1_OE*%
X99060000Y-88900000D03*
D11*
%TO.P,J1,1*%
%TO.N,Net-(J1-Pad1)*%
X99060000Y-86360000D03*
%TD*%
%TO.P,U1,16*%
%TO.N,+5V*%
%TA.AperFunction,SMDPad,CuDef*%
G36*
G01*
X101115000Y-40410000D02*
X100815000Y-40410000D01*
G75*
G02*
X100665000Y-40260000I0J150000D01*
G01*
X100665000Y-38610000D01*
G75*
G02*
X100815000Y-38460000I150000J0D01*
G01*
X101115000Y-38460000D01*
G75*
G02*
X101265000Y-38610000I0J-150000D01*
G01*
X101265000Y-40260000D01*
G75*
G02*
X101115000Y-40410000I-150000J0D01*
G01*
G37*
%TD.AperFunction*%
%TO.P,U1,15*%
%TO.N,ROMSEL*%
%TA.AperFunction,SMDPad,CuDef*%
G36*
G01*
X102385000Y-40410000D02*
X102085000Y-40410000D01*
G75*
G02*
X101935000Y-40260000I0J150000D01*
G01*
X101935000Y-38610000D01*
G75*
G02*
X102085000Y-38460000I150000J0D01*
G01*
X102385000Y-38460000D01*
G75*
G02*
X102535000Y-38610000I0J-150000D01*
G01*
X102535000Y-40260000D01*
G75*
G02*
X102385000Y-40410000I-150000J0D01*
G01*
G37*
%TD.AperFunction*%
%TO.P,U1,14*%
%TO.N,A14*%
%TA.AperFunction,SMDPad,CuDef*%
G36*
G01*
X103655000Y-40410000D02*
X103355000Y-40410000D01*
G75*
G02*
X103205000Y-40260000I0J150000D01*
G01*
X103205000Y-38610000D01*
G75*
G02*
X103355000Y-38460000I150000J0D01*
G01*
X103655000Y-38460000D01*
G75*
G02*
X103805000Y-38610000I0J-150000D01*
G01*
X103805000Y-40260000D01*
G75*
G02*
X103655000Y-40410000I-150000J0D01*
G01*
G37*
%TD.AperFunction*%
%TO.P,U1,13*%
%TO.N,R-W*%
%TA.AperFunction,SMDPad,CuDef*%
G36*
G01*
X104925000Y-40410000D02*
X104625000Y-40410000D01*
G75*
G02*
X104475000Y-40260000I0J150000D01*
G01*
X104475000Y-38610000D01*
G75*
G02*
X104625000Y-38460000I150000J0D01*
G01*
X104925000Y-38460000D01*
G75*
G02*
X105075000Y-38610000I0J-150000D01*
G01*
X105075000Y-40260000D01*
G75*
G02*
X104925000Y-40410000I-150000J0D01*
G01*
G37*
%TD.AperFunction*%
%TO.P,U1,12*%
%TO.N,N/C*%
%TA.AperFunction,SMDPad,CuDef*%
G36*
G01*
X106195000Y-40410000D02*
X105895000Y-40410000D01*
G75*
G02*
X105745000Y-40260000I0J150000D01*
G01*
X105745000Y-38610000D01*
G75*
G02*
X105895000Y-38460000I150000J0D01*
G01*
X106195000Y-38460000D01*
G75*
G02*
X106345000Y-38610000I0J-150000D01*
G01*
X106345000Y-40260000D01*
G75*
G02*
X106195000Y-40410000I-150000J0D01*
G01*
G37*
%TD.AperFunction*%
%TO.P,U1,11*%
%TO.N,CS_*%
%TA.AperFunction,SMDPad,CuDef*%
G36*
G01*
X107465000Y-40410000D02*
X107165000Y-40410000D01*
G75*
G02*
X107015000Y-40260000I0J150000D01*
G01*
X107015000Y-38610000D01*
G75*
G02*
X107165000Y-38460000I150000J0D01*
G01*
X107465000Y-38460000D01*
G75*
G02*
X107615000Y-38610000I0J-150000D01*
G01*
X107615000Y-40260000D01*
G75*
G02*
X107465000Y-40410000I-150000J0D01*
G01*
G37*
%TD.AperFunction*%
%TO.P,U1,10*%
%TO.N,N/C*%
%TA.AperFunction,SMDPad,CuDef*%
G36*
G01*
X108735000Y-40410000D02*
X108435000Y-40410000D01*
G75*
G02*
X108285000Y-40260000I0J150000D01*
G01*
X108285000Y-38610000D01*
G75*
G02*
X108435000Y-38460000I150000J0D01*
G01*
X108735000Y-38460000D01*
G75*
G02*
X108885000Y-38610000I0J-150000D01*
G01*
X108885000Y-40260000D01*
G75*
G02*
X108735000Y-40410000I-150000J0D01*
G01*
G37*
%TD.AperFunction*%
%TO.P,U1,9*%
%TA.AperFunction,SMDPad,CuDef*%
G36*
G01*
X110005000Y-40410000D02*
X109705000Y-40410000D01*
G75*
G02*
X109555000Y-40260000I0J150000D01*
G01*
X109555000Y-38610000D01*
G75*
G02*
X109705000Y-38460000I150000J0D01*
G01*
X110005000Y-38460000D01*
G75*
G02*
X110155000Y-38610000I0J-150000D01*
G01*
X110155000Y-40260000D01*
G75*
G02*
X110005000Y-40410000I-150000J0D01*
G01*
G37*
%TD.AperFunction*%
%TO.P,U1,8*%
%TO.N,GND*%
%TA.AperFunction,SMDPad,CuDef*%
G36*
G01*
X110005000Y-45360000D02*
X109705000Y-45360000D01*
G75*
G02*
X109555000Y-45210000I0J150000D01*
G01*
X109555000Y-43560000D01*
G75*
G02*
X109705000Y-43410000I150000J0D01*
G01*
X110005000Y-43410000D01*
G75*
G02*
X110155000Y-43560000I0J-150000D01*
G01*
X110155000Y-45210000D01*
G75*
G02*
X110005000Y-45360000I-150000J0D01*
G01*
G37*
%TD.AperFunction*%
%TO.P,U1,7*%
%TO.N,OUT1_*%
%TA.AperFunction,SMDPad,CuDef*%
G36*
G01*
X108735000Y-45360000D02*
X108435000Y-45360000D01*
G75*
G02*
X108285000Y-45210000I0J150000D01*
G01*
X108285000Y-43560000D01*
G75*
G02*
X108435000Y-43410000I150000J0D01*
G01*
X108735000Y-43410000D01*
G75*
G02*
X108885000Y-43560000I0J-150000D01*
G01*
X108885000Y-45210000D01*
G75*
G02*
X108735000Y-45360000I-150000J0D01*
G01*
G37*
%TD.AperFunction*%
%TO.P,U1,6*%
%TO.N,N/C*%
%TA.AperFunction,SMDPad,CuDef*%
G36*
G01*
X107465000Y-45360000D02*
X107165000Y-45360000D01*
G75*
G02*
X107015000Y-45210000I0J150000D01*
G01*
X107015000Y-43560000D01*
G75*
G02*
X107165000Y-43410000I150000J0D01*
G01*
X107465000Y-43410000D01*
G75*
G02*
X107615000Y-43560000I0J-150000D01*
G01*
X107615000Y-45210000D01*
G75*
G02*
X107465000Y-45360000I-150000J0D01*
G01*
G37*
%TD.AperFunction*%
%TO.P,U1,5*%
%TA.AperFunction,SMDPad,CuDef*%
G36*
G01*
X106195000Y-45360000D02*
X105895000Y-45360000D01*
G75*
G02*
X105745000Y-45210000I0J150000D01*
G01*
X105745000Y-43560000D01*
G75*
G02*
X105895000Y-43410000I150000J0D01*
G01*
X106195000Y-43410000D01*
G75*
G02*
X106345000Y-43560000I0J-150000D01*
G01*
X106345000Y-45210000D01*
G75*
G02*
X106195000Y-45360000I-150000J0D01*
G01*
G37*
%TD.AperFunction*%
%TO.P,U1,4*%
%TA.AperFunction,SMDPad,CuDef*%
G36*
G01*
X104925000Y-45360000D02*
X104625000Y-45360000D01*
G75*
G02*
X104475000Y-45210000I0J150000D01*
G01*
X104475000Y-43560000D01*
G75*
G02*
X104625000Y-43410000I150000J0D01*
G01*
X104925000Y-43410000D01*
G75*
G02*
X105075000Y-43560000I0J-150000D01*
G01*
X105075000Y-45210000D01*
G75*
G02*
X104925000Y-45360000I-150000J0D01*
G01*
G37*
%TD.AperFunction*%
%TO.P,U1,3*%
%TO.N,OUT1*%
%TA.AperFunction,SMDPad,CuDef*%
G36*
G01*
X103655000Y-45360000D02*
X103355000Y-45360000D01*
G75*
G02*
X103205000Y-45210000I0J150000D01*
G01*
X103205000Y-43560000D01*
G75*
G02*
X103355000Y-43410000I150000J0D01*
G01*
X103655000Y-43410000D01*
G75*
G02*
X103805000Y-43560000I0J-150000D01*
G01*
X103805000Y-45210000D01*
G75*
G02*
X103655000Y-45360000I-150000J0D01*
G01*
G37*
%TD.AperFunction*%
%TO.P,U1,2*%
%TA.AperFunction,SMDPad,CuDef*%
G36*
G01*
X102385000Y-45360000D02*
X102085000Y-45360000D01*
G75*
G02*
X101935000Y-45210000I0J150000D01*
G01*
X101935000Y-43560000D01*
G75*
G02*
X102085000Y-43410000I150000J0D01*
G01*
X102385000Y-43410000D01*
G75*
G02*
X102535000Y-43560000I0J-150000D01*
G01*
X102535000Y-45210000D01*
G75*
G02*
X102385000Y-45360000I-150000J0D01*
G01*
G37*
%TD.AperFunction*%
%TO.P,U1,1*%
%TO.N,GND*%
%TA.AperFunction,SMDPad,CuDef*%
G36*
G01*
X101115000Y-45360000D02*
X100815000Y-45360000D01*
G75*
G02*
X100665000Y-45210000I0J150000D01*
G01*
X100665000Y-43560000D01*
G75*
G02*
X100815000Y-43410000I150000J0D01*
G01*
X101115000Y-43410000D01*
G75*
G02*
X101265000Y-43560000I0J-150000D01*
G01*
X101265000Y-45210000D01*
G75*
G02*
X101115000Y-45360000I-150000J0D01*
G01*
G37*
%TD.AperFunction*%
%TD*%
%TO.P,U10,16*%
%TO.N,+5V*%
%TA.AperFunction,SMDPad,CuDef*%
G36*
G01*
X101830000Y-52855000D02*
X101830000Y-52555000D01*
G75*
G02*
X101980000Y-52405000I150000J0D01*
G01*
X103630000Y-52405000D01*
G75*
G02*
X103780000Y-52555000I0J-150000D01*
G01*
X103780000Y-52855000D01*
G75*
G02*
X103630000Y-53005000I-150000J0D01*
G01*
X101980000Y-53005000D01*
G75*
G02*
X101830000Y-52855000I0J150000D01*
G01*
G37*
%TD.AperFunction*%
%TO.P,U10,15*%
%TO.N,GND*%
%TA.AperFunction,SMDPad,CuDef*%
G36*
G01*
X101830000Y-54125000D02*
X101830000Y-53825000D01*
G75*
G02*
X101980000Y-53675000I150000J0D01*
G01*
X103630000Y-53675000D01*
G75*
G02*
X103780000Y-53825000I0J-150000D01*
G01*
X103780000Y-54125000D01*
G75*
G02*
X103630000Y-54275000I-150000J0D01*
G01*
X101980000Y-54275000D01*
G75*
G02*
X101830000Y-54125000I0J150000D01*
G01*
G37*
%TD.AperFunction*%
%TO.P,U10,14*%
%TO.N,CS_*%
%TA.AperFunction,SMDPad,CuDef*%
G36*
G01*
X101830000Y-55395000D02*
X101830000Y-55095000D01*
G75*
G02*
X101980000Y-54945000I150000J0D01*
G01*
X103630000Y-54945000D01*
G75*
G02*
X103780000Y-55095000I0J-150000D01*
G01*
X103780000Y-55395000D01*
G75*
G02*
X103630000Y-55545000I-150000J0D01*
G01*
X101980000Y-55545000D01*
G75*
G02*
X101830000Y-55395000I0J150000D01*
G01*
G37*
%TD.AperFunction*%
%TO.P,U10,13*%
%TO.N,CS_buf*%
%TA.AperFunction,SMDPad,CuDef*%
G36*
G01*
X101830000Y-56665000D02*
X101830000Y-56365000D01*
G75*
G02*
X101980000Y-56215000I150000J0D01*
G01*
X103630000Y-56215000D01*
G75*
G02*
X103780000Y-56365000I0J-150000D01*
G01*
X103780000Y-56665000D01*
G75*
G02*
X103630000Y-56815000I-150000J0D01*
G01*
X101980000Y-56815000D01*
G75*
G02*
X101830000Y-56665000I0J150000D01*
G01*
G37*
%TD.AperFunction*%
%TO.P,U10,12*%
%TO.N,CS_Chip*%
%TA.AperFunction,SMDPad,CuDef*%
G36*
G01*
X101830000Y-57935000D02*
X101830000Y-57635000D01*
G75*
G02*
X101980000Y-57485000I150000J0D01*
G01*
X103630000Y-57485000D01*
G75*
G02*
X103780000Y-57635000I0J-150000D01*
G01*
X103780000Y-57935000D01*
G75*
G02*
X103630000Y-58085000I-150000J0D01*
G01*
X101980000Y-58085000D01*
G75*
G02*
X101830000Y-57935000I0J150000D01*
G01*
G37*
%TD.AperFunction*%
%TO.P,U10,11*%
%TO.N,N/C*%
%TA.AperFunction,SMDPad,CuDef*%
G36*
G01*
X101830000Y-59205000D02*
X101830000Y-58905000D01*
G75*
G02*
X101980000Y-58755000I150000J0D01*
G01*
X103630000Y-58755000D01*
G75*
G02*
X103780000Y-58905000I0J-150000D01*
G01*
X103780000Y-59205000D01*
G75*
G02*
X103630000Y-59355000I-150000J0D01*
G01*
X101980000Y-59355000D01*
G75*
G02*
X101830000Y-59205000I0J150000D01*
G01*
G37*
%TD.AperFunction*%
%TO.P,U10,10*%
%TA.AperFunction,SMDPad,CuDef*%
G36*
G01*
X101830000Y-60475000D02*
X101830000Y-60175000D01*
G75*
G02*
X101980000Y-60025000I150000J0D01*
G01*
X103630000Y-60025000D01*
G75*
G02*
X103780000Y-60175000I0J-150000D01*
G01*
X103780000Y-60475000D01*
G75*
G02*
X103630000Y-60625000I-150000J0D01*
G01*
X101980000Y-60625000D01*
G75*
G02*
X101830000Y-60475000I0J150000D01*
G01*
G37*
%TD.AperFunction*%
%TO.P,U10,9*%
%TA.AperFunction,SMDPad,CuDef*%
G36*
G01*
X101830000Y-61745000D02*
X101830000Y-61445000D01*
G75*
G02*
X101980000Y-61295000I150000J0D01*
G01*
X103630000Y-61295000D01*
G75*
G02*
X103780000Y-61445000I0J-150000D01*
G01*
X103780000Y-61745000D01*
G75*
G02*
X103630000Y-61895000I-150000J0D01*
G01*
X101980000Y-61895000D01*
G75*
G02*
X101830000Y-61745000I0J150000D01*
G01*
G37*
%TD.AperFunction*%
%TO.P,U10,8*%
%TO.N,GND*%
%TA.AperFunction,SMDPad,CuDef*%
G36*
G01*
X96880000Y-61745000D02*
X96880000Y-61445000D01*
G75*
G02*
X97030000Y-61295000I150000J0D01*
G01*
X98680000Y-61295000D01*
G75*
G02*
X98830000Y-61445000I0J-150000D01*
G01*
X98830000Y-61745000D01*
G75*
G02*
X98680000Y-61895000I-150000J0D01*
G01*
X97030000Y-61895000D01*
G75*
G02*
X96880000Y-61745000I0J150000D01*
G01*
G37*
%TD.AperFunction*%
%TO.P,U10,7*%
%TO.N,A0_Chip*%
%TA.AperFunction,SMDPad,CuDef*%
G36*
G01*
X96880000Y-60475000D02*
X96880000Y-60175000D01*
G75*
G02*
X97030000Y-60025000I150000J0D01*
G01*
X98680000Y-60025000D01*
G75*
G02*
X98830000Y-60175000I0J-150000D01*
G01*
X98830000Y-60475000D01*
G75*
G02*
X98680000Y-60625000I-150000J0D01*
G01*
X97030000Y-60625000D01*
G75*
G02*
X96880000Y-60475000I0J150000D01*
G01*
G37*
%TD.AperFunction*%
%TO.P,U10,6*%
%TO.N,A0_buf*%
%TA.AperFunction,SMDPad,CuDef*%
G36*
G01*
X96880000Y-59205000D02*
X96880000Y-58905000D01*
G75*
G02*
X97030000Y-58755000I150000J0D01*
G01*
X98680000Y-58755000D01*
G75*
G02*
X98830000Y-58905000I0J-150000D01*
G01*
X98830000Y-59205000D01*
G75*
G02*
X98680000Y-59355000I-150000J0D01*
G01*
X97030000Y-59355000D01*
G75*
G02*
X96880000Y-59205000I0J150000D01*
G01*
G37*
%TD.AperFunction*%
%TO.P,U10,5*%
%TO.N,A13*%
%TA.AperFunction,SMDPad,CuDef*%
G36*
G01*
X96880000Y-57935000D02*
X96880000Y-57635000D01*
G75*
G02*
X97030000Y-57485000I150000J0D01*
G01*
X98680000Y-57485000D01*
G75*
G02*
X98830000Y-57635000I0J-150000D01*
G01*
X98830000Y-57935000D01*
G75*
G02*
X98680000Y-58085000I-150000J0D01*
G01*
X97030000Y-58085000D01*
G75*
G02*
X96880000Y-57935000I0J150000D01*
G01*
G37*
%TD.AperFunction*%
%TO.P,U10,4*%
%TO.N,A1_Chip*%
%TA.AperFunction,SMDPad,CuDef*%
G36*
G01*
X96880000Y-56665000D02*
X96880000Y-56365000D01*
G75*
G02*
X97030000Y-56215000I150000J0D01*
G01*
X98680000Y-56215000D01*
G75*
G02*
X98830000Y-56365000I0J-150000D01*
G01*
X98830000Y-56665000D01*
G75*
G02*
X98680000Y-56815000I-150000J0D01*
G01*
X97030000Y-56815000D01*
G75*
G02*
X96880000Y-56665000I0J150000D01*
G01*
G37*
%TD.AperFunction*%
%TO.P,U10,3*%
%TO.N,A1_buf*%
%TA.AperFunction,SMDPad,CuDef*%
G36*
G01*
X96880000Y-55395000D02*
X96880000Y-55095000D01*
G75*
G02*
X97030000Y-54945000I150000J0D01*
G01*
X98680000Y-54945000D01*
G75*
G02*
X98830000Y-55095000I0J-150000D01*
G01*
X98830000Y-55395000D01*
G75*
G02*
X98680000Y-55545000I-150000J0D01*
G01*
X97030000Y-55545000D01*
G75*
G02*
X96880000Y-55395000I0J150000D01*
G01*
G37*
%TD.AperFunction*%
%TO.P,U10,2*%
%TO.N,A1*%
%TA.AperFunction,SMDPad,CuDef*%
G36*
G01*
X96880000Y-54125000D02*
X96880000Y-53825000D01*
G75*
G02*
X97030000Y-53675000I150000J0D01*
G01*
X98680000Y-53675000D01*
G75*
G02*
X98830000Y-53825000I0J-150000D01*
G01*
X98830000Y-54125000D01*
G75*
G02*
X98680000Y-54275000I-150000J0D01*
G01*
X97030000Y-54275000D01*
G75*
G02*
X96880000Y-54125000I0J150000D01*
G01*
G37*
%TD.AperFunction*%
%TO.P,U10,1*%
%TO.N,4016_EN*%
%TA.AperFunction,SMDPad,CuDef*%
G36*
G01*
X96880000Y-52855000D02*
X96880000Y-52555000D01*
G75*
G02*
X97030000Y-52405000I150000J0D01*
G01*
X98680000Y-52405000D01*
G75*
G02*
X98830000Y-52555000I0J-150000D01*
G01*
X98830000Y-52855000D01*
G75*
G02*
X98680000Y-53005000I-150000J0D01*
G01*
X97030000Y-53005000D01*
G75*
G02*
X96880000Y-52855000I0J150000D01*
G01*
G37*
%TD.AperFunction*%
%TD*%
%TO.P,U9,16*%
%TO.N,+5V*%
%TA.AperFunction,SMDPad,CuDef*%
G36*
G01*
X136375000Y-67540000D02*
X136675000Y-67540000D01*
G75*
G02*
X136825000Y-67690000I0J-150000D01*
G01*
X136825000Y-69340000D01*
G75*
G02*
X136675000Y-69490000I-150000J0D01*
G01*
X136375000Y-69490000D01*
G75*
G02*
X136225000Y-69340000I0J150000D01*
G01*
X136225000Y-67690000D01*
G75*
G02*
X136375000Y-67540000I150000J0D01*
G01*
G37*
%TD.AperFunction*%
%TO.P,U9,15*%
%TO.N,GND*%
%TA.AperFunction,SMDPad,CuDef*%
G36*
G01*
X135105000Y-67540000D02*
X135405000Y-67540000D01*
G75*
G02*
X135555000Y-67690000I0J-150000D01*
G01*
X135555000Y-69340000D01*
G75*
G02*
X135405000Y-69490000I-150000J0D01*
G01*
X135105000Y-69490000D01*
G75*
G02*
X134955000Y-69340000I0J150000D01*
G01*
X134955000Y-67690000D01*
G75*
G02*
X135105000Y-67540000I150000J0D01*
G01*
G37*
%TD.AperFunction*%
%TO.P,U9,14*%
%TO.N,D2*%
%TA.AperFunction,SMDPad,CuDef*%
G36*
G01*
X133835000Y-67540000D02*
X134135000Y-67540000D01*
G75*
G02*
X134285000Y-67690000I0J-150000D01*
G01*
X134285000Y-69340000D01*
G75*
G02*
X134135000Y-69490000I-150000J0D01*
G01*
X133835000Y-69490000D01*
G75*
G02*
X133685000Y-69340000I0J150000D01*
G01*
X133685000Y-67690000D01*
G75*
G02*
X133835000Y-67540000I150000J0D01*
G01*
G37*
%TD.AperFunction*%
%TO.P,U9,13*%
%TO.N,D2_buf*%
%TA.AperFunction,SMDPad,CuDef*%
G36*
G01*
X132565000Y-67540000D02*
X132865000Y-67540000D01*
G75*
G02*
X133015000Y-67690000I0J-150000D01*
G01*
X133015000Y-69340000D01*
G75*
G02*
X132865000Y-69490000I-150000J0D01*
G01*
X132565000Y-69490000D01*
G75*
G02*
X132415000Y-69340000I0J150000D01*
G01*
X132415000Y-67690000D01*
G75*
G02*
X132565000Y-67540000I150000J0D01*
G01*
G37*
%TD.AperFunction*%
%TO.P,U9,12*%
%TO.N,D2_Chip*%
%TA.AperFunction,SMDPad,CuDef*%
G36*
G01*
X131295000Y-67540000D02*
X131595000Y-67540000D01*
G75*
G02*
X131745000Y-67690000I0J-150000D01*
G01*
X131745000Y-69340000D01*
G75*
G02*
X131595000Y-69490000I-150000J0D01*
G01*
X131295000Y-69490000D01*
G75*
G02*
X131145000Y-69340000I0J150000D01*
G01*
X131145000Y-67690000D01*
G75*
G02*
X131295000Y-67540000I150000J0D01*
G01*
G37*
%TD.AperFunction*%
%TO.P,U9,11*%
%TO.N,D3*%
%TA.AperFunction,SMDPad,CuDef*%
G36*
G01*
X130025000Y-67540000D02*
X130325000Y-67540000D01*
G75*
G02*
X130475000Y-67690000I0J-150000D01*
G01*
X130475000Y-69340000D01*
G75*
G02*
X130325000Y-69490000I-150000J0D01*
G01*
X130025000Y-69490000D01*
G75*
G02*
X129875000Y-69340000I0J150000D01*
G01*
X129875000Y-67690000D01*
G75*
G02*
X130025000Y-67540000I150000J0D01*
G01*
G37*
%TD.AperFunction*%
%TO.P,U9,10*%
%TO.N,D3_buf*%
%TA.AperFunction,SMDPad,CuDef*%
G36*
G01*
X128755000Y-67540000D02*
X129055000Y-67540000D01*
G75*
G02*
X129205000Y-67690000I0J-150000D01*
G01*
X129205000Y-69340000D01*
G75*
G02*
X129055000Y-69490000I-150000J0D01*
G01*
X128755000Y-69490000D01*
G75*
G02*
X128605000Y-69340000I0J150000D01*
G01*
X128605000Y-67690000D01*
G75*
G02*
X128755000Y-67540000I150000J0D01*
G01*
G37*
%TD.AperFunction*%
%TO.P,U9,9*%
%TO.N,D3_Chip*%
%TA.AperFunction,SMDPad,CuDef*%
G36*
G01*
X127485000Y-67540000D02*
X127785000Y-67540000D01*
G75*
G02*
X127935000Y-67690000I0J-150000D01*
G01*
X127935000Y-69340000D01*
G75*
G02*
X127785000Y-69490000I-150000J0D01*
G01*
X127485000Y-69490000D01*
G75*
G02*
X127335000Y-69340000I0J150000D01*
G01*
X127335000Y-67690000D01*
G75*
G02*
X127485000Y-67540000I150000J0D01*
G01*
G37*
%TD.AperFunction*%
%TO.P,U9,8*%
%TO.N,GND*%
%TA.AperFunction,SMDPad,CuDef*%
G36*
G01*
X127485000Y-62590000D02*
X127785000Y-62590000D01*
G75*
G02*
X127935000Y-62740000I0J-150000D01*
G01*
X127935000Y-64390000D01*
G75*
G02*
X127785000Y-64540000I-150000J0D01*
G01*
X127485000Y-64540000D01*
G75*
G02*
X127335000Y-64390000I0J150000D01*
G01*
X127335000Y-62740000D01*
G75*
G02*
X127485000Y-62590000I150000J0D01*
G01*
G37*
%TD.AperFunction*%
%TO.P,U9,7*%
%TO.N,D1_Chip*%
%TA.AperFunction,SMDPad,CuDef*%
G36*
G01*
X128755000Y-62590000D02*
X129055000Y-62590000D01*
G75*
G02*
X129205000Y-62740000I0J-150000D01*
G01*
X129205000Y-64390000D01*
G75*
G02*
X129055000Y-64540000I-150000J0D01*
G01*
X128755000Y-64540000D01*
G75*
G02*
X128605000Y-64390000I0J150000D01*
G01*
X128605000Y-62740000D01*
G75*
G02*
X128755000Y-62590000I150000J0D01*
G01*
G37*
%TD.AperFunction*%
%TO.P,U9,6*%
%TO.N,D1_buf*%
%TA.AperFunction,SMDPad,CuDef*%
G36*
G01*
X130025000Y-62590000D02*
X130325000Y-62590000D01*
G75*
G02*
X130475000Y-62740000I0J-150000D01*
G01*
X130475000Y-64390000D01*
G75*
G02*
X130325000Y-64540000I-150000J0D01*
G01*
X130025000Y-64540000D01*
G75*
G02*
X129875000Y-64390000I0J150000D01*
G01*
X129875000Y-62740000D01*
G75*
G02*
X130025000Y-62590000I150000J0D01*
G01*
G37*
%TD.AperFunction*%
%TO.P,U9,5*%
%TO.N,D1*%
%TA.AperFunction,SMDPad,CuDef*%
G36*
G01*
X131295000Y-62590000D02*
X131595000Y-62590000D01*
G75*
G02*
X131745000Y-62740000I0J-150000D01*
G01*
X131745000Y-64390000D01*
G75*
G02*
X131595000Y-64540000I-150000J0D01*
G01*
X131295000Y-64540000D01*
G75*
G02*
X131145000Y-64390000I0J150000D01*
G01*
X131145000Y-62740000D01*
G75*
G02*
X131295000Y-62590000I150000J0D01*
G01*
G37*
%TD.AperFunction*%
%TO.P,U9,4*%
%TO.N,D0_Chip*%
%TA.AperFunction,SMDPad,CuDef*%
G36*
G01*
X132565000Y-62590000D02*
X132865000Y-62590000D01*
G75*
G02*
X133015000Y-62740000I0J-150000D01*
G01*
X133015000Y-64390000D01*
G75*
G02*
X132865000Y-64540000I-150000J0D01*
G01*
X132565000Y-64540000D01*
G75*
G02*
X132415000Y-64390000I0J150000D01*
G01*
X132415000Y-62740000D01*
G75*
G02*
X132565000Y-62590000I150000J0D01*
G01*
G37*
%TD.AperFunction*%
%TO.P,U9,3*%
%TO.N,D0_buf*%
%TA.AperFunction,SMDPad,CuDef*%
G36*
G01*
X133835000Y-62590000D02*
X134135000Y-62590000D01*
G75*
G02*
X134285000Y-62740000I0J-150000D01*
G01*
X134285000Y-64390000D01*
G75*
G02*
X134135000Y-64540000I-150000J0D01*
G01*
X133835000Y-64540000D01*
G75*
G02*
X133685000Y-64390000I0J150000D01*
G01*
X133685000Y-62740000D01*
G75*
G02*
X133835000Y-62590000I150000J0D01*
G01*
G37*
%TD.AperFunction*%
%TO.P,U9,2*%
%TO.N,D0*%
%TA.AperFunction,SMDPad,CuDef*%
G36*
G01*
X135105000Y-62590000D02*
X135405000Y-62590000D01*
G75*
G02*
X135555000Y-62740000I0J-150000D01*
G01*
X135555000Y-64390000D01*
G75*
G02*
X135405000Y-64540000I-150000J0D01*
G01*
X135105000Y-64540000D01*
G75*
G02*
X134955000Y-64390000I0J150000D01*
G01*
X134955000Y-62740000D01*
G75*
G02*
X135105000Y-62590000I150000J0D01*
G01*
G37*
%TD.AperFunction*%
%TO.P,U9,1*%
%TO.N,4016_EN*%
%TA.AperFunction,SMDPad,CuDef*%
G36*
G01*
X136375000Y-62590000D02*
X136675000Y-62590000D01*
G75*
G02*
X136825000Y-62740000I0J-150000D01*
G01*
X136825000Y-64390000D01*
G75*
G02*
X136675000Y-64540000I-150000J0D01*
G01*
X136375000Y-64540000D01*
G75*
G02*
X136225000Y-64390000I0J150000D01*
G01*
X136225000Y-62740000D01*
G75*
G02*
X136375000Y-62590000I150000J0D01*
G01*
G37*
%TD.AperFunction*%
%TD*%
%TO.P,U8,16*%
%TO.N,+5V*%
%TA.AperFunction,SMDPad,CuDef*%
G36*
G01*
X124945000Y-67540000D02*
X125245000Y-67540000D01*
G75*
G02*
X125395000Y-67690000I0J-150000D01*
G01*
X125395000Y-69340000D01*
G75*
G02*
X125245000Y-69490000I-150000J0D01*
G01*
X124945000Y-69490000D01*
G75*
G02*
X124795000Y-69340000I0J150000D01*
G01*
X124795000Y-67690000D01*
G75*
G02*
X124945000Y-67540000I150000J0D01*
G01*
G37*
%TD.AperFunction*%
%TO.P,U8,15*%
%TO.N,GND*%
%TA.AperFunction,SMDPad,CuDef*%
G36*
G01*
X123675000Y-67540000D02*
X123975000Y-67540000D01*
G75*
G02*
X124125000Y-67690000I0J-150000D01*
G01*
X124125000Y-69340000D01*
G75*
G02*
X123975000Y-69490000I-150000J0D01*
G01*
X123675000Y-69490000D01*
G75*
G02*
X123525000Y-69340000I0J150000D01*
G01*
X123525000Y-67690000D01*
G75*
G02*
X123675000Y-67540000I150000J0D01*
G01*
G37*
%TD.AperFunction*%
%TO.P,U8,14*%
%TO.N,D6*%
%TA.AperFunction,SMDPad,CuDef*%
G36*
G01*
X122405000Y-67540000D02*
X122705000Y-67540000D01*
G75*
G02*
X122855000Y-67690000I0J-150000D01*
G01*
X122855000Y-69340000D01*
G75*
G02*
X122705000Y-69490000I-150000J0D01*
G01*
X122405000Y-69490000D01*
G75*
G02*
X122255000Y-69340000I0J150000D01*
G01*
X122255000Y-67690000D01*
G75*
G02*
X122405000Y-67540000I150000J0D01*
G01*
G37*
%TD.AperFunction*%
%TO.P,U8,13*%
%TO.N,D6_buf*%
%TA.AperFunction,SMDPad,CuDef*%
G36*
G01*
X121135000Y-67540000D02*
X121435000Y-67540000D01*
G75*
G02*
X121585000Y-67690000I0J-150000D01*
G01*
X121585000Y-69340000D01*
G75*
G02*
X121435000Y-69490000I-150000J0D01*
G01*
X121135000Y-69490000D01*
G75*
G02*
X120985000Y-69340000I0J150000D01*
G01*
X120985000Y-67690000D01*
G75*
G02*
X121135000Y-67540000I150000J0D01*
G01*
G37*
%TD.AperFunction*%
%TO.P,U8,12*%
%TO.N,D6_Chip*%
%TA.AperFunction,SMDPad,CuDef*%
G36*
G01*
X119865000Y-67540000D02*
X120165000Y-67540000D01*
G75*
G02*
X120315000Y-67690000I0J-150000D01*
G01*
X120315000Y-69340000D01*
G75*
G02*
X120165000Y-69490000I-150000J0D01*
G01*
X119865000Y-69490000D01*
G75*
G02*
X119715000Y-69340000I0J150000D01*
G01*
X119715000Y-67690000D01*
G75*
G02*
X119865000Y-67540000I150000J0D01*
G01*
G37*
%TD.AperFunction*%
%TO.P,U8,11*%
%TO.N,D7*%
%TA.AperFunction,SMDPad,CuDef*%
G36*
G01*
X118595000Y-67540000D02*
X118895000Y-67540000D01*
G75*
G02*
X119045000Y-67690000I0J-150000D01*
G01*
X119045000Y-69340000D01*
G75*
G02*
X118895000Y-69490000I-150000J0D01*
G01*
X118595000Y-69490000D01*
G75*
G02*
X118445000Y-69340000I0J150000D01*
G01*
X118445000Y-67690000D01*
G75*
G02*
X118595000Y-67540000I150000J0D01*
G01*
G37*
%TD.AperFunction*%
%TO.P,U8,10*%
%TO.N,D7_buf*%
%TA.AperFunction,SMDPad,CuDef*%
G36*
G01*
X117325000Y-67540000D02*
X117625000Y-67540000D01*
G75*
G02*
X117775000Y-67690000I0J-150000D01*
G01*
X117775000Y-69340000D01*
G75*
G02*
X117625000Y-69490000I-150000J0D01*
G01*
X117325000Y-69490000D01*
G75*
G02*
X117175000Y-69340000I0J150000D01*
G01*
X117175000Y-67690000D01*
G75*
G02*
X117325000Y-67540000I150000J0D01*
G01*
G37*
%TD.AperFunction*%
%TO.P,U8,9*%
%TO.N,D7_Chip*%
%TA.AperFunction,SMDPad,CuDef*%
G36*
G01*
X116055000Y-67540000D02*
X116355000Y-67540000D01*
G75*
G02*
X116505000Y-67690000I0J-150000D01*
G01*
X116505000Y-69340000D01*
G75*
G02*
X116355000Y-69490000I-150000J0D01*
G01*
X116055000Y-69490000D01*
G75*
G02*
X115905000Y-69340000I0J150000D01*
G01*
X115905000Y-67690000D01*
G75*
G02*
X116055000Y-67540000I150000J0D01*
G01*
G37*
%TD.AperFunction*%
%TO.P,U8,8*%
%TO.N,GND*%
%TA.AperFunction,SMDPad,CuDef*%
G36*
G01*
X116055000Y-62590000D02*
X116355000Y-62590000D01*
G75*
G02*
X116505000Y-62740000I0J-150000D01*
G01*
X116505000Y-64390000D01*
G75*
G02*
X116355000Y-64540000I-150000J0D01*
G01*
X116055000Y-64540000D01*
G75*
G02*
X115905000Y-64390000I0J150000D01*
G01*
X115905000Y-62740000D01*
G75*
G02*
X116055000Y-62590000I150000J0D01*
G01*
G37*
%TD.AperFunction*%
%TO.P,U8,7*%
%TO.N,D5_Chip*%
%TA.AperFunction,SMDPad,CuDef*%
G36*
G01*
X117325000Y-62590000D02*
X117625000Y-62590000D01*
G75*
G02*
X117775000Y-62740000I0J-150000D01*
G01*
X117775000Y-64390000D01*
G75*
G02*
X117625000Y-64540000I-150000J0D01*
G01*
X117325000Y-64540000D01*
G75*
G02*
X117175000Y-64390000I0J150000D01*
G01*
X117175000Y-62740000D01*
G75*
G02*
X117325000Y-62590000I150000J0D01*
G01*
G37*
%TD.AperFunction*%
%TO.P,U8,6*%
%TO.N,D5_buf*%
%TA.AperFunction,SMDPad,CuDef*%
G36*
G01*
X118595000Y-62590000D02*
X118895000Y-62590000D01*
G75*
G02*
X119045000Y-62740000I0J-150000D01*
G01*
X119045000Y-64390000D01*
G75*
G02*
X118895000Y-64540000I-150000J0D01*
G01*
X118595000Y-64540000D01*
G75*
G02*
X118445000Y-64390000I0J150000D01*
G01*
X118445000Y-62740000D01*
G75*
G02*
X118595000Y-62590000I150000J0D01*
G01*
G37*
%TD.AperFunction*%
%TO.P,U8,5*%
%TO.N,D5*%
%TA.AperFunction,SMDPad,CuDef*%
G36*
G01*
X119865000Y-62590000D02*
X120165000Y-62590000D01*
G75*
G02*
X120315000Y-62740000I0J-150000D01*
G01*
X120315000Y-64390000D01*
G75*
G02*
X120165000Y-64540000I-150000J0D01*
G01*
X119865000Y-64540000D01*
G75*
G02*
X119715000Y-64390000I0J150000D01*
G01*
X119715000Y-62740000D01*
G75*
G02*
X119865000Y-62590000I150000J0D01*
G01*
G37*
%TD.AperFunction*%
%TO.P,U8,4*%
%TO.N,D4_Chip*%
%TA.AperFunction,SMDPad,CuDef*%
G36*
G01*
X121135000Y-62590000D02*
X121435000Y-62590000D01*
G75*
G02*
X121585000Y-62740000I0J-150000D01*
G01*
X121585000Y-64390000D01*
G75*
G02*
X121435000Y-64540000I-150000J0D01*
G01*
X121135000Y-64540000D01*
G75*
G02*
X120985000Y-64390000I0J150000D01*
G01*
X120985000Y-62740000D01*
G75*
G02*
X121135000Y-62590000I150000J0D01*
G01*
G37*
%TD.AperFunction*%
%TO.P,U8,3*%
%TO.N,D4_buf*%
%TA.AperFunction,SMDPad,CuDef*%
G36*
G01*
X122405000Y-62590000D02*
X122705000Y-62590000D01*
G75*
G02*
X122855000Y-62740000I0J-150000D01*
G01*
X122855000Y-64390000D01*
G75*
G02*
X122705000Y-64540000I-150000J0D01*
G01*
X122405000Y-64540000D01*
G75*
G02*
X122255000Y-64390000I0J150000D01*
G01*
X122255000Y-62740000D01*
G75*
G02*
X122405000Y-62590000I150000J0D01*
G01*
G37*
%TD.AperFunction*%
%TO.P,U8,2*%
%TO.N,D4*%
%TA.AperFunction,SMDPad,CuDef*%
G36*
G01*
X123675000Y-62590000D02*
X123975000Y-62590000D01*
G75*
G02*
X124125000Y-62740000I0J-150000D01*
G01*
X124125000Y-64390000D01*
G75*
G02*
X123975000Y-64540000I-150000J0D01*
G01*
X123675000Y-64540000D01*
G75*
G02*
X123525000Y-64390000I0J150000D01*
G01*
X123525000Y-62740000D01*
G75*
G02*
X123675000Y-62590000I150000J0D01*
G01*
G37*
%TD.AperFunction*%
%TO.P,U8,1*%
%TO.N,4016_EN*%
%TA.AperFunction,SMDPad,CuDef*%
G36*
G01*
X124945000Y-62590000D02*
X125245000Y-62590000D01*
G75*
G02*
X125395000Y-62740000I0J-150000D01*
G01*
X125395000Y-64390000D01*
G75*
G02*
X125245000Y-64540000I-150000J0D01*
G01*
X124945000Y-64540000D01*
G75*
G02*
X124795000Y-64390000I0J150000D01*
G01*
X124795000Y-62740000D01*
G75*
G02*
X124945000Y-62590000I150000J0D01*
G01*
G37*
%TD.AperFunction*%
%TD*%
%TO.P,U7,16*%
%TO.N,+5V*%
%TA.AperFunction,SMDPad,CuDef*%
G36*
G01*
X122785000Y-50315000D02*
X122785000Y-50015000D01*
G75*
G02*
X122935000Y-49865000I150000J0D01*
G01*
X124585000Y-49865000D01*
G75*
G02*
X124735000Y-50015000I0J-150000D01*
G01*
X124735000Y-50315000D01*
G75*
G02*
X124585000Y-50465000I-150000J0D01*
G01*
X122935000Y-50465000D01*
G75*
G02*
X122785000Y-50315000I0J150000D01*
G01*
G37*
%TD.AperFunction*%
%TO.P,U7,15*%
%TO.N,4016_EN*%
%TA.AperFunction,SMDPad,CuDef*%
G36*
G01*
X122785000Y-51585000D02*
X122785000Y-51285000D01*
G75*
G02*
X122935000Y-51135000I150000J0D01*
G01*
X124585000Y-51135000D01*
G75*
G02*
X124735000Y-51285000I0J-150000D01*
G01*
X124735000Y-51585000D01*
G75*
G02*
X124585000Y-51735000I-150000J0D01*
G01*
X122935000Y-51735000D01*
G75*
G02*
X122785000Y-51585000I0J150000D01*
G01*
G37*
%TD.AperFunction*%
%TO.P,U7,14*%
%TO.N,+5V*%
%TA.AperFunction,SMDPad,CuDef*%
G36*
G01*
X122785000Y-52855000D02*
X122785000Y-52555000D01*
G75*
G02*
X122935000Y-52405000I150000J0D01*
G01*
X124585000Y-52405000D01*
G75*
G02*
X124735000Y-52555000I0J-150000D01*
G01*
X124735000Y-52855000D01*
G75*
G02*
X124585000Y-53005000I-150000J0D01*
G01*
X122935000Y-53005000D01*
G75*
G02*
X122785000Y-52855000I0J150000D01*
G01*
G37*
%TD.AperFunction*%
%TO.P,U7,13*%
%TO.N,N/C*%
%TA.AperFunction,SMDPad,CuDef*%
G36*
G01*
X122785000Y-54125000D02*
X122785000Y-53825000D01*
G75*
G02*
X122935000Y-53675000I150000J0D01*
G01*
X124585000Y-53675000D01*
G75*
G02*
X124735000Y-53825000I0J-150000D01*
G01*
X124735000Y-54125000D01*
G75*
G02*
X124585000Y-54275000I-150000J0D01*
G01*
X122935000Y-54275000D01*
G75*
G02*
X122785000Y-54125000I0J150000D01*
G01*
G37*
%TD.AperFunction*%
%TO.P,U7,12*%
%TA.AperFunction,SMDPad,CuDef*%
G36*
G01*
X122785000Y-55395000D02*
X122785000Y-55095000D01*
G75*
G02*
X122935000Y-54945000I150000J0D01*
G01*
X124585000Y-54945000D01*
G75*
G02*
X124735000Y-55095000I0J-150000D01*
G01*
X124735000Y-55395000D01*
G75*
G02*
X124585000Y-55545000I-150000J0D01*
G01*
X122935000Y-55545000D01*
G75*
G02*
X122785000Y-55395000I0J150000D01*
G01*
G37*
%TD.AperFunction*%
%TO.P,U7,11*%
%TO.N,D7*%
%TA.AperFunction,SMDPad,CuDef*%
G36*
G01*
X122785000Y-56665000D02*
X122785000Y-56365000D01*
G75*
G02*
X122935000Y-56215000I150000J0D01*
G01*
X124585000Y-56215000D01*
G75*
G02*
X124735000Y-56365000I0J-150000D01*
G01*
X124735000Y-56665000D01*
G75*
G02*
X124585000Y-56815000I-150000J0D01*
G01*
X122935000Y-56815000D01*
G75*
G02*
X122785000Y-56665000I0J150000D01*
G01*
G37*
%TD.AperFunction*%
%TO.P,U7,10*%
%TO.N,D3_buf*%
%TA.AperFunction,SMDPad,CuDef*%
G36*
G01*
X122785000Y-57935000D02*
X122785000Y-57635000D01*
G75*
G02*
X122935000Y-57485000I150000J0D01*
G01*
X124585000Y-57485000D01*
G75*
G02*
X124735000Y-57635000I0J-150000D01*
G01*
X124735000Y-57935000D01*
G75*
G02*
X124585000Y-58085000I-150000J0D01*
G01*
X122935000Y-58085000D01*
G75*
G02*
X122785000Y-57935000I0J150000D01*
G01*
G37*
%TD.AperFunction*%
%TO.P,U7,9*%
%TO.N,OUT1_*%
%TA.AperFunction,SMDPad,CuDef*%
G36*
G01*
X122785000Y-59205000D02*
X122785000Y-58905000D01*
G75*
G02*
X122935000Y-58755000I150000J0D01*
G01*
X124585000Y-58755000D01*
G75*
G02*
X124735000Y-58905000I0J-150000D01*
G01*
X124735000Y-59205000D01*
G75*
G02*
X124585000Y-59355000I-150000J0D01*
G01*
X122935000Y-59355000D01*
G75*
G02*
X122785000Y-59205000I0J150000D01*
G01*
G37*
%TD.AperFunction*%
%TO.P,U7,8*%
%TO.N,GND*%
%TA.AperFunction,SMDPad,CuDef*%
G36*
G01*
X117835000Y-59205000D02*
X117835000Y-58905000D01*
G75*
G02*
X117985000Y-58755000I150000J0D01*
G01*
X119635000Y-58755000D01*
G75*
G02*
X119785000Y-58905000I0J-150000D01*
G01*
X119785000Y-59205000D01*
G75*
G02*
X119635000Y-59355000I-150000J0D01*
G01*
X117985000Y-59355000D01*
G75*
G02*
X117835000Y-59205000I0J150000D01*
G01*
G37*
%TD.AperFunction*%
%TO.P,U7,7*%
%TO.N,D2_buf*%
%TA.AperFunction,SMDPad,CuDef*%
G36*
G01*
X117835000Y-57935000D02*
X117835000Y-57635000D01*
G75*
G02*
X117985000Y-57485000I150000J0D01*
G01*
X119635000Y-57485000D01*
G75*
G02*
X119785000Y-57635000I0J-150000D01*
G01*
X119785000Y-57935000D01*
G75*
G02*
X119635000Y-58085000I-150000J0D01*
G01*
X117985000Y-58085000D01*
G75*
G02*
X117835000Y-57935000I0J150000D01*
G01*
G37*
%TD.AperFunction*%
%TO.P,U7,6*%
%TO.N,D6*%
%TA.AperFunction,SMDPad,CuDef*%
G36*
G01*
X117835000Y-56665000D02*
X117835000Y-56365000D01*
G75*
G02*
X117985000Y-56215000I150000J0D01*
G01*
X119635000Y-56215000D01*
G75*
G02*
X119785000Y-56365000I0J-150000D01*
G01*
X119785000Y-56665000D01*
G75*
G02*
X119635000Y-56815000I-150000J0D01*
G01*
X117985000Y-56815000D01*
G75*
G02*
X117835000Y-56665000I0J150000D01*
G01*
G37*
%TD.AperFunction*%
%TO.P,U7,5*%
%TO.N,D1_buf*%
%TA.AperFunction,SMDPad,CuDef*%
G36*
G01*
X117835000Y-55395000D02*
X117835000Y-55095000D01*
G75*
G02*
X117985000Y-54945000I150000J0D01*
G01*
X119635000Y-54945000D01*
G75*
G02*
X119785000Y-55095000I0J-150000D01*
G01*
X119785000Y-55395000D01*
G75*
G02*
X119635000Y-55545000I-150000J0D01*
G01*
X117985000Y-55545000D01*
G75*
G02*
X117835000Y-55395000I0J150000D01*
G01*
G37*
%TD.AperFunction*%
%TO.P,U7,4*%
%TO.N,D5*%
%TA.AperFunction,SMDPad,CuDef*%
G36*
G01*
X117835000Y-54125000D02*
X117835000Y-53825000D01*
G75*
G02*
X117985000Y-53675000I150000J0D01*
G01*
X119635000Y-53675000D01*
G75*
G02*
X119785000Y-53825000I0J-150000D01*
G01*
X119785000Y-54125000D01*
G75*
G02*
X119635000Y-54275000I-150000J0D01*
G01*
X117985000Y-54275000D01*
G75*
G02*
X117835000Y-54125000I0J150000D01*
G01*
G37*
%TD.AperFunction*%
%TO.P,U7,3*%
%TO.N,D4*%
%TA.AperFunction,SMDPad,CuDef*%
G36*
G01*
X117835000Y-52855000D02*
X117835000Y-52555000D01*
G75*
G02*
X117985000Y-52405000I150000J0D01*
G01*
X119635000Y-52405000D01*
G75*
G02*
X119785000Y-52555000I0J-150000D01*
G01*
X119785000Y-52855000D01*
G75*
G02*
X119635000Y-53005000I-150000J0D01*
G01*
X117985000Y-53005000D01*
G75*
G02*
X117835000Y-52855000I0J150000D01*
G01*
G37*
%TD.AperFunction*%
%TO.P,U7,2*%
%TO.N,D0_buf*%
%TA.AperFunction,SMDPad,CuDef*%
G36*
G01*
X117835000Y-51585000D02*
X117835000Y-51285000D01*
G75*
G02*
X117985000Y-51135000I150000J0D01*
G01*
X119635000Y-51135000D01*
G75*
G02*
X119785000Y-51285000I0J-150000D01*
G01*
X119785000Y-51585000D01*
G75*
G02*
X119635000Y-51735000I-150000J0D01*
G01*
X117985000Y-51735000D01*
G75*
G02*
X117835000Y-51585000I0J150000D01*
G01*
G37*
%TD.AperFunction*%
%TO.P,U7,1*%
%TO.N,FF_Reset*%
%TA.AperFunction,SMDPad,CuDef*%
G36*
G01*
X117835000Y-50315000D02*
X117835000Y-50015000D01*
G75*
G02*
X117985000Y-49865000I150000J0D01*
G01*
X119635000Y-49865000D01*
G75*
G02*
X119785000Y-50015000I0J-150000D01*
G01*
X119785000Y-50315000D01*
G75*
G02*
X119635000Y-50465000I-150000J0D01*
G01*
X117985000Y-50465000D01*
G75*
G02*
X117835000Y-50315000I0J150000D01*
G01*
G37*
%TD.AperFunction*%
%TD*%
%TO.P,U6,16*%
%TO.N,+5V*%
%TA.AperFunction,SMDPad,CuDef*%
G36*
G01*
X134215000Y-50315000D02*
X134215000Y-50015000D01*
G75*
G02*
X134365000Y-49865000I150000J0D01*
G01*
X136015000Y-49865000D01*
G75*
G02*
X136165000Y-50015000I0J-150000D01*
G01*
X136165000Y-50315000D01*
G75*
G02*
X136015000Y-50465000I-150000J0D01*
G01*
X134365000Y-50465000D01*
G75*
G02*
X134215000Y-50315000I0J150000D01*
G01*
G37*
%TD.AperFunction*%
%TO.P,U6,15*%
%TO.N,A1_buf*%
%TA.AperFunction,SMDPad,CuDef*%
G36*
G01*
X134215000Y-51585000D02*
X134215000Y-51285000D01*
G75*
G02*
X134365000Y-51135000I150000J0D01*
G01*
X136015000Y-51135000D01*
G75*
G02*
X136165000Y-51285000I0J-150000D01*
G01*
X136165000Y-51585000D01*
G75*
G02*
X136015000Y-51735000I-150000J0D01*
G01*
X134365000Y-51735000D01*
G75*
G02*
X134215000Y-51585000I0J150000D01*
G01*
G37*
%TD.AperFunction*%
%TO.P,U6,14*%
%TO.N,D2*%
%TA.AperFunction,SMDPad,CuDef*%
G36*
G01*
X134215000Y-52855000D02*
X134215000Y-52555000D01*
G75*
G02*
X134365000Y-52405000I150000J0D01*
G01*
X136015000Y-52405000D01*
G75*
G02*
X136165000Y-52555000I0J-150000D01*
G01*
X136165000Y-52855000D01*
G75*
G02*
X136015000Y-53005000I-150000J0D01*
G01*
X134365000Y-53005000D01*
G75*
G02*
X134215000Y-52855000I0J150000D01*
G01*
G37*
%TD.AperFunction*%
%TO.P,U6,13*%
%TO.N,D3*%
%TA.AperFunction,SMDPad,CuDef*%
G36*
G01*
X134215000Y-54125000D02*
X134215000Y-53825000D01*
G75*
G02*
X134365000Y-53675000I150000J0D01*
G01*
X136015000Y-53675000D01*
G75*
G02*
X136165000Y-53825000I0J-150000D01*
G01*
X136165000Y-54125000D01*
G75*
G02*
X136015000Y-54275000I-150000J0D01*
G01*
X134365000Y-54275000D01*
G75*
G02*
X134215000Y-54125000I0J150000D01*
G01*
G37*
%TD.AperFunction*%
%TO.P,U6,12*%
%TO.N,A0_buf*%
%TA.AperFunction,SMDPad,CuDef*%
G36*
G01*
X134215000Y-55395000D02*
X134215000Y-55095000D01*
G75*
G02*
X134365000Y-54945000I150000J0D01*
G01*
X136015000Y-54945000D01*
G75*
G02*
X136165000Y-55095000I0J-150000D01*
G01*
X136165000Y-55395000D01*
G75*
G02*
X136015000Y-55545000I-150000J0D01*
G01*
X134365000Y-55545000D01*
G75*
G02*
X134215000Y-55395000I0J150000D01*
G01*
G37*
%TD.AperFunction*%
%TO.P,U6,11*%
%TO.N,D7*%
%TA.AperFunction,SMDPad,CuDef*%
G36*
G01*
X134215000Y-56665000D02*
X134215000Y-56365000D01*
G75*
G02*
X134365000Y-56215000I150000J0D01*
G01*
X136015000Y-56215000D01*
G75*
G02*
X136165000Y-56365000I0J-150000D01*
G01*
X136165000Y-56665000D01*
G75*
G02*
X136015000Y-56815000I-150000J0D01*
G01*
X134365000Y-56815000D01*
G75*
G02*
X134215000Y-56665000I0J150000D01*
G01*
G37*
%TD.AperFunction*%
%TO.P,U6,10*%
%TO.N,D7_buf*%
%TA.AperFunction,SMDPad,CuDef*%
G36*
G01*
X134215000Y-57935000D02*
X134215000Y-57635000D01*
G75*
G02*
X134365000Y-57485000I150000J0D01*
G01*
X136015000Y-57485000D01*
G75*
G02*
X136165000Y-57635000I0J-150000D01*
G01*
X136165000Y-57935000D01*
G75*
G02*
X136015000Y-58085000I-150000J0D01*
G01*
X134365000Y-58085000D01*
G75*
G02*
X134215000Y-57935000I0J150000D01*
G01*
G37*
%TD.AperFunction*%
%TO.P,U6,9*%
%TO.N,OUT1*%
%TA.AperFunction,SMDPad,CuDef*%
G36*
G01*
X134215000Y-59205000D02*
X134215000Y-58905000D01*
G75*
G02*
X134365000Y-58755000I150000J0D01*
G01*
X136015000Y-58755000D01*
G75*
G02*
X136165000Y-58905000I0J-150000D01*
G01*
X136165000Y-59205000D01*
G75*
G02*
X136015000Y-59355000I-150000J0D01*
G01*
X134365000Y-59355000D01*
G75*
G02*
X134215000Y-59205000I0J150000D01*
G01*
G37*
%TD.AperFunction*%
%TO.P,U6,8*%
%TO.N,GND*%
%TA.AperFunction,SMDPad,CuDef*%
G36*
G01*
X129265000Y-59205000D02*
X129265000Y-58905000D01*
G75*
G02*
X129415000Y-58755000I150000J0D01*
G01*
X131065000Y-58755000D01*
G75*
G02*
X131215000Y-58905000I0J-150000D01*
G01*
X131215000Y-59205000D01*
G75*
G02*
X131065000Y-59355000I-150000J0D01*
G01*
X129415000Y-59355000D01*
G75*
G02*
X129265000Y-59205000I0J150000D01*
G01*
G37*
%TD.AperFunction*%
%TO.P,U6,7*%
%TO.N,D6_buf*%
%TA.AperFunction,SMDPad,CuDef*%
G36*
G01*
X129265000Y-57935000D02*
X129265000Y-57635000D01*
G75*
G02*
X129415000Y-57485000I150000J0D01*
G01*
X131065000Y-57485000D01*
G75*
G02*
X131215000Y-57635000I0J-150000D01*
G01*
X131215000Y-57935000D01*
G75*
G02*
X131065000Y-58085000I-150000J0D01*
G01*
X129415000Y-58085000D01*
G75*
G02*
X129265000Y-57935000I0J150000D01*
G01*
G37*
%TD.AperFunction*%
%TO.P,U6,6*%
%TO.N,D6*%
%TA.AperFunction,SMDPad,CuDef*%
G36*
G01*
X129265000Y-56665000D02*
X129265000Y-56365000D01*
G75*
G02*
X129415000Y-56215000I150000J0D01*
G01*
X131065000Y-56215000D01*
G75*
G02*
X131215000Y-56365000I0J-150000D01*
G01*
X131215000Y-56665000D01*
G75*
G02*
X131065000Y-56815000I-150000J0D01*
G01*
X129415000Y-56815000D01*
G75*
G02*
X129265000Y-56665000I0J150000D01*
G01*
G37*
%TD.AperFunction*%
%TO.P,U6,5*%
%TO.N,D5_buf*%
%TA.AperFunction,SMDPad,CuDef*%
G36*
G01*
X129265000Y-55395000D02*
X129265000Y-55095000D01*
G75*
G02*
X129415000Y-54945000I150000J0D01*
G01*
X131065000Y-54945000D01*
G75*
G02*
X131215000Y-55095000I0J-150000D01*
G01*
X131215000Y-55395000D01*
G75*
G02*
X131065000Y-55545000I-150000J0D01*
G01*
X129415000Y-55545000D01*
G75*
G02*
X129265000Y-55395000I0J150000D01*
G01*
G37*
%TD.AperFunction*%
%TO.P,U6,4*%
%TO.N,D5*%
%TA.AperFunction,SMDPad,CuDef*%
G36*
G01*
X129265000Y-54125000D02*
X129265000Y-53825000D01*
G75*
G02*
X129415000Y-53675000I150000J0D01*
G01*
X131065000Y-53675000D01*
G75*
G02*
X131215000Y-53825000I0J-150000D01*
G01*
X131215000Y-54125000D01*
G75*
G02*
X131065000Y-54275000I-150000J0D01*
G01*
X129415000Y-54275000D01*
G75*
G02*
X129265000Y-54125000I0J150000D01*
G01*
G37*
%TD.AperFunction*%
%TO.P,U6,3*%
%TO.N,D4*%
%TA.AperFunction,SMDPad,CuDef*%
G36*
G01*
X129265000Y-52855000D02*
X129265000Y-52555000D01*
G75*
G02*
X129415000Y-52405000I150000J0D01*
G01*
X131065000Y-52405000D01*
G75*
G02*
X131215000Y-52555000I0J-150000D01*
G01*
X131215000Y-52855000D01*
G75*
G02*
X131065000Y-53005000I-150000J0D01*
G01*
X129415000Y-53005000D01*
G75*
G02*
X129265000Y-52855000I0J150000D01*
G01*
G37*
%TD.AperFunction*%
%TO.P,U6,2*%
%TO.N,D4_buf*%
%TA.AperFunction,SMDPad,CuDef*%
G36*
G01*
X129265000Y-51585000D02*
X129265000Y-51285000D01*
G75*
G02*
X129415000Y-51135000I150000J0D01*
G01*
X131065000Y-51135000D01*
G75*
G02*
X131215000Y-51285000I0J-150000D01*
G01*
X131215000Y-51585000D01*
G75*
G02*
X131065000Y-51735000I-150000J0D01*
G01*
X129415000Y-51735000D01*
G75*
G02*
X129265000Y-51585000I0J150000D01*
G01*
G37*
%TD.AperFunction*%
%TO.P,U6,1*%
%TO.N,FF_Reset*%
%TA.AperFunction,SMDPad,CuDef*%
G36*
G01*
X129265000Y-50315000D02*
X129265000Y-50015000D01*
G75*
G02*
X129415000Y-49865000I150000J0D01*
G01*
X131065000Y-49865000D01*
G75*
G02*
X131215000Y-50015000I0J-150000D01*
G01*
X131215000Y-50315000D01*
G75*
G02*
X131065000Y-50465000I-150000J0D01*
G01*
X129415000Y-50465000D01*
G75*
G02*
X129265000Y-50315000I0J150000D01*
G01*
G37*
%TD.AperFunction*%
%TD*%
D10*
%TO.P,J4,24*%
%TO.N,D7*%
X107950000Y-50800000D03*
%TO.P,J4,23*%
%TO.N,D6*%
X107950000Y-53340000D03*
%TO.P,J4,22*%
%TO.N,D5*%
X107950000Y-55880000D03*
%TO.P,J4,21*%
%TO.N,D4*%
X107950000Y-58420000D03*
%TO.P,J4,20*%
%TO.N,D3*%
X107950000Y-60960000D03*
%TO.P,J4,19*%
%TO.N,D2*%
X107950000Y-63500000D03*
%TO.P,J4,18*%
%TO.N,D1*%
X107950000Y-66040000D03*
%TO.P,J4,17*%
%TO.N,D0*%
X107950000Y-68580000D03*
%TO.P,J4,16*%
%TO.N,N/C*%
X107950000Y-71120000D03*
%TO.P,J4,15*%
X107950000Y-73660000D03*
%TO.P,J4,14*%
%TO.N,Joy1_D0*%
X107950000Y-76200000D03*
%TO.P,J4,13*%
%TO.N,N/C*%
X107950000Y-78740000D03*
%TO.P,J4,12*%
%TO.N,Joy1_OE*%
X107950000Y-81280000D03*
%TO.P,J4,11*%
%TO.N,A1*%
X107950000Y-83820000D03*
%TO.P,J4,10*%
%TO.N,ROMSEL*%
X107950000Y-86360000D03*
%TO.P,J4,9*%
%TO.N,Net-(J4-Pad9)*%
X107950000Y-88900000D03*
%TO.P,J4,8*%
%TO.N,R-W*%
X107950000Y-91440000D03*
%TO.P,J4,7*%
%TO.N,N/C*%
X107950000Y-93980000D03*
%TO.P,J4,6*%
%TO.N,OUT0*%
X107950000Y-96520000D03*
%TO.P,J4,5*%
%TO.N,OUT1*%
X107950000Y-99060000D03*
%TO.P,J4,4*%
%TO.N,N/C*%
X107950000Y-101600000D03*
%TO.P,J4,3*%
X107950000Y-104140000D03*
%TO.P,J4,2*%
%TO.N,GND*%
X107950000Y-106680000D03*
D11*
%TO.P,J4,1*%
%TO.N,Net-(J1-Pad1)*%
X107950000Y-109220000D03*
%TD*%
D15*
%TO.N,+5V*%
X126995700Y-78917300D03*
X126287500Y-74666600D03*
X102121700Y-50757700D03*
X123657100Y-49175300D03*
X133053700Y-49382300D03*
X127000000Y-89765300D03*
X100965000Y-110871000D03*
%TO.N,GND*%
X123986700Y-66186200D03*
X127078600Y-65055300D03*
X118974100Y-60268100D03*
X103822500Y-48197200D03*
X118477015Y-98236885D03*
X133477000Y-46027500D03*
X123767250Y-44888750D03*
X112965000Y-41275000D03*
%TO.N,Net-(J1-Pad1)*%
X97790000Y-110744000D03*
%TO.N,D7*%
X125445100Y-51427400D03*
X133760300Y-55877400D03*
X119233624Y-67112176D03*
%TO.N,D5*%
X128249400Y-55186000D03*
X120844200Y-57316000D03*
%TO.N,D4*%
X128262400Y-53711600D03*
X120395300Y-53570500D03*
%TO.N,D3*%
X129884200Y-66774400D03*
%TO.N,D2*%
X132626300Y-54670300D03*
%TO.N,D1*%
X131445000Y-65395400D03*
%TO.N,D0*%
X134103100Y-65156600D03*
%TO.N,OUT1*%
X134958700Y-61961100D03*
%TO.N,A0_buf*%
X99454900Y-59055000D03*
X133626700Y-54762400D03*
%TO.N,A1_buf*%
X99437300Y-55137300D03*
X133583700Y-51129900D03*
%TO.N,D3_buf*%
X128129300Y-65189900D03*
X124538000Y-60306100D03*
%TO.N,D2_buf*%
X130628800Y-66026700D03*
X117387200Y-58410500D03*
%TO.N,D1_buf*%
X130175000Y-61976300D03*
X121261200Y-56311300D03*
%TO.N,D0_buf*%
X132426400Y-61595300D03*
X125200900Y-57141000D03*
%TO.N,D7_buf*%
X117475000Y-66934600D03*
X133889100Y-61972200D03*
%TO.N,D4_Chip*%
X125986600Y-66629800D03*
X121285000Y-65159900D03*
%TO.N,A13*%
X104560500Y-85325700D03*
%TO.N,A1*%
X103835200Y-79508200D03*
%TO.N,CS_Chip*%
X104590000Y-70938900D03*
X120474834Y-79912236D03*
%TO.N,A0_Chip*%
X124104000Y-86051200D03*
X101456400Y-69624100D03*
%TO.N,A1_Chip*%
X125309700Y-84836400D03*
X103171900Y-67763300D03*
%TO.N,IRQ*%
X117983000Y-85471000D03*
%TD*%
D16*
%TO.N,+5V*%
X132456900Y-86324300D02*
X133350000Y-87217400D01*
X133350000Y-87217400D02*
X133350000Y-87835000D01*
X127000000Y-87835000D02*
X127000000Y-87225500D01*
X127000000Y-87225500D02*
X127901200Y-86324300D01*
X127901200Y-86324300D02*
X132456900Y-86324300D01*
X136525000Y-68515000D02*
X136525000Y-82256200D01*
X136525000Y-82256200D02*
X132456900Y-86324300D01*
X127000000Y-89765300D02*
X127000000Y-87835000D01*
X124940000Y-73660000D02*
X126040300Y-73660000D01*
X126287500Y-74666600D02*
X126040300Y-74419400D01*
X126040300Y-74419400D02*
X126040300Y-73660000D01*
X102121700Y-50757700D02*
X102121700Y-52021700D01*
X102121700Y-52021700D02*
X102805000Y-52705000D01*
X102121700Y-50757700D02*
X100199900Y-48835900D01*
X100199900Y-48835900D02*
X100199900Y-40200100D01*
X100199900Y-40200100D02*
X100965000Y-39435000D01*
X123657100Y-50165000D02*
X123173000Y-50165000D01*
X123173000Y-50165000D02*
X122326800Y-51011200D01*
X122326800Y-51011200D02*
X122326800Y-51832800D01*
X122326800Y-51832800D02*
X123199000Y-52705000D01*
X123199000Y-52705000D02*
X123760000Y-52705000D01*
X123760000Y-50165000D02*
X123657100Y-50165000D01*
X123657100Y-49175300D02*
X123657100Y-50165000D01*
X133053700Y-49382300D02*
X132604500Y-48933100D01*
X132604500Y-48933100D02*
X132604500Y-40008000D01*
X132604500Y-40008000D02*
X131331500Y-38735000D01*
X131331500Y-38735000D02*
X130745000Y-38735000D01*
X133053700Y-49382300D02*
X134407300Y-49382300D01*
X134407300Y-49382300D02*
X135190000Y-50165000D01*
X124940000Y-73660000D02*
X124940000Y-72359700D01*
X125095000Y-68515000D02*
X125095000Y-72204700D01*
X125095000Y-72204700D02*
X124940000Y-72359700D01*
X127000000Y-89765300D02*
X127000000Y-89802000D01*
X130415034Y-96730000D02*
X127000000Y-93314966D01*
X131445000Y-96730000D02*
X130415034Y-96730000D01*
X127000000Y-88860000D02*
X127000000Y-87835000D01*
X126549990Y-89310010D02*
X127000000Y-88860000D01*
X123640010Y-89310010D02*
X126549990Y-89310010D01*
X123190000Y-88860000D02*
X123640010Y-89310010D01*
X123190000Y-87835000D02*
X123190000Y-88860000D01*
X99314000Y-112522000D02*
X99187000Y-112395000D01*
X100965000Y-112522000D02*
X99314000Y-112522000D01*
X100965000Y-115317000D02*
X100965000Y-112522000D01*
X100965000Y-112522000D02*
X100965000Y-110871000D01*
X126987000Y-92596000D02*
X127000000Y-92583000D01*
X124587000Y-92596000D02*
X126987000Y-92596000D01*
X127000000Y-92583000D02*
X127000000Y-89765300D01*
X127000000Y-93314966D02*
X127000000Y-92583000D01*
X120650000Y-77265000D02*
X120650000Y-78537188D01*
X120650000Y-78537188D02*
X121430111Y-79317299D01*
X121430111Y-79317299D02*
X126595701Y-79317299D01*
X126595701Y-79317299D02*
X126995700Y-78917300D01*
%TO.N,GND*%
X127635000Y-63565000D02*
X127635000Y-64481700D01*
X127635000Y-64481700D02*
X127078600Y-65038100D01*
X127078600Y-65038100D02*
X127078600Y-65055300D01*
X127635000Y-63565000D02*
X128090100Y-63109900D01*
X128090100Y-63109900D02*
X128090100Y-61585100D01*
X128090100Y-61585100D02*
X130240000Y-59435200D01*
X130240000Y-59435200D02*
X130240000Y-59055000D01*
X134620000Y-77265000D02*
X134620000Y-77941100D01*
X134620000Y-77941100D02*
X128575000Y-83986100D01*
X128575000Y-83986100D02*
X124957500Y-83986100D01*
X124957500Y-83986100D02*
X121920000Y-87023600D01*
X121920000Y-87023600D02*
X121920000Y-87835000D01*
X123986700Y-66186200D02*
X123825000Y-66347900D01*
X123825000Y-66347900D02*
X123825000Y-68515000D01*
X134620000Y-77265000D02*
X135255000Y-76630000D01*
X135255000Y-76630000D02*
X135255000Y-68515000D01*
X116205000Y-63565000D02*
X116205000Y-63010800D01*
X116205000Y-63010800D02*
X118947700Y-60268100D01*
X118947700Y-60268100D02*
X118974100Y-60268100D01*
X118810000Y-59055000D02*
X118974100Y-59219100D01*
X118974100Y-59219100D02*
X118974100Y-60268100D01*
X121210300Y-89350600D02*
X121920000Y-88640900D01*
X121920000Y-88640900D02*
X121920000Y-87835000D01*
X119380000Y-87835000D02*
X119380000Y-81967000D01*
X119380000Y-81967000D02*
X118110000Y-80697000D01*
X118110000Y-80697000D02*
X118110000Y-77265000D01*
X121210300Y-89350600D02*
X120266000Y-89350600D01*
X120266000Y-89350600D02*
X119380000Y-88464600D01*
X119380000Y-88464600D02*
X119380000Y-87835000D01*
X103822500Y-48197200D02*
X100965000Y-45339700D01*
X100965000Y-45339700D02*
X100965000Y-44385000D01*
X102805000Y-53975000D02*
X103388900Y-53975000D01*
X103388900Y-53975000D02*
X104273400Y-53090500D01*
X104273400Y-53090500D02*
X104273400Y-48648100D01*
X104273400Y-48648100D02*
X103822500Y-48197200D01*
X121936600Y-40849700D02*
X121936600Y-43058100D01*
X121936600Y-43058100D02*
X123767250Y-44888750D01*
X125233500Y-46355000D02*
X125795000Y-46355000D01*
X121936600Y-40849700D02*
X121936600Y-40336200D01*
X121936600Y-40336200D02*
X120985400Y-39385000D01*
X120985400Y-39385000D02*
X120650000Y-39385000D01*
X99060000Y-66040000D02*
X99060000Y-64739700D01*
X99060000Y-64739700D02*
X97855000Y-63534700D01*
X97855000Y-63534700D02*
X97855000Y-61595000D01*
X113990000Y-121540000D02*
X113990000Y-120339700D01*
X113030000Y-106680000D02*
X111729600Y-107980400D01*
X111729600Y-107980400D02*
X111729600Y-118304400D01*
X111729600Y-118304400D02*
X113764900Y-120339700D01*
X113764900Y-120339700D02*
X113990000Y-120339700D01*
X133985000Y-103930000D02*
X133985000Y-104991500D01*
X133985000Y-104991500D02*
X132624700Y-106351800D01*
X132624700Y-106351800D02*
X132624700Y-108040300D01*
X132624700Y-108040300D02*
X128905000Y-111760000D01*
X133985000Y-103930000D02*
X133985000Y-103130000D01*
X133985000Y-103295000D02*
X133985000Y-102495000D01*
X128744966Y-100203000D02*
X127331956Y-98789990D01*
X132609500Y-100203000D02*
X128744966Y-100203000D01*
X133985000Y-101578500D02*
X132609500Y-100203000D01*
X133985000Y-102553500D02*
X133985000Y-101578500D01*
X122687000Y-98684000D02*
X122792990Y-98789990D01*
X122687000Y-94996000D02*
X122687000Y-98684000D01*
X127331956Y-98789990D02*
X122792990Y-98789990D01*
X119380000Y-97333900D02*
X118477015Y-98236885D01*
X112965000Y-41275000D02*
X112965000Y-41275000D01*
X135890000Y-46027500D02*
X134165500Y-46027500D01*
X134165500Y-46027500D02*
X134165500Y-46027500D01*
X123767250Y-44888750D02*
X125233500Y-46355000D01*
X112965000Y-41275000D02*
X109855000Y-44385000D01*
X116840000Y-41275000D02*
X112965000Y-41275000D01*
X118606040Y-98365910D02*
X118477015Y-98236885D01*
X118606040Y-98789990D02*
X118606040Y-98365910D01*
X122792990Y-98789990D02*
X118606040Y-98789990D01*
X117967000Y-94615000D02*
X119380000Y-94615000D01*
X119380000Y-94615000D02*
X119380000Y-97333900D01*
X119253000Y-91567000D02*
X119380000Y-91440000D01*
X117951000Y-91567000D02*
X119253000Y-91567000D01*
X119380000Y-91440000D02*
X119380000Y-94615000D01*
X119380000Y-87835000D02*
X119380000Y-91440000D01*
X134165500Y-46027500D02*
X133477000Y-46027500D01*
X117475000Y-76630000D02*
X118110000Y-77265000D01*
X117475000Y-73660000D02*
X117475000Y-76630000D01*
X115454990Y-64315010D02*
X116205000Y-63565000D01*
X115454990Y-71639990D02*
X115454990Y-64315010D01*
X117475000Y-73660000D02*
X115454990Y-71639990D01*
X99060000Y-102900300D02*
X99060000Y-101600000D01*
X102870000Y-105680000D02*
X99060000Y-105680000D01*
X99060000Y-105680000D02*
X99060000Y-102900300D01*
X103870000Y-106680000D02*
X102870000Y-105680000D01*
X107950000Y-106680000D02*
X103870000Y-106680000D01*
D17*
%TO.N,Net-(C10-Pad2)*%
X133985000Y-111760000D02*
X130810000Y-114935000D01*
X130810000Y-114935000D02*
X130810000Y-118735000D01*
%TO.N,Net-(C11-Pad2)*%
X126492000Y-118227000D02*
X127000000Y-118735000D01*
X126492000Y-104140000D02*
X126492000Y-118227000D01*
%TO.N,Net-(C12-Pad2)*%
X119380000Y-118735000D02*
X119380000Y-118618000D01*
X121412000Y-116586000D02*
X121412000Y-104140000D01*
X119380000Y-118618000D02*
X121412000Y-116586000D01*
%TO.N,Net-(C13-Pad2)*%
X123825000Y-111760000D02*
X123190000Y-112395000D01*
X123190000Y-112395000D02*
X123190000Y-118735000D01*
%TO.N,Net-(R1-Pad2)*%
X136525000Y-91430000D02*
X136525000Y-88021700D01*
X136525000Y-88021700D02*
X134978100Y-86474800D01*
X134978100Y-86474800D02*
X134280400Y-86474800D01*
X134280400Y-86474800D02*
X133985000Y-86770200D01*
X133985000Y-86770200D02*
X133985000Y-88913400D01*
X133985000Y-88913400D02*
X133704800Y-89193600D01*
X133704800Y-89193600D02*
X132989500Y-89193600D01*
X132989500Y-89193600D02*
X132080000Y-88284100D01*
X132080000Y-88284100D02*
X132080000Y-87835000D01*
%TO.N,Net-(R2-Pad2)*%
X132715000Y-91430000D02*
X132614700Y-91430000D01*
X132614700Y-91430000D02*
X129540000Y-88355300D01*
X129540000Y-88355300D02*
X129540000Y-87835000D01*
D16*
%TO.N,Net-(J1-Pad1)*%
X99060000Y-86360000D02*
X99060000Y-81280000D01*
X97756800Y-87663200D02*
X99060000Y-86360000D01*
X100965000Y-122047000D02*
X100457000Y-122047000D01*
X100457000Y-122047000D02*
X97853500Y-119443500D01*
X97756800Y-119346800D02*
X97756800Y-87663200D01*
X97853500Y-119443500D02*
X97756800Y-119346800D01*
D17*
%TO.N,Net-(J7-Pad1)*%
X99187000Y-107807000D02*
X99060000Y-107680000D01*
X99187000Y-110853000D02*
X99187000Y-107807000D01*
%TO.N,Net-(J3-Pad9)*%
X108324003Y-95344999D02*
X106077001Y-95344999D01*
X111404988Y-92264014D02*
X108324003Y-95344999D01*
X111404988Y-90525012D02*
X111404988Y-92264014D01*
X106077001Y-95344999D02*
X104648000Y-96774000D01*
X113030000Y-88900000D02*
X111404988Y-90525012D01*
%TO.N,Net-(J3-Pad6)*%
X105569001Y-100235001D02*
X105029000Y-99695000D01*
X109314999Y-100235001D02*
X105569001Y-100235001D01*
X113030000Y-96520000D02*
X109314999Y-100235001D01*
%TO.N,D7*%
X123760000Y-56515000D02*
X124150500Y-56515000D01*
X124150500Y-56515000D02*
X125445100Y-55220400D01*
X125445100Y-55220400D02*
X125445100Y-51427400D01*
X135190000Y-56515000D02*
X134552500Y-55877500D01*
X134552500Y-55877500D02*
X133760300Y-55877500D01*
X133760300Y-55877500D02*
X133760300Y-55877400D01*
X119233624Y-68026376D02*
X119233624Y-67112176D01*
X118745000Y-68515000D02*
X119233624Y-68026376D01*
%TO.N,D6*%
X122467800Y-66679400D02*
X123686300Y-65460900D01*
X123686300Y-65460900D02*
X124853300Y-65460900D01*
X124853300Y-65460900D02*
X126206600Y-64107600D01*
X126206600Y-64107600D02*
X126206600Y-62210900D01*
X126206600Y-62210900D02*
X127064500Y-61353000D01*
X127064500Y-61353000D02*
X127064500Y-60958600D01*
X127064500Y-60958600D02*
X128221900Y-59801200D01*
X128221900Y-59801200D02*
X128221900Y-58086700D01*
X128221900Y-58086700D02*
X129793600Y-56515000D01*
X129793600Y-56515000D02*
X130240000Y-56515000D01*
X122467800Y-66679400D02*
X122467800Y-68427800D01*
X122467800Y-68427800D02*
X122555000Y-68515000D01*
X107950000Y-53340000D02*
X109125300Y-53340000D01*
X109125300Y-53340000D02*
X110300600Y-54515300D01*
X110300600Y-54515300D02*
X114575400Y-54515300D01*
X114575400Y-54515300D02*
X116575100Y-56515000D01*
X116575100Y-56515000D02*
X118810000Y-56515000D01*
X120528811Y-66679400D02*
X118714421Y-64865010D01*
X118398241Y-64865010D02*
X118101000Y-64567769D01*
X122467800Y-66679400D02*
X120528811Y-66679400D01*
X120111000Y-60157000D02*
X120111000Y-57340300D01*
X118101000Y-62167000D02*
X120111000Y-60157000D01*
X118714421Y-64865010D02*
X118398241Y-64865010D01*
X118101000Y-64567769D02*
X118101000Y-62167000D01*
X120111000Y-57340300D02*
X119285700Y-56515000D01*
X119285700Y-56515000D02*
X118810000Y-56515000D01*
%TO.N,D5*%
X130240000Y-53975000D02*
X129460400Y-53975000D01*
X129460400Y-53975000D02*
X128249400Y-55186000D01*
X120568300Y-57316000D02*
X120844200Y-57316000D01*
X120568300Y-57316000D02*
X120568300Y-57128200D01*
X120568300Y-57128200D02*
X120477700Y-57037600D01*
X120477700Y-57037600D02*
X120477700Y-56472000D01*
X120477700Y-56472000D02*
X119885700Y-55880000D01*
X119885700Y-55880000D02*
X117788100Y-55880000D01*
X117788100Y-55880000D02*
X117480600Y-55572500D01*
X117480600Y-55572500D02*
X117480600Y-53975000D01*
X120015000Y-63565000D02*
X120568300Y-63011700D01*
X120568300Y-63011700D02*
X120568300Y-57316000D01*
X117480600Y-53975000D02*
X118810000Y-53975000D01*
X107950000Y-54704700D02*
X107582700Y-54704700D01*
X107582700Y-54704700D02*
X106736400Y-53858400D01*
X106736400Y-53858400D02*
X106736400Y-52822200D01*
X106736400Y-52822200D02*
X107394600Y-52164000D01*
X107394600Y-52164000D02*
X115669600Y-52164000D01*
X115669600Y-52164000D02*
X117480600Y-53975000D01*
X107950000Y-55880000D02*
X107950000Y-54704700D01*
%TO.N,D4*%
X123825000Y-63565000D02*
X123825000Y-62502800D01*
X123825000Y-62502800D02*
X124846100Y-61481700D01*
X124846100Y-61481700D02*
X125025100Y-61481700D01*
X125025100Y-61481700D02*
X125713600Y-60793200D01*
X125713600Y-60793200D02*
X125713600Y-60220600D01*
X125713600Y-60220600D02*
X126694000Y-59240200D01*
X126694000Y-59240200D02*
X126694000Y-55280000D01*
X126694000Y-55280000D02*
X128262400Y-53711600D01*
X130240000Y-52705000D02*
X129269000Y-52705000D01*
X129269000Y-52705000D02*
X128262400Y-53711600D01*
X118810000Y-52705000D02*
X119529800Y-52705000D01*
X119529800Y-52705000D02*
X120395300Y-53570500D01*
%TO.N,D3*%
X129884200Y-66774400D02*
X130175000Y-67065200D01*
X130175000Y-67065200D02*
X130175000Y-68515000D01*
X129884200Y-66774400D02*
X129884200Y-65701400D01*
X129884200Y-65701400D02*
X130810000Y-64775600D01*
X130810000Y-64775600D02*
X130810000Y-62460000D01*
X130810000Y-62460000D02*
X131541000Y-61729000D01*
X131541000Y-61729000D02*
X131541000Y-59732300D01*
X131541000Y-59732300D02*
X134123300Y-57150000D01*
X134123300Y-57150000D02*
X136209300Y-57150000D01*
X136209300Y-57150000D02*
X136507300Y-56852000D01*
X136507300Y-56852000D02*
X136507300Y-54911800D01*
X136507300Y-54911800D02*
X135570500Y-53975000D01*
X135570500Y-53975000D02*
X135190000Y-53975000D01*
%TO.N,D2*%
X135190000Y-52705000D02*
X134591600Y-52705000D01*
X134591600Y-52705000D02*
X132626300Y-54670300D01*
X133985000Y-68515000D02*
X133985000Y-66526000D01*
X133985000Y-66526000D02*
X135890000Y-64621000D01*
X135890000Y-64621000D02*
X135890000Y-61054500D01*
X135890000Y-61054500D02*
X136957600Y-59986900D01*
X136957600Y-59986900D02*
X136957600Y-54021800D01*
X136957600Y-54021800D02*
X135640800Y-52705000D01*
X135640800Y-52705000D02*
X135190000Y-52705000D01*
%TO.N,D1*%
X131445000Y-63565000D02*
X131445000Y-65395400D01*
%TO.N,D0*%
X134103100Y-65156600D02*
X135255000Y-64004700D01*
X135255000Y-64004700D02*
X135255000Y-63565000D01*
%TO.N,Net-(J4-Pad9)*%
X107696000Y-89154000D02*
X107950000Y-88900000D01*
X105029000Y-91821000D02*
X107950000Y-88900000D01*
X105029000Y-93726000D02*
X105029000Y-91821000D01*
%TO.N,OUT1*%
X135190000Y-59055000D02*
X135190000Y-61729800D01*
X135190000Y-61729800D02*
X134958700Y-61961100D01*
X103505000Y-44385000D02*
X102235000Y-44385000D01*
X103505000Y-46853900D02*
X104878900Y-48227800D01*
X104878900Y-48227800D02*
X104878900Y-55665800D01*
X103505000Y-44385000D02*
X103505000Y-46853900D01*
X104878900Y-55665800D02*
X105326100Y-56113000D01*
X104103990Y-87920010D02*
X105326100Y-86697900D01*
X104103990Y-97462180D02*
X104103990Y-87920010D01*
X104440820Y-97799010D02*
X104103990Y-97462180D01*
X106689010Y-97799010D02*
X104440820Y-97799010D01*
X107950000Y-99060000D02*
X106689010Y-97799010D01*
X105326100Y-86697900D02*
X105326100Y-86830710D01*
X105326100Y-56113000D02*
X105326100Y-86697900D01*
%TO.N,A0_buf*%
X135190000Y-55245000D02*
X134707500Y-54762500D01*
X134707500Y-54762500D02*
X133626700Y-54762500D01*
X133626700Y-54762500D02*
X133626700Y-54762400D01*
X97855000Y-59055000D02*
X99454900Y-59055000D01*
%TO.N,A1_buf*%
X135190000Y-51435000D02*
X133888800Y-51435000D01*
X133888800Y-51435000D02*
X133583700Y-51129900D01*
X99437300Y-55137300D02*
X97962700Y-55137300D01*
X97962700Y-55137300D02*
X97855000Y-55245000D01*
%TO.N,D3_buf*%
X128129300Y-65189900D02*
X128129300Y-66682100D01*
X128129300Y-66682100D02*
X128905000Y-67457800D01*
X128905000Y-67457800D02*
X128905000Y-68515000D01*
X123760000Y-57785000D02*
X124178100Y-57785000D01*
X124178100Y-57785000D02*
X125064200Y-58671100D01*
X125064200Y-58671100D02*
X125064200Y-59513200D01*
X125064200Y-59513200D02*
X124538000Y-60039400D01*
X124538000Y-60039400D02*
X124538000Y-60306100D01*
%TO.N,D2_buf*%
X132715000Y-68515000D02*
X132715000Y-68112900D01*
X132715000Y-68112900D02*
X130628800Y-66026700D01*
X118810000Y-57785000D02*
X118012700Y-57785000D01*
X118012700Y-57785000D02*
X117387200Y-58410500D01*
%TO.N,D1_buf*%
X130175000Y-63565000D02*
X130175000Y-61976300D01*
X118810000Y-55245000D02*
X120194900Y-55245000D01*
X120194900Y-55245000D02*
X121261200Y-56311300D01*
%TO.N,D0_buf*%
X133985000Y-63565000D02*
X133985000Y-63153900D01*
X133985000Y-63153900D02*
X132426400Y-61595300D01*
X125200900Y-57141000D02*
X122734900Y-57141000D01*
X122734900Y-57141000D02*
X122436800Y-56842900D01*
X122436800Y-56842900D02*
X122436800Y-53949300D01*
X122436800Y-53949300D02*
X119922500Y-51435000D01*
X119922500Y-51435000D02*
X118810000Y-51435000D01*
%TO.N,D7_buf*%
X135190000Y-57785000D02*
X134751300Y-57785000D01*
X134751300Y-57785000D02*
X133889100Y-58647200D01*
X133889100Y-58647200D02*
X133889100Y-61972200D01*
X117475000Y-68515000D02*
X117475000Y-66934600D01*
%TO.N,D6_buf*%
X121285000Y-68515000D02*
X121285000Y-68984600D01*
X121285000Y-68984600D02*
X122184700Y-69884300D01*
X122184700Y-69884300D02*
X124103600Y-69884300D01*
X124103600Y-69884300D02*
X124460000Y-69527900D01*
X124460000Y-69527900D02*
X124460000Y-67166800D01*
X124460000Y-67166800D02*
X125261200Y-66365600D01*
X125261200Y-66365600D02*
X125261200Y-65765500D01*
X125261200Y-65765500D02*
X126882000Y-64144700D01*
X126882000Y-64144700D02*
X126882000Y-62172400D01*
X126882000Y-62172400D02*
X127514800Y-61539600D01*
X127514800Y-61539600D02*
X127514800Y-61145200D01*
X127514800Y-61145200D02*
X128672200Y-59987800D01*
X128672200Y-59987800D02*
X128672200Y-58968900D01*
X128672200Y-58968900D02*
X129856100Y-57785000D01*
X129856100Y-57785000D02*
X130240000Y-57785000D01*
%TO.N,D5_buf*%
X118745000Y-63565000D02*
X118745000Y-63943600D01*
X118745000Y-63943600D02*
X120727000Y-65925600D01*
X120727000Y-65925600D02*
X121627800Y-65925600D01*
X121627800Y-65925600D02*
X122687400Y-64866000D01*
X122687400Y-64866000D02*
X124184900Y-64866000D01*
X124184900Y-64866000D02*
X124460000Y-64590900D01*
X124460000Y-64590900D02*
X124460000Y-62504700D01*
X124460000Y-62504700D02*
X125032700Y-61932000D01*
X125032700Y-61932000D02*
X125211700Y-61932000D01*
X125211700Y-61932000D02*
X126163900Y-60979800D01*
X126163900Y-60979800D02*
X126163900Y-60407200D01*
X126163900Y-60407200D02*
X127321200Y-59249900D01*
X127321200Y-59249900D02*
X127321200Y-57140200D01*
X127321200Y-57140200D02*
X129216400Y-55245000D01*
X129216400Y-55245000D02*
X130240000Y-55245000D01*
%TO.N,D4_buf*%
X122555000Y-63565000D02*
X122555000Y-63127000D01*
X122555000Y-63127000D02*
X124650600Y-61031400D01*
X124650600Y-61031400D02*
X124838500Y-61031400D01*
X124838500Y-61031400D02*
X125263300Y-60606600D01*
X125263300Y-60606600D02*
X125263300Y-59951000D01*
X125263300Y-59951000D02*
X126085800Y-59128500D01*
X126085800Y-59128500D02*
X126085800Y-54862500D01*
X126085800Y-54862500D02*
X129513300Y-51435000D01*
X129513300Y-51435000D02*
X130240000Y-51435000D01*
%TO.N,D6_Chip*%
X120015000Y-69586399D02*
X123288979Y-72860378D01*
X123288979Y-74709580D02*
X123889420Y-75310021D01*
X123889420Y-75310021D02*
X124201789Y-75310021D01*
X120015000Y-68515000D02*
X120015000Y-69586399D01*
X123288979Y-72860378D02*
X123288979Y-74709580D01*
X124201789Y-75310021D02*
X125730000Y-76838232D01*
X125730000Y-76838232D02*
X125730000Y-77265000D01*
%TO.N,D7_Chip*%
X122589010Y-74967242D02*
X124460000Y-76838232D01*
X122589010Y-72796820D02*
X122589010Y-74967242D01*
X122252180Y-72459990D02*
X122589010Y-72796820D01*
X119174990Y-72459990D02*
X122252180Y-72459990D01*
X124460000Y-76838232D02*
X124460000Y-77265000D01*
X116205000Y-69490000D02*
X119174990Y-72459990D01*
X116205000Y-68515000D02*
X116205000Y-69490000D01*
%TO.N,D5_Chip*%
X118211842Y-65315021D02*
X118461789Y-65315021D01*
X126674990Y-75914990D02*
X127000000Y-76240000D01*
X127000000Y-76240000D02*
X127000000Y-77265000D01*
X125443168Y-75914990D02*
X126674990Y-75914990D01*
X124388189Y-74860010D02*
X125443168Y-75914990D01*
X120659990Y-67513222D02*
X120659990Y-69594978D01*
X124075820Y-74860010D02*
X124388189Y-74860010D01*
X123738990Y-74523180D02*
X124075820Y-74860010D01*
X123738990Y-72673978D02*
X123738990Y-74523180D01*
X118461789Y-65315021D02*
X120659990Y-67513222D01*
X117475000Y-64578179D02*
X118211842Y-65315021D01*
X120659990Y-69594978D02*
X123738990Y-72673978D01*
X117475000Y-63565000D02*
X117475000Y-64578179D01*
%TO.N,D4_Chip*%
X128270000Y-77265000D02*
X128270000Y-71762500D01*
X128270000Y-71762500D02*
X125986600Y-69479100D01*
X125986600Y-69479100D02*
X125986600Y-66629800D01*
X121285000Y-63565000D02*
X121285000Y-65159900D01*
%TO.N,D2_Chip*%
X131445000Y-68515000D02*
X131445000Y-76630000D01*
X131445000Y-76630000D02*
X130810000Y-77265000D01*
%TO.N,D3_Chip*%
X129540000Y-77265000D02*
X129540000Y-72149400D01*
X129540000Y-72149400D02*
X127635000Y-70244400D01*
X127635000Y-70244400D02*
X127635000Y-68515000D01*
%TO.N,D1_Chip*%
X128905000Y-63565000D02*
X128905000Y-66820900D01*
X128905000Y-66820900D02*
X129531000Y-67446900D01*
X129531000Y-67446900D02*
X129531000Y-70168800D01*
X129531000Y-70168800D02*
X130175000Y-70812800D01*
X130175000Y-70812800D02*
X130175000Y-78343400D01*
X130175000Y-78343400D02*
X130455200Y-78623600D01*
X130455200Y-78623600D02*
X131170500Y-78623600D01*
X131170500Y-78623600D02*
X132080000Y-77714100D01*
X132080000Y-77714100D02*
X132080000Y-77265000D01*
%TO.N,D0_Chip*%
X132715000Y-63565000D02*
X133350000Y-64200000D01*
X133350000Y-64200000D02*
X133350000Y-77265000D01*
%TO.N,OUT1_*%
X123760000Y-59055000D02*
X123382700Y-59055000D01*
X123382700Y-59055000D02*
X121986500Y-57658800D01*
X121986500Y-57658800D02*
X121986500Y-54135900D01*
X121986500Y-54135900D02*
X119920600Y-52070000D01*
X119920600Y-52070000D02*
X117788300Y-52070000D01*
X117788300Y-52070000D02*
X113174200Y-47455900D01*
X113174200Y-47455900D02*
X110635100Y-47455900D01*
X110635100Y-47455900D02*
X108585000Y-45405800D01*
X108585000Y-45405800D02*
X108585000Y-44385000D01*
%TO.N,Net-(BU9480F1-Pad4)*%
X135255000Y-106890000D02*
X133985000Y-108160000D01*
X135255000Y-102553500D02*
X135255000Y-104013000D01*
X135255000Y-104013000D02*
X135255000Y-106890000D01*
X135255000Y-103930000D02*
X135255000Y-104013000D01*
%TO.N,Net-(BU9480F1-Pad2)*%
X132715000Y-104350000D02*
X128905000Y-108160000D01*
X132715000Y-102616000D02*
X132715000Y-104140000D01*
X132715000Y-104140000D02*
X132715000Y-104350000D01*
X132715000Y-103930000D02*
X132715000Y-104140000D01*
%TO.N,Net-(BU9480F1-Pad1)*%
X123825000Y-104393810D02*
X123825000Y-108160000D01*
X125927810Y-102291000D02*
X123825000Y-104393810D01*
X131120000Y-102291000D02*
X125927810Y-102291000D01*
X131445000Y-102616000D02*
X131120000Y-102291000D01*
%TO.N,Net-(BU9480F1-Pad7)*%
X132715000Y-96730000D02*
X132715000Y-96505000D01*
X132715000Y-96505000D02*
X129640000Y-93430000D01*
X129640000Y-93430000D02*
X128905000Y-93430000D01*
%TO.N,Net-(BU9480F1-Pad6)*%
X133985000Y-96730000D02*
X133985000Y-94700000D01*
X133985000Y-94700000D02*
X132715000Y-93430000D01*
%TO.N,Net-(BU9480F1-Pad5)*%
X135255000Y-96730000D02*
X136525000Y-95460000D01*
X136525000Y-95460000D02*
X136525000Y-93430000D01*
%TO.N,A13*%
X104560500Y-85325700D02*
X104560500Y-73014400D01*
X104560500Y-73014400D02*
X102266800Y-70720700D01*
X102266800Y-70720700D02*
X102266800Y-68319600D01*
X102266800Y-68319600D02*
X100701600Y-66754400D01*
X100701600Y-66754400D02*
X100701600Y-59270100D01*
X100701600Y-59270100D02*
X99216500Y-57785000D01*
X99216500Y-57785000D02*
X97855000Y-57785000D01*
X113157000Y-91567000D02*
X113030000Y-91440000D01*
X115951000Y-91567000D02*
X113157000Y-91567000D01*
%TO.N,A1*%
X103835200Y-79508200D02*
X103835200Y-74224600D01*
X103835200Y-74224600D02*
X99460600Y-69850000D01*
X99460600Y-69850000D02*
X98633100Y-69850000D01*
X98633100Y-69850000D02*
X96535100Y-67752000D01*
X96535100Y-67752000D02*
X96535100Y-54803300D01*
X96535100Y-54803300D02*
X97363400Y-53975000D01*
X97363400Y-53975000D02*
X97855000Y-53975000D01*
%TO.N,Net-(R3-Pad2)*%
X128905000Y-91430000D02*
X128270000Y-90795000D01*
X128270000Y-90795000D02*
X128270000Y-87835000D01*
%TO.N,CS_*%
X102805000Y-55245000D02*
X102379200Y-55245000D01*
X102379200Y-55245000D02*
X99599100Y-52464900D01*
X99599100Y-52464900D02*
X99599100Y-39121500D01*
X99599100Y-39121500D02*
X101070800Y-37649800D01*
X101070800Y-37649800D02*
X105961600Y-37649800D01*
X105961600Y-37649800D02*
X107315000Y-39003200D01*
X107315000Y-39003200D02*
X107315000Y-39435000D01*
%TO.N,CS_Chip*%
X104590000Y-70938900D02*
X104590000Y-59163300D01*
X104590000Y-59163300D02*
X103211700Y-57785000D01*
X103211700Y-57785000D02*
X102805000Y-57785000D01*
X120650000Y-80087402D02*
X120474834Y-79912236D01*
X120650000Y-87835000D02*
X120650000Y-80087402D01*
%TO.N,A0_Chip*%
X124104000Y-86051200D02*
X124460000Y-86407200D01*
X124460000Y-86407200D02*
X124460000Y-87835000D01*
X97855000Y-60325000D02*
X98235300Y-60325000D01*
X98235300Y-60325000D02*
X100251200Y-62340900D01*
X100251200Y-62340900D02*
X100251200Y-68418900D01*
X100251200Y-68418900D02*
X101456400Y-69624100D01*
%TO.N,A1_Chip*%
X125309700Y-84836400D02*
X125730000Y-85256700D01*
X125730000Y-85256700D02*
X125730000Y-87835000D01*
X97855000Y-56515000D02*
X98641400Y-56515000D01*
X98641400Y-56515000D02*
X101168700Y-59042300D01*
X101168700Y-59042300D02*
X101168700Y-65760100D01*
X101168700Y-65760100D02*
X103171900Y-67763300D01*
%TO.N,CS_buf*%
X102805000Y-56515000D02*
X102096700Y-56515000D01*
X102096700Y-56515000D02*
X98921700Y-53340000D01*
X98921700Y-53340000D02*
X96789600Y-53340000D01*
X96789600Y-53340000D02*
X96505000Y-53055400D01*
X96505000Y-53055400D02*
X96505000Y-40926300D01*
X96505000Y-40926300D02*
X100698500Y-36732800D01*
X100698500Y-36732800D02*
X125446100Y-36732800D01*
X125446100Y-36732800D02*
X127625800Y-38912500D01*
X127625800Y-38912500D02*
X127625800Y-43660000D01*
X127625800Y-43660000D02*
X126200800Y-45085000D01*
X126200800Y-45085000D02*
X125795000Y-45085000D01*
%TO.N,Aud*%
X126492000Y-100540000D02*
X121412000Y-100540000D01*
X116948490Y-97945626D02*
X116948490Y-89770490D01*
X119542864Y-100540000D02*
X116948490Y-97945626D01*
X121412000Y-100540000D02*
X119542864Y-100540000D01*
X114205001Y-57055001D02*
X113030000Y-55880000D01*
X114205001Y-87027001D02*
X114205001Y-57055001D01*
X116948490Y-89770490D02*
X114205001Y-87027001D01*
%TO.N,OUT0*%
X99060000Y-76200000D02*
X99060000Y-77375300D01*
X99060000Y-91440000D02*
X99060000Y-90264700D01*
X99060000Y-90264700D02*
X99427300Y-90264700D01*
X99427300Y-90264700D02*
X100240900Y-89451100D01*
X100240900Y-89451100D02*
X100240900Y-78254900D01*
X100240900Y-78254900D02*
X99361300Y-77375300D01*
X99361300Y-77375300D02*
X99060000Y-77375300D01*
%TO.N,A14*%
X103505000Y-39435000D02*
X103505000Y-39003500D01*
X103505000Y-39003500D02*
X104407900Y-38100600D01*
X104407900Y-38100600D02*
X105099500Y-38100600D01*
X105099500Y-38100600D02*
X105410000Y-38411100D01*
X105410000Y-38411100D02*
X105410000Y-40501700D01*
X105410000Y-40501700D02*
X106680100Y-41771800D01*
X106680100Y-41771800D02*
X106680100Y-51752800D01*
X106680100Y-51752800D02*
X106286100Y-52146800D01*
X106286100Y-52146800D02*
X106286100Y-55162200D01*
X106286100Y-55162200D02*
X106680100Y-55556200D01*
X106680100Y-55556200D02*
X106680100Y-76675000D01*
X106680100Y-76675000D02*
X107475100Y-77470000D01*
X107475100Y-77470000D02*
X108370200Y-77470000D01*
X113665000Y-94615000D02*
X113030000Y-93980000D01*
X115967000Y-94615000D02*
X113665000Y-94615000D01*
X109620600Y-78720400D02*
X108370200Y-77470000D01*
X109718990Y-78818790D02*
X109620600Y-78720400D01*
X109728000Y-78827800D02*
X109620600Y-78720400D01*
X113404003Y-87535001D02*
X112465999Y-87535001D01*
X111854999Y-92804999D02*
X111854999Y-90875999D01*
X114205001Y-88335999D02*
X113404003Y-87535001D01*
X111854999Y-90875999D02*
X112655997Y-90075001D01*
X114205001Y-89464001D02*
X114205001Y-88335999D01*
X113594001Y-90075001D02*
X114205001Y-89464001D01*
X112655997Y-90075001D02*
X113594001Y-90075001D01*
X113030000Y-93980000D02*
X111854999Y-92804999D01*
X109728000Y-84797002D02*
X109728000Y-78827800D01*
X112465999Y-87535001D02*
X109728000Y-84797002D01*
%TO.N,ROMSEL*%
X107950000Y-85184700D02*
X107649500Y-85184700D01*
X107649500Y-85184700D02*
X105776400Y-83311600D01*
X105776400Y-83311600D02*
X105776400Y-55926400D01*
X105776400Y-55926400D02*
X105329200Y-55479200D01*
X105329200Y-55479200D02*
X105329200Y-47539100D01*
X105329200Y-47539100D02*
X104140000Y-46349900D01*
X104140000Y-46349900D02*
X104140000Y-43372800D01*
X104140000Y-43372800D02*
X102235000Y-41467800D01*
X102235000Y-41467800D02*
X102235000Y-39435000D01*
X107950000Y-86360000D02*
X107950000Y-85184700D01*
%TO.N,R-W*%
X107950000Y-91440000D02*
X109136400Y-90253600D01*
X109136400Y-90253600D02*
X109136400Y-83309800D01*
X109136400Y-83309800D02*
X108376600Y-82550000D01*
X108376600Y-82550000D02*
X107542200Y-82550000D01*
X107542200Y-82550000D02*
X106226700Y-81234500D01*
X106226700Y-81234500D02*
X106226700Y-55739800D01*
X106226700Y-55739800D02*
X105779500Y-55292600D01*
X105779500Y-55292600D02*
X105779500Y-47127200D01*
X105779500Y-47127200D02*
X105410100Y-46757800D01*
X105410100Y-46757800D02*
X105410100Y-42012100D01*
X105410100Y-42012100D02*
X104775000Y-41377000D01*
X104775000Y-41377000D02*
X104775000Y-39435000D01*
%TO.N,Net-(X1-Pad3)*%
X128494510Y-98903510D02*
X124587000Y-94996000D01*
X134620000Y-98615268D02*
X134331758Y-98903510D01*
X134331758Y-98903510D02*
X128494510Y-98903510D01*
X134620000Y-87835000D02*
X134620000Y-98615268D01*
%TO.N,Net-(J6-PadT)*%
X127000000Y-120735000D02*
X130810000Y-120735000D01*
X106990000Y-114340000D02*
X106990000Y-116021100D01*
X106990000Y-116021100D02*
X111917100Y-120948200D01*
X111917100Y-120948200D02*
X111917100Y-121677700D01*
X111917100Y-121677700D02*
X112854800Y-122615400D01*
X112854800Y-122615400D02*
X125119600Y-122615400D01*
X125119600Y-122615400D02*
X127000000Y-120735000D01*
%TO.N,Net-(J6-PadS)*%
X123190000Y-120735000D02*
X119380000Y-120735000D01*
X113990000Y-119215300D02*
X117860300Y-119215300D01*
X117860300Y-119215300D02*
X119380000Y-120735000D01*
X113990000Y-118140000D02*
X113990000Y-119215300D01*
%TO.N,AudIn*%
X113030000Y-104140000D02*
X114205300Y-104140000D01*
X114205300Y-104140000D02*
X114205300Y-104680300D01*
X114205300Y-104680300D02*
X118110000Y-108585000D01*
X107385999Y-105315001D02*
X102648000Y-100577002D01*
X102648000Y-100577002D02*
X102648000Y-99695000D01*
X111854999Y-105315001D02*
X107385999Y-105315001D01*
X113030000Y-104140000D02*
X111854999Y-105315001D01*
X103029000Y-93726000D02*
X103029000Y-99695000D01*
%TO.N,Net-(J6-PadSN)*%
X113990000Y-112640000D02*
X113990000Y-111564700D01*
X114248100Y-110585000D02*
X114248100Y-106171600D01*
X114248100Y-106171600D02*
X113579300Y-105502800D01*
X113579300Y-105502800D02*
X112504500Y-105502800D01*
X112504500Y-105502800D02*
X110139800Y-107867500D01*
X110139800Y-107867500D02*
X110139800Y-109232700D01*
X110139800Y-109232700D02*
X108307800Y-111064700D01*
X108307800Y-111064700D02*
X106990000Y-111064700D01*
X113990000Y-111564700D02*
X114248100Y-111306600D01*
X114248100Y-111306600D02*
X114248100Y-110585000D01*
X114248100Y-110585000D02*
X118110000Y-110585000D01*
X106990000Y-112140000D02*
X106990000Y-111064700D01*
%TO.N,Net-(U2-Pad10)*%
X130745000Y-45085000D02*
X130745000Y-43815000D01*
X130745000Y-43815000D02*
X130745000Y-42545000D01*
%TO.N,4016_EN*%
X125078700Y-50677900D02*
X129033200Y-50677900D01*
X129033200Y-50677900D02*
X129162800Y-50807500D01*
X129162800Y-50807500D02*
X131311800Y-50807500D01*
X131311800Y-50807500D02*
X131548500Y-51044200D01*
X131548500Y-51044200D02*
X131548500Y-52070000D01*
X123760000Y-51435000D02*
X124321600Y-51435000D01*
X124321600Y-51435000D02*
X125078700Y-50677900D01*
X125078700Y-50677900D02*
X125078700Y-49563800D01*
X125078700Y-49563800D02*
X123964800Y-48449900D01*
X123964800Y-48449900D02*
X122226800Y-48449900D01*
X122226800Y-48449900D02*
X119876700Y-50800000D01*
X119876700Y-50800000D02*
X117781600Y-50800000D01*
X117781600Y-50800000D02*
X116840000Y-49858400D01*
X116840000Y-49858400D02*
X116840000Y-45720000D01*
X131548500Y-52070000D02*
X136208100Y-52070000D01*
X136208100Y-52070000D02*
X137407900Y-53269800D01*
X137407900Y-53269800D02*
X137407900Y-62682100D01*
X137407900Y-62682100D02*
X136525000Y-63565000D01*
X125095000Y-63565000D02*
X125095000Y-62685600D01*
X125095000Y-62685600D02*
X126614200Y-61166400D01*
X126614200Y-61166400D02*
X126614200Y-60593800D01*
X126614200Y-60593800D02*
X127771500Y-59436500D01*
X127771500Y-59436500D02*
X127771500Y-57326800D01*
X127771500Y-57326800D02*
X129209300Y-55889000D01*
X129209300Y-55889000D02*
X131262600Y-55889000D01*
X131262600Y-55889000D02*
X131548500Y-55603100D01*
X131548500Y-55603100D02*
X131548500Y-52070000D01*
X97855000Y-52705000D02*
X97855000Y-40228600D01*
X97855000Y-40228600D02*
X100884200Y-37199400D01*
X100884200Y-37199400D02*
X106727600Y-37199400D01*
X106727600Y-37199400D02*
X107949900Y-38421700D01*
X107949900Y-38421700D02*
X107949900Y-41321800D01*
X107949900Y-41321800D02*
X109216500Y-42588400D01*
X109216500Y-42588400D02*
X109216500Y-45400400D01*
X109216500Y-45400400D02*
X109536100Y-45720000D01*
X109536100Y-45720000D02*
X116840000Y-45720000D01*
X120650000Y-45720000D02*
X116840000Y-45720000D01*
%TO.N,Net-(C3-Pad2)*%
X119599990Y-40224990D02*
X120650000Y-41275000D01*
X119599990Y-38886820D02*
X119599990Y-40224990D01*
X119936820Y-38549990D02*
X119599990Y-38886820D01*
X121363180Y-38549990D02*
X119936820Y-38549990D01*
X125358190Y-42545000D02*
X121363180Y-38549990D01*
X125795000Y-42545000D02*
X125358190Y-42545000D01*
X120650000Y-41275000D02*
X120650000Y-43720000D01*
%TO.N,Net-(R14-Pad2)*%
X125795000Y-41275000D02*
X126182400Y-41275000D01*
X126182400Y-41275000D02*
X127135700Y-42228300D01*
X127135700Y-42228300D02*
X127135700Y-42909800D01*
X127135700Y-42909800D02*
X126230500Y-43815000D01*
X126230500Y-43815000D02*
X125795000Y-43815000D01*
X119750420Y-38099979D02*
X121549579Y-38099979D01*
X124724601Y-41275000D02*
X125795000Y-41275000D01*
X119126000Y-38724399D02*
X119750420Y-38099979D01*
X119126000Y-44069000D02*
X119126000Y-38724399D01*
X128993990Y-38202832D02*
X128993990Y-44802778D01*
X121549579Y-38099979D02*
X124724601Y-41275000D01*
X134478390Y-37628390D02*
X129568431Y-37628391D01*
X135890000Y-39640000D02*
X135890000Y-39040000D01*
X129568431Y-37628391D02*
X128993990Y-38202832D01*
X126816758Y-46980010D02*
X123523200Y-46980010D01*
X128993990Y-44802778D02*
X126816758Y-46980010D01*
X123523200Y-46980010D02*
X121188200Y-44645010D01*
X121188200Y-44645010D02*
X119702010Y-44645010D01*
X119702010Y-44645010D02*
X119126000Y-44069000D01*
X135382000Y-38532000D02*
X134478390Y-37628390D01*
X135382000Y-39450000D02*
X135382000Y-38532000D01*
%TO.N,FF_Reset*%
X118810000Y-50165000D02*
X121347300Y-47627700D01*
X121347300Y-47627700D02*
X129472300Y-47627700D01*
X129472300Y-47627700D02*
X130745000Y-46355000D01*
X130240000Y-50165000D02*
X130240000Y-48395400D01*
X130240000Y-48395400D02*
X129472300Y-47627700D01*
%TO.N,IRQ*%
X118110000Y-85598000D02*
X117983000Y-85471000D01*
X118110000Y-87835000D02*
X118110000Y-85598000D01*
%TO.N,Net-(C1-Pad1)*%
X121920000Y-73878500D02*
X121701500Y-73660000D01*
X121920000Y-77265000D02*
X121920000Y-73878500D01*
X121701500Y-73660000D02*
X119375000Y-73660000D01*
%TO.N,Net-(C4-Pad1)*%
X117816100Y-39385000D02*
X116840000Y-39385000D01*
X117816100Y-39385000D02*
X117816100Y-42743900D01*
X117816100Y-42743900D02*
X116840000Y-43720000D01*
X125795000Y-40005000D02*
X125795000Y-38735000D01*
X119551132Y-37649968D02*
X117816100Y-39385000D01*
X125795000Y-38735000D02*
X124709968Y-37649968D01*
X124709968Y-37649968D02*
X119551132Y-37649968D01*
%TO.N,Net-(C5-Pad1)*%
X130745000Y-41275000D02*
X130745000Y-40005000D01*
X129444001Y-39679001D02*
X129444001Y-38389231D01*
X129754832Y-38078400D02*
X132328401Y-38078400D01*
X129444001Y-38389231D02*
X129754832Y-38078400D01*
X129770000Y-40005000D02*
X129444001Y-39679001D01*
X130745000Y-40005000D02*
X129770000Y-40005000D01*
X135382000Y-44196000D02*
X135382000Y-41275000D01*
X135382000Y-41131999D02*
X132328401Y-38078400D01*
X135382000Y-41275000D02*
X135382000Y-41131999D01*
%TD*%
M02*
