%TF.GenerationSoftware,KiCad,Pcbnew,(5.1.8)-1*%
%TF.CreationDate,2021-05-20T16:02:40+02:00*%
%TF.ProjectId,Nes Sound Expansion,4e657320-536f-4756-9e64-20457870616e,rev?*%
%TF.SameCoordinates,Original*%
%TF.FileFunction,Copper,L2,Bot*%
%TF.FilePolarity,Positive*%
%FSLAX46Y46*%
G04 Gerber Fmt 4.6, Leading zero omitted, Abs format (unit mm)*
G04 Created by KiCad (PCBNEW (5.1.8)-1) date 2021-05-20 16:02:40*
%MOMM*%
%LPD*%
G01*
G04 APERTURE LIST*
%TA.AperFunction,ComponentPad*%
%ADD10O,1.700000X1.700000*%
%TD*%
%TA.AperFunction,ComponentPad*%
%ADD11R,1.700000X1.700000*%
%TD*%
%TA.AperFunction,ViaPad*%
%ADD12C,0.800000*%
%TD*%
%TA.AperFunction,Conductor*%
%ADD13C,0.500000*%
%TD*%
%TA.AperFunction,Conductor*%
%ADD14C,0.250000*%
%TD*%
G04 APERTURE END LIST*
D10*
%TO.P,J3,24*%
%TO.N,N/C*%
X113030000Y-50800000D03*
%TO.P,J3,23*%
X113030000Y-53340000D03*
%TO.P,J3,22*%
%TO.N,Aud*%
X113030000Y-55880000D03*
%TO.P,J3,21*%
%TO.N,N/C*%
X113030000Y-58420000D03*
%TO.P,J3,20*%
X113030000Y-60960000D03*
%TO.P,J3,19*%
%TO.N,Joy2_D0*%
X113030000Y-63500000D03*
%TO.P,J3,18*%
%TO.N,N/C*%
X113030000Y-66040000D03*
%TO.P,J3,17*%
X113030000Y-68580000D03*
%TO.P,J3,16*%
X113030000Y-71120000D03*
%TO.P,J3,15*%
X113030000Y-73660000D03*
%TO.P,J3,14*%
%TO.N,IRQ*%
X113030000Y-76200000D03*
%TO.P,J3,13*%
%TO.N,N/C*%
X113030000Y-78740000D03*
%TO.P,J3,12*%
X113030000Y-81280000D03*
%TO.P,J3,11*%
%TO.N,Joy2_OE*%
X113030000Y-83820000D03*
%TO.P,J3,10*%
%TO.N,N/C*%
X113030000Y-86360000D03*
%TO.P,J3,9*%
%TO.N,Net-(J3-Pad9)*%
X113030000Y-88900000D03*
%TO.P,J3,8*%
%TO.N,A13*%
X113030000Y-91440000D03*
%TO.P,J3,7*%
%TO.N,A14*%
X113030000Y-93980000D03*
%TO.P,J3,6*%
%TO.N,Net-(J3-Pad6)*%
X113030000Y-96520000D03*
%TO.P,J3,5*%
%TO.N,N/C*%
X113030000Y-99060000D03*
%TO.P,J3,4*%
X113030000Y-101600000D03*
%TO.P,J3,3*%
%TO.N,AudIn*%
X113030000Y-104140000D03*
%TO.P,J3,2*%
%TO.N,GND*%
X113030000Y-106680000D03*
D11*
%TO.P,J3,1*%
%TO.N,Net-(J1-Pad1)*%
X113030000Y-109220000D03*
%TD*%
D10*
%TO.P,J2,7*%
%TO.N,GND*%
X99060000Y-66040000D03*
%TO.P,J2,6*%
%TO.N,N/C*%
X99060000Y-68580000D03*
%TO.P,J2,5*%
X99060000Y-71120000D03*
%TO.P,J2,4*%
%TO.N,Joy2_D0*%
X99060000Y-73660000D03*
%TO.P,J2,3*%
%TO.N,OUT0*%
X99060000Y-76200000D03*
%TO.P,J2,2*%
%TO.N,Joy2_OE*%
X99060000Y-78740000D03*
D11*
%TO.P,J2,1*%
%TO.N,Net-(J1-Pad1)*%
X99060000Y-81280000D03*
%TD*%
D10*
%TO.P,J1,7*%
%TO.N,GND*%
X99060000Y-101600000D03*
%TO.P,J1,6*%
%TO.N,N/C*%
X99060000Y-99060000D03*
%TO.P,J1,5*%
X99060000Y-96520000D03*
%TO.P,J1,4*%
%TO.N,Joy1_D0*%
X99060000Y-93980000D03*
%TO.P,J1,3*%
%TO.N,OUT0*%
X99060000Y-91440000D03*
%TO.P,J1,2*%
%TO.N,Joy1_OE*%
X99060000Y-88900000D03*
D11*
%TO.P,J1,1*%
%TO.N,Net-(J1-Pad1)*%
X99060000Y-86360000D03*
%TD*%
D10*
%TO.P,J4,24*%
%TO.N,D7*%
X107950000Y-50800000D03*
%TO.P,J4,23*%
%TO.N,D6*%
X107950000Y-53340000D03*
%TO.P,J4,22*%
%TO.N,D5*%
X107950000Y-55880000D03*
%TO.P,J4,21*%
%TO.N,D4*%
X107950000Y-58420000D03*
%TO.P,J4,20*%
%TO.N,D3*%
X107950000Y-60960000D03*
%TO.P,J4,19*%
%TO.N,D2*%
X107950000Y-63500000D03*
%TO.P,J4,18*%
%TO.N,D1*%
X107950000Y-66040000D03*
%TO.P,J4,17*%
%TO.N,D0*%
X107950000Y-68580000D03*
%TO.P,J4,16*%
%TO.N,N/C*%
X107950000Y-71120000D03*
%TO.P,J4,15*%
X107950000Y-73660000D03*
%TO.P,J4,14*%
%TO.N,Joy1_D0*%
X107950000Y-76200000D03*
%TO.P,J4,13*%
%TO.N,N/C*%
X107950000Y-78740000D03*
%TO.P,J4,12*%
%TO.N,Joy1_OE*%
X107950000Y-81280000D03*
%TO.P,J4,11*%
%TO.N,A1*%
X107950000Y-83820000D03*
%TO.P,J4,10*%
%TO.N,ROMSEL*%
X107950000Y-86360000D03*
%TO.P,J4,9*%
%TO.N,Net-(J4-Pad9)*%
X107950000Y-88900000D03*
%TO.P,J4,8*%
%TO.N,R-W*%
X107950000Y-91440000D03*
%TO.P,J4,7*%
%TO.N,N/C*%
X107950000Y-93980000D03*
%TO.P,J4,6*%
%TO.N,OUT0*%
X107950000Y-96520000D03*
%TO.P,J4,5*%
%TO.N,OUT1*%
X107950000Y-99060000D03*
%TO.P,J4,4*%
%TO.N,N/C*%
X107950000Y-101600000D03*
%TO.P,J4,3*%
X107950000Y-104140000D03*
%TO.P,J4,2*%
%TO.N,GND*%
X107950000Y-106680000D03*
D11*
%TO.P,J4,1*%
%TO.N,Net-(J1-Pad1)*%
X107950000Y-109220000D03*
%TD*%
D12*
%TO.N,+5V*%
X126995700Y-78917300D03*
X126287500Y-74666600D03*
X102121700Y-50757700D03*
X123657100Y-49175300D03*
X133053700Y-49382300D03*
X127000000Y-89765300D03*
X100965000Y-110871000D03*
%TO.N,GND*%
X123986700Y-66186200D03*
X127078600Y-65055300D03*
X118974100Y-60268100D03*
X103822500Y-48197200D03*
X118477015Y-98236885D03*
X133477000Y-46027500D03*
X123767250Y-44888750D03*
X112965000Y-41275000D03*
%TO.N,Net-(J1-Pad1)*%
X97790000Y-110744000D03*
%TO.N,D7*%
X125445100Y-51427400D03*
X133760300Y-55877400D03*
X119233624Y-67112176D03*
%TO.N,D5*%
X128249400Y-55186000D03*
X120844200Y-57316000D03*
%TO.N,D4*%
X128262400Y-53711600D03*
X120395300Y-53570500D03*
%TO.N,D3*%
X129884200Y-66774400D03*
%TO.N,D2*%
X132626300Y-54670300D03*
%TO.N,D1*%
X131445000Y-65395400D03*
%TO.N,D0*%
X134103100Y-65156600D03*
%TO.N,OUT1*%
X134958700Y-61961100D03*
%TO.N,A0_buf*%
X99454900Y-59055000D03*
X133626700Y-54762400D03*
%TO.N,A1_buf*%
X99437300Y-55137300D03*
X133583700Y-51129900D03*
%TO.N,D3_buf*%
X128129300Y-65189900D03*
X124538000Y-60306100D03*
%TO.N,D2_buf*%
X130628800Y-66026700D03*
X117387200Y-58410500D03*
%TO.N,D1_buf*%
X130175000Y-61976300D03*
X121261200Y-56311300D03*
%TO.N,D0_buf*%
X132426400Y-61595300D03*
X125200900Y-57141000D03*
%TO.N,D7_buf*%
X117475000Y-66934600D03*
X133889100Y-61972200D03*
%TO.N,D4_Chip*%
X125986600Y-66629800D03*
X121285000Y-65159900D03*
%TO.N,A13*%
X104560500Y-85325700D03*
%TO.N,A1*%
X103835200Y-79508200D03*
%TO.N,CS_Chip*%
X104590000Y-70938900D03*
X120474834Y-79912236D03*
%TO.N,A0_Chip*%
X124104000Y-86051200D03*
X101456400Y-69624100D03*
%TO.N,A1_Chip*%
X125309700Y-84836400D03*
X103171900Y-67763300D03*
%TO.N,IRQ*%
X117983000Y-85471000D03*
%TD*%
D13*
%TO.N,+5V*%
X126635100Y-74666600D02*
X126995700Y-75027200D01*
X126995700Y-75027200D02*
X126995700Y-78917300D01*
X127000000Y-89765300D02*
X127000000Y-78921600D01*
X127000000Y-78921600D02*
X126995700Y-78917300D01*
X126635100Y-74666600D02*
X135816100Y-65485600D01*
X135816100Y-65485600D02*
X135816100Y-52144700D01*
X135816100Y-52144700D02*
X133053700Y-49382300D01*
X126287500Y-74666600D02*
X126635100Y-74666600D01*
X133053700Y-49382300D02*
X123864100Y-49382300D01*
X123864100Y-49382300D02*
X123657100Y-49175300D01*
X123657100Y-49175300D02*
X123036300Y-48554500D01*
X123036300Y-48554500D02*
X105206400Y-48554500D01*
X105206400Y-48554500D02*
X103003200Y-50757700D01*
X103003200Y-50757700D02*
X102121700Y-50757700D01*
X100995100Y-110840900D02*
X100965000Y-110871000D01*
X113769900Y-110840900D02*
X100995100Y-110840900D01*
X127000000Y-97610800D02*
X113769900Y-110840900D01*
X127000000Y-89765300D02*
X127000000Y-97610800D01*
%TO.N,GND*%
X123986700Y-65263900D02*
X126870000Y-65263900D01*
X126870000Y-65263900D02*
X127078600Y-65055300D01*
X118974100Y-60268100D02*
X123969900Y-65263900D01*
X123969900Y-65263900D02*
X123986700Y-65263900D01*
X123986700Y-65263900D02*
X123986700Y-66186200D01*
X103822500Y-48197200D02*
X103479700Y-48197200D01*
X103479700Y-48197200D02*
X98578300Y-53098600D01*
X98578300Y-53098600D02*
X98578300Y-66040000D01*
X98578300Y-66040000D02*
X99060000Y-66040000D01*
X99060000Y-101600000D02*
X97305700Y-99845700D01*
X97305700Y-99845700D02*
X97305700Y-67312600D01*
X97305700Y-67312600D02*
X98578300Y-66040000D01*
X113030000Y-106680000D02*
X109250300Y-106680000D01*
X107950000Y-106680000D02*
X109250300Y-106680000D01*
X118477015Y-101232985D02*
X118477015Y-98236885D01*
X113030000Y-106680000D02*
X118477015Y-101232985D01*
X124906000Y-46027500D02*
X123767250Y-44888750D01*
X134165500Y-46027500D02*
X124906000Y-46027500D01*
X120153500Y-41275000D02*
X123767250Y-44888750D01*
X112965000Y-41275000D02*
X120153500Y-41275000D01*
X110744700Y-41275000D02*
X103822500Y-48197200D01*
X112965000Y-41275000D02*
X110744700Y-41275000D01*
%TO.N,Net-(J1-Pad1)*%
X107950000Y-109220000D02*
X99220200Y-109220000D01*
X99220200Y-109220000D02*
X97759600Y-110680600D01*
X113030000Y-109220000D02*
X107950000Y-109220000D01*
D14*
%TO.N,D7*%
X125445100Y-51427400D02*
X131405600Y-51427400D01*
X131405600Y-51427400D02*
X134362900Y-54384700D01*
X134362900Y-54384700D02*
X134362900Y-55274800D01*
X134362900Y-55274800D02*
X133760300Y-55877400D01*
X109125300Y-50800000D02*
X110322100Y-49603200D01*
X110322100Y-49603200D02*
X115491900Y-49603200D01*
X115491900Y-49603200D02*
X117316100Y-51427400D01*
X117316100Y-51427400D02*
X125445100Y-51427400D01*
X107950000Y-50800000D02*
X109125300Y-50800000D01*
X132435400Y-62820400D02*
X132435400Y-65921600D01*
X132435400Y-65921600D02*
X130094600Y-68262400D01*
X133760300Y-55877400D02*
X133163700Y-56474000D01*
X133163700Y-56474000D02*
X133163700Y-62092100D01*
X133163700Y-62092100D02*
X132435400Y-62820400D01*
X130094600Y-68262400D02*
X120383848Y-68262400D01*
X120383848Y-68262400D02*
X119233624Y-67112176D01*
%TO.N,D5*%
X120844200Y-57316000D02*
X120521400Y-56993200D01*
X120521400Y-56993200D02*
X120521400Y-55946300D01*
X120521400Y-55946300D02*
X121281700Y-55186000D01*
X121281700Y-55186000D02*
X128249400Y-55186000D01*
%TO.N,D4*%
X120395300Y-53570500D02*
X128121300Y-53570500D01*
X128121300Y-53570500D02*
X128262400Y-53711600D01*
X109125300Y-58420000D02*
X109125300Y-58052700D01*
X109125300Y-58052700D02*
X112473400Y-54704600D01*
X112473400Y-54704600D02*
X113482700Y-54704600D01*
X113482700Y-54704600D02*
X114616800Y-53570500D01*
X114616800Y-53570500D02*
X120395300Y-53570500D01*
X107950000Y-58420000D02*
X109125300Y-58420000D01*
%TO.N,D3*%
X109125300Y-60960000D02*
X110300600Y-62135300D01*
X110300600Y-62135300D02*
X116512600Y-62135300D01*
X116512600Y-62135300D02*
X121739100Y-67361800D01*
X121739100Y-67361800D02*
X129296800Y-67361800D01*
X129296800Y-67361800D02*
X129884200Y-66774400D01*
X107950000Y-60960000D02*
X109125300Y-60960000D01*
%TO.N,D2*%
X107950000Y-62324700D02*
X107582700Y-62324700D01*
X107582700Y-62324700D02*
X106759300Y-61501300D01*
X106759300Y-61501300D02*
X106759300Y-60480300D01*
X106759300Y-60480300D02*
X107455000Y-59784600D01*
X107455000Y-59784600D02*
X113965000Y-59784600D01*
X113965000Y-59784600D02*
X119312700Y-54436900D01*
X119312700Y-54436900D02*
X132392900Y-54436900D01*
X132392900Y-54436900D02*
X132626300Y-54670300D01*
X107950000Y-63500000D02*
X107950000Y-62324700D01*
%TO.N,D1*%
X107950000Y-66040000D02*
X110434300Y-66040000D01*
X110434300Y-66040000D02*
X111610200Y-64864100D01*
X111610200Y-64864100D02*
X118283200Y-64864100D01*
X118283200Y-64864100D02*
X121231200Y-67812100D01*
X121231200Y-67812100D02*
X129908000Y-67812100D01*
X129908000Y-67812100D02*
X131445000Y-66275100D01*
X131445000Y-66275100D02*
X131445000Y-65395400D01*
%TO.N,D0*%
X109125300Y-68580000D02*
X110307800Y-67397500D01*
X110307800Y-67397500D02*
X113942900Y-67397500D01*
X113942900Y-67397500D02*
X115708400Y-69163000D01*
X115708400Y-69163000D02*
X130467800Y-69163000D01*
X130467800Y-69163000D02*
X134103100Y-65527700D01*
X134103100Y-65527700D02*
X134103100Y-65156600D01*
X107950000Y-68580000D02*
X109125300Y-68580000D01*
%TO.N,OUT1*%
X109125300Y-99060000D02*
X110300600Y-97884700D01*
X110300600Y-97884700D02*
X113382600Y-97884700D01*
X113382600Y-97884700D02*
X126092000Y-85175300D01*
X126092000Y-85175300D02*
X126092000Y-80817400D01*
X126092000Y-80817400D02*
X125562200Y-80287600D01*
X125562200Y-80287600D02*
X125562200Y-74366200D01*
X125562200Y-74366200D02*
X125987100Y-73941300D01*
X125987100Y-73941300D02*
X126367000Y-73941300D01*
X126367000Y-73941300D02*
X134958700Y-65349600D01*
X134958700Y-65349600D02*
X134958700Y-61961100D01*
X107950000Y-99060000D02*
X109125300Y-99060000D01*
%TO.N,A0_buf*%
X99454900Y-59055000D02*
X106357200Y-52152700D01*
X106357200Y-52152700D02*
X131147600Y-52152700D01*
X131147600Y-52152700D02*
X133626600Y-54631700D01*
X133626600Y-54631700D02*
X133626600Y-54762400D01*
X133626600Y-54762400D02*
X133626700Y-54762400D01*
%TO.N,A1_buf*%
X133583700Y-51129900D02*
X133155900Y-50702100D01*
X133155900Y-50702100D02*
X118777600Y-50702100D01*
X118777600Y-50702100D02*
X117228300Y-49152800D01*
X117228300Y-49152800D02*
X105421800Y-49152800D01*
X105421800Y-49152800D02*
X99437300Y-55137300D01*
%TO.N,D3_buf*%
X124538000Y-60306100D02*
X128129300Y-63897400D01*
X128129300Y-63897400D02*
X128129300Y-65189900D01*
%TO.N,D2_buf*%
X130628800Y-66026700D02*
X130628800Y-65371100D01*
X130628800Y-65371100D02*
X123668200Y-58410500D01*
X123668200Y-58410500D02*
X117387200Y-58410500D01*
%TO.N,D1_buf*%
X121261200Y-56311300D02*
X122816300Y-57866400D01*
X122816300Y-57866400D02*
X126065100Y-57866400D01*
X126065100Y-57866400D02*
X130175000Y-61976300D01*
%TO.N,D0_buf*%
X125200900Y-57141000D02*
X127972100Y-57141000D01*
X127972100Y-57141000D02*
X132426400Y-61595300D01*
%TO.N,D7_buf*%
X117475000Y-66934600D02*
X119253100Y-68712700D01*
X119253100Y-68712700D02*
X130281200Y-68712700D01*
X130281200Y-68712700D02*
X133107100Y-65886800D01*
X133107100Y-65886800D02*
X133107100Y-65126900D01*
X133107100Y-65126900D02*
X133889100Y-64344900D01*
X133889100Y-64344900D02*
X133889100Y-61972200D01*
%TO.N,D4_Chip*%
X121285000Y-65159900D02*
X123036600Y-66911500D01*
X123036600Y-66911500D02*
X125704900Y-66911500D01*
X125704900Y-66911500D02*
X125986600Y-66629800D01*
%TO.N,A13*%
X111854700Y-91440000D02*
X111854700Y-91072700D01*
X111854700Y-91072700D02*
X108506600Y-87724600D01*
X108506600Y-87724600D02*
X106959400Y-87724600D01*
X106959400Y-87724600D02*
X104560500Y-85325700D01*
X113030000Y-91440000D02*
X111854700Y-91440000D01*
%TO.N,A1*%
X107950000Y-83820000D02*
X103835200Y-79705200D01*
X103835200Y-79705200D02*
X103835200Y-79508200D01*
%TO.N,CS_Chip*%
X120474834Y-79346551D02*
X120474834Y-79912236D01*
X106041100Y-72390000D02*
X113518283Y-72390000D01*
X104590000Y-70938900D02*
X106041100Y-72390000D01*
X113518283Y-72390000D02*
X120474834Y-79346551D01*
%TO.N,A0_Chip*%
X101456400Y-69624100D02*
X106762300Y-74930000D01*
X106762300Y-74930000D02*
X113480000Y-74930000D01*
X113480000Y-74930000D02*
X124104000Y-85554000D01*
X124104000Y-85554000D02*
X124104000Y-86051200D01*
%TO.N,A1_Chip*%
X103171900Y-67763300D02*
X105258600Y-69850000D01*
X105258600Y-69850000D02*
X113429700Y-69850000D01*
X113429700Y-69850000D02*
X125309700Y-81730000D01*
X125309700Y-81730000D02*
X125309700Y-84836400D01*
%TO.N,Joy1_D0*%
X106774700Y-76200000D02*
X105599400Y-77375300D01*
X105599400Y-77375300D02*
X98758700Y-77375300D01*
X98758700Y-77375300D02*
X97884700Y-78249300D01*
X97884700Y-78249300D02*
X97884700Y-91996800D01*
X97884700Y-91996800D02*
X98692600Y-92804700D01*
X98692600Y-92804700D02*
X99060000Y-92804700D01*
X99060000Y-93980000D02*
X99060000Y-92804700D01*
X107950000Y-76200000D02*
X106774700Y-76200000D01*
%TO.N,OUT0*%
X99060000Y-91440000D02*
X100235300Y-91440000D01*
X100235300Y-91440000D02*
X105315300Y-96520000D01*
X105315300Y-96520000D02*
X106774700Y-96520000D01*
X107950000Y-96520000D02*
X106774700Y-96520000D01*
%TO.N,Joy1_OE*%
X99060000Y-88900000D02*
X100235300Y-88900000D01*
X107950000Y-81280000D02*
X107950000Y-82455300D01*
X107950000Y-82455300D02*
X108317300Y-82455300D01*
X108317300Y-82455300D02*
X109129200Y-83267200D01*
X109129200Y-83267200D02*
X109129200Y-84303400D01*
X109129200Y-84303400D02*
X108420600Y-85012000D01*
X108420600Y-85012000D02*
X105808900Y-85012000D01*
X105808900Y-85012000D02*
X105367900Y-84571000D01*
X105367900Y-84571000D02*
X104270500Y-84571000D01*
X104270500Y-84571000D02*
X100235300Y-88606200D01*
X100235300Y-88606200D02*
X100235300Y-88900000D01*
%TO.N,Joy2_D0*%
X111854700Y-63500000D02*
X110679400Y-64675300D01*
X110679400Y-64675300D02*
X105234200Y-64675300D01*
X105234200Y-64675300D02*
X100235300Y-69674200D01*
X100235300Y-69674200D02*
X100235300Y-71676800D01*
X100235300Y-71676800D02*
X99427400Y-72484700D01*
X99427400Y-72484700D02*
X99060000Y-72484700D01*
X113030000Y-63500000D02*
X111854700Y-63500000D01*
X99060000Y-73660000D02*
X99060000Y-72484700D01*
%TO.N,Joy2_OE*%
X111854700Y-83820000D02*
X111854700Y-83452700D01*
X111854700Y-83452700D02*
X108457000Y-80055000D01*
X108457000Y-80055000D02*
X105407800Y-80055000D01*
X105407800Y-80055000D02*
X104092800Y-78740000D01*
X104092800Y-78740000D02*
X100235300Y-78740000D01*
X99060000Y-78740000D02*
X100235300Y-78740000D01*
X113030000Y-83820000D02*
X111854700Y-83820000D01*
%TO.N,IRQ*%
X117983000Y-81153000D02*
X113030000Y-76200000D01*
X117983000Y-85471000D02*
X117983000Y-81153000D01*
%TD*%
M02*
